/* XPM */
static char *logo_jb_icon[] = {
/* width height num_colors chars_per_pixel */
"    32    32      118            2",
/* colors */
".. c #047604",
".# c #04be04",
".a c #5cbe84",
".b c #04badc",
".c c #049a04",
".d c #64e2fc",
".e c #04bedc",
".f c #8ce2cc",
".g c #048a04",
".h c #2ce22c",
".i c #8cf2fc",
".j c #2c9a44",
".k c #34cef4",
".l c #5cdefc",
".m c #048204",
".n c #1cd21c",
".o c #a4f6ec",
".p c #6ccea4",
".q c #04ae04",
".r c #1c8a2c",
".s c #44f244",
".t c #14ca14",
".u c #04b604",
".v c #047e04",
".w c #64c694",
".x c #4cd6fc",
".y c #148214",
".z c #a4fefc",
".A c #14c214",
".B c #7ceafc",
".C c #049204",
".D c #9cf2e4",
".E c #3cb654",
".F c #24923c",
".G c #3cea3c",
".H c #24da24",
".I c #7cd6b4",
".J c #4cfa4c",
".K c #14b614",
".L c #0cc60c",
".M c #4cb274",
".N c #04a204",
".O c #74e6fc",
".P c #44a65c",
".Q c #6cc69c",
".R c #54defc",
".S c #148624",
".T c #0c920c",
".U c #047a04",
".V c #0cc20c",
".W c #64c28c",
".X c #14c2e4",
".Y c #94e6d4",
".Z c #34e234",
".0 c #94f2fc",
".1 c #2ca23c",
".2 c #44d6fc",
".3 c #84dec4",
".4 c #0c8214",
".5 c #a4fafc",
".6 c #0cae0c",
".7 c #1cce1c",
".8 c #0c7e14",
".9 c #54dafc",
"#. c #14861c",
"## c #9cfafc",
"#a c #2c963c",
"#b c #2cda2c",
"#c c #84dabc",
"#d c #54fe54",
"#e c #5cba84",
"#f c #6cca9c",
"#g c #04c204",
"#h c #049e04",
"#i c #6ce6fc",
"#j c #0cbee4",
"#k c #8ce6d4",
"#l c #048e04",
"#m c #349e4c",
"#n c #3cd2f4",
"#o c #64defc",
"#p c #048604",
"#q c #24d624",
"#r c #a4faf4",
"#s c #74d2ac",
"#t c #04b204",
"#u c #1c8e2c",
"#v c #44f644",
"#w c #14ce14",
"#x c #1cc6ec",
"#y c #94eadc",
"#z c #04ba04",
"#A c #047e0c",
"#B c #4cdafc",
"#C c #14821c",
"#D c #acfefc",
"#E c #14c614",
"#F c #84eefc",
"#G c #049604",
"#H c #9cf6fc",
"#I c #4cae6c",
"#J c #2ccef4",
"#K c #3cee3c",
"#L c #acfafc",
"#M c #4cfe4c",
"#N c #9ceee4",
"#O c #54b67c",
"#P c #04a604",
"#Q c #74eafc",
"#R c #24caec",
"#S c #0cba0c",
"#T c #047a0c",
"#U c #64c294",
"#V c #34e634",
"#W c #94f6fc",
"#X c #2c9644",
"#Y c #2cde2c",
"#Z c #6ccaa4",
/* pixels */
".9.9#B.9.9#B.9.9#B.9.9#B.9.9#B.9.9#B.9.9#B.9.9#B.9.9#B.9.9#B.9.9",
".9#B.9.9#B.9.9#B.9.9#B.9.9#B.9.9#B.9.9#B.9.9#B.9.9#B.9.9#B.9#B.9",
".9#B.9#B.9#B.9.9#B.9#B.9#B.9#B.9.9#B.9#B.9#B.9#B.9.9#B.9.9#B.9#B",
"#B.9.9#B.9.9#B.9#B.9.9.9#i.B.0#H.5.5###W#F.B.l.9#B.9#B.9#B.9.9.9",
".9#B.9.9#B.9.9#B.9.B#H#D#D.D.I.a#Z#k.f#N#D#D#D.5.B.9.9.9#B.9#B.9",
"#B.9.9#B.9#B.9.d###D#D.3#a...m.v....#l.U.r#I#N#D#D##.l#B.9.9#B.9",
".9#B.9.9#B.9#Q#D#L#s#m...U#h.t.L#P.q.L#G...U#A#c#D#D.5#o#B.9.9#B",
"#B.9.9#B.9.O#D#D.P...g.q#z#w#d#Y#z#K#v#t.u#t..#C.o#D#D.5.R.9#B.9",
".9#B.9.9.l#D#D#U..#l.L.H.##w#d.L.L#M.Z.L#M.G.N..#O#D#D#D.B.9.9#B",
"#B.9.9#B#F#D#D#X...q#M.n#z#V#K.V#K.Z.u#Y#d.t#q.6#T#c#D#D#H.9#B.9",
".9#B.9#B.0#D#D.j#G#q.J.s.J#d.J#v#V#P.g.h#M.L#M#b...8#L#D.5.9.9#B",
".9.9#B.9.5#D#D.4#G.h#K.t.s.h#P#p.m.m#t#z.s#Y.H.G#G...3#D#D.9#B.9",
".9#B.9.9#W#D#D#X.v.#.Z.L.#.q...U.C#t#V#w.n.s#z#V.7.U.W#D#D.9.9#B",
"#B.9#B.9.B#D#D#k#.#p#G#G.m#l.A.n#z#g.s#Y.#.s#b.#.C..#e#D.z.9#B.9",
".9.9#B.9#B.B#D#D.o#U#u....#P.H#M#K#M#K.s#z#w#E#p....#k#D.5#B.9.9",
"#B.9#B.9.9.9.O#D#D#D#y.....U.C.6#S#z#z.K.N#G.v...8#f#D#D#F.9#B.9",
".9.9.9#B.9#B.9#F#D#D#D#y.M#C#a#I.r.v.m.g#G#l#p#p#s#D#D.5.9.9.9#B",
".e#j.k.9#B.9.9.9.5#D#D#D#D#D#D#D#L.j...g.C.N#P.1#L#D.5#o.9#B.9.9",
".b.b.b.2.9#B.9#B#i.5#D#D#D#W.0.5#D.o.S...T.E.p#r#D.5.d#B.9.9#B.9",
".b.b.b#x.9.9#B.9.9.9#i#o.9.9.9.l.5#D.Y.4#U#D#D#D.5.R.9.9#B.9#B.9",
".b.b.b.b.2.9.9#B.9#B.9#B.9#B.9#B.O#D#D#k.o#D#D#D#D.O.9#B.9.9#B.9",
".b.b.b.b#j.k#B.9#B.x.2#n.x.9#B.9.9.l#Q.5#D#D#c#s#L#D.B.9.9#B.9.9",
".b.b.b.b.b.b.e.X#j.b.b.b.b#R.9#B.9#B.9#F#D#k.U.v.F#r#D.9#B.9#B.9",
".b.b.b.b.b.b.b.b.b.b.b.b.b.b.2.9.9#B.9.O#D.M#p.u.c.Q#D.d.9#B.9.9",
".b.b.b.b.b.b.b.b.b.b.b.b#x.x#B.9#B.9.9.R#D#k.y.C.m.p#D.l.9.9#B.9",
".b.b.b.b.b.b.b.b.b.b.b.k#B.9.9.l.B#F#F.i#D#D.o#y.f#D.0.9#B.9#B.9",
".b.b.b.b.b.b.b.b.b.b#j#B.9#B.9.5#D.Y.a.f#D#D.B.d.l.9#B.9.9#B.9.9",
".b.b.b#x#R.e.b.b.b.b#j.9#B.9.l#D.Y#A.C.T#N#D.B#B.9#B.9.9#B.9#B.9",
".b.b#J#B.9.x#x.b.b.b.b.9.9#B.9##.f.4#h#p#Z#D.i.9#B.9#B.9.9#B.9#B",
"#j.k.9.9#B.9.x#J.b.b#R#B.9#B.9.d.z#N.M.w#D.5.d.9.9#B.9.9#B.9.9.9",
".9.9#B.9.9#B.9.9#B.x.9.9#B.9.9.9.l.B#H#W#F.l.9#B.9.9#B.9#B.9#B.9",
".9#B.9.9#B.9.9#B.9.9.9#B.9.9#B#B.9.9#B.9.9.9.9.9#B.9.9#B.9.9#B.9"
};
