<?xml version="1.0" encoding="UTF-8" standalone="no"?>
<!DOCTYPE svg PUBLIC "-//W3C//DTD SVG 1.1//EN"
 "http://www.w3.org/Graphics/SVG/1.1/DTD/svg11.dtd">
<!-- Generated by graphviz version 2.26.3 (20100126.1600)
 -->
<!-- Title: inheritance2526eec81b Pages: 1 -->
<svg width="814pt" height="66pt"
 viewBox="0.00 0.00 814.00 66.00" xmlns="http://www.w3.org/2000/svg" xmlns:xlink="http://www.w3.org/1999/xlink">
<g id="graph1" class="graph" transform="scale(1 1) rotate(0) translate(4 62)">
<title>inheritance2526eec81b</title>
<polygon fill="white" stroke="white" points="-4,5 -4,-62 811,-62 811,5 -4,5"/>
<!-- topo.tests.unit.testplotfilesaver.TestPlotGroupSaver -->
<g id="node1" class="node"><title>topo.tests.unit.testplotfilesaver.TestPlotGroupSaver</title>
<polygon fill="none" stroke="black" stroke-width="0.5" points="776,-58.5 514,-58.5 514,-37.5 776,-37.5 776,-58.5"/>
<text text-anchor="middle" x="645" y="-45.5" font-family="Vera" font-size="10.00">topo.tests.unit.testplotfilesaver.TestPlotGroupSaver</text>
</g>
<!-- topo.tests.unit.testplotfilesaver.TestPlotGroupSaverBase -->
<g id="node2" class="node"><title>topo.tests.unit.testplotfilesaver.TestPlotGroupSaverBase</title>
<polygon fill="none" stroke="black" stroke-width="0.5" points="448,-39.5 162,-39.5 162,-18.5 448,-18.5 448,-39.5"/>
<text text-anchor="middle" x="305" y="-26.5" font-family="Vera" font-size="10.00">topo.tests.unit.testplotfilesaver.TestPlotGroupSaverBase</text>
</g>
<!-- topo.tests.unit.testplotfilesaver.TestPlotGroupSaverBase&#45;&gt;topo.tests.unit.testplotfilesaver.TestPlotGroupSaver -->
<g id="edge2" class="edge"><title>topo.tests.unit.testplotfilesaver.TestPlotGroupSaverBase&#45;&gt;topo.tests.unit.testplotfilesaver.TestPlotGroupSaver</title>
<path fill="none" stroke="black" stroke-width="0.5" d="M448.205,-37.0026C468.282,-38.1246 488.87,-39.2751 508.811,-40.3894"/>
<polygon fill="black" stroke="black" points="508.776,-42.1401 513.866,-40.6719 508.972,-38.6456 508.776,-42.1401"/>
</g>
<!-- topo.tests.unit.testplotfilesaver.TestCFProjectionPlotGroupSaver -->
<g id="node6" class="node"><title>topo.tests.unit.testplotfilesaver.TestCFProjectionPlotGroupSaver</title>
<polygon fill="none" stroke="black" stroke-width="0.5" points="805,-20.5 485,-20.5 485,0.5 805,0.5 805,-20.5"/>
<text text-anchor="middle" x="645" y="-7.5" font-family="Vera" font-size="10.00">topo.tests.unit.testplotfilesaver.TestCFProjectionPlotGroupSaver</text>
</g>
<!-- topo.tests.unit.testplotfilesaver.TestPlotGroupSaverBase&#45;&gt;topo.tests.unit.testplotfilesaver.TestCFProjectionPlotGroupSaver -->
<g id="edge6" class="edge"><title>topo.tests.unit.testplotfilesaver.TestPlotGroupSaverBase&#45;&gt;topo.tests.unit.testplotfilesaver.TestCFProjectionPlotGroupSaver</title>
<path fill="none" stroke="black" stroke-width="0.5" d="M448.205,-20.9974C458.499,-20.4221 468.927,-19.8394 479.333,-19.2579"/>
<polygon fill="black" stroke="black" points="479.545,-20.9989 484.439,-18.9725 479.349,-17.5043 479.545,-20.9989"/>
</g>
<!-- unittest.case.TestCase -->
<g id="node4" class="node"><title>unittest.case.TestCase</title>
<polygon fill="none" stroke="black" stroke-width="0.5" points="125,-39.5 1,-39.5 1,-18.5 125,-18.5 125,-39.5"/>
<text text-anchor="middle" x="63" y="-26.5" font-family="Vera" font-size="10.00">unittest.case.TestCase</text>
</g>
<!-- unittest.case.TestCase&#45;&gt;topo.tests.unit.testplotfilesaver.TestPlotGroupSaverBase -->
<g id="edge4" class="edge"><title>unittest.case.TestCase&#45;&gt;topo.tests.unit.testplotfilesaver.TestPlotGroupSaverBase</title>
<path fill="none" stroke="black" stroke-width="0.5" d="M125.636,-29C135.384,-29 145.797,-29 156.514,-29"/>
<polygon fill="black" stroke="black" points="156.798,-30.7501 161.798,-29 156.798,-27.2501 156.798,-30.7501"/>
</g>
</g>
</svg>
