<?xml version="1.0" encoding="UTF-8" standalone="no"?>
<!DOCTYPE svg PUBLIC "-//W3C//DTD SVG 1.1//EN"
 "http://www.w3.org/Graphics/SVG/1.1/DTD/svg11.dtd">
<!-- Generated by graphviz version 2.26.3 (20100126.1600)
 -->
<!-- Title: inheritance15f48b3978 Pages: 1 -->
<svg width="860pt" height="123pt"
 viewBox="0.00 0.00 860.00 123.00" xmlns="http://www.w3.org/2000/svg" xmlns:xlink="http://www.w3.org/1999/xlink">
<g id="graph1" class="graph" transform="scale(1 1) rotate(0) translate(4 119)">
<title>inheritance15f48b3978</title>
<polygon fill="white" stroke="white" points="-4,5 -4,-119 857,-119 857,5 -4,5"/>
<!-- dataviews.views.GridLayout -->
<g id="node1" class="node"><title>dataviews.views.GridLayout</title>
<polygon fill="none" stroke="black" stroke-width="0.5" points="851,-115.5 705,-115.5 705,-94.5 851,-94.5 851,-115.5"/>
<text text-anchor="middle" x="778" y="-102.5" font-family="Vera" font-size="10.00">dataviews.views.GridLayout</text>
</g>
<!-- dataviews.ndmapping.NdMapping -->
<g id="node2" class="node"><title>dataviews.ndmapping.NdMapping</title>
<polygon fill="none" stroke="black" stroke-width="0.5" points="668,-115.5 490,-115.5 490,-94.5 668,-94.5 668,-115.5"/>
<text text-anchor="middle" x="579" y="-102.5" font-family="Vera" font-size="10.00">dataviews.ndmapping.NdMapping</text>
</g>
<!-- dataviews.ndmapping.NdMapping&#45;&gt;dataviews.views.GridLayout -->
<g id="edge2" class="edge"><title>dataviews.ndmapping.NdMapping&#45;&gt;dataviews.views.GridLayout</title>
<path fill="none" stroke="black" stroke-width="0.5" d="M668.023,-105C678.428,-105 688.988,-105 699.24,-105"/>
<polygon fill="black" stroke="black" points="699.247,-106.75 704.247,-105 699.247,-103.25 699.247,-106.75"/>
</g>
<!-- dataviews.ndmapping.NdIndexableMapping -->
<g id="node4" class="node"><title>dataviews.ndmapping.NdIndexableMapping</title>
<polygon fill="none" stroke="black" stroke-width="0.5" points="454,-115.5 230,-115.5 230,-94.5 454,-94.5 454,-115.5"/>
<text text-anchor="middle" x="342" y="-102.5" font-family="Vera" font-size="10.00">dataviews.ndmapping.NdIndexableMapping</text>
</g>
<!-- dataviews.ndmapping.NdIndexableMapping&#45;&gt;dataviews.ndmapping.NdMapping -->
<g id="edge14" class="edge"><title>dataviews.ndmapping.NdIndexableMapping&#45;&gt;dataviews.ndmapping.NdMapping</title>
<path fill="none" stroke="black" stroke-width="0.5" d="M454.254,-105C464.442,-105 474.692,-105 484.701,-105"/>
<polygon fill="black" stroke="black" points="484.912,-106.75 489.912,-105 484.912,-103.25 484.912,-106.75"/>
</g>
<!-- param.parameterized.Parameterized -->
<g id="node5" class="node"><title>param.parameterized.Parameterized</title>
<polygon fill="none" stroke="black" stroke-width="0.5" points="194,-77.5 5.68434e-14,-77.5 0,-56.5 194,-56.5 194,-77.5"/>
<text text-anchor="middle" x="97" y="-64.5" font-family="Vera" font-size="10.00">param.parameterized.Parameterized</text>
</g>
<!-- param.parameterized.Parameterized&#45;&gt;dataviews.ndmapping.NdIndexableMapping -->
<g id="edge4" class="edge"><title>param.parameterized.Parameterized&#45;&gt;dataviews.ndmapping.NdIndexableMapping</title>
<path fill="none" stroke="black" stroke-width="0.5" d="M161.691,-77.0338C195.743,-82.3152 237.527,-88.796 272.294,-94.1885"/>
<polygon fill="black" stroke="black" points="272.162,-95.9388 277.371,-94.976 272.699,-92.4802 272.162,-95.9388"/>
</g>
<!-- dataviews.views.Layout -->
<g id="node7" class="node"><title>dataviews.views.Layout</title>
<polygon fill="none" stroke="black" stroke-width="0.5" points="406,-77.5 278,-77.5 278,-56.5 406,-56.5 406,-77.5"/>
<text text-anchor="middle" x="342" y="-64.5" font-family="Vera" font-size="10.00">dataviews.views.Layout</text>
</g>
<!-- param.parameterized.Parameterized&#45;&gt;dataviews.views.Layout -->
<g id="edge6" class="edge"><title>param.parameterized.Parameterized&#45;&gt;dataviews.views.Layout</title>
<path fill="none" stroke="black" stroke-width="0.5" d="M194.182,-67C220.375,-67 248.182,-67 272.527,-67"/>
<polygon fill="black" stroke="black" points="272.668,-68.7501 277.668,-67 272.668,-65.2501 272.668,-68.7501"/>
</g>
<!-- dataviews.views.View -->
<g id="node10" class="node"><title>dataviews.views.View</title>
<polygon fill="none" stroke="black" stroke-width="0.5" points="400,-39.5 284,-39.5 284,-18.5 400,-18.5 400,-39.5"/>
<text text-anchor="middle" x="342" y="-26.5" font-family="Vera" font-size="10.00">dataviews.views.View</text>
</g>
<!-- param.parameterized.Parameterized&#45;&gt;dataviews.views.View -->
<g id="edge12" class="edge"><title>param.parameterized.Parameterized&#45;&gt;dataviews.views.View</title>
<path fill="none" stroke="black" stroke-width="0.5" d="M161.691,-56.9662C197.635,-51.3914 242.193,-44.4803 278.021,-38.9232"/>
<polygon fill="black" stroke="black" points="278.569,-40.6092 283.242,-38.1135 278.033,-37.1506 278.569,-40.6092"/>
</g>
<!-- dataviews.views.Overlay -->
<g id="node9" class="node"><title>dataviews.views.Overlay</title>
<polygon fill="none" stroke="black" stroke-width="0.5" points="644,-58.5 514,-58.5 514,-37.5 644,-37.5 644,-58.5"/>
<text text-anchor="middle" x="579" y="-45.5" font-family="Vera" font-size="10.00">dataviews.views.Overlay</text>
</g>
<!-- dataviews.views.View&#45;&gt;dataviews.views.Overlay -->
<g id="edge8" class="edge"><title>dataviews.views.View&#45;&gt;dataviews.views.Overlay</title>
<path fill="none" stroke="black" stroke-width="0.5" d="M400.584,-33.6966C433.116,-36.3047 473.824,-39.5681 508.137,-42.319"/>
<polygon fill="black" stroke="black" points="508.028,-44.0658 513.152,-42.721 508.308,-40.577 508.028,-44.0658"/>
</g>
<!-- dataviews.views.Annotation -->
<g id="node12" class="node"><title>dataviews.views.Annotation</title>
<polygon fill="none" stroke="black" stroke-width="0.5" points="653,-20.5 505,-20.5 505,0.5 653,0.5 653,-20.5"/>
<text text-anchor="middle" x="579" y="-7.5" font-family="Vera" font-size="10.00">dataviews.views.Annotation</text>
</g>
<!-- dataviews.views.View&#45;&gt;dataviews.views.Annotation -->
<g id="edge10" class="edge"><title>dataviews.views.View&#45;&gt;dataviews.views.Annotation</title>
<path fill="none" stroke="black" stroke-width="0.5" d="M400.584,-24.3034C430.511,-21.9042 467.355,-18.9504 499.777,-16.3512"/>
<polygon fill="black" stroke="black" points="500.097,-18.0813 504.941,-15.9372 499.817,-14.5925 500.097,-18.0813"/>
</g>
</g>
</svg>
