<?xml version="1.0" encoding="UTF-8" standalone="no"?>
<!DOCTYPE svg PUBLIC "-//W3C//DTD SVG 1.1//EN"
 "http://www.w3.org/Graphics/SVG/1.1/DTD/svg11.dtd">
<!-- Generated by graphviz version 2.26.3 (20100126.1600)
 -->
<!-- Title: inheritancedae98195e7 Pages: 1 -->
<svg width="666pt" height="180pt"
 viewBox="0.00 0.00 666.00 180.00" xmlns="http://www.w3.org/2000/svg" xmlns:xlink="http://www.w3.org/1999/xlink">
<g id="graph1" class="graph" transform="scale(1 1) rotate(0) translate(4 176)">
<title>inheritancedae98195e7</title>
<polygon fill="white" stroke="white" points="-4,5 -4,-176 663,-176 663,5 -4,5"/>
<!-- topo.learningfn.projfn.CFPLF_EuclideanHebbian -->
<g id="node1" class="node"><title>topo.learningfn.projfn.CFPLF_EuclideanHebbian</title>
<polygon fill="none" stroke="black" stroke-width="0.5" points="657,-172.5 417,-172.5 417,-151.5 657,-151.5 657,-172.5"/>
<text text-anchor="middle" x="537" y="-159.5" font-family="Vera" font-size="10.00">topo.learningfn.projfn.CFPLF_EuclideanHebbian</text>
</g>
<!-- topo.base.cf.CFPLearningFn -->
<g id="node2" class="node"><title>topo.base.cf.CFPLearningFn</title>
<polygon fill="none" stroke="black" stroke-width="0.5" points="379,-96.5 231,-96.5 231,-75.5 379,-75.5 379,-96.5"/>
<text text-anchor="middle" x="305" y="-83.5" font-family="Vera" font-size="10.00">topo.base.cf.CFPLearningFn</text>
</g>
<!-- topo.base.cf.CFPLearningFn&#45;&gt;topo.learningfn.projfn.CFPLF_EuclideanHebbian -->
<g id="edge2" class="edge"><title>topo.base.cf.CFPLearningFn&#45;&gt;topo.learningfn.projfn.CFPLF_EuclideanHebbian</title>
<path fill="none" stroke="black" stroke-width="0.5" d="M320.839,-96.2027C341.762,-109.184 380.162,-131.319 416,-143 425.556,-146.115 435.708,-148.727 445.91,-150.916"/>
<polygon fill="black" stroke="black" points="445.669,-152.653 450.92,-151.957 446.381,-149.226 445.669,-152.653"/>
</g>
<!-- topo.learningfn.projfn.HomeoSynaptic -->
<g id="node4" class="node"><title>topo.learningfn.projfn.HomeoSynaptic</title>
<polygon fill="none" stroke="black" stroke-width="0.5" points="636,-134.5 438,-134.5 438,-113.5 636,-113.5 636,-134.5"/>
<text text-anchor="middle" x="537" y="-121.5" font-family="Vera" font-size="10.00">topo.learningfn.projfn.HomeoSynaptic</text>
</g>
<!-- topo.base.cf.CFPLearningFn&#45;&gt;topo.learningfn.projfn.HomeoSynaptic -->
<g id="edge4" class="edge"><title>topo.base.cf.CFPLearningFn&#45;&gt;topo.learningfn.projfn.HomeoSynaptic</title>
<path fill="none" stroke="black" stroke-width="0.5" d="M362.586,-96.0121C379.762,-98.9566 398.636,-102.151 416,-105 432.449,-107.699 450.17,-110.527 466.842,-113.151"/>
<polygon fill="black" stroke="black" points="466.768,-114.911 471.98,-113.959 467.312,-111.454 466.768,-114.911"/>
</g>
<!-- topo.learningfn.projfn.CFPLF_OutstarHebbian -->
<g id="node7" class="node"><title>topo.learningfn.projfn.CFPLF_OutstarHebbian</title>
<polygon fill="none" stroke="black" stroke-width="0.5" points="652,-96.5 422,-96.5 422,-75.5 652,-75.5 652,-96.5"/>
<text text-anchor="middle" x="537" y="-83.5" font-family="Vera" font-size="10.00">topo.learningfn.projfn.CFPLF_OutstarHebbian</text>
</g>
<!-- topo.base.cf.CFPLearningFn&#45;&gt;topo.learningfn.projfn.CFPLF_OutstarHebbian -->
<g id="edge6" class="edge"><title>topo.base.cf.CFPLearningFn&#45;&gt;topo.learningfn.projfn.CFPLF_OutstarHebbian</title>
<path fill="none" stroke="black" stroke-width="0.5" d="M379.683,-86C391.39,-86 403.742,-86 416.168,-86"/>
<polygon fill="black" stroke="black" points="416.497,-87.7501 421.496,-86 416.496,-84.2501 416.497,-87.7501"/>
</g>
<!-- topo.learningfn.projfn.CFPLF_Trace -->
<g id="node9" class="node"><title>topo.learningfn.projfn.CFPLF_Trace</title>
<polygon fill="none" stroke="black" stroke-width="0.5" points="627,-58.5 447,-58.5 447,-37.5 627,-37.5 627,-58.5"/>
<text text-anchor="middle" x="537" y="-45.5" font-family="Vera" font-size="10.00">topo.learningfn.projfn.CFPLF_Trace</text>
</g>
<!-- topo.base.cf.CFPLearningFn&#45;&gt;topo.learningfn.projfn.CFPLF_Trace -->
<g id="edge8" class="edge"><title>topo.base.cf.CFPLearningFn&#45;&gt;topo.learningfn.projfn.CFPLF_Trace</title>
<path fill="none" stroke="black" stroke-width="0.5" d="M362.586,-75.9879C379.762,-73.0434 398.636,-69.8492 416,-67 432.449,-64.3008 450.17,-61.4732 466.842,-58.8487"/>
<polygon fill="black" stroke="black" points="467.312,-60.5464 471.98,-58.0412 466.768,-57.0889 467.312,-60.5464"/>
</g>
<!-- topo.learningfn.projfn.CFPLF_PluginScaled -->
<g id="node12" class="node"><title>topo.learningfn.projfn.CFPLF_PluginScaled</title>
<polygon fill="none" stroke="black" stroke-width="0.5" points="645,-20.5 429,-20.5 429,0.5 645,0.5 645,-20.5"/>
<text text-anchor="middle" x="537" y="-7.5" font-family="Vera" font-size="10.00">topo.learningfn.projfn.CFPLF_PluginScaled</text>
</g>
<!-- topo.base.cf.CFPLearningFn&#45;&gt;topo.learningfn.projfn.CFPLF_PluginScaled -->
<g id="edge12" class="edge"><title>topo.base.cf.CFPLearningFn&#45;&gt;topo.learningfn.projfn.CFPLF_PluginScaled</title>
<path fill="none" stroke="black" stroke-width="0.5" d="M320.839,-75.7973C341.762,-62.8157 380.162,-40.6809 416,-29 425.556,-25.8854 435.708,-23.2732 445.91,-21.0841"/>
<polygon fill="black" stroke="black" points="446.381,-22.7738 450.92,-20.0431 445.669,-19.3469 446.381,-22.7738"/>
</g>
<!-- param.parameterized.Parameterized -->
<g id="node6" class="node"><title>param.parameterized.Parameterized</title>
<polygon fill="none" stroke="black" stroke-width="0.5" points="194,-96.5 5.68434e-14,-96.5 0,-75.5 194,-75.5 194,-96.5"/>
<text text-anchor="middle" x="97" y="-83.5" font-family="Vera" font-size="10.00">param.parameterized.Parameterized</text>
</g>
<!-- param.parameterized.Parameterized&#45;&gt;topo.base.cf.CFPLearningFn -->
<g id="edge10" class="edge"><title>param.parameterized.Parameterized&#45;&gt;topo.base.cf.CFPLearningFn</title>
<path fill="none" stroke="black" stroke-width="0.5" d="M194.301,-86C204.655,-86 215.098,-86 225.218,-86"/>
<polygon fill="black" stroke="black" points="225.478,-87.7501 230.478,-86 225.477,-84.2501 225.478,-87.7501"/>
</g>
</g>
</svg>
