<?xml version="1.0" encoding="UTF-8" standalone="no"?>
<!DOCTYPE svg PUBLIC "-//W3C//DTD SVG 1.1//EN"
 "http://www.w3.org/Graphics/SVG/1.1/DTD/svg11.dtd">
<!-- Generated by graphviz version 2.26.3 (20100126.1600)
 -->
<!-- Title: inheritance3f61a81af3 Pages: 1 -->
<svg width="666pt" height="66pt"
 viewBox="0.00 0.00 666.00 66.00" xmlns="http://www.w3.org/2000/svg" xmlns:xlink="http://www.w3.org/1999/xlink">
<g id="graph1" class="graph" transform="scale(1 1) rotate(0) translate(4 62)">
<title>inheritance3f61a81af3</title>
<polygon fill="white" stroke="white" points="-4,5 -4,-62 663,-62 663,5 -4,5"/>
<!-- unittest.case.TestCase -->
<g id="node1" class="node"><title>unittest.case.TestCase</title>
<polygon fill="none" stroke="black" stroke-width="0.5" points="159,-20.5 35,-20.5 35,0.5 159,0.5 159,-20.5"/>
<text text-anchor="middle" x="97" y="-7.5" font-family="Vera" font-size="10.00">unittest.case.TestCase</text>
</g>
<!-- topo.tests.unit.testcfsom.TestCFSom -->
<g id="node7" class="node"><title>topo.tests.unit.testcfsom.TestCFSom</title>
<polygon fill="none" stroke="black" stroke-width="0.5" points="424,-20.5 230,-20.5 230,0.5 424,0.5 424,-20.5"/>
<text text-anchor="middle" x="327" y="-7.5" font-family="Vera" font-size="10.00">topo.tests.unit.testcfsom.TestCFSom</text>
</g>
<!-- unittest.case.TestCase&#45;&gt;topo.tests.unit.testcfsom.TestCFSom -->
<g id="edge6" class="edge"><title>unittest.case.TestCase&#45;&gt;topo.tests.unit.testcfsom.TestCFSom</title>
<path fill="none" stroke="black" stroke-width="0.5" d="M159.545,-10C179.703,-10 202.598,-10 224.843,-10"/>
<polygon fill="black" stroke="black" points="224.878,-11.7501 229.878,-10 224.878,-8.2501 224.878,-11.7501"/>
</g>
<!-- topo.tests.unit.testcfsom.ImageSaver -->
<g id="node2" class="node"><title>topo.tests.unit.testcfsom.ImageSaver</title>
<polygon fill="none" stroke="black" stroke-width="0.5" points="658,-58.5 460,-58.5 460,-37.5 658,-37.5 658,-58.5"/>
<text text-anchor="middle" x="559" y="-45.5" font-family="Vera" font-size="10.00">topo.tests.unit.testcfsom.ImageSaver</text>
</g>
<!-- topo.base.simulation.EventProcessor -->
<g id="node3" class="node"><title>topo.base.simulation.EventProcessor</title>
<polygon fill="none" stroke="black" stroke-width="0.5" points="424,-58.5 230,-58.5 230,-37.5 424,-37.5 424,-58.5"/>
<text text-anchor="middle" x="327" y="-45.5" font-family="Vera" font-size="10.00">topo.base.simulation.EventProcessor</text>
</g>
<!-- topo.base.simulation.EventProcessor&#45;&gt;topo.tests.unit.testcfsom.ImageSaver -->
<g id="edge2" class="edge"><title>topo.base.simulation.EventProcessor&#45;&gt;topo.tests.unit.testcfsom.ImageSaver</title>
<path fill="none" stroke="black" stroke-width="0.5" d="M424.045,-48C434.182,-48 444.517,-48 454.731,-48"/>
<polygon fill="black" stroke="black" points="454.733,-49.7501 459.733,-48 454.733,-46.2501 454.733,-49.7501"/>
</g>
<!-- param.parameterized.Parameterized -->
<g id="node5" class="node"><title>param.parameterized.Parameterized</title>
<polygon fill="none" stroke="black" stroke-width="0.5" points="194,-58.5 5.68434e-14,-58.5 0,-37.5 194,-37.5 194,-58.5"/>
<text text-anchor="middle" x="97" y="-45.5" font-family="Vera" font-size="10.00">param.parameterized.Parameterized</text>
</g>
<!-- param.parameterized.Parameterized&#45;&gt;topo.base.simulation.EventProcessor -->
<g id="edge4" class="edge"><title>param.parameterized.Parameterized&#45;&gt;topo.base.simulation.EventProcessor</title>
<path fill="none" stroke="black" stroke-width="0.5" d="M194.207,-48C204.23,-48 214.438,-48 224.515,-48"/>
<polygon fill="black" stroke="black" points="224.772,-49.7501 229.772,-48 224.772,-46.2501 224.772,-49.7501"/>
</g>
</g>
</svg>
