<?xml version="1.0" encoding="UTF-8" standalone="no"?>
<!DOCTYPE svg PUBLIC "-//W3C//DTD SVG 1.1//EN"
 "http://www.w3.org/Graphics/SVG/1.1/DTD/svg11.dtd">
<!-- Generated by graphviz version 2.26.3 (20100126.1600)
 -->
<!-- Title: inheritance10172fd8d9 Pages: 1 -->
<svg width="2632pt" height="207pt"
 viewBox="0.00 0.00 2632.00 207.00" xmlns="http://www.w3.org/2000/svg" xmlns:xlink="http://www.w3.org/1999/xlink">
<g id="graph1" class="graph" transform="scale(1 1) rotate(0) translate(4 203)">
<title>inheritance10172fd8d9</title>
<polygon fill="white" stroke="white" points="-4,5 -4,-203 2629,-203 2629,5 -4,5"/>
<!-- topo.tkgui.templateplotgrouppanel.TemplatePlotGroupPanel -->
<g id="node1" class="node"><title>topo.tkgui.templateplotgrouppanel.TemplatePlotGroupPanel</title>
<polygon fill="none" stroke="black" stroke-width="0.5" points="1502,-96.5 1200,-96.5 1200,-75.5 1502,-75.5 1502,-96.5"/>
<text text-anchor="middle" x="1351" y="-83.5" font-family="Vera" font-size="10.00">topo.tkgui.templateplotgrouppanel.TemplatePlotGroupPanel</text>
</g>
<!-- topo.tkgui.projectionpanel.ProjectionSheetPanel -->
<g id="node5" class="node"><title>topo.tkgui.projectionpanel.ProjectionSheetPanel</title>
<polygon fill="none" stroke="black" stroke-width="0.5" points="1783,-96.5 1539,-96.5 1539,-75.5 1783,-75.5 1783,-96.5"/>
<text text-anchor="middle" x="1661" y="-83.5" font-family="Vera" font-size="10.00">topo.tkgui.projectionpanel.ProjectionSheetPanel</text>
</g>
<!-- topo.tkgui.templateplotgrouppanel.TemplatePlotGroupPanel&#45;&gt;topo.tkgui.projectionpanel.ProjectionSheetPanel -->
<g id="edge10" class="edge"><title>topo.tkgui.templateplotgrouppanel.TemplatePlotGroupPanel&#45;&gt;topo.tkgui.projectionpanel.ProjectionSheetPanel</title>
<path fill="none" stroke="black" stroke-width="0.5" d="M1502.37,-86C1512.58,-86 1522.81,-86 1532.88,-86"/>
<polygon fill="black" stroke="black" points="1533.13,-87.7501 1538.13,-86 1533.13,-84.2501 1533.13,-87.7501"/>
</g>
<!-- topo.tkgui.plotgrouppanel.SheetPanel -->
<g id="node2" class="node"><title>topo.tkgui.plotgrouppanel.SheetPanel</title>
<polygon fill="none" stroke="black" stroke-width="0.5" points="1163,-96.5 967,-96.5 967,-75.5 1163,-75.5 1163,-96.5"/>
<text text-anchor="middle" x="1065" y="-83.5" font-family="Vera" font-size="10.00">topo.tkgui.plotgrouppanel.SheetPanel</text>
</g>
<!-- topo.tkgui.plotgrouppanel.SheetPanel&#45;&gt;topo.tkgui.templateplotgrouppanel.TemplatePlotGroupPanel -->
<g id="edge2" class="edge"><title>topo.tkgui.plotgrouppanel.SheetPanel&#45;&gt;topo.tkgui.templateplotgrouppanel.TemplatePlotGroupPanel</title>
<path fill="none" stroke="black" stroke-width="0.5" d="M1163.83,-86C1173.89,-86 1184.27,-86 1194.75,-86"/>
<polygon fill="black" stroke="black" points="1194.9,-87.7501 1199.9,-86 1194.9,-84.2501 1194.9,-87.7501"/>
</g>
<!-- topo.tkgui.projectionpanel.ProjectionActivityPanel -->
<g id="node4" class="node"><title>topo.tkgui.projectionpanel.ProjectionActivityPanel</title>
<polygon fill="none" stroke="black" stroke-width="0.5" points="2071,-134.5 1821,-134.5 1821,-113.5 2071,-113.5 2071,-134.5"/>
<text text-anchor="middle" x="1946" y="-121.5" font-family="Vera" font-size="10.00">topo.tkgui.projectionpanel.ProjectionActivityPanel</text>
</g>
<!-- topo.tkgui.projectionpanel.ProjectionSheetPanel&#45;&gt;topo.tkgui.projectionpanel.ProjectionActivityPanel -->
<g id="edge4" class="edge"><title>topo.tkgui.projectionpanel.ProjectionSheetPanel&#45;&gt;topo.tkgui.projectionpanel.ProjectionActivityPanel</title>
<path fill="none" stroke="black" stroke-width="0.5" d="M1736.25,-96.0338C1776.03,-101.337 1824.87,-107.849 1865.41,-113.255"/>
<polygon fill="black" stroke="black" points="1865.63,-115.05 1870.82,-113.976 1866.09,-111.58 1865.63,-115.05"/>
</g>
<!-- topo.tkgui.projectionpanel.UnitsPanel -->
<g id="node12" class="node"><title>topo.tkgui.projectionpanel.UnitsPanel</title>
<polygon fill="none" stroke="black" stroke-width="0.5" points="2043,-96.5 1849,-96.5 1849,-75.5 2043,-75.5 2043,-96.5"/>
<text text-anchor="middle" x="1946" y="-83.5" font-family="Vera" font-size="10.00">topo.tkgui.projectionpanel.UnitsPanel</text>
</g>
<!-- topo.tkgui.projectionpanel.ProjectionSheetPanel&#45;&gt;topo.tkgui.projectionpanel.UnitsPanel -->
<g id="edge22" class="edge"><title>topo.tkgui.projectionpanel.ProjectionSheetPanel&#45;&gt;topo.tkgui.projectionpanel.UnitsPanel</title>
<path fill="none" stroke="black" stroke-width="0.5" d="M1783.52,-86C1803.52,-86 1824.05,-86 1843.5,-86"/>
<polygon fill="black" stroke="black" points="1843.95,-87.7501 1848.95,-86 1843.95,-84.2501 1843.95,-87.7501"/>
</g>
<!-- topo.tkgui.projectionpanel.PlotMatrixPanel -->
<g id="node17" class="node"><title>topo.tkgui.projectionpanel.PlotMatrixPanel</title>
<polygon fill="none" stroke="black" stroke-width="0.5" points="2054,-58.5 1838,-58.5 1838,-37.5 2054,-37.5 2054,-58.5"/>
<text text-anchor="middle" x="1946" y="-45.5" font-family="Vera" font-size="10.00">topo.tkgui.projectionpanel.PlotMatrixPanel</text>
</g>
<!-- topo.tkgui.projectionpanel.ProjectionSheetPanel&#45;&gt;topo.tkgui.projectionpanel.PlotMatrixPanel -->
<g id="edge28" class="edge"><title>topo.tkgui.projectionpanel.ProjectionSheetPanel&#45;&gt;topo.tkgui.projectionpanel.PlotMatrixPanel</title>
<path fill="none" stroke="black" stroke-width="0.5" d="M1736.25,-75.9662C1776.03,-70.6631 1824.87,-64.1509 1865.41,-58.7453"/>
<polygon fill="black" stroke="black" points="1866.09,-60.4196 1870.82,-58.024 1865.63,-56.9503 1866.09,-60.4196"/>
</g>
<!-- Tkinter.Frame -->
<g id="node7" class="node"><title>Tkinter.Frame</title>
<polygon fill="none" stroke="black" stroke-width="0.5" points="648,-118.5 568,-118.5 568,-97.5 648,-97.5 648,-118.5"/>
<text text-anchor="middle" x="608" y="-105.5" font-family="Vera" font-size="10.00">Tkinter.Frame</text>
</g>
<!-- topo.tkgui.plotgrouppanel.PlotGroupPanel -->
<g id="node19" class="node"><title>topo.tkgui.plotgrouppanel.PlotGroupPanel</title>
<polygon fill="none" stroke="black" stroke-width="0.5" points="929,-96.5 715,-96.5 715,-75.5 929,-75.5 929,-96.5"/>
<text text-anchor="middle" x="822" y="-83.5" font-family="Vera" font-size="10.00">topo.tkgui.plotgrouppanel.PlotGroupPanel</text>
</g>
<!-- Tkinter.Frame&#45;&gt;topo.tkgui.plotgrouppanel.PlotGroupPanel -->
<g id="edge16" class="edge"><title>Tkinter.Frame&#45;&gt;topo.tkgui.plotgrouppanel.PlotGroupPanel</title>
<path fill="none" stroke="black" stroke-width="0.5" d="M648.503,-103.836C668.724,-101.757 694.194,-99.1389 719.344,-96.5534"/>
<polygon fill="black" stroke="black" points="719.573,-98.2892 724.368,-96.0369 719.215,-94.8075 719.573,-98.2892"/>
</g>
<!-- Tkinter.Widget -->
<g id="node8" class="node"><title>Tkinter.Widget</title>
<polygon fill="none" stroke="black" stroke-width="0.5" points="461,-123.5 379,-123.5 379,-102.5 461,-102.5 461,-123.5"/>
<text text-anchor="middle" x="420" y="-110.5" font-family="Vera" font-size="10.00">Tkinter.Widget</text>
</g>
<!-- Tkinter.Widget&#45;&gt;Tkinter.Frame -->
<g id="edge6" class="edge"><title>Tkinter.Widget&#45;&gt;Tkinter.Frame</title>
<path fill="none" stroke="black" stroke-width="0.5" d="M461.723,-111.89C491.481,-111.099 531.488,-110.035 562.14,-109.22"/>
<polygon fill="black" stroke="black" points="562.411,-110.963 567.362,-109.081 562.318,-107.464 562.411,-110.963"/>
</g>
<!-- param.parameterized.Parameterized -->
<g id="node10" class="node"><title>param.parameterized.Parameterized</title>
<polygon fill="none" stroke="black" stroke-width="0.5" points="302,-47.5 108,-47.5 108,-26.5 302,-26.5 302,-47.5"/>
<text text-anchor="middle" x="205" y="-34.5" font-family="Vera" font-size="10.00">param.parameterized.Parameterized</text>
</g>
<!-- paramtk.TkParameterizedBase -->
<g id="node28" class="node"><title>paramtk.TkParameterizedBase</title>
<polygon fill="none" stroke="black" stroke-width="0.5" points="502,-66.5 338,-66.5 338,-45.5 502,-45.5 502,-66.5"/>
<text text-anchor="middle" x="420" y="-53.5" font-family="Vera" font-size="10.00">paramtk.TkParameterizedBase</text>
</g>
<!-- param.parameterized.Parameterized&#45;&gt;paramtk.TkParameterizedBase -->
<g id="edge24" class="edge"><title>param.parameterized.Parameterized&#45;&gt;paramtk.TkParameterizedBase</title>
<path fill="none" stroke="black" stroke-width="0.5" d="M302.121,-45.5828C312.261,-46.4789 322.525,-47.3859 332.548,-48.2717"/>
<polygon fill="black" stroke="black" points="332.631,-50.0358 337.766,-48.7328 332.939,-46.5493 332.631,-50.0358"/>
</g>
<!-- topo.tkgui.projectionpanel.ConnectionFieldsPanel -->
<g id="node11" class="node"><title>topo.tkgui.projectionpanel.ConnectionFieldsPanel</title>
<polygon fill="none" stroke="black" stroke-width="0.5" points="2358,-96.5 2108,-96.5 2108,-75.5 2358,-75.5 2358,-96.5"/>
<text text-anchor="middle" x="2233" y="-83.5" font-family="Vera" font-size="10.00">topo.tkgui.projectionpanel.ConnectionFieldsPanel</text>
</g>
<!-- topo.tkgui.projectionpanel.UnitsPanel&#45;&gt;topo.tkgui.projectionpanel.ConnectionFieldsPanel -->
<g id="edge8" class="edge"><title>topo.tkgui.projectionpanel.UnitsPanel&#45;&gt;topo.tkgui.projectionpanel.ConnectionFieldsPanel</title>
<path fill="none" stroke="black" stroke-width="0.5" d="M2043.17,-86C2062.35,-86 2082.78,-86 2102.86,-86"/>
<polygon fill="black" stroke="black" points="2102.95,-87.7501 2107.95,-86 2102.95,-84.2501 2102.95,-87.7501"/>
</g>
<!-- Tkinter.Misc -->
<g id="node15" class="node"><title>Tkinter.Misc</title>
<polygon fill="none" stroke="black" stroke-width="0.5" points="72,-85.5 2.84217e-14,-85.5 0,-64.5 72,-64.5 72,-85.5"/>
<text text-anchor="middle" x="36" y="-72.5" font-family="Vera" font-size="10.00">Tkinter.Misc</text>
</g>
<!-- Tkinter.BaseWidget -->
<g id="node36" class="node"><title>Tkinter.BaseWidget</title>
<polygon fill="none" stroke="black" stroke-width="0.5" points="258,-85.5 152,-85.5 152,-64.5 258,-64.5 258,-85.5"/>
<text text-anchor="middle" x="205" y="-72.5" font-family="Vera" font-size="10.00">Tkinter.BaseWidget</text>
</g>
<!-- Tkinter.Misc&#45;&gt;Tkinter.BaseWidget -->
<g id="edge32" class="edge"><title>Tkinter.Misc&#45;&gt;Tkinter.BaseWidget</title>
<path fill="none" stroke="black" stroke-width="0.5" d="M72.2547,-75C93.805,-75 121.651,-75 146.27,-75"/>
<polygon fill="black" stroke="black" points="146.471,-76.7501 151.471,-75 146.471,-73.2501 146.471,-76.7501"/>
</g>
<!-- topo.tkgui.projectionpanel.RFProjectionPanel -->
<g id="node16" class="node"><title>topo.tkgui.projectionpanel.RFProjectionPanel</title>
<polygon fill="none" stroke="black" stroke-width="0.5" points="2347,-58.5 2119,-58.5 2119,-37.5 2347,-37.5 2347,-58.5"/>
<text text-anchor="middle" x="2233" y="-45.5" font-family="Vera" font-size="10.00">topo.tkgui.projectionpanel.RFProjectionPanel</text>
</g>
<!-- topo.tkgui.projectionpanel.PlotMatrixPanel&#45;&gt;topo.tkgui.projectionpanel.RFProjectionPanel -->
<g id="edge12" class="edge"><title>topo.tkgui.projectionpanel.PlotMatrixPanel&#45;&gt;topo.tkgui.projectionpanel.RFProjectionPanel</title>
<path fill="none" stroke="black" stroke-width="0.5" d="M2054.5,-48C2073.66,-48 2093.69,-48 2113.14,-48"/>
<polygon fill="black" stroke="black" points="2113.6,-49.7501 2118.6,-48 2113.6,-46.2501 2113.6,-49.7501"/>
</g>
<!-- topo.tkgui.projectionpanel.ProjectionPanel -->
<g id="node25" class="node"><title>topo.tkgui.projectionpanel.ProjectionPanel</title>
<polygon fill="none" stroke="black" stroke-width="0.5" points="2341,-20.5 2125,-20.5 2125,0.5 2341,0.5 2341,-20.5"/>
<text text-anchor="middle" x="2233" y="-7.5" font-family="Vera" font-size="10.00">topo.tkgui.projectionpanel.ProjectionPanel</text>
</g>
<!-- topo.tkgui.projectionpanel.PlotMatrixPanel&#45;&gt;topo.tkgui.projectionpanel.ProjectionPanel -->
<g id="edge30" class="edge"><title>topo.tkgui.projectionpanel.PlotMatrixPanel&#45;&gt;topo.tkgui.projectionpanel.ProjectionPanel</title>
<path fill="none" stroke="black" stroke-width="0.5" d="M2021.78,-37.9662C2061.83,-32.6631 2111.02,-26.1509 2151.85,-20.7453"/>
<polygon fill="black" stroke="black" points="2152.57,-22.4153 2157.29,-20.024 2152.11,-18.9456 2152.57,-22.4153"/>
</g>
<!-- topo.tkgui.plotgrouppanel.PlotGroupPanel&#45;&gt;topo.tkgui.plotgrouppanel.SheetPanel -->
<g id="edge18" class="edge"><title>topo.tkgui.plotgrouppanel.PlotGroupPanel&#45;&gt;topo.tkgui.plotgrouppanel.SheetPanel</title>
<path fill="none" stroke="black" stroke-width="0.5" d="M929.645,-86C940.118,-86 950.73,-86 961.165,-86"/>
<polygon fill="black" stroke="black" points="961.272,-87.7501 966.272,-86 961.272,-84.2501 961.272,-87.7501"/>
</g>
<!-- paramtk.TkParameterized -->
<g id="node20" class="node"><title>paramtk.TkParameterized</title>
<polygon fill="none" stroke="black" stroke-width="0.5" points="678,-75.5 538,-75.5 538,-54.5 678,-54.5 678,-75.5"/>
<text text-anchor="middle" x="608" y="-62.5" font-family="Vera" font-size="10.00">paramtk.TkParameterized</text>
</g>
<!-- paramtk.TkParameterized&#45;&gt;topo.tkgui.plotgrouppanel.PlotGroupPanel -->
<g id="edge14" class="edge"><title>paramtk.TkParameterized&#45;&gt;topo.tkgui.plotgrouppanel.PlotGroupPanel</title>
<path fill="none" stroke="black" stroke-width="0.5" d="M678.072,-71.8762C689.909,-73.0378 702.434,-74.2669 714.959,-75.496"/>
<polygon fill="black" stroke="black" points="714.798,-77.2385 719.945,-75.9853 715.14,-73.7553 714.798,-77.2385"/>
</g>
<!-- topo.tkgui.projectionpanel.CFProjectionPanel -->
<g id="node24" class="node"><title>topo.tkgui.projectionpanel.CFProjectionPanel</title>
<polygon fill="none" stroke="black" stroke-width="0.5" points="2623,-20.5 2395,-20.5 2395,0.5 2623,0.5 2623,-20.5"/>
<text text-anchor="middle" x="2509" y="-7.5" font-family="Vera" font-size="10.00">topo.tkgui.projectionpanel.CFProjectionPanel</text>
</g>
<!-- topo.tkgui.projectionpanel.ProjectionPanel&#45;&gt;topo.tkgui.projectionpanel.CFProjectionPanel -->
<g id="edge20" class="edge"><title>topo.tkgui.projectionpanel.ProjectionPanel&#45;&gt;topo.tkgui.projectionpanel.CFProjectionPanel</title>
<path fill="none" stroke="black" stroke-width="0.5" d="M2341.69,-10C2357.14,-10 2373.1,-10 2388.76,-10"/>
<polygon fill="black" stroke="black" points="2389.05,-11.7501 2394.05,-10 2389.05,-8.25009 2389.05,-11.7501"/>
</g>
<!-- paramtk.TkParameterizedBase&#45;&gt;paramtk.TkParameterized -->
<g id="edge26" class="edge"><title>paramtk.TkParameterizedBase&#45;&gt;paramtk.TkParameterized</title>
<path fill="none" stroke="black" stroke-width="0.5" d="M502.186,-59.9344C512.283,-60.4178 522.564,-60.91 532.554,-61.3882"/>
<polygon fill="black" stroke="black" points="532.671,-63.1458 537.749,-61.6369 532.839,-59.6498 532.671,-63.1458"/>
</g>
<!-- Tkinter.Pack -->
<g id="node31" class="node"><title>Tkinter.Pack</title>
<polygon fill="none" stroke="black" stroke-width="0.5" points="241,-199.5 169,-199.5 169,-178.5 241,-178.5 241,-199.5"/>
<text text-anchor="middle" x="205" y="-186.5" font-family="Vera" font-size="10.00">Tkinter.Pack</text>
</g>
<!-- Tkinter.Pack&#45;&gt;Tkinter.Widget -->
<g id="edge36" class="edge"><title>Tkinter.Pack&#45;&gt;Tkinter.Widget</title>
<path fill="none" stroke="black" stroke-width="0.5" d="M241.5,-184.123C259.93,-181.093 282.464,-176.511 302,-170 337.006,-158.333 375.019,-138.57 398.178,-125.653"/>
<polygon fill="black" stroke="black" points="399.105,-127.14 402.607,-123.165 397.39,-124.088 399.105,-127.14"/>
</g>
<!-- Tkinter.Place -->
<g id="node33" class="node"><title>Tkinter.Place</title>
<polygon fill="none" stroke="black" stroke-width="0.5" points="243,-161.5 167,-161.5 167,-140.5 243,-140.5 243,-161.5"/>
<text text-anchor="middle" x="205" y="-148.5" font-family="Vera" font-size="10.00">Tkinter.Place</text>
</g>
<!-- Tkinter.Place&#45;&gt;Tkinter.Widget -->
<g id="edge38" class="edge"><title>Tkinter.Place&#45;&gt;Tkinter.Widget</title>
<path fill="none" stroke="black" stroke-width="0.5" d="M243.935,-144.118C280.299,-137.691 334.629,-128.089 373.308,-121.252"/>
<polygon fill="black" stroke="black" points="373.801,-122.943 378.42,-120.349 373.192,-119.496 373.801,-122.943"/>
</g>
<!-- Tkinter.Grid -->
<g id="node34" class="node"><title>Tkinter.Grid</title>
<polygon fill="none" stroke="black" stroke-width="0.5" points="240,-123.5 170,-123.5 170,-102.5 240,-102.5 240,-123.5"/>
<text text-anchor="middle" x="205" y="-110.5" font-family="Vera" font-size="10.00">Tkinter.Grid</text>
</g>
<!-- Tkinter.Grid&#45;&gt;Tkinter.Widget -->
<g id="edge40" class="edge"><title>Tkinter.Grid&#45;&gt;Tkinter.Widget</title>
<path fill="none" stroke="black" stroke-width="0.5" d="M240.503,-113C276.687,-113 333.012,-113 372.905,-113"/>
<polygon fill="black" stroke="black" points="373.175,-114.75 378.175,-113 373.175,-111.25 373.175,-114.75"/>
</g>
<!-- Tkinter.BaseWidget&#45;&gt;Tkinter.Widget -->
<g id="edge34" class="edge"><title>Tkinter.BaseWidget&#45;&gt;Tkinter.Widget</title>
<path fill="none" stroke="black" stroke-width="0.5" d="M258.699,-84.491C293.881,-90.7093 339.423,-98.7584 373.138,-104.717"/>
<polygon fill="black" stroke="black" points="373.216,-106.508 378.444,-105.655 373.825,-103.062 373.216,-106.508"/>
</g>
</g>
</svg>
