<?xml version="1.0" encoding="UTF-8" standalone="no"?>
<!DOCTYPE svg PUBLIC "-//W3C//DTD SVG 1.1//EN"
 "http://www.w3.org/Graphics/SVG/1.1/DTD/svg11.dtd">
<!-- Generated by graphviz version 2.26.3 (20100126.1600)
 -->
<!-- Title: inheritancefe104bf3e4 Pages: 1 -->
<svg width="608pt" height="142pt"
 viewBox="0.00 0.00 608.00 142.00" xmlns="http://www.w3.org/2000/svg" xmlns:xlink="http://www.w3.org/1999/xlink">
<g id="graph1" class="graph" transform="scale(1 1) rotate(0) translate(4 138)">
<title>inheritancefe104bf3e4</title>
<polygon fill="white" stroke="white" points="-4,5 -4,-138 605,-138 605,5 -4,5"/>
<!-- topo.learningfn.BCMFixed -->
<g id="node1" class="node"><title>topo.learningfn.BCMFixed</title>
<polygon fill="none" stroke="black" stroke-width="0.5" points="595,-134.5 459,-134.5 459,-113.5 595,-113.5 595,-134.5"/>
<text text-anchor="middle" x="527" y="-121.5" font-family="Vera" font-size="10.00">topo.learningfn.BCMFixed</text>
</g>
<!-- topo.base.functionfamily.LearningFn -->
<g id="node2" class="node"><title>topo.base.functionfamily.LearningFn</title>
<polygon fill="none" stroke="black" stroke-width="0.5" points="418,-77.5 230,-77.5 230,-56.5 418,-56.5 418,-77.5"/>
<text text-anchor="middle" x="324" y="-64.5" font-family="Vera" font-size="10.00">topo.base.functionfamily.LearningFn</text>
</g>
<!-- topo.base.functionfamily.LearningFn&#45;&gt;topo.learningfn.BCMFixed -->
<g id="edge2" class="edge"><title>topo.base.functionfamily.LearningFn&#45;&gt;topo.learningfn.BCMFixed</title>
<path fill="none" stroke="black" stroke-width="0.5" d="M357.32,-77.0362C383.537,-84.8609 421.022,-95.8907 454,-105 463.244,-107.554 473.174,-110.201 482.64,-112.68"/>
<polygon fill="black" stroke="black" points="482.262,-114.39 487.542,-113.959 483.146,-111.003 482.262,-114.39"/>
</g>
<!-- topo.learningfn.Covariance -->
<g id="node4" class="node"><title>topo.learningfn.Covariance</title>
<polygon fill="none" stroke="black" stroke-width="0.5" points="599,-96.5 455,-96.5 455,-75.5 599,-75.5 599,-96.5"/>
<text text-anchor="middle" x="527" y="-83.5" font-family="Vera" font-size="10.00">topo.learningfn.Covariance</text>
</g>
<!-- topo.base.functionfamily.LearningFn&#45;&gt;topo.learningfn.Covariance -->
<g id="edge4" class="edge"><title>topo.base.functionfamily.LearningFn&#45;&gt;topo.learningfn.Covariance</title>
<path fill="none" stroke="black" stroke-width="0.5" d="M418.072,-75.8048C428.405,-76.7719 438.842,-77.7487 448.95,-78.6948"/>
<polygon fill="black" stroke="black" points="449.062,-80.4629 454.203,-79.1865 449.388,-76.9781 449.062,-80.4629"/>
</g>
<!-- topo.learningfn.CPCA -->
<g id="node6" class="node"><title>topo.learningfn.CPCA</title>
<polygon fill="none" stroke="black" stroke-width="0.5" points="586,-58.5 468,-58.5 468,-37.5 586,-37.5 586,-58.5"/>
<text text-anchor="middle" x="527" y="-45.5" font-family="Vera" font-size="10.00">topo.learningfn.CPCA</text>
</g>
<!-- topo.base.functionfamily.LearningFn&#45;&gt;topo.learningfn.CPCA -->
<g id="edge6" class="edge"><title>topo.base.functionfamily.LearningFn&#45;&gt;topo.learningfn.CPCA</title>
<path fill="none" stroke="black" stroke-width="0.5" d="M418.072,-58.1952C433.128,-56.786 448.403,-55.3563 462.563,-54.031"/>
<polygon fill="black" stroke="black" points="462.912,-55.7561 467.727,-53.5477 462.586,-52.2714 462.912,-55.7561"/>
</g>
<!-- topo.learningfn.Oja -->
<g id="node8" class="node"><title>topo.learningfn.Oja</title>
<polygon fill="none" stroke="black" stroke-width="0.5" points="580,-20.5 474,-20.5 474,0.5 580,0.5 580,-20.5"/>
<text text-anchor="middle" x="527" y="-7.5" font-family="Vera" font-size="10.00">topo.learningfn.Oja</text>
</g>
<!-- topo.base.functionfamily.LearningFn&#45;&gt;topo.learningfn.Oja -->
<g id="edge8" class="edge"><title>topo.base.functionfamily.LearningFn&#45;&gt;topo.learningfn.Oja</title>
<path fill="none" stroke="black" stroke-width="0.5" d="M357.32,-56.9638C383.537,-49.1391 421.022,-38.1093 454,-29 463.244,-26.4464 473.174,-23.799 482.64,-21.3203"/>
<polygon fill="black" stroke="black" points="483.146,-22.997 487.542,-20.0409 482.262,-19.6105 483.146,-22.997"/>
</g>
<!-- param.parameterized.Parameterized -->
<g id="node10" class="node"><title>param.parameterized.Parameterized</title>
<polygon fill="none" stroke="black" stroke-width="0.5" points="194,-77.5 5.68434e-14,-77.5 0,-56.5 194,-56.5 194,-77.5"/>
<text text-anchor="middle" x="97" y="-64.5" font-family="Vera" font-size="10.00">param.parameterized.Parameterized</text>
</g>
<!-- param.parameterized.Parameterized&#45;&gt;topo.base.functionfamily.LearningFn -->
<g id="edge10" class="edge"><title>param.parameterized.Parameterized&#45;&gt;topo.base.functionfamily.LearningFn</title>
<path fill="none" stroke="black" stroke-width="0.5" d="M194.256,-67C204.299,-67 214.514,-67 224.58,-67"/>
<polygon fill="black" stroke="black" points="224.828,-68.7501 229.828,-67 224.828,-65.2501 224.828,-68.7501"/>
</g>
</g>
</svg>
