<?xml version="1.0" encoding="UTF-8" standalone="no"?>
<!DOCTYPE svg PUBLIC "-//W3C//DTD SVG 1.1//EN"
 "http://www.w3.org/Graphics/SVG/1.1/DTD/svg11.dtd">
<!-- Generated by graphviz version 2.26.3 (20100126.1600)
 -->
<!-- Title: inheritance29649dbcd3 Pages: 1 -->
<svg width="1222pt" height="180pt"
 viewBox="0.00 0.00 1222.00 180.00" xmlns="http://www.w3.org/2000/svg" xmlns:xlink="http://www.w3.org/1999/xlink">
<g id="graph1" class="graph" transform="scale(1 1) rotate(0) translate(4 176)">
<title>inheritance29649dbcd3</title>
<polygon fill="white" stroke="white" points="-4,5 -4,-176 1219,-176 1219,5 -4,5"/>
<!-- Tkinter.Grid -->
<g id="node1" class="node"><title>Tkinter.Grid</title>
<polygon fill="none" stroke="black" stroke-width="0.5" points="240,-172.5 170,-172.5 170,-151.5 240,-151.5 240,-172.5"/>
<text text-anchor="middle" x="205" y="-159.5" font-family="Vera" font-size="10.00">Tkinter.Grid</text>
</g>
<!-- Tkinter.Widget -->
<g id="node15" class="node"><title>Tkinter.Widget</title>
<polygon fill="none" stroke="black" stroke-width="0.5" points="461,-96.5 379,-96.5 379,-75.5 461,-75.5 461,-96.5"/>
<text text-anchor="middle" x="420" y="-83.5" font-family="Vera" font-size="10.00">Tkinter.Widget</text>
</g>
<!-- Tkinter.Grid&#45;&gt;Tkinter.Widget -->
<g id="edge18" class="edge"><title>Tkinter.Grid&#45;&gt;Tkinter.Widget</title>
<path fill="none" stroke="black" stroke-width="0.5" d="M240.582,-157.274C259.178,-154.245 282.139,-149.62 302,-143 337.006,-131.333 375.019,-111.57 398.178,-98.6531"/>
<polygon fill="black" stroke="black" points="399.105,-100.14 402.607,-96.1653 397.39,-97.0885 399.105,-100.14"/>
</g>
<!-- Tkinter.Pack -->
<g id="node2" class="node"><title>Tkinter.Pack</title>
<polygon fill="none" stroke="black" stroke-width="0.5" points="241,-134.5 169,-134.5 169,-113.5 241,-113.5 241,-134.5"/>
<text text-anchor="middle" x="205" y="-121.5" font-family="Vera" font-size="10.00">Tkinter.Pack</text>
</g>
<!-- Tkinter.Pack&#45;&gt;Tkinter.Widget -->
<g id="edge14" class="edge"><title>Tkinter.Pack&#45;&gt;Tkinter.Widget</title>
<path fill="none" stroke="black" stroke-width="0.5" d="M241.96,-117.468C278.269,-111.05 333.801,-101.235 373.179,-94.2753"/>
<polygon fill="black" stroke="black" points="373.764,-95.9492 378.383,-93.3556 373.154,-92.5027 373.764,-95.9492"/>
</g>
<!-- Tkinter.Misc -->
<g id="node3" class="node"><title>Tkinter.Misc</title>
<polygon fill="none" stroke="black" stroke-width="0.5" points="72,-96.5 2.84217e-14,-96.5 0,-75.5 72,-75.5 72,-96.5"/>
<text text-anchor="middle" x="36" y="-83.5" font-family="Vera" font-size="10.00">Tkinter.Misc</text>
</g>
<!-- Tkinter.BaseWidget -->
<g id="node4" class="node"><title>Tkinter.BaseWidget</title>
<polygon fill="none" stroke="black" stroke-width="0.5" points="258,-96.5 152,-96.5 152,-75.5 258,-75.5 258,-96.5"/>
<text text-anchor="middle" x="205" y="-83.5" font-family="Vera" font-size="10.00">Tkinter.BaseWidget</text>
</g>
<!-- Tkinter.Misc&#45;&gt;Tkinter.BaseWidget -->
<g id="edge2" class="edge"><title>Tkinter.Misc&#45;&gt;Tkinter.BaseWidget</title>
<path fill="none" stroke="black" stroke-width="0.5" d="M72.2547,-86C93.805,-86 121.651,-86 146.27,-86"/>
<polygon fill="black" stroke="black" points="146.471,-87.7501 151.471,-86 146.471,-84.2501 146.471,-87.7501"/>
</g>
<!-- Tkinter.BaseWidget&#45;&gt;Tkinter.Widget -->
<g id="edge12" class="edge"><title>Tkinter.BaseWidget&#45;&gt;Tkinter.Widget</title>
<path fill="none" stroke="black" stroke-width="0.5" d="M258.699,-86C293.881,-86 339.423,-86 373.138,-86"/>
<polygon fill="black" stroke="black" points="373.444,-87.7501 378.444,-86 373.444,-84.2501 373.444,-87.7501"/>
</g>
<!-- paramtk.TkParameterizedBase -->
<g id="node6" class="node"><title>paramtk.TkParameterizedBase</title>
<polygon fill="none" stroke="black" stroke-width="0.5" points="502,-25.5 338,-25.5 338,-4.5 502,-4.5 502,-25.5"/>
<text text-anchor="middle" x="420" y="-12.5" font-family="Vera" font-size="10.00">paramtk.TkParameterizedBase</text>
</g>
<!-- paramtk.TkParameterized -->
<g id="node9" class="node"><title>paramtk.TkParameterized</title>
<polygon fill="none" stroke="black" stroke-width="0.5" points="678,-30.5 538,-30.5 538,-9.5 678,-9.5 678,-30.5"/>
<text text-anchor="middle" x="608" y="-17.5" font-family="Vera" font-size="10.00">paramtk.TkParameterized</text>
</g>
<!-- paramtk.TkParameterizedBase&#45;&gt;paramtk.TkParameterized -->
<g id="edge6" class="edge"><title>paramtk.TkParameterizedBase&#45;&gt;paramtk.TkParameterized</title>
<path fill="none" stroke="black" stroke-width="0.5" d="M502.186,-17.1858C512.283,-17.4543 522.564,-17.7278 532.554,-17.9935"/>
<polygon fill="black" stroke="black" points="532.704,-19.748 537.749,-18.1316 532.798,-16.2492 532.704,-19.748"/>
</g>
<!-- param.parameterized.Parameterized -->
<g id="node7" class="node"><title>param.parameterized.Parameterized</title>
<polygon fill="none" stroke="black" stroke-width="0.5" points="302,-20.5 108,-20.5 108,0.5 302,0.5 302,-20.5"/>
<text text-anchor="middle" x="205" y="-7.5" font-family="Vera" font-size="10.00">param.parameterized.Parameterized</text>
</g>
<!-- param.parameterized.Parameterized&#45;&gt;paramtk.TkParameterizedBase -->
<g id="edge4" class="edge"><title>param.parameterized.Parameterized&#45;&gt;paramtk.TkParameterizedBase</title>
<path fill="none" stroke="black" stroke-width="0.5" d="M302.121,-12.2586C312.261,-12.4944 322.525,-12.7331 332.548,-12.9662"/>
<polygon fill="black" stroke="black" points="332.726,-14.7208 337.766,-13.0876 332.808,-11.2217 332.726,-14.7208"/>
</g>
<!-- topo.tkgui.plotgrouppanel.PlotGroupPanel -->
<g id="node11" class="node"><title>topo.tkgui.plotgrouppanel.PlotGroupPanel</title>
<polygon fill="none" stroke="black" stroke-width="0.5" points="929,-53.5 715,-53.5 715,-32.5 929,-32.5 929,-53.5"/>
<text text-anchor="middle" x="822" y="-40.5" font-family="Vera" font-size="10.00">topo.tkgui.plotgrouppanel.PlotGroupPanel</text>
</g>
<!-- paramtk.TkParameterized&#45;&gt;topo.tkgui.plotgrouppanel.PlotGroupPanel -->
<g id="edge8" class="edge"><title>paramtk.TkParameterized&#45;&gt;topo.tkgui.plotgrouppanel.PlotGroupPanel</title>
<path fill="none" stroke="black" stroke-width="0.5" d="M678.072,-27.5311C692.637,-29.0965 708.244,-30.7739 723.612,-32.4256"/>
<polygon fill="black" stroke="black" points="723.654,-34.1901 728.812,-32.9845 724.028,-30.7101 723.654,-34.1901"/>
</g>
<!-- topo.tkgui.featurecurvepanel.FeatureCurvePanel -->
<g id="node21" class="node"><title>topo.tkgui.featurecurvepanel.FeatureCurvePanel</title>
<polygon fill="none" stroke="black" stroke-width="0.5" points="1213,-53.5 967,-53.5 967,-32.5 1213,-32.5 1213,-53.5"/>
<text text-anchor="middle" x="1090" y="-40.5" font-family="Vera" font-size="10.00">topo.tkgui.featurecurvepanel.FeatureCurvePanel</text>
</g>
<!-- topo.tkgui.plotgrouppanel.PlotGroupPanel&#45;&gt;topo.tkgui.featurecurvepanel.FeatureCurvePanel -->
<g id="edge20" class="edge"><title>topo.tkgui.plotgrouppanel.PlotGroupPanel&#45;&gt;topo.tkgui.featurecurvepanel.FeatureCurvePanel</title>
<path fill="none" stroke="black" stroke-width="0.5" d="M929.847,-43C940.097,-43 950.559,-43 960.981,-43"/>
<polygon fill="black" stroke="black" points="961.093,-44.7501 966.093,-43 961.093,-41.2501 961.093,-44.7501"/>
</g>
<!-- Tkinter.Frame -->
<g id="node13" class="node"><title>Tkinter.Frame</title>
<polygon fill="none" stroke="black" stroke-width="0.5" points="648,-77.5 568,-77.5 568,-56.5 648,-56.5 648,-77.5"/>
<text text-anchor="middle" x="608" y="-64.5" font-family="Vera" font-size="10.00">Tkinter.Frame</text>
</g>
<!-- Tkinter.Frame&#45;&gt;topo.tkgui.plotgrouppanel.PlotGroupPanel -->
<g id="edge10" class="edge"><title>Tkinter.Frame&#45;&gt;topo.tkgui.plotgrouppanel.PlotGroupPanel</title>
<path fill="none" stroke="black" stroke-width="0.5" d="M648.503,-62.4576C670.862,-59.9501 699.638,-56.7228 727.302,-53.6203"/>
<polygon fill="black" stroke="black" points="727.679,-55.3391 732.453,-53.0426 727.289,-51.8609 727.679,-55.3391"/>
</g>
<!-- Tkinter.Widget&#45;&gt;Tkinter.Frame -->
<g id="edge22" class="edge"><title>Tkinter.Widget&#45;&gt;Tkinter.Frame</title>
<path fill="none" stroke="black" stroke-width="0.5" d="M461.723,-81.7833C491.481,-78.7758 531.488,-74.7326 562.14,-71.6348"/>
<polygon fill="black" stroke="black" points="562.564,-73.351 567.362,-71.107 562.212,-69.8687 562.564,-73.351"/>
</g>
<!-- Tkinter.Place -->
<g id="node18" class="node"><title>Tkinter.Place</title>
<polygon fill="none" stroke="black" stroke-width="0.5" points="243,-58.5 167,-58.5 167,-37.5 243,-37.5 243,-58.5"/>
<text text-anchor="middle" x="205" y="-45.5" font-family="Vera" font-size="10.00">Tkinter.Place</text>
</g>
<!-- Tkinter.Place&#45;&gt;Tkinter.Widget -->
<g id="edge16" class="edge"><title>Tkinter.Place&#45;&gt;Tkinter.Widget</title>
<path fill="none" stroke="black" stroke-width="0.5" d="M243.935,-54.8815C280.299,-61.3087 334.629,-70.9112 373.308,-77.7475"/>
<polygon fill="black" stroke="black" points="373.192,-79.504 378.42,-78.6511 373.801,-76.0574 373.192,-79.504"/>
</g>
</g>
</svg>
