<?xml version="1.0" encoding="UTF-8" standalone="no"?>
<!DOCTYPE svg PUBLIC "-//W3C//DTD SVG 1.1//EN"
 "http://www.w3.org/Graphics/SVG/1.1/DTD/svg11.dtd">
<!-- Generated by graphviz version 2.26.3 (20100126.1600)
 -->
<!-- Title: inheritance203ca4e712 Pages: 1 -->
<svg width="542pt" height="218pt"
 viewBox="0.00 0.00 542.00 218.00" xmlns="http://www.w3.org/2000/svg" xmlns:xlink="http://www.w3.org/1999/xlink">
<g id="graph1" class="graph" transform="scale(1 1) rotate(0) translate(4 214)">
<title>inheritance203ca4e712</title>
<polygon fill="white" stroke="white" points="-4,5 -4,-214 539,-214 539,5 -4,5"/>
<!-- imagen.plots.SheetViewPlot -->
<g id="node1" class="node"><title>imagen.plots.SheetViewPlot</title>
<polygon fill="none" stroke="black" stroke-width="0.5" points="525,-210.5 375,-210.5 375,-189.5 525,-189.5 525,-210.5"/>
<text text-anchor="middle" x="450" y="-197.5" font-family="Vera" font-size="10.00">imagen.plots.SheetViewPlot</text>
</g>
<!-- imagen.plots.Plot -->
<g id="node2" class="node"><title>imagen.plots.Plot</title>
<polygon fill="none" stroke="black" stroke-width="0.5" points="330,-115.5 230,-115.5 230,-94.5 330,-94.5 330,-115.5"/>
<text text-anchor="middle" x="280" y="-102.5" font-family="Vera" font-size="10.00">imagen.plots.Plot</text>
</g>
<!-- imagen.plots.Plot&#45;&gt;imagen.plots.SheetViewPlot -->
<g id="edge2" class="edge"><title>imagen.plots.Plot&#45;&gt;imagen.plots.SheetViewPlot</title>
<path fill="none" stroke="black" stroke-width="0.5" d="M288.374,-115.152C302.56,-131.645 333.01,-164.113 366,-181 371.511,-183.821 377.437,-186.226 383.499,-188.277"/>
<polygon fill="black" stroke="black" points="383.322,-190.058 388.617,-189.917 384.39,-186.725 383.322,-190.058"/>
</g>
<!-- imagen.plots.SheetPointsPlot -->
<g id="node6" class="node"><title>imagen.plots.SheetPointsPlot</title>
<polygon fill="none" stroke="black" stroke-width="0.5" points="529,-172.5 371,-172.5 371,-151.5 529,-151.5 529,-172.5"/>
<text text-anchor="middle" x="450" y="-159.5" font-family="Vera" font-size="10.00">imagen.plots.SheetPointsPlot</text>
</g>
<!-- imagen.plots.Plot&#45;&gt;imagen.plots.SheetPointsPlot -->
<g id="edge6" class="edge"><title>imagen.plots.Plot&#45;&gt;imagen.plots.SheetPointsPlot</title>
<path fill="none" stroke="black" stroke-width="0.5" d="M299.724,-115.03C316.882,-123.433 342.598,-135.264 366,-143 374.624,-145.851 383.886,-148.419 392.996,-150.677"/>
<polygon fill="black" stroke="black" points="392.765,-152.422 398.037,-151.9 393.59,-149.02 392.765,-152.422"/>
</g>
<!-- imagen.plots.ProjectionGridPlot -->
<g id="node8" class="node"><title>imagen.plots.ProjectionGridPlot</title>
<polygon fill="none" stroke="black" stroke-width="0.5" points="533,-134.5 367,-134.5 367,-113.5 533,-113.5 533,-134.5"/>
<text text-anchor="middle" x="450" y="-121.5" font-family="Vera" font-size="10.00">imagen.plots.ProjectionGridPlot</text>
</g>
<!-- imagen.plots.Plot&#45;&gt;imagen.plots.ProjectionGridPlot -->
<g id="edge8" class="edge"><title>imagen.plots.Plot&#45;&gt;imagen.plots.ProjectionGridPlot</title>
<path fill="none" stroke="black" stroke-width="0.5" d="M330.086,-110.598C339.934,-111.698 350.538,-112.884 361.222,-114.078"/>
<polygon fill="black" stroke="black" points="361.307,-115.848 366.471,-114.664 361.696,-112.37 361.307,-115.848"/>
</g>
<!-- imagen.plots.SheetPlot -->
<g id="node10" class="node"><title>imagen.plots.SheetPlot</title>
<polygon fill="none" stroke="black" stroke-width="0.5" points="514,-96.5 386,-96.5 386,-75.5 514,-75.5 514,-96.5"/>
<text text-anchor="middle" x="450" y="-83.5" font-family="Vera" font-size="10.00">imagen.plots.SheetPlot</text>
</g>
<!-- imagen.plots.Plot&#45;&gt;imagen.plots.SheetPlot -->
<g id="edge10" class="edge"><title>imagen.plots.Plot&#45;&gt;imagen.plots.SheetPlot</title>
<path fill="none" stroke="black" stroke-width="0.5" d="M330.086,-99.4021C345.885,-97.6364 363.632,-95.6529 380.531,-93.7642"/>
<polygon fill="black" stroke="black" points="380.971,-95.476 385.745,-93.1814 380.582,-91.9977 380.971,-95.476"/>
</g>
<!-- imagen.plots.SheetLinesPlot -->
<g id="node12" class="node"><title>imagen.plots.SheetLinesPlot</title>
<polygon fill="none" stroke="black" stroke-width="0.5" points="526,-58.5 374,-58.5 374,-37.5 526,-37.5 526,-58.5"/>
<text text-anchor="middle" x="450" y="-45.5" font-family="Vera" font-size="10.00">imagen.plots.SheetLinesPlot</text>
</g>
<!-- imagen.plots.Plot&#45;&gt;imagen.plots.SheetLinesPlot -->
<g id="edge12" class="edge"><title>imagen.plots.Plot&#45;&gt;imagen.plots.SheetLinesPlot</title>
<path fill="none" stroke="black" stroke-width="0.5" d="M299.724,-94.9702C316.882,-86.5667 342.598,-74.736 366,-67 374.624,-64.1492 383.886,-61.5814 392.996,-59.3229"/>
<polygon fill="black" stroke="black" points="393.59,-60.9796 398.037,-58.1002 392.765,-57.5782 393.59,-60.9796"/>
</g>
<!-- imagen.plots.GridLayoutPlot -->
<g id="node14" class="node"><title>imagen.plots.GridLayoutPlot</title>
<polygon fill="none" stroke="black" stroke-width="0.5" points="526,-20.5 374,-20.5 374,0.5 526,0.5 526,-20.5"/>
<text text-anchor="middle" x="450" y="-7.5" font-family="Vera" font-size="10.00">imagen.plots.GridLayoutPlot</text>
</g>
<!-- imagen.plots.Plot&#45;&gt;imagen.plots.GridLayoutPlot -->
<g id="edge14" class="edge"><title>imagen.plots.Plot&#45;&gt;imagen.plots.GridLayoutPlot</title>
<path fill="none" stroke="black" stroke-width="0.5" d="M288.374,-94.8482C302.56,-78.3548 333.01,-45.8867 366,-29 371.511,-26.1791 377.437,-23.7737 383.499,-21.7231"/>
<polygon fill="black" stroke="black" points="384.39,-23.2754 388.617,-20.0828 383.322,-19.9424 384.39,-23.2754"/>
</g>
<!-- param.parameterized.Parameterized -->
<g id="node4" class="node"><title>param.parameterized.Parameterized</title>
<polygon fill="none" stroke="black" stroke-width="0.5" points="194,-115.5 5.68434e-14,-115.5 0,-94.5 194,-94.5 194,-115.5"/>
<text text-anchor="middle" x="97" y="-102.5" font-family="Vera" font-size="10.00">param.parameterized.Parameterized</text>
</g>
<!-- param.parameterized.Parameterized&#45;&gt;imagen.plots.Plot -->
<g id="edge4" class="edge"><title>param.parameterized.Parameterized&#45;&gt;imagen.plots.Plot</title>
<path fill="none" stroke="black" stroke-width="0.5" d="M194.126,-105C204.616,-105 215.007,-105 224.745,-105"/>
<polygon fill="black" stroke="black" points="224.775,-106.75 229.775,-105 224.775,-103.25 224.775,-106.75"/>
</g>
</g>
</svg>
