<?xml version="1.0" encoding="UTF-8" standalone="no"?>
<!DOCTYPE svg PUBLIC "-//W3C//DTD SVG 1.1//EN"
 "http://www.w3.org/Graphics/SVG/1.1/DTD/svg11.dtd">
<!-- Generated by graphviz version 2.26.3 (20100126.1600)
 -->
<!-- Title: inheritance380e6ccf80 Pages: 1 -->
<svg width="802pt" height="180pt"
 viewBox="0.00 0.00 802.00 180.00" xmlns="http://www.w3.org/2000/svg" xmlns:xlink="http://www.w3.org/1999/xlink">
<g id="graph1" class="graph" transform="scale(1 1) rotate(0) translate(4 176)">
<title>inheritance380e6ccf80</title>
<polygon fill="white" stroke="white" points="-4,5 -4,-176 799,-176 799,5 -4,5"/>
<!-- param.parameterized.Parameter -->
<g id="node1" class="node"><title>param.parameterized.Parameter</title>
<polygon fill="none" stroke="black" stroke-width="0.5" points="192,-39.5 18,-39.5 18,-18.5 192,-18.5 192,-39.5"/>
<text text-anchor="middle" x="105" y="-26.5" font-family="Vera" font-size="10.00">param.parameterized.Parameter</text>
</g>
<!-- imagen.boundingregion.Cartesian2DPoint -->
<g id="node8" class="node"><title>imagen.boundingregion.Cartesian2DPoint</title>
<polygon fill="none" stroke="black" stroke-width="0.5" points="484,-58.5 268,-58.5 268,-37.5 484,-37.5 484,-58.5"/>
<text text-anchor="middle" x="376" y="-45.5" font-family="Vera" font-size="10.00">imagen.boundingregion.Cartesian2DPoint</text>
</g>
<!-- param.parameterized.Parameter&#45;&gt;imagen.boundingregion.Cartesian2DPoint -->
<g id="edge6" class="edge"><title>param.parameterized.Parameter&#45;&gt;imagen.boundingregion.Cartesian2DPoint</title>
<path fill="none" stroke="black" stroke-width="0.5" d="M192.612,-35.1425C214.989,-36.7114 239.367,-38.4206 262.826,-40.0653"/>
<polygon fill="black" stroke="black" points="262.707,-41.8112 267.817,-40.4152 262.952,-38.3197 262.707,-41.8112"/>
</g>
<!-- imagen.boundingregion.BoundingRegionParameter -->
<g id="node10" class="node"><title>imagen.boundingregion.BoundingRegionParameter</title>
<polygon fill="none" stroke="black" stroke-width="0.5" points="506,-20.5 246,-20.5 246,0.5 506,0.5 506,-20.5"/>
<text text-anchor="middle" x="376" y="-7.5" font-family="Vera" font-size="10.00">imagen.boundingregion.BoundingRegionParameter</text>
</g>
<!-- param.parameterized.Parameter&#45;&gt;imagen.boundingregion.BoundingRegionParameter -->
<g id="edge8" class="edge"><title>param.parameterized.Parameter&#45;&gt;imagen.boundingregion.BoundingRegionParameter</title>
<path fill="none" stroke="black" stroke-width="0.5" d="M192.612,-22.8575C208.028,-21.7767 224.392,-20.6293 240.752,-19.4823"/>
<polygon fill="black" stroke="black" points="240.963,-21.2219 245.828,-19.1264 240.718,-17.7305 240.963,-21.2219"/>
</g>
<!-- imagen.boundingregion.Unbounded -->
<g id="node2" class="node"><title>imagen.boundingregion.Unbounded</title>
<polygon fill="none" stroke="black" stroke-width="0.5" points="470,-172.5 282,-172.5 282,-151.5 470,-151.5 470,-172.5"/>
<text text-anchor="middle" x="376" y="-159.5" font-family="Vera" font-size="10.00">imagen.boundingregion.Unbounded</text>
</g>
<!-- imagen.boundingregion.BoundingRegion -->
<g id="node3" class="node"><title>imagen.boundingregion.BoundingRegion</title>
<polygon fill="none" stroke="black" stroke-width="0.5" points="209,-134.5 1,-134.5 1,-113.5 209,-113.5 209,-134.5"/>
<text text-anchor="middle" x="105" y="-121.5" font-family="Vera" font-size="10.00">imagen.boundingregion.BoundingRegion</text>
</g>
<!-- imagen.boundingregion.BoundingRegion&#45;&gt;imagen.boundingregion.Unbounded -->
<g id="edge2" class="edge"><title>imagen.boundingregion.BoundingRegion&#45;&gt;imagen.boundingregion.Unbounded</title>
<path fill="none" stroke="black" stroke-width="0.5" d="M176.557,-134.034C214.376,-139.337 260.819,-145.849 299.369,-151.255"/>
<polygon fill="black" stroke="black" points="299.318,-153.015 304.513,-151.976 299.804,-149.549 299.318,-153.015"/>
</g>
<!-- imagen.boundingregion.BoundingBox -->
<g id="node6" class="node"><title>imagen.boundingregion.BoundingBox</title>
<polygon fill="none" stroke="black" stroke-width="0.5" points="474,-134.5 278,-134.5 278,-113.5 474,-113.5 474,-134.5"/>
<text text-anchor="middle" x="376" y="-121.5" font-family="Vera" font-size="10.00">imagen.boundingregion.BoundingBox</text>
</g>
<!-- imagen.boundingregion.BoundingRegion&#45;&gt;imagen.boundingregion.BoundingBox -->
<g id="edge12" class="edge"><title>imagen.boundingregion.BoundingRegion&#45;&gt;imagen.boundingregion.BoundingBox</title>
<path fill="none" stroke="black" stroke-width="0.5" d="M209.776,-124C230.372,-124 251.968,-124 272.521,-124"/>
<polygon fill="black" stroke="black" points="272.723,-125.75 277.723,-124 272.723,-122.25 272.723,-125.75"/>
</g>
<!-- imagen.boundingregion.BoundingCircle -->
<g id="node12" class="node"><title>imagen.boundingregion.BoundingCircle</title>
<polygon fill="none" stroke="black" stroke-width="0.5" points="478,-96.5 274,-96.5 274,-75.5 478,-75.5 478,-96.5"/>
<text text-anchor="middle" x="376" y="-83.5" font-family="Vera" font-size="10.00">imagen.boundingregion.BoundingCircle</text>
</g>
<!-- imagen.boundingregion.BoundingRegion&#45;&gt;imagen.boundingregion.BoundingCircle -->
<g id="edge10" class="edge"><title>imagen.boundingregion.BoundingRegion&#45;&gt;imagen.boundingregion.BoundingCircle</title>
<path fill="none" stroke="black" stroke-width="0.5" d="M176.557,-113.966C214.376,-108.663 260.819,-102.151 299.369,-96.7453"/>
<polygon fill="black" stroke="black" points="299.804,-98.4515 304.513,-96.024 299.318,-94.9854 299.804,-98.4515"/>
</g>
<!-- imagen.boundingregion.BoundingEllipse -->
<g id="node5" class="node"><title>imagen.boundingregion.BoundingEllipse</title>
<polygon fill="none" stroke="black" stroke-width="0.5" points="772,-153.5 564,-153.5 564,-132.5 772,-132.5 772,-153.5"/>
<text text-anchor="middle" x="668" y="-140.5" font-family="Vera" font-size="10.00">imagen.boundingregion.BoundingEllipse</text>
</g>
<!-- imagen.boundingregion.BoundingBox&#45;&gt;imagen.boundingregion.BoundingEllipse -->
<g id="edge4" class="edge"><title>imagen.boundingregion.BoundingBox&#45;&gt;imagen.boundingregion.BoundingEllipse</title>
<path fill="none" stroke="black" stroke-width="0.5" d="M474.044,-130.38C501.262,-132.151 530.98,-134.084 558.793,-135.894"/>
<polygon fill="black" stroke="black" points="558.86,-137.652 563.964,-136.231 559.088,-134.159 558.86,-137.652"/>
</g>
<!-- imagen.boundingregion.BoundingBoxIntersection -->
<g id="node16" class="node"><title>imagen.boundingregion.BoundingBoxIntersection</title>
<polygon fill="none" stroke="black" stroke-width="0.5" points="794,-115.5 542,-115.5 542,-94.5 794,-94.5 794,-115.5"/>
<text text-anchor="middle" x="668" y="-102.5" font-family="Vera" font-size="10.00">imagen.boundingregion.BoundingBoxIntersection</text>
</g>
<!-- imagen.boundingregion.BoundingBox&#45;&gt;imagen.boundingregion.BoundingBoxIntersection -->
<g id="edge14" class="edge"><title>imagen.boundingregion.BoundingBox&#45;&gt;imagen.boundingregion.BoundingBoxIntersection</title>
<path fill="none" stroke="black" stroke-width="0.5" d="M474.044,-117.62C494.214,-116.308 515.758,-114.906 536.882,-113.532"/>
<polygon fill="black" stroke="black" points="537.078,-115.273 541.953,-113.202 536.85,-111.78 537.078,-115.273"/>
</g>
<!-- imagen.boundingregion.AARectangle -->
<g id="node14" class="node"><title>imagen.boundingregion.AARectangle</title>
<polygon fill="none" stroke="black" stroke-width="0.5" points="201,-172.5 9,-172.5 9,-151.5 201,-151.5 201,-172.5"/>
<text text-anchor="middle" x="105" y="-159.5" font-family="Vera" font-size="10.00">imagen.boundingregion.AARectangle</text>
</g>
</g>
</svg>
