<?xml version="1.0" encoding="UTF-8" standalone="no"?>
<!DOCTYPE svg PUBLIC "-//W3C//DTD SVG 1.1//EN"
 "http://www.w3.org/Graphics/SVG/1.1/DTD/svg11.dtd">
<!-- Generated by graphviz version 2.26.3 (20100126.1600)
 -->
<!-- Title: inheritance3835fd925f Pages: 1 -->
<svg width="538pt" height="161pt"
 viewBox="0.00 0.00 538.00 161.00" xmlns="http://www.w3.org/2000/svg" xmlns:xlink="http://www.w3.org/1999/xlink">
<g id="graph1" class="graph" transform="scale(1 1) rotate(0) translate(4 157)">
<title>inheritance3835fd925f</title>
<polygon fill="white" stroke="white" points="-4,5 -4,-157 535,-157 535,5 -4,5"/>
<!-- topo.misc.commandline.OutputPrompt -->
<g id="node1" class="node"><title>topo.misc.commandline.OutputPrompt</title>
<polygon fill="none" stroke="black" stroke-width="0.5" points="517,-96.5 315,-96.5 315,-75.5 517,-75.5 517,-96.5"/>
<text text-anchor="middle" x="416" y="-83.5" font-family="Vera" font-size="10.00">topo.misc.commandline.OutputPrompt</text>
</g>
<!-- topo.misc.commandline.IPCommandPromptHandler -->
<g id="node2" class="node"><title>topo.misc.commandline.IPCommandPromptHandler</title>
<polygon fill="none" stroke="black" stroke-width="0.5" points="266,-58.5 1.42109e-13,-58.5 0,-37.5 266,-37.5 266,-58.5"/>
<text text-anchor="middle" x="133" y="-45.5" font-family="Vera" font-size="10.00">topo.misc.commandline.IPCommandPromptHandler</text>
</g>
<!-- topo.misc.commandline.IPCommandPromptHandler&#45;&gt;topo.misc.commandline.OutputPrompt -->
<g id="edge2" class="edge"><title>topo.misc.commandline.IPCommandPromptHandler&#45;&gt;topo.misc.commandline.OutputPrompt</title>
<path fill="none" stroke="black" stroke-width="0.5" d="M207.725,-58.0338C247.219,-63.3369 295.718,-69.8491 335.976,-75.2547"/>
<polygon fill="black" stroke="black" points="336.159,-77.0449 341.347,-75.976 336.625,-73.576 336.159,-77.0449"/>
</g>
<!-- topo.misc.commandline.CommandPrompt2 -->
<g id="node4" class="node"><title>topo.misc.commandline.CommandPrompt2</title>
<polygon fill="none" stroke="black" stroke-width="0.5" points="529,-58.5 303,-58.5 303,-37.5 529,-37.5 529,-58.5"/>
<text text-anchor="middle" x="416" y="-45.5" font-family="Vera" font-size="10.00">topo.misc.commandline.CommandPrompt2</text>
</g>
<!-- topo.misc.commandline.IPCommandPromptHandler&#45;&gt;topo.misc.commandline.CommandPrompt2 -->
<g id="edge4" class="edge"><title>topo.misc.commandline.IPCommandPromptHandler&#45;&gt;topo.misc.commandline.CommandPrompt2</title>
<path fill="none" stroke="black" stroke-width="0.5" d="M266.213,-48C276.562,-48 286.97,-48 297.216,-48"/>
<polygon fill="black" stroke="black" points="297.231,-49.7501 302.231,-48 297.231,-46.2501 297.231,-49.7501"/>
</g>
<!-- topo.misc.commandline.CommandPrompt -->
<g id="node8" class="node"><title>topo.misc.commandline.CommandPrompt</title>
<polygon fill="none" stroke="black" stroke-width="0.5" points="526,-20.5 306,-20.5 306,0.5 526,0.5 526,-20.5"/>
<text text-anchor="middle" x="416" y="-7.5" font-family="Vera" font-size="10.00">topo.misc.commandline.CommandPrompt</text>
</g>
<!-- topo.misc.commandline.IPCommandPromptHandler&#45;&gt;topo.misc.commandline.CommandPrompt -->
<g id="edge6" class="edge"><title>topo.misc.commandline.IPCommandPromptHandler&#45;&gt;topo.misc.commandline.CommandPrompt</title>
<path fill="none" stroke="black" stroke-width="0.5" d="M207.725,-37.9662C247.219,-32.6631 295.718,-26.1509 335.976,-20.7453"/>
<polygon fill="black" stroke="black" points="336.625,-22.424 341.347,-20.024 336.159,-18.9551 336.625,-22.424"/>
</g>
<!-- topo.base.simulation.OptionalSingleton -->
<g id="node6" class="node"><title>topo.base.simulation.OptionalSingleton</title>
<polygon fill="none" stroke="black" stroke-width="0.5" points="235,-153.5 31,-153.5 31,-132.5 235,-132.5 235,-153.5"/>
<text text-anchor="middle" x="133" y="-140.5" font-family="Vera" font-size="10.00">topo.base.simulation.OptionalSingleton</text>
</g>
<!-- topo.misc.commandline.GlobalParams -->
<g id="node10" class="node"><title>topo.misc.commandline.GlobalParams</title>
<polygon fill="none" stroke="black" stroke-width="0.5" points="516,-134.5 316,-134.5 316,-113.5 516,-113.5 516,-134.5"/>
<text text-anchor="middle" x="416" y="-121.5" font-family="Vera" font-size="10.00">topo.misc.commandline.GlobalParams</text>
</g>
<!-- topo.base.simulation.OptionalSingleton&#45;&gt;topo.misc.commandline.GlobalParams -->
<g id="edge10" class="edge"><title>topo.base.simulation.OptionalSingleton&#45;&gt;topo.misc.commandline.GlobalParams</title>
<path fill="none" stroke="black" stroke-width="0.5" d="M235.57,-136.114C259.789,-134.488 285.658,-132.751 310.025,-131.115"/>
<polygon fill="black" stroke="black" points="310.329,-132.849 315.2,-130.767 310.094,-129.356 310.329,-132.849"/>
</g>
<!-- param.parameterized.Parameterized -->
<g id="node7" class="node"><title>param.parameterized.Parameterized</title>
<polygon fill="none" stroke="black" stroke-width="0.5" points="230,-115.5 36,-115.5 36,-94.5 230,-94.5 230,-115.5"/>
<text text-anchor="middle" x="133" y="-102.5" font-family="Vera" font-size="10.00">param.parameterized.Parameterized</text>
</g>
<!-- param.parameterized.Parameterized&#45;&gt;topo.misc.commandline.GlobalParams -->
<g id="edge8" class="edge"><title>param.parameterized.Parameterized&#45;&gt;topo.misc.commandline.GlobalParams</title>
<path fill="none" stroke="black" stroke-width="0.5" d="M230.393,-111.539C256.024,-113.26 283.802,-115.124 309.868,-116.875"/>
<polygon fill="black" stroke="black" points="309.951,-118.634 315.057,-117.223 310.186,-115.142 309.951,-118.634"/>
</g>
</g>
</svg>
