<?xml version="1.0" encoding="UTF-8" standalone="no"?>
<!DOCTYPE svg PUBLIC "-//W3C//DTD SVG 1.1//EN"
 "http://www.w3.org/Graphics/SVG/1.1/DTD/svg11.dtd">
<!-- Generated by graphviz version 2.26.3 (20100126.1600)
 -->
<!-- Title: inheritancece7b6403e7 Pages: 1 -->
<svg width="520pt" height="256pt"
 viewBox="0.00 0.00 520.00 256.00" xmlns="http://www.w3.org/2000/svg" xmlns:xlink="http://www.w3.org/1999/xlink">
<g id="graph1" class="graph" transform="scale(1 1) rotate(0) translate(4 252)">
<title>inheritancece7b6403e7</title>
<polygon fill="white" stroke="white" points="-4,5 -4,-252 517,-252 517,5 -4,5"/>
<!-- param.parameterized.ParamOverrides -->
<g id="node1" class="node"><title>param.parameterized.ParamOverrides</title>
<polygon fill="none" stroke="black" stroke-width="0.5" points="221,-20.5 21,-20.5 21,0.5 221,0.5 221,-20.5"/>
<text text-anchor="middle" x="121" y="-7.5" font-family="Vera" font-size="10.00">param.parameterized.ParamOverrides</text>
</g>
<!-- param.parameterized.ParameterizedMetaclass -->
<g id="node2" class="node"><title>param.parameterized.ParameterizedMetaclass</title>
<polygon fill="none" stroke="black" stroke-width="0.5" points="242,-58.5 9.9476e-14,-58.5 0,-37.5 242,-37.5 242,-58.5"/>
<text text-anchor="middle" x="121" y="-45.5" font-family="Vera" font-size="10.00">param.parameterized.ParameterizedMetaclass</text>
</g>
<!-- param.parameterized.String -->
<g id="node3" class="node"><title>param.parameterized.String</title>
<polygon fill="none" stroke="black" stroke-width="0.5" points="471,-96.5 319,-96.5 319,-75.5 471,-75.5 471,-96.5"/>
<text text-anchor="middle" x="395" y="-83.5" font-family="Vera" font-size="10.00">param.parameterized.String</text>
</g>
<!-- param.parameterized.Parameter -->
<g id="node4" class="node"><title>param.parameterized.Parameter</title>
<polygon fill="none" stroke="black" stroke-width="0.5" points="208,-96.5 34,-96.5 34,-75.5 208,-75.5 208,-96.5"/>
<text text-anchor="middle" x="121" y="-83.5" font-family="Vera" font-size="10.00">param.parameterized.Parameter</text>
</g>
<!-- param.parameterized.Parameter&#45;&gt;param.parameterized.String -->
<g id="edge2" class="edge"><title>param.parameterized.Parameter&#45;&gt;param.parameterized.String</title>
<path fill="none" stroke="black" stroke-width="0.5" d="M208.826,-86C242.257,-86 280.192,-86 313.057,-86"/>
<polygon fill="black" stroke="black" points="313.286,-87.7501 318.286,-86 313.286,-84.2501 313.286,-87.7501"/>
</g>
<!-- param.parameterized.bothmethod -->
<g id="node6" class="node"><title>param.parameterized.bothmethod</title>
<polygon fill="none" stroke="black" stroke-width="0.5" points="213,-134.5 29,-134.5 29,-113.5 213,-113.5 213,-134.5"/>
<text text-anchor="middle" x="121" y="-121.5" font-family="Vera" font-size="10.00">param.parameterized.bothmethod</text>
</g>
<!-- param.parameterized.Parameterized -->
<g id="node7" class="node"><title>param.parameterized.Parameterized</title>
<polygon fill="none" stroke="black" stroke-width="0.5" points="218,-172.5 24,-172.5 24,-151.5 218,-151.5 218,-172.5"/>
<text text-anchor="middle" x="121" y="-159.5" font-family="Vera" font-size="10.00">param.parameterized.Parameterized</text>
</g>
<!-- param.parameterized.ParameterizedFunction -->
<g id="node10" class="node"><title>param.parameterized.ParameterizedFunction</title>
<polygon fill="none" stroke="black" stroke-width="0.5" points="512,-172.5 278,-172.5 278,-151.5 512,-151.5 512,-172.5"/>
<text text-anchor="middle" x="395" y="-159.5" font-family="Vera" font-size="10.00">param.parameterized.ParameterizedFunction</text>
</g>
<!-- param.parameterized.Parameterized&#45;&gt;param.parameterized.ParameterizedFunction -->
<g id="edge4" class="edge"><title>param.parameterized.Parameterized&#45;&gt;param.parameterized.ParameterizedFunction</title>
<path fill="none" stroke="black" stroke-width="0.5" d="M218.374,-162C235.949,-162 254.476,-162 272.655,-162"/>
<polygon fill="black" stroke="black" points="272.772,-163.75 277.772,-162 272.772,-160.25 272.772,-163.75"/>
</g>
<!-- param.parameterized.ParameterMetaclass -->
<g id="node8" class="node"><title>param.parameterized.ParameterMetaclass</title>
<polygon fill="none" stroke="black" stroke-width="0.5" points="232,-210.5 10,-210.5 10,-189.5 232,-189.5 232,-210.5"/>
<text text-anchor="middle" x="121" y="-197.5" font-family="Vera" font-size="10.00">param.parameterized.ParameterMetaclass</text>
</g>
<!-- param.parameterized.overridable_property -->
<g id="node9" class="node"><title>param.parameterized.overridable_property</title>
<polygon fill="none" stroke="black" stroke-width="0.5" points="233,-248.5 9,-248.5 9,-227.5 233,-227.5 233,-248.5"/>
<text text-anchor="middle" x="121" y="-235.5" font-family="Vera" font-size="10.00">param.parameterized.overridable_property</text>
</g>
</g>
</svg>
