<?xml version="1.0" encoding="UTF-8" standalone="no"?>
<!DOCTYPE svg PUBLIC "-//W3C//DTD SVG 1.1//EN"
 "http://www.w3.org/Graphics/SVG/1.1/DTD/svg11.dtd">
<!-- Generated by graphviz version 2.26.3 (20100126.1600)
 -->
<!-- Title: inheritancea9586fb404 Pages: 1 -->
<svg width="634pt" height="256pt"
 viewBox="0.00 0.00 634.00 256.00" xmlns="http://www.w3.org/2000/svg" xmlns:xlink="http://www.w3.org/1999/xlink">
<g id="graph1" class="graph" transform="scale(1 1) rotate(0) translate(4 252)">
<title>inheritancea9586fb404</title>
<polygon fill="white" stroke="white" points="-4,5 -4,-252 631,-252 631,5 -4,5"/>
<!-- imagen.transferfn.BinaryThreshold -->
<g id="node1" class="node"><title>imagen.transferfn.BinaryThreshold</title>
<polygon fill="none" stroke="black" stroke-width="0.5" points="614,-248.5 432,-248.5 432,-227.5 614,-227.5 614,-248.5"/>
<text text-anchor="middle" x="523" y="-235.5" font-family="Vera" font-size="10.00">imagen.transferfn.BinaryThreshold</text>
</g>
<!-- imagen.transferfn.TransferFn -->
<g id="node2" class="node"><title>imagen.transferfn.TransferFn</title>
<polygon fill="none" stroke="black" stroke-width="0.5" points="384,-134.5 230,-134.5 230,-113.5 384,-113.5 384,-134.5"/>
<text text-anchor="middle" x="307" y="-121.5" font-family="Vera" font-size="10.00">imagen.transferfn.TransferFn</text>
</g>
<!-- imagen.transferfn.TransferFn&#45;&gt;imagen.transferfn.BinaryThreshold -->
<g id="edge2" class="edge"><title>imagen.transferfn.TransferFn&#45;&gt;imagen.transferfn.BinaryThreshold</title>
<path fill="none" stroke="black" stroke-width="0.5" d="M315.76,-134.285C333.324,-154.169 375.03,-197.788 420,-219 426.16,-221.905 432.721,-224.367 439.436,-226.453"/>
<polygon fill="black" stroke="black" points="439.305,-228.239 444.596,-227.976 440.296,-224.883 439.305,-228.239"/>
</g>
<!-- imagen.transferfn.IdentityTF -->
<g id="node6" class="node"><title>imagen.transferfn.IdentityTF</title>
<polygon fill="none" stroke="black" stroke-width="0.5" points="598,-210.5 448,-210.5 448,-189.5 598,-189.5 598,-210.5"/>
<text text-anchor="middle" x="523" y="-197.5" font-family="Vera" font-size="10.00">imagen.transferfn.IdentityTF</text>
</g>
<!-- imagen.transferfn.TransferFn&#45;&gt;imagen.transferfn.IdentityTF -->
<g id="edge6" class="edge"><title>imagen.transferfn.TransferFn&#45;&gt;imagen.transferfn.IdentityTF</title>
<path fill="none" stroke="black" stroke-width="0.5" d="M323.202,-134.043C344.585,-146.851 383.767,-168.799 420,-181 429.025,-184.039 438.668,-186.63 448.299,-188.828"/>
<polygon fill="black" stroke="black" points="448.07,-190.57 453.33,-189.943 448.827,-187.153 448.07,-190.57"/>
</g>
<!-- imagen.transferfn.DivisiveNormalizeLinf -->
<g id="node8" class="node"><title>imagen.transferfn.DivisiveNormalizeLinf</title>
<polygon fill="none" stroke="black" stroke-width="0.5" points="626,-172.5 420,-172.5 420,-151.5 626,-151.5 626,-172.5"/>
<text text-anchor="middle" x="523" y="-159.5" font-family="Vera" font-size="10.00">imagen.transferfn.DivisiveNormalizeLinf</text>
</g>
<!-- imagen.transferfn.TransferFn&#45;&gt;imagen.transferfn.DivisiveNormalizeLinf -->
<g id="edge8" class="edge"><title>imagen.transferfn.TransferFn&#45;&gt;imagen.transferfn.DivisiveNormalizeLinf</title>
<path fill="none" stroke="black" stroke-width="0.5" d="M364.034,-134.034C393.809,-139.272 430.289,-145.69 460.79,-151.056"/>
<polygon fill="black" stroke="black" points="460.794,-152.833 466.021,-151.976 461.4,-149.386 460.794,-152.833"/>
</g>
<!-- imagen.transferfn.DivisiveNormalizeLp -->
<g id="node10" class="node"><title>imagen.transferfn.DivisiveNormalizeLp</title>
<polygon fill="none" stroke="black" stroke-width="0.5" points="623,-134.5 423,-134.5 423,-113.5 623,-113.5 623,-134.5"/>
<text text-anchor="middle" x="523" y="-121.5" font-family="Vera" font-size="10.00">imagen.transferfn.DivisiveNormalizeLp</text>
</g>
<!-- imagen.transferfn.TransferFn&#45;&gt;imagen.transferfn.DivisiveNormalizeLp -->
<g id="edge10" class="edge"><title>imagen.transferfn.TransferFn&#45;&gt;imagen.transferfn.DivisiveNormalizeLp</title>
<path fill="none" stroke="black" stroke-width="0.5" d="M384.066,-124C394.783,-124 405.943,-124 417.074,-124"/>
<polygon fill="black" stroke="black" points="417.185,-125.75 422.185,-124 417.185,-122.25 417.185,-125.75"/>
</g>
<!-- imagen.transferfn.DivisiveNormalizeL1 -->
<g id="node12" class="node"><title>imagen.transferfn.DivisiveNormalizeL1</title>
<polygon fill="none" stroke="black" stroke-width="0.5" points="623,-96.5 423,-96.5 423,-75.5 623,-75.5 623,-96.5"/>
<text text-anchor="middle" x="523" y="-83.5" font-family="Vera" font-size="10.00">imagen.transferfn.DivisiveNormalizeL1</text>
</g>
<!-- imagen.transferfn.TransferFn&#45;&gt;imagen.transferfn.DivisiveNormalizeL1 -->
<g id="edge12" class="edge"><title>imagen.transferfn.TransferFn&#45;&gt;imagen.transferfn.DivisiveNormalizeL1</title>
<path fill="none" stroke="black" stroke-width="0.5" d="M364.034,-113.966C393.809,-108.728 430.289,-102.31 460.79,-96.9443"/>
<polygon fill="black" stroke="black" points="461.4,-98.614 466.021,-96.024 460.794,-95.1669 461.4,-98.614"/>
</g>
<!-- imagen.transferfn.Threshold -->
<g id="node14" class="node"><title>imagen.transferfn.Threshold</title>
<polygon fill="none" stroke="black" stroke-width="0.5" points="599,-58.5 447,-58.5 447,-37.5 599,-37.5 599,-58.5"/>
<text text-anchor="middle" x="523" y="-45.5" font-family="Vera" font-size="10.00">imagen.transferfn.Threshold</text>
</g>
<!-- imagen.transferfn.TransferFn&#45;&gt;imagen.transferfn.Threshold -->
<g id="edge14" class="edge"><title>imagen.transferfn.TransferFn&#45;&gt;imagen.transferfn.Threshold</title>
<path fill="none" stroke="black" stroke-width="0.5" d="M323.202,-113.957C344.585,-101.149 383.767,-79.2006 420,-67 429.025,-63.9611 438.668,-61.3703 448.299,-59.1716"/>
<polygon fill="black" stroke="black" points="448.827,-60.8471 453.33,-58.0573 448.07,-57.4299 448.827,-60.8471"/>
</g>
<!-- imagen.transferfn.DivisiveNormalizeL2 -->
<g id="node16" class="node"><title>imagen.transferfn.DivisiveNormalizeL2</title>
<polygon fill="none" stroke="black" stroke-width="0.5" points="623,-20.5 423,-20.5 423,0.5 623,0.5 623,-20.5"/>
<text text-anchor="middle" x="523" y="-7.5" font-family="Vera" font-size="10.00">imagen.transferfn.DivisiveNormalizeL2</text>
</g>
<!-- imagen.transferfn.TransferFn&#45;&gt;imagen.transferfn.DivisiveNormalizeL2 -->
<g id="edge16" class="edge"><title>imagen.transferfn.TransferFn&#45;&gt;imagen.transferfn.DivisiveNormalizeL2</title>
<path fill="none" stroke="black" stroke-width="0.5" d="M315.76,-113.715C333.324,-93.8312 375.03,-50.212 420,-29 426.16,-26.0946 432.721,-23.6327 439.436,-21.5466"/>
<polygon fill="black" stroke="black" points="440.296,-23.1174 444.596,-20.0235 439.305,-19.7606 440.296,-23.1174"/>
</g>
<!-- param.parameterized.Parameterized -->
<g id="node4" class="node"><title>param.parameterized.Parameterized</title>
<polygon fill="none" stroke="black" stroke-width="0.5" points="194,-134.5 5.68434e-14,-134.5 0,-113.5 194,-113.5 194,-134.5"/>
<text text-anchor="middle" x="97" y="-121.5" font-family="Vera" font-size="10.00">param.parameterized.Parameterized</text>
</g>
<!-- param.parameterized.Parameterized&#45;&gt;imagen.transferfn.TransferFn -->
<g id="edge4" class="edge"><title>param.parameterized.Parameterized&#45;&gt;imagen.transferfn.TransferFn</title>
<path fill="none" stroke="black" stroke-width="0.5" d="M194.009,-124C204.259,-124 214.611,-124 224.671,-124"/>
<polygon fill="black" stroke="black" points="224.903,-125.75 229.903,-124 224.903,-122.25 224.903,-125.75"/>
</g>
</g>
</svg>
