<?xml version="1.0" encoding="UTF-8" standalone="no"?>
<!DOCTYPE svg PUBLIC "-//W3C//DTD SVG 1.1//EN"
 "http://www.w3.org/Graphics/SVG/1.1/DTD/svg11.dtd">
<!-- Generated by graphviz version 2.26.3 (20100126.1600)
 -->
<!-- Title: inheritancefc7b96e2bc Pages: 1 -->
<svg width="1636pt" height="66pt"
 viewBox="0.00 0.00 1636.00 66.00" xmlns="http://www.w3.org/2000/svg" xmlns:xlink="http://www.w3.org/1999/xlink">
<g id="graph1" class="graph" transform="scale(1 1) rotate(0) translate(4 62)">
<title>inheritancefc7b96e2bc</title>
<polygon fill="white" stroke="white" points="-4,5 -4,-62 1633,-62 1633,5 -4,5"/>
<!-- topo.sheet.slissom.SLISSOM -->
<g id="node1" class="node"><title>topo.sheet.slissom.SLISSOM</title>
<polygon fill="none" stroke="black" stroke-width="0.5" points="1628,-39.5 1474,-39.5 1474,-18.5 1628,-18.5 1628,-39.5"/>
<text text-anchor="middle" x="1551" y="-26.5" font-family="Vera" font-size="10.00">topo.sheet.slissom.SLISSOM</text>
</g>
<!-- topo.sheet.SettlingCFSheet -->
<g id="node2" class="node"><title>topo.sheet.SettlingCFSheet</title>
<polygon fill="none" stroke="black" stroke-width="0.5" points="1437,-39.5 1289,-39.5 1289,-18.5 1437,-18.5 1437,-39.5"/>
<text text-anchor="middle" x="1363" y="-26.5" font-family="Vera" font-size="10.00">topo.sheet.SettlingCFSheet</text>
</g>
<!-- topo.sheet.SettlingCFSheet&#45;&gt;topo.sheet.slissom.SLISSOM -->
<g id="edge2" class="edge"><title>topo.sheet.SettlingCFSheet&#45;&gt;topo.sheet.slissom.SLISSOM</title>
<path fill="none" stroke="black" stroke-width="0.5" d="M1437.57,-29C1447.79,-29 1458.33,-29 1468.68,-29"/>
<polygon fill="black" stroke="black" points="1468.74,-30.7501 1473.74,-29 1468.74,-27.2501 1468.74,-30.7501"/>
</g>
<!-- param.parameterized.Parameterized -->
<g id="node4" class="node"><title>param.parameterized.Parameterized</title>
<polygon fill="none" stroke="black" stroke-width="0.5" points="194,-20.5 5.68434e-14,-20.5 0,0.5 194,0.5 194,-20.5"/>
<text text-anchor="middle" x="97" y="-7.5" font-family="Vera" font-size="10.00">param.parameterized.Parameterized</text>
</g>
<!-- topo.base.simulation.EventProcessor -->
<g id="node11" class="node"><title>topo.base.simulation.EventProcessor</title>
<polygon fill="none" stroke="black" stroke-width="0.5" points="451,-20.5 257,-20.5 257,0.5 451,0.5 451,-20.5"/>
<text text-anchor="middle" x="354" y="-7.5" font-family="Vera" font-size="10.00">topo.base.simulation.EventProcessor</text>
</g>
<!-- param.parameterized.Parameterized&#45;&gt;topo.base.simulation.EventProcessor -->
<g id="edge8" class="edge"><title>param.parameterized.Parameterized&#45;&gt;topo.base.simulation.EventProcessor</title>
<path fill="none" stroke="black" stroke-width="0.5" d="M194.161,-10C212.87,-10 232.524,-10 251.4,-10"/>
<polygon fill="black" stroke="black" points="251.702,-11.7501 256.702,-10 251.702,-8.25009 251.702,-11.7501"/>
</g>
<!-- topo.sheet.JointNormalizingCFSheet -->
<g id="node5" class="node"><title>topo.sheet.JointNormalizingCFSheet</title>
<polygon fill="none" stroke="black" stroke-width="0.5" points="1251,-39.5 1063,-39.5 1063,-18.5 1251,-18.5 1251,-39.5"/>
<text text-anchor="middle" x="1157" y="-26.5" font-family="Vera" font-size="10.00">topo.sheet.JointNormalizingCFSheet</text>
</g>
<!-- topo.sheet.JointNormalizingCFSheet&#45;&gt;topo.sheet.SettlingCFSheet -->
<g id="edge4" class="edge"><title>topo.sheet.JointNormalizingCFSheet&#45;&gt;topo.sheet.SettlingCFSheet</title>
<path fill="none" stroke="black" stroke-width="0.5" d="M1251.56,-29C1262.19,-29 1272.95,-29 1283.37,-29"/>
<polygon fill="black" stroke="black" points="1283.45,-30.7501 1288.45,-29 1283.45,-27.2501 1283.45,-30.7501"/>
</g>
<!-- topo.base.projection.ProjectionSheet -->
<g id="node7" class="node"><title>topo.base.projection.ProjectionSheet</title>
<polygon fill="none" stroke="black" stroke-width="0.5" points="870,-39.5 676,-39.5 676,-18.5 870,-18.5 870,-39.5"/>
<text text-anchor="middle" x="773" y="-26.5" font-family="Vera" font-size="10.00">topo.base.projection.ProjectionSheet</text>
</g>
<!-- topo.base.cf.CFSheet -->
<g id="node15" class="node"><title>topo.base.cf.CFSheet</title>
<polygon fill="none" stroke="black" stroke-width="0.5" points="1025,-39.5 907,-39.5 907,-18.5 1025,-18.5 1025,-39.5"/>
<text text-anchor="middle" x="966" y="-26.5" font-family="Vera" font-size="10.00">topo.base.cf.CFSheet</text>
</g>
<!-- topo.base.projection.ProjectionSheet&#45;&gt;topo.base.cf.CFSheet -->
<g id="edge14" class="edge"><title>topo.base.projection.ProjectionSheet&#45;&gt;topo.base.cf.CFSheet</title>
<path fill="none" stroke="black" stroke-width="0.5" d="M870.065,-29C880.617,-29 891.159,-29 901.188,-29"/>
<polygon fill="black" stroke="black" points="901.383,-30.7501 906.383,-29 901.383,-27.2501 901.383,-30.7501"/>
</g>
<!-- topo.base.sheet.Sheet -->
<g id="node8" class="node"><title>topo.base.sheet.Sheet</title>
<polygon fill="none" stroke="black" stroke-width="0.5" points="640,-39.5 514,-39.5 514,-18.5 640,-18.5 640,-39.5"/>
<text text-anchor="middle" x="577" y="-26.5" font-family="Vera" font-size="10.00">topo.base.sheet.Sheet</text>
</g>
<!-- topo.base.sheet.Sheet&#45;&gt;topo.base.projection.ProjectionSheet -->
<g id="edge6" class="edge"><title>topo.base.sheet.Sheet&#45;&gt;topo.base.projection.ProjectionSheet</title>
<path fill="none" stroke="black" stroke-width="0.5" d="M640.095,-29C649.904,-29 660.25,-29 670.662,-29"/>
<polygon fill="black" stroke="black" points="670.776,-30.7501 675.776,-29 670.776,-27.2501 670.776,-30.7501"/>
</g>
<!-- dataviews.sheetcoords.SheetCoordinateSystem -->
<g id="node10" class="node"><title>dataviews.sheetcoords.SheetCoordinateSystem</title>
<polygon fill="none" stroke="black" stroke-width="0.5" points="477,-58.5 231,-58.5 231,-37.5 477,-37.5 477,-58.5"/>
<text text-anchor="middle" x="354" y="-45.5" font-family="Vera" font-size="10.00">dataviews.sheetcoords.SheetCoordinateSystem</text>
</g>
<!-- dataviews.sheetcoords.SheetCoordinateSystem&#45;&gt;topo.base.sheet.Sheet -->
<g id="edge12" class="edge"><title>dataviews.sheetcoords.SheetCoordinateSystem&#45;&gt;topo.base.sheet.Sheet</title>
<path fill="none" stroke="black" stroke-width="0.5" d="M471.377,-37.9992C484.139,-36.9119 496.798,-35.8333 508.683,-34.8207"/>
<polygon fill="black" stroke="black" points="508.894,-36.5592 513.727,-34.3909 508.597,-33.0718 508.894,-36.5592"/>
</g>
<!-- topo.base.simulation.EventProcessor&#45;&gt;topo.base.sheet.Sheet -->
<g id="edge10" class="edge"><title>topo.base.simulation.EventProcessor&#45;&gt;topo.base.sheet.Sheet</title>
<path fill="none" stroke="black" stroke-width="0.5" d="M451.162,-18.2784C470.581,-19.9329 490.589,-21.6376 508.779,-23.1874"/>
<polygon fill="black" stroke="black" points="508.728,-24.9394 513.859,-23.6203 509.025,-21.452 508.728,-24.9394"/>
</g>
<!-- topo.base.cf.CFSheet&#45;&gt;topo.sheet.JointNormalizingCFSheet -->
<g id="edge16" class="edge"><title>topo.base.cf.CFSheet&#45;&gt;topo.sheet.JointNormalizingCFSheet</title>
<path fill="none" stroke="black" stroke-width="0.5" d="M1025.65,-29C1035.71,-29 1046.4,-29 1057.16,-29"/>
<polygon fill="black" stroke="black" points="1057.44,-30.7501 1062.44,-29 1057.44,-27.2501 1057.44,-30.7501"/>
</g>
</g>
</svg>
