<?xml version="1.0" encoding="UTF-8" standalone="no"?>
<!DOCTYPE svg PUBLIC "-//W3C//DTD SVG 1.1//EN"
 "http://www.w3.org/Graphics/SVG/1.1/DTD/svg11.dtd">
<!-- Generated by graphviz version 2.26.3 (20100126.1600)
 -->
<!-- Title: inheritance5c943e4cbf Pages: 1 -->
<svg width="1362pt" height="142pt"
 viewBox="0.00 0.00 1362.00 142.00" xmlns="http://www.w3.org/2000/svg" xmlns:xlink="http://www.w3.org/1999/xlink">
<g id="graph1" class="graph" transform="scale(1 1) rotate(0) translate(4 138)">
<title>inheritance5c943e4cbf</title>
<polygon fill="white" stroke="white" points="-4,5 -4,-138 1359,-138 1359,5 -4,5"/>
<!-- dataviews.sheetviews.SheetLayer -->
<g id="node1" class="node"><title>dataviews.sheetviews.SheetLayer</title>
<polygon fill="none" stroke="black" stroke-width="0.5" points="702,-96.5 526,-96.5 526,-75.5 702,-75.5 702,-96.5"/>
<text text-anchor="middle" x="614" y="-83.5" font-family="Vera" font-size="10.00">dataviews.sheetviews.SheetLayer</text>
</g>
<!-- dataviews.sheetviews.SheetView -->
<g id="node8" class="node"><title>dataviews.sheetviews.SheetView</title>
<polygon fill="none" stroke="black" stroke-width="0.5" points="947,-115.5 775,-115.5 775,-94.5 947,-94.5 947,-115.5"/>
<text text-anchor="middle" x="861" y="-102.5" font-family="Vera" font-size="10.00">dataviews.sheetviews.SheetView</text>
</g>
<!-- dataviews.sheetviews.SheetLayer&#45;&gt;dataviews.sheetviews.SheetView -->
<g id="edge6" class="edge"><title>dataviews.sheetviews.SheetLayer&#45;&gt;dataviews.sheetviews.SheetView</title>
<path fill="none" stroke="black" stroke-width="0.5" d="M702.824,-92.8326C724.335,-94.4873 747.373,-96.2594 769.025,-97.925"/>
<polygon fill="black" stroke="black" points="769.085,-99.6847 774.205,-98.3234 769.354,-96.195 769.085,-99.6847"/>
</g>
<!-- dataviews.views.View -->
<g id="node2" class="node"><title>dataviews.views.View</title>
<polygon fill="none" stroke="black" stroke-width="0.5" points="400,-96.5 284,-96.5 284,-75.5 400,-75.5 400,-96.5"/>
<text text-anchor="middle" x="342" y="-83.5" font-family="Vera" font-size="10.00">dataviews.views.View</text>
</g>
<!-- dataviews.views.View&#45;&gt;dataviews.sheetviews.SheetLayer -->
<g id="edge2" class="edge"><title>dataviews.views.View&#45;&gt;dataviews.sheetviews.SheetLayer</title>
<path fill="none" stroke="black" stroke-width="0.5" d="M400.685,-86C435.51,-86 480.462,-86 520.115,-86"/>
<polygon fill="black" stroke="black" points="520.423,-87.7501 525.423,-86 520.423,-84.2501 520.423,-87.7501"/>
</g>
<!-- topo.base.sheetview.CFStack -->
<g id="node4" class="node"><title>topo.base.sheetview.CFStack</title>
<polygon fill="none" stroke="black" stroke-width="0.5" points="1354,-20.5 1198,-20.5 1198,0.5 1354,0.5 1354,-20.5"/>
<text text-anchor="middle" x="1276" y="-7.5" font-family="Vera" font-size="10.00">topo.base.sheetview.CFStack</text>
</g>
<!-- dataviews.sheetviews.SheetStack -->
<g id="node5" class="node"><title>dataviews.sheetviews.SheetStack</title>
<polygon fill="none" stroke="black" stroke-width="0.5" points="1162,-20.5 984,-20.5 984,0.5 1162,0.5 1162,-20.5"/>
<text text-anchor="middle" x="1073" y="-7.5" font-family="Vera" font-size="10.00">dataviews.sheetviews.SheetStack</text>
</g>
<!-- dataviews.sheetviews.SheetStack&#45;&gt;topo.base.sheetview.CFStack -->
<g id="edge4" class="edge"><title>dataviews.sheetviews.SheetStack&#45;&gt;topo.base.sheetview.CFStack</title>
<path fill="none" stroke="black" stroke-width="0.5" d="M1162.04,-10C1172.2,-10 1182.53,-10 1192.61,-10"/>
<polygon fill="black" stroke="black" points="1192.86,-11.7501 1197.86,-10 1192.86,-8.2501 1192.86,-11.7501"/>
</g>
<!-- param.parameterized.Parameterized -->
<g id="node7" class="node"><title>param.parameterized.Parameterized</title>
<polygon fill="none" stroke="black" stroke-width="0.5" points="194,-58.5 5.68434e-14,-58.5 0,-37.5 194,-37.5 194,-58.5"/>
<text text-anchor="middle" x="97" y="-45.5" font-family="Vera" font-size="10.00">param.parameterized.Parameterized</text>
</g>
<!-- param.parameterized.Parameterized&#45;&gt;dataviews.views.View -->
<g id="edge20" class="edge"><title>param.parameterized.Parameterized&#45;&gt;dataviews.views.View</title>
<path fill="none" stroke="black" stroke-width="0.5" d="M161.691,-58.0338C197.635,-63.6086 242.193,-70.5197 278.021,-76.0768"/>
<polygon fill="black" stroke="black" points="278.033,-77.8494 283.242,-76.8865 278.569,-74.3908 278.033,-77.8494"/>
</g>
<!-- topo.base.sheetview.SheetView -->
<g id="node15" class="node"><title>topo.base.sheetview.SheetView</title>
<polygon fill="none" stroke="black" stroke-width="0.5" points="425,-58.5 259,-58.5 259,-37.5 425,-37.5 425,-58.5"/>
<text text-anchor="middle" x="342" y="-45.5" font-family="Vera" font-size="10.00">topo.base.sheetview.SheetView</text>
</g>
<!-- param.parameterized.Parameterized&#45;&gt;topo.base.sheetview.SheetView -->
<g id="edge12" class="edge"><title>param.parameterized.Parameterized&#45;&gt;topo.base.sheetview.SheetView</title>
<path fill="none" stroke="black" stroke-width="0.5" d="M194.182,-48C213.599,-48 233.903,-48 253.026,-48"/>
<polygon fill="black" stroke="black" points="253.387,-49.7501 258.387,-48 253.387,-46.2501 253.387,-49.7501"/>
</g>
<!-- dataviews.ndmapping.NdIndexableMapping -->
<g id="node19" class="node"><title>dataviews.ndmapping.NdIndexableMapping</title>
<polygon fill="none" stroke="black" stroke-width="0.5" points="454,-20.5 230,-20.5 230,0.5 454,0.5 454,-20.5"/>
<text text-anchor="middle" x="342" y="-7.5" font-family="Vera" font-size="10.00">dataviews.ndmapping.NdIndexableMapping</text>
</g>
<!-- param.parameterized.Parameterized&#45;&gt;dataviews.ndmapping.NdIndexableMapping -->
<g id="edge16" class="edge"><title>param.parameterized.Parameterized&#45;&gt;dataviews.ndmapping.NdIndexableMapping</title>
<path fill="none" stroke="black" stroke-width="0.5" d="M161.691,-37.9662C195.743,-32.6848 237.527,-26.204 272.294,-20.8115"/>
<polygon fill="black" stroke="black" points="272.699,-22.5198 277.371,-20.024 272.162,-19.0612 272.699,-22.5198"/>
</g>
<!-- topo.base.sheetview.CFView -->
<g id="node17" class="node"><title>topo.base.sheetview.CFView</title>
<polygon fill="none" stroke="black" stroke-width="0.5" points="1148,-115.5 998,-115.5 998,-94.5 1148,-94.5 1148,-115.5"/>
<text text-anchor="middle" x="1073" y="-102.5" font-family="Vera" font-size="10.00">topo.base.sheetview.CFView</text>
</g>
<!-- dataviews.sheetviews.SheetView&#45;&gt;topo.base.sheetview.CFView -->
<g id="edge14" class="edge"><title>dataviews.sheetviews.SheetView&#45;&gt;topo.base.sheetview.CFView</title>
<path fill="none" stroke="black" stroke-width="0.5" d="M947.534,-105C962.218,-105 977.418,-105 991.954,-105"/>
<polygon fill="black" stroke="black" points="992.277,-106.75 997.277,-105 992.277,-103.25 992.277,-106.75"/>
</g>
<!-- dataviews.sheetcoords.SheetCoordinateSystem -->
<g id="node10" class="node"><title>dataviews.sheetcoords.SheetCoordinateSystem</title>
<polygon fill="none" stroke="black" stroke-width="0.5" points="737,-134.5 491,-134.5 491,-113.5 737,-113.5 737,-134.5"/>
<text text-anchor="middle" x="614" y="-121.5" font-family="Vera" font-size="10.00">dataviews.sheetcoords.SheetCoordinateSystem</text>
</g>
<!-- dataviews.sheetcoords.SheetCoordinateSystem&#45;&gt;dataviews.sheetviews.SheetView -->
<g id="edge8" class="edge"><title>dataviews.sheetcoords.SheetCoordinateSystem&#45;&gt;dataviews.sheetviews.SheetView</title>
<path fill="none" stroke="black" stroke-width="0.5" d="M737.5,-114.5C748.175,-113.679 758.851,-112.858 769.207,-112.061"/>
<polygon fill="black" stroke="black" points="769.413,-113.8 774.264,-111.672 769.145,-110.311 769.413,-113.8"/>
</g>
<!-- dataviews.dataviews.Stack -->
<g id="node12" class="node"><title>dataviews.dataviews.Stack</title>
<polygon fill="none" stroke="black" stroke-width="0.5" points="933,-20.5 789,-20.5 789,0.5 933,0.5 933,-20.5"/>
<text text-anchor="middle" x="861" y="-7.5" font-family="Vera" font-size="10.00">dataviews.dataviews.Stack</text>
</g>
<!-- dataviews.dataviews.Stack&#45;&gt;dataviews.sheetviews.SheetStack -->
<g id="edge18" class="edge"><title>dataviews.dataviews.Stack&#45;&gt;dataviews.sheetviews.SheetStack</title>
<path fill="none" stroke="black" stroke-width="0.5" d="M933.069,-10C947.736,-10 963.372,-10 978.679,-10"/>
<polygon fill="black" stroke="black" points="978.856,-11.7501 983.856,-10 978.856,-8.2501 978.856,-11.7501"/>
</g>
<!-- dataviews.ndmapping.NdMapping -->
<g id="node13" class="node"><title>dataviews.ndmapping.NdMapping</title>
<polygon fill="none" stroke="black" stroke-width="0.5" points="703,-20.5 525,-20.5 525,0.5 703,0.5 703,-20.5"/>
<text text-anchor="middle" x="614" y="-7.5" font-family="Vera" font-size="10.00">dataviews.ndmapping.NdMapping</text>
</g>
<!-- dataviews.ndmapping.NdMapping&#45;&gt;dataviews.dataviews.Stack -->
<g id="edge10" class="edge"><title>dataviews.ndmapping.NdMapping&#45;&gt;dataviews.dataviews.Stack</title>
<path fill="none" stroke="black" stroke-width="0.5" d="M703.173,-10C729.6,-10 758.306,-10 783.901,-10"/>
<polygon fill="black" stroke="black" points="783.977,-11.7501 788.976,-10 783.976,-8.2501 783.977,-11.7501"/>
</g>
<!-- dataviews.ndmapping.NdIndexableMapping&#45;&gt;dataviews.ndmapping.NdMapping -->
<g id="edge22" class="edge"><title>dataviews.ndmapping.NdIndexableMapping&#45;&gt;dataviews.ndmapping.NdMapping</title>
<path fill="none" stroke="black" stroke-width="0.5" d="M454.203,-10C476.015,-10 498.67,-10 519.828,-10"/>
<polygon fill="black" stroke="black" points="519.887,-11.7501 524.887,-10 519.887,-8.2501 519.887,-11.7501"/>
</g>
</g>
</svg>
