<?xml version="1.0" encoding="UTF-8" standalone="no"?>
<!DOCTYPE svg PUBLIC "-//W3C//DTD SVG 1.1//EN"
 "http://www.w3.org/Graphics/SVG/1.1/DTD/svg11.dtd">
<!-- Generated by graphviz version 2.26.3 (20100126.1600)
 -->
<!-- Title: inheritance380e6ccf80 Pages: 1 -->
<svg width="802pt" height="199pt"
 viewBox="0.00 0.00 802.00 199.00" xmlns="http://www.w3.org/2000/svg" xmlns:xlink="http://www.w3.org/1999/xlink">
<g id="graph1" class="graph" transform="scale(1 1) rotate(0) translate(4 195)">
<title>inheritance380e6ccf80</title>
<polygon fill="white" stroke="white" points="-4,5 -4,-195 799,-195 799,5 -4,5"/>
<!-- imagen.boundingregion.Cartesian2DPoint -->
<g id="node1" class="node"><title>imagen.boundingregion.Cartesian2DPoint</title>
<polygon fill="none" stroke="black" stroke-width="0.5" points="484,-58.5 268,-58.5 268,-37.5 484,-37.5 484,-58.5"/>
<text text-anchor="middle" x="376" y="-45.5" font-family="Vera" font-size="10.00">imagen.boundingregion.Cartesian2DPoint</text>
</g>
<!-- param.parameterized.Parameter -->
<g id="node2" class="node"><title>param.parameterized.Parameter</title>
<polygon fill="none" stroke="black" stroke-width="0.5" points="192,-39.5 18,-39.5 18,-18.5 192,-18.5 192,-39.5"/>
<text text-anchor="middle" x="105" y="-26.5" font-family="Vera" font-size="10.00">param.parameterized.Parameter</text>
</g>
<!-- param.parameterized.Parameter&#45;&gt;imagen.boundingregion.Cartesian2DPoint -->
<g id="edge2" class="edge"><title>param.parameterized.Parameter&#45;&gt;imagen.boundingregion.Cartesian2DPoint</title>
<path fill="none" stroke="black" stroke-width="0.5" d="M192.612,-35.1425C214.989,-36.7114 239.367,-38.4206 262.826,-40.0653"/>
<polygon fill="black" stroke="black" points="262.707,-41.8112 267.817,-40.4152 262.952,-38.3197 262.707,-41.8112"/>
</g>
<!-- imagen.boundingregion.BoundingRegionParameter -->
<g id="node12" class="node"><title>imagen.boundingregion.BoundingRegionParameter</title>
<polygon fill="none" stroke="black" stroke-width="0.5" points="506,-20.5 246,-20.5 246,0.5 506,0.5 506,-20.5"/>
<text text-anchor="middle" x="376" y="-7.5" font-family="Vera" font-size="10.00">imagen.boundingregion.BoundingRegionParameter</text>
</g>
<!-- param.parameterized.Parameter&#45;&gt;imagen.boundingregion.BoundingRegionParameter -->
<g id="edge10" class="edge"><title>param.parameterized.Parameter&#45;&gt;imagen.boundingregion.BoundingRegionParameter</title>
<path fill="none" stroke="black" stroke-width="0.5" d="M192.612,-22.8575C208.028,-21.7767 224.392,-20.6293 240.752,-19.4823"/>
<polygon fill="black" stroke="black" points="240.963,-21.2219 245.828,-19.1264 240.718,-17.7305 240.963,-21.2219"/>
</g>
<!-- imagen.boundingregion.BoundingBox -->
<g id="node4" class="node"><title>imagen.boundingregion.BoundingBox</title>
<polygon fill="none" stroke="black" stroke-width="0.5" points="474,-172.5 278,-172.5 278,-151.5 474,-151.5 474,-172.5"/>
<text text-anchor="middle" x="376" y="-159.5" font-family="Vera" font-size="10.00">imagen.boundingregion.BoundingBox</text>
</g>
<!-- imagen.boundingregion.BoundingEllipse -->
<g id="node10" class="node"><title>imagen.boundingregion.BoundingEllipse</title>
<polygon fill="none" stroke="black" stroke-width="0.5" points="772,-191.5 564,-191.5 564,-170.5 772,-170.5 772,-191.5"/>
<text text-anchor="middle" x="668" y="-178.5" font-family="Vera" font-size="10.00">imagen.boundingregion.BoundingEllipse</text>
</g>
<!-- imagen.boundingregion.BoundingBox&#45;&gt;imagen.boundingregion.BoundingEllipse -->
<g id="edge8" class="edge"><title>imagen.boundingregion.BoundingBox&#45;&gt;imagen.boundingregion.BoundingEllipse</title>
<path fill="none" stroke="black" stroke-width="0.5" d="M474.044,-168.38C501.262,-170.151 530.98,-172.084 558.793,-173.894"/>
<polygon fill="black" stroke="black" points="558.86,-175.652 563.964,-174.231 559.088,-172.159 558.86,-175.652"/>
</g>
<!-- imagen.boundingregion.BoundingBoxIntersection -->
<g id="node16" class="node"><title>imagen.boundingregion.BoundingBoxIntersection</title>
<polygon fill="none" stroke="black" stroke-width="0.5" points="794,-153.5 542,-153.5 542,-132.5 794,-132.5 794,-153.5"/>
<text text-anchor="middle" x="668" y="-140.5" font-family="Vera" font-size="10.00">imagen.boundingregion.BoundingBoxIntersection</text>
</g>
<!-- imagen.boundingregion.BoundingBox&#45;&gt;imagen.boundingregion.BoundingBoxIntersection -->
<g id="edge14" class="edge"><title>imagen.boundingregion.BoundingBox&#45;&gt;imagen.boundingregion.BoundingBoxIntersection</title>
<path fill="none" stroke="black" stroke-width="0.5" d="M474.044,-155.62C494.214,-154.308 515.758,-152.906 536.882,-151.532"/>
<polygon fill="black" stroke="black" points="537.078,-153.273 541.953,-151.202 536.85,-149.78 537.078,-153.273"/>
</g>
<!-- imagen.boundingregion.BoundingRegion -->
<g id="node5" class="node"><title>imagen.boundingregion.BoundingRegion</title>
<polygon fill="none" stroke="black" stroke-width="0.5" points="209,-134.5 1,-134.5 1,-113.5 209,-113.5 209,-134.5"/>
<text text-anchor="middle" x="105" y="-121.5" font-family="Vera" font-size="10.00">imagen.boundingregion.BoundingRegion</text>
</g>
<!-- imagen.boundingregion.BoundingRegion&#45;&gt;imagen.boundingregion.BoundingBox -->
<g id="edge4" class="edge"><title>imagen.boundingregion.BoundingRegion&#45;&gt;imagen.boundingregion.BoundingBox</title>
<path fill="none" stroke="black" stroke-width="0.5" d="M176.557,-134.034C214.376,-139.337 260.819,-145.849 299.369,-151.255"/>
<polygon fill="black" stroke="black" points="299.318,-153.015 304.513,-151.976 299.804,-149.549 299.318,-153.015"/>
</g>
<!-- imagen.boundingregion.BoundingCircle -->
<g id="node8" class="node"><title>imagen.boundingregion.BoundingCircle</title>
<polygon fill="none" stroke="black" stroke-width="0.5" points="478,-134.5 274,-134.5 274,-113.5 478,-113.5 478,-134.5"/>
<text text-anchor="middle" x="376" y="-121.5" font-family="Vera" font-size="10.00">imagen.boundingregion.BoundingCircle</text>
</g>
<!-- imagen.boundingregion.BoundingRegion&#45;&gt;imagen.boundingregion.BoundingCircle -->
<g id="edge6" class="edge"><title>imagen.boundingregion.BoundingRegion&#45;&gt;imagen.boundingregion.BoundingCircle</title>
<path fill="none" stroke="black" stroke-width="0.5" d="M209.776,-124C228.972,-124 249.037,-124 268.316,-124"/>
<polygon fill="black" stroke="black" points="268.732,-125.75 273.732,-124 268.732,-122.25 268.732,-125.75"/>
</g>
<!-- imagen.boundingregion.Unbounded -->
<g id="node14" class="node"><title>imagen.boundingregion.Unbounded</title>
<polygon fill="none" stroke="black" stroke-width="0.5" points="470,-96.5 282,-96.5 282,-75.5 470,-75.5 470,-96.5"/>
<text text-anchor="middle" x="376" y="-83.5" font-family="Vera" font-size="10.00">imagen.boundingregion.Unbounded</text>
</g>
<!-- imagen.boundingregion.BoundingRegion&#45;&gt;imagen.boundingregion.Unbounded -->
<g id="edge12" class="edge"><title>imagen.boundingregion.BoundingRegion&#45;&gt;imagen.boundingregion.Unbounded</title>
<path fill="none" stroke="black" stroke-width="0.5" d="M176.557,-113.966C214.376,-108.663 260.819,-102.151 299.369,-96.7453"/>
<polygon fill="black" stroke="black" points="299.804,-98.4515 304.513,-96.024 299.318,-94.9854 299.804,-98.4515"/>
</g>
<!-- imagen.boundingregion.AARectangle -->
<g id="node7" class="node"><title>imagen.boundingregion.AARectangle</title>
<polygon fill="none" stroke="black" stroke-width="0.5" points="201,-172.5 9,-172.5 9,-151.5 201,-151.5 201,-172.5"/>
<text text-anchor="middle" x="105" y="-159.5" font-family="Vera" font-size="10.00">imagen.boundingregion.AARectangle</text>
</g>
</g>
</svg>
