<?xml version="1.0" encoding="UTF-8" standalone="no"?>
<!DOCTYPE svg PUBLIC "-//W3C//DTD SVG 1.1//EN"
 "http://www.w3.org/Graphics/SVG/1.1/DTD/svg11.dtd">
<!-- Generated by graphviz version 2.26.3 (20100126.1600)
 -->
<!-- Title: inheritance7784a43624 Pages: 1 -->
<svg width="708pt" height="142pt"
 viewBox="0.00 0.00 708.00 142.00" xmlns="http://www.w3.org/2000/svg" xmlns:xlink="http://www.w3.org/1999/xlink">
<g id="graph1" class="graph" transform="scale(1 1) rotate(0) translate(4 138)">
<title>inheritance7784a43624</title>
<polygon fill="white" stroke="white" points="-4,5 -4,-138 705,-138 705,5 -4,5"/>
<!-- topo.misc.lancext.batch_analysis -->
<g id="node1" class="node"><title>topo.misc.lancext.batch_analysis</title>
<polygon fill="none" stroke="black" stroke-width="0.5" points="687,-134.5 513,-134.5 513,-113.5 687,-113.5 687,-134.5"/>
<text text-anchor="middle" x="600" y="-121.5" font-family="Vera" font-size="10.00">topo.misc.lancext.batch_analysis</text>
</g>
<!-- lancet.launch.review_and_launch -->
<g id="node2" class="node"><title>lancet.launch.review_and_launch</title>
<polygon fill="none" stroke="black" stroke-width="0.5" points="433,-134.5 261,-134.5 261,-113.5 433,-113.5 433,-134.5"/>
<text text-anchor="middle" x="347" y="-121.5" font-family="Vera" font-size="10.00">lancet.launch.review_and_launch</text>
</g>
<!-- lancet.launch.review_and_launch&#45;&gt;topo.misc.lancext.batch_analysis -->
<g id="edge2" class="edge"><title>lancet.launch.review_and_launch&#45;&gt;topo.misc.lancext.batch_analysis</title>
<path fill="none" stroke="black" stroke-width="0.5" d="M433.714,-124C457.352,-124 483.053,-124 507.023,-124"/>
<polygon fill="black" stroke="black" points="507.11,-125.75 512.11,-124 507.11,-122.25 507.11,-125.75"/>
</g>
<!-- lancet.launch.CommandTemplate -->
<g id="node4" class="node"><title>lancet.launch.CommandTemplate</title>
<polygon fill="none" stroke="black" stroke-width="0.5" points="435,-96.5 259,-96.5 259,-75.5 435,-75.5 435,-96.5"/>
<text text-anchor="middle" x="347" y="-83.5" font-family="Vera" font-size="10.00">lancet.launch.CommandTemplate</text>
</g>
<!-- topo.misc.lancext.RunBatchCommand -->
<g id="node10" class="node"><title>topo.misc.lancext.RunBatchCommand</title>
<polygon fill="none" stroke="black" stroke-width="0.5" points="700,-96.5 500,-96.5 500,-75.5 700,-75.5 700,-96.5"/>
<text text-anchor="middle" x="600" y="-83.5" font-family="Vera" font-size="10.00">topo.misc.lancext.RunBatchCommand</text>
</g>
<!-- lancet.launch.CommandTemplate&#45;&gt;topo.misc.lancext.RunBatchCommand -->
<g id="edge8" class="edge"><title>lancet.launch.CommandTemplate&#45;&gt;topo.misc.lancext.RunBatchCommand</title>
<path fill="none" stroke="black" stroke-width="0.5" d="M435.843,-86C454.714,-86 474.815,-86 494.245,-86"/>
<polygon fill="black" stroke="black" points="494.706,-87.7501 499.706,-86 494.706,-84.2501 494.706,-87.7501"/>
</g>
<!-- param.parameterized.Parameterized -->
<g id="node5" class="node"><title>param.parameterized.Parameterized</title>
<polygon fill="none" stroke="black" stroke-width="0.5" points="194,-77.5 5.68434e-14,-77.5 0,-56.5 194,-56.5 194,-77.5"/>
<text text-anchor="middle" x="97" y="-64.5" font-family="Vera" font-size="10.00">param.parameterized.Parameterized</text>
</g>
<!-- param.parameterized.Parameterized&#45;&gt;lancet.launch.review_and_launch -->
<g id="edge12" class="edge"><title>param.parameterized.Parameterized&#45;&gt;lancet.launch.review_and_launch</title>
<path fill="none" stroke="black" stroke-width="0.5" d="M128.175,-77.0297C154.96,-85.3762 194.727,-97.1254 230,-105 243.416,-107.995 257.796,-110.721 271.724,-113.113"/>
<polygon fill="black" stroke="black" points="271.61,-114.869 276.832,-113.98 272.195,-111.418 271.61,-114.869"/>
</g>
<!-- param.parameterized.Parameterized&#45;&gt;lancet.launch.CommandTemplate -->
<g id="edge4" class="edge"><title>param.parameterized.Parameterized&#45;&gt;lancet.launch.CommandTemplate</title>
<path fill="none" stroke="black" stroke-width="0.5" d="M194.014,-74.3731C213.335,-75.8414 233.595,-77.3813 252.819,-78.8422"/>
<polygon fill="black" stroke="black" points="253.094,-80.6181 258.212,-79.2521 253.359,-77.1281 253.094,-80.6181"/>
</g>
<!-- param.parameterized.ParameterizedFunction -->
<g id="node8" class="node"><title>param.parameterized.ParameterizedFunction</title>
<polygon fill="none" stroke="black" stroke-width="0.5" points="464,-58.5 230,-58.5 230,-37.5 464,-37.5 464,-58.5"/>
<text text-anchor="middle" x="347" y="-45.5" font-family="Vera" font-size="10.00">param.parameterized.ParameterizedFunction</text>
</g>
<!-- param.parameterized.Parameterized&#45;&gt;param.parameterized.ParameterizedFunction -->
<g id="edge14" class="edge"><title>param.parameterized.Parameterized&#45;&gt;param.parameterized.ParameterizedFunction</title>
<path fill="none" stroke="black" stroke-width="0.5" d="M194.014,-59.6269C204.04,-58.8649 214.319,-58.0837 224.575,-57.3043"/>
<polygon fill="black" stroke="black" points="224.754,-59.0458 229.607,-56.9219 224.489,-55.5559 224.754,-59.0458"/>
</g>
<!-- topo.misc.lancext.RunBatchAnalysis -->
<g id="node12" class="node"><title>topo.misc.lancext.RunBatchAnalysis</title>
<polygon fill="none" stroke="black" stroke-width="0.5" points="441,-20.5 253,-20.5 253,0.5 441,0.5 441,-20.5"/>
<text text-anchor="middle" x="347" y="-7.5" font-family="Vera" font-size="10.00">topo.misc.lancext.RunBatchAnalysis</text>
</g>
<!-- param.parameterized.Parameterized&#45;&gt;topo.misc.lancext.RunBatchAnalysis -->
<g id="edge10" class="edge"><title>param.parameterized.Parameterized&#45;&gt;topo.misc.lancext.RunBatchAnalysis</title>
<path fill="none" stroke="black" stroke-width="0.5" d="M128.175,-56.9703C154.96,-48.6238 194.727,-36.8746 230,-29 243.416,-26.005 257.796,-23.2794 271.724,-20.8865"/>
<polygon fill="black" stroke="black" points="272.195,-22.5816 276.832,-20.0201 271.61,-19.1309 272.195,-22.5816"/>
</g>
<!-- topo.misc.lancext.param_formatter -->
<g id="node7" class="node"><title>topo.misc.lancext.param_formatter</title>
<polygon fill="none" stroke="black" stroke-width="0.5" points="693,-58.5 507,-58.5 507,-37.5 693,-37.5 693,-58.5"/>
<text text-anchor="middle" x="600" y="-45.5" font-family="Vera" font-size="10.00">topo.misc.lancext.param_formatter</text>
</g>
<!-- param.parameterized.ParameterizedFunction&#45;&gt;topo.misc.lancext.param_formatter -->
<g id="edge6" class="edge"><title>param.parameterized.ParameterizedFunction&#45;&gt;topo.misc.lancext.param_formatter</title>
<path fill="none" stroke="black" stroke-width="0.5" d="M464.242,-48C476.57,-48 489.016,-48 501.108,-48"/>
<polygon fill="black" stroke="black" points="501.268,-49.7501 506.267,-48 501.267,-46.2501 501.268,-49.7501"/>
</g>
</g>
</svg>
