<?xml version="1.0" encoding="UTF-8" standalone="no"?>
<!DOCTYPE svg PUBLIC "-//W3C//DTD SVG 1.1//EN"
 "http://www.w3.org/Graphics/SVG/1.1/DTD/svg11.dtd">
<!-- Generated by graphviz version 2.26.3 (20100126.1600)
 -->
<!-- Title: inheritancee98780f367 Pages: 1 -->
<svg width="600pt" height="104pt"
 viewBox="0.00 0.00 600.00 104.00" xmlns="http://www.w3.org/2000/svg" xmlns:xlink="http://www.w3.org/1999/xlink">
<g id="graph1" class="graph" transform="scale(1 1) rotate(0) translate(4 100)">
<title>inheritancee98780f367</title>
<polygon fill="white" stroke="white" points="-4,5 -4,-100 597,-100 597,5 -4,5"/>
<!-- topo.ep.ThresholdUnit -->
<g id="node1" class="node"><title>topo.ep.ThresholdUnit</title>
<polygon fill="none" stroke="black" stroke-width="0.5" points="587,-96.5 465,-96.5 465,-75.5 587,-75.5 587,-96.5"/>
<text text-anchor="middle" x="526" y="-83.5" font-family="Vera" font-size="10.00">topo.ep.ThresholdUnit</text>
</g>
<!-- topo.base.simulation.EventProcessor -->
<g id="node2" class="node"><title>topo.base.simulation.EventProcessor</title>
<polygon fill="none" stroke="black" stroke-width="0.5" points="424,-58.5 230,-58.5 230,-37.5 424,-37.5 424,-58.5"/>
<text text-anchor="middle" x="327" y="-45.5" font-family="Vera" font-size="10.00">topo.base.simulation.EventProcessor</text>
</g>
<!-- topo.base.simulation.EventProcessor&#45;&gt;topo.ep.ThresholdUnit -->
<g id="edge2" class="edge"><title>topo.base.simulation.EventProcessor&#45;&gt;topo.ep.ThresholdUnit</title>
<path fill="none" stroke="black" stroke-width="0.5" d="M379.545,-58.0338C406.863,-63.2503 440.308,-69.6368 468.338,-74.9891"/>
<polygon fill="black" stroke="black" points="468.266,-76.757 473.506,-75.976 468.923,-73.3191 468.266,-76.757"/>
</g>
<!-- topo.ep.PulseGenerator -->
<g id="node5" class="node"><title>topo.ep.PulseGenerator</title>
<polygon fill="none" stroke="black" stroke-width="0.5" points="591,-58.5 461,-58.5 461,-37.5 591,-37.5 591,-58.5"/>
<text text-anchor="middle" x="526" y="-45.5" font-family="Vera" font-size="10.00">topo.ep.PulseGenerator</text>
</g>
<!-- topo.base.simulation.EventProcessor&#45;&gt;topo.ep.PulseGenerator -->
<g id="edge4" class="edge"><title>topo.base.simulation.EventProcessor&#45;&gt;topo.ep.PulseGenerator</title>
<path fill="none" stroke="black" stroke-width="0.5" d="M424.168,-48C434.586,-48 445.038,-48 455.068,-48"/>
<polygon fill="black" stroke="black" points="455.271,-49.7501 460.271,-48 455.271,-46.2501 455.271,-49.7501"/>
</g>
<!-- topo.ep.SumUnit -->
<g id="node7" class="node"><title>topo.ep.SumUnit</title>
<polygon fill="none" stroke="black" stroke-width="0.5" points="575,-20.5 477,-20.5 477,0.5 575,0.5 575,-20.5"/>
<text text-anchor="middle" x="526" y="-7.5" font-family="Vera" font-size="10.00">topo.ep.SumUnit</text>
</g>
<!-- topo.base.simulation.EventProcessor&#45;&gt;topo.ep.SumUnit -->
<g id="edge6" class="edge"><title>topo.base.simulation.EventProcessor&#45;&gt;topo.ep.SumUnit</title>
<path fill="none" stroke="black" stroke-width="0.5" d="M379.545,-37.9662C408.065,-32.5202 443.263,-25.799 472.005,-20.3106"/>
<polygon fill="black" stroke="black" points="472.343,-22.0278 476.926,-19.371 471.686,-18.5899 472.343,-22.0278"/>
</g>
<!-- param.parameterized.Parameterized -->
<g id="node4" class="node"><title>param.parameterized.Parameterized</title>
<polygon fill="none" stroke="black" stroke-width="0.5" points="194,-58.5 5.68434e-14,-58.5 0,-37.5 194,-37.5 194,-58.5"/>
<text text-anchor="middle" x="97" y="-45.5" font-family="Vera" font-size="10.00">param.parameterized.Parameterized</text>
</g>
<!-- param.parameterized.Parameterized&#45;&gt;topo.base.simulation.EventProcessor -->
<g id="edge8" class="edge"><title>param.parameterized.Parameterized&#45;&gt;topo.base.simulation.EventProcessor</title>
<path fill="none" stroke="black" stroke-width="0.5" d="M194.207,-48C204.23,-48 214.438,-48 224.515,-48"/>
<polygon fill="black" stroke="black" points="224.772,-49.7501 229.772,-48 224.772,-46.2501 224.772,-49.7501"/>
</g>
</g>
</svg>
