<?xml version="1.0" encoding="UTF-8" standalone="no"?>
<!DOCTYPE svg PUBLIC "-//W3C//DTD SVG 1.1//EN"
 "http://www.w3.org/Graphics/SVG/1.1/DTD/svg11.dtd">
<!-- Generated by graphviz version 2.26.3 (20100126.1600)
 -->
<!-- Title: inheritance09fca71fec Pages: 1 -->
<svg width="1140pt" height="218pt"
 viewBox="0.00 0.00 1140.00 218.00" xmlns="http://www.w3.org/2000/svg" xmlns:xlink="http://www.w3.org/1999/xlink">
<g id="graph1" class="graph" transform="scale(1 1) rotate(0) translate(4 214)">
<title>inheritance09fca71fec</title>
<polygon fill="white" stroke="white" points="-4,5 -4,-214 1137,-214 1137,5 -4,5"/>
<!-- paramtk.tilewrapper.Widget -->
<g id="node1" class="node"><title>paramtk.tilewrapper.Widget</title>
<polygon fill="none" stroke="black" stroke-width="0.5" points="657,-96.5 511,-96.5 511,-75.5 657,-75.5 657,-96.5"/>
<text text-anchor="middle" x="584" y="-83.5" font-family="Vera" font-size="10.00">paramtk.tilewrapper.Widget</text>
</g>
<!-- paramtk.tilewrapper.Notebook -->
<g id="node15" class="node"><title>paramtk.tilewrapper.Notebook</title>
<polygon fill="none" stroke="black" stroke-width="0.5" points="883,-96.5 723,-96.5 723,-75.5 883,-75.5 883,-96.5"/>
<text text-anchor="middle" x="803" y="-83.5" font-family="Vera" font-size="10.00">paramtk.tilewrapper.Notebook</text>
</g>
<!-- paramtk.tilewrapper.Widget&#45;&gt;paramtk.tilewrapper.Notebook -->
<g id="edge12" class="edge"><title>paramtk.tilewrapper.Widget&#45;&gt;paramtk.tilewrapper.Notebook</title>
<path fill="none" stroke="black" stroke-width="0.5" d="M657.533,-86C676.582,-86 697.265,-86 716.896,-86"/>
<polygon fill="black" stroke="black" points="717.132,-87.7501 722.132,-86 717.132,-84.2501 717.132,-87.7501"/>
</g>
<!-- Tkinter.Widget -->
<g id="node2" class="node"><title>Tkinter.Widget</title>
<polygon fill="none" stroke="black" stroke-width="0.5" points="390,-58.5 308,-58.5 308,-37.5 390,-37.5 390,-58.5"/>
<text text-anchor="middle" x="349" y="-45.5" font-family="Vera" font-size="10.00">Tkinter.Widget</text>
</g>
<!-- Tkinter.Widget&#45;&gt;paramtk.tilewrapper.Widget -->
<g id="edge2" class="edge"><title>Tkinter.Widget&#45;&gt;paramtk.tilewrapper.Widget</title>
<path fill="none" stroke="black" stroke-width="0.5" d="M390.743,-54.7499C425.581,-60.3833 475.909,-68.5215 516.472,-75.0806"/>
<polygon fill="black" stroke="black" points="516.659,-76.8835 521.875,-75.9542 517.218,-73.4284 516.659,-76.8835"/>
</g>
<!-- Tkinter.Menu -->
<g id="node13" class="node"><title>Tkinter.Menu</title>
<polygon fill="none" stroke="black" stroke-width="0.5" points="622,-58.5 546,-58.5 546,-37.5 622,-37.5 622,-58.5"/>
<text text-anchor="middle" x="584" y="-45.5" font-family="Vera" font-size="10.00">Tkinter.Menu</text>
</g>
<!-- Tkinter.Widget&#45;&gt;Tkinter.Menu -->
<g id="edge10" class="edge"><title>Tkinter.Widget&#45;&gt;Tkinter.Menu</title>
<path fill="none" stroke="black" stroke-width="0.5" d="M390.743,-48C432.821,-48 497.495,-48 540.269,-48"/>
<polygon fill="black" stroke="black" points="540.373,-49.7501 545.373,-48 540.373,-46.2501 540.373,-49.7501"/>
</g>
<!-- paramtk.tilewrapper.Style -->
<g id="node4" class="node"><title>paramtk.tilewrapper.Style</title>
<polygon fill="none" stroke="black" stroke-width="0.5" points="418,-96.5 280,-96.5 280,-75.5 418,-75.5 418,-96.5"/>
<text text-anchor="middle" x="349" y="-83.5" font-family="Vera" font-size="10.00">paramtk.tilewrapper.Style</text>
</g>
<!-- paramtk.tilewrapper.Style&#45;&gt;paramtk.tilewrapper.Widget -->
<g id="edge4" class="edge"><title>paramtk.tilewrapper.Style&#45;&gt;paramtk.tilewrapper.Widget</title>
<path fill="none" stroke="black" stroke-width="0.5" d="M418.554,-86C445.693,-86 476.951,-86 504.939,-86"/>
<polygon fill="black" stroke="black" points="505.125,-87.7501 510.125,-86 505.125,-84.2501 505.125,-87.7501"/>
</g>
<!-- paramtk.ScrolledWindow -->
<g id="node6" class="node"><title>paramtk.ScrolledWindow</title>
<polygon fill="none" stroke="black" stroke-width="0.5" points="651,-134.5 517,-134.5 517,-113.5 651,-113.5 651,-134.5"/>
<text text-anchor="middle" x="584" y="-121.5" font-family="Vera" font-size="10.00">paramtk.ScrolledWindow</text>
</g>
<!-- paramtk.AppWindow -->
<g id="node10" class="node"><title>paramtk.AppWindow</title>
<polygon fill="none" stroke="black" stroke-width="0.5" points="860,-134.5 746,-134.5 746,-113.5 860,-113.5 860,-134.5"/>
<text text-anchor="middle" x="803" y="-121.5" font-family="Vera" font-size="10.00">paramtk.AppWindow</text>
</g>
<!-- paramtk.ScrolledWindow&#45;&gt;paramtk.AppWindow -->
<g id="edge8" class="edge"><title>paramtk.ScrolledWindow&#45;&gt;paramtk.AppWindow</title>
<path fill="none" stroke="black" stroke-width="0.5" d="M651.196,-124C679.722,-124 712.775,-124 740.742,-124"/>
<polygon fill="black" stroke="black" points="740.902,-125.75 745.902,-124 740.902,-122.25 740.902,-125.75"/>
</g>
<!-- Tkinter.Toplevel -->
<g id="node7" class="node"><title>Tkinter.Toplevel</title>
<polygon fill="none" stroke="black" stroke-width="0.5" points="393,-134.5 305,-134.5 305,-113.5 393,-113.5 393,-134.5"/>
<text text-anchor="middle" x="349" y="-121.5" font-family="Vera" font-size="10.00">Tkinter.Toplevel</text>
</g>
<!-- Tkinter.Toplevel&#45;&gt;paramtk.ScrolledWindow -->
<g id="edge6" class="edge"><title>Tkinter.Toplevel&#45;&gt;paramtk.ScrolledWindow</title>
<path fill="none" stroke="black" stroke-width="0.5" d="M393.755,-124C427.019,-124 473.106,-124 511.588,-124"/>
<polygon fill="black" stroke="black" points="511.724,-125.75 516.724,-124 511.724,-122.25 511.724,-125.75"/>
</g>
<!-- param.parameterized.Parameterized -->
<g id="node9" class="node"><title>param.parameterized.Parameterized</title>
<polygon fill="none" stroke="black" stroke-width="0.5" points="446,-191.5 252,-191.5 252,-170.5 446,-170.5 446,-191.5"/>
<text text-anchor="middle" x="349" y="-178.5" font-family="Vera" font-size="10.00">param.parameterized.Parameterized</text>
</g>
<!-- topo.tkgui.topoconsole.PlotsMenuEntry -->
<g id="node23" class="node"><title>topo.tkgui.topoconsole.PlotsMenuEntry</title>
<polygon fill="none" stroke="black" stroke-width="0.5" points="685,-210.5 483,-210.5 483,-189.5 685,-189.5 685,-210.5"/>
<text text-anchor="middle" x="584" y="-197.5" font-family="Vera" font-size="10.00">topo.tkgui.topoconsole.PlotsMenuEntry</text>
</g>
<!-- param.parameterized.Parameterized&#45;&gt;topo.tkgui.topoconsole.PlotsMenuEntry -->
<g id="edge20" class="edge"><title>param.parameterized.Parameterized&#45;&gt;topo.tkgui.topoconsole.PlotsMenuEntry</title>
<path fill="none" stroke="black" stroke-width="0.5" d="M446.28,-188.865C456.48,-189.69 466.89,-190.532 477.189,-191.364"/>
<polygon fill="black" stroke="black" points="477.11,-193.113 482.235,-191.772 477.392,-189.625 477.11,-193.113"/>
</g>
<!-- paramtk.TkParameterizedBase -->
<g id="node28" class="node"><title>paramtk.TkParameterizedBase</title>
<polygon fill="none" stroke="black" stroke-width="0.5" points="666,-172.5 502,-172.5 502,-151.5 666,-151.5 666,-172.5"/>
<text text-anchor="middle" x="584" y="-159.5" font-family="Vera" font-size="10.00">paramtk.TkParameterizedBase</text>
</g>
<!-- param.parameterized.Parameterized&#45;&gt;paramtk.TkParameterizedBase -->
<g id="edge24" class="edge"><title>param.parameterized.Parameterized&#45;&gt;paramtk.TkParameterizedBase</title>
<path fill="none" stroke="black" stroke-width="0.5" d="M446.28,-173.135C462.987,-171.784 480.256,-170.388 496.682,-169.06"/>
<polygon fill="black" stroke="black" points="496.908,-170.797 501.75,-168.65 496.626,-167.309 496.908,-170.797"/>
</g>
<!-- topo.tkgui.topoconsole.TopoConsole -->
<g id="node34" class="node"><title>topo.tkgui.topoconsole.TopoConsole</title>
<polygon fill="none" stroke="black" stroke-width="0.5" points="1120,-153.5 932,-153.5 932,-132.5 1120,-132.5 1120,-153.5"/>
<text text-anchor="middle" x="1026" y="-140.5" font-family="Vera" font-size="10.00">topo.tkgui.topoconsole.TopoConsole</text>
</g>
<!-- paramtk.AppWindow&#45;&gt;topo.tkgui.topoconsole.TopoConsole -->
<g id="edge28" class="edge"><title>paramtk.AppWindow&#45;&gt;topo.tkgui.topoconsole.TopoConsole</title>
<path fill="none" stroke="black" stroke-width="0.5" d="M860.138,-128.868C880.294,-130.586 903.587,-132.57 926.228,-134.499"/>
<polygon fill="black" stroke="black" points="926.222,-136.255 931.352,-134.936 926.519,-132.768 926.222,-136.255"/>
</g>
<!-- Tkinter.Misc -->
<g id="node12" class="node"><title>Tkinter.Misc</title>
<polygon fill="none" stroke="black" stroke-width="0.5" points="72,-134.5 2.84217e-14,-134.5 0,-113.5 72,-113.5 72,-134.5"/>
<text text-anchor="middle" x="36" y="-121.5" font-family="Vera" font-size="10.00">Tkinter.Misc</text>
</g>
<!-- Tkinter.BaseWidget -->
<g id="node17" class="node"><title>Tkinter.BaseWidget</title>
<polygon fill="none" stroke="black" stroke-width="0.5" points="215,-134.5 109,-134.5 109,-113.5 215,-113.5 215,-134.5"/>
<text text-anchor="middle" x="162" y="-121.5" font-family="Vera" font-size="10.00">Tkinter.BaseWidget</text>
</g>
<!-- Tkinter.Misc&#45;&gt;Tkinter.BaseWidget -->
<g id="edge32" class="edge"><title>Tkinter.Misc&#45;&gt;Tkinter.BaseWidget</title>
<path fill="none" stroke="black" stroke-width="0.5" d="M72.1065,-124C81.7306,-124 92.3855,-124 102.895,-124"/>
<polygon fill="black" stroke="black" points="103.038,-125.75 108.038,-124 103.038,-122.25 103.038,-125.75"/>
</g>
<!-- paramtk.Menu -->
<g id="node26" class="node"><title>paramtk.Menu</title>
<polygon fill="none" stroke="black" stroke-width="0.5" points="846,-58.5 760,-58.5 760,-37.5 846,-37.5 846,-58.5"/>
<text text-anchor="middle" x="803" y="-45.5" font-family="Vera" font-size="10.00">paramtk.Menu</text>
</g>
<!-- Tkinter.Menu&#45;&gt;paramtk.Menu -->
<g id="edge42" class="edge"><title>Tkinter.Menu&#45;&gt;paramtk.Menu</title>
<path fill="none" stroke="black" stroke-width="0.5" d="M622.649,-48C659.432,-48 714.908,-48 754.613,-48"/>
<polygon fill="black" stroke="black" points="754.862,-49.7501 759.862,-48 754.862,-46.2501 754.862,-49.7501"/>
</g>
<!-- topo.tkgui.topoconsole.DockManager -->
<g id="node21" class="node"><title>topo.tkgui.topoconsole.DockManager</title>
<polygon fill="none" stroke="black" stroke-width="0.5" points="1123,-96.5 929,-96.5 929,-75.5 1123,-75.5 1123,-96.5"/>
<text text-anchor="middle" x="1026" y="-83.5" font-family="Vera" font-size="10.00">topo.tkgui.topoconsole.DockManager</text>
</g>
<!-- paramtk.tilewrapper.Notebook&#45;&gt;topo.tkgui.topoconsole.DockManager -->
<g id="edge18" class="edge"><title>paramtk.tilewrapper.Notebook&#45;&gt;topo.tkgui.topoconsole.DockManager</title>
<path fill="none" stroke="black" stroke-width="0.5" d="M883.508,-86C896.394,-86 909.88,-86 923.2,-86"/>
<polygon fill="black" stroke="black" points="923.493,-87.7501 928.493,-86 923.493,-84.2501 923.493,-87.7501"/>
</g>
<!-- Tkinter.BaseWidget&#45;&gt;Tkinter.Widget -->
<g id="edge34" class="edge"><title>Tkinter.BaseWidget&#45;&gt;Tkinter.Widget</title>
<path fill="none" stroke="black" stroke-width="0.5" d="M198.273,-113.923C204.431,-111.47 210.58,-108.515 216,-105 235.519,-92.3407 231.616,-78.2132 252,-67 267.261,-58.6049 285.669,-53.88 302.329,-51.2347"/>
<polygon fill="black" stroke="black" points="302.748,-52.9419 307.438,-50.4788 302.236,-49.4796 302.748,-52.9419"/>
</g>
<!-- Tkinter.BaseWidget&#45;&gt;Tkinter.Toplevel -->
<g id="edge14" class="edge"><title>Tkinter.BaseWidget&#45;&gt;Tkinter.Toplevel</title>
<path fill="none" stroke="black" stroke-width="0.5" d="M215.587,-124C241.894,-124 273.39,-124 299.173,-124"/>
<polygon fill="black" stroke="black" points="299.25,-125.75 304.25,-124 299.25,-122.25 299.25,-125.75"/>
</g>
<!-- Tkinter.Wm -->
<g id="node19" class="node"><title>Tkinter.Wm</title>
<polygon fill="none" stroke="black" stroke-width="0.5" points="196,-172.5 128,-172.5 128,-151.5 196,-151.5 196,-172.5"/>
<text text-anchor="middle" x="162" y="-159.5" font-family="Vera" font-size="10.00">Tkinter.Wm</text>
</g>
<!-- Tkinter.Wm&#45;&gt;Tkinter.Toplevel -->
<g id="edge16" class="edge"><title>Tkinter.Wm&#45;&gt;Tkinter.Toplevel</title>
<path fill="none" stroke="black" stroke-width="0.5" d="M196.735,-154.942C225.509,-149.094 266.771,-140.71 299.085,-134.143"/>
<polygon fill="black" stroke="black" points="299.64,-135.816 304.191,-133.106 298.943,-132.386 299.64,-135.816"/>
</g>
<!-- topo.tkgui.topoconsole.ControllableMenu -->
<g id="node25" class="node"><title>topo.tkgui.topoconsole.ControllableMenu</title>
<polygon fill="none" stroke="black" stroke-width="0.5" points="1132,-58.5 920,-58.5 920,-37.5 1132,-37.5 1132,-58.5"/>
<text text-anchor="middle" x="1026" y="-45.5" font-family="Vera" font-size="10.00">topo.tkgui.topoconsole.ControllableMenu</text>
</g>
<!-- paramtk.Menu&#45;&gt;topo.tkgui.topoconsole.ControllableMenu -->
<g id="edge22" class="edge"><title>paramtk.Menu&#45;&gt;topo.tkgui.topoconsole.ControllableMenu</title>
<path fill="none" stroke="black" stroke-width="0.5" d="M846.261,-48C866.009,-48 890.396,-48 914.767,-48"/>
<polygon fill="black" stroke="black" points="914.965,-49.7501 919.965,-48 914.965,-46.2501 914.965,-49.7501"/>
</g>
<!-- paramtk.TkParameterized -->
<g id="node30" class="node"><title>paramtk.TkParameterized</title>
<polygon fill="none" stroke="black" stroke-width="0.5" points="873,-172.5 733,-172.5 733,-151.5 873,-151.5 873,-172.5"/>
<text text-anchor="middle" x="803" y="-159.5" font-family="Vera" font-size="10.00">paramtk.TkParameterized</text>
</g>
<!-- paramtk.TkParameterizedBase&#45;&gt;paramtk.TkParameterized -->
<g id="edge26" class="edge"><title>paramtk.TkParameterizedBase&#45;&gt;paramtk.TkParameterized</title>
<path fill="none" stroke="black" stroke-width="0.5" d="M666.171,-162C686.423,-162 708.007,-162 727.904,-162"/>
<polygon fill="black" stroke="black" points="727.925,-163.75 732.925,-162 727.925,-160.25 727.925,-163.75"/>
</g>
<!-- paramtk.TkParameterized&#45;&gt;topo.tkgui.topoconsole.TopoConsole -->
<g id="edge30" class="edge"><title>paramtk.TkParameterized&#45;&gt;topo.tkgui.topoconsole.TopoConsole</title>
<path fill="none" stroke="black" stroke-width="0.5" d="M873.253,-156.014C890.057,-154.583 908.316,-153.027 926.172,-151.506"/>
<polygon fill="black" stroke="black" points="926.362,-153.246 931.196,-151.078 926.065,-149.758 926.362,-153.246"/>
</g>
<!-- Tkinter.Pack -->
<g id="node32" class="node"><title>Tkinter.Pack</title>
<polygon fill="none" stroke="black" stroke-width="0.5" points="198,-96.5 126,-96.5 126,-75.5 198,-75.5 198,-96.5"/>
<text text-anchor="middle" x="162" y="-83.5" font-family="Vera" font-size="10.00">Tkinter.Pack</text>
</g>
<!-- Tkinter.Pack&#45;&gt;Tkinter.Widget -->
<g id="edge36" class="edge"><title>Tkinter.Pack&#45;&gt;Tkinter.Widget</title>
<path fill="none" stroke="black" stroke-width="0.5" d="M198.757,-78.1133C215.056,-74.6489 234.473,-70.5663 252,-67 268.316,-63.6799 286.199,-60.147 302.117,-57.0397"/>
<polygon fill="black" stroke="black" points="302.862,-58.6774 307.435,-56.0031 302.193,-55.2421 302.862,-58.6774"/>
</g>
<!-- Tkinter.Place -->
<g id="node33" class="node"><title>Tkinter.Place</title>
<polygon fill="none" stroke="black" stroke-width="0.5" points="200,-58.5 124,-58.5 124,-37.5 200,-37.5 200,-58.5"/>
<text text-anchor="middle" x="162" y="-45.5" font-family="Vera" font-size="10.00">Tkinter.Place</text>
</g>
<!-- Tkinter.Place&#45;&gt;Tkinter.Widget -->
<g id="edge38" class="edge"><title>Tkinter.Place&#45;&gt;Tkinter.Widget</title>
<path fill="none" stroke="black" stroke-width="0.5" d="M200.747,-48C230.175,-48 270.777,-48 302.051,-48"/>
<polygon fill="black" stroke="black" points="302.381,-49.7501 307.381,-48 302.381,-46.2501 302.381,-49.7501"/>
</g>
<!-- Tkinter.Grid -->
<g id="node37" class="node"><title>Tkinter.Grid</title>
<polygon fill="none" stroke="black" stroke-width="0.5" points="197,-20.5 127,-20.5 127,0.5 197,0.5 197,-20.5"/>
<text text-anchor="middle" x="162" y="-7.5" font-family="Vera" font-size="10.00">Tkinter.Grid</text>
</g>
<!-- Tkinter.Grid&#45;&gt;Tkinter.Widget -->
<g id="edge40" class="edge"><title>Tkinter.Grid&#45;&gt;Tkinter.Widget</title>
<path fill="none" stroke="black" stroke-width="0.5" d="M197.613,-17.237C227.287,-23.2669 269.785,-31.9028 302.203,-38.4905"/>
<polygon fill="black" stroke="black" points="302.068,-40.2487 307.316,-39.5295 302.765,-36.8188 302.068,-40.2487"/>
</g>
</g>
</svg>
