<?xml version="1.0" encoding="UTF-8" standalone="no"?>
<!DOCTYPE svg PUBLIC "-//W3C//DTD SVG 1.1//EN"
 "http://www.w3.org/Graphics/SVG/1.1/DTD/svg11.dtd">
<!-- Generated by graphviz version 2.26.3 (20100126.1600)
 -->
<!-- Title: inheritance50a093cced Pages: 1 -->
<svg width="466pt" height="66pt"
 viewBox="0.00 0.00 466.00 66.00" xmlns="http://www.w3.org/2000/svg" xmlns:xlink="http://www.w3.org/1999/xlink">
<g id="graph1" class="graph" transform="scale(1 1) rotate(0) translate(4 62)">
<title>inheritance50a093cced</title>
<polygon fill="white" stroke="white" points="-4,5 -4,-62 463,-62 463,5 -4,5"/>
<!-- topo.tests.unit.testpatterngenerator.TestPatternGenerator -->
<g id="node1" class="node"><title>topo.tests.unit.testpatterngenerator.TestPatternGenerator</title>
<polygon fill="none" stroke="black" stroke-width="0.5" points="457,-58.5 163,-58.5 163,-37.5 457,-37.5 457,-58.5"/>
<text text-anchor="middle" x="310" y="-45.5" font-family="Vera" font-size="10.00">topo.tests.unit.testpatterngenerator.TestPatternGenerator</text>
</g>
<!-- unittest.case.TestCase -->
<g id="node2" class="node"><title>unittest.case.TestCase</title>
<polygon fill="none" stroke="black" stroke-width="0.5" points="125,-39.5 1,-39.5 1,-18.5 125,-18.5 125,-39.5"/>
<text text-anchor="middle" x="63" y="-26.5" font-family="Vera" font-size="10.00">unittest.case.TestCase</text>
</g>
<!-- unittest.case.TestCase&#45;&gt;topo.tests.unit.testpatterngenerator.TestPatternGenerator -->
<g id="edge2" class="edge"><title>unittest.case.TestCase&#45;&gt;topo.tests.unit.testpatterngenerator.TestPatternGenerator</title>
<path fill="none" stroke="black" stroke-width="0.5" d="M125.648,-33.8191C140.802,-34.9848 157.586,-36.2758 174.675,-37.5904"/>
<polygon fill="black" stroke="black" points="174.867,-39.3602 179.986,-37.999 175.135,-35.8705 174.867,-39.3602"/>
</g>
<!-- topo.tests.unit.testpatterngenerator.TestSelector -->
<g id="node4" class="node"><title>topo.tests.unit.testpatterngenerator.TestSelector</title>
<polygon fill="none" stroke="black" stroke-width="0.5" points="435,-20.5 185,-20.5 185,0.5 435,0.5 435,-20.5"/>
<text text-anchor="middle" x="310" y="-7.5" font-family="Vera" font-size="10.00">topo.tests.unit.testpatterngenerator.TestSelector</text>
</g>
<!-- unittest.case.TestCase&#45;&gt;topo.tests.unit.testpatterngenerator.TestSelector -->
<g id="edge4" class="edge"><title>unittest.case.TestCase&#45;&gt;topo.tests.unit.testpatterngenerator.TestSelector</title>
<path fill="none" stroke="black" stroke-width="0.5" d="M125.648,-24.1809C142.108,-22.9147 160.492,-21.5006 179.1,-20.0692"/>
<polygon fill="black" stroke="black" points="179.502,-21.7936 184.353,-19.6651 179.234,-18.3039 179.502,-21.7936"/>
</g>
</g>
</svg>
