<?xml version="1.0" encoding="UTF-8" standalone="no"?>
<!DOCTYPE svg PUBLIC "-//W3C//DTD SVG 1.1//EN"
 "http://www.w3.org/Graphics/SVG/1.1/DTD/svg11.dtd">
<!-- Generated by graphviz version 2.26.3 (20100126.1600)
 -->
<!-- Title: inheritance07d1eff978 Pages: 1 -->
<svg width="2126pt" height="28pt"
 viewBox="0.00 0.00 2126.00 28.00" xmlns="http://www.w3.org/2000/svg" xmlns:xlink="http://www.w3.org/1999/xlink">
<g id="graph1" class="graph" transform="scale(1 1) rotate(0) translate(4 24)">
<title>inheritance07d1eff978</title>
<polygon fill="white" stroke="white" points="-4,5 -4,-24 2123,-24 2123,5 -4,5"/>
<!-- topo.command.analysis.measure_sine_pref -->
<g id="node1" class="node"><title>topo.command.analysis.measure_sine_pref</title>
<polygon fill="none" stroke="black" stroke-width="0.5" points="1804,-20.5 1578,-20.5 1578,0.5 1804,0.5 1804,-20.5"/>
<text text-anchor="middle" x="1691" y="-7.5" font-family="Vera" font-size="10.00">topo.command.analysis.measure_sine_pref</text>
</g>
<!-- topo.analysis.vision.measure_and_analyze_complexity -->
<g id="node6" class="node"><title>topo.analysis.vision.measure_and_analyze_complexity</title>
<polygon fill="none" stroke="black" stroke-width="0.5" points="2118,-20.5 1840,-20.5 1840,0.5 2118,0.5 2118,-20.5"/>
<text text-anchor="middle" x="1979" y="-7.5" font-family="Vera" font-size="10.00">topo.analysis.vision.measure_and_analyze_complexity</text>
</g>
<!-- topo.command.analysis.measure_sine_pref&#45;&gt;topo.analysis.vision.measure_and_analyze_complexity -->
<g id="edge6" class="edge"><title>topo.command.analysis.measure_sine_pref&#45;&gt;topo.analysis.vision.measure_and_analyze_complexity</title>
<path fill="none" stroke="black" stroke-width="0.5" d="M1804.41,-10C1814.42,-10 1824.64,-10 1834.86,-10"/>
<polygon fill="black" stroke="black" points="1834.87,-11.7501 1839.87,-10 1834.87,-8.2501 1834.87,-11.7501"/>
</g>
<!-- topo.analysis.featureresponses.SinusoidalMeasureResponseCommand -->
<g id="node2" class="node"><title>topo.analysis.featureresponses.SinusoidalMeasureResponseCommand</title>
<polygon fill="none" stroke="black" stroke-width="0.5" points="1542,-20.5 1186,-20.5 1186,0.5 1542,0.5 1542,-20.5"/>
<text text-anchor="middle" x="1364" y="-7.5" font-family="Vera" font-size="10.00">topo.analysis.featureresponses.SinusoidalMeasureResponseCommand</text>
</g>
<!-- topo.analysis.featureresponses.SinusoidalMeasureResponseCommand&#45;&gt;topo.command.analysis.measure_sine_pref -->
<g id="edge2" class="edge"><title>topo.analysis.featureresponses.SinusoidalMeasureResponseCommand&#45;&gt;topo.command.analysis.measure_sine_pref</title>
<path fill="none" stroke="black" stroke-width="0.5" d="M1542.33,-10C1552.51,-10 1562.62,-10 1572.48,-10"/>
<polygon fill="black" stroke="black" points="1572.62,-11.7501 1577.62,-10 1572.62,-8.2501 1572.62,-11.7501"/>
</g>
<!-- topo.analysis.featureresponses.MeasureResponseCommand -->
<g id="node4" class="node"><title>topo.analysis.featureresponses.MeasureResponseCommand</title>
<polygon fill="none" stroke="black" stroke-width="0.5" points="1149,-20.5 843,-20.5 843,0.5 1149,0.5 1149,-20.5"/>
<text text-anchor="middle" x="996" y="-7.5" font-family="Vera" font-size="10.00">topo.analysis.featureresponses.MeasureResponseCommand</text>
</g>
<!-- topo.analysis.featureresponses.MeasureResponseCommand&#45;&gt;topo.analysis.featureresponses.SinusoidalMeasureResponseCommand -->
<g id="edge4" class="edge"><title>topo.analysis.featureresponses.MeasureResponseCommand&#45;&gt;topo.analysis.featureresponses.SinusoidalMeasureResponseCommand</title>
<path fill="none" stroke="black" stroke-width="0.5" d="M1149.67,-10C1159.91,-10 1170.29,-10 1180.66,-10"/>
<polygon fill="black" stroke="black" points="1180.75,-11.7501 1185.75,-10 1180.75,-8.2501 1180.75,-11.7501"/>
</g>
<!-- topo.analysis.featureresponses.PatternPresentingCommand -->
<g id="node8" class="node"><title>topo.analysis.featureresponses.PatternPresentingCommand</title>
<polygon fill="none" stroke="black" stroke-width="0.5" points="805,-20.5 501,-20.5 501,0.5 805,0.5 805,-20.5"/>
<text text-anchor="middle" x="653" y="-7.5" font-family="Vera" font-size="10.00">topo.analysis.featureresponses.PatternPresentingCommand</text>
</g>
<!-- topo.analysis.featureresponses.PatternPresentingCommand&#45;&gt;topo.analysis.featureresponses.MeasureResponseCommand -->
<g id="edge10" class="edge"><title>topo.analysis.featureresponses.PatternPresentingCommand&#45;&gt;topo.analysis.featureresponses.MeasureResponseCommand</title>
<path fill="none" stroke="black" stroke-width="0.5" d="M805.942,-10C816.305,-10 826.759,-10 837.151,-10"/>
<polygon fill="black" stroke="black" points="837.247,-11.7501 842.247,-10 837.247,-8.2501 837.247,-11.7501"/>
</g>
<!-- param.parameterized.ParameterizedFunction -->
<g id="node9" class="node"><title>param.parameterized.ParameterizedFunction</title>
<polygon fill="none" stroke="black" stroke-width="0.5" points="464,-20.5 230,-20.5 230,0.5 464,0.5 464,-20.5"/>
<text text-anchor="middle" x="347" y="-7.5" font-family="Vera" font-size="10.00">param.parameterized.ParameterizedFunction</text>
</g>
<!-- param.parameterized.ParameterizedFunction&#45;&gt;topo.analysis.featureresponses.PatternPresentingCommand -->
<g id="edge8" class="edge"><title>param.parameterized.ParameterizedFunction&#45;&gt;topo.analysis.featureresponses.PatternPresentingCommand</title>
<path fill="none" stroke="black" stroke-width="0.5" d="M464.432,-10C474.571,-10 484.931,-10 495.319,-10"/>
<polygon fill="black" stroke="black" points="495.42,-11.7501 500.42,-10 495.42,-8.2501 495.42,-11.7501"/>
</g>
<!-- param.parameterized.Parameterized -->
<g id="node12" class="node"><title>param.parameterized.Parameterized</title>
<polygon fill="none" stroke="black" stroke-width="0.5" points="194,-20.5 5.68434e-14,-20.5 0,0.5 194,0.5 194,-20.5"/>
<text text-anchor="middle" x="97" y="-7.5" font-family="Vera" font-size="10.00">param.parameterized.Parameterized</text>
</g>
<!-- param.parameterized.Parameterized&#45;&gt;param.parameterized.ParameterizedFunction -->
<g id="edge12" class="edge"><title>param.parameterized.Parameterized&#45;&gt;param.parameterized.ParameterizedFunction</title>
<path fill="none" stroke="black" stroke-width="0.5" d="M194.014,-10C204.04,-10 214.319,-10 224.575,-10"/>
<polygon fill="black" stroke="black" points="224.607,-11.7501 229.607,-10 224.607,-8.2501 224.607,-11.7501"/>
</g>
</g>
</svg>
