<?xml version="1.0" encoding="UTF-8" standalone="no"?>
<!DOCTYPE svg PUBLIC "-//W3C//DTD SVG 1.1//EN"
 "http://www.w3.org/Graphics/SVG/1.1/DTD/svg11.dtd">
<!-- Generated by graphviz version 2.26.3 (20100126.1600)
 -->
<!-- Title: inheritance0bce68b9cf Pages: 1 -->
<svg width="1528pt" height="588pt"
 viewBox="0.00 0.00 1528.00 588.00" xmlns="http://www.w3.org/2000/svg" xmlns:xlink="http://www.w3.org/1999/xlink">
<g id="graph1" class="graph" transform="scale(1 1) rotate(0) translate(4 584)">
<title>inheritance0bce68b9cf</title>
<polygon fill="white" stroke="white" points="-4,5 -4,-584 1525,-584 1525,5 -4,5"/>
<!-- topo.command.analysis.measure_rfs -->
<g id="node1" class="node"><title>topo.command.analysis.measure_rfs</title>
<polygon fill="none" stroke="black" stroke-width="0.5" points="1482,-580.5 1288,-580.5 1288,-559.5 1482,-559.5 1482,-580.5"/>
<text text-anchor="middle" x="1385" y="-567.5" font-family="Vera" font-size="10.00">topo.command.analysis.measure_rfs</text>
</g>
<!-- topo.analysis.featureresponses.SingleInputResponseCommand -->
<g id="node2" class="node"><title>topo.analysis.featureresponses.SingleInputResponseCommand</title>
<polygon fill="none" stroke="black" stroke-width="0.5" points="1195,-523.5 877,-523.5 877,-502.5 1195,-502.5 1195,-523.5"/>
<text text-anchor="middle" x="1036" y="-510.5" font-family="Vera" font-size="10.00">topo.analysis.featureresponses.SingleInputResponseCommand</text>
</g>
<!-- topo.analysis.featureresponses.SingleInputResponseCommand&#45;&gt;topo.command.analysis.measure_rfs -->
<g id="edge2" class="edge"><title>topo.analysis.featureresponses.SingleInputResponseCommand&#45;&gt;topo.command.analysis.measure_rfs</title>
<path fill="none" stroke="black" stroke-width="0.5" d="M1089.56,-523.06C1132.79,-531.048 1195.22,-542.284 1250,-551 1267.84,-553.838 1287.04,-556.673 1305.21,-559.254"/>
<polygon fill="black" stroke="black" points="1305.11,-561.007 1310.3,-559.975 1305.6,-557.542 1305.11,-561.007"/>
</g>
<!-- topo.command.analysis.measure_sine_pref -->
<g id="node4" class="node"><title>topo.command.analysis.measure_sine_pref</title>
<polygon fill="none" stroke="black" stroke-width="0.5" points="1498,-542.5 1272,-542.5 1272,-521.5 1498,-521.5 1498,-542.5"/>
<text text-anchor="middle" x="1385" y="-529.5" font-family="Vera" font-size="10.00">topo.command.analysis.measure_sine_pref</text>
</g>
<!-- topo.analysis.featureresponses.SinusoidalMeasureResponseCommand -->
<g id="node5" class="node"><title>topo.analysis.featureresponses.SinusoidalMeasureResponseCommand</title>
<polygon fill="none" stroke="black" stroke-width="0.5" points="1214,-409.5 858,-409.5 858,-388.5 1214,-388.5 1214,-409.5"/>
<text text-anchor="middle" x="1036" y="-396.5" font-family="Vera" font-size="10.00">topo.analysis.featureresponses.SinusoidalMeasureResponseCommand</text>
</g>
<!-- topo.analysis.featureresponses.SinusoidalMeasureResponseCommand&#45;&gt;topo.command.analysis.measure_sine_pref -->
<g id="edge4" class="edge"><title>topo.analysis.featureresponses.SinusoidalMeasureResponseCommand&#45;&gt;topo.command.analysis.measure_sine_pref</title>
<path fill="none" stroke="black" stroke-width="0.5" d="M1054.86,-409.074C1106.88,-436.861 1248.69,-512.575 1250,-513 1259.57,-516.116 1269.69,-518.721 1279.91,-520.899"/>
<polygon fill="black" stroke="black" points="1279.69,-522.639 1284.94,-521.934 1280.39,-519.211 1279.69,-522.639"/>
</g>
<!-- topo.command.analysis.measure_phasedisparity -->
<g id="node13" class="node"><title>topo.command.analysis.measure_phasedisparity</title>
<polygon fill="none" stroke="black" stroke-width="0.5" points="1511,-504.5 1259,-504.5 1259,-483.5 1511,-483.5 1511,-504.5"/>
<text text-anchor="middle" x="1385" y="-491.5" font-family="Vera" font-size="10.00">topo.command.analysis.measure_phasedisparity</text>
</g>
<!-- topo.analysis.featureresponses.SinusoidalMeasureResponseCommand&#45;&gt;topo.command.analysis.measure_phasedisparity -->
<g id="edge10" class="edge"><title>topo.analysis.featureresponses.SinusoidalMeasureResponseCommand&#45;&gt;topo.command.analysis.measure_phasedisparity</title>
<path fill="none" stroke="black" stroke-width="0.5" d="M1059.28,-409.021C1098.08,-425.327 1178.78,-457.531 1250,-475 1262.9,-478.164 1276.63,-480.853 1290.2,-483.125"/>
<polygon fill="black" stroke="black" points="1289.98,-484.861 1295.2,-483.943 1290.55,-481.407 1289.98,-484.861"/>
</g>
<!-- topo.command.analysis.measure_second_or_pref -->
<g id="node15" class="node"><title>topo.command.analysis.measure_second_or_pref</title>
<polygon fill="none" stroke="black" stroke-width="0.5" points="1513,-466.5 1257,-466.5 1257,-445.5 1513,-445.5 1513,-466.5"/>
<text text-anchor="middle" x="1385" y="-453.5" font-family="Vera" font-size="10.00">topo.command.analysis.measure_second_or_pref</text>
</g>
<!-- topo.analysis.featureresponses.SinusoidalMeasureResponseCommand&#45;&gt;topo.command.analysis.measure_second_or_pref -->
<g id="edge12" class="edge"><title>topo.analysis.featureresponses.SinusoidalMeasureResponseCommand&#45;&gt;topo.command.analysis.measure_second_or_pref</title>
<path fill="none" stroke="black" stroke-width="0.5" d="M1089.56,-409.06C1132.79,-417.048 1195.22,-428.284 1250,-437 1267.84,-439.838 1287.04,-442.673 1305.21,-445.254"/>
<polygon fill="black" stroke="black" points="1305.11,-447.007 1310.3,-445.975 1305.6,-443.542 1305.11,-447.007"/>
</g>
<!-- topo.command.analysis.measure_hue_pref -->
<g id="node19" class="node"><title>topo.command.analysis.measure_hue_pref</title>
<polygon fill="none" stroke="black" stroke-width="0.5" points="1497,-428.5 1273,-428.5 1273,-407.5 1497,-407.5 1497,-428.5"/>
<text text-anchor="middle" x="1385" y="-415.5" font-family="Vera" font-size="10.00">topo.command.analysis.measure_hue_pref</text>
</g>
<!-- topo.analysis.featureresponses.SinusoidalMeasureResponseCommand&#45;&gt;topo.command.analysis.measure_hue_pref -->
<g id="edge16" class="edge"><title>topo.analysis.featureresponses.SinusoidalMeasureResponseCommand&#45;&gt;topo.command.analysis.measure_hue_pref</title>
<path fill="none" stroke="black" stroke-width="0.5" d="M1214.08,-408.695C1232.2,-409.681 1250.27,-410.665 1267.51,-411.604"/>
<polygon fill="black" stroke="black" points="1267.74,-413.369 1272.83,-411.893 1267.94,-409.874 1267.74,-413.369"/>
</g>
<!-- topo.command.analysis.measure_or_pref -->
<g id="node24" class="node"><title>topo.command.analysis.measure_or_pref</title>
<polygon fill="none" stroke="black" stroke-width="0.5" points="1493,-390.5 1277,-390.5 1277,-369.5 1493,-369.5 1493,-390.5"/>
<text text-anchor="middle" x="1385" y="-377.5" font-family="Vera" font-size="10.00">topo.command.analysis.measure_or_pref</text>
</g>
<!-- topo.analysis.featureresponses.SinusoidalMeasureResponseCommand&#45;&gt;topo.command.analysis.measure_or_pref -->
<g id="edge22" class="edge"><title>topo.analysis.featureresponses.SinusoidalMeasureResponseCommand&#45;&gt;topo.command.analysis.measure_or_pref</title>
<path fill="none" stroke="black" stroke-width="0.5" d="M1214.08,-389.305C1233.59,-388.243 1253.03,-387.184 1271.45,-386.182"/>
<polygon fill="black" stroke="black" points="1271.72,-387.92 1276.61,-385.901 1271.53,-384.425 1271.72,-387.92"/>
</g>
<!-- topo.command.analysis.measure_dr_pref -->
<g id="node34" class="node"><title>topo.command.analysis.measure_dr_pref</title>
<polygon fill="none" stroke="black" stroke-width="0.5" points="1493,-352.5 1277,-352.5 1277,-331.5 1493,-331.5 1493,-352.5"/>
<text text-anchor="middle" x="1385" y="-339.5" font-family="Vera" font-size="10.00">topo.command.analysis.measure_dr_pref</text>
</g>
<!-- topo.analysis.featureresponses.SinusoidalMeasureResponseCommand&#45;&gt;topo.command.analysis.measure_dr_pref -->
<g id="edge32" class="edge"><title>topo.analysis.featureresponses.SinusoidalMeasureResponseCommand&#45;&gt;topo.command.analysis.measure_dr_pref</title>
<path fill="none" stroke="black" stroke-width="0.5" d="M1089.56,-388.94C1132.79,-380.952 1195.22,-369.716 1250,-361 1267.84,-358.162 1287.04,-355.327 1305.21,-352.746"/>
<polygon fill="black" stroke="black" points="1305.6,-354.458 1310.3,-352.025 1305.11,-350.993 1305.6,-354.458"/>
</g>
<!-- topo.command.analysis.measure_od_pref -->
<g id="node58" class="node"><title>topo.command.analysis.measure_od_pref</title>
<polygon fill="none" stroke="black" stroke-width="0.5" points="1494,-314.5 1276,-314.5 1276,-293.5 1494,-293.5 1494,-314.5"/>
<text text-anchor="middle" x="1385" y="-301.5" font-family="Vera" font-size="10.00">topo.command.analysis.measure_od_pref</text>
</g>
<!-- topo.analysis.featureresponses.SinusoidalMeasureResponseCommand&#45;&gt;topo.command.analysis.measure_od_pref -->
<g id="edge58" class="edge"><title>topo.analysis.featureresponses.SinusoidalMeasureResponseCommand&#45;&gt;topo.command.analysis.measure_od_pref</title>
<path fill="none" stroke="black" stroke-width="0.5" d="M1062.17,-388.96C1110.71,-370.458 1213.14,-332.04 1250,-323 1262.9,-319.836 1276.63,-317.147 1290.2,-314.875"/>
<polygon fill="black" stroke="black" points="1290.55,-316.593 1295.2,-314.057 1289.98,-313.139 1290.55,-316.593"/>
</g>
<!-- topo.command.analysis.measure_latency_preference -->
<g id="node7" class="node"><title>topo.command.analysis.measure_latency_preference</title>
<polygon fill="none" stroke="black" stroke-width="0.5" points="1173,-324.5 899,-324.5 899,-303.5 1173,-303.5 1173,-324.5"/>
<text text-anchor="middle" x="1036" y="-311.5" font-family="Vera" font-size="10.00">topo.command.analysis.measure_latency_preference</text>
</g>
<!-- topo.analysis.featureresponses.MeasureResponseCommand -->
<g id="node8" class="node"><title>topo.analysis.featureresponses.MeasureResponseCommand</title>
<polygon fill="none" stroke="black" stroke-width="0.5" points="814,-286.5 508,-286.5 508,-265.5 814,-265.5 814,-286.5"/>
<text text-anchor="middle" x="661" y="-273.5" font-family="Vera" font-size="10.00">topo.analysis.featureresponses.MeasureResponseCommand</text>
</g>
<!-- topo.analysis.featureresponses.MeasureResponseCommand&#45;&gt;topo.analysis.featureresponses.SingleInputResponseCommand -->
<g id="edge20" class="edge"><title>topo.analysis.featureresponses.MeasureResponseCommand&#45;&gt;topo.analysis.featureresponses.SingleInputResponseCommand</title>
<path fill="none" stroke="black" stroke-width="0.5" d="M673.951,-286.276C704.854,-310.582 785.727,-372.95 858,-418 910.489,-450.718 975.251,-483.497 1010.39,-500.688"/>
<polygon fill="black" stroke="black" points="1009.67,-502.288 1014.94,-502.908 1011.21,-499.143 1009.67,-502.288"/>
</g>
<!-- topo.analysis.featureresponses.MeasureResponseCommand&#45;&gt;topo.analysis.featureresponses.SinusoidalMeasureResponseCommand -->
<g id="edge18" class="edge"><title>topo.analysis.featureresponses.MeasureResponseCommand&#45;&gt;topo.analysis.featureresponses.SinusoidalMeasureResponseCommand</title>
<path fill="none" stroke="black" stroke-width="0.5" d="M691.688,-286.066C760.53,-308.646 926.973,-363.239 1000.3,-387.29"/>
<polygon fill="black" stroke="black" points="1000.12,-389.072 1005.41,-388.968 1001.21,-385.747 1000.12,-389.072"/>
</g>
<!-- topo.analysis.featureresponses.MeasureResponseCommand&#45;&gt;topo.command.analysis.measure_latency_preference -->
<g id="edge6" class="edge"><title>topo.analysis.featureresponses.MeasureResponseCommand&#45;&gt;topo.command.analysis.measure_latency_preference</title>
<path fill="none" stroke="black" stroke-width="0.5" d="M760.017,-286.034C812.991,-291.402 878.192,-298.009 931.916,-303.453"/>
<polygon fill="black" stroke="black" points="931.928,-305.213 937.079,-303.976 932.28,-301.731 931.928,-305.213"/>
</g>
<!-- topo.analysis.featureresponses.PositionMeasurementCommand -->
<g id="node26" class="node"><title>topo.analysis.featureresponses.PositionMeasurementCommand</title>
<polygon fill="none" stroke="black" stroke-width="0.5" points="1198,-286.5 874,-286.5 874,-265.5 1198,-265.5 1198,-286.5"/>
<text text-anchor="middle" x="1036" y="-273.5" font-family="Vera" font-size="10.00">topo.analysis.featureresponses.PositionMeasurementCommand</text>
</g>
<!-- topo.analysis.featureresponses.MeasureResponseCommand&#45;&gt;topo.analysis.featureresponses.PositionMeasurementCommand -->
<g id="edge24" class="edge"><title>topo.analysis.featureresponses.MeasureResponseCommand&#45;&gt;topo.analysis.featureresponses.PositionMeasurementCommand</title>
<path fill="none" stroke="black" stroke-width="0.5" d="M814.609,-276C832.45,-276 850.715,-276 868.728,-276"/>
<polygon fill="black" stroke="black" points="868.802,-277.75 873.802,-276 868.802,-274.25 868.802,-277.75"/>
</g>
<!-- topo.command.analysis.measure_log_frequency_preference -->
<g id="node30" class="node"><title>topo.command.analysis.measure_log_frequency_preference</title>
<polygon fill="none" stroke="black" stroke-width="0.5" points="1189,-248.5 883,-248.5 883,-227.5 1189,-227.5 1189,-248.5"/>
<text text-anchor="middle" x="1036" y="-235.5" font-family="Vera" font-size="10.00">topo.command.analysis.measure_log_frequency_preference</text>
</g>
<!-- topo.analysis.featureresponses.MeasureResponseCommand&#45;&gt;topo.command.analysis.measure_log_frequency_preference -->
<g id="edge28" class="edge"><title>topo.analysis.featureresponses.MeasureResponseCommand&#45;&gt;topo.command.analysis.measure_log_frequency_preference</title>
<path fill="none" stroke="black" stroke-width="0.5" d="M760.017,-265.966C812.991,-260.598 878.192,-253.991 931.916,-248.547"/>
<polygon fill="black" stroke="black" points="932.28,-250.269 937.079,-248.024 931.928,-246.787 932.28,-250.269"/>
</g>
<!-- topo.command.analysis.measure_frequency_preference -->
<g id="node56" class="node"><title>topo.command.analysis.measure_frequency_preference</title>
<polygon fill="none" stroke="black" stroke-width="0.5" points="1179,-210.5 893,-210.5 893,-189.5 1179,-189.5 1179,-210.5"/>
<text text-anchor="middle" x="1036" y="-197.5" font-family="Vera" font-size="10.00">topo.command.analysis.measure_frequency_preference</text>
</g>
<!-- topo.analysis.featureresponses.MeasureResponseCommand&#45;&gt;topo.command.analysis.measure_frequency_preference -->
<g id="edge56" class="edge"><title>topo.analysis.featureresponses.MeasureResponseCommand&#45;&gt;topo.command.analysis.measure_frequency_preference</title>
<path fill="none" stroke="black" stroke-width="0.5" d="M689.65,-265.989C727.65,-253.11 797.036,-230.977 858,-219 874.582,-215.742 892.15,-213.011 909.538,-210.73"/>
<polygon fill="black" stroke="black" points="910.191,-212.411 914.927,-210.037 909.744,-208.939 910.191,-212.411"/>
</g>
<!-- topo.command.analysis.update_connectionfields -->
<g id="node10" class="node"><title>topo.command.analysis.update_connectionfields</title>
<polygon fill="none" stroke="black" stroke-width="0.5" points="1510,-181.5 1260,-181.5 1260,-160.5 1510,-160.5 1510,-181.5"/>
<text text-anchor="middle" x="1385" y="-168.5" font-family="Vera" font-size="10.00">topo.command.analysis.update_connectionfields</text>
</g>
<!-- topo.plotting.plotgroup.UnitMeasurementCommand -->
<g id="node11" class="node"><title>topo.plotting.plotgroup.UnitMeasurementCommand</title>
<polygon fill="none" stroke="black" stroke-width="0.5" points="1169,-172.5 903,-172.5 903,-151.5 1169,-151.5 1169,-172.5"/>
<text text-anchor="middle" x="1036" y="-159.5" font-family="Vera" font-size="10.00">topo.plotting.plotgroup.UnitMeasurementCommand</text>
</g>
<!-- topo.plotting.plotgroup.UnitMeasurementCommand&#45;&gt;topo.command.analysis.update_connectionfields -->
<g id="edge8" class="edge"><title>topo.plotting.plotgroup.UnitMeasurementCommand&#45;&gt;topo.command.analysis.update_connectionfields</title>
<path fill="none" stroke="black" stroke-width="0.5" d="M1169.44,-165.441C1197.24,-166.158 1226.53,-166.913 1254.23,-167.628"/>
<polygon fill="black" stroke="black" points="1254.35,-169.381 1259.39,-167.761 1254.44,-165.882 1254.35,-169.381"/>
</g>
<!-- topo.command.analysis.update_projection -->
<g id="node28" class="node"><title>topo.command.analysis.update_projection</title>
<polygon fill="none" stroke="black" stroke-width="0.5" points="1495,-143.5 1275,-143.5 1275,-122.5 1495,-122.5 1495,-143.5"/>
<text text-anchor="middle" x="1385" y="-130.5" font-family="Vera" font-size="10.00">topo.command.analysis.update_projection</text>
</g>
<!-- topo.plotting.plotgroup.UnitMeasurementCommand&#45;&gt;topo.command.analysis.update_projection -->
<g id="edge26" class="edge"><title>topo.plotting.plotgroup.UnitMeasurementCommand&#45;&gt;topo.command.analysis.update_projection</title>
<path fill="none" stroke="black" stroke-width="0.5" d="M1156.59,-151.979C1193.03,-148.952 1232.93,-145.636 1269.05,-142.634"/>
<polygon fill="black" stroke="black" points="1269.52,-144.352 1274.36,-142.194 1269.23,-140.864 1269.52,-144.352"/>
</g>
<!-- topo.plotting.plotgroup.ProjectionSheetMeasurementCommand -->
<g id="node17" class="node"><title>topo.plotting.plotgroup.ProjectionSheetMeasurementCommand</title>
<polygon fill="none" stroke="black" stroke-width="0.5" points="822,-172.5 500,-172.5 500,-151.5 822,-151.5 822,-172.5"/>
<text text-anchor="middle" x="661" y="-159.5" font-family="Vera" font-size="10.00">topo.plotting.plotgroup.ProjectionSheetMeasurementCommand</text>
</g>
<!-- topo.plotting.plotgroup.ProjectionSheetMeasurementCommand&#45;&gt;topo.plotting.plotgroup.UnitMeasurementCommand -->
<g id="edge14" class="edge"><title>topo.plotting.plotgroup.ProjectionSheetMeasurementCommand&#45;&gt;topo.plotting.plotgroup.UnitMeasurementCommand</title>
<path fill="none" stroke="black" stroke-width="0.5" d="M822.21,-162C847.322,-162 873.076,-162 897.622,-162"/>
<polygon fill="black" stroke="black" points="897.84,-163.75 902.84,-162 897.84,-160.25 897.84,-163.75"/>
</g>
<!-- topo.command.analysis.update_projectionactivity -->
<g id="node46" class="node"><title>topo.command.analysis.update_projectionactivity</title>
<polygon fill="none" stroke="black" stroke-width="0.5" points="1163,-134.5 909,-134.5 909,-113.5 1163,-113.5 1163,-134.5"/>
<text text-anchor="middle" x="1036" y="-121.5" font-family="Vera" font-size="10.00">topo.command.analysis.update_projectionactivity</text>
</g>
<!-- topo.plotting.plotgroup.ProjectionSheetMeasurementCommand&#45;&gt;topo.command.analysis.update_projectionactivity -->
<g id="edge44" class="edge"><title>topo.plotting.plotgroup.ProjectionSheetMeasurementCommand&#45;&gt;topo.command.analysis.update_projectionactivity</title>
<path fill="none" stroke="black" stroke-width="0.5" d="M760.017,-151.966C812.991,-146.598 878.192,-139.991 931.916,-134.547"/>
<polygon fill="black" stroke="black" points="932.28,-136.269 937.079,-134.024 931.928,-132.787 932.28,-136.269"/>
</g>
<!-- param.parameterized.Parameterized -->
<g id="node21" class="node"><title>param.parameterized.Parameterized</title>
<polygon fill="none" stroke="black" stroke-width="0.5" points="194,-86.5 5.68434e-14,-86.5 0,-65.5 194,-65.5 194,-86.5"/>
<text text-anchor="middle" x="97" y="-73.5" font-family="Vera" font-size="10.00">param.parameterized.Parameterized</text>
</g>
<!-- param.parameterized.ParameterizedFunction -->
<g id="node32" class="node"><title>param.parameterized.ParameterizedFunction</title>
<polygon fill="none" stroke="black" stroke-width="0.5" points="464,-143.5 230,-143.5 230,-122.5 464,-122.5 464,-143.5"/>
<text text-anchor="middle" x="347" y="-130.5" font-family="Vera" font-size="10.00">param.parameterized.ParameterizedFunction</text>
</g>
<!-- param.parameterized.Parameterized&#45;&gt;param.parameterized.ParameterizedFunction -->
<g id="edge34" class="edge"><title>param.parameterized.Parameterized&#45;&gt;param.parameterized.ParameterizedFunction</title>
<path fill="none" stroke="black" stroke-width="0.5" d="M141.12,-86.0592C185.075,-96.0811 252.414,-111.434 298.007,-121.83"/>
<polygon fill="black" stroke="black" points="297.638,-123.54 302.902,-122.946 298.416,-120.128 297.638,-123.54"/>
</g>
<!-- imagen.patterngenerator.PatternGenerator -->
<g id="node40" class="node"><title>imagen.patterngenerator.PatternGenerator</title>
<polygon fill="none" stroke="black" stroke-width="0.5" points="459,-86.5 235,-86.5 235,-65.5 459,-65.5 459,-86.5"/>
<text text-anchor="middle" x="347" y="-73.5" font-family="Vera" font-size="10.00">imagen.patterngenerator.PatternGenerator</text>
</g>
<!-- param.parameterized.Parameterized&#45;&gt;imagen.patterngenerator.PatternGenerator -->
<g id="edge48" class="edge"><title>param.parameterized.Parameterized&#45;&gt;imagen.patterngenerator.PatternGenerator</title>
<path fill="none" stroke="black" stroke-width="0.5" d="M194.014,-76C205.664,-76 217.655,-76 229.554,-76"/>
<polygon fill="black" stroke="black" points="229.647,-77.7501 234.647,-76 229.647,-74.2501 229.647,-77.7501"/>
</g>
<!-- topo.command.analysis.PatternPresenter2 -->
<g id="node42" class="node"><title>topo.command.analysis.PatternPresenter2</title>
<polygon fill="none" stroke="black" stroke-width="0.5" points="457,-48.5 237,-48.5 237,-27.5 457,-27.5 457,-48.5"/>
<text text-anchor="middle" x="347" y="-35.5" font-family="Vera" font-size="10.00">topo.command.analysis.PatternPresenter2</text>
</g>
<!-- param.parameterized.Parameterized&#45;&gt;topo.command.analysis.PatternPresenter2 -->
<g id="edge40" class="edge"><title>param.parameterized.Parameterized&#45;&gt;topo.command.analysis.PatternPresenter2</title>
<path fill="none" stroke="black" stroke-width="0.5" d="M163.012,-65.9662C197.758,-60.6848 240.394,-54.204 275.872,-48.8115"/>
<polygon fill="black" stroke="black" points="276.372,-50.5056 281.052,-48.024 275.846,-47.0454 276.372,-50.5056"/>
</g>
<!-- topo.command.analysis.measure_corner_or_pref -->
<g id="node37" class="node"><title>topo.command.analysis.measure_corner_or_pref</title>
<polygon fill="none" stroke="black" stroke-width="0.5" points="1511,-276.5 1259,-276.5 1259,-255.5 1511,-255.5 1511,-276.5"/>
<text text-anchor="middle" x="1385" y="-263.5" font-family="Vera" font-size="10.00">topo.command.analysis.measure_corner_or_pref</text>
</g>
<!-- topo.analysis.featureresponses.PositionMeasurementCommand&#45;&gt;topo.command.analysis.measure_corner_or_pref -->
<g id="edge36" class="edge"><title>topo.analysis.featureresponses.PositionMeasurementCommand&#45;&gt;topo.command.analysis.measure_corner_or_pref</title>
<path fill="none" stroke="black" stroke-width="0.5" d="M1198.24,-271.351C1216.87,-270.817 1235.69,-270.278 1253.84,-269.758"/>
<polygon fill="black" stroke="black" points="1253.99,-271.505 1258.94,-269.612 1253.89,-268.006 1253.99,-271.505"/>
</g>
<!-- topo.command.analysis.measure_corner_angle_pref -->
<g id="node48" class="node"><title>topo.command.analysis.measure_corner_angle_pref</title>
<polygon fill="none" stroke="black" stroke-width="0.5" points="1519,-238.5 1251,-238.5 1251,-217.5 1519,-217.5 1519,-238.5"/>
<text text-anchor="middle" x="1385" y="-225.5" font-family="Vera" font-size="10.00">topo.command.analysis.measure_corner_angle_pref</text>
</g>
<!-- topo.analysis.featureresponses.PositionMeasurementCommand&#45;&gt;topo.command.analysis.measure_corner_angle_pref -->
<g id="edge46" class="edge"><title>topo.analysis.featureresponses.PositionMeasurementCommand&#45;&gt;topo.command.analysis.measure_corner_angle_pref</title>
<path fill="none" stroke="black" stroke-width="0.5" d="M1155.61,-265.97C1175.2,-263.543 1195.23,-260.584 1214,-257 1230.31,-253.886 1233.74,-250.387 1250,-247 1264.88,-243.899 1280.8,-241.158 1296.29,-238.792"/>
<polygon fill="black" stroke="black" points="1296.84,-240.478 1301.53,-238.004 1296.32,-237.017 1296.84,-240.478"/>
</g>
<!-- param.parameterized.ParameterizedFunction&#45;&gt;topo.analysis.featureresponses.MeasureResponseCommand -->
<g id="edge30" class="edge"><title>param.parameterized.ParameterizedFunction&#45;&gt;topo.analysis.featureresponses.MeasureResponseCommand</title>
<path fill="none" stroke="black" stroke-width="0.5" d="M369.08,-143.055C425.269,-168.645 573.531,-236.165 634.371,-263.873"/>
<polygon fill="black" stroke="black" points="633.669,-265.476 638.945,-265.956 635.119,-262.291 633.669,-265.476"/>
</g>
<!-- param.parameterized.ParameterizedFunction&#45;&gt;topo.plotting.plotgroup.ProjectionSheetMeasurementCommand -->
<g id="edge50" class="edge"><title>param.parameterized.ParameterizedFunction&#45;&gt;topo.plotting.plotgroup.ProjectionSheetMeasurementCommand</title>
<path fill="none" stroke="black" stroke-width="0.5" d="M455.501,-143.021C485.161,-145.76 517.382,-148.736 547.323,-151.501"/>
<polygon fill="black" stroke="black" points="547.355,-153.262 552.495,-151.979 547.677,-149.776 547.355,-153.262"/>
</g>
<!-- topo.command.analysis.save_plotgroup -->
<g id="node54" class="node"><title>topo.command.analysis.save_plotgroup</title>
<polygon fill="none" stroke="black" stroke-width="0.5" points="765,-134.5 557,-134.5 557,-113.5 765,-113.5 765,-134.5"/>
<text text-anchor="middle" x="661" y="-121.5" font-family="Vera" font-size="10.00">topo.command.analysis.save_plotgroup</text>
</g>
<!-- param.parameterized.ParameterizedFunction&#45;&gt;topo.command.analysis.save_plotgroup -->
<g id="edge54" class="edge"><title>param.parameterized.ParameterizedFunction&#45;&gt;topo.command.analysis.save_plotgroup</title>
<path fill="none" stroke="black" stroke-width="0.5" d="M464.369,-129.636C492.984,-128.816 523.479,-127.942 551.702,-127.133"/>
<polygon fill="black" stroke="black" points="551.997,-128.875 556.945,-126.982 551.897,-125.377 551.997,-128.875"/>
</g>
<!-- topo.command.analysis.latency_mapper -->
<g id="node39" class="node"><title>topo.command.analysis.latency_mapper</title>
<polygon fill="none" stroke="black" stroke-width="0.5" points="767,-96.5 555,-96.5 555,-75.5 767,-75.5 767,-96.5"/>
<text text-anchor="middle" x="661" y="-83.5" font-family="Vera" font-size="10.00">topo.command.analysis.latency_mapper</text>
</g>
<!-- imagen.patterngenerator.PatternGenerator&#45;&gt;topo.command.analysis.latency_mapper -->
<g id="edge38" class="edge"><title>imagen.patterngenerator.PatternGenerator&#45;&gt;topo.command.analysis.latency_mapper</title>
<path fill="none" stroke="black" stroke-width="0.5" d="M459.031,-79.5679C488.501,-80.5064 520.279,-81.5184 549.709,-82.4557"/>
<polygon fill="black" stroke="black" points="549.739,-84.2075 554.792,-82.6176 549.851,-80.7092 549.739,-84.2075"/>
</g>
<!-- topo.command.analysis.log_frequency_mapper -->
<g id="node44" class="node"><title>topo.command.analysis.log_frequency_mapper</title>
<polygon fill="none" stroke="black" stroke-width="0.5" points="783,-58.5 539,-58.5 539,-37.5 783,-37.5 783,-58.5"/>
<text text-anchor="middle" x="661" y="-45.5" font-family="Vera" font-size="10.00">topo.command.analysis.log_frequency_mapper</text>
</g>
<!-- imagen.patterngenerator.PatternGenerator&#45;&gt;topo.command.analysis.log_frequency_mapper -->
<g id="edge42" class="edge"><title>imagen.patterngenerator.PatternGenerator&#45;&gt;topo.command.analysis.log_frequency_mapper</title>
<path fill="none" stroke="black" stroke-width="0.5" d="M459.031,-66.0099C486.472,-63.563 515.915,-60.9375 543.6,-58.4688"/>
<polygon fill="black" stroke="black" points="543.923,-60.197 548.748,-58.0098 543.612,-56.7109 543.923,-60.197"/>
</g>
<!-- topo.command.analysis.frequency_mapper -->
<g id="node52" class="node"><title>topo.command.analysis.frequency_mapper</title>
<polygon fill="none" stroke="black" stroke-width="0.5" points="773,-20.5 549,-20.5 549,0.5 773,0.5 773,-20.5"/>
<text text-anchor="middle" x="661" y="-7.5" font-family="Vera" font-size="10.00">topo.command.analysis.frequency_mapper</text>
</g>
<!-- imagen.patterngenerator.PatternGenerator&#45;&gt;topo.command.analysis.frequency_mapper -->
<g id="edge52" class="edge"><title>imagen.patterngenerator.PatternGenerator&#45;&gt;topo.command.analysis.frequency_mapper</title>
<path fill="none" stroke="black" stroke-width="0.5" d="M437.742,-65.9338C446.796,-63.553 455.7,-60.6177 464,-57 482.582,-48.9014 481.247,-36.6924 500,-29 513.686,-23.3861 528.539,-19.2765 543.502,-16.2901"/>
<polygon fill="black" stroke="black" points="543.997,-17.9774 548.58,-15.3199 543.34,-14.5396 543.997,-17.9774"/>
</g>
</g>
</svg>
