<?xml version="1.0" encoding="UTF-8" standalone="no"?>
<!DOCTYPE svg PUBLIC "-//W3C//DTD SVG 1.1//EN"
 "http://www.w3.org/Graphics/SVG/1.1/DTD/svg11.dtd">
<!-- Generated by graphviz version 2.26.3 (20100126.1600)
 -->
<!-- Title: inheritance23d65fc6d3 Pages: 1 -->
<svg width="992pt" height="104pt"
 viewBox="0.00 0.00 992.00 104.00" xmlns="http://www.w3.org/2000/svg" xmlns:xlink="http://www.w3.org/1999/xlink">
<g id="graph1" class="graph" transform="scale(1 1) rotate(0) translate(4 100)">
<title>inheritance23d65fc6d3</title>
<polygon fill="white" stroke="white" points="-4,5 -4,-100 989,-100 989,5 -4,5"/>
<!-- param.parameterized.Parameterized -->
<g id="node1" class="node"><title>param.parameterized.Parameterized</title>
<polygon fill="none" stroke="black" stroke-width="0.5" points="194,-58.5 5.68434e-14,-58.5 0,-37.5 194,-37.5 194,-58.5"/>
<text text-anchor="middle" x="97" y="-45.5" font-family="Vera" font-size="10.00">param.parameterized.Parameterized</text>
</g>
<!-- topo.base.cf.CFPResponseFn -->
<g id="node2" class="node"><title>topo.base.cf.CFPResponseFn</title>
<polygon fill="none" stroke="black" stroke-width="0.5" points="383,-58.5 231,-58.5 231,-37.5 383,-37.5 383,-58.5"/>
<text text-anchor="middle" x="307" y="-45.5" font-family="Vera" font-size="10.00">topo.base.cf.CFPResponseFn</text>
</g>
<!-- param.parameterized.Parameterized&#45;&gt;topo.base.cf.CFPResponseFn -->
<g id="edge2" class="edge"><title>param.parameterized.Parameterized&#45;&gt;topo.base.cf.CFPResponseFn</title>
<path fill="none" stroke="black" stroke-width="0.5" d="M194.009,-48C204.35,-48 214.795,-48 224.94,-48"/>
<polygon fill="black" stroke="black" points="225.216,-49.7501 230.216,-48 225.216,-46.2501 225.216,-49.7501"/>
</g>
<!-- topo.responsefn.optimized.CFPRF_DotProduct_opt -->
<g id="node4" class="node"><title>topo.responsefn.optimized.CFPRF_DotProduct_opt</title>
<polygon fill="none" stroke="black" stroke-width="0.5" points="694,-96.5 438,-96.5 438,-75.5 694,-75.5 694,-96.5"/>
<text text-anchor="middle" x="566" y="-83.5" font-family="Vera" font-size="10.00">topo.responsefn.optimized.CFPRF_DotProduct_opt</text>
</g>
<!-- topo.base.cf.CFPResponseFn&#45;&gt;topo.responsefn.optimized.CFPRF_DotProduct_opt -->
<g id="edge4" class="edge"><title>topo.base.cf.CFPResponseFn&#45;&gt;topo.responsefn.optimized.CFPRF_DotProduct_opt</title>
<path fill="none" stroke="black" stroke-width="0.5" d="M364.13,-58.0304C381.999,-61.0534 401.8,-64.2866 420,-67 439.344,-69.884 460.168,-72.7413 479.858,-75.3304"/>
<polygon fill="black" stroke="black" points="479.653,-77.0684 484.838,-75.9826 480.108,-73.598 479.653,-77.0684"/>
</g>
<!-- topo.base.cf.CFPRF_Plugin -->
<g id="node7" class="node"><title>topo.base.cf.CFPRF_Plugin</title>
<polygon fill="none" stroke="black" stroke-width="0.5" points="636,-58.5 496,-58.5 496,-37.5 636,-37.5 636,-58.5"/>
<text text-anchor="middle" x="566" y="-45.5" font-family="Vera" font-size="10.00">topo.base.cf.CFPRF_Plugin</text>
</g>
<!-- topo.base.cf.CFPResponseFn&#45;&gt;topo.base.cf.CFPRF_Plugin -->
<g id="edge10" class="edge"><title>topo.base.cf.CFPResponseFn&#45;&gt;topo.base.cf.CFPRF_Plugin</title>
<path fill="none" stroke="black" stroke-width="0.5" d="M383.657,-48C417.214,-48 456.485,-48 489.971,-48"/>
<polygon fill="black" stroke="black" points="490.293,-49.7501 495.293,-48 490.293,-46.2501 490.293,-49.7501"/>
</g>
<!-- topo.responsefn.optimized.CFPRF_EuclideanDistance_opt -->
<g id="node9" class="node"><title>topo.responsefn.optimized.CFPRF_EuclideanDistance_opt</title>
<polygon fill="none" stroke="black" stroke-width="0.5" points="711,-20.5 421,-20.5 421,0.5 711,0.5 711,-20.5"/>
<text text-anchor="middle" x="566" y="-7.5" font-family="Vera" font-size="10.00">topo.responsefn.optimized.CFPRF_EuclideanDistance_opt</text>
</g>
<!-- topo.base.cf.CFPResponseFn&#45;&gt;topo.responsefn.optimized.CFPRF_EuclideanDistance_opt -->
<g id="edge8" class="edge"><title>topo.base.cf.CFPResponseFn&#45;&gt;topo.responsefn.optimized.CFPRF_EuclideanDistance_opt</title>
<path fill="none" stroke="black" stroke-width="0.5" d="M364.13,-37.9696C381.999,-34.9466 401.8,-31.7134 420,-29 439.344,-26.116 460.168,-23.2587 479.858,-20.6696"/>
<polygon fill="black" stroke="black" points="480.108,-22.402 484.838,-20.0174 479.653,-18.9316 480.108,-22.402"/>
</g>
<!-- topo.responsefn.optimized.CFPRF_DotProduct -->
<g id="node6" class="node"><title>topo.responsefn.optimized.CFPRF_DotProduct</title>
<polygon fill="none" stroke="black" stroke-width="0.5" points="984,-58.5 748,-58.5 748,-37.5 984,-37.5 984,-58.5"/>
<text text-anchor="middle" x="866" y="-45.5" font-family="Vera" font-size="10.00">topo.responsefn.optimized.CFPRF_DotProduct</text>
</g>
<!-- topo.base.cf.CFPRF_Plugin&#45;&gt;topo.responsefn.optimized.CFPRF_DotProduct -->
<g id="edge6" class="edge"><title>topo.base.cf.CFPRF_Plugin&#45;&gt;topo.responsefn.optimized.CFPRF_DotProduct</title>
<path fill="none" stroke="black" stroke-width="0.5" d="M636.716,-48C668.334,-48 706.548,-48 742.637,-48"/>
<polygon fill="black" stroke="black" points="742.945,-49.7501 747.945,-48 742.945,-46.2501 742.945,-49.7501"/>
</g>
</g>
</svg>
