<?xml version="1.0" encoding="UTF-8" standalone="no"?>
<!DOCTYPE svg PUBLIC "-//W3C//DTD SVG 1.1//EN"
 "http://www.w3.org/Graphics/SVG/1.1/DTD/svg11.dtd">
<!-- Generated by graphviz version 2.26.3 (20100126.1600)
 -->
<!-- Title: inheritancece7c9332fe Pages: 1 -->
<svg width="888pt" height="28pt"
 viewBox="0.00 0.00 888.00 28.00" xmlns="http://www.w3.org/2000/svg" xmlns:xlink="http://www.w3.org/1999/xlink">
<g id="graph1" class="graph" transform="scale(1 1) rotate(0) translate(4 24)">
<title>inheritancece7c9332fe</title>
<polygon fill="white" stroke="white" points="-4,5 -4,-24 885,-24 885,5 -4,5"/>
<!-- imagen.image.GenericImage -->
<g id="node1" class="node"><title>imagen.image.GenericImage</title>
<polygon fill="none" stroke="black" stroke-width="0.5" points="645,-20.5 491,-20.5 491,0.5 645,0.5 645,-20.5"/>
<text text-anchor="middle" x="568" y="-7.5" font-family="Vera" font-size="10.00">imagen.image.GenericImage</text>
</g>
<!-- imagen.opencvcamera.CameraImage -->
<g id="node6" class="node"><title>imagen.opencvcamera.CameraImage</title>
<polygon fill="none" stroke="black" stroke-width="0.5" points="880,-20.5 682,-20.5 682,0.5 880,0.5 880,-20.5"/>
<text text-anchor="middle" x="781" y="-7.5" font-family="Vera" font-size="10.00">imagen.opencvcamera.CameraImage</text>
</g>
<!-- imagen.image.GenericImage&#45;&gt;imagen.opencvcamera.CameraImage -->
<g id="edge6" class="edge"><title>imagen.image.GenericImage&#45;&gt;imagen.opencvcamera.CameraImage</title>
<path fill="none" stroke="black" stroke-width="0.5" d="M645.5,-10C655.62,-10 666.119,-10 676.59,-10"/>
<polygon fill="black" stroke="black" points="676.726,-11.7501 681.726,-10 676.726,-8.2501 676.726,-11.7501"/>
</g>
<!-- imagen.patterngenerator.PatternGenerator -->
<g id="node2" class="node"><title>imagen.patterngenerator.PatternGenerator</title>
<polygon fill="none" stroke="black" stroke-width="0.5" points="454,-20.5 230,-20.5 230,0.5 454,0.5 454,-20.5"/>
<text text-anchor="middle" x="342" y="-7.5" font-family="Vera" font-size="10.00">imagen.patterngenerator.PatternGenerator</text>
</g>
<!-- imagen.patterngenerator.PatternGenerator&#45;&gt;imagen.image.GenericImage -->
<g id="edge2" class="edge"><title>imagen.patterngenerator.PatternGenerator&#45;&gt;imagen.image.GenericImage</title>
<path fill="none" stroke="black" stroke-width="0.5" d="M454.007,-10C464.498,-10 475.001,-10 485.154,-10"/>
<polygon fill="black" stroke="black" points="485.429,-11.7501 490.429,-10 485.429,-8.25009 485.429,-11.7501"/>
</g>
<!-- param.parameterized.Parameterized -->
<g id="node4" class="node"><title>param.parameterized.Parameterized</title>
<polygon fill="none" stroke="black" stroke-width="0.5" points="194,-20.5 5.68434e-14,-20.5 0,0.5 194,0.5 194,-20.5"/>
<text text-anchor="middle" x="97" y="-7.5" font-family="Vera" font-size="10.00">param.parameterized.Parameterized</text>
</g>
<!-- param.parameterized.Parameterized&#45;&gt;imagen.patterngenerator.PatternGenerator -->
<g id="edge4" class="edge"><title>param.parameterized.Parameterized&#45;&gt;imagen.patterngenerator.PatternGenerator</title>
<path fill="none" stroke="black" stroke-width="0.5" d="M194.182,-10C204.286,-10 214.629,-10 224.922,-10"/>
<polygon fill="black" stroke="black" points="224.969,-11.7501 229.969,-10 224.969,-8.2501 224.969,-11.7501"/>
</g>
</g>
</svg>
