<?xml version="1.0" encoding="UTF-8" standalone="no"?>
<!DOCTYPE svg PUBLIC "-//W3C//DTD SVG 1.1//EN"
 "http://www.w3.org/Graphics/SVG/1.1/DTD/svg11.dtd">
<!-- Generated by graphviz version 2.26.3 (20100126.1600)
 -->
<!-- Title: inheritance67133f51a2 Pages: 1 -->
<svg width="704pt" height="142pt"
 viewBox="0.00 0.00 704.00 142.00" xmlns="http://www.w3.org/2000/svg" xmlns:xlink="http://www.w3.org/1999/xlink">
<g id="graph1" class="graph" transform="scale(1 1) rotate(0) translate(4 138)">
<title>inheritance67133f51a2</title>
<polygon fill="white" stroke="white" points="-4,5 -4,-138 701,-138 701,5 -4,5"/>
<!-- topo.tests.unit.sheetmask_setup.RightColMask -->
<g id="node1" class="node"><title>topo.tests.unit.sheetmask_setup.RightColMask</title>
<polygon fill="none" stroke="black" stroke-width="0.5" points="688,-134.5 446,-134.5 446,-113.5 688,-113.5 688,-134.5"/>
<text text-anchor="middle" x="567" y="-121.5" font-family="Vera" font-size="10.00">topo.tests.unit.sheetmask_setup.RightColMask</text>
</g>
<!-- topo.base.projection.SheetMask -->
<g id="node2" class="node"><title>topo.base.projection.SheetMask</title>
<polygon fill="none" stroke="black" stroke-width="0.5" points="401,-77.5 231,-77.5 231,-56.5 401,-56.5 401,-77.5"/>
<text text-anchor="middle" x="316" y="-64.5" font-family="Vera" font-size="10.00">topo.base.projection.SheetMask</text>
</g>
<!-- topo.base.projection.SheetMask&#45;&gt;topo.tests.unit.sheetmask_setup.RightColMask -->
<g id="edge2" class="edge"><title>topo.base.projection.SheetMask&#45;&gt;topo.tests.unit.sheetmask_setup.RightColMask</title>
<path fill="none" stroke="black" stroke-width="0.5" d="M343.767,-77.0088C368.278,-85.5152 405.123,-97.5067 438,-105 451.564,-108.091 466.049,-110.794 480.232,-113.115"/>
<polygon fill="black" stroke="black" points="480.226,-114.887 485.441,-113.953 480.782,-111.431 480.226,-114.887"/>
</g>
<!-- topo.tests.unit.sheetmask_setup.BottomRowMask -->
<g id="node4" class="node"><title>topo.tests.unit.sheetmask_setup.BottomRowMask</title>
<polygon fill="none" stroke="black" stroke-width="0.5" points="695,-96.5 439,-96.5 439,-75.5 695,-75.5 695,-96.5"/>
<text text-anchor="middle" x="567" y="-83.5" font-family="Vera" font-size="10.00">topo.tests.unit.sheetmask_setup.BottomRowMask</text>
</g>
<!-- topo.base.projection.SheetMask&#45;&gt;topo.tests.unit.sheetmask_setup.BottomRowMask -->
<g id="edge4" class="edge"><title>topo.base.projection.SheetMask&#45;&gt;topo.tests.unit.sheetmask_setup.BottomRowMask</title>
<path fill="none" stroke="black" stroke-width="0.5" d="M401.678,-73.4856C411.808,-74.2524 422.324,-75.0484 432.922,-75.8506"/>
<polygon fill="black" stroke="black" points="433.012,-77.6124 438.13,-76.2449 433.276,-74.1224 433.012,-77.6124"/>
</g>
<!-- topo.tests.unit.sheetmask_setup.LeftColMask -->
<g id="node6" class="node"><title>topo.tests.unit.sheetmask_setup.LeftColMask</title>
<polygon fill="none" stroke="black" stroke-width="0.5" points="685,-58.5 449,-58.5 449,-37.5 685,-37.5 685,-58.5"/>
<text text-anchor="middle" x="567" y="-45.5" font-family="Vera" font-size="10.00">topo.tests.unit.sheetmask_setup.LeftColMask</text>
</g>
<!-- topo.base.projection.SheetMask&#45;&gt;topo.tests.unit.sheetmask_setup.LeftColMask -->
<g id="edge6" class="edge"><title>topo.base.projection.SheetMask&#45;&gt;topo.tests.unit.sheetmask_setup.LeftColMask</title>
<path fill="none" stroke="black" stroke-width="0.5" d="M401.678,-60.5144C415.212,-59.4899 429.435,-58.4133 443.622,-57.3394"/>
<polygon fill="black" stroke="black" points="443.992,-59.0665 448.845,-56.944 443.728,-55.5765 443.992,-59.0665"/>
</g>
<!-- topo.tests.unit.sheetmask_setup.TopRowMask -->
<g id="node10" class="node"><title>topo.tests.unit.sheetmask_setup.TopRowMask</title>
<polygon fill="none" stroke="black" stroke-width="0.5" points="685,-20.5 449,-20.5 449,0.5 685,0.5 685,-20.5"/>
<text text-anchor="middle" x="567" y="-7.5" font-family="Vera" font-size="10.00">topo.tests.unit.sheetmask_setup.TopRowMask</text>
</g>
<!-- topo.base.projection.SheetMask&#45;&gt;topo.tests.unit.sheetmask_setup.TopRowMask -->
<g id="edge10" class="edge"><title>topo.base.projection.SheetMask&#45;&gt;topo.tests.unit.sheetmask_setup.TopRowMask</title>
<path fill="none" stroke="black" stroke-width="0.5" d="M343.767,-56.9912C368.278,-48.4848 405.123,-36.4933 438,-29 451.564,-25.9086 466.049,-23.2065 480.232,-20.8849"/>
<polygon fill="black" stroke="black" points="480.782,-22.5689 485.441,-20.0468 480.226,-19.1134 480.782,-22.5689"/>
</g>
<!-- param.parameterized.Parameterized -->
<g id="node8" class="node"><title>param.parameterized.Parameterized</title>
<polygon fill="none" stroke="black" stroke-width="0.5" points="194,-77.5 5.68434e-14,-77.5 0,-56.5 194,-56.5 194,-77.5"/>
<text text-anchor="middle" x="97" y="-64.5" font-family="Vera" font-size="10.00">param.parameterized.Parameterized</text>
</g>
<!-- param.parameterized.Parameterized&#45;&gt;topo.base.projection.SheetMask -->
<g id="edge8" class="edge"><title>param.parameterized.Parameterized&#45;&gt;topo.base.projection.SheetMask</title>
<path fill="none" stroke="black" stroke-width="0.5" d="M194.013,-67C204.435,-67 215.01,-67 225.354,-67"/>
<polygon fill="black" stroke="black" points="225.411,-68.7501 230.411,-67 225.411,-65.2501 225.411,-68.7501"/>
</g>
</g>
</svg>
