<?xml version="1.0" encoding="UTF-8" standalone="no"?>
<!DOCTYPE svg PUBLIC "-//W3C//DTD SVG 1.1//EN"
 "http://www.w3.org/Graphics/SVG/1.1/DTD/svg11.dtd">
<!-- Generated by graphviz version 2.26.3 (20100126.1600)
 -->
<!-- Title: inheritance1d39487c30 Pages: 1 -->
<svg width="1064pt" height="280pt"
 viewBox="0.00 0.00 1064.00 280.00" xmlns="http://www.w3.org/2000/svg" xmlns:xlink="http://www.w3.org/1999/xlink">
<g id="graph1" class="graph" transform="scale(1 1) rotate(0) translate(4 276)">
<title>inheritance1d39487c30</title>
<polygon fill="white" stroke="white" points="-4,5 -4,-276 1061,-276 1061,5 -4,5"/>
<!-- param.parameterized.Parameterized -->
<g id="node1" class="node"><title>param.parameterized.Parameterized</title>
<polygon fill="none" stroke="black" stroke-width="0.5" points="194,-39.5 5.68434e-14,-39.5 0,-18.5 194,-18.5 194,-39.5"/>
<text text-anchor="middle" x="97" y="-26.5" font-family="Vera" font-size="10.00">param.parameterized.Parameterized</text>
</g>
<!-- topo.tkgui.editor.ModelEditor -->
<g id="node10" class="node"><title>topo.tkgui.editor.ModelEditor</title>
<polygon fill="none" stroke="black" stroke-width="0.5" points="397,-39.5 243,-39.5 243,-18.5 397,-18.5 397,-39.5"/>
<text text-anchor="middle" x="320" y="-26.5" font-family="Vera" font-size="10.00">topo.tkgui.editor.ModelEditor</text>
</g>
<!-- param.parameterized.Parameterized&#45;&gt;topo.tkgui.editor.ModelEditor -->
<g id="edge6" class="edge"><title>param.parameterized.Parameterized&#45;&gt;topo.tkgui.editor.ModelEditor</title>
<path fill="none" stroke="black" stroke-width="0.5" d="M194.162,-29C208.692,-29 223.553,-29 237.735,-29"/>
<polygon fill="black" stroke="black" points="237.927,-30.7501 242.927,-29 237.927,-27.2501 237.927,-30.7501"/>
</g>
<!-- Tkinter.Frame -->
<g id="node2" class="node"><title>Tkinter.Frame</title>
<polygon fill="none" stroke="black" stroke-width="0.5" points="801,-96.5 721,-96.5 721,-75.5 801,-75.5 801,-96.5"/>
<text text-anchor="middle" x="761" y="-83.5" font-family="Vera" font-size="10.00">Tkinter.Frame</text>
</g>
<!-- topo.tkgui.editor.ArrowTool -->
<g id="node15" class="node"><title>topo.tkgui.editor.ArrowTool</title>
<polygon fill="none" stroke="black" stroke-width="0.5" points="1041,-134.5 899,-134.5 899,-113.5 1041,-113.5 1041,-134.5"/>
<text text-anchor="middle" x="970" y="-121.5" font-family="Vera" font-size="10.00">topo.tkgui.editor.ArrowTool</text>
</g>
<!-- Tkinter.Frame&#45;&gt;topo.tkgui.editor.ArrowTool -->
<g id="edge10" class="edge"><title>Tkinter.Frame&#45;&gt;topo.tkgui.editor.ArrowTool</title>
<path fill="none" stroke="black" stroke-width="0.5" d="M801.793,-93.417C832.478,-98.9959 875.012,-106.729 909.631,-113.024"/>
<polygon fill="black" stroke="black" points="909.446,-114.769 914.679,-113.942 910.072,-111.325 909.446,-114.769"/>
</g>
<!-- topo.tkgui.editor.NodeTool -->
<g id="node17" class="node"><title>topo.tkgui.editor.NodeTool</title>
<polygon fill="none" stroke="black" stroke-width="0.5" points="1040,-96.5 900,-96.5 900,-75.5 1040,-75.5 1040,-96.5"/>
<text text-anchor="middle" x="970" y="-83.5" font-family="Vera" font-size="10.00">topo.tkgui.editor.NodeTool</text>
</g>
<!-- Tkinter.Frame&#45;&gt;topo.tkgui.editor.NodeTool -->
<g id="edge12" class="edge"><title>Tkinter.Frame&#45;&gt;topo.tkgui.editor.NodeTool</title>
<path fill="none" stroke="black" stroke-width="0.5" d="M801.793,-86C827.959,-86 862.741,-86 893.884,-86"/>
<polygon fill="black" stroke="black" points="894.25,-87.7501 899.25,-86 894.25,-84.2501 894.25,-87.7501"/>
</g>
<!-- topo.tkgui.editor.ConnectionTool -->
<g id="node19" class="node"><title>topo.tkgui.editor.ConnectionTool</title>
<polygon fill="none" stroke="black" stroke-width="0.5" points="1055,-58.5 885,-58.5 885,-37.5 1055,-37.5 1055,-58.5"/>
<text text-anchor="middle" x="970" y="-45.5" font-family="Vera" font-size="10.00">topo.tkgui.editor.ConnectionTool</text>
</g>
<!-- Tkinter.Frame&#45;&gt;topo.tkgui.editor.ConnectionTool -->
<g id="edge14" class="edge"><title>Tkinter.Frame&#45;&gt;topo.tkgui.editor.ConnectionTool</title>
<path fill="none" stroke="black" stroke-width="0.5" d="M801.793,-78.583C832.478,-73.0041 875.012,-65.2705 909.631,-58.9762"/>
<polygon fill="black" stroke="black" points="910.072,-60.6747 914.679,-58.0584 909.446,-57.2312 910.072,-60.6747"/>
</g>
<!-- topo.tkgui.editor.ParametersTool -->
<g id="node23" class="node"><title>topo.tkgui.editor.ParametersTool</title>
<polygon fill="none" stroke="black" stroke-width="0.5" points="1055,-20.5 885,-20.5 885,0.5 1055,0.5 1055,-20.5"/>
<text text-anchor="middle" x="970" y="-7.5" font-family="Vera" font-size="10.00">topo.tkgui.editor.ParametersTool</text>
</g>
<!-- Tkinter.Frame&#45;&gt;topo.tkgui.editor.ParametersTool -->
<g id="edge18" class="edge"><title>Tkinter.Frame&#45;&gt;topo.tkgui.editor.ParametersTool</title>
<path fill="none" stroke="black" stroke-width="0.5" d="M779.65,-75.8002C803.307,-63.2309 845.647,-41.9527 884,-29 892.556,-26.1104 901.742,-23.5427 910.811,-21.3024"/>
<polygon fill="black" stroke="black" points="911.383,-22.9648 915.833,-20.0914 910.562,-19.5623 911.383,-22.9648"/>
</g>
<!-- Tkinter.Widget -->
<g id="node3" class="node"><title>Tkinter.Widget</title>
<polygon fill="none" stroke="black" stroke-width="0.5" points="583,-115.5 501,-115.5 501,-94.5 583,-94.5 583,-115.5"/>
<text text-anchor="middle" x="542" y="-102.5" font-family="Vera" font-size="10.00">Tkinter.Widget</text>
</g>
<!-- Tkinter.Widget&#45;&gt;Tkinter.Frame -->
<g id="edge2" class="edge"><title>Tkinter.Widget&#45;&gt;Tkinter.Frame</title>
<path fill="none" stroke="black" stroke-width="0.5" d="M583.708,-101.382C621.239,-98.1254 676.289,-93.3494 715.067,-89.985"/>
<polygon fill="black" stroke="black" points="715.359,-91.7164 720.189,-89.5407 715.056,-88.2295 715.359,-91.7164"/>
</g>
<!-- Tkinter.Canvas -->
<g id="node13" class="node"><title>Tkinter.Canvas</title>
<polygon fill="none" stroke="black" stroke-width="0.5" points="804,-167.5 718,-167.5 718,-146.5 804,-146.5 804,-167.5"/>
<text text-anchor="middle" x="761" y="-154.5" font-family="Vera" font-size="10.00">Tkinter.Canvas</text>
</g>
<!-- Tkinter.Widget&#45;&gt;Tkinter.Canvas -->
<g id="edge36" class="edge"><title>Tkinter.Widget&#45;&gt;Tkinter.Canvas</title>
<path fill="none" stroke="black" stroke-width="0.5" d="M583.708,-114.903C620.764,-123.702 674.898,-136.556 713.587,-145.742"/>
<polygon fill="black" stroke="black" points="713.433,-147.504 718.702,-146.957 714.241,-144.099 713.433,-147.504"/>
</g>
<!-- Tkinter.YView -->
<g id="node5" class="node"><title>Tkinter.YView</title>
<polygon fill="none" stroke="black" stroke-width="0.5" points="581,-196.5 503,-196.5 503,-175.5 581,-175.5 581,-196.5"/>
<text text-anchor="middle" x="542" y="-183.5" font-family="Vera" font-size="10.00">Tkinter.YView</text>
</g>
<!-- Tkinter.YView&#45;&gt;Tkinter.Canvas -->
<g id="edge40" class="edge"><title>Tkinter.YView&#45;&gt;Tkinter.Canvas</title>
<path fill="none" stroke="black" stroke-width="0.5" d="M581.153,-180.815C617.889,-175.951 672.945,-168.66 712.458,-163.428"/>
<polygon fill="black" stroke="black" points="712.957,-165.127 717.684,-162.736 712.497,-161.658 712.957,-165.127"/>
</g>
<!-- topo.tkgui.editor.EditorEPConnection -->
<g id="node6" class="node"><title>topo.tkgui.editor.EditorEPConnection</title>
<polygon fill="none" stroke="black" stroke-width="0.5" points="637,-272.5 447,-272.5 447,-251.5 637,-251.5 637,-272.5"/>
<text text-anchor="middle" x="542" y="-259.5" font-family="Vera" font-size="10.00">topo.tkgui.editor.EditorEPConnection</text>
</g>
<!-- topo.tkgui.editor.EditorProjection -->
<g id="node40" class="node"><title>topo.tkgui.editor.EditorProjection</title>
<polygon fill="none" stroke="black" stroke-width="0.5" points="847,-272.5 675,-272.5 675,-251.5 847,-251.5 847,-272.5"/>
<text text-anchor="middle" x="761" y="-259.5" font-family="Vera" font-size="10.00">topo.tkgui.editor.EditorProjection</text>
</g>
<!-- topo.tkgui.editor.EditorEPConnection&#45;&gt;topo.tkgui.editor.EditorProjection -->
<g id="edge34" class="edge"><title>topo.tkgui.editor.EditorEPConnection&#45;&gt;topo.tkgui.editor.EditorProjection</title>
<path fill="none" stroke="black" stroke-width="0.5" d="M637.738,-262C648.223,-262 658.878,-262 669.312,-262"/>
<polygon fill="black" stroke="black" points="669.415,-263.75 674.415,-262 669.415,-260.25 669.415,-263.75"/>
</g>
<!-- topo.tkgui.editor.EditorConnection -->
<g id="node7" class="node"><title>topo.tkgui.editor.EditorConnection</title>
<polygon fill="none" stroke="black" stroke-width="0.5" points="409,-272.5 231,-272.5 231,-251.5 409,-251.5 409,-272.5"/>
<text text-anchor="middle" x="320" y="-259.5" font-family="Vera" font-size="10.00">topo.tkgui.editor.EditorConnection</text>
</g>
<!-- topo.tkgui.editor.EditorConnection&#45;&gt;topo.tkgui.editor.EditorEPConnection -->
<g id="edge4" class="edge"><title>topo.tkgui.editor.EditorConnection&#45;&gt;topo.tkgui.editor.EditorEPConnection</title>
<path fill="none" stroke="black" stroke-width="0.5" d="M409.656,-262C419.998,-262 430.596,-262 441.074,-262"/>
<polygon fill="black" stroke="black" points="441.206,-263.75 446.206,-262 441.206,-260.25 441.206,-263.75"/>
</g>
<!-- Tkinter.Misc -->
<g id="node9" class="node"><title>Tkinter.Misc</title>
<polygon fill="none" stroke="black" stroke-width="0.5" points="133,-77.5 61,-77.5 61,-56.5 133,-56.5 133,-77.5"/>
<text text-anchor="middle" x="97" y="-64.5" font-family="Vera" font-size="10.00">Tkinter.Misc</text>
</g>
<!-- Tkinter.BaseWidget -->
<g id="node30" class="node"><title>Tkinter.BaseWidget</title>
<polygon fill="none" stroke="black" stroke-width="0.5" points="373,-77.5 267,-77.5 267,-56.5 373,-56.5 373,-77.5"/>
<text text-anchor="middle" x="320" y="-64.5" font-family="Vera" font-size="10.00">Tkinter.BaseWidget</text>
</g>
<!-- Tkinter.Misc&#45;&gt;Tkinter.BaseWidget -->
<g id="edge22" class="edge"><title>Tkinter.Misc&#45;&gt;Tkinter.BaseWidget</title>
<path fill="none" stroke="black" stroke-width="0.5" d="M133.325,-67C167.814,-67 220.266,-67 260.798,-67"/>
<polygon fill="black" stroke="black" points="261.182,-68.7501 266.182,-67 261.182,-65.2501 261.182,-68.7501"/>
</g>
<!-- topo.tkgui.editor.EditorCanvas -->
<g id="node12" class="node"><title>topo.tkgui.editor.EditorCanvas</title>
<polygon fill="none" stroke="black" stroke-width="0.5" points="1050,-172.5 890,-172.5 890,-151.5 1050,-151.5 1050,-172.5"/>
<text text-anchor="middle" x="970" y="-159.5" font-family="Vera" font-size="10.00">topo.tkgui.editor.EditorCanvas</text>
</g>
<!-- Tkinter.Canvas&#45;&gt;topo.tkgui.editor.EditorCanvas -->
<g id="edge8" class="edge"><title>Tkinter.Canvas&#45;&gt;topo.tkgui.editor.EditorCanvas</title>
<path fill="none" stroke="black" stroke-width="0.5" d="M804.052,-158.03C827.225,-158.584 856.652,-159.288 884.27,-159.949"/>
<polygon fill="black" stroke="black" points="884.364,-161.702 889.404,-160.072 884.448,-158.203 884.364,-161.702"/>
</g>
<!-- topo.tkgui.editor.EditorObject -->
<g id="node21" class="node"><title>topo.tkgui.editor.EditorObject</title>
<polygon fill="none" stroke="black" stroke-width="0.5" points="175,-253.5 19,-253.5 19,-232.5 175,-232.5 175,-253.5"/>
<text text-anchor="middle" x="97" y="-240.5" font-family="Vera" font-size="10.00">topo.tkgui.editor.EditorObject</text>
</g>
<!-- topo.tkgui.editor.EditorObject&#45;&gt;topo.tkgui.editor.EditorConnection -->
<g id="edge16" class="edge"><title>topo.tkgui.editor.EditorObject&#45;&gt;topo.tkgui.editor.EditorConnection</title>
<path fill="none" stroke="black" stroke-width="0.5" d="M175.308,-249.672C191.458,-251.048 208.63,-252.511 225.291,-253.931"/>
<polygon fill="black" stroke="black" points="225.313,-255.689 230.443,-254.37 225.61,-252.201 225.313,-255.689"/>
</g>
<!-- topo.tkgui.editor.EditorNode -->
<g id="node28" class="node"><title>topo.tkgui.editor.EditorNode</title>
<polygon fill="none" stroke="black" stroke-width="0.5" points="395,-234.5 245,-234.5 245,-213.5 395,-213.5 395,-234.5"/>
<text text-anchor="middle" x="320" y="-221.5" font-family="Vera" font-size="10.00">topo.tkgui.editor.EditorNode</text>
</g>
<!-- topo.tkgui.editor.EditorObject&#45;&gt;topo.tkgui.editor.EditorNode -->
<g id="edge20" class="edge"><title>topo.tkgui.editor.EditorObject&#45;&gt;topo.tkgui.editor.EditorNode</title>
<path fill="none" stroke="black" stroke-width="0.5" d="M175.308,-236.328C195.901,-234.573 218.157,-232.677 238.894,-230.91"/>
<polygon fill="black" stroke="black" points="239.298,-232.632 244.132,-230.464 239.001,-229.145 239.298,-232.632"/>
</g>
<!-- Tkinter.Pack -->
<g id="node25" class="node"><title>Tkinter.Pack</title>
<polygon fill="none" stroke="black" stroke-width="0.5" points="356,-191.5 284,-191.5 284,-170.5 356,-170.5 356,-191.5"/>
<text text-anchor="middle" x="320" y="-178.5" font-family="Vera" font-size="10.00">Tkinter.Pack</text>
</g>
<!-- Tkinter.Pack&#45;&gt;Tkinter.Widget -->
<g id="edge26" class="edge"><title>Tkinter.Pack&#45;&gt;Tkinter.Widget</title>
<path fill="none" stroke="black" stroke-width="0.5" d="M356.529,-177.769C373.503,-175.167 393.526,-170.472 410,-162 429.302,-152.073 426.884,-139.281 446,-129 461.083,-120.888 478.976,-115.454 495.204,-111.843"/>
<polygon fill="black" stroke="black" points="495.657,-113.536 500.182,-110.78 494.926,-110.113 495.657,-113.536"/>
</g>
<!-- Tkinter.Place -->
<g id="node26" class="node"><title>Tkinter.Place</title>
<polygon fill="none" stroke="black" stroke-width="0.5" points="358,-153.5 282,-153.5 282,-132.5 358,-132.5 358,-153.5"/>
<text text-anchor="middle" x="320" y="-140.5" font-family="Vera" font-size="10.00">Tkinter.Place</text>
</g>
<!-- Tkinter.Place&#45;&gt;Tkinter.Widget -->
<g id="edge28" class="edge"><title>Tkinter.Place&#45;&gt;Tkinter.Widget</title>
<path fill="none" stroke="black" stroke-width="0.5" d="M358.669,-136.381C396.595,-129.889 454.475,-119.982 495.028,-113.04"/>
<polygon fill="black" stroke="black" points="495.749,-114.692 500.382,-112.124 495.158,-111.243 495.749,-114.692"/>
</g>
<!-- Tkinter.Grid -->
<g id="node27" class="node"><title>Tkinter.Grid</title>
<polygon fill="none" stroke="black" stroke-width="0.5" points="355,-115.5 285,-115.5 285,-94.5 355,-94.5 355,-115.5"/>
<text text-anchor="middle" x="320" y="-102.5" font-family="Vera" font-size="10.00">Tkinter.Grid</text>
</g>
<!-- Tkinter.Grid&#45;&gt;Tkinter.Widget -->
<g id="edge30" class="edge"><title>Tkinter.Grid&#45;&gt;Tkinter.Widget</title>
<path fill="none" stroke="black" stroke-width="0.5" d="M355.668,-105C393.516,-105 453.488,-105 495.13,-105"/>
<polygon fill="black" stroke="black" points="495.37,-106.75 500.37,-105 495.37,-103.25 495.37,-106.75"/>
</g>
<!-- topo.tkgui.editor.EditorEP -->
<g id="node38" class="node"><title>topo.tkgui.editor.EditorEP</title>
<polygon fill="none" stroke="black" stroke-width="0.5" points="610,-234.5 474,-234.5 474,-213.5 610,-213.5 610,-234.5"/>
<text text-anchor="middle" x="542" y="-221.5" font-family="Vera" font-size="10.00">topo.tkgui.editor.EditorEP</text>
</g>
<!-- topo.tkgui.editor.EditorNode&#45;&gt;topo.tkgui.editor.EditorEP -->
<g id="edge42" class="edge"><title>topo.tkgui.editor.EditorNode&#45;&gt;topo.tkgui.editor.EditorEP</title>
<path fill="none" stroke="black" stroke-width="0.5" d="M395.779,-224C419.134,-224 444.811,-224 468.042,-224"/>
<polygon fill="black" stroke="black" points="468.269,-225.75 473.269,-224 468.269,-222.25 468.269,-225.75"/>
</g>
<!-- Tkinter.BaseWidget&#45;&gt;Tkinter.Widget -->
<g id="edge24" class="edge"><title>Tkinter.BaseWidget&#45;&gt;Tkinter.Widget</title>
<path fill="none" stroke="black" stroke-width="0.5" d="M373.74,-76.1987C410.799,-82.5422 459.585,-90.8929 495.078,-96.9683"/>
<polygon fill="black" stroke="black" points="494.991,-98.7289 500.215,-97.8476 495.582,-95.279 494.991,-98.7289"/>
</g>
<!-- Tkinter.XView -->
<g id="node32" class="node"><title>Tkinter.XView</title>
<polygon fill="none" stroke="black" stroke-width="0.5" points="581,-158.5 503,-158.5 503,-137.5 581,-137.5 581,-158.5"/>
<text text-anchor="middle" x="542" y="-145.5" font-family="Vera" font-size="10.00">Tkinter.XView</text>
</g>
<!-- Tkinter.XView&#45;&gt;Tkinter.Canvas -->
<g id="edge38" class="edge"><title>Tkinter.XView&#45;&gt;Tkinter.Canvas</title>
<path fill="none" stroke="black" stroke-width="0.5" d="M581.659,-149.63C618.464,-151.142 673.336,-153.397 712.685,-155.014"/>
<polygon fill="black" stroke="black" points="712.82,-156.771 717.888,-155.228 712.964,-153.274 712.82,-156.771"/>
</g>
<!-- topo.tkgui.editor.EditorSheet -->
<g id="node37" class="node"><title>topo.tkgui.editor.EditorSheet</title>
<polygon fill="none" stroke="black" stroke-width="0.5" points="838,-234.5 684,-234.5 684,-213.5 838,-213.5 838,-234.5"/>
<text text-anchor="middle" x="761" y="-221.5" font-family="Vera" font-size="10.00">topo.tkgui.editor.EditorSheet</text>
</g>
<!-- topo.tkgui.editor.EditorEP&#45;&gt;topo.tkgui.editor.EditorSheet -->
<g id="edge32" class="edge"><title>topo.tkgui.editor.EditorEP&#45;&gt;topo.tkgui.editor.EditorSheet</title>
<path fill="none" stroke="black" stroke-width="0.5" d="M610.692,-224C632.267,-224 656.308,-224 678.724,-224"/>
<polygon fill="black" stroke="black" points="678.78,-225.75 683.78,-224 678.78,-222.25 678.78,-225.75"/>
</g>
</g>
</svg>
