<?xml version="1.0" encoding="UTF-8" standalone="no"?>
<!DOCTYPE svg PUBLIC "-//W3C//DTD SVG 1.1//EN"
 "http://www.w3.org/Graphics/SVG/1.1/DTD/svg11.dtd">
<!-- Generated by graphviz version 2.26.3 (20100126.1600)
 -->
<!-- Title: inheritance1f1dc666b6 Pages: 1 -->
<svg width="964pt" height="170pt"
 viewBox="0.00 0.00 964.00 170.00" xmlns="http://www.w3.org/2000/svg" xmlns:xlink="http://www.w3.org/1999/xlink">
<g id="graph1" class="graph" transform="scale(1 1) rotate(0) translate(4 166)">
<title>inheritance1f1dc666b6</title>
<polygon fill="white" stroke="white" points="-4,5 -4,-166 961,-166 961,5 -4,5"/>
<!-- topo.base.projection.AndMask -->
<g id="node1" class="node"><title>topo.base.projection.AndMask</title>
<polygon fill="none" stroke="black" stroke-width="0.5" points="939,-63.5 779,-63.5 779,-42.5 939,-42.5 939,-63.5"/>
<text text-anchor="middle" x="859" y="-50.5" font-family="Vera" font-size="10.00">topo.base.projection.AndMask</text>
</g>
<!-- topo.base.projection.CompositeSheetMask -->
<g id="node2" class="node"><title>topo.base.projection.CompositeSheetMask</title>
<polygon fill="none" stroke="black" stroke-width="0.5" points="725,-58.5 503,-58.5 503,-37.5 725,-37.5 725,-58.5"/>
<text text-anchor="middle" x="614" y="-45.5" font-family="Vera" font-size="10.00">topo.base.projection.CompositeSheetMask</text>
</g>
<!-- topo.base.projection.CompositeSheetMask&#45;&gt;topo.base.projection.AndMask -->
<g id="edge2" class="edge"><title>topo.base.projection.CompositeSheetMask&#45;&gt;topo.base.projection.AndMask</title>
<path fill="none" stroke="black" stroke-width="0.5" d="M725.746,-50.2805C741.62,-50.6045 757.737,-50.9334 773.019,-51.2453"/>
<polygon fill="black" stroke="black" points="773.133,-52.9979 778.168,-51.3504 773.205,-49.4986 773.133,-52.9979"/>
</g>
<!-- topo.base.projection.OrMask -->
<g id="node18" class="node"><title>topo.base.projection.OrMask</title>
<polygon fill="none" stroke="black" stroke-width="0.5" points="936,-25.5 782,-25.5 782,-4.5 936,-4.5 936,-25.5"/>
<text text-anchor="middle" x="859" y="-12.5" font-family="Vera" font-size="10.00">topo.base.projection.OrMask</text>
</g>
<!-- topo.base.projection.CompositeSheetMask&#45;&gt;topo.base.projection.OrMask -->
<g id="edge16" class="edge"><title>topo.base.projection.CompositeSheetMask&#45;&gt;topo.base.projection.OrMask</title>
<path fill="none" stroke="black" stroke-width="0.5" d="M688.506,-37.9645C717.252,-34.0926 750.186,-29.6566 779.396,-25.7222"/>
<polygon fill="black" stroke="black" points="779.705,-27.4465 784.426,-25.0446 779.237,-23.9778 779.705,-27.4465"/>
</g>
<!-- topo.base.projection.Projection -->
<g id="node4" class="node"><title>topo.base.projection.Projection</title>
<polygon fill="none" stroke="black" stroke-width="0.5" points="696,-162.5 532,-162.5 532,-141.5 696,-141.5 696,-162.5"/>
<text text-anchor="middle" x="614" y="-149.5" font-family="Vera" font-size="10.00">topo.base.projection.Projection</text>
</g>
<!-- topo.base.simulation.EPConnection -->
<g id="node5" class="node"><title>topo.base.simulation.EPConnection</title>
<polygon fill="none" stroke="black" stroke-width="0.5" points="441,-162.5 255,-162.5 255,-141.5 441,-141.5 441,-162.5"/>
<text text-anchor="middle" x="348" y="-149.5" font-family="Vera" font-size="10.00">topo.base.simulation.EPConnection</text>
</g>
<!-- topo.base.simulation.EPConnection&#45;&gt;topo.base.projection.Projection -->
<g id="edge4" class="edge"><title>topo.base.simulation.EPConnection&#45;&gt;topo.base.projection.Projection</title>
<path fill="none" stroke="black" stroke-width="0.5" d="M441.034,-152C468.678,-152 498.861,-152 526.163,-152"/>
<polygon fill="black" stroke="black" points="526.226,-153.75 531.226,-152 526.226,-150.25 526.226,-153.75"/>
</g>
<!-- topo.base.sheet.Sheet -->
<g id="node7" class="node"><title>topo.base.sheet.Sheet</title>
<polygon fill="none" stroke="black" stroke-width="0.5" points="677,-105.5 551,-105.5 551,-84.5 677,-84.5 677,-105.5"/>
<text text-anchor="middle" x="614" y="-92.5" font-family="Vera" font-size="10.00">topo.base.sheet.Sheet</text>
</g>
<!-- topo.base.projection.ProjectionSheet -->
<g id="node22" class="node"><title>topo.base.projection.ProjectionSheet</title>
<polygon fill="none" stroke="black" stroke-width="0.5" points="956,-105.5 762,-105.5 762,-84.5 956,-84.5 956,-105.5"/>
<text text-anchor="middle" x="859" y="-92.5" font-family="Vera" font-size="10.00">topo.base.projection.ProjectionSheet</text>
</g>
<!-- topo.base.sheet.Sheet&#45;&gt;topo.base.projection.ProjectionSheet -->
<g id="edge22" class="edge"><title>topo.base.sheet.Sheet&#45;&gt;topo.base.projection.ProjectionSheet</title>
<path fill="none" stroke="black" stroke-width="0.5" d="M677.094,-95C701.386,-95 729.79,-95 756.834,-95"/>
<polygon fill="black" stroke="black" points="756.867,-96.7501 761.867,-95 756.867,-93.2501 756.867,-96.7501"/>
</g>
<!-- topo.base.simulation.EventProcessor -->
<g id="node8" class="node"><title>topo.base.simulation.EventProcessor</title>
<polygon fill="none" stroke="black" stroke-width="0.5" points="445,-124.5 251,-124.5 251,-103.5 445,-103.5 445,-124.5"/>
<text text-anchor="middle" x="348" y="-111.5" font-family="Vera" font-size="10.00">topo.base.simulation.EventProcessor</text>
</g>
<!-- topo.base.simulation.EventProcessor&#45;&gt;topo.base.sheet.Sheet -->
<g id="edge6" class="edge"><title>topo.base.simulation.EventProcessor&#45;&gt;topo.base.sheet.Sheet</title>
<path fill="none" stroke="black" stroke-width="0.5" d="M445.161,-107.06C478.411,-104.685 514.89,-102.079 545.406,-99.8995"/>
<polygon fill="black" stroke="black" points="545.778,-101.628 550.641,-99.5257 545.529,-98.1364 545.778,-101.628"/>
</g>
<!-- imagen.sheetcoords.SheetCoordinateSystem -->
<g id="node10" class="node"><title>imagen.sheetcoords.SheetCoordinateSystem</title>
<polygon fill="none" stroke="black" stroke-width="0.5" points="466,-86.5 230,-86.5 230,-65.5 466,-65.5 466,-86.5"/>
<text text-anchor="middle" x="348" y="-73.5" font-family="Vera" font-size="10.00">imagen.sheetcoords.SheetCoordinateSystem</text>
</g>
<!-- imagen.sheetcoords.SheetCoordinateSystem&#45;&gt;topo.base.sheet.Sheet -->
<g id="edge8" class="edge"><title>imagen.sheetcoords.SheetCoordinateSystem&#45;&gt;topo.base.sheet.Sheet</title>
<path fill="none" stroke="black" stroke-width="0.5" d="M466.221,-84.4443C493.424,-86.3874 521.462,-88.3902 545.708,-90.122"/>
<polygon fill="black" stroke="black" points="545.71,-91.8765 550.822,-90.4873 545.959,-88.3854 545.71,-91.8765"/>
</g>
<!-- topo.base.projection.SheetMask -->
<g id="node12" class="node"><title>topo.base.projection.SheetMask</title>
<polygon fill="none" stroke="black" stroke-width="0.5" points="433,-48.5 263,-48.5 263,-27.5 433,-27.5 433,-48.5"/>
<text text-anchor="middle" x="348" y="-35.5" font-family="Vera" font-size="10.00">topo.base.projection.SheetMask</text>
</g>
<!-- topo.base.projection.SheetMask&#45;&gt;topo.base.projection.CompositeSheetMask -->
<g id="edge10" class="edge"><title>topo.base.projection.SheetMask&#45;&gt;topo.base.projection.CompositeSheetMask</title>
<path fill="none" stroke="black" stroke-width="0.5" d="M433.628,-41.2191C453.875,-41.9803 475.807,-42.8048 497.173,-43.608"/>
<polygon fill="black" stroke="black" points="497.238,-45.3616 502.3,-43.8008 497.369,-41.8641 497.238,-45.3616"/>
</g>
<!-- topo.base.projection.NeighborhoodMask -->
<g id="node16" class="node"><title>topo.base.projection.NeighborhoodMask</title>
<polygon fill="none" stroke="black" stroke-width="0.5" points="719,-20.5 509,-20.5 509,0.5 719,0.5 719,-20.5"/>
<text text-anchor="middle" x="614" y="-7.5" font-family="Vera" font-size="10.00">topo.base.projection.NeighborhoodMask</text>
</g>
<!-- topo.base.projection.SheetMask&#45;&gt;topo.base.projection.NeighborhoodMask -->
<g id="edge14" class="edge"><title>topo.base.projection.SheetMask&#45;&gt;topo.base.projection.NeighborhoodMask</title>
<path fill="none" stroke="black" stroke-width="0.5" d="M433.628,-28.9865C459.115,-26.3037 487.271,-23.3399 513.609,-20.5675"/>
<polygon fill="black" stroke="black" points="514.062,-22.2796 518.851,-20.0157 513.695,-18.7988 514.062,-22.2796"/>
</g>
<!-- param.parameterized.Parameterized -->
<g id="node14" class="node"><title>param.parameterized.Parameterized</title>
<polygon fill="none" stroke="black" stroke-width="0.5" points="194,-124.5 5.68434e-14,-124.5 0,-103.5 194,-103.5 194,-124.5"/>
<text text-anchor="middle" x="97" y="-111.5" font-family="Vera" font-size="10.00">param.parameterized.Parameterized</text>
</g>
<!-- param.parameterized.Parameterized&#45;&gt;topo.base.simulation.EPConnection -->
<g id="edge18" class="edge"><title>param.parameterized.Parameterized&#45;&gt;topo.base.simulation.EPConnection</title>
<path fill="none" stroke="black" stroke-width="0.5" d="M163.276,-124.034C198.161,-129.315 240.968,-135.796 276.587,-141.189"/>
<polygon fill="black" stroke="black" points="276.583,-142.958 281.789,-141.976 277.107,-139.497 276.583,-142.958"/>
</g>
<!-- param.parameterized.Parameterized&#45;&gt;topo.base.simulation.EventProcessor -->
<g id="edge12" class="edge"><title>param.parameterized.Parameterized&#45;&gt;topo.base.simulation.EventProcessor</title>
<path fill="none" stroke="black" stroke-width="0.5" d="M194.043,-114C210.921,-114 228.523,-114 245.54,-114"/>
<polygon fill="black" stroke="black" points="245.801,-115.75 250.801,-114 245.801,-112.25 245.801,-115.75"/>
</g>
<!-- param.parameterized.Parameterized&#45;&gt;topo.base.projection.SheetMask -->
<g id="edge20" class="edge"><title>param.parameterized.Parameterized&#45;&gt;topo.base.projection.SheetMask</title>
<path fill="none" stroke="black" stroke-width="0.5" d="M116.274,-103.949C141.663,-91.1323 188.018,-69.1752 230,-57 240.715,-53.8926 252.134,-51.2523 263.489,-49.0201"/>
<polygon fill="black" stroke="black" points="264.117,-50.6817 268.698,-48.0229 263.459,-47.2441 264.117,-50.6817"/>
</g>
</g>
</svg>
