<?xml version="1.0" encoding="UTF-8" standalone="no"?>
<!DOCTYPE svg PUBLIC "-//W3C//DTD SVG 1.1//EN"
 "http://www.w3.org/Graphics/SVG/1.1/DTD/svg11.dtd">
<!-- Generated by graphviz version 2.26.3 (20100126.1600)
 -->
<!-- Title: inheritancedfab4961fd Pages: 1 -->
<svg width="766pt" height="332pt"
 viewBox="0.00 0.00 766.00 332.00" xmlns="http://www.w3.org/2000/svg" xmlns:xlink="http://www.w3.org/1999/xlink">
<g id="graph1" class="graph" transform="scale(1 1) rotate(0) translate(4 328)">
<title>inheritancedfab4961fd</title>
<polygon fill="white" stroke="white" points="-4,5 -4,-328 763,-328 763,5 -4,5"/>
<!-- topo.base.simulation.CommandEvent -->
<g id="node1" class="node"><title>topo.base.simulation.CommandEvent</title>
<polygon fill="none" stroke="black" stroke-width="0.5" points="463,-134.5 267,-134.5 267,-113.5 463,-113.5 463,-134.5"/>
<text text-anchor="middle" x="365" y="-121.5" font-family="Vera" font-size="10.00">topo.base.simulation.CommandEvent</text>
</g>
<!-- topo.base.simulation.Event -->
<g id="node2" class="node"><title>topo.base.simulation.Event</title>
<polygon fill="none" stroke="black" stroke-width="0.5" points="176,-77.5 30,-77.5 30,-56.5 176,-56.5 176,-77.5"/>
<text text-anchor="middle" x="103" y="-64.5" font-family="Vera" font-size="10.00">topo.base.simulation.Event</text>
</g>
<!-- topo.base.simulation.Event&#45;&gt;topo.base.simulation.CommandEvent -->
<g id="edge2" class="edge"><title>topo.base.simulation.Event&#45;&gt;topo.base.simulation.CommandEvent</title>
<path fill="none" stroke="black" stroke-width="0.5" d="M135.602,-77.0417C163.609,-85.3957 205.176,-97.149 242,-105 256.145,-108.016 271.301,-110.753 285.974,-113.152"/>
<polygon fill="black" stroke="black" points="285.714,-114.883 290.929,-113.953 286.272,-111.428 285.714,-114.883"/>
</g>
<!-- topo.base.simulation.EPConnectionEvent -->
<g id="node4" class="node"><title>topo.base.simulation.EPConnectionEvent</title>
<polygon fill="none" stroke="black" stroke-width="0.5" points="471,-96.5 259,-96.5 259,-75.5 471,-75.5 471,-96.5"/>
<text text-anchor="middle" x="365" y="-83.5" font-family="Vera" font-size="10.00">topo.base.simulation.EPConnectionEvent</text>
</g>
<!-- topo.base.simulation.Event&#45;&gt;topo.base.simulation.EPConnectionEvent -->
<g id="edge4" class="edge"><title>topo.base.simulation.Event&#45;&gt;topo.base.simulation.EPConnectionEvent</title>
<path fill="none" stroke="black" stroke-width="0.5" d="M176.679,-72.3431C200.375,-74.0616 227.188,-76.006 252.997,-77.8776"/>
<polygon fill="black" stroke="black" points="253.03,-79.6346 258.144,-78.2509 253.283,-76.1437 253.03,-79.6346"/>
</g>
<!-- topo.base.simulation.EventSequence -->
<g id="node19" class="node"><title>topo.base.simulation.EventSequence</title>
<polygon fill="none" stroke="black" stroke-width="0.5" points="462,-58.5 268,-58.5 268,-37.5 462,-37.5 462,-58.5"/>
<text text-anchor="middle" x="365" y="-45.5" font-family="Vera" font-size="10.00">topo.base.simulation.EventSequence</text>
</g>
<!-- topo.base.simulation.Event&#45;&gt;topo.base.simulation.EventSequence -->
<g id="edge24" class="edge"><title>topo.base.simulation.Event&#45;&gt;topo.base.simulation.EventSequence</title>
<path fill="none" stroke="black" stroke-width="0.5" d="M176.679,-61.6569C203.181,-59.735 233.582,-57.5303 262.116,-55.4611"/>
<polygon fill="black" stroke="black" points="262.56,-57.1835 267.421,-55.0764 262.307,-53.6927 262.56,-57.1835"/>
</g>
<!-- topo.base.simulation.FunctionEvent -->
<g id="node23" class="node"><title>topo.base.simulation.FunctionEvent</title>
<polygon fill="none" stroke="black" stroke-width="0.5" points="458,-20.5 272,-20.5 272,0.5 458,0.5 458,-20.5"/>
<text text-anchor="middle" x="365" y="-7.5" font-family="Vera" font-size="10.00">topo.base.simulation.FunctionEvent</text>
</g>
<!-- topo.base.simulation.Event&#45;&gt;topo.base.simulation.FunctionEvent -->
<g id="edge20" class="edge"><title>topo.base.simulation.Event&#45;&gt;topo.base.simulation.FunctionEvent</title>
<path fill="none" stroke="black" stroke-width="0.5" d="M135.602,-56.9583C163.609,-48.6043 205.176,-36.851 242,-29 256.145,-25.9843 271.301,-23.2467 285.974,-20.8479"/>
<polygon fill="black" stroke="black" points="286.272,-22.5725 290.929,-20.0475 285.714,-19.1173 286.272,-22.5725"/>
</g>
<!-- topo.base.simulation.EventProcessorParameter -->
<g id="node6" class="node"><title>topo.base.simulation.EventProcessorParameter</title>
<polygon fill="none" stroke="black" stroke-width="0.5" points="487,-172.5 243,-172.5 243,-151.5 487,-151.5 487,-172.5"/>
<text text-anchor="middle" x="365" y="-159.5" font-family="Vera" font-size="10.00">topo.base.simulation.EventProcessorParameter</text>
</g>
<!-- param.parameterized.Parameter -->
<g id="node7" class="node"><title>param.parameterized.Parameter</title>
<polygon fill="none" stroke="black" stroke-width="0.5" points="190,-172.5 16,-172.5 16,-151.5 190,-151.5 190,-172.5"/>
<text text-anchor="middle" x="103" y="-159.5" font-family="Vera" font-size="10.00">param.parameterized.Parameter</text>
</g>
<!-- param.parameterized.Parameter&#45;&gt;topo.base.simulation.EventProcessorParameter -->
<g id="edge6" class="edge"><title>param.parameterized.Parameter&#45;&gt;topo.base.simulation.EventProcessorParameter</title>
<path fill="none" stroke="black" stroke-width="0.5" d="M190.606,-162C205.575,-162 221.397,-162 237.157,-162"/>
<polygon fill="black" stroke="black" points="237.498,-163.75 242.498,-162 237.498,-160.25 237.498,-163.75"/>
</g>
<!-- topo.base.simulation.EventProcessor -->
<g id="node9" class="node"><title>topo.base.simulation.EventProcessor</title>
<polygon fill="none" stroke="black" stroke-width="0.5" points="462,-286.5 268,-286.5 268,-265.5 462,-265.5 462,-286.5"/>
<text text-anchor="middle" x="365" y="-273.5" font-family="Vera" font-size="10.00">topo.base.simulation.EventProcessor</text>
</g>
<!-- param.parameterized.Parameterized -->
<g id="node10" class="node"><title>param.parameterized.Parameterized</title>
<polygon fill="none" stroke="black" stroke-width="0.5" points="200,-267.5 6,-267.5 6,-246.5 200,-246.5 200,-267.5"/>
<text text-anchor="middle" x="103" y="-254.5" font-family="Vera" font-size="10.00">param.parameterized.Parameterized</text>
</g>
<!-- param.parameterized.Parameterized&#45;&gt;topo.base.simulation.EventProcessor -->
<g id="edge8" class="edge"><title>param.parameterized.Parameterized&#45;&gt;topo.base.simulation.EventProcessor</title>
<path fill="none" stroke="black" stroke-width="0.5" d="M200.187,-264.048C220.593,-265.528 242.175,-267.093 262.76,-268.586"/>
<polygon fill="black" stroke="black" points="262.857,-270.347 267.97,-268.963 263.11,-266.856 262.857,-270.347"/>
</g>
<!-- topo.base.simulation.Simulation -->
<g id="node12" class="node"><title>topo.base.simulation.Simulation</title>
<polygon fill="none" stroke="black" stroke-width="0.5" points="450,-324.5 280,-324.5 280,-303.5 450,-303.5 450,-324.5"/>
<text text-anchor="middle" x="365" y="-311.5" font-family="Vera" font-size="10.00">topo.base.simulation.Simulation</text>
</g>
<!-- param.parameterized.Parameterized&#45;&gt;topo.base.simulation.Simulation -->
<g id="edge10" class="edge"><title>param.parameterized.Parameterized&#45;&gt;topo.base.simulation.Simulation</title>
<path fill="none" stroke="black" stroke-width="0.5" d="M135.602,-267.042C163.609,-275.396 205.176,-287.149 242,-295 256.145,-298.016 271.301,-300.753 285.974,-303.152"/>
<polygon fill="black" stroke="black" points="285.714,-304.883 290.929,-303.953 286.272,-301.428 285.714,-304.883"/>
</g>
<!-- topo.base.simulation.EPConnection -->
<g id="node21" class="node"><title>topo.base.simulation.EPConnection</title>
<polygon fill="none" stroke="black" stroke-width="0.5" points="458,-248.5 272,-248.5 272,-227.5 458,-227.5 458,-248.5"/>
<text text-anchor="middle" x="365" y="-235.5" font-family="Vera" font-size="10.00">topo.base.simulation.EPConnection</text>
</g>
<!-- param.parameterized.Parameterized&#45;&gt;topo.base.simulation.EPConnection -->
<g id="edge18" class="edge"><title>param.parameterized.Parameterized&#45;&gt;topo.base.simulation.EPConnection</title>
<path fill="none" stroke="black" stroke-width="0.5" d="M200.187,-249.952C221.893,-248.378 244.929,-246.707 266.681,-245.13"/>
<polygon fill="black" stroke="black" points="267.026,-246.86 271.886,-244.753 266.772,-243.369 267.026,-246.86"/>
</g>
<!-- topo.base.simulation.SomeTimer -->
<g id="node25" class="node"><title>topo.base.simulation.SomeTimer</title>
<polygon fill="none" stroke="black" stroke-width="0.5" points="453,-210.5 277,-210.5 277,-189.5 453,-189.5 453,-210.5"/>
<text text-anchor="middle" x="365" y="-197.5" font-family="Vera" font-size="10.00">topo.base.simulation.SomeTimer</text>
</g>
<!-- param.parameterized.Parameterized&#45;&gt;topo.base.simulation.SomeTimer -->
<g id="edge22" class="edge"><title>param.parameterized.Parameterized&#45;&gt;topo.base.simulation.SomeTimer</title>
<path fill="none" stroke="black" stroke-width="0.5" d="M135.602,-246.958C163.609,-238.604 205.176,-226.851 242,-219 256.145,-215.984 271.301,-213.247 285.974,-210.848"/>
<polygon fill="black" stroke="black" points="286.272,-212.572 290.929,-210.047 285.714,-209.117 286.272,-212.572"/>
</g>
<!-- topo.base.simulation.RealTimeSimulation -->
<g id="node16" class="node"><title>topo.base.simulation.RealTimeSimulation</title>
<polygon fill="none" stroke="black" stroke-width="0.5" points="748,-324.5 534,-324.5 534,-303.5 748,-303.5 748,-324.5"/>
<text text-anchor="middle" x="641" y="-311.5" font-family="Vera" font-size="10.00">topo.base.simulation.RealTimeSimulation</text>
</g>
<!-- topo.base.simulation.Simulation&#45;&gt;topo.base.simulation.RealTimeSimulation -->
<g id="edge14" class="edge"><title>topo.base.simulation.Simulation&#45;&gt;topo.base.simulation.RealTimeSimulation</title>
<path fill="none" stroke="black" stroke-width="0.5" d="M450.815,-314C475.442,-314 502.669,-314 528.64,-314"/>
<polygon fill="black" stroke="black" points="528.816,-315.75 533.816,-314 528.816,-312.25 528.816,-315.75"/>
</g>
<!-- topo.base.simulation.OptionalSingleton -->
<g id="node14" class="node"><title>topo.base.simulation.OptionalSingleton</title>
<polygon fill="none" stroke="black" stroke-width="0.5" points="205,-324.5 1,-324.5 1,-303.5 205,-303.5 205,-324.5"/>
<text text-anchor="middle" x="103" y="-311.5" font-family="Vera" font-size="10.00">topo.base.simulation.OptionalSingleton</text>
</g>
<!-- topo.base.simulation.OptionalSingleton&#45;&gt;topo.base.simulation.Simulation -->
<g id="edge12" class="edge"><title>topo.base.simulation.OptionalSingleton&#45;&gt;topo.base.simulation.Simulation</title>
<path fill="none" stroke="black" stroke-width="0.5" d="M205.797,-314C228.36,-314 252.094,-314 274.148,-314"/>
<polygon fill="black" stroke="black" points="274.418,-315.75 279.418,-314 274.418,-312.25 274.418,-315.75"/>
</g>
<!-- topo.base.simulation.PeriodicEventSequence -->
<g id="node18" class="node"><title>topo.base.simulation.PeriodicEventSequence</title>
<polygon fill="none" stroke="black" stroke-width="0.5" points="757,-58.5 525,-58.5 525,-37.5 757,-37.5 757,-58.5"/>
<text text-anchor="middle" x="641" y="-45.5" font-family="Vera" font-size="10.00">topo.base.simulation.PeriodicEventSequence</text>
</g>
<!-- topo.base.simulation.EventSequence&#45;&gt;topo.base.simulation.PeriodicEventSequence -->
<g id="edge16" class="edge"><title>topo.base.simulation.EventSequence&#45;&gt;topo.base.simulation.PeriodicEventSequence</title>
<path fill="none" stroke="black" stroke-width="0.5" d="M462.696,-48C480.839,-48 500.001,-48 518.769,-48"/>
<polygon fill="black" stroke="black" points="519.051,-49.7501 524.051,-48 519.051,-46.2501 519.051,-49.7501"/>
</g>
</g>
</svg>
