<?xml version="1.0" encoding="UTF-8" standalone="no"?>
<!DOCTYPE svg PUBLIC "-//W3C//DTD SVG 1.1//EN"
 "http://www.w3.org/Graphics/SVG/1.1/DTD/svg11.dtd">
<!-- Generated by graphviz version 2.26.3 (20100126.1600)
 -->
<!-- Title: inheritance814dd881d7 Pages: 1 -->
<svg width="874pt" height="208pt"
 viewBox="0.00 0.00 874.00 208.00" xmlns="http://www.w3.org/2000/svg" xmlns:xlink="http://www.w3.org/1999/xlink">
<g id="graph1" class="graph" transform="scale(1 1) rotate(0) translate(4 204)">
<title>inheritance814dd881d7</title>
<polygon fill="white" stroke="white" points="-4,5 -4,-204 871,-204 871,5 -4,5"/>
<!-- param.parameterized.Parameterized -->
<g id="node1" class="node"><title>param.parameterized.Parameterized</title>
<polygon fill="none" stroke="black" stroke-width="0.5" points="194,-77.5 5.68434e-14,-77.5 0,-56.5 194,-56.5 194,-77.5"/>
<text text-anchor="middle" x="97" y="-64.5" font-family="Vera" font-size="10.00">param.parameterized.Parameterized</text>
</g>
<!-- topo.misc.trace.Trace -->
<g id="node3" class="node"><title>topo.misc.trace.Trace</title>
<polygon fill="none" stroke="black" stroke-width="0.5" points="386,-153.5 268,-153.5 268,-132.5 386,-132.5 386,-153.5"/>
<text text-anchor="middle" x="327" y="-140.5" font-family="Vera" font-size="10.00">topo.misc.trace.Trace</text>
</g>
<!-- param.parameterized.Parameterized&#45;&gt;topo.misc.trace.Trace -->
<g id="edge4" class="edge"><title>param.parameterized.Parameterized&#45;&gt;topo.misc.trace.Trace</title>
<path fill="none" stroke="black" stroke-width="0.5" d="M127.542,-77.0922C170.104,-91.1562 247.065,-116.587 291.925,-131.41"/>
<polygon fill="black" stroke="black" points="291.401,-133.08 296.698,-132.987 292.499,-129.757 291.401,-133.08"/>
</g>
<!-- topo.base.simulation.EventProcessor -->
<g id="node7" class="node"><title>topo.base.simulation.EventProcessor</title>
<polygon fill="none" stroke="black" stroke-width="0.5" points="424,-96.5 230,-96.5 230,-75.5 424,-75.5 424,-96.5"/>
<text text-anchor="middle" x="327" y="-83.5" font-family="Vera" font-size="10.00">topo.base.simulation.EventProcessor</text>
</g>
<!-- param.parameterized.Parameterized&#45;&gt;topo.base.simulation.EventProcessor -->
<g id="edge10" class="edge"><title>param.parameterized.Parameterized&#45;&gt;topo.base.simulation.EventProcessor</title>
<path fill="none" stroke="black" stroke-width="0.5" d="M194.207,-75.0302C204.23,-75.8581 214.438,-76.7014 224.515,-77.5339"/>
<polygon fill="black" stroke="black" points="224.645,-79.3004 229.772,-77.9681 224.933,-75.8123 224.645,-79.3004"/>
</g>
<!-- topo.misc.trace.ActivityMovie -->
<g id="node12" class="node"><title>topo.misc.trace.ActivityMovie</title>
<polygon fill="none" stroke="black" stroke-width="0.5" points="405,-58.5 249,-58.5 249,-37.5 405,-37.5 405,-58.5"/>
<text text-anchor="middle" x="327" y="-45.5" font-family="Vera" font-size="10.00">topo.misc.trace.ActivityMovie</text>
</g>
<!-- param.parameterized.Parameterized&#45;&gt;topo.misc.trace.ActivityMovie -->
<g id="edge12" class="edge"><title>param.parameterized.Parameterized&#45;&gt;topo.misc.trace.ActivityMovie</title>
<path fill="none" stroke="black" stroke-width="0.5" d="M194.207,-58.9698C210.399,-57.6322 227.074,-56.2548 242.904,-54.947"/>
<polygon fill="black" stroke="black" points="243.4,-56.6622 248.239,-54.5064 243.111,-53.174 243.4,-56.6622"/>
</g>
<!-- topo.misc.trace.TraceGroup -->
<g id="node14" class="node"><title>topo.misc.trace.TraceGroup</title>
<polygon fill="none" stroke="black" stroke-width="0.5" points="401,-20.5 253,-20.5 253,0.5 401,0.5 401,-20.5"/>
<text text-anchor="middle" x="327" y="-7.5" font-family="Vera" font-size="10.00">topo.misc.trace.TraceGroup</text>
</g>
<!-- param.parameterized.Parameterized&#45;&gt;topo.misc.trace.TraceGroup -->
<g id="edge14" class="edge"><title>param.parameterized.Parameterized&#45;&gt;topo.misc.trace.TraceGroup</title>
<path fill="none" stroke="black" stroke-width="0.5" d="M129.318,-56.9338C156.126,-48.7854 195.326,-37.3334 230,-29 241.68,-26.193 254.224,-23.5004 266.288,-21.0696"/>
<polygon fill="black" stroke="black" points="266.864,-22.7393 271.425,-20.0443 266.179,-19.307 266.864,-22.7393"/>
</g>
<!-- topo.misc.trace.IdentityTrace -->
<g id="node2" class="node"><title>topo.misc.trace.IdentityTrace</title>
<polygon fill="none" stroke="black" stroke-width="0.5" points="630,-200.5 476,-200.5 476,-179.5 630,-179.5 630,-200.5"/>
<text text-anchor="middle" x="553" y="-187.5" font-family="Vera" font-size="10.00">topo.misc.trace.IdentityTrace</text>
</g>
<!-- topo.misc.trace.Trace&#45;&gt;topo.misc.trace.IdentityTrace -->
<g id="edge2" class="edge"><title>topo.misc.trace.Trace&#45;&gt;topo.misc.trace.IdentityTrace</title>
<path fill="none" stroke="black" stroke-width="0.5" d="M374.383,-153.047C399.768,-158.412 431.581,-165.106 460,-171 472.536,-173.6 486.027,-176.372 498.741,-178.972"/>
<polygon fill="black" stroke="black" points="498.509,-180.71 503.758,-179.997 499.21,-177.281 498.509,-180.71"/>
</g>
<!-- topo.misc.trace.SheetPositionTrace -->
<g id="node16" class="node"><title>topo.misc.trace.SheetPositionTrace</title>
<polygon fill="none" stroke="black" stroke-width="0.5" points="645,-162.5 461,-162.5 461,-141.5 645,-141.5 645,-162.5"/>
<text text-anchor="middle" x="553" y="-149.5" font-family="Vera" font-size="10.00">topo.misc.trace.SheetPositionTrace</text>
</g>
<!-- topo.misc.trace.Trace&#45;&gt;topo.misc.trace.SheetPositionTrace -->
<g id="edge16" class="edge"><title>topo.misc.trace.Trace&#45;&gt;topo.misc.trace.SheetPositionTrace</title>
<path fill="none" stroke="black" stroke-width="0.5" d="M386.674,-145.376C407.586,-146.209 431.66,-147.168 454.88,-148.093"/>
<polygon fill="black" stroke="black" points="455.066,-149.851 460.132,-148.302 455.206,-146.354 455.066,-149.851"/>
</g>
<!-- topo.misc.trace.IndexTrace -->
<g id="node18" class="node"><title>topo.misc.trace.IndexTrace</title>
<polygon fill="none" stroke="black" stroke-width="0.5" points="625,-124.5 481,-124.5 481,-103.5 625,-103.5 625,-124.5"/>
<text text-anchor="middle" x="553" y="-111.5" font-family="Vera" font-size="10.00">topo.misc.trace.IndexTrace</text>
</g>
<!-- topo.misc.trace.Trace&#45;&gt;topo.misc.trace.IndexTrace -->
<g id="edge18" class="edge"><title>topo.misc.trace.Trace&#45;&gt;topo.misc.trace.IndexTrace</title>
<path fill="none" stroke="black" stroke-width="0.5" d="M386.674,-135.343C413.872,-131.853 446.417,-127.677 475.477,-123.948"/>
<polygon fill="black" stroke="black" points="475.748,-125.677 480.484,-123.305 475.302,-122.206 475.748,-125.677"/>
</g>
<!-- topo.misc.trace.DataRecorder -->
<g id="node6" class="node"><title>topo.misc.trace.DataRecorder</title>
<polygon fill="none" stroke="black" stroke-width="0.5" points="633,-86.5 473,-86.5 473,-65.5 633,-65.5 633,-86.5"/>
<text text-anchor="middle" x="553" y="-73.5" font-family="Vera" font-size="10.00">topo.misc.trace.DataRecorder</text>
</g>
<!-- topo.misc.trace.InMemoryRecorder -->
<g id="node9" class="node"><title>topo.misc.trace.InMemoryRecorder</title>
<polygon fill="none" stroke="black" stroke-width="0.5" points="866,-86.5 682,-86.5 682,-65.5 866,-65.5 866,-86.5"/>
<text text-anchor="middle" x="774" y="-73.5" font-family="Vera" font-size="10.00">topo.misc.trace.InMemoryRecorder</text>
</g>
<!-- topo.misc.trace.DataRecorder&#45;&gt;topo.misc.trace.InMemoryRecorder -->
<g id="edge8" class="edge"><title>topo.misc.trace.DataRecorder&#45;&gt;topo.misc.trace.InMemoryRecorder</title>
<path fill="none" stroke="black" stroke-width="0.5" d="M633.099,-76C647.181,-76 661.977,-76 676.472,-76"/>
<polygon fill="black" stroke="black" points="676.797,-77.7501 681.796,-76 676.796,-74.2501 676.797,-77.7501"/>
</g>
<!-- topo.base.simulation.EventProcessor&#45;&gt;topo.misc.trace.DataRecorder -->
<g id="edge6" class="edge"><title>topo.base.simulation.EventProcessor&#45;&gt;topo.misc.trace.DataRecorder</title>
<path fill="none" stroke="black" stroke-width="0.5" d="M424.156,-81.7011C438.647,-81.0599 453.492,-80.403 467.714,-79.7737"/>
<polygon fill="black" stroke="black" points="468.006,-81.5126 472.923,-79.5432 467.851,-78.016 468.006,-81.5126"/>
</g>
</g>
</svg>
