<?xml version="1.0" encoding="UTF-8" standalone="no"?>
<!DOCTYPE svg PUBLIC "-//W3C//DTD SVG 1.1//EN"
 "http://www.w3.org/Graphics/SVG/1.1/DTD/svg11.dtd">
<!-- Generated by graphviz version 2.26.3 (20100126.1600)
 -->
<!-- Title: inheritance1a184a655e Pages: 1 -->
<svg width="1070pt" height="237pt"
 viewBox="0.00 0.00 1070.00 237.00" xmlns="http://www.w3.org/2000/svg" xmlns:xlink="http://www.w3.org/1999/xlink">
<g id="graph1" class="graph" transform="scale(1 1) rotate(0) translate(4 233)">
<title>inheritance1a184a655e</title>
<polygon fill="white" stroke="white" points="-4,5 -4,-233 1067,-233 1067,5 -4,5"/>
<!-- topo.tests.unit.testparameterizedobject.some_fn -->
<g id="node1" class="node"><title>topo.tests.unit.testparameterizedobject.some_fn</title>
<polygon fill="none" stroke="black" stroke-width="0.5" points="1028,-134.5 776,-134.5 776,-113.5 1028,-113.5 1028,-134.5"/>
<text text-anchor="middle" x="902" y="-121.5" font-family="Vera" font-size="10.00">topo.tests.unit.testparameterizedobject.some_fn</text>
</g>
<!-- param.parameterized.ParameterizedFunction -->
<g id="node2" class="node"><title>param.parameterized.ParameterizedFunction</title>
<polygon fill="none" stroke="black" stroke-width="0.5" points="653,-134.5 419,-134.5 419,-113.5 653,-113.5 653,-134.5"/>
<text text-anchor="middle" x="536" y="-121.5" font-family="Vera" font-size="10.00">param.parameterized.ParameterizedFunction</text>
</g>
<!-- param.parameterized.ParameterizedFunction&#45;&gt;topo.tests.unit.testparameterizedobject.some_fn -->
<g id="edge2" class="edge"><title>param.parameterized.ParameterizedFunction&#45;&gt;topo.tests.unit.testparameterizedobject.some_fn</title>
<path fill="none" stroke="black" stroke-width="0.5" d="M653.063,-124C690.493,-124 732.171,-124 770.554,-124"/>
<polygon fill="black" stroke="black" points="770.704,-125.75 775.704,-124 770.704,-122.25 770.704,-125.75"/>
</g>
<!-- unittest.case.TestCase -->
<g id="node4" class="node"><title>unittest.case.TestCase</title>
<polygon fill="none" stroke="black" stroke-width="0.5" points="227,-191.5 103,-191.5 103,-170.5 227,-170.5 227,-191.5"/>
<text text-anchor="middle" x="165" y="-178.5" font-family="Vera" font-size="10.00">unittest.case.TestCase</text>
</g>
<!-- topo.tests.unit.testparameterizedobject.TestParameterizedFunction -->
<g id="node8" class="node"><title>topo.tests.unit.testparameterizedobject.TestParameterizedFunction</title>
<polygon fill="none" stroke="black" stroke-width="0.5" points="705,-210.5 367,-210.5 367,-189.5 705,-189.5 705,-210.5"/>
<text text-anchor="middle" x="536" y="-197.5" font-family="Vera" font-size="10.00">topo.tests.unit.testparameterizedobject.TestParameterizedFunction</text>
</g>
<!-- unittest.case.TestCase&#45;&gt;topo.tests.unit.testparameterizedobject.TestParameterizedFunction -->
<g id="edge6" class="edge"><title>unittest.case.TestCase&#45;&gt;topo.tests.unit.testparameterizedobject.TestParameterizedFunction</title>
<path fill="none" stroke="black" stroke-width="0.5" d="M227.516,-184.202C264.476,-186.094 313.292,-188.594 361.159,-191.046"/>
<polygon fill="black" stroke="black" points="361.304,-192.805 366.387,-191.314 361.483,-189.31 361.304,-192.805"/>
</g>
<!-- topo.tests.unit.testparameterizedobject.TestParameterized -->
<g id="node18" class="node"><title>topo.tests.unit.testparameterizedobject.TestParameterized</title>
<polygon fill="none" stroke="black" stroke-width="0.5" points="685,-172.5 387,-172.5 387,-151.5 685,-151.5 685,-172.5"/>
<text text-anchor="middle" x="536" y="-159.5" font-family="Vera" font-size="10.00">topo.tests.unit.testparameterizedobject.TestParameterized</text>
</g>
<!-- unittest.case.TestCase&#45;&gt;topo.tests.unit.testparameterizedobject.TestParameterized -->
<g id="edge16" class="edge"><title>unittest.case.TestCase&#45;&gt;topo.tests.unit.testparameterizedobject.TestParameterized</title>
<path fill="none" stroke="black" stroke-width="0.5" d="M227.516,-177.798C269.627,-175.642 327.129,-172.697 381.082,-169.934"/>
<polygon fill="black" stroke="black" points="381.387,-171.671 386.291,-169.667 381.208,-168.175 381.387,-171.671"/>
</g>
<!-- topo.tests.unit.testparameterizedobject.TestPO -->
<g id="node5" class="node"><title>topo.tests.unit.testparameterizedobject.TestPO</title>
<polygon fill="none" stroke="black" stroke-width="0.5" points="657,-96.5 415,-96.5 415,-75.5 657,-75.5 657,-96.5"/>
<text text-anchor="middle" x="536" y="-83.5" font-family="Vera" font-size="10.00">topo.tests.unit.testparameterizedobject.TestPO</text>
</g>
<!-- param.parameterized.Parameterized -->
<g id="node6" class="node"><title>param.parameterized.Parameterized</title>
<polygon fill="none" stroke="black" stroke-width="0.5" points="262,-77.5 68,-77.5 68,-56.5 262,-56.5 262,-77.5"/>
<text text-anchor="middle" x="165" y="-64.5" font-family="Vera" font-size="10.00">param.parameterized.Parameterized</text>
</g>
<!-- param.parameterized.Parameterized&#45;&gt;param.parameterized.ParameterizedFunction -->
<g id="edge8" class="edge"><title>param.parameterized.Parameterized&#45;&gt;param.parameterized.ParameterizedFunction</title>
<path fill="none" stroke="black" stroke-width="0.5" d="M212.749,-77.0803C253.366,-85.4016 313.32,-97.088 366,-105 386.527,-108.083 408.518,-110.899 429.644,-113.364"/>
<polygon fill="black" stroke="black" points="429.538,-115.113 434.707,-113.95 429.941,-111.636 429.538,-115.113"/>
</g>
<!-- param.parameterized.Parameterized&#45;&gt;topo.tests.unit.testparameterizedobject.TestPO -->
<g id="edge4" class="edge"><title>param.parameterized.Parameterized&#45;&gt;topo.tests.unit.testparameterizedobject.TestPO</title>
<path fill="none" stroke="black" stroke-width="0.5" d="M262.476,-71.992C307.322,-74.2887 361.104,-77.043 409.065,-79.4993"/>
<polygon fill="black" stroke="black" points="409.201,-81.2585 414.284,-79.7666 409.38,-77.763 409.201,-81.2585"/>
</g>
<!-- topo.tests.unit.testparameterizedobject.TestAbstractPO -->
<g id="node11" class="node"><title>topo.tests.unit.testparameterizedobject.TestAbstractPO</title>
<polygon fill="none" stroke="black" stroke-width="0.5" points="678,-58.5 394,-58.5 394,-37.5 678,-37.5 678,-58.5"/>
<text text-anchor="middle" x="536" y="-45.5" font-family="Vera" font-size="10.00">topo.tests.unit.testparameterizedobject.TestAbstractPO</text>
</g>
<!-- param.parameterized.Parameterized&#45;&gt;topo.tests.unit.testparameterizedobject.TestAbstractPO -->
<g id="edge10" class="edge"><title>param.parameterized.Parameterized&#45;&gt;topo.tests.unit.testparameterizedobject.TestAbstractPO</title>
<path fill="none" stroke="black" stroke-width="0.5" d="M262.476,-62.008C301.055,-60.0322 346.246,-57.7179 388.656,-55.5459"/>
<polygon fill="black" stroke="black" points="388.909,-57.2853 393.813,-55.2818 388.73,-53.7899 388.909,-57.2853"/>
</g>
<!-- topo.tests.unit.testparameterizedobject.AnotherTestPO -->
<g id="node14" class="node"><title>topo.tests.unit.testparameterizedobject.AnotherTestPO</title>
<polygon fill="none" stroke="black" stroke-width="0.5" points="676,-20.5 396,-20.5 396,0.5 676,0.5 676,-20.5"/>
<text text-anchor="middle" x="536" y="-7.5" font-family="Vera" font-size="10.00">topo.tests.unit.testparameterizedobject.AnotherTestPO</text>
</g>
<!-- param.parameterized.Parameterized&#45;&gt;topo.tests.unit.testparameterizedobject.AnotherTestPO -->
<g id="edge12" class="edge"><title>param.parameterized.Parameterized&#45;&gt;topo.tests.unit.testparameterizedobject.AnotherTestPO</title>
<path fill="none" stroke="black" stroke-width="0.5" d="M212.749,-56.9197C253.366,-48.5984 313.32,-36.912 366,-29 386.527,-25.917 408.518,-23.1011 429.644,-20.6363"/>
<polygon fill="black" stroke="black" points="429.941,-22.3637 434.707,-20.0503 429.538,-18.8869 429.941,-22.3637"/>
</g>
<!-- topo.tests.unit.testparameterizedobject._SomeRandomNumbers -->
<g id="node13" class="node"><title>topo.tests.unit.testparameterizedobject._SomeRandomNumbers</title>
<polygon fill="none" stroke="black" stroke-width="0.5" points="329,-229.5 1,-229.5 1,-208.5 329,-208.5 329,-229.5"/>
<text text-anchor="middle" x="165" y="-216.5" font-family="Vera" font-size="10.00">topo.tests.unit.testparameterizedobject._SomeRandomNumbers</text>
</g>
<!-- topo.tests.unit.testparameterizedobject.TestParamInstantiation -->
<g id="node16" class="node"><title>topo.tests.unit.testparameterizedobject.TestParamInstantiation</title>
<polygon fill="none" stroke="black" stroke-width="0.5" points="1062,-20.5 742,-20.5 742,0.5 1062,0.5 1062,-20.5"/>
<text text-anchor="middle" x="902" y="-7.5" font-family="Vera" font-size="10.00">topo.tests.unit.testparameterizedobject.TestParamInstantiation</text>
</g>
<!-- topo.tests.unit.testparameterizedobject.AnotherTestPO&#45;&gt;topo.tests.unit.testparameterizedobject.TestParamInstantiation -->
<g id="edge14" class="edge"><title>topo.tests.unit.testparameterizedobject.AnotherTestPO&#45;&gt;topo.tests.unit.testparameterizedobject.TestParamInstantiation</title>
<path fill="none" stroke="black" stroke-width="0.5" d="M676.72,-10C696.409,-10 716.788,-10 736.877,-10"/>
<polygon fill="black" stroke="black" points="736.978,-11.7501 741.978,-10 736.978,-8.2501 736.978,-11.7501"/>
</g>
</g>
</svg>
