<?xml version="1.0" encoding="UTF-8" standalone="no"?>
<!DOCTYPE svg PUBLIC "-//W3C//DTD SVG 1.1//EN"
 "http://www.w3.org/Graphics/SVG/1.1/DTD/svg11.dtd">
<!-- Generated by graphviz version 2.26.3 (20100126.1600)
 -->
<!-- Title: inheritance95afd34832 Pages: 1 -->
<svg width="1474pt" height="655pt"
 viewBox="0.00 0.00 1474.00 655.00" xmlns="http://www.w3.org/2000/svg" xmlns:xlink="http://www.w3.org/1999/xlink">
<g id="graph1" class="graph" transform="scale(1 1) rotate(0) translate(4 651)">
<title>inheritance95afd34832</title>
<polygon fill="white" stroke="white" points="-4,5 -4,-651 1471,-651 1471,5 -4,5"/>
<!-- paramtk.ListWidget -->
<g id="node1" class="node"><title>paramtk.ListWidget</title>
<polygon fill="none" stroke="black" stroke-width="0.5" points="957,-96.5 849,-96.5 849,-75.5 957,-75.5 957,-96.5"/>
<text text-anchor="middle" x="903" y="-83.5" font-family="Vera" font-size="10.00">paramtk.ListWidget</text>
</g>
<!-- Tkinter.Frame -->
<g id="node2" class="node"><title>Tkinter.Frame</title>
<polygon fill="none" stroke="black" stroke-width="0.5" points="757,-210.5 677,-210.5 677,-189.5 757,-189.5 757,-210.5"/>
<text text-anchor="middle" x="717" y="-197.5" font-family="Vera" font-size="10.00">Tkinter.Frame</text>
</g>
<!-- Tkinter.Frame&#45;&gt;paramtk.ListWidget -->
<g id="edge2" class="edge"><title>Tkinter.Frame&#45;&gt;paramtk.ListWidget</title>
<path fill="none" stroke="black" stroke-width="0.5" d="M737.495,-189.836C753.414,-181.338 775.486,-168.186 792,-153 811.629,-134.949 805.808,-119.785 828,-105 832.707,-101.864 837.895,-99.2454 843.278,-97.0592"/>
<polygon fill="black" stroke="black" points="844.212,-98.5771 848.268,-95.1704 842.973,-95.3037 844.212,-98.5771"/>
</g>
<!-- paramtk.HackFileEntry -->
<g id="node20" class="node"><title>paramtk.HackFileEntry</title>
<polygon fill="none" stroke="black" stroke-width="0.5" points="965,-58.5 841,-58.5 841,-37.5 965,-37.5 965,-58.5"/>
<text text-anchor="middle" x="903" y="-45.5" font-family="Vera" font-size="10.00">paramtk.HackFileEntry</text>
</g>
<!-- Tkinter.Frame&#45;&gt;paramtk.HackFileEntry -->
<g id="edge14" class="edge"><title>Tkinter.Frame&#45;&gt;paramtk.HackFileEntry</title>
<path fill="none" stroke="black" stroke-width="0.5" d="M740.668,-189.898C756.955,-181.921 778.08,-169.402 792,-153 818.811,-121.408 796.61,-94.0481 828,-67 830.868,-64.5285 834.014,-62.3709 837.342,-60.4881"/>
<polygon fill="black" stroke="black" points="838.346,-61.9388 841.983,-58.0872 836.738,-58.8301 838.346,-61.9388"/>
</g>
<!-- paramtk.ProgressWindow -->
<g id="node28" class="node"><title>paramtk.ProgressWindow</title>
<polygon fill="none" stroke="black" stroke-width="0.5" points="971,-324.5 835,-324.5 835,-303.5 971,-303.5 971,-324.5"/>
<text text-anchor="middle" x="903" y="-311.5" font-family="Vera" font-size="10.00">paramtk.ProgressWindow</text>
</g>
<!-- Tkinter.Frame&#45;&gt;paramtk.ProgressWindow -->
<g id="edge20" class="edge"><title>Tkinter.Frame&#45;&gt;paramtk.ProgressWindow</title>
<path fill="none" stroke="black" stroke-width="0.5" d="M757.763,-203.649C769.816,-206.388 782.352,-211.065 792,-219 820.867,-242.741 799.133,-271.259 828,-295 830.996,-297.464 834.27,-299.613 837.721,-301.488"/>
<polygon fill="black" stroke="black" points="837.272,-303.219 842.528,-303.879 838.83,-300.085 837.272,-303.219"/>
</g>
<!-- paramtk.ParametersFrame -->
<g id="node32" class="node"><title>paramtk.ParametersFrame</title>
<polygon fill="none" stroke="black" stroke-width="0.5" points="976,-286.5 830,-286.5 830,-265.5 976,-265.5 976,-286.5"/>
<text text-anchor="middle" x="903" y="-273.5" font-family="Vera" font-size="10.00">paramtk.ParametersFrame</text>
</g>
<!-- Tkinter.Frame&#45;&gt;paramtk.ParametersFrame -->
<g id="edge24" class="edge"><title>Tkinter.Frame&#45;&gt;paramtk.ParametersFrame</title>
<path fill="none" stroke="black" stroke-width="0.5" d="M757.554,-205.894C769.205,-208.722 781.571,-212.886 792,-219 812.07,-230.766 807.93,-245.234 828,-257 832.702,-259.757 837.798,-262.117 843.044,-264.137"/>
<polygon fill="black" stroke="black" points="842.601,-265.838 847.898,-265.898 843.795,-262.547 842.601,-265.838"/>
</g>
<!-- paramtk.TaggedSlider -->
<g id="node58" class="node"><title>paramtk.TaggedSlider</title>
<polygon fill="none" stroke="black" stroke-width="0.5" points="963,-248.5 843,-248.5 843,-227.5 963,-227.5 963,-248.5"/>
<text text-anchor="middle" x="903" y="-235.5" font-family="Vera" font-size="10.00">paramtk.TaggedSlider</text>
</g>
<!-- Tkinter.Frame&#45;&gt;paramtk.TaggedSlider -->
<g id="edge54" class="edge"><title>Tkinter.Frame&#45;&gt;paramtk.TaggedSlider</title>
<path fill="none" stroke="black" stroke-width="0.5" d="M757.818,-208.339C784.607,-213.812 819.937,-221.03 849.036,-226.975"/>
<polygon fill="black" stroke="black" points="848.772,-228.707 854.021,-227.994 849.473,-225.278 848.772,-228.707"/>
</g>
<!-- paramtk.ScrolledFrame -->
<g id="node69" class="node"><title>paramtk.ScrolledFrame</title>
<polygon fill="none" stroke="black" stroke-width="0.5" points="967,-210.5 839,-210.5 839,-189.5 967,-189.5 967,-210.5"/>
<text text-anchor="middle" x="903" y="-197.5" font-family="Vera" font-size="10.00">paramtk.ScrolledFrame</text>
</g>
<!-- Tkinter.Frame&#45;&gt;paramtk.ScrolledFrame -->
<g id="edge64" class="edge"><title>Tkinter.Frame&#45;&gt;paramtk.ScrolledFrame</title>
<path fill="none" stroke="black" stroke-width="0.5" d="M757.818,-200C780.075,-200 808.227,-200 833.803,-200"/>
<polygon fill="black" stroke="black" points="833.882,-201.75 838.882,-200 833.882,-198.25 833.882,-201.75"/>
</g>
<!-- paramtk.ListItemCtrlWidget -->
<g id="node74" class="node"><title>paramtk.ListItemCtrlWidget</title>
<polygon fill="none" stroke="black" stroke-width="0.5" points="976,-172.5 830,-172.5 830,-151.5 976,-151.5 976,-172.5"/>
<text text-anchor="middle" x="903" y="-159.5" font-family="Vera" font-size="10.00">paramtk.ListItemCtrlWidget</text>
</g>
<!-- Tkinter.Frame&#45;&gt;paramtk.ListItemCtrlWidget -->
<g id="edge70" class="edge"><title>Tkinter.Frame&#45;&gt;paramtk.ListItemCtrlWidget</title>
<path fill="none" stroke="black" stroke-width="0.5" d="M757.818,-191.661C784.607,-186.188 819.937,-178.97 849.036,-173.025"/>
<polygon fill="black" stroke="black" points="849.473,-174.722 854.021,-172.006 848.772,-171.293 849.473,-174.722"/>
</g>
<!-- paramtk.StatusBar -->
<g id="node83" class="node"><title>paramtk.StatusBar</title>
<polygon fill="none" stroke="black" stroke-width="0.5" points="957,-134.5 849,-134.5 849,-113.5 957,-113.5 957,-134.5"/>
<text text-anchor="middle" x="903" y="-121.5" font-family="Vera" font-size="10.00">paramtk.StatusBar</text>
</g>
<!-- Tkinter.Frame&#45;&gt;paramtk.StatusBar -->
<g id="edge80" class="edge"><title>Tkinter.Frame&#45;&gt;paramtk.StatusBar</title>
<path fill="none" stroke="black" stroke-width="0.5" d="M733.752,-189.87C755.019,-177.373 793.144,-156.17 828,-143 835.492,-140.169 843.563,-137.626 851.536,-135.391"/>
<polygon fill="black" stroke="black" points="852.12,-137.046 856.482,-134.039 851.197,-133.669 852.12,-137.046"/>
</g>
<!-- paramtk.Representer -->
<g id="node4" class="node"><title>paramtk.Representer</title>
<polygon fill="none" stroke="black" stroke-width="0.5" points="583,-476.5 465,-476.5 465,-455.5 583,-455.5 583,-476.5"/>
<text text-anchor="middle" x="524" y="-463.5" font-family="Vera" font-size="10.00">paramtk.Representer</text>
</g>
<!-- paramtk.ListRepresenter -->
<g id="node78" class="node"><title>paramtk.ListRepresenter</title>
<polygon fill="none" stroke="black" stroke-width="0.5" points="784,-476.5 650,-476.5 650,-455.5 784,-455.5 784,-476.5"/>
<text text-anchor="middle" x="717" y="-463.5" font-family="Vera" font-size="10.00">paramtk.ListRepresenter</text>
</g>
<!-- paramtk.Representer&#45;&gt;paramtk.ListRepresenter -->
<g id="edge74" class="edge"><title>paramtk.Representer&#45;&gt;paramtk.ListRepresenter</title>
<path fill="none" stroke="black" stroke-width="0.5" d="M583.218,-466C602.627,-466 624.413,-466 644.678,-466"/>
<polygon fill="black" stroke="black" points="644.795,-467.75 649.795,-466 644.795,-464.25 644.795,-467.75"/>
</g>
<!-- param.parameterized.Parameterized -->
<g id="node5" class="node"><title>param.parameterized.Parameterized</title>
<polygon fill="none" stroke="black" stroke-width="0.5" points="406,-457.5 212,-457.5 212,-436.5 406,-436.5 406,-457.5"/>
<text text-anchor="middle" x="309" y="-444.5" font-family="Vera" font-size="10.00">param.parameterized.Parameterized</text>
</g>
<!-- param.parameterized.Parameterized&#45;&gt;paramtk.Representer -->
<g id="edge4" class="edge"><title>param.parameterized.Parameterized&#45;&gt;paramtk.Representer</title>
<path fill="none" stroke="black" stroke-width="0.5" d="M406.121,-455.583C424.274,-457.187 442.826,-458.826 459.679,-460.316"/>
<polygon fill="black" stroke="black" points="459.718,-462.076 464.853,-460.773 460.026,-458.59 459.718,-462.076"/>
</g>
<!-- paramtk.TkParameterizedBase -->
<g id="node11" class="node"><title>paramtk.TkParameterizedBase</title>
<polygon fill="none" stroke="black" stroke-width="0.5" points="606,-381.5 442,-381.5 442,-360.5 606,-360.5 606,-381.5"/>
<text text-anchor="middle" x="524" y="-368.5" font-family="Vera" font-size="10.00">paramtk.TkParameterizedBase</text>
</g>
<!-- param.parameterized.Parameterized&#45;&gt;paramtk.TkParameterizedBase -->
<g id="edge38" class="edge"><title>param.parameterized.Parameterized&#45;&gt;paramtk.TkParameterizedBase</title>
<path fill="none" stroke="black" stroke-width="0.5" d="M337.55,-436.908C377.256,-422.872 448.987,-397.516 490.958,-382.68"/>
<polygon fill="black" stroke="black" points="491.543,-384.329 495.674,-381.013 490.377,-381.029 491.543,-384.329"/>
</g>
<!-- paramtk.BoolTranslator -->
<g id="node7" class="node"><title>paramtk.BoolTranslator</title>
<polygon fill="none" stroke="black" stroke-width="0.5" points="588,-609.5 460,-609.5 460,-588.5 588,-588.5 588,-609.5"/>
<text text-anchor="middle" x="524" y="-596.5" font-family="Vera" font-size="10.00">paramtk.BoolTranslator</text>
</g>
<!-- paramtk.DoNothingTranslator -->
<g id="node8" class="node"><title>paramtk.DoNothingTranslator</title>
<polygon fill="none" stroke="black" stroke-width="0.5" points="388,-609.5 230,-609.5 230,-588.5 388,-588.5 388,-609.5"/>
<text text-anchor="middle" x="309" y="-596.5" font-family="Vera" font-size="10.00">paramtk.DoNothingTranslator</text>
</g>
<!-- paramtk.DoNothingTranslator&#45;&gt;paramtk.BoolTranslator -->
<g id="edge6" class="edge"><title>paramtk.DoNothingTranslator&#45;&gt;paramtk.BoolTranslator</title>
<path fill="none" stroke="black" stroke-width="0.5" d="M388.142,-599C409.979,-599 433.497,-599 454.728,-599"/>
<polygon fill="black" stroke="black" points="454.788,-600.75 459.788,-599 454.788,-597.25 454.788,-600.75"/>
</g>
<!-- paramtk.TkParameterized -->
<g id="node10" class="node"><title>paramtk.TkParameterized</title>
<polygon fill="none" stroke="black" stroke-width="0.5" points="787,-286.5 647,-286.5 647,-265.5 787,-265.5 787,-286.5"/>
<text text-anchor="middle" x="717" y="-273.5" font-family="Vera" font-size="10.00">paramtk.TkParameterized</text>
</g>
<!-- paramtk.TkParameterized&#45;&gt;paramtk.ParametersFrame -->
<g id="edge22" class="edge"><title>paramtk.TkParameterized&#45;&gt;paramtk.ParametersFrame</title>
<path fill="none" stroke="black" stroke-width="0.5" d="M787.054,-276C799.308,-276 812.13,-276 824.593,-276"/>
<polygon fill="black" stroke="black" points="824.909,-277.75 829.909,-276 824.909,-274.25 824.909,-277.75"/>
</g>
<!-- paramtk.TkParameterizedBase&#45;&gt;paramtk.TkParameterized -->
<g id="edge8" class="edge"><title>paramtk.TkParameterizedBase&#45;&gt;paramtk.TkParameterized</title>
<path fill="none" stroke="black" stroke-width="0.5" d="M568.903,-360.985C581.659,-356.779 595.046,-350.956 606,-343 627.576,-327.329 619.808,-309.785 642,-295 646.108,-292.263 650.582,-289.92 655.233,-287.915"/>
<polygon fill="black" stroke="black" points="655.952,-289.512 659.935,-286.02 654.643,-286.266 655.952,-289.512"/>
</g>
<!-- Tkinter.BaseWidget -->
<g id="node13" class="node"><title>Tkinter.BaseWidget</title>
<polygon fill="none" stroke="black" stroke-width="0.5" points="362,-220.5 256,-220.5 256,-199.5 362,-199.5 362,-220.5"/>
<text text-anchor="middle" x="309" y="-207.5" font-family="Vera" font-size="10.00">Tkinter.BaseWidget</text>
</g>
<!-- Tkinter.Widget -->
<g id="node18" class="node"><title>Tkinter.Widget</title>
<polygon fill="none" stroke="black" stroke-width="0.5" points="565,-334.5 483,-334.5 483,-313.5 565,-313.5 565,-334.5"/>
<text text-anchor="middle" x="524" y="-321.5" font-family="Vera" font-size="10.00">Tkinter.Widget</text>
</g>
<!-- Tkinter.BaseWidget&#45;&gt;Tkinter.Widget -->
<g id="edge28" class="edge"><title>Tkinter.BaseWidget&#45;&gt;Tkinter.Widget</title>
<path fill="none" stroke="black" stroke-width="0.5" d="M328.08,-220.117C367.445,-240.99 457.566,-288.775 500.466,-311.522"/>
<polygon fill="black" stroke="black" points="499.726,-313.11 504.963,-313.906 501.365,-310.018 499.726,-313.11"/>
</g>
<!-- Tkinter.Toplevel -->
<g id="node46" class="node"><title>Tkinter.Toplevel</title>
<polygon fill="none" stroke="black" stroke-width="0.5" points="568,-144.5 480,-144.5 480,-123.5 568,-123.5 568,-144.5"/>
<text text-anchor="middle" x="524" y="-131.5" font-family="Vera" font-size="10.00">Tkinter.Toplevel</text>
</g>
<!-- Tkinter.BaseWidget&#45;&gt;Tkinter.Toplevel -->
<g id="edge40" class="edge"><title>Tkinter.BaseWidget&#45;&gt;Tkinter.Toplevel</title>
<path fill="none" stroke="black" stroke-width="0.5" d="M337.55,-199.908C377.256,-185.872 448.987,-160.516 490.958,-145.68"/>
<polygon fill="black" stroke="black" points="491.543,-147.329 495.674,-144.013 490.377,-144.029 491.543,-147.329"/>
</g>
<!-- Tkinter.Misc -->
<g id="node14" class="node"><title>Tkinter.Misc</title>
<polygon fill="none" stroke="black" stroke-width="0.5" points="124,-220.5 52,-220.5 52,-199.5 124,-199.5 124,-220.5"/>
<text text-anchor="middle" x="88" y="-207.5" font-family="Vera" font-size="10.00">Tkinter.Misc</text>
</g>
<!-- Tkinter.Misc&#45;&gt;Tkinter.BaseWidget -->
<g id="edge10" class="edge"><title>Tkinter.Misc&#45;&gt;Tkinter.BaseWidget</title>
<path fill="none" stroke="black" stroke-width="0.5" d="M124.494,-210C158.637,-210 210.226,-210 250.18,-210"/>
<polygon fill="black" stroke="black" points="250.489,-211.75 255.489,-210 250.489,-208.25 250.489,-211.75"/>
</g>
<!-- Tkinter.Wm -->
<g id="node16" class="node"><title>Tkinter.Wm</title>
<polygon fill="none" stroke="black" stroke-width="0.5" points="343,-144.5 275,-144.5 275,-123.5 343,-123.5 343,-144.5"/>
<text text-anchor="middle" x="309" y="-131.5" font-family="Vera" font-size="10.00">Tkinter.Wm</text>
</g>
<!-- Tkinter.Wm&#45;&gt;Tkinter.Toplevel -->
<g id="edge42" class="edge"><title>Tkinter.Wm&#45;&gt;Tkinter.Toplevel</title>
<path fill="none" stroke="black" stroke-width="0.5" d="M343.543,-134C378.874,-134 434.11,-134 474.169,-134"/>
<polygon fill="black" stroke="black" points="474.47,-135.75 479.47,-134 474.47,-132.25 474.47,-135.75"/>
</g>
<!-- Tkinter.Menu -->
<g id="node17" class="node"><title>Tkinter.Menu</title>
<polygon fill="none" stroke="black" stroke-width="0.5" points="755,-362.5 679,-362.5 679,-341.5 755,-341.5 755,-362.5"/>
<text text-anchor="middle" x="717" y="-349.5" font-family="Vera" font-size="10.00">Tkinter.Menu</text>
</g>
<!-- paramtk.Menu -->
<g id="node56" class="node"><title>paramtk.Menu</title>
<polygon fill="none" stroke="black" stroke-width="0.5" points="946,-362.5 860,-362.5 860,-341.5 946,-341.5 946,-362.5"/>
<text text-anchor="middle" x="903" y="-349.5" font-family="Vera" font-size="10.00">paramtk.Menu</text>
</g>
<!-- Tkinter.Menu&#45;&gt;paramtk.Menu -->
<g id="edge52" class="edge"><title>Tkinter.Menu&#45;&gt;paramtk.Menu</title>
<path fill="none" stroke="black" stroke-width="0.5" d="M755.539,-352C784.308,-352 823.811,-352 854.69,-352"/>
<polygon fill="black" stroke="black" points="854.959,-353.75 859.959,-352 854.959,-350.25 854.959,-353.75"/>
</g>
<!-- Tkinter.Widget&#45;&gt;Tkinter.Frame -->
<g id="edge60" class="edge"><title>Tkinter.Widget&#45;&gt;Tkinter.Frame</title>
<path fill="none" stroke="black" stroke-width="0.5" d="M532.309,-313.873C550.125,-292.846 594.275,-244.312 642,-219 651.076,-214.186 661.423,-210.553 671.472,-207.825"/>
<polygon fill="black" stroke="black" points="671.972,-209.503 676.375,-206.557 671.096,-206.114 671.972,-209.503"/>
</g>
<!-- Tkinter.Widget&#45;&gt;Tkinter.Menu -->
<g id="edge12" class="edge"><title>Tkinter.Widget&#45;&gt;Tkinter.Menu</title>
<path fill="none" stroke="black" stroke-width="0.5" d="M565.878,-330.076C597.659,-334.686 641.226,-341.007 673.418,-345.677"/>
<polygon fill="black" stroke="black" points="673.284,-347.426 678.483,-346.412 673.786,-343.962 673.284,-347.426"/>
</g>
<!-- Tkinter.Button -->
<g id="node23" class="node"><title>Tkinter.Button</title>
<polygon fill="none" stroke="black" stroke-width="0.5" points="758,-400.5 676,-400.5 676,-379.5 758,-379.5 758,-400.5"/>
<text text-anchor="middle" x="717" y="-387.5" font-family="Vera" font-size="10.00">Tkinter.Button</text>
</g>
<!-- Tkinter.Widget&#45;&gt;Tkinter.Button -->
<g id="edge44" class="edge"><title>Tkinter.Widget&#45;&gt;Tkinter.Button</title>
<path fill="none" stroke="black" stroke-width="0.5" d="M557.166,-334.017C572.271,-338.911 590.254,-345.206 606,-352 622.611,-359.167 625.112,-364.511 642,-371 650.969,-374.446 660.781,-377.45 670.265,-379.99"/>
<polygon fill="black" stroke="black" points="669.909,-381.705 675.189,-381.275 670.793,-378.319 669.909,-381.705"/>
</g>
<!-- paramtk.Balloon -->
<g id="node50" class="node"><title>paramtk.Balloon</title>
<polygon fill="none" stroke="black" stroke-width="0.5" points="764,-248.5 670,-248.5 670,-227.5 764,-227.5 764,-248.5"/>
<text text-anchor="middle" x="717" y="-235.5" font-family="Vera" font-size="10.00">paramtk.Balloon</text>
</g>
<!-- Tkinter.Widget&#45;&gt;paramtk.Balloon -->
<g id="edge46" class="edge"><title>Tkinter.Widget&#45;&gt;paramtk.Balloon</title>
<path fill="none" stroke="black" stroke-width="0.5" d="M538.622,-313.973C560.302,-299.515 602.656,-272.818 642,-257 648.987,-254.191 656.51,-251.701 664.001,-249.525"/>
<polygon fill="black" stroke="black" points="664.835,-251.109 669.174,-248.069 663.887,-247.739 664.835,-251.109"/>
</g>
<!-- paramtk.Scrodget -->
<g id="node80" class="node"><title>paramtk.Scrodget</title>
<polygon fill="none" stroke="black" stroke-width="0.5" points="769,-438.5 665,-438.5 665,-417.5 769,-417.5 769,-438.5"/>
<text text-anchor="middle" x="717" y="-425.5" font-family="Vera" font-size="10.00">paramtk.Scrodget</text>
</g>
<!-- Tkinter.Widget&#45;&gt;paramtk.Scrodget -->
<g id="edge78" class="edge"><title>Tkinter.Widget&#45;&gt;paramtk.Scrodget</title>
<path fill="none" stroke="black" stroke-width="0.5" d="M565.506,-332.264C579.399,-336.494 594.311,-342.772 606,-352 629.518,-370.566 617.75,-391.401 642,-409 647.371,-412.898 653.462,-415.999 659.796,-418.466"/>
<polygon fill="black" stroke="black" points="659.381,-420.177 664.678,-420.231 660.571,-416.885 659.381,-420.177"/>
</g>
<!-- paramtk.FocusTakingButton -->
<g id="node22" class="node"><title>paramtk.FocusTakingButton</title>
<polygon fill="none" stroke="black" stroke-width="0.5" points="977,-400.5 829,-400.5 829,-379.5 977,-379.5 977,-400.5"/>
<text text-anchor="middle" x="903" y="-387.5" font-family="Vera" font-size="10.00">paramtk.FocusTakingButton</text>
</g>
<!-- Tkinter.Button&#45;&gt;paramtk.FocusTakingButton -->
<g id="edge16" class="edge"><title>Tkinter.Button&#45;&gt;paramtk.FocusTakingButton</title>
<path fill="none" stroke="black" stroke-width="0.5" d="M758.742,-390C777.861,-390 801.182,-390 823.453,-390"/>
<polygon fill="black" stroke="black" points="823.485,-391.75 828.485,-390 823.485,-388.25 823.485,-391.75"/>
</g>
<!-- Tkinter.Pack -->
<g id="node25" class="node"><title>Tkinter.Pack</title>
<polygon fill="none" stroke="black" stroke-width="0.5" points="345,-372.5 273,-372.5 273,-351.5 345,-351.5 345,-372.5"/>
<text text-anchor="middle" x="309" y="-359.5" font-family="Vera" font-size="10.00">Tkinter.Pack</text>
</g>
<!-- Tkinter.Pack&#45;&gt;Tkinter.Widget -->
<g id="edge30" class="edge"><title>Tkinter.Pack&#45;&gt;Tkinter.Widget</title>
<path fill="none" stroke="black" stroke-width="0.5" d="M345.96,-355.468C382.269,-349.05 437.801,-339.235 477.179,-332.275"/>
<polygon fill="black" stroke="black" points="477.764,-333.949 482.383,-331.356 477.154,-330.503 477.764,-333.949"/>
</g>
<!-- Tkinter.Place -->
<g id="node26" class="node"><title>Tkinter.Place</title>
<polygon fill="none" stroke="black" stroke-width="0.5" points="347,-334.5 271,-334.5 271,-313.5 347,-313.5 347,-334.5"/>
<text text-anchor="middle" x="309" y="-321.5" font-family="Vera" font-size="10.00">Tkinter.Place</text>
</g>
<!-- Tkinter.Place&#45;&gt;Tkinter.Widget -->
<g id="edge32" class="edge"><title>Tkinter.Place&#45;&gt;Tkinter.Widget</title>
<path fill="none" stroke="black" stroke-width="0.5" d="M347.935,-324C384.299,-324 438.629,-324 477.308,-324"/>
<polygon fill="black" stroke="black" points="477.42,-325.75 482.42,-324 477.42,-322.25 477.42,-325.75"/>
</g>
<!-- Tkinter.Grid -->
<g id="node27" class="node"><title>Tkinter.Grid</title>
<polygon fill="none" stroke="black" stroke-width="0.5" points="344,-296.5 274,-296.5 274,-275.5 344,-275.5 344,-296.5"/>
<text text-anchor="middle" x="309" y="-283.5" font-family="Vera" font-size="10.00">Tkinter.Grid</text>
</g>
<!-- Tkinter.Grid&#45;&gt;Tkinter.Widget -->
<g id="edge34" class="edge"><title>Tkinter.Grid&#45;&gt;Tkinter.Widget</title>
<path fill="none" stroke="black" stroke-width="0.5" d="M344.503,-292.275C380.687,-298.67 437.012,-308.625 476.905,-315.676"/>
<polygon fill="black" stroke="black" points="476.947,-317.461 482.175,-316.608 477.556,-314.014 476.947,-317.461"/>
</g>
<!-- paramtk.ProgressController -->
<g id="node29" class="node"><title>paramtk.ProgressController</title>
<polygon fill="none" stroke="black" stroke-width="0.5" points="791,-324.5 643,-324.5 643,-303.5 791,-303.5 791,-324.5"/>
<text text-anchor="middle" x="717" y="-311.5" font-family="Vera" font-size="10.00">paramtk.ProgressController</text>
</g>
<!-- paramtk.ProgressController&#45;&gt;paramtk.ProgressWindow -->
<g id="edge18" class="edge"><title>paramtk.ProgressController&#45;&gt;paramtk.ProgressWindow</title>
<path fill="none" stroke="black" stroke-width="0.5" d="M791.582,-314C803.962,-314 816.797,-314 829.159,-314"/>
<polygon fill="black" stroke="black" points="829.426,-315.75 834.426,-314 829.426,-312.25 829.426,-315.75"/>
</g>
<!-- paramtk.ParametersFrameWithApply -->
<g id="node36" class="node"><title>paramtk.ParametersFrameWithApply</title>
<polygon fill="none" stroke="black" stroke-width="0.5" points="1206,-286.5 1014,-286.5 1014,-265.5 1206,-265.5 1206,-286.5"/>
<text text-anchor="middle" x="1110" y="-273.5" font-family="Vera" font-size="10.00">paramtk.ParametersFrameWithApply</text>
</g>
<!-- paramtk.ParametersFrame&#45;&gt;paramtk.ParametersFrameWithApply -->
<g id="edge48" class="edge"><title>paramtk.ParametersFrame&#45;&gt;paramtk.ParametersFrameWithApply</title>
<path fill="none" stroke="black" stroke-width="0.5" d="M976.272,-276C986.862,-276 997.915,-276 1008.93,-276"/>
<polygon fill="black" stroke="black" points="1008.99,-277.75 1013.99,-276 1008.99,-274.25 1008.99,-277.75"/>
</g>
<!-- paramtk.EditingParametersFrameWithApply -->
<g id="node35" class="node"><title>paramtk.EditingParametersFrameWithApply</title>
<polygon fill="none" stroke="black" stroke-width="0.5" points="1466,-286.5 1242,-286.5 1242,-265.5 1466,-265.5 1466,-286.5"/>
<text text-anchor="middle" x="1354" y="-273.5" font-family="Vera" font-size="10.00">paramtk.EditingParametersFrameWithApply</text>
</g>
<!-- paramtk.ParametersFrameWithApply&#45;&gt;paramtk.EditingParametersFrameWithApply -->
<g id="edge26" class="edge"><title>paramtk.ParametersFrameWithApply&#45;&gt;paramtk.EditingParametersFrameWithApply</title>
<path fill="none" stroke="black" stroke-width="0.5" d="M1206.09,-276C1216.17,-276 1226.5,-276 1236.79,-276"/>
<polygon fill="black" stroke="black" points="1236.84,-277.75 1241.84,-276 1236.84,-274.25 1236.84,-277.75"/>
</g>
<!-- paramtk.Button -->
<g id="node42" class="node"><title>paramtk.Button</title>
<polygon fill="none" stroke="black" stroke-width="0.5" points="570,-647.5 478,-647.5 478,-626.5 570,-626.5 570,-647.5"/>
<text text-anchor="middle" x="524" y="-634.5" font-family="Vera" font-size="10.00">paramtk.Button</text>
</g>
<!-- param.Callable -->
<g id="node43" class="node"><title>param.Callable</title>
<polygon fill="none" stroke="black" stroke-width="0.5" points="353,-647.5 265,-647.5 265,-626.5 353,-626.5 353,-647.5"/>
<text text-anchor="middle" x="309" y="-634.5" font-family="Vera" font-size="10.00">param.Callable</text>
</g>
<!-- param.Callable&#45;&gt;paramtk.Button -->
<g id="edge36" class="edge"><title>param.Callable&#45;&gt;paramtk.Button</title>
<path fill="none" stroke="black" stroke-width="0.5" d="M353.548,-637C388.132,-637 436.136,-637 472.391,-637"/>
<polygon fill="black" stroke="black" points="472.652,-638.75 477.652,-637 472.652,-635.25 472.652,-638.75"/>
</g>
<!-- paramtk.ScrolledWindow -->
<g id="node71" class="node"><title>paramtk.ScrolledWindow</title>
<polygon fill="none" stroke="black" stroke-width="0.5" points="784,-49.5 650,-49.5 650,-28.5 784,-28.5 784,-49.5"/>
<text text-anchor="middle" x="717" y="-36.5" font-family="Vera" font-size="10.00">paramtk.ScrolledWindow</text>
</g>
<!-- Tkinter.Toplevel&#45;&gt;paramtk.ScrolledWindow -->
<g id="edge66" class="edge"><title>Tkinter.Toplevel&#45;&gt;paramtk.ScrolledWindow</title>
<path fill="none" stroke="black" stroke-width="0.5" d="M544.654,-123.833C580.35,-106.263 653.45,-70.2809 691.973,-51.3192"/>
<polygon fill="black" stroke="black" points="692.781,-52.8719 696.494,-49.0936 691.235,-49.7316 692.781,-52.8719"/>
</g>
<!-- paramtk.ToolTip -->
<g id="node76" class="node"><title>paramtk.ToolTip</title>
<polygon fill="none" stroke="black" stroke-width="0.5" points="763,-144.5 671,-144.5 671,-123.5 763,-123.5 763,-144.5"/>
<text text-anchor="middle" x="717" y="-131.5" font-family="Vera" font-size="10.00">paramtk.ToolTip</text>
</g>
<!-- Tkinter.Toplevel&#45;&gt;paramtk.ToolTip -->
<g id="edge72" class="edge"><title>Tkinter.Toplevel&#45;&gt;paramtk.ToolTip</title>
<path fill="none" stroke="black" stroke-width="0.5" d="M568.763,-134C597.711,-134 635.478,-134 665.646,-134"/>
<polygon fill="black" stroke="black" points="665.802,-135.75 670.802,-134 665.802,-132.25 665.802,-135.75"/>
</g>
<!-- paramtk.Eval_ReprTranslator -->
<g id="node53" class="node"><title>paramtk.Eval_ReprTranslator</title>
<polygon fill="none" stroke="black" stroke-width="0.5" points="385,-571.5 233,-571.5 233,-550.5 385,-550.5 385,-571.5"/>
<text text-anchor="middle" x="309" y="-558.5" font-family="Vera" font-size="10.00">paramtk.Eval_ReprTranslator</text>
</g>
<!-- paramtk.Translator -->
<g id="node54" class="node"><title>paramtk.Translator</title>
<polygon fill="none" stroke="black" stroke-width="0.5" points="141,-552.5 35,-552.5 35,-531.5 141,-531.5 141,-552.5"/>
<text text-anchor="middle" x="88" y="-539.5" font-family="Vera" font-size="10.00">paramtk.Translator</text>
</g>
<!-- paramtk.Translator&#45;&gt;paramtk.DoNothingTranslator -->
<g id="edge84" class="edge"><title>paramtk.Translator&#45;&gt;paramtk.DoNothingTranslator</title>
<path fill="none" stroke="black" stroke-width="0.5" d="M117.572,-552.012C142.543,-560.236 179.347,-571.822 212,-580 223.434,-582.864 235.715,-585.558 247.566,-587.969"/>
<polygon fill="black" stroke="black" points="247.368,-589.714 252.615,-588.984 248.058,-586.282 247.368,-589.714"/>
</g>
<!-- paramtk.Translator&#45;&gt;paramtk.Eval_ReprTranslator -->
<g id="edge50" class="edge"><title>paramtk.Translator&#45;&gt;paramtk.Eval_ReprTranslator</title>
<path fill="none" stroke="black" stroke-width="0.5" d="M141.78,-546.624C167.52,-548.837 198.894,-551.534 227.482,-553.992"/>
<polygon fill="black" stroke="black" points="227.654,-555.763 232.786,-554.448 227.954,-552.276 227.654,-555.763"/>
</g>
<!-- paramtk.String_ObjectTranslator -->
<g id="node62" class="node"><title>paramtk.String_ObjectTranslator</title>
<polygon fill="none" stroke="black" stroke-width="0.5" points="394,-533.5 224,-533.5 224,-512.5 394,-512.5 394,-533.5"/>
<text text-anchor="middle" x="309" y="-520.5" font-family="Vera" font-size="10.00">paramtk.String_ObjectTranslator</text>
</g>
<!-- paramtk.Translator&#45;&gt;paramtk.String_ObjectTranslator -->
<g id="edge68" class="edge"><title>paramtk.Translator&#45;&gt;paramtk.String_ObjectTranslator</title>
<path fill="none" stroke="black" stroke-width="0.5" d="M141.78,-537.376C164.778,-535.399 192.273,-533.035 218.261,-530.801"/>
<polygon fill="black" stroke="black" points="218.605,-532.528 223.437,-530.356 218.305,-529.041 218.605,-532.528"/>
</g>
<!-- paramtk.ListTranslator -->
<g id="node64" class="node"><title>paramtk.ListTranslator</title>
<polygon fill="none" stroke="black" stroke-width="0.5" points="370,-495.5 248,-495.5 248,-474.5 370,-474.5 370,-495.5"/>
<text text-anchor="middle" x="309" y="-482.5" font-family="Vera" font-size="10.00">paramtk.ListTranslator</text>
</g>
<!-- paramtk.Translator&#45;&gt;paramtk.ListTranslator -->
<g id="edge58" class="edge"><title>paramtk.Translator&#45;&gt;paramtk.ListTranslator</title>
<path fill="none" stroke="black" stroke-width="0.5" d="M117.572,-531.988C142.543,-523.764 179.347,-512.178 212,-504 223.434,-501.136 235.715,-498.442 247.566,-496.031"/>
<polygon fill="black" stroke="black" points="248.058,-497.718 252.615,-495.016 247.368,-494.286 248.058,-497.718"/>
</g>
<!-- paramtk.ScrodgetWidget -->
<g id="node60" class="node"><title>paramtk.ScrodgetWidget</title>
<polygon fill="none" stroke="black" stroke-width="0.5" points="592,-438.5 456,-438.5 456,-417.5 592,-417.5 592,-438.5"/>
<text text-anchor="middle" x="524" y="-425.5" font-family="Vera" font-size="10.00">paramtk.ScrodgetWidget</text>
</g>
<!-- paramtk.ScrodgetWidget&#45;&gt;paramtk.Scrodget -->
<g id="edge76" class="edge"><title>paramtk.ScrodgetWidget&#45;&gt;paramtk.Scrodget</title>
<path fill="none" stroke="black" stroke-width="0.5" d="M592.045,-428C614.148,-428 638.44,-428 659.681,-428"/>
<polygon fill="black" stroke="black" points="659.728,-429.75 664.728,-428 659.728,-426.25 659.728,-429.75"/>
</g>
<!-- paramtk.CSPTranslator -->
<g id="node61" class="node"><title>paramtk.CSPTranslator</title>
<polygon fill="none" stroke="black" stroke-width="0.5" points="587,-533.5 461,-533.5 461,-512.5 587,-512.5 587,-533.5"/>
<text text-anchor="middle" x="524" y="-520.5" font-family="Vera" font-size="10.00">paramtk.CSPTranslator</text>
</g>
<!-- paramtk.String_ObjectTranslator&#45;&gt;paramtk.CSPTranslator -->
<g id="edge56" class="edge"><title>paramtk.String_ObjectTranslator&#45;&gt;paramtk.CSPTranslator</title>
<path fill="none" stroke="black" stroke-width="0.5" d="M394.591,-523C414.822,-523 436.133,-523 455.493,-523"/>
<polygon fill="black" stroke="black" points="455.899,-524.75 460.899,-523 455.899,-521.25 455.899,-524.75"/>
</g>
<!-- param.parameterized.Parameter -->
<g id="node67" class="node"><title>param.parameterized.Parameter</title>
<polygon fill="none" stroke="black" stroke-width="0.5" points="175,-647.5 1,-647.5 1,-626.5 175,-626.5 175,-647.5"/>
<text text-anchor="middle" x="88" y="-634.5" font-family="Vera" font-size="10.00">param.parameterized.Parameter</text>
</g>
<!-- param.parameterized.Parameter&#45;&gt;param.Callable -->
<g id="edge62" class="edge"><title>param.parameterized.Parameter&#45;&gt;param.Callable</title>
<path fill="none" stroke="black" stroke-width="0.5" d="M175.662,-637C204.015,-637 234.464,-637 259.097,-637"/>
<polygon fill="black" stroke="black" points="259.263,-638.75 264.263,-637 259.263,-635.25 259.263,-638.75"/>
</g>
<!-- paramtk.AppWindow -->
<g id="node85" class="node"><title>paramtk.AppWindow</title>
<polygon fill="none" stroke="black" stroke-width="0.5" points="960,-20.5 846,-20.5 846,0.5 960,0.5 960,-20.5"/>
<text text-anchor="middle" x="903" y="-7.5" font-family="Vera" font-size="10.00">paramtk.AppWindow</text>
</g>
<!-- paramtk.ScrolledWindow&#45;&gt;paramtk.AppWindow -->
<g id="edge82" class="edge"><title>paramtk.ScrolledWindow&#45;&gt;paramtk.AppWindow</title>
<path fill="none" stroke="black" stroke-width="0.5" d="M781.271,-28.9792C800.467,-25.9863 821.474,-22.711 840.552,-19.7365"/>
<polygon fill="black" stroke="black" points="841.208,-21.4055 845.878,-18.9061 840.668,-17.9473 841.208,-21.4055"/>
</g>
</g>
</svg>
