<?xml version="1.0" encoding="UTF-8" standalone="no"?>
<!DOCTYPE svg PUBLIC "-//W3C//DTD SVG 1.1//EN"
 "http://www.w3.org/Graphics/SVG/1.1/DTD/svg11.dtd">
<!-- Generated by graphviz version 2.26.3 (20100126.1600)
 -->
<!-- Title: inheritance7784a43624 Pages: 1 -->
<svg width="932pt" height="180pt"
 viewBox="0.00 0.00 932.00 180.00" xmlns="http://www.w3.org/2000/svg" xmlns:xlink="http://www.w3.org/1999/xlink">
<g id="graph1" class="graph" transform="scale(1 1) rotate(0) translate(4 176)">
<title>inheritance7784a43624</title>
<polygon fill="white" stroke="white" points="-4,5 -4,-176 929,-176 929,5 -4,5"/>
<!-- topo.misc.lancext.RunBatchCommand -->
<g id="node1" class="node"><title>topo.misc.lancext.RunBatchCommand</title>
<polygon fill="none" stroke="black" stroke-width="0.5" points="924,-96.5 724,-96.5 724,-75.5 924,-75.5 924,-96.5"/>
<text text-anchor="middle" x="824" y="-83.5" font-family="Vera" font-size="10.00">topo.misc.lancext.RunBatchCommand</text>
</g>
<!-- topo.misc.lancext.TopoCommand -->
<g id="node2" class="node"><title>topo.misc.lancext.TopoCommand</title>
<polygon fill="none" stroke="black" stroke-width="0.5" points="682,-96.5 506,-96.5 506,-75.5 682,-75.5 682,-96.5"/>
<text text-anchor="middle" x="594" y="-83.5" font-family="Vera" font-size="10.00">topo.misc.lancext.TopoCommand</text>
</g>
<!-- topo.misc.lancext.TopoCommand&#45;&gt;topo.misc.lancext.RunBatchCommand -->
<g id="edge2" class="edge"><title>topo.misc.lancext.TopoCommand&#45;&gt;topo.misc.lancext.RunBatchCommand</title>
<path fill="none" stroke="black" stroke-width="0.5" d="M682.266,-86C694.127,-86 706.389,-86 718.509,-86"/>
<polygon fill="black" stroke="black" points="718.694,-87.7501 723.694,-86 718.694,-84.2501 718.694,-87.7501"/>
</g>
<!-- param.parameterized.Parameterized -->
<g id="node4" class="node"><title>param.parameterized.Parameterized</title>
<polygon fill="none" stroke="black" stroke-width="0.5" points="194,-77.5 5.68434e-14,-77.5 0,-56.5 194,-56.5 194,-77.5"/>
<text text-anchor="middle" x="97" y="-64.5" font-family="Vera" font-size="10.00">param.parameterized.Parameterized</text>
</g>
<!-- topo.misc.lancext.Analysis -->
<g id="node5" class="node"><title>topo.misc.lancext.Analysis</title>
<polygon fill="none" stroke="black" stroke-width="0.5" points="418,-134.5 276,-134.5 276,-113.5 418,-113.5 418,-134.5"/>
<text text-anchor="middle" x="347" y="-121.5" font-family="Vera" font-size="10.00">topo.misc.lancext.Analysis</text>
</g>
<!-- param.parameterized.Parameterized&#45;&gt;topo.misc.lancext.Analysis -->
<g id="edge6" class="edge"><title>param.parameterized.Parameterized&#45;&gt;topo.misc.lancext.Analysis</title>
<path fill="none" stroke="black" stroke-width="0.5" d="M128.175,-77.0297C154.96,-85.3762 194.727,-97.1254 230,-105 243.416,-107.995 257.796,-110.721 271.724,-113.113"/>
<polygon fill="black" stroke="black" points="271.61,-114.869 276.832,-113.98 272.195,-111.418 271.61,-114.869"/>
</g>
<!-- topo.misc.lancext.topo_metadata -->
<g id="node9" class="node"><title>topo.misc.lancext.topo_metadata</title>
<polygon fill="none" stroke="black" stroke-width="0.5" points="436,-20.5 258,-20.5 258,0.5 436,0.5 436,-20.5"/>
<text text-anchor="middle" x="347" y="-7.5" font-family="Vera" font-size="10.00">topo.misc.lancext.topo_metadata</text>
</g>
<!-- param.parameterized.Parameterized&#45;&gt;topo.misc.lancext.topo_metadata -->
<g id="edge8" class="edge"><title>param.parameterized.Parameterized&#45;&gt;topo.misc.lancext.topo_metadata</title>
<path fill="none" stroke="black" stroke-width="0.5" d="M128.175,-56.9703C154.96,-48.6238 194.727,-36.8746 230,-29 243.416,-26.005 257.796,-23.2794 271.724,-20.8865"/>
<polygon fill="black" stroke="black" points="272.195,-22.5816 276.832,-20.0201 271.61,-19.1309 272.195,-22.5816"/>
</g>
<!-- lancet.launch.Command -->
<g id="node11" class="node"><title>lancet.launch.Command</title>
<polygon fill="none" stroke="black" stroke-width="0.5" points="414,-96.5 280,-96.5 280,-75.5 414,-75.5 414,-96.5"/>
<text text-anchor="middle" x="347" y="-83.5" font-family="Vera" font-size="10.00">lancet.launch.Command</text>
</g>
<!-- param.parameterized.Parameterized&#45;&gt;lancet.launch.Command -->
<g id="edge12" class="edge"><title>param.parameterized.Parameterized&#45;&gt;lancet.launch.Command</title>
<path fill="none" stroke="black" stroke-width="0.5" d="M194.014,-74.3731C220.907,-76.417 249.622,-78.5993 274.825,-80.5147"/>
<polygon fill="black" stroke="black" points="274.699,-82.2601 279.818,-80.8941 274.965,-78.7702 274.699,-82.2601"/>
</g>
<!-- param.parameterized.ParameterizedFunction -->
<g id="node16" class="node"><title>param.parameterized.ParameterizedFunction</title>
<polygon fill="none" stroke="black" stroke-width="0.5" points="464,-58.5 230,-58.5 230,-37.5 464,-37.5 464,-58.5"/>
<text text-anchor="middle" x="347" y="-45.5" font-family="Vera" font-size="10.00">param.parameterized.ParameterizedFunction</text>
</g>
<!-- param.parameterized.Parameterized&#45;&gt;param.parameterized.ParameterizedFunction -->
<g id="edge20" class="edge"><title>param.parameterized.Parameterized&#45;&gt;param.parameterized.ParameterizedFunction</title>
<path fill="none" stroke="black" stroke-width="0.5" d="M194.014,-59.6269C204.04,-58.8649 214.319,-58.0837 224.575,-57.3043"/>
<polygon fill="black" stroke="black" points="224.754,-59.0458 229.607,-56.9219 224.489,-55.5559 224.754,-59.0458"/>
</g>
<!-- lancet.core.PrettyPrinted -->
<g id="node6" class="node"><title>lancet.core.PrettyPrinted</title>
<polygon fill="none" stroke="black" stroke-width="0.5" points="164,-134.5 30,-134.5 30,-113.5 164,-113.5 164,-134.5"/>
<text text-anchor="middle" x="97" y="-121.5" font-family="Vera" font-size="10.00">lancet.core.PrettyPrinted</text>
</g>
<!-- lancet.core.PrettyPrinted&#45;&gt;topo.misc.lancext.Analysis -->
<g id="edge4" class="edge"><title>lancet.core.PrettyPrinted&#45;&gt;topo.misc.lancext.Analysis</title>
<path fill="none" stroke="black" stroke-width="0.5" d="M164.654,-124C197.185,-124 236.332,-124 270.001,-124"/>
<polygon fill="black" stroke="black" points="270.356,-125.75 275.356,-124 270.356,-122.25 270.356,-125.75"/>
</g>
<!-- lancet.core.PrettyPrinted&#45;&gt;lancet.launch.Command -->
<g id="edge10" class="edge"><title>lancet.core.PrettyPrinted&#45;&gt;lancet.launch.Command</title>
<path fill="none" stroke="black" stroke-width="0.5" d="M163.012,-113.966C197.758,-108.685 240.394,-102.204 275.872,-96.8115"/>
<polygon fill="black" stroke="black" points="276.372,-98.5056 281.052,-96.024 275.846,-95.0454 276.372,-98.5056"/>
</g>
<!-- topo.misc.lancext.AnalysisFn -->
<g id="node18" class="node"><title>topo.misc.lancext.AnalysisFn</title>
<polygon fill="none" stroke="black" stroke-width="0.5" points="424,-172.5 270,-172.5 270,-151.5 424,-151.5 424,-172.5"/>
<text text-anchor="middle" x="347" y="-159.5" font-family="Vera" font-size="10.00">topo.misc.lancext.AnalysisFn</text>
</g>
<!-- lancet.core.PrettyPrinted&#45;&gt;topo.misc.lancext.AnalysisFn -->
<g id="edge18" class="edge"><title>lancet.core.PrettyPrinted&#45;&gt;topo.misc.lancext.AnalysisFn</title>
<path fill="none" stroke="black" stroke-width="0.5" d="M163.012,-134.034C197.758,-139.315 240.394,-145.796 275.872,-151.189"/>
<polygon fill="black" stroke="black" points="275.846,-152.955 281.052,-151.976 276.372,-149.494 275.846,-152.955"/>
</g>
<!-- lancet.launch.Command&#45;&gt;topo.misc.lancext.TopoCommand -->
<g id="edge14" class="edge"><title>lancet.launch.Command&#45;&gt;topo.misc.lancext.TopoCommand</title>
<path fill="none" stroke="black" stroke-width="0.5" d="M414.168,-86C440.795,-86 471.87,-86 500.624,-86"/>
<polygon fill="black" stroke="black" points="500.965,-87.7501 505.965,-86 500.965,-84.2501 500.965,-87.7501"/>
</g>
<!-- topo.misc.lancext.param_formatter -->
<g id="node15" class="node"><title>topo.misc.lancext.param_formatter</title>
<polygon fill="none" stroke="black" stroke-width="0.5" points="687,-58.5 501,-58.5 501,-37.5 687,-37.5 687,-58.5"/>
<text text-anchor="middle" x="594" y="-45.5" font-family="Vera" font-size="10.00">topo.misc.lancext.param_formatter</text>
</g>
<!-- param.parameterized.ParameterizedFunction&#45;&gt;topo.misc.lancext.param_formatter -->
<g id="edge16" class="edge"><title>param.parameterized.ParameterizedFunction&#45;&gt;topo.misc.lancext.param_formatter</title>
<path fill="none" stroke="black" stroke-width="0.5" d="M464.351,-48C474.633,-48 484.972,-48 495.081,-48"/>
<polygon fill="black" stroke="black" points="495.345,-49.7501 500.345,-48 495.345,-46.2501 495.345,-49.7501"/>
</g>
</g>
</svg>
