<?xml version="1.0" encoding="UTF-8" standalone="no"?>
<!DOCTYPE svg PUBLIC "-//W3C//DTD SVG 1.1//EN"
 "http://www.w3.org/Graphics/SVG/1.1/DTD/svg11.dtd">
<!-- Generated by graphviz version 2.26.3 (20100126.1600)
 -->
<!-- Title: inheritanceae4e107fd6 Pages: 1 -->
<svg width="440pt" height="66pt"
 viewBox="0.00 0.00 440.00 66.00" xmlns="http://www.w3.org/2000/svg" xmlns:xlink="http://www.w3.org/1999/xlink">
<g id="graph1" class="graph" transform="scale(1 1) rotate(0) translate(4 62)">
<title>inheritanceae4e107fd6</title>
<polygon fill="white" stroke="white" points="-4,5 -4,-62 437,-62 437,5 -4,5"/>
<!-- topo.tests.unit.testfeaturemap.TestDistributionMatrix -->
<g id="node1" class="node"><title>topo.tests.unit.testfeaturemap.TestDistributionMatrix</title>
<polygon fill="none" stroke="black" stroke-width="0.5" points="432,-58.5 162,-58.5 162,-37.5 432,-37.5 432,-58.5"/>
<text text-anchor="middle" x="297" y="-45.5" font-family="Vera" font-size="10.00">topo.tests.unit.testfeaturemap.TestDistributionMatrix</text>
</g>
<!-- unittest.case.TestCase -->
<g id="node2" class="node"><title>unittest.case.TestCase</title>
<polygon fill="none" stroke="black" stroke-width="0.5" points="125,-39.5 1,-39.5 1,-18.5 125,-18.5 125,-39.5"/>
<text text-anchor="middle" x="63" y="-26.5" font-family="Vera" font-size="10.00">unittest.case.TestCase</text>
</g>
<!-- unittest.case.TestCase&#45;&gt;topo.tests.unit.testfeaturemap.TestDistributionMatrix -->
<g id="edge2" class="edge"><title>unittest.case.TestCase&#45;&gt;topo.tests.unit.testfeaturemap.TestDistributionMatrix</title>
<path fill="none" stroke="black" stroke-width="0.5" d="M125.708,-34.0917C139.087,-35.178 153.683,-36.3632 168.528,-37.5685"/>
<polygon fill="black" stroke="black" points="168.445,-39.3175 173.571,-37.9779 168.729,-35.8289 168.445,-39.3175"/>
</g>
<!-- topo.tests.unit.testfeaturemap.TestFeatureMaps -->
<g id="node4" class="node"><title>topo.tests.unit.testfeaturemap.TestFeatureMaps</title>
<polygon fill="none" stroke="black" stroke-width="0.5" points="421,-20.5 173,-20.5 173,0.5 421,0.5 421,-20.5"/>
<text text-anchor="middle" x="297" y="-7.5" font-family="Vera" font-size="10.00">topo.tests.unit.testfeaturemap.TestFeatureMaps</text>
</g>
<!-- unittest.case.TestCase&#45;&gt;topo.tests.unit.testfeaturemap.TestFeatureMaps -->
<g id="edge4" class="edge"><title>unittest.case.TestCase&#45;&gt;topo.tests.unit.testfeaturemap.TestFeatureMaps</title>
<path fill="none" stroke="black" stroke-width="0.5" d="M125.708,-23.9083C139.087,-22.822 153.683,-21.6368 168.528,-20.4315"/>
<polygon fill="black" stroke="black" points="168.729,-22.1711 173.571,-20.0221 168.445,-18.6825 168.729,-22.1711"/>
</g>
</g>
</svg>
