<?xml version="1.0" encoding="UTF-8" standalone="no"?>
<!DOCTYPE svg PUBLIC "-//W3C//DTD SVG 1.1//EN"
 "http://www.w3.org/Graphics/SVG/1.1/DTD/svg11.dtd">
<!-- Generated by graphviz version 2.26.3 (20100126.1600)
 -->
<!-- Title: inheritance52647f6470 Pages: 1 -->
<svg width="1612pt" height="66pt"
 viewBox="0.00 0.00 1612.00 66.00" xmlns="http://www.w3.org/2000/svg" xmlns:xlink="http://www.w3.org/1999/xlink">
<g id="graph1" class="graph" transform="scale(1 1) rotate(0) translate(4 62)">
<title>inheritance52647f6470</title>
<polygon fill="white" stroke="white" points="-4,5 -4,-62 1609,-62 1609,5 -4,5"/>
<!-- topo.base.cf.CFSheet -->
<g id="node1" class="node"><title>topo.base.cf.CFSheet</title>
<polygon fill="none" stroke="black" stroke-width="0.5" points="1013,-39.5 895,-39.5 895,-18.5 1013,-18.5 1013,-39.5"/>
<text text-anchor="middle" x="954" y="-26.5" font-family="Vera" font-size="10.00">topo.base.cf.CFSheet</text>
</g>
<!-- topo.sheet.JointNormalizingCFSheet -->
<g id="node11" class="node"><title>topo.sheet.JointNormalizingCFSheet</title>
<polygon fill="none" stroke="black" stroke-width="0.5" points="1239,-39.5 1051,-39.5 1051,-18.5 1239,-18.5 1239,-39.5"/>
<text text-anchor="middle" x="1145" y="-26.5" font-family="Vera" font-size="10.00">topo.sheet.JointNormalizingCFSheet</text>
</g>
<!-- topo.base.cf.CFSheet&#45;&gt;topo.sheet.JointNormalizingCFSheet -->
<g id="edge8" class="edge"><title>topo.base.cf.CFSheet&#45;&gt;topo.sheet.JointNormalizingCFSheet</title>
<path fill="none" stroke="black" stroke-width="0.5" d="M1013.65,-29C1023.71,-29 1034.4,-29 1045.16,-29"/>
<polygon fill="black" stroke="black" points="1045.44,-30.7501 1050.44,-29 1045.44,-27.2501 1045.44,-30.7501"/>
</g>
<!-- topo.base.projection.ProjectionSheet -->
<g id="node2" class="node"><title>topo.base.projection.ProjectionSheet</title>
<polygon fill="none" stroke="black" stroke-width="0.5" points="858,-39.5 664,-39.5 664,-18.5 858,-18.5 858,-39.5"/>
<text text-anchor="middle" x="761" y="-26.5" font-family="Vera" font-size="10.00">topo.base.projection.ProjectionSheet</text>
</g>
<!-- topo.base.projection.ProjectionSheet&#45;&gt;topo.base.cf.CFSheet -->
<g id="edge2" class="edge"><title>topo.base.projection.ProjectionSheet&#45;&gt;topo.base.cf.CFSheet</title>
<path fill="none" stroke="black" stroke-width="0.5" d="M858.065,-29C868.617,-29 879.159,-29 889.188,-29"/>
<polygon fill="black" stroke="black" points="889.383,-30.7501 894.383,-29 889.383,-27.2501 889.383,-30.7501"/>
</g>
<!-- param.parameterized.Parameterized -->
<g id="node4" class="node"><title>param.parameterized.Parameterized</title>
<polygon fill="none" stroke="black" stroke-width="0.5" points="194,-58.5 5.68434e-14,-58.5 0,-37.5 194,-37.5 194,-58.5"/>
<text text-anchor="middle" x="97" y="-45.5" font-family="Vera" font-size="10.00">param.parameterized.Parameterized</text>
</g>
<!-- topo.base.simulation.EventProcessor -->
<g id="node5" class="node"><title>topo.base.simulation.EventProcessor</title>
<polygon fill="none" stroke="black" stroke-width="0.5" points="445,-58.5 251,-58.5 251,-37.5 445,-37.5 445,-58.5"/>
<text text-anchor="middle" x="348" y="-45.5" font-family="Vera" font-size="10.00">topo.base.simulation.EventProcessor</text>
</g>
<!-- param.parameterized.Parameterized&#45;&gt;topo.base.simulation.EventProcessor -->
<g id="edge4" class="edge"><title>param.parameterized.Parameterized&#45;&gt;topo.base.simulation.EventProcessor</title>
<path fill="none" stroke="black" stroke-width="0.5" d="M194.043,-48C210.921,-48 228.523,-48 245.54,-48"/>
<polygon fill="black" stroke="black" points="245.801,-49.7501 250.801,-48 245.801,-46.2501 245.801,-49.7501"/>
</g>
<!-- topo.base.sheet.Sheet -->
<g id="node13" class="node"><title>topo.base.sheet.Sheet</title>
<polygon fill="none" stroke="black" stroke-width="0.5" points="628,-39.5 502,-39.5 502,-18.5 628,-18.5 628,-39.5"/>
<text text-anchor="middle" x="565" y="-26.5" font-family="Vera" font-size="10.00">topo.base.sheet.Sheet</text>
</g>
<!-- topo.base.simulation.EventProcessor&#45;&gt;topo.base.sheet.Sheet -->
<g id="edge10" class="edge"><title>topo.base.simulation.EventProcessor&#45;&gt;topo.base.sheet.Sheet</title>
<path fill="none" stroke="black" stroke-width="0.5" d="M445.075,-39.5003C462.563,-37.9691 480.451,-36.4029 496.895,-34.9631"/>
<polygon fill="black" stroke="black" points="497.122,-36.7001 501.95,-34.5205 496.816,-33.2134 497.122,-36.7001"/>
</g>
<!-- topo.sheet.lissom.LISSOM -->
<g id="node7" class="node"><title>topo.sheet.lissom.LISSOM</title>
<polygon fill="none" stroke="black" stroke-width="0.5" points="1604,-39.5 1462,-39.5 1462,-18.5 1604,-18.5 1604,-39.5"/>
<text text-anchor="middle" x="1533" y="-26.5" font-family="Vera" font-size="10.00">topo.sheet.lissom.LISSOM</text>
</g>
<!-- topo.sheet.SettlingCFSheet -->
<g id="node8" class="node"><title>topo.sheet.SettlingCFSheet</title>
<polygon fill="none" stroke="black" stroke-width="0.5" points="1425,-39.5 1277,-39.5 1277,-18.5 1425,-18.5 1425,-39.5"/>
<text text-anchor="middle" x="1351" y="-26.5" font-family="Vera" font-size="10.00">topo.sheet.SettlingCFSheet</text>
</g>
<!-- topo.sheet.SettlingCFSheet&#45;&gt;topo.sheet.lissom.LISSOM -->
<g id="edge6" class="edge"><title>topo.sheet.SettlingCFSheet&#45;&gt;topo.sheet.lissom.LISSOM</title>
<path fill="none" stroke="black" stroke-width="0.5" d="M1425.55,-29C1435.84,-29 1446.43,-29 1456.75,-29"/>
<polygon fill="black" stroke="black" points="1456.79,-30.7501 1461.79,-29 1456.79,-27.2501 1456.79,-30.7501"/>
</g>
<!-- imagen.sheetcoords.SheetCoordinateSystem -->
<g id="node10" class="node"><title>imagen.sheetcoords.SheetCoordinateSystem</title>
<polygon fill="none" stroke="black" stroke-width="0.5" points="466,-20.5 230,-20.5 230,0.5 466,0.5 466,-20.5"/>
<text text-anchor="middle" x="348" y="-7.5" font-family="Vera" font-size="10.00">imagen.sheetcoords.SheetCoordinateSystem</text>
</g>
<!-- imagen.sheetcoords.SheetCoordinateSystem&#45;&gt;topo.base.sheet.Sheet -->
<g id="edge12" class="edge"><title>imagen.sheetcoords.SheetCoordinateSystem&#45;&gt;topo.base.sheet.Sheet</title>
<path fill="none" stroke="black" stroke-width="0.5" d="M462.219,-20.0008C473.996,-21.0319 485.682,-22.0551 496.721,-23.0217"/>
<polygon fill="black" stroke="black" points="496.612,-24.7687 501.746,-23.4616 496.918,-21.2821 496.612,-24.7687"/>
</g>
<!-- topo.sheet.JointNormalizingCFSheet&#45;&gt;topo.sheet.SettlingCFSheet -->
<g id="edge14" class="edge"><title>topo.sheet.JointNormalizingCFSheet&#45;&gt;topo.sheet.SettlingCFSheet</title>
<path fill="none" stroke="black" stroke-width="0.5" d="M1239.56,-29C1250.19,-29 1260.95,-29 1271.37,-29"/>
<polygon fill="black" stroke="black" points="1271.45,-30.7501 1276.45,-29 1271.45,-27.2501 1271.45,-30.7501"/>
</g>
<!-- topo.base.sheet.Sheet&#45;&gt;topo.base.projection.ProjectionSheet -->
<g id="edge16" class="edge"><title>topo.base.sheet.Sheet&#45;&gt;topo.base.projection.ProjectionSheet</title>
<path fill="none" stroke="black" stroke-width="0.5" d="M628.095,-29C637.904,-29 648.25,-29 658.662,-29"/>
<polygon fill="black" stroke="black" points="658.776,-30.7501 663.776,-29 658.776,-27.2501 658.776,-30.7501"/>
</g>
</g>
</svg>
