<?xml version="1.0" encoding="UTF-8" standalone="no"?>
<!DOCTYPE svg PUBLIC "-//W3C//DTD SVG 1.1//EN"
 "http://www.w3.org/Graphics/SVG/1.1/DTD/svg11.dtd">
<!-- Generated by graphviz version 2.26.3 (20100126.1600)
 -->
<!-- Title: inheritance25825c39b2 Pages: 1 -->
<svg width="1312pt" height="104pt"
 viewBox="0.00 0.00 1312.00 104.00" xmlns="http://www.w3.org/2000/svg" xmlns:xlink="http://www.w3.org/1999/xlink">
<g id="graph1" class="graph" transform="scale(1 1) rotate(0) translate(4 100)">
<title>inheritance25825c39b2</title>
<polygon fill="white" stroke="white" points="-4,5 -4,-100 1309,-100 1309,5 -4,5"/>
<!-- imagen.Spectrogram -->
<g id="node1" class="node"><title>imagen.Spectrogram</title>
<polygon fill="none" stroke="black" stroke-width="0.5" points="808,-58.5 690,-58.5 690,-37.5 808,-37.5 808,-58.5"/>
<text text-anchor="middle" x="749" y="-45.5" font-family="Vera" font-size="10.00">imagen.Spectrogram</text>
</g>
<!-- imagen.audio.LogSpectrogram -->
<g id="node17" class="node"><title>imagen.audio.LogSpectrogram</title>
<polygon fill="none" stroke="black" stroke-width="0.5" points="1046,-58.5 882,-58.5 882,-37.5 1046,-37.5 1046,-58.5"/>
<text text-anchor="middle" x="964" y="-45.5" font-family="Vera" font-size="10.00">imagen.audio.LogSpectrogram</text>
</g>
<!-- imagen.Spectrogram&#45;&gt;imagen.audio.LogSpectrogram -->
<g id="edge16" class="edge"><title>imagen.Spectrogram&#45;&gt;imagen.audio.LogSpectrogram</title>
<path fill="none" stroke="black" stroke-width="0.5" d="M808.604,-48C829.516,-48 853.467,-48 876.202,-48"/>
<polygon fill="black" stroke="black" points="876.337,-49.7501 881.337,-48 876.337,-46.2501 876.337,-49.7501"/>
</g>
<!-- imagen.PowerSpectrum -->
<g id="node2" class="node"><title>imagen.PowerSpectrum</title>
<polygon fill="none" stroke="black" stroke-width="0.5" points="621,-58.5 491,-58.5 491,-37.5 621,-37.5 621,-58.5"/>
<text text-anchor="middle" x="556" y="-45.5" font-family="Vera" font-size="10.00">imagen.PowerSpectrum</text>
</g>
<!-- imagen.PowerSpectrum&#45;&gt;imagen.Spectrogram -->
<g id="edge2" class="edge"><title>imagen.PowerSpectrum&#45;&gt;imagen.Spectrogram</title>
<path fill="none" stroke="black" stroke-width="0.5" d="M621.61,-48C641.859,-48 664.137,-48 684.323,-48"/>
<polygon fill="black" stroke="black" points="684.407,-49.7501 689.407,-48 684.407,-46.2501 684.407,-49.7501"/>
</g>
<!-- imagen.audio.LyonsCochlearModel -->
<g id="node4" class="node"><title>imagen.audio.LyonsCochlearModel</title>
<polygon fill="none" stroke="black" stroke-width="0.5" points="840,-20.5 658,-20.5 658,0.5 840,0.5 840,-20.5"/>
<text text-anchor="middle" x="749" y="-7.5" font-family="Vera" font-size="10.00">imagen.audio.LyonsCochlearModel</text>
</g>
<!-- imagen.PowerSpectrum&#45;&gt;imagen.audio.LyonsCochlearModel -->
<g id="edge4" class="edge"><title>imagen.PowerSpectrum&#45;&gt;imagen.audio.LyonsCochlearModel</title>
<path fill="none" stroke="black" stroke-width="0.5" d="M606.961,-37.9662C633.455,-32.7497 665.892,-26.3632 693.076,-21.0109"/>
<polygon fill="black" stroke="black" points="693.521,-22.7071 698.088,-20.024 692.844,-19.273 693.521,-22.7071"/>
</g>
<!-- imagen.audio.LyonsCochleogram -->
<g id="node11" class="node"><title>imagen.audio.LyonsCochleogram</title>
<polygon fill="none" stroke="black" stroke-width="0.5" points="1052,-20.5 876,-20.5 876,0.5 1052,0.5 1052,-20.5"/>
<text text-anchor="middle" x="964" y="-7.5" font-family="Vera" font-size="10.00">imagen.audio.LyonsCochleogram</text>
</g>
<!-- imagen.audio.LyonsCochlearModel&#45;&gt;imagen.audio.LyonsCochleogram -->
<g id="edge10" class="edge"><title>imagen.audio.LyonsCochlearModel&#45;&gt;imagen.audio.LyonsCochleogram</title>
<path fill="none" stroke="black" stroke-width="0.5" d="M840.179,-10C850.218,-10 860.451,-10 870.517,-10"/>
<polygon fill="black" stroke="black" points="870.764,-11.7501 875.764,-10 870.764,-8.2501 870.764,-11.7501"/>
</g>
<!-- param.parameterized.Parameterized -->
<g id="node6" class="node"><title>param.parameterized.Parameterized</title>
<polygon fill="none" stroke="black" stroke-width="0.5" points="194,-77.5 5.68434e-14,-77.5 0,-56.5 194,-56.5 194,-77.5"/>
<text text-anchor="middle" x="97" y="-64.5" font-family="Vera" font-size="10.00">param.parameterized.Parameterized</text>
</g>
<!-- imagen.TimeSeries -->
<g id="node7" class="node"><title>imagen.TimeSeries</title>
<polygon fill="none" stroke="black" stroke-width="0.5" points="396,-96.5 288,-96.5 288,-75.5 396,-75.5 396,-96.5"/>
<text text-anchor="middle" x="342" y="-83.5" font-family="Vera" font-size="10.00">imagen.TimeSeries</text>
</g>
<!-- param.parameterized.Parameterized&#45;&gt;imagen.TimeSeries -->
<g id="edge6" class="edge"><title>param.parameterized.Parameterized&#45;&gt;imagen.TimeSeries</title>
<path fill="none" stroke="black" stroke-width="0.5" d="M194.182,-74.5366C223.866,-76.8386 255.624,-79.3015 282.066,-81.352"/>
<polygon fill="black" stroke="black" points="282.161,-83.1146 287.281,-81.7565 282.431,-79.625 282.161,-83.1146"/>
</g>
<!-- imagen.patterngenerator.PatternGenerator -->
<g id="node13" class="node"><title>imagen.patterngenerator.PatternGenerator</title>
<polygon fill="none" stroke="black" stroke-width="0.5" points="454,-58.5 230,-58.5 230,-37.5 454,-37.5 454,-58.5"/>
<text text-anchor="middle" x="342" y="-45.5" font-family="Vera" font-size="10.00">imagen.patterngenerator.PatternGenerator</text>
</g>
<!-- param.parameterized.Parameterized&#45;&gt;imagen.patterngenerator.PatternGenerator -->
<g id="edge12" class="edge"><title>param.parameterized.Parameterized&#45;&gt;imagen.patterngenerator.PatternGenerator</title>
<path fill="none" stroke="black" stroke-width="0.5" d="M194.182,-59.4634C204.286,-58.6799 214.629,-57.8777 224.922,-57.0795"/>
<polygon fill="black" stroke="black" points="225.12,-58.8195 229.969,-56.6881 224.849,-55.33 225.12,-58.8195"/>
</g>
<!-- imagen.audio.AudioFile -->
<g id="node9" class="node"><title>imagen.audio.AudioFile</title>
<polygon fill="none" stroke="black" stroke-width="0.5" points="619,-96.5 493,-96.5 493,-75.5 619,-75.5 619,-96.5"/>
<text text-anchor="middle" x="556" y="-83.5" font-family="Vera" font-size="10.00">imagen.audio.AudioFile</text>
</g>
<!-- imagen.TimeSeries&#45;&gt;imagen.audio.AudioFile -->
<g id="edge8" class="edge"><title>imagen.TimeSeries&#45;&gt;imagen.audio.AudioFile</title>
<path fill="none" stroke="black" stroke-width="0.5" d="M396.555,-86C424.181,-86 458.005,-86 487.38,-86"/>
<polygon fill="black" stroke="black" points="487.431,-87.7501 492.431,-86 487.431,-84.2501 487.431,-87.7501"/>
</g>
<!-- imagen.audio.AudioFolder -->
<g id="node15" class="node"><title>imagen.audio.AudioFolder</title>
<polygon fill="none" stroke="black" stroke-width="0.5" points="819,-96.5 679,-96.5 679,-75.5 819,-75.5 819,-96.5"/>
<text text-anchor="middle" x="749" y="-83.5" font-family="Vera" font-size="10.00">imagen.audio.AudioFolder</text>
</g>
<!-- imagen.audio.AudioFile&#45;&gt;imagen.audio.AudioFolder -->
<g id="edge14" class="edge"><title>imagen.audio.AudioFile&#45;&gt;imagen.audio.AudioFolder</title>
<path fill="none" stroke="black" stroke-width="0.5" d="M619.73,-86C636.746,-86 655.303,-86 672.911,-86"/>
<polygon fill="black" stroke="black" points="673.342,-87.7501 678.342,-86 673.342,-84.2501 673.342,-87.7501"/>
</g>
<!-- imagen.patterngenerator.PatternGenerator&#45;&gt;imagen.PowerSpectrum -->
<g id="edge18" class="edge"><title>imagen.patterngenerator.PatternGenerator&#45;&gt;imagen.PowerSpectrum</title>
<path fill="none" stroke="black" stroke-width="0.5" d="M454.014,-48C464.606,-48 475.133,-48 485.178,-48"/>
<polygon fill="black" stroke="black" points="485.384,-49.7501 490.384,-48 485.384,-46.2501 485.384,-49.7501"/>
</g>
<!-- imagen.audio.ModulatedLogSpectrogram -->
<g id="node20" class="node"><title>imagen.audio.ModulatedLogSpectrogram</title>
<polygon fill="none" stroke="black" stroke-width="0.5" points="1303,-58.5 1089,-58.5 1089,-37.5 1303,-37.5 1303,-58.5"/>
<text text-anchor="middle" x="1196" y="-45.5" font-family="Vera" font-size="10.00">imagen.audio.ModulatedLogSpectrogram</text>
</g>
<!-- imagen.audio.LogSpectrogram&#45;&gt;imagen.audio.ModulatedLogSpectrogram -->
<g id="edge20" class="edge"><title>imagen.audio.LogSpectrogram&#45;&gt;imagen.audio.ModulatedLogSpectrogram</title>
<path fill="none" stroke="black" stroke-width="0.5" d="M1046.77,-48C1058.5,-48 1070.73,-48 1082.91,-48"/>
<polygon fill="black" stroke="black" points="1083.12,-49.7501 1088.12,-48 1083.12,-46.2501 1083.12,-49.7501"/>
</g>
</g>
</svg>
