<?xml version="1.0" encoding="UTF-8" standalone="no"?>
<!DOCTYPE svg PUBLIC "-//W3C//DTD SVG 1.1//EN"
 "http://www.w3.org/Graphics/SVG/1.1/DTD/svg11.dtd">
<!-- Generated by graphviz version 2.26.3 (20100126.1600)
 -->
<!-- Title: inheritancef4cea304dd Pages: 1 -->
<svg width="1136pt" height="256pt"
 viewBox="0.00 0.00 1136.00 256.00" xmlns="http://www.w3.org/2000/svg" xmlns:xlink="http://www.w3.org/1999/xlink">
<g id="graph1" class="graph" transform="scale(1 1) rotate(0) translate(4 252)">
<title>inheritancef4cea304dd</title>
<polygon fill="white" stroke="white" points="-4,5 -4,-252 1133,-252 1133,5 -4,5"/>
<!-- param.parameterized.Parameterized -->
<g id="node1" class="node"><title>param.parameterized.Parameterized</title>
<polygon fill="none" stroke="black" stroke-width="0.5" points="194,-134.5 5.68434e-14,-134.5 0,-113.5 194,-113.5 194,-134.5"/>
<text text-anchor="middle" x="97" y="-121.5" font-family="Vera" font-size="10.00">param.parameterized.Parameterized</text>
</g>
<!-- topo.base.cf.CFPOutputFn -->
<g id="node3" class="node"><title>topo.base.cf.CFPOutputFn</title>
<polygon fill="none" stroke="black" stroke-width="0.5" points="424,-210.5 284,-210.5 284,-189.5 424,-189.5 424,-210.5"/>
<text text-anchor="middle" x="354" y="-197.5" font-family="Vera" font-size="10.00">topo.base.cf.CFPOutputFn</text>
</g>
<!-- param.parameterized.Parameterized&#45;&gt;topo.base.cf.CFPOutputFn -->
<g id="edge18" class="edge"><title>param.parameterized.Parameterized&#45;&gt;topo.base.cf.CFPOutputFn</title>
<path fill="none" stroke="black" stroke-width="0.5" d="M172.778,-134.022C180.177,-136.411 187.384,-139.361 194,-143 214.384,-154.213 209.389,-170.211 230,-181 244.863,-188.78 262.009,-193.599 278.718,-196.533"/>
<polygon fill="black" stroke="black" points="278.669,-198.299 283.887,-197.385 279.238,-194.845 278.669,-198.299"/>
</g>
<!-- topo.base.cf.CFPLearningFn -->
<g id="node11" class="node"><title>topo.base.cf.CFPLearningFn</title>
<polygon fill="none" stroke="black" stroke-width="0.5" points="428,-172.5 280,-172.5 280,-151.5 428,-151.5 428,-172.5"/>
<text text-anchor="middle" x="354" y="-159.5" font-family="Vera" font-size="10.00">topo.base.cf.CFPLearningFn</text>
</g>
<!-- param.parameterized.Parameterized&#45;&gt;topo.base.cf.CFPLearningFn -->
<g id="edge30" class="edge"><title>param.parameterized.Parameterized&#45;&gt;topo.base.cf.CFPLearningFn</title>
<path fill="none" stroke="black" stroke-width="0.5" d="M164.86,-134.034C200.579,-139.315 244.41,-145.796 280.88,-151.189"/>
<polygon fill="black" stroke="black" points="281.004,-152.976 286.206,-151.976 281.516,-149.513 281.004,-152.976"/>
</g>
<!-- topo.base.simulation.EventProcessor -->
<g id="node14" class="node"><title>topo.base.simulation.EventProcessor</title>
<polygon fill="none" stroke="black" stroke-width="0.5" points="451,-134.5 257,-134.5 257,-113.5 451,-113.5 451,-134.5"/>
<text text-anchor="middle" x="354" y="-121.5" font-family="Vera" font-size="10.00">topo.base.simulation.EventProcessor</text>
</g>
<!-- param.parameterized.Parameterized&#45;&gt;topo.base.simulation.EventProcessor -->
<g id="edge28" class="edge"><title>param.parameterized.Parameterized&#45;&gt;topo.base.simulation.EventProcessor</title>
<path fill="none" stroke="black" stroke-width="0.5" d="M194.161,-124C212.87,-124 232.524,-124 251.4,-124"/>
<polygon fill="black" stroke="black" points="251.702,-125.75 256.702,-124 251.702,-122.25 251.702,-125.75"/>
</g>
<!-- topo.base.cf.CFPResponseFn -->
<g id="node20" class="node"><title>topo.base.cf.CFPResponseFn</title>
<polygon fill="none" stroke="black" stroke-width="0.5" points="430,-58.5 278,-58.5 278,-37.5 430,-37.5 430,-58.5"/>
<text text-anchor="middle" x="354" y="-45.5" font-family="Vera" font-size="10.00">topo.base.cf.CFPResponseFn</text>
</g>
<!-- param.parameterized.Parameterized&#45;&gt;topo.base.cf.CFPResponseFn -->
<g id="edge22" class="edge"><title>param.parameterized.Parameterized&#45;&gt;topo.base.cf.CFPResponseFn</title>
<path fill="none" stroke="black" stroke-width="0.5" d="M116.26,-113.9C141.633,-101.03 187.972,-79.0155 230,-67 243.428,-63.161 257.909,-60.0532 272.073,-57.551"/>
<polygon fill="black" stroke="black" points="272.644,-59.2286 277.275,-56.6563 272.05,-55.7793 272.644,-59.2286"/>
</g>
<!-- topo.base.simulation.EPConnection -->
<g id="node26" class="node"><title>topo.base.simulation.EPConnection</title>
<polygon fill="none" stroke="black" stroke-width="0.5" points="447,-20.5 261,-20.5 261,0.5 447,0.5 447,-20.5"/>
<text text-anchor="middle" x="354" y="-7.5" font-family="Vera" font-size="10.00">topo.base.simulation.EPConnection</text>
</g>
<!-- param.parameterized.Parameterized&#45;&gt;topo.base.simulation.EPConnection -->
<g id="edge20" class="edge"><title>param.parameterized.Parameterized&#45;&gt;topo.base.simulation.EPConnection</title>
<path fill="none" stroke="black" stroke-width="0.5" d="M107.325,-113.938C128.404,-94.0518 178.742,-49.8395 230,-29 238.256,-25.6434 247.041,-22.8744 255.975,-20.591"/>
<polygon fill="black" stroke="black" points="256.512,-22.2614 260.952,-19.3717 255.679,-18.8619 256.512,-22.2614"/>
</g>
<!-- topo.base.cf.CFPOF_Identity -->
<g id="node2" class="node"><title>topo.base.cf.CFPOF_Identity</title>
<polygon fill="none" stroke="black" stroke-width="0.5" points="671,-248.5 523,-248.5 523,-227.5 671,-227.5 671,-248.5"/>
<text text-anchor="middle" x="597" y="-235.5" font-family="Vera" font-size="10.00">topo.base.cf.CFPOF_Identity</text>
</g>
<!-- topo.base.cf.CFPOutputFn&#45;&gt;topo.base.cf.CFPOF_Identity -->
<g id="edge2" class="edge"><title>topo.base.cf.CFPOutputFn&#45;&gt;topo.base.cf.CFPOF_Identity</title>
<path fill="none" stroke="black" stroke-width="0.5" d="M418.163,-210.034C451.937,-215.315 493.379,-221.796 527.863,-227.189"/>
<polygon fill="black" stroke="black" points="527.688,-228.932 532.899,-227.976 528.229,-225.474 527.688,-228.932"/>
</g>
<!-- topo.base.cf.CFPOF_Plugin -->
<g id="node8" class="node"><title>topo.base.cf.CFPOF_Plugin</title>
<polygon fill="none" stroke="black" stroke-width="0.5" points="668,-210.5 526,-210.5 526,-189.5 668,-189.5 668,-210.5"/>
<text text-anchor="middle" x="597" y="-197.5" font-family="Vera" font-size="10.00">topo.base.cf.CFPOF_Plugin</text>
</g>
<!-- topo.base.cf.CFPOutputFn&#45;&gt;topo.base.cf.CFPOF_Plugin -->
<g id="edge6" class="edge"><title>topo.base.cf.CFPOutputFn&#45;&gt;topo.base.cf.CFPOF_Plugin</title>
<path fill="none" stroke="black" stroke-width="0.5" d="M424.286,-200C454.232,-200 489.258,-200 519.912,-200"/>
<polygon fill="black" stroke="black" points="520.186,-201.75 525.186,-200 520.186,-198.25 520.186,-201.75"/>
</g>
<!-- topo.base.cf.CFProjection -->
<g id="node5" class="node"><title>topo.base.cf.CFProjection</title>
<polygon fill="none" stroke="black" stroke-width="0.5" points="881,-20.5 745,-20.5 745,0.5 881,0.5 881,-20.5"/>
<text text-anchor="middle" x="813" y="-7.5" font-family="Vera" font-size="10.00">topo.base.cf.CFProjection</text>
</g>
<!-- topo.base.cf.ResizableCFProjection -->
<g id="node37" class="node"><title>topo.base.cf.ResizableCFProjection</title>
<polygon fill="none" stroke="black" stroke-width="0.5" points="1128,-20.5 946,-20.5 946,0.5 1128,0.5 1128,-20.5"/>
<text text-anchor="middle" x="1037" y="-7.5" font-family="Vera" font-size="10.00">topo.base.cf.ResizableCFProjection</text>
</g>
<!-- topo.base.cf.CFProjection&#45;&gt;topo.base.cf.ResizableCFProjection -->
<g id="edge34" class="edge"><title>topo.base.cf.CFProjection&#45;&gt;topo.base.cf.ResizableCFProjection</title>
<path fill="none" stroke="black" stroke-width="0.5" d="M881.73,-10C900.343,-10 920.841,-10 940.67,-10"/>
<polygon fill="black" stroke="black" points="940.696,-11.7501 945.696,-10 940.696,-8.2501 940.696,-11.7501"/>
</g>
<!-- topo.base.projection.Projection -->
<g id="node6" class="node"><title>topo.base.projection.Projection</title>
<polygon fill="none" stroke="black" stroke-width="0.5" points="679,-20.5 515,-20.5 515,0.5 679,0.5 679,-20.5"/>
<text text-anchor="middle" x="597" y="-7.5" font-family="Vera" font-size="10.00">topo.base.projection.Projection</text>
</g>
<!-- topo.base.projection.Projection&#45;&gt;topo.base.cf.CFProjection -->
<g id="edge4" class="edge"><title>topo.base.projection.Projection&#45;&gt;topo.base.cf.CFProjection</title>
<path fill="none" stroke="black" stroke-width="0.5" d="M679.585,-10C699.071,-10 719.728,-10 738.817,-10"/>
<polygon fill="black" stroke="black" points="739.157,-11.7501 744.157,-10 739.157,-8.25009 739.157,-11.7501"/>
</g>
<!-- topo.base.cf.CFPLF_Plugin -->
<g id="node10" class="node"><title>topo.base.cf.CFPLF_Plugin</title>
<polygon fill="none" stroke="black" stroke-width="0.5" points="667,-172.5 527,-172.5 527,-151.5 667,-151.5 667,-172.5"/>
<text text-anchor="middle" x="597" y="-159.5" font-family="Vera" font-size="10.00">topo.base.cf.CFPLF_Plugin</text>
</g>
<!-- topo.base.cf.CFPLearningFn&#45;&gt;topo.base.cf.CFPLF_Plugin -->
<g id="edge8" class="edge"><title>topo.base.cf.CFPLearningFn&#45;&gt;topo.base.cf.CFPLF_Plugin</title>
<path fill="none" stroke="black" stroke-width="0.5" d="M428.559,-162C458.101,-162 492.018,-162 521.639,-162"/>
<polygon fill="black" stroke="black" points="521.735,-163.75 526.735,-162 521.735,-160.25 521.735,-163.75"/>
</g>
<!-- topo.base.cf.CFPLF_Identity -->
<g id="node23" class="node"><title>topo.base.cf.CFPLF_Identity</title>
<polygon fill="none" stroke="black" stroke-width="0.5" points="670,-134.5 524,-134.5 524,-113.5 670,-113.5 670,-134.5"/>
<text text-anchor="middle" x="597" y="-121.5" font-family="Vera" font-size="10.00">topo.base.cf.CFPLF_Identity</text>
</g>
<!-- topo.base.cf.CFPLearningFn&#45;&gt;topo.base.cf.CFPLF_Identity -->
<g id="edge16" class="edge"><title>topo.base.cf.CFPLearningFn&#45;&gt;topo.base.cf.CFPLF_Identity</title>
<path fill="none" stroke="black" stroke-width="0.5" d="M419.974,-151.97C438.729,-149.097 459.172,-145.945 478,-143 494.672,-140.392 512.651,-137.541 529.458,-134.86"/>
<polygon fill="black" stroke="black" points="529.972,-136.55 534.634,-134.033 529.42,-133.093 529.972,-136.55"/>
</g>
<!-- topo.base.sheet.Sheet -->
<g id="node13" class="node"><title>topo.base.sheet.Sheet</title>
<polygon fill="none" stroke="black" stroke-width="0.5" points="660,-96.5 534,-96.5 534,-75.5 660,-75.5 660,-96.5"/>
<text text-anchor="middle" x="597" y="-83.5" font-family="Vera" font-size="10.00">topo.base.sheet.Sheet</text>
</g>
<!-- topo.base.projection.ProjectionSheet -->
<g id="node30" class="node"><title>topo.base.projection.ProjectionSheet</title>
<polygon fill="none" stroke="black" stroke-width="0.5" points="910,-96.5 716,-96.5 716,-75.5 910,-75.5 910,-96.5"/>
<text text-anchor="middle" x="813" y="-83.5" font-family="Vera" font-size="10.00">topo.base.projection.ProjectionSheet</text>
</g>
<!-- topo.base.sheet.Sheet&#45;&gt;topo.base.projection.ProjectionSheet -->
<g id="edge26" class="edge"><title>topo.base.sheet.Sheet&#45;&gt;topo.base.projection.ProjectionSheet</title>
<path fill="none" stroke="black" stroke-width="0.5" d="M660.057,-86C675.856,-86 693.216,-86 710.394,-86"/>
<polygon fill="black" stroke="black" points="710.717,-87.7501 715.717,-86 710.717,-84.2501 710.717,-87.7501"/>
</g>
<!-- topo.base.simulation.EventProcessor&#45;&gt;topo.base.sheet.Sheet -->
<g id="edge10" class="edge"><title>topo.base.simulation.EventProcessor&#45;&gt;topo.base.sheet.Sheet</title>
<path fill="none" stroke="black" stroke-width="0.5" d="M419.974,-113.97C438.729,-111.097 459.172,-107.945 478,-105 494.672,-102.392 512.651,-99.5411 529.458,-96.8596"/>
<polygon fill="black" stroke="black" points="529.972,-98.5497 534.634,-96.0333 529.42,-95.0935 529.972,-98.5497"/>
</g>
<!-- dataviews.sheetcoords.SheetCoordinateSystem -->
<g id="node16" class="node"><title>dataviews.sheetcoords.SheetCoordinateSystem</title>
<polygon fill="none" stroke="black" stroke-width="0.5" points="477,-96.5 231,-96.5 231,-75.5 477,-75.5 477,-96.5"/>
<text text-anchor="middle" x="354" y="-83.5" font-family="Vera" font-size="10.00">dataviews.sheetcoords.SheetCoordinateSystem</text>
</g>
<!-- dataviews.sheetcoords.SheetCoordinateSystem&#45;&gt;topo.base.sheet.Sheet -->
<g id="edge12" class="edge"><title>dataviews.sheetcoords.SheetCoordinateSystem&#45;&gt;topo.base.sheet.Sheet</title>
<path fill="none" stroke="black" stroke-width="0.5" d="M477.636,-86C495.122,-86 512.549,-86 528.468,-86"/>
<polygon fill="black" stroke="black" points="528.806,-87.7501 533.806,-86 528.806,-84.2501 528.806,-87.7501"/>
</g>
<!-- topo.base.cf.NullCFError -->
<g id="node18" class="node"><title>topo.base.cf.NullCFError</title>
<polygon fill="none" stroke="black" stroke-width="0.5" points="162,-172.5 32,-172.5 32,-151.5 162,-151.5 162,-172.5"/>
<text text-anchor="middle" x="97" y="-159.5" font-family="Vera" font-size="10.00">topo.base.cf.NullCFError</text>
</g>
<!-- topo.base.cf.CFPRF_Plugin -->
<g id="node19" class="node"><title>topo.base.cf.CFPRF_Plugin</title>
<polygon fill="none" stroke="black" stroke-width="0.5" points="667,-58.5 527,-58.5 527,-37.5 667,-37.5 667,-58.5"/>
<text text-anchor="middle" x="597" y="-45.5" font-family="Vera" font-size="10.00">topo.base.cf.CFPRF_Plugin</text>
</g>
<!-- topo.base.cf.CFPResponseFn&#45;&gt;topo.base.cf.CFPRF_Plugin -->
<g id="edge14" class="edge"><title>topo.base.cf.CFPResponseFn&#45;&gt;topo.base.cf.CFPRF_Plugin</title>
<path fill="none" stroke="black" stroke-width="0.5" d="M430.553,-48C459.366,-48 492.104,-48 520.877,-48"/>
<polygon fill="black" stroke="black" points="521.202,-49.7501 526.202,-48 521.202,-46.2501 521.202,-49.7501"/>
</g>
<!-- topo.base.cf.CFIter -->
<g id="node22" class="node"><title>topo.base.cf.CFIter</title>
<polygon fill="none" stroke="black" stroke-width="0.5" points="150,-210.5 44,-210.5 44,-189.5 150,-189.5 150,-210.5"/>
<text text-anchor="middle" x="97" y="-197.5" font-family="Vera" font-size="10.00">topo.base.cf.CFIter</text>
</g>
<!-- topo.base.simulation.EPConnection&#45;&gt;topo.base.projection.Projection -->
<g id="edge24" class="edge"><title>topo.base.simulation.EPConnection&#45;&gt;topo.base.projection.Projection</title>
<path fill="none" stroke="black" stroke-width="0.5" d="M447.255,-10C467.614,-10 489.093,-10 509.229,-10"/>
<polygon fill="black" stroke="black" points="509.318,-11.7501 514.318,-10 509.318,-8.2501 509.318,-11.7501"/>
</g>
<!-- topo.base.cf.CFSheet -->
<g id="node35" class="node"><title>topo.base.cf.CFSheet</title>
<polygon fill="none" stroke="black" stroke-width="0.5" points="1096,-96.5 978,-96.5 978,-75.5 1096,-75.5 1096,-96.5"/>
<text text-anchor="middle" x="1037" y="-83.5" font-family="Vera" font-size="10.00">topo.base.cf.CFSheet</text>
</g>
<!-- topo.base.projection.ProjectionSheet&#45;&gt;topo.base.cf.CFSheet -->
<g id="edge32" class="edge"><title>topo.base.projection.ProjectionSheet&#45;&gt;topo.base.cf.CFSheet</title>
<path fill="none" stroke="black" stroke-width="0.5" d="M910.272,-86C931.101,-86 952.622,-86 971.885,-86"/>
<polygon fill="black" stroke="black" points="972.255,-87.7501 977.255,-86 972.255,-84.2501 972.255,-87.7501"/>
</g>
<!-- topo.base.cf.ConnectionField -->
<g id="node32" class="node"><title>topo.base.cf.ConnectionField</title>
<polygon fill="none" stroke="black" stroke-width="0.5" points="173,-248.5 21,-248.5 21,-227.5 173,-227.5 173,-248.5"/>
<text text-anchor="middle" x="97" y="-235.5" font-family="Vera" font-size="10.00">topo.base.cf.ConnectionField</text>
</g>
</g>
</svg>
