<?xml version="1.0" encoding="UTF-8" standalone="no"?>
<!DOCTYPE svg PUBLIC "-//W3C//DTD SVG 1.1//EN"
 "http://www.w3.org/Graphics/SVG/1.1/DTD/svg11.dtd">
<!-- Generated by graphviz version 2.26.3 (20100126.1600)
 -->
<!-- Title: inheritance0c0d2b112e Pages: 1 -->
<svg width="772pt" height="427pt"
 viewBox="0.00 0.00 772.00 427.00" xmlns="http://www.w3.org/2000/svg" xmlns:xlink="http://www.w3.org/1999/xlink">
<g id="graph1" class="graph" transform="scale(1 1) rotate(0) translate(4 423)">
<title>inheritance0c0d2b112e</title>
<polygon fill="white" stroke="white" points="-4,5 -4,-423 769,-423 769,5 -4,5"/>
<!-- param.parameterized.Parameterized -->
<g id="node1" class="node"><title>param.parameterized.Parameterized</title>
<polygon fill="none" stroke="black" stroke-width="0.5" points="194,-39.5 5.68434e-14,-39.5 0,-18.5 194,-18.5 194,-39.5"/>
<text text-anchor="middle" x="97" y="-26.5" font-family="Vera" font-size="10.00">param.parameterized.Parameterized</text>
</g>
<!-- param.parameterized.ParameterizedFunction -->
<g id="node22" class="node"><title>param.parameterized.ParameterizedFunction</title>
<polygon fill="none" stroke="black" stroke-width="0.5" points="464,-39.5 230,-39.5 230,-18.5 464,-18.5 464,-39.5"/>
<text text-anchor="middle" x="347" y="-26.5" font-family="Vera" font-size="10.00">param.parameterized.ParameterizedFunction</text>
</g>
<!-- param.parameterized.Parameterized&#45;&gt;param.parameterized.ParameterizedFunction -->
<g id="edge18" class="edge"><title>param.parameterized.Parameterized&#45;&gt;param.parameterized.ParameterizedFunction</title>
<path fill="none" stroke="black" stroke-width="0.5" d="M194.014,-29C204.04,-29 214.319,-29 224.575,-29"/>
<polygon fill="black" stroke="black" points="224.607,-30.7501 229.607,-29 224.607,-27.2501 224.607,-30.7501"/>
</g>
<!-- param.Path -->
<g id="node2" class="node"><title>param.Path</title>
<polygon fill="none" stroke="black" stroke-width="0.5" points="383,-400.5 311,-400.5 311,-379.5 383,-379.5 383,-400.5"/>
<text text-anchor="middle" x="347" y="-387.5" font-family="Vera" font-size="10.00">param.Path</text>
</g>
<!-- param.Foldername -->
<g id="node24" class="node"><title>param.Foldername</title>
<polygon fill="none" stroke="black" stroke-width="0.5" points="617,-419.5 509,-419.5 509,-398.5 617,-398.5 617,-419.5"/>
<text text-anchor="middle" x="563" y="-406.5" font-family="Vera" font-size="10.00">param.Foldername</text>
</g>
<!-- param.Path&#45;&gt;param.Foldername -->
<g id="edge20" class="edge"><title>param.Path&#45;&gt;param.Foldername</title>
<path fill="none" stroke="black" stroke-width="0.5" d="M383.154,-393.18C416.026,-396.072 465.149,-400.393 503.754,-403.789"/>
<polygon fill="black" stroke="black" points="503.754,-405.545 508.888,-404.24 504.061,-402.059 503.754,-405.545"/>
</g>
<!-- param.Filename -->
<g id="node41" class="node"><title>param.Filename</title>
<polygon fill="none" stroke="black" stroke-width="0.5" points="610,-381.5 516,-381.5 516,-360.5 610,-360.5 610,-381.5"/>
<text text-anchor="middle" x="563" y="-368.5" font-family="Vera" font-size="10.00">param.Filename</text>
</g>
<!-- param.Path&#45;&gt;param.Filename -->
<g id="edge40" class="edge"><title>param.Path&#45;&gt;param.Filename</title>
<path fill="none" stroke="black" stroke-width="0.5" d="M383.154,-386.82C417.979,-383.756 471.047,-379.088 510.521,-375.616"/>
<polygon fill="black" stroke="black" points="510.926,-377.337 515.753,-375.156 510.619,-373.851 510.926,-377.337"/>
</g>
<!-- param.parameterized.Parameter -->
<g id="node3" class="node"><title>param.parameterized.Parameter</title>
<polygon fill="none" stroke="black" stroke-width="0.5" points="184,-267.5 10,-267.5 10,-246.5 184,-246.5 184,-267.5"/>
<text text-anchor="middle" x="97" y="-254.5" font-family="Vera" font-size="10.00">param.parameterized.Parameter</text>
</g>
<!-- param.parameterized.Parameter&#45;&gt;param.Path -->
<g id="edge2" class="edge"><title>param.parameterized.Parameter&#45;&gt;param.Path</title>
<path fill="none" stroke="black" stroke-width="0.5" d="M105.389,-267.301C124.689,-290.211 174.836,-345.379 230,-371 253.685,-382 282.638,-386.764 305.817,-388.77"/>
<polygon fill="black" stroke="black" points="305.849,-390.528 310.972,-389.18 306.127,-387.039 305.849,-390.528"/>
</g>
<!-- param.Composite -->
<g id="node5" class="node"><title>param.Composite</title>
<polygon fill="none" stroke="black" stroke-width="0.5" points="398,-362.5 296,-362.5 296,-341.5 398,-341.5 398,-362.5"/>
<text text-anchor="middle" x="347" y="-349.5" font-family="Vera" font-size="10.00">param.Composite</text>
</g>
<!-- param.parameterized.Parameter&#45;&gt;param.Composite -->
<g id="edge4" class="edge"><title>param.parameterized.Parameter&#45;&gt;param.Composite</title>
<path fill="none" stroke="black" stroke-width="0.5" d="M110.934,-267.239C134.288,-283.857 183.367,-316.501 230,-333 248.974,-339.713 270.528,-344.07 289.92,-346.891"/>
<polygon fill="black" stroke="black" points="290.135,-348.688 295.329,-347.647 290.619,-345.222 290.135,-348.688"/>
</g>
<!-- param.List -->
<g id="node8" class="node"><title>param.List</title>
<polygon fill="none" stroke="black" stroke-width="0.5" points="381,-324.5 313,-324.5 313,-303.5 381,-303.5 381,-324.5"/>
<text text-anchor="middle" x="347" y="-311.5" font-family="Vera" font-size="10.00">param.List</text>
</g>
<!-- param.parameterized.Parameter&#45;&gt;param.List -->
<g id="edge16" class="edge"><title>param.parameterized.Parameter&#45;&gt;param.List</title>
<path fill="none" stroke="black" stroke-width="0.5" d="M128.175,-267.03C154.96,-275.376 194.727,-287.125 230,-295 255.674,-300.732 284.881,-305.477 307.691,-308.791"/>
<polygon fill="black" stroke="black" points="307.554,-310.54 312.752,-309.519 308.052,-307.075 307.554,-310.54"/>
</g>
<!-- param.NumericTuple -->
<g id="node14" class="node"><title>param.NumericTuple</title>
<polygon fill="none" stroke="black" stroke-width="0.5" points="405,-286.5 289,-286.5 289,-265.5 405,-265.5 405,-286.5"/>
<text text-anchor="middle" x="347" y="-273.5" font-family="Vera" font-size="10.00">param.NumericTuple</text>
</g>
<!-- param.parameterized.Parameter&#45;&gt;param.NumericTuple -->
<g id="edge30" class="edge"><title>param.parameterized.Parameter&#45;&gt;param.NumericTuple</title>
<path fill="none" stroke="black" stroke-width="0.5" d="M184.789,-263.672C217.374,-266.148 253.671,-268.907 283.654,-271.186"/>
<polygon fill="black" stroke="black" points="283.674,-272.942 288.792,-271.576 283.939,-269.452 283.674,-272.942"/>
</g>
<!-- param.Boolean -->
<g id="node16" class="node"><title>param.Boolean</title>
<polygon fill="none" stroke="black" stroke-width="0.5" points="392,-248.5 302,-248.5 302,-227.5 392,-227.5 392,-248.5"/>
<text text-anchor="middle" x="347" y="-235.5" font-family="Vera" font-size="10.00">param.Boolean</text>
</g>
<!-- param.parameterized.Parameter&#45;&gt;param.Boolean -->
<g id="edge12" class="edge"><title>param.parameterized.Parameter&#45;&gt;param.Boolean</title>
<path fill="none" stroke="black" stroke-width="0.5" d="M184.789,-250.328C222.316,-247.476 264.767,-244.25 296.826,-241.813"/>
<polygon fill="black" stroke="black" points="297.027,-243.553 301.88,-241.429 296.762,-240.063 297.027,-243.553"/>
</g>
<!-- param.Callable -->
<g id="node30" class="node"><title>param.Callable</title>
<polygon fill="none" stroke="black" stroke-width="0.5" points="391,-210.5 303,-210.5 303,-189.5 391,-189.5 391,-210.5"/>
<text text-anchor="middle" x="347" y="-197.5" font-family="Vera" font-size="10.00">param.Callable</text>
</g>
<!-- param.parameterized.Parameter&#45;&gt;param.Callable -->
<g id="edge26" class="edge"><title>param.parameterized.Parameter&#45;&gt;param.Callable</title>
<path fill="none" stroke="black" stroke-width="0.5" d="M128.175,-246.97C154.96,-238.624 194.727,-226.875 230,-219 251.94,-214.102 276.461,-209.924 297.364,-206.744"/>
<polygon fill="black" stroke="black" points="297.635,-208.473 302.319,-205.999 297.114,-205.012 297.635,-208.473"/>
</g>
<!-- param.Dynamic -->
<g id="node32" class="node"><title>param.Dynamic</title>
<polygon fill="none" stroke="black" stroke-width="0.5" points="393,-172.5 301,-172.5 301,-151.5 393,-151.5 393,-172.5"/>
<text text-anchor="middle" x="347" y="-159.5" font-family="Vera" font-size="10.00">param.Dynamic</text>
</g>
<!-- param.parameterized.Parameter&#45;&gt;param.Dynamic -->
<g id="edge36" class="edge"><title>param.parameterized.Parameter&#45;&gt;param.Dynamic</title>
<path fill="none" stroke="black" stroke-width="0.5" d="M110.934,-246.761C134.288,-230.143 183.367,-197.499 230,-181 250.746,-173.66 274.576,-169.137 295.292,-166.358"/>
<polygon fill="black" stroke="black" points="295.753,-168.063 300.489,-165.688 295.306,-164.592 295.753,-168.063"/>
</g>
<!-- param.Selector -->
<g id="node35" class="node"><title>param.Selector</title>
<polygon fill="none" stroke="black" stroke-width="0.5" points="392,-134.5 302,-134.5 302,-113.5 392,-113.5 392,-134.5"/>
<text text-anchor="middle" x="347" y="-121.5" font-family="Vera" font-size="10.00">param.Selector</text>
</g>
<!-- param.parameterized.Parameter&#45;&gt;param.Selector -->
<g id="edge32" class="edge"><title>param.parameterized.Parameter&#45;&gt;param.Selector</title>
<path fill="none" stroke="black" stroke-width="0.5" d="M105.389,-246.699C124.689,-223.789 174.836,-168.621 230,-143 250.562,-133.45 275.094,-128.601 296.372,-126.175"/>
<polygon fill="black" stroke="black" points="296.636,-127.907 301.422,-125.638 296.265,-124.427 296.636,-127.907"/>
</g>
<!-- param.HookList -->
<g id="node7" class="node"><title>param.HookList</title>
<polygon fill="none" stroke="black" stroke-width="0.5" points="609,-324.5 517,-324.5 517,-303.5 609,-303.5 609,-324.5"/>
<text text-anchor="middle" x="563" y="-311.5" font-family="Vera" font-size="10.00">param.HookList</text>
</g>
<!-- param.List&#45;&gt;param.HookList -->
<g id="edge6" class="edge"><title>param.List&#45;&gt;param.HookList</title>
<path fill="none" stroke="black" stroke-width="0.5" d="M381.226,-314C416.29,-314 471.229,-314 511.536,-314"/>
<polygon fill="black" stroke="black" points="511.874,-315.75 516.874,-314 511.874,-312.25 511.874,-315.75"/>
</g>
<!-- param.Integer -->
<g id="node10" class="node"><title>param.Integer</title>
<polygon fill="none" stroke="black" stroke-width="0.5" points="755,-210.5 671,-210.5 671,-189.5 755,-189.5 755,-210.5"/>
<text text-anchor="middle" x="713" y="-197.5" font-family="Vera" font-size="10.00">param.Integer</text>
</g>
<!-- param.Number -->
<g id="node11" class="node"><title>param.Number</title>
<polygon fill="none" stroke="black" stroke-width="0.5" points="608,-172.5 518,-172.5 518,-151.5 608,-151.5 608,-172.5"/>
<text text-anchor="middle" x="563" y="-159.5" font-family="Vera" font-size="10.00">param.Number</text>
</g>
<!-- param.Number&#45;&gt;param.Integer -->
<g id="edge8" class="edge"><title>param.Number&#45;&gt;param.Integer</title>
<path fill="none" stroke="black" stroke-width="0.5" d="M602.803,-172.084C622.972,-177.193 647.532,-183.415 668.342,-188.687"/>
<polygon fill="black" stroke="black" points="667.994,-190.404 673.271,-189.935 668.854,-187.011 667.994,-190.404"/>
</g>
<!-- param.Magnitude -->
<g id="node28" class="node"><title>param.Magnitude</title>
<polygon fill="none" stroke="black" stroke-width="0.5" points="763,-172.5 663,-172.5 663,-151.5 763,-151.5 763,-172.5"/>
<text text-anchor="middle" x="713" y="-159.5" font-family="Vera" font-size="10.00">param.Magnitude</text>
</g>
<!-- param.Number&#45;&gt;param.Magnitude -->
<g id="edge24" class="edge"><title>param.Number&#45;&gt;param.Magnitude</title>
<path fill="none" stroke="black" stroke-width="0.5" d="M608.005,-162C623.356,-162 640.715,-162 656.832,-162"/>
<polygon fill="black" stroke="black" points="657.246,-163.75 662.246,-162 657.246,-160.25 657.246,-163.75"/>
</g>
<!-- param.XYCoordinates -->
<g id="node13" class="node"><title>param.XYCoordinates</title>
<polygon fill="none" stroke="black" stroke-width="0.5" points="622,-286.5 504,-286.5 504,-265.5 622,-265.5 622,-286.5"/>
<text text-anchor="middle" x="563" y="-273.5" font-family="Vera" font-size="10.00">param.XYCoordinates</text>
</g>
<!-- param.NumericTuple&#45;&gt;param.XYCoordinates -->
<g id="edge10" class="edge"><title>param.NumericTuple&#45;&gt;param.XYCoordinates</title>
<path fill="none" stroke="black" stroke-width="0.5" d="M405.168,-276C433.871,-276 468.589,-276 498.146,-276"/>
<polygon fill="black" stroke="black" points="498.222,-277.75 503.222,-276 498.222,-274.25 498.222,-277.75"/>
</g>
<!-- param.Dict -->
<g id="node18" class="node"><title>param.Dict</title>
<polygon fill="none" stroke="black" stroke-width="0.5" points="748,-134.5 678,-134.5 678,-113.5 748,-113.5 748,-134.5"/>
<text text-anchor="middle" x="713" y="-121.5" font-family="Vera" font-size="10.00">param.Dict</text>
</g>
<!-- param.ClassSelector -->
<g id="node19" class="node"><title>param.ClassSelector</title>
<polygon fill="none" stroke="black" stroke-width="0.5" points="621,-134.5 505,-134.5 505,-113.5 621,-113.5 621,-134.5"/>
<text text-anchor="middle" x="563" y="-121.5" font-family="Vera" font-size="10.00">param.ClassSelector</text>
</g>
<!-- param.ClassSelector&#45;&gt;param.Dict -->
<g id="edge14" class="edge"><title>param.ClassSelector&#45;&gt;param.Dict</title>
<path fill="none" stroke="black" stroke-width="0.5" d="M621.423,-124C638.57,-124 656.933,-124 672.68,-124"/>
<polygon fill="black" stroke="black" points="672.915,-125.75 677.915,-124 672.914,-122.25 672.915,-125.75"/>
</g>
<!-- param.Array -->
<g id="node39" class="node"><title>param.Array</title>
<polygon fill="none" stroke="black" stroke-width="0.5" points="751,-96.5 675,-96.5 675,-75.5 751,-75.5 751,-96.5"/>
<text text-anchor="middle" x="713" y="-83.5" font-family="Vera" font-size="10.00">param.Array</text>
</g>
<!-- param.ClassSelector&#45;&gt;param.Array -->
<g id="edge38" class="edge"><title>param.ClassSelector&#45;&gt;param.Array</title>
<path fill="none" stroke="black" stroke-width="0.5" d="M602.803,-113.916C623.293,-108.726 648.315,-102.387 669.334,-97.0619"/>
<polygon fill="black" stroke="black" points="669.891,-98.7263 674.308,-95.802 669.031,-95.3335 669.891,-98.7263"/>
</g>
<!-- param.resolve_path -->
<g id="node26" class="node"><title>param.resolve_path</title>
<polygon fill="none" stroke="black" stroke-width="0.5" points="619,-58.5 507,-58.5 507,-37.5 619,-37.5 619,-58.5"/>
<text text-anchor="middle" x="563" y="-45.5" font-family="Vera" font-size="10.00">param.resolve_path</text>
</g>
<!-- param.parameterized.ParameterizedFunction&#45;&gt;param.resolve_path -->
<g id="edge22" class="edge"><title>param.parameterized.ParameterizedFunction&#45;&gt;param.resolve_path</title>
<path fill="none" stroke="black" stroke-width="0.5" d="M460.693,-39.0008C474.69,-40.232 488.559,-41.452 501.357,-42.5777"/>
<polygon fill="black" stroke="black" points="501.26,-44.3258 506.394,-43.0208 501.567,-40.8393 501.26,-44.3258"/>
</g>
<!-- param.normalize_path -->
<g id="node43" class="node"><title>param.normalize_path</title>
<polygon fill="none" stroke="black" stroke-width="0.5" points="625,-20.5 501,-20.5 501,0.5 625,0.5 625,-20.5"/>
<text text-anchor="middle" x="563" y="-7.5" font-family="Vera" font-size="10.00">param.normalize_path</text>
</g>
<!-- param.parameterized.ParameterizedFunction&#45;&gt;param.normalize_path -->
<g id="edge42" class="edge"><title>param.parameterized.ParameterizedFunction&#45;&gt;param.normalize_path</title>
<path fill="none" stroke="black" stroke-width="0.5" d="M460.693,-18.9992C472.503,-17.9604 484.223,-16.9295 495.284,-15.9565"/>
<polygon fill="black" stroke="black" points="495.49,-17.6952 500.318,-15.5137 495.183,-14.2087 495.49,-17.6952"/>
</g>
<!-- param.Dynamic&#45;&gt;param.Number -->
<g id="edge28" class="edge"><title>param.Dynamic&#45;&gt;param.Number</title>
<path fill="none" stroke="black" stroke-width="0.5" d="M393.603,-162C428.71,-162 476.779,-162 512.745,-162"/>
<polygon fill="black" stroke="black" points="512.96,-163.75 517.96,-162 512.96,-160.25 512.96,-163.75"/>
</g>
<!-- param.Selector&#45;&gt;param.ClassSelector -->
<g id="edge34" class="edge"><title>param.Selector&#45;&gt;param.ClassSelector</title>
<path fill="none" stroke="black" stroke-width="0.5" d="M392.544,-124C423.689,-124 465.391,-124 499.751,-124"/>
<polygon fill="black" stroke="black" points="499.765,-125.75 504.765,-124 499.765,-122.25 499.765,-125.75"/>
</g>
<!-- param.ObjectSelector -->
<g id="node45" class="node"><title>param.ObjectSelector</title>
<polygon fill="none" stroke="black" stroke-width="0.5" points="624,-96.5 502,-96.5 502,-75.5 624,-75.5 624,-96.5"/>
<text text-anchor="middle" x="563" y="-83.5" font-family="Vera" font-size="10.00">param.ObjectSelector</text>
</g>
<!-- param.Selector&#45;&gt;param.ObjectSelector -->
<g id="edge44" class="edge"><title>param.Selector&#45;&gt;param.ObjectSelector</title>
<path fill="none" stroke="black" stroke-width="0.5" d="M392.544,-115.988C424.042,-110.446 466.34,-103.005 500.92,-96.9216"/>
<polygon fill="black" stroke="black" points="501.342,-98.6242 505.963,-96.0342 500.736,-95.1771 501.342,-98.6242"/>
</g>
</g>
</svg>
