<?xml version="1.0" encoding="UTF-8" standalone="no"?>
<!DOCTYPE svg PUBLIC "-//W3C//DTD SVG 1.1//EN"
 "http://www.w3.org/Graphics/SVG/1.1/DTD/svg11.dtd">
<!-- Generated by graphviz version 2.26.3 (20100126.1600)
 -->
<!-- Title: inheritancefc96a479df Pages: 1 -->
<svg width="688pt" height="256pt"
 viewBox="0.00 0.00 688.00 256.00" xmlns="http://www.w3.org/2000/svg" xmlns:xlink="http://www.w3.org/1999/xlink">
<g id="graph1" class="graph" transform="scale(1 1) rotate(0) translate(4 252)">
<title>inheritancefc96a479df</title>
<polygon fill="white" stroke="white" points="-4,5 -4,-252 685,-252 685,5 -4,5"/>
<!-- lancet.core.List -->
<g id="node1" class="node"><title>lancet.core.List</title>
<polygon fill="none" stroke="black" stroke-width="0.5" points="646,-248.5 558,-248.5 558,-227.5 646,-227.5 646,-248.5"/>
<text text-anchor="middle" x="602" y="-235.5" font-family="Vera" font-size="10.00">lancet.core.List</text>
</g>
<!-- lancet.core.Args -->
<g id="node2" class="node"><title>lancet.core.Args</title>
<polygon fill="none" stroke="black" stroke-width="0.5" points="487,-134.5 393,-134.5 393,-113.5 487,-113.5 487,-134.5"/>
<text text-anchor="middle" x="440" y="-121.5" font-family="Vera" font-size="10.00">lancet.core.Args</text>
</g>
<!-- lancet.core.Args&#45;&gt;lancet.core.List -->
<g id="edge2" class="edge"><title>lancet.core.Args&#45;&gt;lancet.core.List</title>
<path fill="none" stroke="black" stroke-width="0.5" d="M445.959,-134.135C458.047,-153.756 487.43,-196.936 524,-219 532.536,-224.15 542.392,-227.906 552.164,-230.644"/>
<polygon fill="black" stroke="black" points="551.978,-232.404 557.258,-231.985 552.869,-229.02 551.978,-232.404"/>
</g>
<!-- lancet.core.Concatenate -->
<g id="node4" class="node"><title>lancet.core.Concatenate</title>
<polygon fill="none" stroke="black" stroke-width="0.5" points="669,-210.5 535,-210.5 535,-189.5 669,-189.5 669,-210.5"/>
<text text-anchor="middle" x="602" y="-197.5" font-family="Vera" font-size="10.00">lancet.core.Concatenate</text>
</g>
<!-- lancet.core.Args&#45;&gt;lancet.core.Concatenate -->
<g id="edge4" class="edge"><title>lancet.core.Args&#45;&gt;lancet.core.Concatenate</title>
<path fill="none" stroke="black" stroke-width="0.5" d="M451.975,-134.191C467.567,-146.952 496.13,-168.635 524,-181 530.521,-183.893 537.553,-186.389 544.631,-188.531"/>
<polygon fill="black" stroke="black" points="544.242,-190.24 549.532,-189.957 545.221,-186.88 544.242,-190.24"/>
</g>
<!-- lancet.core.FileInfo -->
<g id="node7" class="node"><title>lancet.core.FileInfo</title>
<polygon fill="none" stroke="black" stroke-width="0.5" points="654,-172.5 550,-172.5 550,-151.5 654,-151.5 654,-172.5"/>
<text text-anchor="middle" x="602" y="-159.5" font-family="Vera" font-size="10.00">lancet.core.FileInfo</text>
</g>
<!-- lancet.core.Args&#45;&gt;lancet.core.FileInfo -->
<g id="edge6" class="edge"><title>lancet.core.Args&#45;&gt;lancet.core.FileInfo</title>
<path fill="none" stroke="black" stroke-width="0.5" d="M482.988,-134.084C504.861,-139.214 531.518,-145.467 554.054,-150.753"/>
<polygon fill="black" stroke="black" points="553.825,-152.497 559.093,-151.935 554.625,-149.09 553.825,-152.497"/>
</g>
<!-- lancet.core.Range -->
<g id="node9" class="node"><title>lancet.core.Range</title>
<polygon fill="none" stroke="black" stroke-width="0.5" points="653,-134.5 551,-134.5 551,-113.5 653,-113.5 653,-134.5"/>
<text text-anchor="middle" x="602" y="-121.5" font-family="Vera" font-size="10.00">lancet.core.Range</text>
</g>
<!-- lancet.core.Args&#45;&gt;lancet.core.Range -->
<g id="edge8" class="edge"><title>lancet.core.Args&#45;&gt;lancet.core.Range</title>
<path fill="none" stroke="black" stroke-width="0.5" d="M487.729,-124C505.73,-124 526.384,-124 545.138,-124"/>
<polygon fill="black" stroke="black" points="545.373,-125.75 550.373,-124 545.373,-122.25 545.373,-125.75"/>
</g>
<!-- lancet.core.Log -->
<g id="node15" class="node"><title>lancet.core.Log</title>
<polygon fill="none" stroke="black" stroke-width="0.5" points="647,-96.5 557,-96.5 557,-75.5 647,-75.5 647,-96.5"/>
<text text-anchor="middle" x="602" y="-83.5" font-family="Vera" font-size="10.00">lancet.core.Log</text>
</g>
<!-- lancet.core.Args&#45;&gt;lancet.core.Log -->
<g id="edge14" class="edge"><title>lancet.core.Args&#45;&gt;lancet.core.Log</title>
<path fill="none" stroke="black" stroke-width="0.5" d="M482.988,-113.916C504.861,-108.786 531.518,-102.533 554.054,-97.2466"/>
<polygon fill="black" stroke="black" points="554.625,-98.9103 559.093,-96.0647 553.825,-95.5028 554.625,-98.9103"/>
</g>
<!-- lancet.core.FilePattern -->
<g id="node17" class="node"><title>lancet.core.FilePattern</title>
<polygon fill="none" stroke="black" stroke-width="0.5" points="663,-58.5 541,-58.5 541,-37.5 663,-37.5 663,-58.5"/>
<text text-anchor="middle" x="602" y="-45.5" font-family="Vera" font-size="10.00">lancet.core.FilePattern</text>
</g>
<!-- lancet.core.Args&#45;&gt;lancet.core.FilePattern -->
<g id="edge16" class="edge"><title>lancet.core.Args&#45;&gt;lancet.core.FilePattern</title>
<path fill="none" stroke="black" stroke-width="0.5" d="M451.975,-113.809C467.567,-101.048 496.13,-79.3646 524,-67 530.521,-64.1068 537.553,-61.6109 544.631,-59.4692"/>
<polygon fill="black" stroke="black" points="545.221,-61.1202 549.532,-58.0425 544.242,-57.7597 545.221,-61.1202"/>
</g>
<!-- lancet.core.CartesianProduct -->
<g id="node20" class="node"><title>lancet.core.CartesianProduct</title>
<polygon fill="none" stroke="black" stroke-width="0.5" points="679,-20.5 525,-20.5 525,0.5 679,0.5 679,-20.5"/>
<text text-anchor="middle" x="602" y="-7.5" font-family="Vera" font-size="10.00">lancet.core.CartesianProduct</text>
</g>
<!-- lancet.core.Args&#45;&gt;lancet.core.CartesianProduct -->
<g id="edge20" class="edge"><title>lancet.core.Args&#45;&gt;lancet.core.CartesianProduct</title>
<path fill="none" stroke="black" stroke-width="0.5" d="M445.959,-113.865C458.047,-94.2436 487.43,-51.0636 524,-29 528.568,-26.2438 533.515,-23.887 538.624,-21.8718"/>
<polygon fill="black" stroke="black" points="539.277,-23.4962 543.355,-20.1156 538.059,-20.2149 539.277,-23.4962"/>
</g>
<!-- lancet.core.PrettyPrinted -->
<g id="node6" class="node"><title>lancet.core.PrettyPrinted</title>
<polygon fill="none" stroke="black" stroke-width="0.5" points="164,-153.5 30,-153.5 30,-132.5 164,-132.5 164,-153.5"/>
<text text-anchor="middle" x="97" y="-140.5" font-family="Vera" font-size="10.00">lancet.core.PrettyPrinted</text>
</g>
<!-- lancet.core.Arguments -->
<g id="node11" class="node"><title>lancet.core.Arguments</title>
<polygon fill="none" stroke="black" stroke-width="0.5" points="356,-134.5 230,-134.5 230,-113.5 356,-113.5 356,-134.5"/>
<text text-anchor="middle" x="293" y="-121.5" font-family="Vera" font-size="10.00">lancet.core.Arguments</text>
</g>
<!-- lancet.core.PrettyPrinted&#45;&gt;lancet.core.Arguments -->
<g id="edge10" class="edge"><title>lancet.core.PrettyPrinted&#45;&gt;lancet.core.Arguments</title>
<path fill="none" stroke="black" stroke-width="0.5" d="M164.727,-136.435C184.045,-134.562 205.103,-132.521 224.468,-130.643"/>
<polygon fill="black" stroke="black" points="225.075,-132.343 229.883,-130.119 224.737,-128.859 225.075,-132.343"/>
</g>
<!-- lancet.core.Arguments&#45;&gt;lancet.core.Args -->
<g id="edge18" class="edge"><title>lancet.core.Arguments&#45;&gt;lancet.core.Args</title>
<path fill="none" stroke="black" stroke-width="0.5" d="M356.194,-124C366.532,-124 377.147,-124 387.199,-124"/>
<polygon fill="black" stroke="black" points="387.4,-125.75 392.4,-124 387.4,-122.25 387.4,-125.75"/>
</g>
<!-- param.parameterized.Parameterized -->
<g id="node13" class="node"><title>param.parameterized.Parameterized</title>
<polygon fill="none" stroke="black" stroke-width="0.5" points="194,-115.5 5.68434e-14,-115.5 0,-94.5 194,-94.5 194,-115.5"/>
<text text-anchor="middle" x="97" y="-102.5" font-family="Vera" font-size="10.00">param.parameterized.Parameterized</text>
</g>
<!-- param.parameterized.Parameterized&#45;&gt;lancet.core.Arguments -->
<g id="edge12" class="edge"><title>param.parameterized.Parameterized&#45;&gt;lancet.core.Arguments</title>
<path fill="none" stroke="black" stroke-width="0.5" d="M194.139,-114.417C204.467,-115.418 214.808,-116.42 224.703,-117.379"/>
<polygon fill="black" stroke="black" points="224.689,-119.136 229.835,-117.877 225.027,-115.652 224.689,-119.136"/>
</g>
</g>
</svg>
