<?xml version="1.0" encoding="UTF-8" standalone="no"?>
<!DOCTYPE svg PUBLIC "-//W3C//DTD SVG 1.1//EN"
 "http://www.w3.org/Graphics/SVG/1.1/DTD/svg11.dtd">
<!-- Generated by graphviz version 2.26.3 (20100126.1600)
 -->
<!-- Title: inheritance1d39487c30 Pages: 1 -->
<svg width="1064pt" height="294pt"
 viewBox="0.00 0.00 1064.00 294.00" xmlns="http://www.w3.org/2000/svg" xmlns:xlink="http://www.w3.org/1999/xlink">
<g id="graph1" class="graph" transform="scale(1 1) rotate(0) translate(4 290)">
<title>inheritance1d39487c30</title>
<polygon fill="white" stroke="white" points="-4,5 -4,-290 1061,-290 1061,5 -4,5"/>
<!-- Tkinter.Canvas -->
<g id="node1" class="node"><title>Tkinter.Canvas</title>
<polygon fill="none" stroke="black" stroke-width="0.5" points="804,-153.5 718,-153.5 718,-132.5 804,-132.5 804,-153.5"/>
<text text-anchor="middle" x="761" y="-140.5" font-family="Vera" font-size="10.00">Tkinter.Canvas</text>
</g>
<!-- topo.tkgui.editor.EditorCanvas -->
<g id="node11" class="node"><title>topo.tkgui.editor.EditorCanvas</title>
<polygon fill="none" stroke="black" stroke-width="0.5" points="1050,-172.5 890,-172.5 890,-151.5 1050,-151.5 1050,-172.5"/>
<text text-anchor="middle" x="970" y="-159.5" font-family="Vera" font-size="10.00">topo.tkgui.editor.EditorCanvas</text>
</g>
<!-- Tkinter.Canvas&#45;&gt;topo.tkgui.editor.EditorCanvas -->
<g id="edge10" class="edge"><title>Tkinter.Canvas&#45;&gt;topo.tkgui.editor.EditorCanvas</title>
<path fill="none" stroke="black" stroke-width="0.5" d="M804.052,-146.914C827.225,-149.02 856.652,-151.696 884.27,-154.206"/>
<polygon fill="black" stroke="black" points="884.266,-155.963 889.404,-154.673 884.583,-152.478 884.266,-155.963"/>
</g>
<!-- Tkinter.Widget -->
<g id="node2" class="node"><title>Tkinter.Widget</title>
<polygon fill="none" stroke="black" stroke-width="0.5" points="583,-96.5 501,-96.5 501,-75.5 583,-75.5 583,-96.5"/>
<text text-anchor="middle" x="542" y="-83.5" font-family="Vera" font-size="10.00">Tkinter.Widget</text>
</g>
<!-- Tkinter.Widget&#45;&gt;Tkinter.Canvas -->
<g id="edge2" class="edge"><title>Tkinter.Widget&#45;&gt;Tkinter.Canvas</title>
<path fill="none" stroke="black" stroke-width="0.5" d="M583.794,-93.2905C600.712,-96.4962 620.375,-100.546 638,-105 668.269,-112.649 702.127,-123.265 726.645,-131.332"/>
<polygon fill="black" stroke="black" points="726.124,-133.003 731.42,-132.91 727.222,-129.679 726.124,-133.003"/>
</g>
<!-- Tkinter.Frame -->
<g id="node14" class="node"><title>Tkinter.Frame</title>
<polygon fill="none" stroke="black" stroke-width="0.5" points="801,-96.5 721,-96.5 721,-75.5 801,-75.5 801,-96.5"/>
<text text-anchor="middle" x="761" y="-83.5" font-family="Vera" font-size="10.00">Tkinter.Frame</text>
</g>
<!-- Tkinter.Widget&#45;&gt;Tkinter.Frame -->
<g id="edge42" class="edge"><title>Tkinter.Widget&#45;&gt;Tkinter.Frame</title>
<path fill="none" stroke="black" stroke-width="0.5" d="M583.708,-86C621.239,-86 676.289,-86 715.067,-86"/>
<polygon fill="black" stroke="black" points="715.189,-87.7501 720.189,-86 715.189,-84.2501 715.189,-87.7501"/>
</g>
<!-- Tkinter.XView -->
<g id="node4" class="node"><title>Tkinter.XView</title>
<polygon fill="none" stroke="black" stroke-width="0.5" points="581,-172.5 503,-172.5 503,-151.5 581,-151.5 581,-172.5"/>
<text text-anchor="middle" x="542" y="-159.5" font-family="Vera" font-size="10.00">Tkinter.XView</text>
</g>
<!-- Tkinter.XView&#45;&gt;Tkinter.Canvas -->
<g id="edge4" class="edge"><title>Tkinter.XView&#45;&gt;Tkinter.Canvas</title>
<path fill="none" stroke="black" stroke-width="0.5" d="M581.659,-158.559C618.464,-155.366 673.336,-150.606 712.685,-147.192"/>
<polygon fill="black" stroke="black" points="713.058,-148.916 717.888,-146.74 712.755,-145.429 713.058,-148.916"/>
</g>
<!-- Tkinter.YView -->
<g id="node6" class="node"><title>Tkinter.YView</title>
<polygon fill="none" stroke="black" stroke-width="0.5" points="581,-134.5 503,-134.5 503,-113.5 581,-113.5 581,-134.5"/>
<text text-anchor="middle" x="542" y="-121.5" font-family="Vera" font-size="10.00">Tkinter.YView</text>
</g>
<!-- Tkinter.YView&#45;&gt;Tkinter.Canvas -->
<g id="edge6" class="edge"><title>Tkinter.YView&#45;&gt;Tkinter.Canvas</title>
<path fill="none" stroke="black" stroke-width="0.5" d="M581.153,-127.397C617.889,-130.584 672.945,-135.361 712.458,-138.789"/>
<polygon fill="black" stroke="black" points="712.551,-140.553 717.684,-139.242 712.854,-137.066 712.551,-140.553"/>
</g>
<!-- topo.tkgui.editor.EditorEPConnection -->
<g id="node8" class="node"><title>topo.tkgui.editor.EditorEPConnection</title>
<polygon fill="none" stroke="black" stroke-width="0.5" points="637,-248.5 447,-248.5 447,-227.5 637,-227.5 637,-248.5"/>
<text text-anchor="middle" x="542" y="-235.5" font-family="Vera" font-size="10.00">topo.tkgui.editor.EditorEPConnection</text>
</g>
<!-- topo.tkgui.editor.EditorProjection -->
<g id="node29" class="node"><title>topo.tkgui.editor.EditorProjection</title>
<polygon fill="none" stroke="black" stroke-width="0.5" points="847,-248.5 675,-248.5 675,-227.5 847,-227.5 847,-248.5"/>
<text text-anchor="middle" x="761" y="-235.5" font-family="Vera" font-size="10.00">topo.tkgui.editor.EditorProjection</text>
</g>
<!-- topo.tkgui.editor.EditorEPConnection&#45;&gt;topo.tkgui.editor.EditorProjection -->
<g id="edge24" class="edge"><title>topo.tkgui.editor.EditorEPConnection&#45;&gt;topo.tkgui.editor.EditorProjection</title>
<path fill="none" stroke="black" stroke-width="0.5" d="M637.738,-238C648.223,-238 658.878,-238 669.312,-238"/>
<polygon fill="black" stroke="black" points="669.415,-239.75 674.415,-238 669.415,-236.25 669.415,-239.75"/>
</g>
<!-- topo.tkgui.editor.EditorConnection -->
<g id="node9" class="node"><title>topo.tkgui.editor.EditorConnection</title>
<polygon fill="none" stroke="black" stroke-width="0.5" points="409,-248.5 231,-248.5 231,-227.5 409,-227.5 409,-248.5"/>
<text text-anchor="middle" x="320" y="-235.5" font-family="Vera" font-size="10.00">topo.tkgui.editor.EditorConnection</text>
</g>
<!-- topo.tkgui.editor.EditorConnection&#45;&gt;topo.tkgui.editor.EditorEPConnection -->
<g id="edge8" class="edge"><title>topo.tkgui.editor.EditorConnection&#45;&gt;topo.tkgui.editor.EditorEPConnection</title>
<path fill="none" stroke="black" stroke-width="0.5" d="M409.656,-238C419.998,-238 430.596,-238 441.074,-238"/>
<polygon fill="black" stroke="black" points="441.206,-239.75 446.206,-238 441.206,-236.25 441.206,-239.75"/>
</g>
<!-- topo.tkgui.editor.ParametersTool -->
<g id="node13" class="node"><title>topo.tkgui.editor.ParametersTool</title>
<polygon fill="none" stroke="black" stroke-width="0.5" points="1055,-134.5 885,-134.5 885,-113.5 1055,-113.5 1055,-134.5"/>
<text text-anchor="middle" x="970" y="-121.5" font-family="Vera" font-size="10.00">topo.tkgui.editor.ParametersTool</text>
</g>
<!-- Tkinter.Frame&#45;&gt;topo.tkgui.editor.ParametersTool -->
<g id="edge12" class="edge"><title>Tkinter.Frame&#45;&gt;topo.tkgui.editor.ParametersTool</title>
<path fill="none" stroke="black" stroke-width="0.5" d="M801.793,-93.417C832.478,-98.9959 875.012,-106.729 909.631,-113.024"/>
<polygon fill="black" stroke="black" points="909.446,-114.769 914.679,-113.942 910.072,-111.325 909.446,-114.769"/>
</g>
<!-- topo.tkgui.editor.ArrowTool -->
<g id="node17" class="node"><title>topo.tkgui.editor.ArrowTool</title>
<polygon fill="none" stroke="black" stroke-width="0.5" points="1041,-96.5 899,-96.5 899,-75.5 1041,-75.5 1041,-96.5"/>
<text text-anchor="middle" x="970" y="-83.5" font-family="Vera" font-size="10.00">topo.tkgui.editor.ArrowTool</text>
</g>
<!-- Tkinter.Frame&#45;&gt;topo.tkgui.editor.ArrowTool -->
<g id="edge14" class="edge"><title>Tkinter.Frame&#45;&gt;topo.tkgui.editor.ArrowTool</title>
<path fill="none" stroke="black" stroke-width="0.5" d="M801.793,-86C827.734,-86 862.145,-86 893.081,-86"/>
<polygon fill="black" stroke="black" points="893.413,-87.7501 898.413,-86 893.413,-84.2501 893.413,-87.7501"/>
</g>
<!-- topo.tkgui.editor.NodeTool -->
<g id="node22" class="node"><title>topo.tkgui.editor.NodeTool</title>
<polygon fill="none" stroke="black" stroke-width="0.5" points="1040,-58.5 900,-58.5 900,-37.5 1040,-37.5 1040,-58.5"/>
<text text-anchor="middle" x="970" y="-45.5" font-family="Vera" font-size="10.00">topo.tkgui.editor.NodeTool</text>
</g>
<!-- Tkinter.Frame&#45;&gt;topo.tkgui.editor.NodeTool -->
<g id="edge18" class="edge"><title>Tkinter.Frame&#45;&gt;topo.tkgui.editor.NodeTool</title>
<path fill="none" stroke="black" stroke-width="0.5" d="M801.793,-78.583C832.478,-73.0041 875.012,-65.2705 909.631,-58.9762"/>
<polygon fill="black" stroke="black" points="910.072,-60.6747 914.679,-58.0584 909.446,-57.2312 910.072,-60.6747"/>
</g>
<!-- topo.tkgui.editor.ConnectionTool -->
<g id="node38" class="node"><title>topo.tkgui.editor.ConnectionTool</title>
<polygon fill="none" stroke="black" stroke-width="0.5" points="1055,-20.5 885,-20.5 885,0.5 1055,0.5 1055,-20.5"/>
<text text-anchor="middle" x="970" y="-7.5" font-family="Vera" font-size="10.00">topo.tkgui.editor.ConnectionTool</text>
</g>
<!-- Tkinter.Frame&#45;&gt;topo.tkgui.editor.ConnectionTool -->
<g id="edge30" class="edge"><title>Tkinter.Frame&#45;&gt;topo.tkgui.editor.ConnectionTool</title>
<path fill="none" stroke="black" stroke-width="0.5" d="M779.65,-75.8002C803.307,-63.2309 845.647,-41.9527 884,-29 892.556,-26.1104 901.742,-23.5427 910.811,-21.3024"/>
<polygon fill="black" stroke="black" points="911.383,-22.9648 915.833,-20.0914 910.562,-19.5623 911.383,-22.9648"/>
</g>
<!-- param.parameterized.Parameterized -->
<g id="node16" class="node"><title>param.parameterized.Parameterized</title>
<polygon fill="none" stroke="black" stroke-width="0.5" points="194,-286.5 5.68434e-14,-286.5 0,-265.5 194,-265.5 194,-286.5"/>
<text text-anchor="middle" x="97" y="-273.5" font-family="Vera" font-size="10.00">param.parameterized.Parameterized</text>
</g>
<!-- topo.tkgui.editor.ModelEditor -->
<g id="node25" class="node"><title>topo.tkgui.editor.ModelEditor</title>
<polygon fill="none" stroke="black" stroke-width="0.5" points="397,-286.5 243,-286.5 243,-265.5 397,-265.5 397,-286.5"/>
<text text-anchor="middle" x="320" y="-273.5" font-family="Vera" font-size="10.00">topo.tkgui.editor.ModelEditor</text>
</g>
<!-- param.parameterized.Parameterized&#45;&gt;topo.tkgui.editor.ModelEditor -->
<g id="edge20" class="edge"><title>param.parameterized.Parameterized&#45;&gt;topo.tkgui.editor.ModelEditor</title>
<path fill="none" stroke="black" stroke-width="0.5" d="M194.162,-276C208.692,-276 223.553,-276 237.735,-276"/>
<polygon fill="black" stroke="black" points="237.927,-277.75 242.927,-276 237.927,-274.25 237.927,-277.75"/>
</g>
<!-- topo.tkgui.editor.EditorEP -->
<g id="node19" class="node"><title>topo.tkgui.editor.EditorEP</title>
<polygon fill="none" stroke="black" stroke-width="0.5" points="610,-210.5 474,-210.5 474,-189.5 610,-189.5 610,-210.5"/>
<text text-anchor="middle" x="542" y="-197.5" font-family="Vera" font-size="10.00">topo.tkgui.editor.EditorEP</text>
</g>
<!-- topo.tkgui.editor.EditorSheet -->
<g id="node36" class="node"><title>topo.tkgui.editor.EditorSheet</title>
<polygon fill="none" stroke="black" stroke-width="0.5" points="838,-210.5 684,-210.5 684,-189.5 838,-189.5 838,-210.5"/>
<text text-anchor="middle" x="761" y="-197.5" font-family="Vera" font-size="10.00">topo.tkgui.editor.EditorSheet</text>
</g>
<!-- topo.tkgui.editor.EditorEP&#45;&gt;topo.tkgui.editor.EditorSheet -->
<g id="edge28" class="edge"><title>topo.tkgui.editor.EditorEP&#45;&gt;topo.tkgui.editor.EditorSheet</title>
<path fill="none" stroke="black" stroke-width="0.5" d="M610.692,-200C632.267,-200 656.308,-200 678.724,-200"/>
<polygon fill="black" stroke="black" points="678.78,-201.75 683.78,-200 678.78,-198.25 678.78,-201.75"/>
</g>
<!-- topo.tkgui.editor.EditorNode -->
<g id="node20" class="node"><title>topo.tkgui.editor.EditorNode</title>
<polygon fill="none" stroke="black" stroke-width="0.5" points="395,-210.5 245,-210.5 245,-189.5 395,-189.5 395,-210.5"/>
<text text-anchor="middle" x="320" y="-197.5" font-family="Vera" font-size="10.00">topo.tkgui.editor.EditorNode</text>
</g>
<!-- topo.tkgui.editor.EditorNode&#45;&gt;topo.tkgui.editor.EditorEP -->
<g id="edge16" class="edge"><title>topo.tkgui.editor.EditorNode&#45;&gt;topo.tkgui.editor.EditorEP</title>
<path fill="none" stroke="black" stroke-width="0.5" d="M395.779,-200C419.134,-200 444.811,-200 468.042,-200"/>
<polygon fill="black" stroke="black" points="468.269,-201.75 473.269,-200 468.269,-198.25 468.269,-201.75"/>
</g>
<!-- Tkinter.Misc -->
<g id="node24" class="node"><title>Tkinter.Misc</title>
<polygon fill="none" stroke="black" stroke-width="0.5" points="133,-39.5 61,-39.5 61,-18.5 133,-18.5 133,-39.5"/>
<text text-anchor="middle" x="97" y="-26.5" font-family="Vera" font-size="10.00">Tkinter.Misc</text>
</g>
<!-- Tkinter.BaseWidget -->
<g id="node34" class="node"><title>Tkinter.BaseWidget</title>
<polygon fill="none" stroke="black" stroke-width="0.5" points="373,-39.5 267,-39.5 267,-18.5 373,-18.5 373,-39.5"/>
<text text-anchor="middle" x="320" y="-26.5" font-family="Vera" font-size="10.00">Tkinter.BaseWidget</text>
</g>
<!-- Tkinter.Misc&#45;&gt;Tkinter.BaseWidget -->
<g id="edge26" class="edge"><title>Tkinter.Misc&#45;&gt;Tkinter.BaseWidget</title>
<path fill="none" stroke="black" stroke-width="0.5" d="M133.325,-29C167.814,-29 220.266,-29 260.798,-29"/>
<polygon fill="black" stroke="black" points="261.182,-30.7501 266.182,-29 261.182,-27.2501 261.182,-30.7501"/>
</g>
<!-- topo.tkgui.editor.EditorObject -->
<g id="node27" class="node"><title>topo.tkgui.editor.EditorObject</title>
<polygon fill="none" stroke="black" stroke-width="0.5" points="175,-229.5 19,-229.5 19,-208.5 175,-208.5 175,-229.5"/>
<text text-anchor="middle" x="97" y="-216.5" font-family="Vera" font-size="10.00">topo.tkgui.editor.EditorObject</text>
</g>
<!-- topo.tkgui.editor.EditorObject&#45;&gt;topo.tkgui.editor.EditorConnection -->
<g id="edge40" class="edge"><title>topo.tkgui.editor.EditorObject&#45;&gt;topo.tkgui.editor.EditorConnection</title>
<path fill="none" stroke="black" stroke-width="0.5" d="M175.308,-225.672C191.458,-227.048 208.63,-228.511 225.291,-229.931"/>
<polygon fill="black" stroke="black" points="225.313,-231.689 230.443,-230.37 225.61,-228.201 225.313,-231.689"/>
</g>
<!-- topo.tkgui.editor.EditorObject&#45;&gt;topo.tkgui.editor.EditorNode -->
<g id="edge22" class="edge"><title>topo.tkgui.editor.EditorObject&#45;&gt;topo.tkgui.editor.EditorNode</title>
<path fill="none" stroke="black" stroke-width="0.5" d="M175.308,-212.328C195.901,-210.573 218.157,-208.677 238.894,-206.91"/>
<polygon fill="black" stroke="black" points="239.298,-208.632 244.132,-206.464 239.001,-205.145 239.298,-208.632"/>
</g>
<!-- Tkinter.Pack -->
<g id="node31" class="node"><title>Tkinter.Pack</title>
<polygon fill="none" stroke="black" stroke-width="0.5" points="356,-153.5 284,-153.5 284,-132.5 356,-132.5 356,-153.5"/>
<text text-anchor="middle" x="320" y="-140.5" font-family="Vera" font-size="10.00">Tkinter.Pack</text>
</g>
<!-- Tkinter.Pack&#45;&gt;Tkinter.Widget -->
<g id="edge34" class="edge"><title>Tkinter.Pack&#45;&gt;Tkinter.Widget</title>
<path fill="none" stroke="black" stroke-width="0.5" d="M356.55,-137.66C373.159,-134.633 392.879,-130.188 410,-124 427.014,-117.85 428.947,-111.042 446,-105 461.539,-99.4944 479.09,-95.4328 494.896,-92.5114"/>
<polygon fill="black" stroke="black" points="495.571,-94.1685 500.184,-91.564 494.953,-90.7233 495.571,-94.1685"/>
</g>
<!-- Tkinter.Place -->
<g id="node32" class="node"><title>Tkinter.Place</title>
<polygon fill="none" stroke="black" stroke-width="0.5" points="358,-115.5 282,-115.5 282,-94.5 358,-94.5 358,-115.5"/>
<text text-anchor="middle" x="320" y="-102.5" font-family="Vera" font-size="10.00">Tkinter.Place</text>
</g>
<!-- Tkinter.Place&#45;&gt;Tkinter.Widget -->
<g id="edge36" class="edge"><title>Tkinter.Place&#45;&gt;Tkinter.Widget</title>
<path fill="none" stroke="black" stroke-width="0.5" d="M358.669,-101.69C396.595,-98.4446 454.475,-93.4909 495.028,-90.0201"/>
<polygon fill="black" stroke="black" points="495.549,-91.732 500.382,-89.5619 495.251,-88.2447 495.549,-91.732"/>
</g>
<!-- Tkinter.Grid -->
<g id="node33" class="node"><title>Tkinter.Grid</title>
<polygon fill="none" stroke="black" stroke-width="0.5" points="355,-77.5 285,-77.5 285,-56.5 355,-56.5 355,-77.5"/>
<text text-anchor="middle" x="320" y="-64.5" font-family="Vera" font-size="10.00">Tkinter.Grid</text>
</g>
<!-- Tkinter.Grid&#45;&gt;Tkinter.Widget -->
<g id="edge38" class="edge"><title>Tkinter.Grid&#45;&gt;Tkinter.Widget</title>
<path fill="none" stroke="black" stroke-width="0.5" d="M355.668,-70.0527C393.593,-73.2985 453.732,-78.4455 495.385,-82.0104"/>
<polygon fill="black" stroke="black" points="495.239,-83.7542 500.37,-82.437 495.537,-80.267 495.239,-83.7542"/>
</g>
<!-- Tkinter.BaseWidget&#45;&gt;Tkinter.Widget -->
<g id="edge32" class="edge"><title>Tkinter.BaseWidget&#45;&gt;Tkinter.Widget</title>
<path fill="none" stroke="black" stroke-width="0.5" d="M370.603,-39.0131C383.493,-41.7471 397.294,-44.8342 410,-48 442.24,-56.0327 478.487,-66.5777 504.829,-74.521"/>
<polygon fill="black" stroke="black" points="504.336,-76.2004 509.629,-75.9728 505.349,-72.8502 504.336,-76.2004"/>
</g>
</g>
</svg>
