<?xml version="1.0" encoding="UTF-8" standalone="no"?>
<!DOCTYPE svg PUBLIC "-//W3C//DTD SVG 1.1//EN"
 "http://www.w3.org/Graphics/SVG/1.1/DTD/svg11.dtd">
<!-- Generated by graphviz version 2.26.3 (20100126.1600)
 -->
<!-- Title: inheritancef8cd252234 Pages: 1 -->
<svg width="708pt" height="104pt"
 viewBox="0.00 0.00 708.00 104.00" xmlns="http://www.w3.org/2000/svg" xmlns:xlink="http://www.w3.org/1999/xlink">
<g id="graph1" class="graph" transform="scale(1 1) rotate(0) translate(4 100)">
<title>inheritancef8cd252234</title>
<polygon fill="white" stroke="white" points="-4,5 -4,-100 705,-100 705,5 -4,5"/>
<!-- unittest.case.TestCase -->
<g id="node1" class="node"><title>unittest.case.TestCase</title>
<polygon fill="none" stroke="black" stroke-width="0.5" points="125,-77.5 1,-77.5 1,-56.5 125,-56.5 125,-77.5"/>
<text text-anchor="middle" x="63" y="-64.5" font-family="Vera" font-size="10.00">unittest.case.TestCase</text>
</g>
<!-- topo.tests.unit.testsheet.ExtraSheetTests -->
<g id="node2" class="node"><title>topo.tests.unit.testsheet.ExtraSheetTests</title>
<polygon fill="none" stroke="black" stroke-width="0.5" points="400,-96.5 186,-96.5 186,-75.5 400,-75.5 400,-96.5"/>
<text text-anchor="middle" x="293" y="-83.5" font-family="Vera" font-size="10.00">topo.tests.unit.testsheet.ExtraSheetTests</text>
</g>
<!-- unittest.case.TestCase&#45;&gt;topo.tests.unit.testsheet.ExtraSheetTests -->
<g id="edge2" class="edge"><title>unittest.case.TestCase&#45;&gt;topo.tests.unit.testsheet.ExtraSheetTests</title>
<path fill="none" stroke="black" stroke-width="0.5" d="M125.545,-72.1667C142.446,-73.5629 161.271,-75.118 180.024,-76.6672"/>
<polygon fill="black" stroke="black" points="180.183,-78.4362 185.31,-77.1038 180.471,-74.9481 180.183,-78.4362"/>
</g>
<!-- topo.tests.unit.testsheet.TestCoordinateTransforms -->
<g id="node5" class="node"><title>topo.tests.unit.testsheet.TestCoordinateTransforms</title>
<polygon fill="none" stroke="black" stroke-width="0.5" points="424,-58.5 162,-58.5 162,-37.5 424,-37.5 424,-58.5"/>
<text text-anchor="middle" x="293" y="-45.5" font-family="Vera" font-size="10.00">topo.tests.unit.testsheet.TestCoordinateTransforms</text>
</g>
<!-- unittest.case.TestCase&#45;&gt;topo.tests.unit.testsheet.TestCoordinateTransforms -->
<g id="edge6" class="edge"><title>unittest.case.TestCase&#45;&gt;topo.tests.unit.testsheet.TestCoordinateTransforms</title>
<path fill="none" stroke="black" stroke-width="0.5" d="M125.545,-61.8333C138.34,-60.7763 152.237,-59.6282 166.372,-58.4606"/>
<polygon fill="black" stroke="black" points="166.75,-60.1854 171.588,-58.0297 166.461,-56.6973 166.75,-60.1854"/>
</g>
<!-- topo.tests.unit.testsheet.TestBox2Coordinates -->
<g id="node4" class="node"><title>topo.tests.unit.testsheet.TestBox2Coordinates</title>
<polygon fill="none" stroke="black" stroke-width="0.5" points="699,-96.5 461,-96.5 461,-75.5 699,-75.5 699,-96.5"/>
<text text-anchor="middle" x="580" y="-83.5" font-family="Vera" font-size="10.00">topo.tests.unit.testsheet.TestBox2Coordinates</text>
</g>
<!-- topo.tests.unit.testsheet.TestCoordinateTransforms&#45;&gt;topo.tests.unit.testsheet.TestBox2Coordinates -->
<g id="edge4" class="edge"><title>topo.tests.unit.testsheet.TestCoordinateTransforms&#45;&gt;topo.tests.unit.testsheet.TestBox2Coordinates</title>
<path fill="none" stroke="black" stroke-width="0.5" d="M368.781,-58.0338C408.834,-63.3369 458.018,-69.8491 498.845,-75.2547"/>
<polygon fill="black" stroke="black" points="499.106,-77.0544 504.292,-75.976 499.565,-73.5847 499.106,-77.0544"/>
</g>
<!-- topo.tests.unit.testsheet.TestBox3Coordinates -->
<g id="node8" class="node"><title>topo.tests.unit.testsheet.TestBox3Coordinates</title>
<polygon fill="none" stroke="black" stroke-width="0.5" points="699,-58.5 461,-58.5 461,-37.5 699,-37.5 699,-58.5"/>
<text text-anchor="middle" x="580" y="-45.5" font-family="Vera" font-size="10.00">topo.tests.unit.testsheet.TestBox3Coordinates</text>
</g>
<!-- topo.tests.unit.testsheet.TestCoordinateTransforms&#45;&gt;topo.tests.unit.testsheet.TestBox3Coordinates -->
<g id="edge8" class="edge"><title>topo.tests.unit.testsheet.TestCoordinateTransforms&#45;&gt;topo.tests.unit.testsheet.TestBox3Coordinates</title>
<path fill="none" stroke="black" stroke-width="0.5" d="M424.321,-48C434.595,-48 444.954,-48 455.183,-48"/>
<polygon fill="black" stroke="black" points="455.193,-49.7501 460.193,-48 455.193,-46.2501 455.193,-49.7501"/>
</g>
<!-- topo.tests.unit.testsheet.TestBox1Coordinates -->
<g id="node10" class="node"><title>topo.tests.unit.testsheet.TestBox1Coordinates</title>
<polygon fill="none" stroke="black" stroke-width="0.5" points="699,-20.5 461,-20.5 461,0.5 699,0.5 699,-20.5"/>
<text text-anchor="middle" x="580" y="-7.5" font-family="Vera" font-size="10.00">topo.tests.unit.testsheet.TestBox1Coordinates</text>
</g>
<!-- topo.tests.unit.testsheet.TestCoordinateTransforms&#45;&gt;topo.tests.unit.testsheet.TestBox1Coordinates -->
<g id="edge10" class="edge"><title>topo.tests.unit.testsheet.TestCoordinateTransforms&#45;&gt;topo.tests.unit.testsheet.TestBox1Coordinates</title>
<path fill="none" stroke="black" stroke-width="0.5" d="M368.781,-37.9662C408.834,-32.6631 458.018,-26.1509 498.845,-20.7453"/>
<polygon fill="black" stroke="black" points="499.565,-22.4153 504.292,-20.024 499.106,-18.9456 499.565,-22.4153"/>
</g>
</g>
</svg>
