<?xml version="1.0" encoding="UTF-8" standalone="no"?>
<!DOCTYPE svg PUBLIC "-//W3C//DTD SVG 1.1//EN"
 "http://www.w3.org/Graphics/SVG/1.1/DTD/svg11.dtd">
<!-- Generated by graphviz version 2.26.3 (20100126.1600)
 -->
<!-- Title: inheritance489beebb75 Pages: 1 -->
<svg width="796pt" height="560pt"
 viewBox="0.00 0.00 796.00 560.00" xmlns="http://www.w3.org/2000/svg" xmlns:xlink="http://www.w3.org/1999/xlink">
<g id="graph1" class="graph" transform="scale(1 1) rotate(0) translate(4 556)">
<title>inheritance489beebb75</title>
<polygon fill="white" stroke="white" points="-4,5 -4,-556 793,-556 793,5 -4,5"/>
<!-- paramtk.tilewrapper.Menubutton -->
<g id="node1" class="node"><title>paramtk.tilewrapper.Menubutton</title>
<polygon fill="none" stroke="black" stroke-width="0.5" points="786,-438.5 614,-438.5 614,-417.5 786,-417.5 786,-438.5"/>
<text text-anchor="middle" x="700" y="-425.5" font-family="Vera" font-size="10.00">paramtk.tilewrapper.Menubutton</text>
</g>
<!-- paramtk.tilewrapper.Widget -->
<g id="node2" class="node"><title>paramtk.tilewrapper.Widget</title>
<polygon fill="none" stroke="black" stroke-width="0.5" points="575,-286.5 429,-286.5 429,-265.5 575,-265.5 575,-286.5"/>
<text text-anchor="middle" x="502" y="-273.5" font-family="Vera" font-size="10.00">paramtk.tilewrapper.Widget</text>
</g>
<!-- paramtk.tilewrapper.Widget&#45;&gt;paramtk.tilewrapper.Menubutton -->
<g id="edge2" class="edge"><title>paramtk.tilewrapper.Widget&#45;&gt;paramtk.tilewrapper.Menubutton</title>
<path fill="none" stroke="black" stroke-width="0.5" d="M513.284,-286.17C528.481,-300.171 555.931,-326.548 576,-352 594.552,-375.529 587.442,-391.834 612,-409 615.763,-411.63 619.821,-413.907 624.057,-415.877"/>
<polygon fill="black" stroke="black" points="623.434,-417.515 628.718,-417.897 624.826,-414.303 623.434,-417.515"/>
</g>
<!-- paramtk.tilewrapper.Notebook -->
<g id="node10" class="node"><title>paramtk.tilewrapper.Notebook</title>
<polygon fill="none" stroke="black" stroke-width="0.5" points="780,-400.5 620,-400.5 620,-379.5 780,-379.5 780,-400.5"/>
<text text-anchor="middle" x="700" y="-387.5" font-family="Vera" font-size="10.00">paramtk.tilewrapper.Notebook</text>
</g>
<!-- paramtk.tilewrapper.Widget&#45;&gt;paramtk.tilewrapper.Notebook -->
<g id="edge8" class="edge"><title>paramtk.tilewrapper.Widget&#45;&gt;paramtk.tilewrapper.Notebook</title>
<path fill="none" stroke="black" stroke-width="0.5" d="M510.522,-286.174C527.609,-305.864 568.19,-349.158 612,-371 617.796,-373.89 624.022,-376.342 630.385,-378.422"/>
<polygon fill="black" stroke="black" points="629.98,-380.129 635.274,-379.942 631.019,-376.786 629.98,-380.129"/>
</g>
<!-- paramtk.tilewrapper.Paned -->
<g id="node12" class="node"><title>paramtk.tilewrapper.Paned</title>
<polygon fill="none" stroke="black" stroke-width="0.5" points="772,-362.5 628,-362.5 628,-341.5 772,-341.5 772,-362.5"/>
<text text-anchor="middle" x="700" y="-349.5" font-family="Vera" font-size="10.00">paramtk.tilewrapper.Paned</text>
</g>
<!-- paramtk.tilewrapper.Widget&#45;&gt;paramtk.tilewrapper.Paned -->
<g id="edge10" class="edge"><title>paramtk.tilewrapper.Widget&#45;&gt;paramtk.tilewrapper.Paned</title>
<path fill="none" stroke="black" stroke-width="0.5" d="M518.15,-286.117C539.061,-298.801 576.987,-320.403 612,-333 620.038,-335.892 628.655,-338.415 637.238,-340.595"/>
<polygon fill="black" stroke="black" points="637.298,-342.412 642.572,-341.909 638.135,-339.014 637.298,-342.412"/>
</g>
<!-- paramtk.tilewrapper.Button -->
<g id="node14" class="node"><title>paramtk.tilewrapper.Button</title>
<polygon fill="none" stroke="black" stroke-width="0.5" points="773,-248.5 627,-248.5 627,-227.5 773,-227.5 773,-248.5"/>
<text text-anchor="middle" x="700" y="-235.5" font-family="Vera" font-size="10.00">paramtk.tilewrapper.Button</text>
</g>
<!-- paramtk.tilewrapper.Widget&#45;&gt;paramtk.tilewrapper.Button -->
<g id="edge12" class="edge"><title>paramtk.tilewrapper.Widget&#45;&gt;paramtk.tilewrapper.Button</title>
<path fill="none" stroke="black" stroke-width="0.5" d="M554.281,-265.966C581.462,-260.75 614.739,-254.363 642.627,-249.011"/>
<polygon fill="black" stroke="black" points="643.189,-250.685 647.769,-248.024 642.529,-247.248 643.189,-250.685"/>
</g>
<!-- paramtk.tilewrapper.Progressbar -->
<g id="node18" class="node"><title>paramtk.tilewrapper.Progressbar</title>
<polygon fill="none" stroke="black" stroke-width="0.5" points="786,-324.5 614,-324.5 614,-303.5 786,-303.5 786,-324.5"/>
<text text-anchor="middle" x="700" y="-311.5" font-family="Vera" font-size="10.00">paramtk.tilewrapper.Progressbar</text>
</g>
<!-- paramtk.tilewrapper.Widget&#45;&gt;paramtk.tilewrapper.Progressbar -->
<g id="edge16" class="edge"><title>paramtk.tilewrapper.Widget&#45;&gt;paramtk.tilewrapper.Progressbar</title>
<path fill="none" stroke="black" stroke-width="0.5" d="M554.281,-286.034C581.462,-291.25 614.739,-297.637 642.627,-302.989"/>
<polygon fill="black" stroke="black" points="642.529,-304.752 647.769,-303.976 643.189,-301.315 642.529,-304.752"/>
</g>
<!-- paramtk.tilewrapper.Radiobutton -->
<g id="node23" class="node"><title>paramtk.tilewrapper.Radiobutton</title>
<polygon fill="none" stroke="black" stroke-width="0.5" points="786,-210.5 614,-210.5 614,-189.5 786,-189.5 786,-210.5"/>
<text text-anchor="middle" x="700" y="-197.5" font-family="Vera" font-size="10.00">paramtk.tilewrapper.Radiobutton</text>
</g>
<!-- paramtk.tilewrapper.Widget&#45;&gt;paramtk.tilewrapper.Radiobutton -->
<g id="edge20" class="edge"><title>paramtk.tilewrapper.Widget&#45;&gt;paramtk.tilewrapper.Radiobutton</title>
<path fill="none" stroke="black" stroke-width="0.5" d="M555.981,-265.964C562.966,-263.578 569.827,-260.632 576,-257 596.051,-245.201 591.725,-230.409 612,-219 616.902,-216.242 622.164,-213.884 627.589,-211.868"/>
<polygon fill="black" stroke="black" points="628.469,-213.414 632.611,-210.111 627.313,-210.11 628.469,-213.414"/>
</g>
<!-- paramtk.tilewrapper.Scrollbar -->
<g id="node27" class="node"><title>paramtk.tilewrapper.Scrollbar</title>
<polygon fill="none" stroke="black" stroke-width="0.5" points="778,-172.5 622,-172.5 622,-151.5 778,-151.5 778,-172.5"/>
<text text-anchor="middle" x="700" y="-159.5" font-family="Vera" font-size="10.00">paramtk.tilewrapper.Scrollbar</text>
</g>
<!-- paramtk.tilewrapper.Widget&#45;&gt;paramtk.tilewrapper.Scrollbar -->
<g id="edge24" class="edge"><title>paramtk.tilewrapper.Widget&#45;&gt;paramtk.tilewrapper.Scrollbar</title>
<path fill="none" stroke="black" stroke-width="0.5" d="M561.301,-265.967C566.592,-263.576 571.601,-260.63 576,-257 604.829,-233.213 582.717,-204.225 612,-181 615.115,-178.529 618.48,-176.362 622.014,-174.462"/>
<polygon fill="black" stroke="black" points="623.223,-175.817 626.931,-172.034 621.673,-172.679 623.223,-175.817"/>
</g>
<!-- paramtk.tilewrapper.Separator -->
<g id="node32" class="node"><title>paramtk.tilewrapper.Separator</title>
<polygon fill="none" stroke="black" stroke-width="0.5" points="781,-286.5 619,-286.5 619,-265.5 781,-265.5 781,-286.5"/>
<text text-anchor="middle" x="700" y="-273.5" font-family="Vera" font-size="10.00">paramtk.tilewrapper.Separator</text>
</g>
<!-- paramtk.tilewrapper.Widget&#45;&gt;paramtk.tilewrapper.Separator -->
<g id="edge28" class="edge"><title>paramtk.tilewrapper.Widget&#45;&gt;paramtk.tilewrapper.Separator</title>
<path fill="none" stroke="black" stroke-width="0.5" d="M575.728,-276C587.85,-276 600.514,-276 612.924,-276"/>
<polygon fill="black" stroke="black" points="613.224,-277.75 618.224,-276 613.224,-274.25 613.224,-277.75"/>
</g>
<!-- paramtk.tilewrapper.Treeview -->
<g id="node37" class="node"><title>paramtk.tilewrapper.Treeview</title>
<polygon fill="none" stroke="black" stroke-width="0.5" points="777,-552.5 623,-552.5 623,-531.5 777,-531.5 777,-552.5"/>
<text text-anchor="middle" x="700" y="-539.5" font-family="Vera" font-size="10.00">paramtk.tilewrapper.Treeview</text>
</g>
<!-- paramtk.tilewrapper.Widget&#45;&gt;paramtk.tilewrapper.Treeview -->
<g id="edge32" class="edge"><title>paramtk.tilewrapper.Widget&#45;&gt;paramtk.tilewrapper.Treeview</title>
<path fill="none" stroke="black" stroke-width="0.5" d="M515.86,-286.15C532.816,-299.349 561.099,-324.049 576,-352 612.537,-420.535 557.223,-467.941 612,-523 614.315,-525.327 616.842,-527.4 619.531,-529.245"/>
<polygon fill="black" stroke="black" points="618.715,-530.798 623.883,-531.96 620.568,-527.829 618.715,-530.798"/>
</g>
<!-- paramtk.tilewrapper.Label -->
<g id="node45" class="node"><title>paramtk.tilewrapper.Label</title>
<polygon fill="none" stroke="black" stroke-width="0.5" points="770,-96.5 630,-96.5 630,-75.5 770,-75.5 770,-96.5"/>
<text text-anchor="middle" x="700" y="-83.5" font-family="Vera" font-size="10.00">paramtk.tilewrapper.Label</text>
</g>
<!-- paramtk.tilewrapper.Widget&#45;&gt;paramtk.tilewrapper.Label -->
<g id="edge44" class="edge"><title>paramtk.tilewrapper.Widget&#45;&gt;paramtk.tilewrapper.Label</title>
<path fill="none" stroke="black" stroke-width="0.5" d="M563.912,-265.958C568.357,-263.545 572.47,-260.597 576,-257 624.628,-207.451 562.423,-153.599 612,-105 615.931,-101.147 620.446,-97.9938 625.31,-95.4219"/>
<polygon fill="black" stroke="black" points="626.127,-96.9706 629.868,-93.2197 624.604,-93.8192 626.127,-96.9706"/>
</g>
<!-- paramtk.tilewrapper.Checkbutton -->
<g id="node50" class="node"><title>paramtk.tilewrapper.Checkbutton</title>
<polygon fill="none" stroke="black" stroke-width="0.5" points="788,-20.5 612,-20.5 612,0.5 788,0.5 788,-20.5"/>
<text text-anchor="middle" x="700" y="-7.5" font-family="Vera" font-size="10.00">paramtk.tilewrapper.Checkbutton</text>
</g>
<!-- paramtk.tilewrapper.Widget&#45;&gt;paramtk.tilewrapper.Checkbutton -->
<g id="edge50" class="edge"><title>paramtk.tilewrapper.Widget&#45;&gt;paramtk.tilewrapper.Checkbutton</title>
<path fill="none" stroke="black" stroke-width="0.5" d="M564.903,-265.848C569.015,-263.447 572.787,-260.533 576,-257 645.025,-181.106 541.52,-103.545 612,-29 614.08,-26.7995 616.35,-24.8233 618.768,-23.05"/>
<polygon fill="black" stroke="black" points="620.067,-24.2896 623.273,-20.0726 618.137,-21.3698 620.067,-24.2896"/>
</g>
<!-- paramtk.tilewrapper.Frame -->
<g id="node63" class="node"><title>paramtk.tilewrapper.Frame</title>
<polygon fill="none" stroke="black" stroke-width="0.5" points="772,-134.5 628,-134.5 628,-113.5 772,-113.5 772,-134.5"/>
<text text-anchor="middle" x="700" y="-121.5" font-family="Vera" font-size="10.00">paramtk.tilewrapper.Frame</text>
</g>
<!-- paramtk.tilewrapper.Widget&#45;&gt;paramtk.tilewrapper.Frame -->
<g id="edge66" class="edge"><title>paramtk.tilewrapper.Widget&#45;&gt;paramtk.tilewrapper.Frame</title>
<path fill="none" stroke="black" stroke-width="0.5" d="M563.274,-265.855C567.915,-263.471 572.244,-260.557 576,-257 614.581,-220.468 572.719,-178.779 612,-143 615.239,-140.05 618.824,-137.518 622.64,-135.348"/>
<polygon fill="black" stroke="black" points="623.592,-136.825 627.219,-132.963 621.976,-133.721 623.592,-136.825"/>
</g>
<!-- paramtk.tilewrapper.Combobox -->
<g id="node70" class="node"><title>paramtk.tilewrapper.Combobox</title>
<polygon fill="none" stroke="black" stroke-width="0.5" points="783,-514.5 617,-514.5 617,-493.5 783,-493.5 783,-514.5"/>
<text text-anchor="middle" x="700" y="-501.5" font-family="Vera" font-size="10.00">paramtk.tilewrapper.Combobox</text>
</g>
<!-- paramtk.tilewrapper.Widget&#45;&gt;paramtk.tilewrapper.Combobox -->
<g id="edge78" class="edge"><title>paramtk.tilewrapper.Widget&#45;&gt;paramtk.tilewrapper.Combobox</title>
<path fill="none" stroke="black" stroke-width="0.5" d="M515.316,-286.059C531.973,-299.346 560.219,-324.323 576,-352 606.333,-405.198 567.593,-442.832 612,-485 614.454,-487.331 617.123,-489.403 619.953,-491.244"/>
<polygon fill="black" stroke="black" points="619.33,-492.909 624.524,-493.951 621.113,-489.897 619.33,-492.909"/>
</g>
<!-- paramtk.tilewrapper.Entry -->
<g id="node73" class="node"><title>paramtk.tilewrapper.Entry</title>
<polygon fill="none" stroke="black" stroke-width="0.5" points="770,-476.5 630,-476.5 630,-455.5 770,-455.5 770,-476.5"/>
<text text-anchor="middle" x="700" y="-463.5" font-family="Vera" font-size="10.00">paramtk.tilewrapper.Entry</text>
</g>
<!-- paramtk.tilewrapper.Widget&#45;&gt;paramtk.tilewrapper.Entry -->
<g id="edge82" class="edge"><title>paramtk.tilewrapper.Widget&#45;&gt;paramtk.tilewrapper.Entry</title>
<path fill="none" stroke="black" stroke-width="0.5" d="M514.615,-286.079C530.786,-299.576 558.785,-324.973 576,-352 600.257,-390.083 577.776,-417.548 612,-447 615.909,-450.364 620.273,-453.177 624.909,-455.525"/>
<polygon fill="black" stroke="black" points="624.358,-457.198 629.63,-457.72 625.834,-454.025 624.358,-457.198"/>
</g>
<!-- paramtk.tilewrapper.LabelFrame -->
<g id="node77" class="node"><title>paramtk.tilewrapper.LabelFrame</title>
<polygon fill="none" stroke="black" stroke-width="0.5" points="785,-58.5 615,-58.5 615,-37.5 785,-37.5 785,-58.5"/>
<text text-anchor="middle" x="700" y="-45.5" font-family="Vera" font-size="10.00">paramtk.tilewrapper.LabelFrame</text>
</g>
<!-- paramtk.tilewrapper.Widget&#45;&gt;paramtk.tilewrapper.LabelFrame -->
<g id="edge88" class="edge"><title>paramtk.tilewrapper.Widget&#45;&gt;paramtk.tilewrapper.LabelFrame</title>
<path fill="none" stroke="black" stroke-width="0.5" d="M564.439,-265.935C568.71,-263.521 572.643,-260.58 576,-257 634.796,-194.311 552.003,-128.54 612,-67 614.114,-64.8317 616.412,-62.8827 618.854,-61.1324"/>
<polygon fill="black" stroke="black" points="620.151,-62.3779 623.397,-58.1917 618.249,-59.4397 620.151,-62.3779"/>
</g>
<!-- Tkinter.Menubutton -->
<g id="node4" class="node"><title>Tkinter.Menubutton</title>
<polygon fill="none" stroke="black" stroke-width="0.5" points="556,-381.5 448,-381.5 448,-360.5 556,-360.5 556,-381.5"/>
<text text-anchor="middle" x="502" y="-368.5" font-family="Vera" font-size="10.00">Tkinter.Menubutton</text>
</g>
<!-- Tkinter.Menubutton&#45;&gt;paramtk.tilewrapper.Menubutton -->
<g id="edge4" class="edge"><title>Tkinter.Menubutton&#45;&gt;paramtk.tilewrapper.Menubutton</title>
<path fill="none" stroke="black" stroke-width="0.5" d="M528.391,-381.118C550.5,-389.351 583.007,-400.894 612,-409 622.09,-411.821 632.929,-414.467 643.434,-416.837"/>
<polygon fill="black" stroke="black" points="643.298,-418.6 648.559,-417.978 644.059,-415.183 643.298,-418.6"/>
</g>
<!-- Tkinter.Radiobutton -->
<g id="node6" class="node"><title>Tkinter.Radiobutton</title>
<polygon fill="none" stroke="black" stroke-width="0.5" points="556,-210.5 448,-210.5 448,-189.5 556,-189.5 556,-210.5"/>
<text text-anchor="middle" x="502" y="-197.5" font-family="Vera" font-size="10.00">Tkinter.Radiobutton</text>
</g>
<!-- Tkinter.Radiobutton&#45;&gt;paramtk.tilewrapper.Radiobutton -->
<g id="edge22" class="edge"><title>Tkinter.Radiobutton&#45;&gt;paramtk.tilewrapper.Radiobutton</title>
<path fill="none" stroke="black" stroke-width="0.5" d="M556.629,-200C572.5,-200 590.29,-200 607.795,-200"/>
<polygon fill="black" stroke="black" points="608.216,-201.75 613.216,-200 608.216,-198.25 608.216,-201.75"/>
</g>
<!-- Tkinter.Widget -->
<g id="node7" class="node"><title>Tkinter.Widget</title>
<polygon fill="none" stroke="black" stroke-width="0.5" points="363,-229.5 281,-229.5 281,-208.5 363,-208.5 363,-229.5"/>
<text text-anchor="middle" x="322" y="-216.5" font-family="Vera" font-size="10.00">Tkinter.Widget</text>
</g>
<!-- Tkinter.Widget&#45;&gt;paramtk.tilewrapper.Widget -->
<g id="edge56" class="edge"><title>Tkinter.Widget&#45;&gt;paramtk.tilewrapper.Widget</title>
<path fill="none" stroke="black" stroke-width="0.5" d="M347.911,-229.051C369.234,-237.137 400.34,-248.511 428,-257 436.666,-259.66 445.979,-262.253 454.976,-264.627"/>
<polygon fill="black" stroke="black" points="454.656,-266.352 459.936,-265.922 455.54,-262.965 454.656,-266.352"/>
</g>
<!-- Tkinter.Widget&#45;&gt;Tkinter.Menubutton -->
<g id="edge86" class="edge"><title>Tkinter.Widget&#45;&gt;Tkinter.Menubutton</title>
<path fill="none" stroke="black" stroke-width="0.5" d="M344.848,-229.13C359.089,-235.979 377.414,-245.799 392,-257 410.452,-271.17 411.885,-278.221 428,-295 448.933,-316.795 473.434,-341.875 488.329,-357.074"/>
<polygon fill="black" stroke="black" points="487.151,-358.372 491.901,-360.718 489.65,-355.922 487.151,-358.372"/>
</g>
<!-- Tkinter.Widget&#45;&gt;Tkinter.Radiobutton -->
<g id="edge6" class="edge"><title>Tkinter.Widget&#45;&gt;Tkinter.Radiobutton</title>
<path fill="none" stroke="black" stroke-width="0.5" d="M363.748,-214.593C387.018,-212.137 416.398,-209.036 442.084,-206.324"/>
<polygon fill="black" stroke="black" points="442.38,-208.053 447.169,-205.788 442.013,-204.572 442.38,-208.053"/>
</g>
<!-- Tkinter.Button -->
<g id="node16" class="node"><title>Tkinter.Button</title>
<polygon fill="none" stroke="black" stroke-width="0.5" points="543,-248.5 461,-248.5 461,-227.5 543,-227.5 543,-248.5"/>
<text text-anchor="middle" x="502" y="-235.5" font-family="Vera" font-size="10.00">Tkinter.Button</text>
</g>
<!-- Tkinter.Widget&#45;&gt;Tkinter.Button -->
<g id="edge48" class="edge"><title>Tkinter.Widget&#45;&gt;Tkinter.Button</title>
<path fill="none" stroke="black" stroke-width="0.5" d="M363.748,-223.407C391.124,-226.296 426.955,-230.079 455.281,-233.069"/>
<polygon fill="black" stroke="black" points="455.322,-234.833 460.478,-233.617 455.69,-231.352 455.322,-234.833"/>
</g>
<!-- Tkinter.Frame -->
<g id="node20" class="node"><title>Tkinter.Frame</title>
<polygon fill="none" stroke="black" stroke-width="0.5" points="542,-134.5 462,-134.5 462,-113.5 542,-113.5 542,-134.5"/>
<text text-anchor="middle" x="502" y="-121.5" font-family="Vera" font-size="10.00">Tkinter.Frame</text>
</g>
<!-- Tkinter.Widget&#45;&gt;Tkinter.Frame -->
<g id="edge18" class="edge"><title>Tkinter.Widget&#45;&gt;Tkinter.Frame</title>
<path fill="none" stroke="black" stroke-width="0.5" d="M333.178,-208.793C351.587,-192.517 390.039,-160.717 428,-143 436.802,-138.892 446.624,-135.579 456.162,-132.943"/>
<polygon fill="black" stroke="black" points="456.735,-134.602 461.117,-131.626 455.835,-131.219 456.735,-134.602"/>
</g>
<!-- Tkinter.Scrollbar -->
<g id="node29" class="node"><title>Tkinter.Scrollbar</title>
<polygon fill="none" stroke="black" stroke-width="0.5" points="548,-172.5 456,-172.5 456,-151.5 548,-151.5 548,-172.5"/>
<text text-anchor="middle" x="502" y="-159.5" font-family="Vera" font-size="10.00">Tkinter.Scrollbar</text>
</g>
<!-- Tkinter.Widget&#45;&gt;Tkinter.Scrollbar -->
<g id="edge60" class="edge"><title>Tkinter.Widget&#45;&gt;Tkinter.Scrollbar</title>
<path fill="none" stroke="black" stroke-width="0.5" d="M347.911,-208.949C369.234,-200.863 400.34,-189.489 428,-181 436.666,-178.34 445.979,-175.747 454.976,-173.373"/>
<polygon fill="black" stroke="black" points="455.54,-175.035 459.936,-172.078 454.656,-171.648 455.54,-175.035"/>
</g>
<!-- Tkinter.Listbox -->
<g id="node39" class="node"><title>Tkinter.Listbox</title>
<polygon fill="none" stroke="black" stroke-width="0.5" points="544,-514.5 460,-514.5 460,-493.5 544,-493.5 544,-514.5"/>
<text text-anchor="middle" x="502" y="-501.5" font-family="Vera" font-size="10.00">Tkinter.Listbox</text>
</g>
<!-- Tkinter.Widget&#45;&gt;Tkinter.Listbox -->
<g id="edge72" class="edge"><title>Tkinter.Widget&#45;&gt;Tkinter.Listbox</title>
<path fill="none" stroke="black" stroke-width="0.5" d="M353.963,-229.064C367.767,-235.024 382.825,-244.012 392,-257 451.192,-340.79 358.975,-409.106 428,-485 434.903,-492.589 444.389,-497.327 454.268,-500.244"/>
<polygon fill="black" stroke="black" points="453.858,-501.945 459.139,-501.534 454.754,-498.562 453.858,-501.945"/>
</g>
<!-- Tkinter.Label -->
<g id="node47" class="node"><title>Tkinter.Label</title>
<polygon fill="none" stroke="black" stroke-width="0.5" points="540,-96.5 464,-96.5 464,-75.5 540,-75.5 540,-96.5"/>
<text text-anchor="middle" x="502" y="-83.5" font-family="Vera" font-size="10.00">Tkinter.Label</text>
</g>
<!-- Tkinter.Widget&#45;&gt;Tkinter.Label -->
<g id="edge70" class="edge"><title>Tkinter.Widget&#45;&gt;Tkinter.Label</title>
<path fill="none" stroke="black" stroke-width="0.5" d="M328.329,-208.988C342.978,-186.668 381.544,-132.629 428,-105 437.209,-99.523 447.975,-95.6107 458.398,-92.8209"/>
<polygon fill="black" stroke="black" points="459.058,-94.4592 463.478,-91.5396 458.202,-91.0655 459.058,-94.4592"/>
</g>
<!-- Tkinter.Checkbutton -->
<g id="node52" class="node"><title>Tkinter.Checkbutton</title>
<polygon fill="none" stroke="black" stroke-width="0.5" points="558,-39.5 446,-39.5 446,-18.5 558,-18.5 558,-39.5"/>
<text text-anchor="middle" x="502" y="-26.5" font-family="Vera" font-size="10.00">Tkinter.Checkbutton</text>
</g>
<!-- Tkinter.Widget&#45;&gt;Tkinter.Checkbutton -->
<g id="edge54" class="edge"><title>Tkinter.Widget&#45;&gt;Tkinter.Checkbutton</title>
<path fill="none" stroke="black" stroke-width="0.5" d="M326.84,-208.86C339.868,-182.457 378.093,-110.606 428,-67 440.409,-56.1575 456.457,-47.4313 470.435,-41.0888"/>
<polygon fill="black" stroke="black" points="471.224,-42.6535 475.088,-39.0296 469.807,-39.4529 471.224,-42.6535"/>
</g>
<!-- Tkinter.Entry -->
<g id="node59" class="node"><title>Tkinter.Entry</title>
<polygon fill="none" stroke="black" stroke-width="0.5" points="540,-476.5 464,-476.5 464,-455.5 540,-455.5 540,-476.5"/>
<text text-anchor="middle" x="502" y="-463.5" font-family="Vera" font-size="10.00">Tkinter.Entry</text>
</g>
<!-- Tkinter.Widget&#45;&gt;Tkinter.Entry -->
<g id="edge62" class="edge"><title>Tkinter.Widget&#45;&gt;Tkinter.Entry</title>
<path fill="none" stroke="black" stroke-width="0.5" d="M352.272,-229.063C366.219,-235.126 381.881,-244.199 392,-257 429.975,-305.042 397.667,-336.802 428,-390 442.548,-415.514 467.69,-438.735 484.58,-452.617"/>
<polygon fill="black" stroke="black" points="483.697,-454.155 488.684,-455.941 485.9,-451.435 483.697,-454.155"/>
</g>
<!-- Tkinter.YView -->
<g id="node9" class="node"><title>Tkinter.YView</title>
<polygon fill="none" stroke="black" stroke-width="0.5" points="361,-514.5 283,-514.5 283,-493.5 361,-493.5 361,-514.5"/>
<text text-anchor="middle" x="322" y="-501.5" font-family="Vera" font-size="10.00">Tkinter.YView</text>
</g>
<!-- Tkinter.YView&#45;&gt;Tkinter.Listbox -->
<g id="edge76" class="edge"><title>Tkinter.YView&#45;&gt;Tkinter.Listbox</title>
<path fill="none" stroke="black" stroke-width="0.5" d="M361.057,-504C388.312,-504 424.861,-504 453.91,-504"/>
<polygon fill="black" stroke="black" points="454.243,-505.75 459.243,-504 454.243,-502.25 454.243,-505.75"/>
</g>
<!-- Tkinter.Button&#45;&gt;paramtk.tilewrapper.Button -->
<g id="edge14" class="edge"><title>Tkinter.Button&#45;&gt;paramtk.tilewrapper.Button</title>
<path fill="none" stroke="black" stroke-width="0.5" d="M543.507,-238C565.939,-238 594.397,-238 620.876,-238"/>
<polygon fill="black" stroke="black" points="621.143,-239.75 626.143,-238 621.143,-236.25 621.143,-239.75"/>
</g>
<!-- Tkinter.Frame&#45;&gt;paramtk.tilewrapper.Frame -->
<g id="edge68" class="edge"><title>Tkinter.Frame&#45;&gt;paramtk.tilewrapper.Frame</title>
<path fill="none" stroke="black" stroke-width="0.5" d="M542.546,-124C565.552,-124 595.12,-124 622.409,-124"/>
<polygon fill="black" stroke="black" points="622.475,-125.75 627.475,-124 622.475,-122.25 622.475,-125.75"/>
</g>
<!-- Tkinter.Pack -->
<g id="node22" class="node"><title>Tkinter.Pack</title>
<polygon fill="none" stroke="black" stroke-width="0.5" points="198,-286.5 126,-286.5 126,-265.5 198,-265.5 198,-286.5"/>
<text text-anchor="middle" x="162" y="-273.5" font-family="Vera" font-size="10.00">Tkinter.Pack</text>
</g>
<!-- Tkinter.Pack&#45;&gt;Tkinter.Widget -->
<g id="edge38" class="edge"><title>Tkinter.Pack&#45;&gt;Tkinter.Widget</title>
<path fill="none" stroke="black" stroke-width="0.5" d="M190.596,-265.974C198.802,-263.087 207.759,-259.927 216,-257 240.559,-248.277 268.285,-238.335 289.22,-230.808"/>
<polygon fill="black" stroke="black" points="290.006,-232.385 294.119,-229.046 288.821,-229.091 290.006,-232.385"/>
</g>
<!-- Tkinter.Place -->
<g id="node26" class="node"><title>Tkinter.Place</title>
<polygon fill="none" stroke="black" stroke-width="0.5" points="200,-248.5 124,-248.5 124,-227.5 200,-227.5 200,-248.5"/>
<text text-anchor="middle" x="162" y="-235.5" font-family="Vera" font-size="10.00">Tkinter.Place</text>
</g>
<!-- Tkinter.Place&#45;&gt;Tkinter.Widget -->
<g id="edge40" class="edge"><title>Tkinter.Place&#45;&gt;Tkinter.Widget</title>
<path fill="none" stroke="black" stroke-width="0.5" d="M200.732,-233.401C223.181,-230.735 251.601,-227.36 275.284,-224.548"/>
<polygon fill="black" stroke="black" points="275.503,-226.284 280.262,-223.956 275.091,-222.808 275.503,-226.284"/>
</g>
<!-- Tkinter.Scrollbar&#45;&gt;paramtk.tilewrapper.Scrollbar -->
<g id="edge26" class="edge"><title>Tkinter.Scrollbar&#45;&gt;paramtk.tilewrapper.Scrollbar</title>
<path fill="none" stroke="black" stroke-width="0.5" d="M548.673,-162C568.868,-162 593.14,-162 616.273,-162"/>
<polygon fill="black" stroke="black" points="616.5,-163.75 621.5,-162 616.5,-160.25 616.5,-163.75"/>
</g>
<!-- Tkinter.Grid -->
<g id="node31" class="node"><title>Tkinter.Grid</title>
<polygon fill="none" stroke="black" stroke-width="0.5" points="197,-210.5 127,-210.5 127,-189.5 197,-189.5 197,-210.5"/>
<text text-anchor="middle" x="162" y="-197.5" font-family="Vera" font-size="10.00">Tkinter.Grid</text>
</g>
<!-- Tkinter.Grid&#45;&gt;Tkinter.Widget -->
<g id="edge42" class="edge"><title>Tkinter.Grid&#45;&gt;Tkinter.Widget</title>
<path fill="none" stroke="black" stroke-width="0.5" d="M197.509,-204.217C220.372,-206.932 250.344,-210.491 275.15,-213.437"/>
<polygon fill="black" stroke="black" points="275.189,-215.203 280.36,-214.055 275.601,-211.728 275.189,-215.203"/>
</g>
<!-- Tkinter.BaseWidget -->
<g id="node34" class="node"><title>Tkinter.BaseWidget</title>
<polygon fill="none" stroke="black" stroke-width="0.5" points="215,-172.5 109,-172.5 109,-151.5 215,-151.5 215,-172.5"/>
<text text-anchor="middle" x="162" y="-159.5" font-family="Vera" font-size="10.00">Tkinter.BaseWidget</text>
</g>
<!-- Tkinter.BaseWidget&#45;&gt;Tkinter.Widget -->
<g id="edge36" class="edge"><title>Tkinter.BaseWidget&#45;&gt;Tkinter.Widget</title>
<path fill="none" stroke="black" stroke-width="0.5" d="M190.596,-172.026C198.802,-174.913 207.759,-178.073 216,-181 240.559,-189.723 268.285,-199.665 289.22,-207.192"/>
<polygon fill="black" stroke="black" points="288.821,-208.909 294.119,-208.954 290.006,-205.615 288.821,-208.909"/>
</g>
<!-- Tkinter.Misc -->
<g id="node35" class="node"><title>Tkinter.Misc</title>
<polygon fill="none" stroke="black" stroke-width="0.5" points="72,-172.5 2.84217e-14,-172.5 0,-151.5 72,-151.5 72,-172.5"/>
<text text-anchor="middle" x="36" y="-159.5" font-family="Vera" font-size="10.00">Tkinter.Misc</text>
</g>
<!-- Tkinter.Misc&#45;&gt;Tkinter.BaseWidget -->
<g id="edge30" class="edge"><title>Tkinter.Misc&#45;&gt;Tkinter.BaseWidget</title>
<path fill="none" stroke="black" stroke-width="0.5" d="M72.1065,-162C81.7306,-162 92.3855,-162 102.895,-162"/>
<polygon fill="black" stroke="black" points="103.038,-163.75 108.038,-162 103.038,-160.25 103.038,-163.75"/>
</g>
<!-- Tkinter.Listbox&#45;&gt;paramtk.tilewrapper.Treeview -->
<g id="edge34" class="edge"><title>Tkinter.Listbox&#45;&gt;paramtk.tilewrapper.Treeview</title>
<path fill="none" stroke="black" stroke-width="0.5" d="M544.963,-512.245C573.573,-517.736 611.492,-525.014 642.668,-530.997"/>
<polygon fill="black" stroke="black" points="642.371,-532.722 647.611,-531.946 643.031,-529.285 642.371,-532.722"/>
</g>
<!-- Tkinter.Label&#45;&gt;paramtk.tilewrapper.Label -->
<g id="edge46" class="edge"><title>Tkinter.Label&#45;&gt;paramtk.tilewrapper.Label</title>
<path fill="none" stroke="black" stroke-width="0.5" d="M540.646,-86C564.485,-86 595.873,-86 624.483,-86"/>
<polygon fill="black" stroke="black" points="624.791,-87.7501 629.791,-86 624.791,-84.2501 624.791,-87.7501"/>
</g>
<!-- Tkinter.Label&#45;&gt;paramtk.tilewrapper.LabelFrame -->
<g id="edge90" class="edge"><title>Tkinter.Label&#45;&gt;paramtk.tilewrapper.LabelFrame</title>
<path fill="none" stroke="black" stroke-width="0.5" d="M540.646,-78.583C569.597,-73.0269 609.681,-65.3339 642.404,-59.0537"/>
<polygon fill="black" stroke="black" points="643.01,-60.7196 647.59,-58.0584 642.35,-57.2823 643.01,-60.7196"/>
</g>
<!-- Tkinter.Checkbutton&#45;&gt;paramtk.tilewrapper.Checkbutton -->
<g id="edge52" class="edge"><title>Tkinter.Checkbutton&#45;&gt;paramtk.tilewrapper.Checkbutton</title>
<path fill="none" stroke="black" stroke-width="0.5" d="M558.209,-23.6062C573.337,-22.1546 590.115,-20.5446 606.68,-18.955"/>
<polygon fill="black" stroke="black" points="607.002,-20.6822 611.812,-18.4625 606.668,-17.1982 607.002,-20.6822"/>
</g>
<!-- paramtk.tilewrapper.Style -->
<g id="node54" class="node"><title>paramtk.tilewrapper.Style</title>
<polygon fill="none" stroke="black" stroke-width="0.5" points="391,-286.5 253,-286.5 253,-265.5 391,-265.5 391,-286.5"/>
<text text-anchor="middle" x="322" y="-273.5" font-family="Vera" font-size="10.00">paramtk.tilewrapper.Style</text>
</g>
<!-- paramtk.tilewrapper.Style&#45;&gt;paramtk.tilewrapper.Widget -->
<g id="edge58" class="edge"><title>paramtk.tilewrapper.Style&#45;&gt;paramtk.tilewrapper.Widget</title>
<path fill="none" stroke="black" stroke-width="0.5" d="M391.593,-276C401.965,-276 412.719,-276 423.263,-276"/>
<polygon fill="black" stroke="black" points="423.42,-277.75 428.42,-276 423.42,-274.25 423.42,-277.75"/>
</g>
<!-- Tkinter.Entry&#45;&gt;paramtk.tilewrapper.Combobox -->
<g id="edge80" class="edge"><title>Tkinter.Entry&#45;&gt;paramtk.tilewrapper.Combobox</title>
<path fill="none" stroke="black" stroke-width="0.5" d="M540.176,-473.327C569.19,-478.895 609.584,-486.647 642.503,-492.965"/>
<polygon fill="black" stroke="black" points="642.479,-494.742 647.719,-493.966 643.138,-491.305 642.479,-494.742"/>
</g>
<!-- Tkinter.Entry&#45;&gt;paramtk.tilewrapper.Entry -->
<g id="edge84" class="edge"><title>Tkinter.Entry&#45;&gt;paramtk.tilewrapper.Entry</title>
<path fill="none" stroke="black" stroke-width="0.5" d="M540.176,-466C564.085,-466 595.721,-466 624.534,-466"/>
<polygon fill="black" stroke="black" points="624.879,-467.75 629.879,-466 624.879,-464.25 624.879,-467.75"/>
</g>
<!-- Tkinter.XView -->
<g id="node61" class="node"><title>Tkinter.XView</title>
<polygon fill="none" stroke="black" stroke-width="0.5" points="361,-476.5 283,-476.5 283,-455.5 361,-455.5 361,-476.5"/>
<text text-anchor="middle" x="322" y="-463.5" font-family="Vera" font-size="10.00">Tkinter.XView</text>
</g>
<!-- Tkinter.XView&#45;&gt;Tkinter.Listbox -->
<g id="edge74" class="edge"><title>Tkinter.XView&#45;&gt;Tkinter.Listbox</title>
<path fill="none" stroke="black" stroke-width="0.5" d="M361.502,-474.339C388.894,-480.122 425.513,-487.853 454.499,-493.972"/>
<polygon fill="black" stroke="black" points="454.196,-495.696 459.449,-495.017 454.919,-492.272 454.196,-495.696"/>
</g>
<!-- Tkinter.XView&#45;&gt;Tkinter.Entry -->
<g id="edge64" class="edge"><title>Tkinter.XView&#45;&gt;Tkinter.Entry</title>
<path fill="none" stroke="black" stroke-width="0.5" d="M361.502,-466C390.263,-466 429.198,-466 458.787,-466"/>
<polygon fill="black" stroke="black" points="458.825,-467.75 463.825,-466 458.825,-464.25 458.825,-467.75"/>
</g>
</g>
</svg>
