<?xml version="1.0" encoding="UTF-8" standalone="no"?>
<!DOCTYPE svg PUBLIC "-//W3C//DTD SVG 1.1//EN"
 "http://www.w3.org/Graphics/SVG/1.1/DTD/svg11.dtd">
<!-- Generated by graphviz version 2.26.3 (20100126.1600)
 -->
<!-- Title: inheritance49aa83dbeb Pages: 1 -->
<svg width="748pt" height="142pt"
 viewBox="0.00 0.00 748.00 142.00" xmlns="http://www.w3.org/2000/svg" xmlns:xlink="http://www.w3.org/1999/xlink">
<g id="graph1" class="graph" transform="scale(1 1) rotate(0) translate(4 138)">
<title>inheritance49aa83dbeb</title>
<polygon fill="white" stroke="white" points="-4,5 -4,-138 745,-138 745,5 -4,5"/>
<!-- param.parameterized.Parameterized -->
<g id="node1" class="node"><title>param.parameterized.Parameterized</title>
<polygon fill="none" stroke="black" stroke-width="0.5" points="194,-77.5 5.68434e-14,-77.5 0,-56.5 194,-56.5 194,-77.5"/>
<text text-anchor="middle" x="97" y="-64.5" font-family="Vera" font-size="10.00">param.parameterized.Parameterized</text>
</g>
<!-- topo.plotting.plot.Plot -->
<g id="node5" class="node"><title>topo.plotting.plot.Plot</title>
<polygon fill="none" stroke="black" stroke-width="0.5" points="349,-77.5 231,-77.5 231,-56.5 349,-56.5 349,-77.5"/>
<text text-anchor="middle" x="290" y="-64.5" font-family="Vera" font-size="10.00">topo.plotting.plot.Plot</text>
</g>
<!-- param.parameterized.Parameterized&#45;&gt;topo.plotting.plot.Plot -->
<g id="edge4" class="edge"><title>param.parameterized.Parameterized&#45;&gt;topo.plotting.plot.Plot</title>
<path fill="none" stroke="black" stroke-width="0.5" d="M194.065,-67C204.617,-67 215.159,-67 225.188,-67"/>
<polygon fill="black" stroke="black" points="225.383,-68.7501 230.383,-67 225.383,-65.2501 225.383,-68.7501"/>
</g>
<!-- topo.plotting.plot.SHCPlot -->
<g id="node2" class="node"><title>topo.plotting.plot.SHCPlot</title>
<polygon fill="none" stroke="black" stroke-width="0.5" points="733,-134.5 593,-134.5 593,-113.5 733,-113.5 733,-134.5"/>
<text text-anchor="middle" x="663" y="-121.5" font-family="Vera" font-size="10.00">topo.plotting.plot.SHCPlot</text>
</g>
<!-- topo.plotting.plot.TemplatePlot -->
<g id="node3" class="node"><title>topo.plotting.plot.TemplatePlot</title>
<polygon fill="none" stroke="black" stroke-width="0.5" points="549,-77.5 387,-77.5 387,-56.5 549,-56.5 549,-77.5"/>
<text text-anchor="middle" x="468" y="-64.5" font-family="Vera" font-size="10.00">topo.plotting.plot.TemplatePlot</text>
</g>
<!-- topo.plotting.plot.TemplatePlot&#45;&gt;topo.plotting.plot.SHCPlot -->
<g id="edge2" class="edge"><title>topo.plotting.plot.TemplatePlot&#45;&gt;topo.plotting.plot.SHCPlot</title>
<path fill="none" stroke="black" stroke-width="0.5" d="M497.408,-77.0995C521.176,-85.1096 555.566,-96.3561 586,-105 595.362,-107.659 605.423,-110.298 615.085,-112.725"/>
<polygon fill="black" stroke="black" points="614.82,-114.463 620.095,-113.974 615.667,-111.067 614.82,-114.463"/>
</g>
<!-- topo.plotting.plot.MultiOrPlot -->
<g id="node7" class="node"><title>topo.plotting.plot.MultiOrPlot</title>
<polygon fill="none" stroke="black" stroke-width="0.5" points="739,-96.5 587,-96.5 587,-75.5 739,-75.5 739,-96.5"/>
<text text-anchor="middle" x="663" y="-83.5" font-family="Vera" font-size="10.00">topo.plotting.plot.MultiOrPlot</text>
</g>
<!-- topo.plotting.plot.TemplatePlot&#45;&gt;topo.plotting.plot.MultiOrPlot -->
<g id="edge6" class="edge"><title>topo.plotting.plot.TemplatePlot&#45;&gt;topo.plotting.plot.MultiOrPlot</title>
<path fill="none" stroke="black" stroke-width="0.5" d="M549.568,-74.9476C560.061,-75.9701 570.808,-77.0172 581.304,-78.0398"/>
<polygon fill="black" stroke="black" points="581.288,-79.7965 586.434,-78.5397 581.627,-76.313 581.288,-79.7965"/>
</g>
<!-- topo.plotting.plot.PalettePlot -->
<g id="node9" class="node"><title>topo.plotting.plot.PalettePlot</title>
<polygon fill="none" stroke="black" stroke-width="0.5" points="739,-58.5 587,-58.5 587,-37.5 739,-37.5 739,-58.5"/>
<text text-anchor="middle" x="663" y="-45.5" font-family="Vera" font-size="10.00">topo.plotting.plot.PalettePlot</text>
</g>
<!-- topo.plotting.plot.TemplatePlot&#45;&gt;topo.plotting.plot.PalettePlot -->
<g id="edge8" class="edge"><title>topo.plotting.plot.TemplatePlot&#45;&gt;topo.plotting.plot.PalettePlot</title>
<path fill="none" stroke="black" stroke-width="0.5" d="M549.568,-59.0524C560.151,-58.0212 570.992,-56.9649 581.573,-55.9339"/>
<polygon fill="black" stroke="black" points="581.937,-57.6568 586.744,-55.4301 581.598,-54.1733 581.937,-57.6568"/>
</g>
<!-- topo.plotting.plot.RGBPlot -->
<g id="node11" class="node"><title>topo.plotting.plot.RGBPlot</title>
<polygon fill="none" stroke="black" stroke-width="0.5" points="733,-20.5 593,-20.5 593,0.5 733,0.5 733,-20.5"/>
<text text-anchor="middle" x="663" y="-7.5" font-family="Vera" font-size="10.00">topo.plotting.plot.RGBPlot</text>
</g>
<!-- topo.plotting.plot.TemplatePlot&#45;&gt;topo.plotting.plot.RGBPlot -->
<g id="edge10" class="edge"><title>topo.plotting.plot.TemplatePlot&#45;&gt;topo.plotting.plot.RGBPlot</title>
<path fill="none" stroke="black" stroke-width="0.5" d="M497.408,-56.9005C521.176,-48.8904 555.566,-37.6439 586,-29 595.362,-26.3411 605.423,-23.7021 615.085,-21.2747"/>
<polygon fill="black" stroke="black" points="615.667,-22.9332 620.095,-20.0256 614.82,-19.5372 615.667,-22.9332"/>
</g>
<!-- topo.plotting.plot.Plot&#45;&gt;topo.plotting.plot.TemplatePlot -->
<g id="edge12" class="edge"><title>topo.plotting.plot.Plot&#45;&gt;topo.plotting.plot.TemplatePlot</title>
<path fill="none" stroke="black" stroke-width="0.5" d="M349.767,-67C359.835,-67 370.465,-67 381.055,-67"/>
<polygon fill="black" stroke="black" points="381.249,-68.7501 386.249,-67 381.249,-65.2501 381.249,-68.7501"/>
</g>
</g>
</svg>
