<?xml version="1.0" encoding="UTF-8" standalone="no"?>
<!DOCTYPE svg PUBLIC "-//W3C//DTD SVG 1.1//EN"
 "http://www.w3.org/Graphics/SVG/1.1/DTD/svg11.dtd">
<!-- Generated by graphviz version 2.26.3 (20100126.1600)
 -->
<!-- Title: inheritance3af1fc917b Pages: 1 -->
<svg width="662pt" height="294pt"
 viewBox="0.00 0.00 662.00 294.00" xmlns="http://www.w3.org/2000/svg" xmlns:xlink="http://www.w3.org/1999/xlink">
<g id="graph1" class="graph" transform="scale(1 1) rotate(0) translate(4 290)">
<title>inheritance3af1fc917b</title>
<polygon fill="white" stroke="white" points="-4,5 -4,-290 659,-290 659,5 -4,5"/>
<!-- lancet.filetypes.SVGFile -->
<g id="node1" class="node"><title>lancet.filetypes.SVGFile</title>
<polygon fill="none" stroke="black" stroke-width="0.5" points="641,-286.5 513,-286.5 513,-265.5 641,-265.5 641,-286.5"/>
<text text-anchor="middle" x="577" y="-273.5" font-family="Vera" font-size="10.00">lancet.filetypes.SVGFile</text>
</g>
<!-- lancet.filetypes.FileType -->
<g id="node2" class="node"><title>lancet.filetypes.FileType</title>
<polygon fill="none" stroke="black" stroke-width="0.5" points="411,-153.5 283,-153.5 283,-132.5 411,-132.5 411,-153.5"/>
<text text-anchor="middle" x="347" y="-140.5" font-family="Vera" font-size="10.00">lancet.filetypes.FileType</text>
</g>
<!-- lancet.filetypes.FileType&#45;&gt;lancet.filetypes.SVGFile -->
<g id="edge2" class="edge"><title>lancet.filetypes.FileType&#45;&gt;lancet.filetypes.SVGFile</title>
<path fill="none" stroke="black" stroke-width="0.5" d="M357.512,-153.252C381.003,-175.58 440.392,-228.855 500,-257 506.052,-259.858 512.582,-262.315 519.191,-264.421"/>
<polygon fill="black" stroke="black" points="518.959,-266.18 524.252,-265.964 519.98,-262.833 518.959,-266.18"/>
</g>
<!-- lancet.filetypes.FileOption -->
<g id="node8" class="node"><title>lancet.filetypes.FileOption</title>
<polygon fill="none" stroke="black" stroke-width="0.5" points="646,-248.5 508,-248.5 508,-227.5 646,-227.5 646,-248.5"/>
<text text-anchor="middle" x="577" y="-235.5" font-family="Vera" font-size="10.00">lancet.filetypes.FileOption</text>
</g>
<!-- lancet.filetypes.FileType&#45;&gt;lancet.filetypes.FileOption -->
<g id="edge6" class="edge"><title>lancet.filetypes.FileType&#45;&gt;lancet.filetypes.FileOption</title>
<path fill="none" stroke="black" stroke-width="0.5" d="M364.341,-153.195C392.139,-169.17 448.764,-200.212 500,-219 507.708,-221.826 516.002,-224.367 524.192,-226.602"/>
<polygon fill="black" stroke="black" points="523.989,-228.358 529.271,-227.953 524.89,-224.976 523.989,-228.358"/>
</g>
<!-- lancet.filetypes.JSONFile -->
<g id="node10" class="node"><title>lancet.filetypes.JSONFile</title>
<polygon fill="none" stroke="black" stroke-width="0.5" points="642,-210.5 512,-210.5 512,-189.5 642,-189.5 642,-210.5"/>
<text text-anchor="middle" x="577" y="-197.5" font-family="Vera" font-size="10.00">lancet.filetypes.JSONFile</text>
</g>
<!-- lancet.filetypes.FileType&#45;&gt;lancet.filetypes.JSONFile -->
<g id="edge8" class="edge"><title>lancet.filetypes.FileType&#45;&gt;lancet.filetypes.JSONFile</title>
<path fill="none" stroke="black" stroke-width="0.5" d="M387.263,-153.018C418.115,-160.689 461.743,-171.529 500,-181 510.108,-183.502 520.963,-186.184 531.242,-188.721"/>
<polygon fill="black" stroke="black" points="530.963,-190.455 536.237,-189.954 531.802,-187.057 530.963,-190.455"/>
</g>
<!-- lancet.filetypes.ImageFile -->
<g id="node12" class="node"><title>lancet.filetypes.ImageFile</title>
<polygon fill="none" stroke="black" stroke-width="0.5" points="645,-172.5 509,-172.5 509,-151.5 645,-151.5 645,-172.5"/>
<text text-anchor="middle" x="577" y="-159.5" font-family="Vera" font-size="10.00">lancet.filetypes.ImageFile</text>
</g>
<!-- lancet.filetypes.FileType&#45;&gt;lancet.filetypes.ImageFile -->
<g id="edge10" class="edge"><title>lancet.filetypes.FileType&#45;&gt;lancet.filetypes.ImageFile</title>
<path fill="none" stroke="black" stroke-width="0.5" d="M411.068,-148.293C439.716,-150.659 473.649,-153.462 503.341,-155.915"/>
<polygon fill="black" stroke="black" points="503.323,-157.669 508.45,-156.337 503.611,-154.181 503.323,-157.669"/>
</g>
<!-- lancet.filetypes.CustomFile -->
<g id="node14" class="node"><title>lancet.filetypes.CustomFile</title>
<polygon fill="none" stroke="black" stroke-width="0.5" points="649,-134.5 505,-134.5 505,-113.5 649,-113.5 649,-134.5"/>
<text text-anchor="middle" x="577" y="-121.5" font-family="Vera" font-size="10.00">lancet.filetypes.CustomFile</text>
</g>
<!-- lancet.filetypes.FileType&#45;&gt;lancet.filetypes.CustomFile -->
<g id="edge12" class="edge"><title>lancet.filetypes.FileType&#45;&gt;lancet.filetypes.CustomFile</title>
<path fill="none" stroke="black" stroke-width="0.5" d="M411.068,-137.707C438.472,-135.444 470.711,-132.78 499.448,-130.406"/>
<polygon fill="black" stroke="black" points="499.932,-132.122 504.771,-129.967 499.644,-128.634 499.932,-132.122"/>
</g>
<!-- lancet.filetypes.MatplotlibFile -->
<g id="node16" class="node"><title>lancet.filetypes.MatplotlibFile</title>
<polygon fill="none" stroke="black" stroke-width="0.5" points="653,-96.5 501,-96.5 501,-75.5 653,-75.5 653,-96.5"/>
<text text-anchor="middle" x="577" y="-83.5" font-family="Vera" font-size="10.00">lancet.filetypes.MatplotlibFile</text>
</g>
<!-- lancet.filetypes.FileType&#45;&gt;lancet.filetypes.MatplotlibFile -->
<g id="edge14" class="edge"><title>lancet.filetypes.FileType&#45;&gt;lancet.filetypes.MatplotlibFile</title>
<path fill="none" stroke="black" stroke-width="0.5" d="M387.263,-132.982C418.115,-125.311 461.743,-114.471 500,-105 510.108,-102.498 520.963,-99.8158 531.242,-97.2787"/>
<polygon fill="black" stroke="black" points="531.802,-98.9433 536.237,-96.0463 530.963,-95.5452 531.802,-98.9433"/>
</g>
<!-- lancet.filetypes.NumpyFile -->
<g id="node22" class="node"><title>lancet.filetypes.NumpyFile</title>
<polygon fill="none" stroke="black" stroke-width="0.5" points="647,-58.5 507,-58.5 507,-37.5 647,-37.5 647,-58.5"/>
<text text-anchor="middle" x="577" y="-45.5" font-family="Vera" font-size="10.00">lancet.filetypes.NumpyFile</text>
</g>
<!-- lancet.filetypes.FileType&#45;&gt;lancet.filetypes.NumpyFile -->
<g id="edge22" class="edge"><title>lancet.filetypes.FileType&#45;&gt;lancet.filetypes.NumpyFile</title>
<path fill="none" stroke="black" stroke-width="0.5" d="M368.238,-132.907C391.759,-121.67 430.752,-102.867 464,-86 480.134,-77.8149 483.092,-73.437 500,-67 507.459,-64.1601 515.489,-61.6321 523.448,-59.4204"/>
<polygon fill="black" stroke="black" points="524.018,-61.0789 528.388,-58.0842 523.105,-57.7003 524.018,-61.0789"/>
</g>
<!-- param.parameterized.ParameterizedFunction -->
<g id="node4" class="node"><title>param.parameterized.ParameterizedFunction</title>
<polygon fill="none" stroke="black" stroke-width="0.5" points="464,-77.5 230,-77.5 230,-56.5 464,-56.5 464,-77.5"/>
<text text-anchor="middle" x="347" y="-64.5" font-family="Vera" font-size="10.00">param.parameterized.ParameterizedFunction</text>
</g>
<!-- lancet.filetypes.ViewFrame -->
<g id="node18" class="node"><title>lancet.filetypes.ViewFrame</title>
<polygon fill="none" stroke="black" stroke-width="0.5" points="648,-20.5 506,-20.5 506,0.5 648,0.5 648,-20.5"/>
<text text-anchor="middle" x="577" y="-7.5" font-family="Vera" font-size="10.00">lancet.filetypes.ViewFrame</text>
</g>
<!-- param.parameterized.ParameterizedFunction&#45;&gt;lancet.filetypes.ViewFrame -->
<g id="edge16" class="edge"><title>param.parameterized.ParameterizedFunction&#45;&gt;lancet.filetypes.ViewFrame</title>
<path fill="none" stroke="black" stroke-width="0.5" d="M387.263,-56.9823C418.115,-49.3105 461.743,-38.4709 500,-29 510.108,-26.4977 520.963,-23.8158 531.242,-21.2787"/>
<polygon fill="black" stroke="black" points="531.802,-22.9433 536.237,-20.0463 530.963,-19.5452 531.802,-22.9433"/>
</g>
<!-- param.parameterized.Parameterized -->
<g id="node5" class="node"><title>param.parameterized.Parameterized</title>
<polygon fill="none" stroke="black" stroke-width="0.5" points="194,-77.5 5.68434e-14,-77.5 0,-56.5 194,-56.5 194,-77.5"/>
<text text-anchor="middle" x="97" y="-64.5" font-family="Vera" font-size="10.00">param.parameterized.Parameterized</text>
</g>
<!-- param.parameterized.Parameterized&#45;&gt;lancet.filetypes.FileType -->
<g id="edge20" class="edge"><title>param.parameterized.Parameterized&#45;&gt;lancet.filetypes.FileType</title>
<path fill="none" stroke="black" stroke-width="0.5" d="M129.94,-77.0138C176.216,-91.0816 260.263,-116.632 309.084,-131.474"/>
<polygon fill="black" stroke="black" points="308.694,-133.184 313.987,-132.964 309.712,-129.835 308.694,-133.184"/>
</g>
<!-- param.parameterized.Parameterized&#45;&gt;param.parameterized.ParameterizedFunction -->
<g id="edge4" class="edge"><title>param.parameterized.Parameterized&#45;&gt;param.parameterized.ParameterizedFunction</title>
<path fill="none" stroke="black" stroke-width="0.5" d="M194.014,-67C204.04,-67 214.319,-67 224.575,-67"/>
<polygon fill="black" stroke="black" points="224.607,-68.7501 229.607,-67 224.607,-65.2501 224.607,-68.7501"/>
</g>
<!-- lancet.core.PrettyPrinted -->
<g id="node7" class="node"><title>lancet.core.PrettyPrinted</title>
<polygon fill="none" stroke="black" stroke-width="0.5" points="164,-153.5 30,-153.5 30,-132.5 164,-132.5 164,-153.5"/>
<text text-anchor="middle" x="97" y="-140.5" font-family="Vera" font-size="10.00">lancet.core.PrettyPrinted</text>
</g>
<!-- lancet.core.PrettyPrinted&#45;&gt;lancet.filetypes.FileType -->
<g id="edge18" class="edge"><title>lancet.core.PrettyPrinted&#45;&gt;lancet.filetypes.FileType</title>
<path fill="none" stroke="black" stroke-width="0.5" d="M164.654,-143C199.662,-143 242.332,-143 277.591,-143"/>
<polygon fill="black" stroke="black" points="277.738,-144.75 282.738,-143 277.738,-141.25 277.738,-144.75"/>
</g>
</g>
</svg>
