<?xml version="1.0" encoding="UTF-8" standalone="no"?>
<!DOCTYPE svg PUBLIC "-//W3C//DTD SVG 1.1//EN"
 "http://www.w3.org/Graphics/SVG/1.1/DTD/svg11.dtd">
<!-- Generated by graphviz version 2.26.3 (20100126.1600)
 -->
<!-- Title: inheritancea72cf0a3c5 Pages: 1 -->
<svg width="1280pt" height="256pt"
 viewBox="0.00 0.00 1280.00 256.00" xmlns="http://www.w3.org/2000/svg" xmlns:xlink="http://www.w3.org/1999/xlink">
<g id="graph1" class="graph" transform="scale(1 1) rotate(0) translate(4 252)">
<title>inheritancea72cf0a3c5</title>
<polygon fill="white" stroke="white" points="-4,5 -4,-252 1277,-252 1277,5 -4,5"/>
<!-- topo.tests.unit.testparameterizedobject_tk.TestTkParameterized -->
<g id="node1" class="node"><title>topo.tests.unit.testparameterizedobject_tk.TestTkParameterized</title>
<polygon fill="none" stroke="black" stroke-width="0.5" points="490,-58 186,-58 186,-38 490,-38 490,-58"/>
<text text-anchor="middle" x="338" y="-45" font-family="Vera" font-size="10.00">topo.tests.unit.testparameterizedobject_tk.TestTkParameterized</text>
</g>
<!-- unittest.case.TestCase -->
<g id="node2" class="node"><title>unittest.case.TestCase</title>
<polygon fill="none" stroke="black" stroke-width="0.5" points="116,-39 4.9738e-14,-39 0,-19 116,-19 116,-39"/>
<text text-anchor="middle" x="58" y="-26" font-family="Vera" font-size="10.00">unittest.case.TestCase</text>
</g>
<!-- unittest.case.TestCase&#45;&gt;topo.tests.unit.testparameterizedobject_tk.TestTkParameterized -->
<g id="edge2" class="edge"><title>unittest.case.TestCase&#45;&gt;topo.tests.unit.testparameterizedobject_tk.TestTkParameterized</title>
<path fill="none" stroke="black" stroke-width="0.5" d="M116.016,-32.9368C136.504,-34.3271 160.609,-35.9627 185.244,-37.6344"/>
<polygon fill="black" stroke="black" points="185.401,-39.399 190.508,-37.9916 185.638,-35.907 185.401,-39.399"/>
</g>
<!-- topo.tests.unit.testparameterizedobject_tk.TestParameterTypeRepresentations -->
<g id="node25" class="node"><title>topo.tests.unit.testparameterizedobject_tk.TestParameterTypeRepresentations</title>
<polygon fill="none" stroke="black" stroke-width="0.5" points="523,-20 153,-20 153,-1.06581e-14 523,-3.55271e-15 523,-20"/>
<text text-anchor="middle" x="338" y="-7" font-family="Vera" font-size="10.00">topo.tests.unit.testparameterizedobject_tk.TestParameterTypeRepresentations</text>
</g>
<!-- unittest.case.TestCase&#45;&gt;topo.tests.unit.testparameterizedobject_tk.TestParameterTypeRepresentations -->
<g id="edge24" class="edge"><title>unittest.case.TestCase&#45;&gt;topo.tests.unit.testparameterizedobject_tk.TestParameterTypeRepresentations</title>
<path fill="none" stroke="black" stroke-width="0.5" d="M116.016,-25.0632C136.504,-23.6729 160.609,-22.0373 185.244,-20.3656"/>
<polygon fill="black" stroke="black" points="185.638,-22.093 190.508,-20.0084 185.401,-18.601 185.638,-22.093"/>
</g>
<!-- paramtk.TkParameterized -->
<g id="node4" class="node"><title>paramtk.TkParameterized</title>
<polygon fill="none" stroke="black" stroke-width="0.5" points="972,-134 838,-134 838,-114 972,-114 972,-134"/>
<text text-anchor="middle" x="905" y="-121" font-family="Vera" font-size="10.00">paramtk.TkParameterized</text>
</g>
<!-- topo.tests.unit.testparameterizedobject_tk.SomeFrame -->
<g id="node7" class="node"><title>topo.tests.unit.testparameterizedobject_tk.SomeFrame</title>
<polygon fill="none" stroke="black" stroke-width="0.5" points="1272,-153 1008,-153 1008,-133 1272,-133 1272,-153"/>
<text text-anchor="middle" x="1140" y="-140" font-family="Vera" font-size="10.00">topo.tests.unit.testparameterizedobject_tk.SomeFrame</text>
</g>
<!-- paramtk.TkParameterized&#45;&gt;topo.tests.unit.testparameterizedobject_tk.SomeFrame -->
<g id="edge6" class="edge"><title>paramtk.TkParameterized&#45;&gt;topo.tests.unit.testparameterizedobject_tk.SomeFrame</title>
<path fill="none" stroke="black" stroke-width="0.5" d="M972.027,-129.419C984.243,-130.407 997.358,-131.467 1010.68,-132.544"/>
<polygon fill="black" stroke="black" points="1010.87,-134.315 1015.99,-132.974 1011.15,-130.826 1010.87,-134.315"/>
</g>
<!-- paramtk.TkParameterizedBase -->
<g id="node5" class="node"><title>paramtk.TkParameterizedBase</title>
<polygon fill="none" stroke="black" stroke-width="0.5" points="758,-134 604,-134 604,-114 758,-114 758,-134"/>
<text text-anchor="middle" x="681" y="-121" font-family="Vera" font-size="10.00">paramtk.TkParameterizedBase</text>
</g>
<!-- paramtk.TkParameterizedBase&#45;&gt;paramtk.TkParameterized -->
<g id="edge4" class="edge"><title>paramtk.TkParameterizedBase&#45;&gt;paramtk.TkParameterized</title>
<path fill="none" stroke="black" stroke-width="0.5" d="M758.716,-124C782.781,-124 809.184,-124 832.856,-124"/>
<polygon fill="black" stroke="black" points="832.864,-125.75 837.864,-124 832.864,-122.25 832.864,-125.75"/>
</g>
<!-- Tkinter.Frame -->
<g id="node9" class="node"><title>Tkinter.Frame</title>
<polygon fill="none" stroke="black" stroke-width="0.5" points="945,-172 865,-172 865,-152 945,-152 945,-172"/>
<text text-anchor="middle" x="905" y="-159" font-family="Vera" font-size="10.00">Tkinter.Frame</text>
</g>
<!-- Tkinter.Frame&#45;&gt;topo.tests.unit.testparameterizedobject_tk.SomeFrame -->
<g id="edge8" class="edge"><title>Tkinter.Frame&#45;&gt;topo.tests.unit.testparameterizedobject_tk.SomeFrame</title>
<path fill="none" stroke="black" stroke-width="0.5" d="M945.666,-158.712C964.246,-157.21 987.391,-155.339 1011.16,-153.417"/>
<polygon fill="black" stroke="black" points="1011.4,-155.153 1016.24,-153.006 1011.12,-151.665 1011.4,-155.153"/>
</g>
<!-- Tkinter.Pack -->
<g id="node11" class="node"><title>Tkinter.Pack</title>
<polygon fill="none" stroke="black" stroke-width="0.5" points="374,-248 302,-248 302,-228 374,-228 374,-248"/>
<text text-anchor="middle" x="338" y="-235" font-family="Vera" font-size="10.00">Tkinter.Pack</text>
</g>
<!-- Tkinter.Widget -->
<g id="node12" class="node"><title>Tkinter.Widget</title>
<polygon fill="none" stroke="black" stroke-width="0.5" points="722,-172 640,-172 640,-152 722,-152 722,-172"/>
<text text-anchor="middle" x="681" y="-159" font-family="Vera" font-size="10.00">Tkinter.Widget</text>
</g>
<!-- Tkinter.Pack&#45;&gt;Tkinter.Widget -->
<g id="edge12" class="edge"><title>Tkinter.Pack&#45;&gt;Tkinter.Widget</title>
<path fill="none" stroke="black" stroke-width="0.5" d="M374.786,-236.91C412.624,-235.17 473.057,-230.661 524,-219 570.955,-208.252 623.078,-187.453 653.891,-174.172"/>
<polygon fill="black" stroke="black" points="654.759,-175.703 658.65,-172.107 653.366,-172.492 654.759,-175.703"/>
</g>
<!-- Tkinter.Widget&#45;&gt;Tkinter.Frame -->
<g id="edge20" class="edge"><title>Tkinter.Widget&#45;&gt;Tkinter.Frame</title>
<path fill="none" stroke="black" stroke-width="0.5" d="M722.608,-162C761.355,-162 819.005,-162 859.082,-162"/>
<polygon fill="black" stroke="black" points="859.37,-163.75 864.37,-162 859.37,-160.25 859.37,-163.75"/>
</g>
<!-- Tkinter.BaseWidget -->
<g id="node13" class="node"><title>Tkinter.BaseWidget</title>
<polygon fill="none" stroke="black" stroke-width="0.5" points="390,-210 286,-210 286,-190 390,-190 390,-210"/>
<text text-anchor="middle" x="338" y="-197" font-family="Vera" font-size="10.00">Tkinter.BaseWidget</text>
</g>
<!-- Tkinter.BaseWidget&#45;&gt;Tkinter.Widget -->
<g id="edge10" class="edge"><title>Tkinter.BaseWidget&#45;&gt;Tkinter.Widget</title>
<path fill="none" stroke="black" stroke-width="0.5" d="M390.541,-194.896C427.81,-191.212 478.998,-186.021 524,-181 561.015,-176.87 602.885,-171.782 634.072,-167.911"/>
<polygon fill="black" stroke="black" points="634.629,-169.605 639.374,-167.252 634.197,-166.132 634.629,-169.605"/>
</g>
<!-- Tkinter.Place -->
<g id="node16" class="node"><title>Tkinter.Place</title>
<polygon fill="none" stroke="black" stroke-width="0.5" points="375,-172 301,-172 301,-152 375,-152 375,-172"/>
<text text-anchor="middle" x="338" y="-159" font-family="Vera" font-size="10.00">Tkinter.Place</text>
</g>
<!-- Tkinter.Place&#45;&gt;Tkinter.Widget -->
<g id="edge14" class="edge"><title>Tkinter.Place&#45;&gt;Tkinter.Widget</title>
<path fill="none" stroke="black" stroke-width="0.5" d="M375.688,-162C438.698,-162 565.271,-162 633.999,-162"/>
<polygon fill="black" stroke="black" points="634.251,-163.75 639.251,-162 634.251,-160.25 634.251,-163.75"/>
</g>
<!-- Tkinter.Grid -->
<g id="node18" class="node"><title>Tkinter.Grid</title>
<polygon fill="none" stroke="black" stroke-width="0.5" points="374,-134 302,-134 302,-114 374,-114 374,-134"/>
<text text-anchor="middle" x="338" y="-121" font-family="Vera" font-size="10.00">Tkinter.Grid</text>
</g>
<!-- Tkinter.Grid&#45;&gt;Tkinter.Widget -->
<g id="edge16" class="edge"><title>Tkinter.Grid&#45;&gt;Tkinter.Widget</title>
<path fill="none" stroke="black" stroke-width="0.5" d="M374.026,-127.479C411.511,-131.147 471.901,-137.187 524,-143 561.015,-147.13 602.885,-152.218 634.072,-156.089"/>
<polygon fill="black" stroke="black" points="634.197,-157.868 639.374,-156.748 634.629,-154.395 634.197,-157.868"/>
</g>
<!-- param.parameterized.Parameterized -->
<g id="node20" class="node"><title>param.parameterized.Parameterized</title>
<polygon fill="none" stroke="black" stroke-width="0.5" points="430,-96 246,-96 246,-76 430,-76 430,-96"/>
<text text-anchor="middle" x="338" y="-83" font-family="Vera" font-size="10.00">param.parameterized.Parameterized</text>
</g>
<!-- param.parameterized.Parameterized&#45;&gt;paramtk.TkParameterizedBase -->
<g id="edge18" class="edge"><title>param.parameterized.Parameterized&#45;&gt;paramtk.TkParameterizedBase</title>
<path fill="none" stroke="black" stroke-width="0.5" d="M430.278,-95.0832C460.191,-98.1194 493.515,-101.599 524,-105 548.073,-107.686 574.201,-110.777 598.107,-113.675"/>
<polygon fill="black" stroke="black" points="597.999,-115.425 603.173,-114.291 598.421,-111.951 597.999,-115.425"/>
</g>
<!-- topo.tests.unit.testparameterizedobject_tk.TestPO -->
<g id="node27" class="node"><title>topo.tests.unit.testparameterizedobject_tk.TestPO</title>
<polygon fill="none" stroke="black" stroke-width="0.5" points="802,-96 560,-96 560,-76 802,-76 802,-96"/>
<text text-anchor="middle" x="681" y="-83" font-family="Vera" font-size="10.00">topo.tests.unit.testparameterizedobject_tk.TestPO</text>
</g>
<!-- param.parameterized.Parameterized&#45;&gt;topo.tests.unit.testparameterizedobject_tk.TestPO -->
<g id="edge26" class="edge"><title>param.parameterized.Parameterized&#45;&gt;topo.tests.unit.testparameterizedobject_tk.TestPO</title>
<path fill="none" stroke="black" stroke-width="0.5" d="M430.369,-86C468.598,-86 513.546,-86 554.743,-86"/>
<polygon fill="black" stroke="black" points="554.748,-87.7501 559.748,-86 554.748,-84.2501 554.748,-87.7501"/>
</g>
<!-- Tkinter.Misc -->
<g id="node23" class="node"><title>Tkinter.Misc</title>
<polygon fill="none" stroke="black" stroke-width="0.5" points="94,-210 22,-210 22,-190 94,-190 94,-210"/>
<text text-anchor="middle" x="58" y="-197" font-family="Vera" font-size="10.00">Tkinter.Misc</text>
</g>
<!-- Tkinter.Misc&#45;&gt;Tkinter.BaseWidget -->
<g id="edge22" class="edge"><title>Tkinter.Misc&#45;&gt;Tkinter.BaseWidget</title>
<path fill="none" stroke="black" stroke-width="0.5" d="M94.6051,-200C141.779,-200 224.341,-200 280.075,-200"/>
<polygon fill="black" stroke="black" points="280.383,-201.75 285.383,-200 280.383,-198.25 280.383,-201.75"/>
</g>
</g>
</svg>
