<?xml version="1.0" encoding="UTF-8" standalone="no"?>
<!DOCTYPE svg PUBLIC "-//W3C//DTD SVG 1.1//EN"
 "http://www.w3.org/Graphics/SVG/1.1/DTD/svg11.dtd">
<!-- Generated by graphviz version 2.26.3 (20100126.1600)
 -->
<!-- Title: inheritancef707512bf8 Pages: 1 -->
<svg width="620pt" height="104pt"
 viewBox="0.00 0.00 620.00 104.00" xmlns="http://www.w3.org/2000/svg" xmlns:xlink="http://www.w3.org/1999/xlink">
<g id="graph1" class="graph" transform="scale(1 1) rotate(0) translate(4 100)">
<title>inheritancef707512bf8</title>
<polygon fill="white" stroke="white" points="-4,5 -4,-100 617,-100 617,5 -4,5"/>
<!-- unittest.case.TestCase -->
<g id="node1" class="node"><title>unittest.case.TestCase</title>
<polygon fill="none" stroke="black" stroke-width="0.5" points="125,-58.5 1,-58.5 1,-37.5 125,-37.5 125,-58.5"/>
<text text-anchor="middle" x="63" y="-45.5" font-family="Vera" font-size="10.00">unittest.case.TestCase</text>
</g>
<!-- dataviews.test.testviews.AnnotationTest -->
<g id="node2" class="node"><title>dataviews.test.testviews.AnnotationTest</title>
<polygon fill="none" stroke="black" stroke-width="0.5" points="369,-96.5 163,-96.5 163,-75.5 369,-75.5 369,-96.5"/>
<text text-anchor="middle" x="266" y="-83.5" font-family="Vera" font-size="10.00">dataviews.test.testviews.AnnotationTest</text>
</g>
<!-- unittest.case.TestCase&#45;&gt;dataviews.test.testviews.AnnotationTest -->
<g id="edge2" class="edge"><title>unittest.case.TestCase&#45;&gt;dataviews.test.testviews.AnnotationTest</title>
<path fill="none" stroke="black" stroke-width="0.5" d="M114.878,-58.0466C130.06,-60.9623 146.69,-64.1324 162,-67 176.059,-69.6333 191.196,-72.424 205.452,-75.0324"/>
<polygon fill="black" stroke="black" points="205.427,-76.8068 210.66,-75.9844 206.057,-73.3638 205.427,-76.8068"/>
</g>
<!-- dataviews.test.testviews.CompositeTest -->
<g id="node5" class="node"><title>dataviews.test.testviews.CompositeTest</title>
<polygon fill="none" stroke="black" stroke-width="0.5" points="369,-58.5 163,-58.5 163,-37.5 369,-37.5 369,-58.5"/>
<text text-anchor="middle" x="266" y="-45.5" font-family="Vera" font-size="10.00">dataviews.test.testviews.CompositeTest</text>
</g>
<!-- unittest.case.TestCase&#45;&gt;dataviews.test.testviews.CompositeTest -->
<g id="edge10" class="edge"><title>unittest.case.TestCase&#45;&gt;dataviews.test.testviews.CompositeTest</title>
<path fill="none" stroke="black" stroke-width="0.5" d="M125.563,-48C135.868,-48 146.803,-48 157.844,-48"/>
<polygon fill="black" stroke="black" points="157.923,-49.7501 162.923,-48 157.923,-46.2501 157.923,-49.7501"/>
</g>
<!-- dataviews.test.testviews.ViewTest -->
<g id="node7" class="node"><title>dataviews.test.testviews.ViewTest</title>
<polygon fill="none" stroke="black" stroke-width="0.5" points="354,-20.5 178,-20.5 178,0.5 354,0.5 354,-20.5"/>
<text text-anchor="middle" x="266" y="-7.5" font-family="Vera" font-size="10.00">dataviews.test.testviews.ViewTest</text>
</g>
<!-- unittest.case.TestCase&#45;&gt;dataviews.test.testviews.ViewTest -->
<g id="edge6" class="edge"><title>unittest.case.TestCase&#45;&gt;dataviews.test.testviews.ViewTest</title>
<path fill="none" stroke="black" stroke-width="0.5" d="M114.878,-37.9534C130.06,-35.0377 146.69,-31.8676 162,-29 176.059,-26.3667 191.196,-23.576 205.452,-20.9676"/>
<polygon fill="black" stroke="black" points="206.057,-22.6362 210.66,-20.0156 205.427,-19.1932 206.057,-22.6362"/>
</g>
<!-- dataviews.test.testviews.GridLayoutTest -->
<g id="node4" class="node"><title>dataviews.test.testviews.GridLayoutTest</title>
<polygon fill="none" stroke="black" stroke-width="0.5" points="612,-96.5 406,-96.5 406,-75.5 612,-75.5 612,-96.5"/>
<text text-anchor="middle" x="509" y="-83.5" font-family="Vera" font-size="10.00">dataviews.test.testviews.GridLayoutTest</text>
</g>
<!-- dataviews.test.testviews.CompositeTest&#45;&gt;dataviews.test.testviews.GridLayoutTest -->
<g id="edge4" class="edge"><title>dataviews.test.testviews.CompositeTest&#45;&gt;dataviews.test.testviews.GridLayoutTest</title>
<path fill="none" stroke="black" stroke-width="0.5" d="M330.163,-58.0338C363.937,-63.3152 405.379,-69.796 439.863,-75.1885"/>
<polygon fill="black" stroke="black" points="439.688,-76.9324 444.899,-75.976 440.229,-73.4744 439.688,-76.9324"/>
</g>
<!-- dataviews.test.testviews.OverlayTest -->
<g id="node9" class="node"><title>dataviews.test.testviews.OverlayTest</title>
<polygon fill="none" stroke="black" stroke-width="0.5" points="604,-58.5 414,-58.5 414,-37.5 604,-37.5 604,-58.5"/>
<text text-anchor="middle" x="509" y="-45.5" font-family="Vera" font-size="10.00">dataviews.test.testviews.OverlayTest</text>
</g>
<!-- dataviews.test.testviews.CompositeTest&#45;&gt;dataviews.test.testviews.OverlayTest -->
<g id="edge8" class="edge"><title>dataviews.test.testviews.CompositeTest&#45;&gt;dataviews.test.testviews.OverlayTest</title>
<path fill="none" stroke="black" stroke-width="0.5" d="M369.054,-48C381.958,-48 395.146,-48 408.018,-48"/>
<polygon fill="black" stroke="black" points="408.126,-49.7501 413.126,-48 408.126,-46.2501 408.126,-49.7501"/>
</g>
<!-- dataviews.test.testviews.LayoutTest -->
<g id="node12" class="node"><title>dataviews.test.testviews.LayoutTest</title>
<polygon fill="none" stroke="black" stroke-width="0.5" points="602,-20.5 416,-20.5 416,0.5 602,0.5 602,-20.5"/>
<text text-anchor="middle" x="509" y="-7.5" font-family="Vera" font-size="10.00">dataviews.test.testviews.LayoutTest</text>
</g>
<!-- dataviews.test.testviews.CompositeTest&#45;&gt;dataviews.test.testviews.LayoutTest -->
<g id="edge12" class="edge"><title>dataviews.test.testviews.CompositeTest&#45;&gt;dataviews.test.testviews.LayoutTest</title>
<path fill="none" stroke="black" stroke-width="0.5" d="M330.163,-37.9662C363.937,-32.6848 405.379,-26.204 439.863,-20.8115"/>
<polygon fill="black" stroke="black" points="440.229,-22.5256 444.899,-20.024 439.688,-19.0676 440.229,-22.5256"/>
</g>
</g>
</svg>
