<?xml version="1.0" encoding="UTF-8" standalone="no"?>
<!DOCTYPE svg PUBLIC "-//W3C//DTD SVG 1.1//EN"
 "http://www.w3.org/Graphics/SVG/1.1/DTD/svg11.dtd">
<!-- Generated by graphviz version 2.26.3 (20100126.1600)
 -->
<!-- Title: inheritancee3a8736439 Pages: 1 -->
<svg width="1172pt" height="180pt"
 viewBox="0.00 0.00 1172.00 180.00" xmlns="http://www.w3.org/2000/svg" xmlns:xlink="http://www.w3.org/1999/xlink">
<g id="graph1" class="graph" transform="scale(1 1) rotate(0) translate(4 176)">
<title>inheritancee3a8736439</title>
<polygon fill="white" stroke="white" points="-4,5 -4,-176 1169,-176 1169,5 -4,5"/>
<!-- Tkinter.Widget -->
<g id="node1" class="node"><title>Tkinter.Widget</title>
<polygon fill="none" stroke="black" stroke-width="0.5" points="461,-96.5 379,-96.5 379,-75.5 461,-75.5 461,-96.5"/>
<text text-anchor="middle" x="420" y="-83.5" font-family="Vera" font-size="10.00">Tkinter.Widget</text>
</g>
<!-- Tkinter.Frame -->
<g id="node14" class="node"><title>Tkinter.Frame</title>
<polygon fill="none" stroke="black" stroke-width="0.5" points="648,-101.5 568,-101.5 568,-80.5 648,-80.5 648,-101.5"/>
<text text-anchor="middle" x="608" y="-88.5" font-family="Vera" font-size="10.00">Tkinter.Frame</text>
</g>
<!-- Tkinter.Widget&#45;&gt;Tkinter.Frame -->
<g id="edge12" class="edge"><title>Tkinter.Widget&#45;&gt;Tkinter.Frame</title>
<path fill="none" stroke="black" stroke-width="0.5" d="M461.723,-87.1097C491.481,-87.9011 531.488,-88.9651 562.14,-89.7803"/>
<polygon fill="black" stroke="black" points="562.318,-91.5356 567.362,-89.9192 562.411,-88.0368 562.318,-91.5356"/>
</g>
<!-- Tkinter.BaseWidget -->
<g id="node2" class="node"><title>Tkinter.BaseWidget</title>
<polygon fill="none" stroke="black" stroke-width="0.5" points="258,-134.5 152,-134.5 152,-113.5 258,-113.5 258,-134.5"/>
<text text-anchor="middle" x="205" y="-121.5" font-family="Vera" font-size="10.00">Tkinter.BaseWidget</text>
</g>
<!-- Tkinter.BaseWidget&#45;&gt;Tkinter.Widget -->
<g id="edge2" class="edge"><title>Tkinter.BaseWidget&#45;&gt;Tkinter.Widget</title>
<path fill="none" stroke="black" stroke-width="0.5" d="M258.699,-114.509C293.881,-108.291 339.423,-100.242 373.138,-94.2826"/>
<polygon fill="black" stroke="black" points="373.825,-95.9383 378.444,-93.3447 373.216,-92.4917 373.825,-95.9383"/>
</g>
<!-- Tkinter.Pack -->
<g id="node4" class="node"><title>Tkinter.Pack</title>
<polygon fill="none" stroke="black" stroke-width="0.5" points="241,-96.5 169,-96.5 169,-75.5 241,-75.5 241,-96.5"/>
<text text-anchor="middle" x="205" y="-83.5" font-family="Vera" font-size="10.00">Tkinter.Pack</text>
</g>
<!-- Tkinter.Pack&#45;&gt;Tkinter.Widget -->
<g id="edge4" class="edge"><title>Tkinter.Pack&#45;&gt;Tkinter.Widget</title>
<path fill="none" stroke="black" stroke-width="0.5" d="M241.96,-86C278.269,-86 333.801,-86 373.179,-86"/>
<polygon fill="black" stroke="black" points="373.383,-87.7501 378.383,-86 373.383,-84.2501 373.383,-87.7501"/>
</g>
<!-- Tkinter.Place -->
<g id="node6" class="node"><title>Tkinter.Place</title>
<polygon fill="none" stroke="black" stroke-width="0.5" points="243,-58.5 167,-58.5 167,-37.5 243,-37.5 243,-58.5"/>
<text text-anchor="middle" x="205" y="-45.5" font-family="Vera" font-size="10.00">Tkinter.Place</text>
</g>
<!-- Tkinter.Place&#45;&gt;Tkinter.Widget -->
<g id="edge6" class="edge"><title>Tkinter.Place&#45;&gt;Tkinter.Widget</title>
<path fill="none" stroke="black" stroke-width="0.5" d="M243.935,-54.8815C280.299,-61.3087 334.629,-70.9112 373.308,-77.7475"/>
<polygon fill="black" stroke="black" points="373.192,-79.504 378.42,-78.6511 373.801,-76.0574 373.192,-79.504"/>
</g>
<!-- Tkinter.Grid -->
<g id="node8" class="node"><title>Tkinter.Grid</title>
<polygon fill="none" stroke="black" stroke-width="0.5" points="240,-20.5 170,-20.5 170,0.5 240,0.5 240,-20.5"/>
<text text-anchor="middle" x="205" y="-7.5" font-family="Vera" font-size="10.00">Tkinter.Grid</text>
</g>
<!-- Tkinter.Grid&#45;&gt;Tkinter.Widget -->
<g id="edge8" class="edge"><title>Tkinter.Grid&#45;&gt;Tkinter.Widget</title>
<path fill="none" stroke="black" stroke-width="0.5" d="M240.582,-14.7264C259.178,-17.7549 282.139,-22.3804 302,-29 337.006,-40.6672 375.019,-60.4296 398.178,-73.3469"/>
<polygon fill="black" stroke="black" points="397.39,-74.9115 402.607,-75.8347 399.105,-71.86 397.39,-74.9115"/>
</g>
<!-- param.parameterized.Parameterized -->
<g id="node10" class="node"><title>param.parameterized.Parameterized</title>
<polygon fill="none" stroke="black" stroke-width="0.5" points="302,-172.5 108,-172.5 108,-151.5 302,-151.5 302,-172.5"/>
<text text-anchor="middle" x="205" y="-159.5" font-family="Vera" font-size="10.00">param.parameterized.Parameterized</text>
</g>
<!-- paramtk.TkParameterizedBase -->
<g id="node12" class="node"><title>paramtk.TkParameterizedBase</title>
<polygon fill="none" stroke="black" stroke-width="0.5" points="502,-167.5 338,-167.5 338,-146.5 502,-146.5 502,-167.5"/>
<text text-anchor="middle" x="420" y="-154.5" font-family="Vera" font-size="10.00">paramtk.TkParameterizedBase</text>
</g>
<!-- param.parameterized.Parameterized&#45;&gt;paramtk.TkParameterizedBase -->
<g id="edge18" class="edge"><title>param.parameterized.Parameterized&#45;&gt;paramtk.TkParameterizedBase</title>
<path fill="none" stroke="black" stroke-width="0.5" d="M302.121,-159.741C312.261,-159.506 322.525,-159.267 332.548,-159.034"/>
<polygon fill="black" stroke="black" points="332.808,-160.778 337.766,-158.912 332.726,-157.279 332.808,-160.778"/>
</g>
<!-- paramtk.TkParameterized -->
<g id="node11" class="node"><title>paramtk.TkParameterized</title>
<polygon fill="none" stroke="black" stroke-width="0.5" points="678,-148.5 538,-148.5 538,-127.5 678,-127.5 678,-148.5"/>
<text text-anchor="middle" x="608" y="-135.5" font-family="Vera" font-size="10.00">paramtk.TkParameterized</text>
</g>
<!-- topo.tkgui.plotgrouppanel.PlotGroupPanel -->
<g id="node16" class="node"><title>topo.tkgui.plotgrouppanel.PlotGroupPanel</title>
<polygon fill="none" stroke="black" stroke-width="0.5" points="929,-124.5 715,-124.5 715,-103.5 929,-103.5 929,-124.5"/>
<text text-anchor="middle" x="822" y="-111.5" font-family="Vera" font-size="10.00">topo.tkgui.plotgrouppanel.PlotGroupPanel</text>
</g>
<!-- paramtk.TkParameterized&#45;&gt;topo.tkgui.plotgrouppanel.PlotGroupPanel -->
<g id="edge14" class="edge"><title>paramtk.TkParameterized&#45;&gt;topo.tkgui.plotgrouppanel.PlotGroupPanel</title>
<path fill="none" stroke="black" stroke-width="0.5" d="M678.072,-130.142C693.869,-128.37 710.89,-126.461 727.503,-124.598"/>
<polygon fill="black" stroke="black" points="727.871,-126.318 732.644,-124.021 727.48,-122.839 727.871,-126.318"/>
</g>
<!-- paramtk.TkParameterizedBase&#45;&gt;paramtk.TkParameterized -->
<g id="edge10" class="edge"><title>paramtk.TkParameterizedBase&#45;&gt;paramtk.TkParameterized</title>
<path fill="none" stroke="black" stroke-width="0.5" d="M502.186,-148.694C512.283,-147.674 522.564,-146.634 532.554,-145.625"/>
<polygon fill="black" stroke="black" points="532.951,-147.344 537.749,-145.1 532.599,-143.862 532.951,-147.344"/>
</g>
<!-- Tkinter.Frame&#45;&gt;topo.tkgui.plotgrouppanel.PlotGroupPanel -->
<g id="edge16" class="edge"><title>Tkinter.Frame&#45;&gt;topo.tkgui.plotgrouppanel.PlotGroupPanel</title>
<path fill="none" stroke="black" stroke-width="0.5" d="M648.503,-95.3532C669.86,-97.6485 697.073,-100.573 723.579,-103.422"/>
<polygon fill="black" stroke="black" points="723.71,-105.196 728.868,-103.991 724.084,-101.716 723.71,-105.196"/>
</g>
<!-- topo.tkgui.plotgrouppanel.SheetPanel -->
<g id="node20" class="node"><title>topo.tkgui.plotgrouppanel.SheetPanel</title>
<polygon fill="none" stroke="black" stroke-width="0.5" points="1163,-124.5 967,-124.5 967,-103.5 1163,-103.5 1163,-124.5"/>
<text text-anchor="middle" x="1065" y="-111.5" font-family="Vera" font-size="10.00">topo.tkgui.plotgrouppanel.SheetPanel</text>
</g>
<!-- topo.tkgui.plotgrouppanel.PlotGroupPanel&#45;&gt;topo.tkgui.plotgrouppanel.SheetPanel -->
<g id="edge20" class="edge"><title>topo.tkgui.plotgrouppanel.PlotGroupPanel&#45;&gt;topo.tkgui.plotgrouppanel.SheetPanel</title>
<path fill="none" stroke="black" stroke-width="0.5" d="M929.645,-114C940.118,-114 950.73,-114 961.165,-114"/>
<polygon fill="black" stroke="black" points="961.272,-115.75 966.272,-114 961.272,-112.25 961.272,-115.75"/>
</g>
<!-- Tkinter.Misc -->
<g id="node22" class="node"><title>Tkinter.Misc</title>
<polygon fill="none" stroke="black" stroke-width="0.5" points="72,-134.5 2.84217e-14,-134.5 0,-113.5 72,-113.5 72,-134.5"/>
<text text-anchor="middle" x="36" y="-121.5" font-family="Vera" font-size="10.00">Tkinter.Misc</text>
</g>
<!-- Tkinter.Misc&#45;&gt;Tkinter.BaseWidget -->
<g id="edge22" class="edge"><title>Tkinter.Misc&#45;&gt;Tkinter.BaseWidget</title>
<path fill="none" stroke="black" stroke-width="0.5" d="M72.2547,-124C93.805,-124 121.651,-124 146.27,-124"/>
<polygon fill="black" stroke="black" points="146.471,-125.75 151.471,-124 146.471,-122.25 146.471,-125.75"/>
</g>
</g>
</svg>
