<?xml version="1.0" encoding="UTF-8" standalone="no"?>
<!DOCTYPE svg PUBLIC "-//W3C//DTD SVG 1.1//EN"
 "http://www.w3.org/Graphics/SVG/1.1/DTD/svg11.dtd">
<!-- Generated by graphviz version 2.26.3 (20100126.1600)
 -->
<!-- Title: inheritance52f2812edd Pages: 1 -->
<svg width="1474pt" height="180pt"
 viewBox="0.00 0.00 1474.00 180.00" xmlns="http://www.w3.org/2000/svg" xmlns:xlink="http://www.w3.org/1999/xlink">
<g id="graph1" class="graph" transform="scale(1 1) rotate(0) translate(4 176)">
<title>inheritance52f2812edd</title>
<polygon fill="white" stroke="white" points="-4,5 -4,-176 1471,-176 1471,5 -4,5"/>
<!-- Tkinter.Widget -->
<g id="node1" class="node"><title>Tkinter.Widget</title>
<polygon fill="none" stroke="black" stroke-width="0.5" points="467,-96.5 385,-96.5 385,-75.5 467,-75.5 467,-96.5"/>
<text text-anchor="middle" x="426" y="-83.5" font-family="Vera" font-size="10.00">Tkinter.Widget</text>
</g>
<!-- Tkinter.Frame -->
<g id="node16" class="node"><title>Tkinter.Frame</title>
<polygon fill="none" stroke="black" stroke-width="0.5" points="693,-96.5 613,-96.5 613,-75.5 693,-75.5 693,-96.5"/>
<text text-anchor="middle" x="653" y="-83.5" font-family="Vera" font-size="10.00">Tkinter.Frame</text>
</g>
<!-- Tkinter.Widget&#45;&gt;Tkinter.Frame -->
<g id="edge14" class="edge"><title>Tkinter.Widget&#45;&gt;Tkinter.Frame</title>
<path fill="none" stroke="black" stroke-width="0.5" d="M467.635,-86C507.078,-86 566.192,-86 607.009,-86"/>
<polygon fill="black" stroke="black" points="607.392,-87.7501 612.392,-86 607.392,-84.2501 607.392,-87.7501"/>
</g>
<!-- Tkinter.BaseWidget -->
<g id="node2" class="node"><title>Tkinter.BaseWidget</title>
<polygon fill="none" stroke="black" stroke-width="0.5" points="258,-134.5 152,-134.5 152,-113.5 258,-113.5 258,-134.5"/>
<text text-anchor="middle" x="205" y="-121.5" font-family="Vera" font-size="10.00">Tkinter.BaseWidget</text>
</g>
<!-- Tkinter.BaseWidget&#45;&gt;Tkinter.Widget -->
<g id="edge2" class="edge"><title>Tkinter.BaseWidget&#45;&gt;Tkinter.Widget</title>
<path fill="none" stroke="black" stroke-width="0.5" d="M258.78,-114.753C295.557,-108.429 343.834,-100.128 379.057,-94.0716"/>
<polygon fill="black" stroke="black" points="379.525,-95.7669 384.157,-93.1948 378.932,-92.3175 379.525,-95.7669"/>
</g>
<!-- Tkinter.Pack -->
<g id="node4" class="node"><title>Tkinter.Pack</title>
<polygon fill="none" stroke="black" stroke-width="0.5" points="241,-96.5 169,-96.5 169,-75.5 241,-75.5 241,-96.5"/>
<text text-anchor="middle" x="205" y="-83.5" font-family="Vera" font-size="10.00">Tkinter.Pack</text>
</g>
<!-- Tkinter.Pack&#45;&gt;Tkinter.Widget -->
<g id="edge4" class="edge"><title>Tkinter.Pack&#45;&gt;Tkinter.Widget</title>
<path fill="none" stroke="black" stroke-width="0.5" d="M241.99,-86C279.622,-86 338.069,-86 378.968,-86"/>
<polygon fill="black" stroke="black" points="379.367,-87.7501 384.367,-86 379.367,-84.2501 379.367,-87.7501"/>
</g>
<!-- Tkinter.Place -->
<g id="node6" class="node"><title>Tkinter.Place</title>
<polygon fill="none" stroke="black" stroke-width="0.5" points="243,-58.5 167,-58.5 167,-37.5 243,-37.5 243,-58.5"/>
<text text-anchor="middle" x="205" y="-45.5" font-family="Vera" font-size="10.00">Tkinter.Place</text>
</g>
<!-- Tkinter.Place&#45;&gt;Tkinter.Widget -->
<g id="edge6" class="edge"><title>Tkinter.Place&#45;&gt;Tkinter.Widget</title>
<path fill="none" stroke="black" stroke-width="0.5" d="M243.748,-54.6626C281.423,-61.1406 338.702,-70.9895 378.969,-77.9132"/>
<polygon fill="black" stroke="black" points="379.062,-79.7049 384.287,-78.8275 379.655,-76.2555 379.062,-79.7049"/>
</g>
<!-- Tkinter.Grid -->
<g id="node8" class="node"><title>Tkinter.Grid</title>
<polygon fill="none" stroke="black" stroke-width="0.5" points="240,-20.5 170,-20.5 170,0.5 240,0.5 240,-20.5"/>
<text text-anchor="middle" x="205" y="-7.5" font-family="Vera" font-size="10.00">Tkinter.Grid</text>
</g>
<!-- Tkinter.Grid&#45;&gt;Tkinter.Widget -->
<g id="edge8" class="edge"><title>Tkinter.Grid&#45;&gt;Tkinter.Widget</title>
<path fill="none" stroke="black" stroke-width="0.5" d="M240.531,-14.8827C259.112,-17.9541 282.076,-22.5706 302,-29 338.571,-40.8013 378.574,-60.5279 402.982,-73.401"/>
<polygon fill="black" stroke="black" points="402.413,-75.0803 407.65,-75.8798 404.055,-71.9891 402.413,-75.0803"/>
</g>
<!-- topo.plotting.plotgroup.SheetPlotGroup -->
<g id="node10" class="node"><title>topo.plotting.plotgroup.SheetPlotGroup</title>
<polygon fill="none" stroke="black" stroke-width="0.5" points="755,-172.5 551,-172.5 551,-151.5 755,-151.5 755,-172.5"/>
<text text-anchor="middle" x="653" y="-159.5" font-family="Vera" font-size="10.00">topo.plotting.plotgroup.SheetPlotGroup</text>
</g>
<!-- topo.tkgui.testpattern.TestPatternPlotGroup -->
<g id="node28" class="node"><title>topo.tkgui.testpattern.TestPatternPlotGroup</title>
<polygon fill="none" stroke="black" stroke-width="0.5" points="1017,-172.5 793,-172.5 793,-151.5 1017,-151.5 1017,-172.5"/>
<text text-anchor="middle" x="905" y="-159.5" font-family="Vera" font-size="10.00">topo.tkgui.testpattern.TestPatternPlotGroup</text>
</g>
<!-- topo.plotting.plotgroup.SheetPlotGroup&#45;&gt;topo.tkgui.testpattern.TestPatternPlotGroup -->
<g id="edge28" class="edge"><title>topo.plotting.plotgroup.SheetPlotGroup&#45;&gt;topo.tkgui.testpattern.TestPatternPlotGroup</title>
<path fill="none" stroke="black" stroke-width="0.5" d="M755.862,-162C766.154,-162 776.659,-162 787.09,-162"/>
<polygon fill="black" stroke="black" points="787.204,-163.75 792.204,-162 787.204,-160.25 787.204,-163.75"/>
</g>
<!-- topo.plotting.plotgroup.PlotGroup -->
<g id="node11" class="node"><title>topo.plotting.plotgroup.PlotGroup</title>
<polygon fill="none" stroke="black" stroke-width="0.5" points="514,-172.5 338,-172.5 338,-151.5 514,-151.5 514,-172.5"/>
<text text-anchor="middle" x="426" y="-159.5" font-family="Vera" font-size="10.00">topo.plotting.plotgroup.PlotGroup</text>
</g>
<!-- topo.plotting.plotgroup.PlotGroup&#45;&gt;topo.plotting.plotgroup.SheetPlotGroup -->
<g id="edge10" class="edge"><title>topo.plotting.plotgroup.PlotGroup&#45;&gt;topo.plotting.plotgroup.SheetPlotGroup</title>
<path fill="none" stroke="black" stroke-width="0.5" d="M514.089,-162C524.264,-162 534.725,-162 545.124,-162"/>
<polygon fill="black" stroke="black" points="545.222,-163.75 550.222,-162 545.222,-160.25 545.222,-163.75"/>
</g>
<!-- paramtk.TkParameterized -->
<g id="node13" class="node"><title>paramtk.TkParameterized</title>
<polygon fill="none" stroke="black" stroke-width="0.5" points="723,-134.5 583,-134.5 583,-113.5 723,-113.5 723,-134.5"/>
<text text-anchor="middle" x="653" y="-121.5" font-family="Vera" font-size="10.00">paramtk.TkParameterized</text>
</g>
<!-- topo.tkgui.plotgrouppanel.PlotGroupPanel -->
<g id="node18" class="node"><title>topo.tkgui.plotgrouppanel.PlotGroupPanel</title>
<polygon fill="none" stroke="black" stroke-width="0.5" points="1012,-115.5 798,-115.5 798,-94.5 1012,-94.5 1012,-115.5"/>
<text text-anchor="middle" x="905" y="-102.5" font-family="Vera" font-size="10.00">topo.tkgui.plotgrouppanel.PlotGroupPanel</text>
</g>
<!-- paramtk.TkParameterized&#45;&gt;topo.tkgui.plotgrouppanel.PlotGroupPanel -->
<g id="edge16" class="edge"><title>paramtk.TkParameterized&#45;&gt;topo.tkgui.plotgrouppanel.PlotGroupPanel</title>
<path fill="none" stroke="black" stroke-width="0.5" d="M723.196,-118.707C744.678,-117.088 768.872,-115.264 792.433,-113.487"/>
<polygon fill="black" stroke="black" points="792.596,-115.23 797.45,-113.109 792.332,-111.74 792.596,-115.23"/>
</g>
<!-- paramtk.TkParameterizedBase -->
<g id="node14" class="node"><title>paramtk.TkParameterizedBase</title>
<polygon fill="none" stroke="black" stroke-width="0.5" points="508,-134.5 344,-134.5 344,-113.5 508,-113.5 508,-134.5"/>
<text text-anchor="middle" x="426" y="-121.5" font-family="Vera" font-size="10.00">paramtk.TkParameterizedBase</text>
</g>
<!-- paramtk.TkParameterizedBase&#45;&gt;paramtk.TkParameterized -->
<g id="edge12" class="edge"><title>paramtk.TkParameterizedBase&#45;&gt;paramtk.TkParameterized</title>
<path fill="none" stroke="black" stroke-width="0.5" d="M508.273,-124C531.04,-124 555.624,-124 577.955,-124"/>
<polygon fill="black" stroke="black" points="577.982,-125.75 582.982,-124 577.982,-122.25 577.982,-125.75"/>
</g>
<!-- Tkinter.Frame&#45;&gt;topo.tkgui.plotgrouppanel.PlotGroupPanel -->
<g id="edge18" class="edge"><title>Tkinter.Frame&#45;&gt;topo.tkgui.plotgrouppanel.PlotGroupPanel</title>
<path fill="none" stroke="black" stroke-width="0.5" d="M693.768,-89.0738C720.588,-91.0959 757.106,-93.8493 792.237,-96.498"/>
<polygon fill="black" stroke="black" points="792.291,-98.257 797.408,-96.8879 792.554,-94.7669 792.291,-98.257"/>
</g>
<!-- topo.tkgui.plotgrouppanel.SheetPanel -->
<g id="node24" class="node"><title>topo.tkgui.plotgrouppanel.SheetPanel</title>
<polygon fill="none" stroke="black" stroke-width="0.5" points="1251,-115.5 1055,-115.5 1055,-94.5 1251,-94.5 1251,-115.5"/>
<text text-anchor="middle" x="1153" y="-102.5" font-family="Vera" font-size="10.00">topo.tkgui.plotgrouppanel.SheetPanel</text>
</g>
<!-- topo.tkgui.plotgrouppanel.PlotGroupPanel&#45;&gt;topo.tkgui.plotgrouppanel.SheetPanel -->
<g id="edge24" class="edge"><title>topo.tkgui.plotgrouppanel.PlotGroupPanel&#45;&gt;topo.tkgui.plotgrouppanel.SheetPanel</title>
<path fill="none" stroke="black" stroke-width="0.5" d="M1012.69,-105C1024.82,-105 1037.15,-105 1049.23,-105"/>
<polygon fill="black" stroke="black" points="1049.38,-106.75 1054.38,-105 1049.38,-103.25 1049.38,-106.75"/>
</g>
<!-- param.parameterized.Parameterized -->
<g id="node21" class="node"><title>param.parameterized.Parameterized</title>
<polygon fill="none" stroke="black" stroke-width="0.5" points="302,-172.5 108,-172.5 108,-151.5 302,-151.5 302,-172.5"/>
<text text-anchor="middle" x="205" y="-159.5" font-family="Vera" font-size="10.00">param.parameterized.Parameterized</text>
</g>
<!-- param.parameterized.Parameterized&#45;&gt;topo.plotting.plotgroup.PlotGroup -->
<g id="edge26" class="edge"><title>param.parameterized.Parameterized&#45;&gt;topo.plotting.plotgroup.PlotGroup</title>
<path fill="none" stroke="black" stroke-width="0.5" d="M302.255,-162C312.314,-162 322.521,-162 332.537,-162"/>
<polygon fill="black" stroke="black" points="332.756,-163.75 337.756,-162 332.756,-160.25 332.756,-163.75"/>
</g>
<!-- param.parameterized.Parameterized&#45;&gt;paramtk.TkParameterizedBase -->
<g id="edge20" class="edge"><title>param.parameterized.Parameterized&#45;&gt;paramtk.TkParameterizedBase</title>
<path fill="none" stroke="black" stroke-width="0.5" d="M263.354,-151.966C293.944,-146.706 331.452,-140.257 362.737,-134.878"/>
<polygon fill="black" stroke="black" points="363.071,-136.596 367.702,-134.024 362.478,-133.147 363.071,-136.596"/>
</g>
<!-- topo.tkgui.testpattern.TestPattern -->
<g id="node23" class="node"><title>topo.tkgui.testpattern.TestPattern</title>
<polygon fill="none" stroke="black" stroke-width="0.5" points="1466,-115.5 1288,-115.5 1288,-94.5 1466,-94.5 1466,-115.5"/>
<text text-anchor="middle" x="1377" y="-102.5" font-family="Vera" font-size="10.00">topo.tkgui.testpattern.TestPattern</text>
</g>
<!-- topo.tkgui.plotgrouppanel.SheetPanel&#45;&gt;topo.tkgui.testpattern.TestPattern -->
<g id="edge22" class="edge"><title>topo.tkgui.plotgrouppanel.SheetPanel&#45;&gt;topo.tkgui.testpattern.TestPattern</title>
<path fill="none" stroke="black" stroke-width="0.5" d="M1251.58,-105C1261.97,-105 1272.51,-105 1282.85,-105"/>
<polygon fill="black" stroke="black" points="1282.91,-106.75 1287.91,-105 1282.91,-103.25 1282.91,-106.75"/>
</g>
<!-- Tkinter.Misc -->
<g id="node30" class="node"><title>Tkinter.Misc</title>
<polygon fill="none" stroke="black" stroke-width="0.5" points="72,-134.5 2.84217e-14,-134.5 0,-113.5 72,-113.5 72,-134.5"/>
<text text-anchor="middle" x="36" y="-121.5" font-family="Vera" font-size="10.00">Tkinter.Misc</text>
</g>
<!-- Tkinter.Misc&#45;&gt;Tkinter.BaseWidget -->
<g id="edge30" class="edge"><title>Tkinter.Misc&#45;&gt;Tkinter.BaseWidget</title>
<path fill="none" stroke="black" stroke-width="0.5" d="M72.2547,-124C93.805,-124 121.651,-124 146.27,-124"/>
<polygon fill="black" stroke="black" points="146.471,-125.75 151.471,-124 146.471,-122.25 146.471,-125.75"/>
</g>
</g>
</svg>
