<?xml version="1.0" encoding="UTF-8" standalone="no"?>
<!DOCTYPE svg PUBLIC "-//W3C//DTD SVG 1.1//EN"
 "http://www.w3.org/Graphics/SVG/1.1/DTD/svg11.dtd">
<!-- Generated by graphviz version 2.26.3 (20100126.1600)
 -->
<!-- Title: inheritancebede3c61fc Pages: 1 -->
<svg width="2156pt" height="550pt"
 viewBox="0.00 0.00 2156.00 550.00" xmlns="http://www.w3.org/2000/svg" xmlns:xlink="http://www.w3.org/1999/xlink">
<g id="graph1" class="graph" transform="scale(1 1) rotate(0) translate(4 546)">
<title>inheritancebede3c61fc</title>
<polygon fill="white" stroke="white" points="-4,5 -4,-546 2153,-546 2153,5 -4,5"/>
<!-- topo.command.pylabplot.plot_tracked_attributes -->
<g id="node1" class="node"><title>topo.command.pylabplot.plot_tracked_attributes</title>
<polygon fill="none" stroke="black" stroke-width="0.5" points="1503,-362.5 1253,-362.5 1253,-341.5 1503,-341.5 1503,-362.5"/>
<text text-anchor="middle" x="1378" y="-349.5" font-family="Vera" font-size="10.00">topo.command.pylabplot.plot_tracked_attributes</text>
</g>
<!-- topo.command.pylabplot.PylabPlotCommand -->
<g id="node2" class="node"><title>topo.command.pylabplot.PylabPlotCommand</title>
<polygon fill="none" stroke="black" stroke-width="0.5" points="1138,-210.5 906,-210.5 906,-189.5 1138,-189.5 1138,-210.5"/>
<text text-anchor="middle" x="1022" y="-197.5" font-family="Vera" font-size="10.00">topo.command.pylabplot.PylabPlotCommand</text>
</g>
<!-- topo.command.pylabplot.PylabPlotCommand&#45;&gt;topo.command.pylabplot.plot_tracked_attributes -->
<g id="edge2" class="edge"><title>topo.command.pylabplot.PylabPlotCommand&#45;&gt;topo.command.pylabplot.plot_tracked_attributes</title>
<path fill="none" stroke="black" stroke-width="0.5" d="M1034.05,-210.126C1065.14,-235.645 1151.6,-302.711 1236,-333 1244.49,-336.048 1253.43,-338.614 1262.52,-340.773"/>
<polygon fill="black" stroke="black" points="1262.32,-342.521 1267.58,-341.931 1263.1,-339.109 1262.32,-342.521"/>
</g>
<!-- topo.command.pylabplot.matrixplot -->
<g id="node9" class="node"><title>topo.command.pylabplot.matrixplot</title>
<polygon fill="none" stroke="black" stroke-width="0.5" points="1472,-324.5 1284,-324.5 1284,-303.5 1472,-303.5 1472,-324.5"/>
<text text-anchor="middle" x="1378" y="-311.5" font-family="Vera" font-size="10.00">topo.command.pylabplot.matrixplot</text>
</g>
<!-- topo.command.pylabplot.PylabPlotCommand&#45;&gt;topo.command.pylabplot.matrixplot -->
<g id="edge50" class="edge"><title>topo.command.pylabplot.PylabPlotCommand&#45;&gt;topo.command.pylabplot.matrixplot</title>
<path fill="none" stroke="black" stroke-width="0.5" d="M1039.94,-210.091C1075.91,-229.832 1159.92,-273.5 1236,-295 1249.54,-298.825 1264.02,-301.888 1278.38,-304.337"/>
<polygon fill="black" stroke="black" points="1278.44,-306.121 1283.66,-305.213 1279.01,-302.669 1278.44,-306.121"/>
</g>
<!-- topo.command.pylabplot.overlaid_plots -->
<g id="node16" class="node"><title>topo.command.pylabplot.overlaid_plots</title>
<polygon fill="none" stroke="black" stroke-width="0.5" points="1481,-286.5 1275,-286.5 1275,-265.5 1481,-265.5 1481,-286.5"/>
<text text-anchor="middle" x="1378" y="-273.5" font-family="Vera" font-size="10.00">topo.command.pylabplot.overlaid_plots</text>
</g>
<!-- topo.command.pylabplot.PylabPlotCommand&#45;&gt;topo.command.pylabplot.overlaid_plots -->
<g id="edge12" class="edge"><title>topo.command.pylabplot.PylabPlotCommand&#45;&gt;topo.command.pylabplot.overlaid_plots</title>
<path fill="none" stroke="black" stroke-width="0.5" d="M1054.69,-210.1C1096.4,-222.666 1170.96,-244.041 1236,-257 1251.7,-260.127 1268.47,-262.883 1284.79,-265.256"/>
<polygon fill="black" stroke="black" points="1284.64,-267.002 1289.84,-265.98 1285.14,-263.538 1284.64,-267.002"/>
</g>
<!-- topo.command.pylabplot.plot_modulation_ratio -->
<g id="node24" class="node"><title>topo.command.pylabplot.plot_modulation_ratio</title>
<polygon fill="none" stroke="black" stroke-width="0.5" points="1500,-248.5 1256,-248.5 1256,-227.5 1500,-227.5 1500,-248.5"/>
<text text-anchor="middle" x="1378" y="-235.5" font-family="Vera" font-size="10.00">topo.command.pylabplot.plot_modulation_ratio</text>
</g>
<!-- topo.command.pylabplot.PylabPlotCommand&#45;&gt;topo.command.pylabplot.plot_modulation_ratio -->
<g id="edge20" class="edge"><title>topo.command.pylabplot.PylabPlotCommand&#45;&gt;topo.command.pylabplot.plot_modulation_ratio</title>
<path fill="none" stroke="black" stroke-width="0.5" d="M1116,-210.034C1166.19,-215.391 1227.94,-221.982 1278.88,-227.42"/>
<polygon fill="black" stroke="black" points="1278.93,-229.185 1284.09,-227.976 1279.3,-225.705 1278.93,-229.185"/>
</g>
<!-- topo.command.pylabplot.matrixplot3d -->
<g id="node26" class="node"><title>topo.command.pylabplot.matrixplot3d</title>
<polygon fill="none" stroke="black" stroke-width="0.5" points="1478,-210.5 1278,-210.5 1278,-189.5 1478,-189.5 1478,-210.5"/>
<text text-anchor="middle" x="1378" y="-197.5" font-family="Vera" font-size="10.00">topo.command.pylabplot.matrixplot3d</text>
</g>
<!-- topo.command.pylabplot.PylabPlotCommand&#45;&gt;topo.command.pylabplot.matrixplot3d -->
<g id="edge22" class="edge"><title>topo.command.pylabplot.PylabPlotCommand&#45;&gt;topo.command.pylabplot.matrixplot3d</title>
<path fill="none" stroke="black" stroke-width="0.5" d="M1138.57,-200C1181.83,-200 1230.6,-200 1272.79,-200"/>
<polygon fill="black" stroke="black" points="1272.9,-201.75 1277.9,-200 1272.9,-198.25 1272.9,-201.75"/>
</g>
<!-- topo.command.pylabplot.tuning_curve -->
<g id="node29" class="node"><title>topo.command.pylabplot.tuning_curve</title>
<polygon fill="none" stroke="black" stroke-width="0.5" points="1478,-172.5 1278,-172.5 1278,-151.5 1478,-151.5 1478,-172.5"/>
<text text-anchor="middle" x="1378" y="-159.5" font-family="Vera" font-size="10.00">topo.command.pylabplot.tuning_curve</text>
</g>
<!-- topo.command.pylabplot.PylabPlotCommand&#45;&gt;topo.command.pylabplot.tuning_curve -->
<g id="edge56" class="edge"><title>topo.command.pylabplot.PylabPlotCommand&#45;&gt;topo.command.pylabplot.tuning_curve</title>
<path fill="none" stroke="black" stroke-width="0.5" d="M1116,-189.966C1166.19,-184.609 1227.94,-178.018 1278.88,-172.58"/>
<polygon fill="black" stroke="black" points="1279.3,-174.295 1284.09,-172.024 1278.93,-170.815 1279.3,-174.295"/>
</g>
<!-- topo.command.pylabplot.histogramplot -->
<g id="node37" class="node"><title>topo.command.pylabplot.histogramplot</title>
<polygon fill="none" stroke="black" stroke-width="0.5" points="1481,-134.5 1275,-134.5 1275,-113.5 1481,-113.5 1481,-134.5"/>
<text text-anchor="middle" x="1378" y="-121.5" font-family="Vera" font-size="10.00">topo.command.pylabplot.histogramplot</text>
</g>
<!-- topo.command.pylabplot.PylabPlotCommand&#45;&gt;topo.command.pylabplot.histogramplot -->
<g id="edge32" class="edge"><title>topo.command.pylabplot.PylabPlotCommand&#45;&gt;topo.command.pylabplot.histogramplot</title>
<path fill="none" stroke="black" stroke-width="0.5" d="M1054.69,-189.9C1096.4,-177.334 1170.96,-155.959 1236,-143 1251.7,-139.873 1268.47,-137.117 1284.79,-134.744"/>
<polygon fill="black" stroke="black" points="1285.14,-136.462 1289.84,-134.02 1284.64,-132.998 1285.14,-136.462"/>
</g>
<!-- topo.command.pylabplot.vectorplot -->
<g id="node50" class="node"><title>topo.command.pylabplot.vectorplot</title>
<polygon fill="none" stroke="black" stroke-width="0.5" points="1472,-96.5 1284,-96.5 1284,-75.5 1472,-75.5 1472,-96.5"/>
<text text-anchor="middle" x="1378" y="-83.5" font-family="Vera" font-size="10.00">topo.command.pylabplot.vectorplot</text>
</g>
<!-- topo.command.pylabplot.PylabPlotCommand&#45;&gt;topo.command.pylabplot.vectorplot -->
<g id="edge48" class="edge"><title>topo.command.pylabplot.PylabPlotCommand&#45;&gt;topo.command.pylabplot.vectorplot</title>
<path fill="none" stroke="black" stroke-width="0.5" d="M1039.94,-189.909C1075.91,-170.168 1159.92,-126.5 1236,-105 1249.54,-101.175 1264.02,-98.1125 1278.38,-95.6626"/>
<polygon fill="black" stroke="black" points="1279.01,-97.3314 1283.66,-94.7874 1278.44,-93.8785 1279.01,-97.3314"/>
</g>
<!-- topo.command.pylabplot.topographic_grid -->
<g id="node55" class="node"><title>topo.command.pylabplot.topographic_grid</title>
<polygon fill="none" stroke="black" stroke-width="0.5" points="1488,-58.5 1268,-58.5 1268,-37.5 1488,-37.5 1488,-58.5"/>
<text text-anchor="middle" x="1378" y="-45.5" font-family="Vera" font-size="10.00">topo.command.pylabplot.topographic_grid</text>
</g>
<!-- topo.command.pylabplot.PylabPlotCommand&#45;&gt;topo.command.pylabplot.topographic_grid -->
<g id="edge54" class="edge"><title>topo.command.pylabplot.PylabPlotCommand&#45;&gt;topo.command.pylabplot.topographic_grid</title>
<path fill="none" stroke="black" stroke-width="0.5" d="M1034.05,-189.874C1065.14,-164.355 1151.6,-97.289 1236,-67 1244.59,-63.9165 1253.64,-61.3267 1262.84,-59.1523"/>
<polygon fill="black" stroke="black" points="1263.47,-60.8026 1267.96,-57.9865 1262.69,-57.3899 1263.47,-60.8026"/>
</g>
<!-- topo.command.pylabplot.matrixplot3dx3 -->
<g id="node60" class="node"><title>topo.command.pylabplot.matrixplot3dx3</title>
<polygon fill="none" stroke="black" stroke-width="0.5" points="1484,-20.5 1272,-20.5 1272,0.5 1484,0.5 1484,-20.5"/>
<text text-anchor="middle" x="1378" y="-7.5" font-family="Vera" font-size="10.00">topo.command.pylabplot.matrixplot3dx3</text>
</g>
<!-- topo.command.pylabplot.PylabPlotCommand&#45;&gt;topo.command.pylabplot.matrixplot3dx3 -->
<g id="edge60" class="edge"><title>topo.command.pylabplot.PylabPlotCommand&#45;&gt;topo.command.pylabplot.matrixplot3dx3</title>
<path fill="none" stroke="black" stroke-width="0.5" d="M1030.96,-189.659C1058.18,-159.021 1143.72,-68.4081 1236,-29 1245.82,-24.807 1256.34,-21.4859 1267.04,-18.8623"/>
<polygon fill="black" stroke="black" points="1267.51,-20.5513 1271.98,-17.7053 1266.71,-17.1438 1267.51,-20.5513"/>
</g>
<!-- topo.analysis.featureresponses.UnitCurveCommand -->
<g id="node4" class="node"><title>topo.analysis.featureresponses.UnitCurveCommand</title>
<polygon fill="none" stroke="black" stroke-width="0.5" points="1825,-466.5 1559,-466.5 1559,-445.5 1825,-445.5 1825,-466.5"/>
<text text-anchor="middle" x="1692" y="-453.5" font-family="Vera" font-size="10.00">topo.analysis.featureresponses.UnitCurveCommand</text>
</g>
<!-- topo.command.pylabplot.measure_contrast_response -->
<g id="node18" class="node"><title>topo.command.pylabplot.measure_contrast_response</title>
<polygon fill="none" stroke="black" stroke-width="0.5" points="2144,-542.5 1868,-542.5 1868,-521.5 2144,-521.5 2144,-542.5"/>
<text text-anchor="middle" x="2006" y="-529.5" font-family="Vera" font-size="10.00">topo.command.pylabplot.measure_contrast_response</text>
</g>
<!-- topo.analysis.featureresponses.UnitCurveCommand&#45;&gt;topo.command.pylabplot.measure_contrast_response -->
<g id="edge14" class="edge"><title>topo.analysis.featureresponses.UnitCurveCommand&#45;&gt;topo.command.pylabplot.measure_contrast_response</title>
<path fill="none" stroke="black" stroke-width="0.5" d="M1717.22,-466.014C1750.37,-478.792 1810.66,-500.707 1864,-513 1877.71,-516.159 1892.29,-518.85 1906.69,-521.124"/>
<polygon fill="black" stroke="black" points="1906.77,-522.909 1911.98,-521.944 1907.31,-519.45 1906.77,-522.909"/>
</g>
<!-- topo.command.pylabplot.test_measure -->
<g id="node42" class="node"><title>topo.command.pylabplot.test_measure</title>
<polygon fill="none" stroke="black" stroke-width="0.5" points="2109,-504.5 1903,-504.5 1903,-483.5 2109,-483.5 2109,-504.5"/>
<text text-anchor="middle" x="2006" y="-491.5" font-family="Vera" font-size="10.00">topo.command.pylabplot.test_measure</text>
</g>
<!-- topo.analysis.featureresponses.UnitCurveCommand&#45;&gt;topo.command.pylabplot.test_measure -->
<g id="edge38" class="edge"><title>topo.analysis.featureresponses.UnitCurveCommand&#45;&gt;topo.command.pylabplot.test_measure</title>
<path fill="none" stroke="black" stroke-width="0.5" d="M1774.91,-466.034C1819,-471.369 1873.2,-477.929 1918.03,-483.354"/>
<polygon fill="black" stroke="black" points="1918,-485.112 1923.17,-483.976 1918.42,-481.638 1918,-485.112"/>
</g>
<!-- topo.command.pylabplot.measure_orientation_contrast -->
<g id="node53" class="node"><title>topo.command.pylabplot.measure_orientation_contrast</title>
<polygon fill="none" stroke="black" stroke-width="0.5" points="2148,-466.5 1864,-466.5 1864,-445.5 2148,-445.5 2148,-466.5"/>
<text text-anchor="middle" x="2006" y="-453.5" font-family="Vera" font-size="10.00">topo.command.pylabplot.measure_orientation_contrast</text>
</g>
<!-- topo.analysis.featureresponses.UnitCurveCommand&#45;&gt;topo.command.pylabplot.measure_orientation_contrast -->
<g id="edge52" class="edge"><title>topo.analysis.featureresponses.UnitCurveCommand&#45;&gt;topo.command.pylabplot.measure_orientation_contrast</title>
<path fill="none" stroke="black" stroke-width="0.5" d="M1825.62,-456C1836.62,-456 1847.78,-456 1858.87,-456"/>
<polygon fill="black" stroke="black" points="1858.96,-457.75 1863.96,-456 1858.96,-454.25 1858.96,-457.75"/>
</g>
<!-- topo.command.pylabplot.measure_or_tuning -->
<g id="node58" class="node"><title>topo.command.pylabplot.measure_or_tuning</title>
<polygon fill="none" stroke="black" stroke-width="0.5" points="2122,-428.5 1890,-428.5 1890,-407.5 2122,-407.5 2122,-428.5"/>
<text text-anchor="middle" x="2006" y="-415.5" font-family="Vera" font-size="10.00">topo.command.pylabplot.measure_or_tuning</text>
</g>
<!-- topo.analysis.featureresponses.UnitCurveCommand&#45;&gt;topo.command.pylabplot.measure_or_tuning -->
<g id="edge58" class="edge"><title>topo.analysis.featureresponses.UnitCurveCommand&#45;&gt;topo.command.pylabplot.measure_or_tuning</title>
<path fill="none" stroke="black" stroke-width="0.5" d="M1774.91,-445.966C1819,-440.631 1873.2,-434.071 1918.03,-428.646"/>
<polygon fill="black" stroke="black" points="1918.42,-430.362 1923.17,-428.024 1918,-426.888 1918.42,-430.362"/>
</g>
<!-- topo.command.pylabplot.measure_size_response -->
<g id="node62" class="node"><title>topo.command.pylabplot.measure_size_response</title>
<polygon fill="none" stroke="black" stroke-width="0.5" points="2134,-390.5 1878,-390.5 1878,-369.5 2134,-369.5 2134,-390.5"/>
<text text-anchor="middle" x="2006" y="-377.5" font-family="Vera" font-size="10.00">topo.command.pylabplot.measure_size_response</text>
</g>
<!-- topo.analysis.featureresponses.UnitCurveCommand&#45;&gt;topo.command.pylabplot.measure_size_response -->
<g id="edge62" class="edge"><title>topo.analysis.featureresponses.UnitCurveCommand&#45;&gt;topo.command.pylabplot.measure_size_response</title>
<path fill="none" stroke="black" stroke-width="0.5" d="M1806.23,-445.953C1813.78,-443.501 1821.11,-440.548 1828,-437 1848.68,-426.348 1843.29,-409.592 1864,-399 1869.36,-396.257 1874.98,-393.864 1880.76,-391.777"/>
<polygon fill="black" stroke="black" points="1881.49,-393.377 1885.65,-390.096 1880.35,-390.067 1881.49,-393.377"/>
</g>
<!-- topo.analysis.featureresponses.FeatureCurveCommand -->
<g id="node5" class="node"><title>topo.analysis.featureresponses.FeatureCurveCommand</title>
<polygon fill="none" stroke="black" stroke-width="0.5" points="1520,-438.5 1236,-438.5 1236,-417.5 1520,-417.5 1520,-438.5"/>
<text text-anchor="middle" x="1378" y="-425.5" font-family="Vera" font-size="10.00">topo.analysis.featureresponses.FeatureCurveCommand</text>
</g>
<!-- topo.analysis.featureresponses.FeatureCurveCommand&#45;&gt;topo.analysis.featureresponses.UnitCurveCommand -->
<g id="edge4" class="edge"><title>topo.analysis.featureresponses.FeatureCurveCommand&#45;&gt;topo.analysis.featureresponses.UnitCurveCommand</title>
<path fill="none" stroke="black" stroke-width="0.5" d="M1490.47,-438.03C1517.81,-440.467 1547.11,-443.08 1574.66,-445.537"/>
<polygon fill="black" stroke="black" points="1574.65,-447.292 1579.78,-445.993 1574.96,-443.806 1574.65,-447.292"/>
</g>
<!-- topo.command.pylabplot.measure_or_tuning_fullfield -->
<g id="node20" class="node"><title>topo.command.pylabplot.measure_or_tuning_fullfield</title>
<polygon fill="none" stroke="black" stroke-width="0.5" points="1827,-428.5 1557,-428.5 1557,-407.5 1827,-407.5 1827,-428.5"/>
<text text-anchor="middle" x="1692" y="-415.5" font-family="Vera" font-size="10.00">topo.command.pylabplot.measure_or_tuning_fullfield</text>
</g>
<!-- topo.analysis.featureresponses.FeatureCurveCommand&#45;&gt;topo.command.pylabplot.measure_or_tuning_fullfield -->
<g id="edge16" class="edge"><title>topo.analysis.featureresponses.FeatureCurveCommand&#45;&gt;topo.command.pylabplot.measure_or_tuning_fullfield</title>
<path fill="none" stroke="black" stroke-width="0.5" d="M1520.3,-423.468C1530.62,-423.14 1541.02,-422.808 1551.33,-422.48"/>
<polygon fill="black" stroke="black" points="1551.44,-424.227 1556.39,-422.319 1551.33,-420.729 1551.44,-424.227"/>
</g>
<!-- param.parameterized.Parameterized -->
<g id="node7" class="node"><title>param.parameterized.Parameterized</title>
<polygon fill="none" stroke="black" stroke-width="0.5" points="194,-305.5 5.68434e-14,-305.5 0,-284.5 194,-284.5 194,-305.5"/>
<text text-anchor="middle" x="97" y="-292.5" font-family="Vera" font-size="10.00">param.parameterized.Parameterized</text>
</g>
<!-- param.parameterized.ParameterizedFunction -->
<g id="node32" class="node"><title>param.parameterized.ParameterizedFunction</title>
<polygon fill="none" stroke="black" stroke-width="0.5" points="464,-305.5 230,-305.5 230,-284.5 464,-284.5 464,-305.5"/>
<text text-anchor="middle" x="347" y="-292.5" font-family="Vera" font-size="10.00">param.parameterized.ParameterizedFunction</text>
</g>
<!-- param.parameterized.Parameterized&#45;&gt;param.parameterized.ParameterizedFunction -->
<g id="edge34" class="edge"><title>param.parameterized.Parameterized&#45;&gt;param.parameterized.ParameterizedFunction</title>
<path fill="none" stroke="black" stroke-width="0.5" d="M194.014,-295C204.04,-295 214.319,-295 224.575,-295"/>
<polygon fill="black" stroke="black" points="224.607,-296.75 229.607,-295 224.607,-293.25 224.607,-296.75"/>
</g>
<!-- topo.command.pylabplot.gradientplot -->
<g id="node8" class="node"><title>topo.command.pylabplot.gradientplot</title>
<polygon fill="none" stroke="black" stroke-width="0.5" points="1790,-371.5 1594,-371.5 1594,-350.5 1790,-350.5 1790,-371.5"/>
<text text-anchor="middle" x="1692" y="-358.5" font-family="Vera" font-size="10.00">topo.command.pylabplot.gradientplot</text>
</g>
<!-- topo.command.pylabplot.matrixplot&#45;&gt;topo.command.pylabplot.gradientplot -->
<g id="edge6" class="edge"><title>topo.command.pylabplot.matrixplot&#45;&gt;topo.command.pylabplot.gradientplot</title>
<path fill="none" stroke="black" stroke-width="0.5" d="M1464.61,-324.017C1482.96,-326.578 1502.17,-329.589 1520,-333 1536.2,-336.098 1539.81,-338.855 1556,-342 1571.8,-345.07 1588.73,-347.842 1605.08,-350.26"/>
<polygon fill="black" stroke="black" points="1604.94,-352.007 1610.14,-350.999 1605.45,-348.544 1604.94,-352.007"/>
</g>
<!-- topo.command.pylabplot.autocorrelationplot -->
<g id="node11" class="node"><title>topo.command.pylabplot.autocorrelationplot</title>
<polygon fill="none" stroke="black" stroke-width="0.5" points="1807,-333.5 1577,-333.5 1577,-312.5 1807,-312.5 1807,-333.5"/>
<text text-anchor="middle" x="1692" y="-320.5" font-family="Vera" font-size="10.00">topo.command.pylabplot.autocorrelationplot</text>
</g>
<!-- topo.command.pylabplot.matrixplot&#45;&gt;topo.command.pylabplot.autocorrelationplot -->
<g id="edge8" class="edge"><title>topo.command.pylabplot.matrixplot&#45;&gt;topo.command.pylabplot.autocorrelationplot</title>
<path fill="none" stroke="black" stroke-width="0.5" d="M1472.21,-316.7C1503.42,-317.595 1538.59,-318.603 1571.5,-319.546"/>
<polygon fill="black" stroke="black" points="1571.71,-321.303 1576.76,-319.697 1571.81,-317.804 1571.71,-321.303"/>
</g>
<!-- topo.command.pylabplot.fftplot -->
<g id="node34" class="node"><title>topo.command.pylabplot.fftplot</title>
<polygon fill="none" stroke="black" stroke-width="0.5" points="1775,-295.5 1609,-295.5 1609,-274.5 1775,-274.5 1775,-295.5"/>
<text text-anchor="middle" x="1692" y="-282.5" font-family="Vera" font-size="10.00">topo.command.pylabplot.fftplot</text>
</g>
<!-- topo.command.pylabplot.matrixplot&#45;&gt;topo.command.pylabplot.fftplot -->
<g id="edge28" class="edge"><title>topo.command.pylabplot.matrixplot&#45;&gt;topo.command.pylabplot.fftplot</title>
<path fill="none" stroke="black" stroke-width="0.5" d="M1472.21,-305.299C1513.62,-301.475 1562,-297.007 1602.81,-293.237"/>
<polygon fill="black" stroke="black" points="1603.44,-294.936 1608.26,-292.734 1603.12,-291.451 1603.44,-294.936"/>
</g>
<!-- topo.command.pylabplot.activityplot -->
<g id="node47" class="node"><title>topo.command.pylabplot.activityplot</title>
<polygon fill="none" stroke="black" stroke-width="0.5" points="1787,-257.5 1597,-257.5 1597,-236.5 1787,-236.5 1787,-257.5"/>
<text text-anchor="middle" x="1692" y="-244.5" font-family="Vera" font-size="10.00">topo.command.pylabplot.activityplot</text>
</g>
<!-- topo.command.pylabplot.matrixplot&#45;&gt;topo.command.pylabplot.activityplot -->
<g id="edge44" class="edge"><title>topo.command.pylabplot.matrixplot&#45;&gt;topo.command.pylabplot.activityplot</title>
<path fill="none" stroke="black" stroke-width="0.5" d="M1472,-308.773C1488.42,-305.81 1505.03,-301.428 1520,-295 1538.88,-286.894 1537.14,-274.161 1556,-266 1567.01,-261.236 1578.94,-257.61 1591.01,-254.86"/>
<polygon fill="black" stroke="black" points="1591.68,-256.506 1596.19,-253.734 1590.93,-253.086 1591.68,-256.506"/>
</g>
<!-- topo.analysis.featureresponses.SinusoidalMeasureResponseCommand -->
<g id="node13" class="node"><title>topo.analysis.featureresponses.SinusoidalMeasureResponseCommand</title>
<polygon fill="none" stroke="black" stroke-width="0.5" points="1200,-438.5 844,-438.5 844,-417.5 1200,-417.5 1200,-438.5"/>
<text text-anchor="middle" x="1022" y="-425.5" font-family="Vera" font-size="10.00">topo.analysis.featureresponses.SinusoidalMeasureResponseCommand</text>
</g>
<!-- topo.analysis.featureresponses.SinusoidalMeasureResponseCommand&#45;&gt;topo.analysis.featureresponses.FeatureCurveCommand -->
<g id="edge40" class="edge"><title>topo.analysis.featureresponses.SinusoidalMeasureResponseCommand&#45;&gt;topo.analysis.featureresponses.FeatureCurveCommand</title>
<path fill="none" stroke="black" stroke-width="0.5" d="M1200,-428C1210.21,-428 1220.43,-428 1230.51,-428"/>
<polygon fill="black" stroke="black" points="1230.76,-429.75 1235.76,-428 1230.76,-426.25 1230.76,-429.75"/>
</g>
<!-- topo.analysis.featureresponses.MeasureResponseCommand -->
<g id="node14" class="node"><title>topo.analysis.featureresponses.MeasureResponseCommand</title>
<polygon fill="none" stroke="black" stroke-width="0.5" points="807,-400.5 501,-400.5 501,-379.5 807,-379.5 807,-400.5"/>
<text text-anchor="middle" x="654" y="-387.5" font-family="Vera" font-size="10.00">topo.analysis.featureresponses.MeasureResponseCommand</text>
</g>
<!-- topo.analysis.featureresponses.MeasureResponseCommand&#45;&gt;topo.analysis.featureresponses.SinusoidalMeasureResponseCommand -->
<g id="edge10" class="edge"><title>topo.analysis.featureresponses.MeasureResponseCommand&#45;&gt;topo.analysis.featureresponses.SinusoidalMeasureResponseCommand</title>
<path fill="none" stroke="black" stroke-width="0.5" d="M751.169,-400.034C803.154,-405.402 867.138,-412.009 919.859,-417.453"/>
<polygon fill="black" stroke="black" points="919.772,-419.203 924.925,-417.976 920.131,-415.722 919.772,-419.203"/>
</g>
<!-- topo.analysis.featureresponses.PositionMeasurementCommand -->
<g id="node22" class="node"><title>topo.analysis.featureresponses.PositionMeasurementCommand</title>
<polygon fill="none" stroke="black" stroke-width="0.5" points="1184,-400.5 860,-400.5 860,-379.5 1184,-379.5 1184,-400.5"/>
<text text-anchor="middle" x="1022" y="-387.5" font-family="Vera" font-size="10.00">topo.analysis.featureresponses.PositionMeasurementCommand</text>
</g>
<!-- topo.analysis.featureresponses.MeasureResponseCommand&#45;&gt;topo.analysis.featureresponses.PositionMeasurementCommand -->
<g id="edge18" class="edge"><title>topo.analysis.featureresponses.MeasureResponseCommand&#45;&gt;topo.analysis.featureresponses.PositionMeasurementCommand</title>
<path fill="none" stroke="black" stroke-width="0.5" d="M807.667,-390C823.16,-390 838.949,-390 854.577,-390"/>
<polygon fill="black" stroke="black" points="854.87,-391.75 859.87,-390 854.87,-388.25 854.87,-391.75"/>
</g>
<!-- topo.command.pylabplot.measure_position_pref -->
<g id="node45" class="node"><title>topo.command.pylabplot.measure_position_pref</title>
<polygon fill="none" stroke="black" stroke-width="0.5" points="1502,-400.5 1254,-400.5 1254,-379.5 1502,-379.5 1502,-400.5"/>
<text text-anchor="middle" x="1378" y="-387.5" font-family="Vera" font-size="10.00">topo.command.pylabplot.measure_position_pref</text>
</g>
<!-- topo.analysis.featureresponses.PositionMeasurementCommand&#45;&gt;topo.command.pylabplot.measure_position_pref -->
<g id="edge42" class="edge"><title>topo.analysis.featureresponses.PositionMeasurementCommand&#45;&gt;topo.command.pylabplot.measure_position_pref</title>
<path fill="none" stroke="black" stroke-width="0.5" d="M1184.11,-390C1205.52,-390 1227.23,-390 1248,-390"/>
<polygon fill="black" stroke="black" points="1248.26,-391.75 1253.26,-390 1248.26,-388.25 1248.26,-391.75"/>
</g>
<!-- topo.command.pylabplot.cyclic_tuning_curve -->
<g id="node28" class="node"><title>topo.command.pylabplot.cyclic_tuning_curve</title>
<polygon fill="none" stroke="black" stroke-width="0.5" points="1808,-172.5 1576,-172.5 1576,-151.5 1808,-151.5 1808,-172.5"/>
<text text-anchor="middle" x="1692" y="-159.5" font-family="Vera" font-size="10.00">topo.command.pylabplot.cyclic_tuning_curve</text>
</g>
<!-- topo.command.pylabplot.tuning_curve&#45;&gt;topo.command.pylabplot.cyclic_tuning_curve -->
<g id="edge24" class="edge"><title>topo.command.pylabplot.tuning_curve&#45;&gt;topo.command.pylabplot.cyclic_tuning_curve</title>
<path fill="none" stroke="black" stroke-width="0.5" d="M1478.65,-162C1507.9,-162 1540.16,-162 1570.54,-162"/>
<polygon fill="black" stroke="black" points="1570.8,-163.75 1575.8,-162 1570.8,-160.25 1570.8,-163.75"/>
</g>
<!-- topo.command.pylabplot.measure_cog -->
<g id="node31" class="node"><title>topo.command.pylabplot.measure_cog</title>
<polygon fill="none" stroke="black" stroke-width="0.5" points="756,-305.5 552,-305.5 552,-284.5 756,-284.5 756,-305.5"/>
<text text-anchor="middle" x="654" y="-292.5" font-family="Vera" font-size="10.00">topo.command.pylabplot.measure_cog</text>
</g>
<!-- param.parameterized.ParameterizedFunction&#45;&gt;topo.analysis.featureresponses.MeasureResponseCommand -->
<g id="edge30" class="edge"><title>param.parameterized.ParameterizedFunction&#45;&gt;topo.analysis.featureresponses.MeasureResponseCommand</title>
<path fill="none" stroke="black" stroke-width="0.5" d="M379.564,-305.077C436.901,-322.819 555.546,-359.534 616.322,-378.341"/>
<polygon fill="black" stroke="black" points="616.014,-380.077 621.308,-379.884 617.049,-376.734 616.014,-380.077"/>
</g>
<!-- param.parameterized.ParameterizedFunction&#45;&gt;topo.command.pylabplot.measure_cog -->
<g id="edge26" class="edge"><title>param.parameterized.ParameterizedFunction&#45;&gt;topo.command.pylabplot.measure_cog</title>
<path fill="none" stroke="black" stroke-width="0.5" d="M464.378,-295C491.197,-295 519.575,-295 545.98,-295"/>
<polygon fill="black" stroke="black" points="546.234,-296.75 551.234,-295 546.234,-293.25 546.234,-296.75"/>
</g>
<!-- topo.command.Command -->
<g id="node40" class="node"><title>topo.command.Command</title>
<polygon fill="none" stroke="black" stroke-width="0.5" points="725,-238.5 583,-238.5 583,-217.5 725,-217.5 725,-238.5"/>
<text text-anchor="middle" x="654" y="-225.5" font-family="Vera" font-size="10.00">topo.command.Command</text>
</g>
<!-- param.parameterized.ParameterizedFunction&#45;&gt;topo.command.Command -->
<g id="edge46" class="edge"><title>param.parameterized.ParameterizedFunction&#45;&gt;topo.command.Command</title>
<path fill="none" stroke="black" stroke-width="0.5" d="M392.961,-284.969C449.222,-272.691 544.218,-251.959 602.776,-239.179"/>
<polygon fill="black" stroke="black" points="603.464,-240.82 607.976,-238.044 602.718,-237.401 603.464,-240.82"/>
</g>
<!-- topo.command.Command&#45;&gt;topo.command.pylabplot.PylabPlotCommand -->
<g id="edge36" class="edge"><title>topo.command.Command&#45;&gt;topo.command.pylabplot.PylabPlotCommand</title>
<path fill="none" stroke="black" stroke-width="0.5" d="M725.828,-222.535C775.37,-218.765 842.456,-213.661 900.253,-209.263"/>
<polygon fill="black" stroke="black" points="900.607,-210.992 905.46,-208.867 900.341,-207.502 900.607,-210.992"/>
</g>
</g>
</svg>
