<?xml version="1.0" encoding="UTF-8" standalone="no"?>
<!DOCTYPE svg PUBLIC "-//W3C//DTD SVG 1.1//EN"
 "http://www.w3.org/Graphics/SVG/1.1/DTD/svg11.dtd">
<!-- Generated by graphviz version 2.26.3 (20100126.1600)
 -->
<!-- Title: inheritance705e1e99a0 Pages: 1 -->
<svg width="1066pt" height="66pt"
 viewBox="0.00 0.00 1066.00 66.00" xmlns="http://www.w3.org/2000/svg" xmlns:xlink="http://www.w3.org/1999/xlink">
<g id="graph1" class="graph" transform="scale(1 1) rotate(0) translate(4 62)">
<title>inheritance705e1e99a0</title>
<polygon fill="white" stroke="white" points="-4,5 -4,-62 1063,-62 1063,5 -4,5"/>
<!-- topo.tests.unit.testboundingregion.TestBoundingCircle -->
<g id="node1" class="node"><title>topo.tests.unit.testboundingregion.TestBoundingCircle</title>
<polygon fill="none" stroke="black" stroke-width="0.5" points="1057,-20.5 783,-20.5 783,0.5 1057,0.5 1057,-20.5"/>
<text text-anchor="middle" x="920" y="-7.5" font-family="Vera" font-size="10.00">topo.tests.unit.testboundingregion.TestBoundingCircle</text>
</g>
<!-- topo.tests.unit.testboundingregion.TestBoundingEllipse -->
<g id="node2" class="node"><title>topo.tests.unit.testboundingregion.TestBoundingEllipse</title>
<polygon fill="none" stroke="black" stroke-width="0.5" points="745,-20.5 467,-20.5 467,0.5 745,0.5 745,-20.5"/>
<text text-anchor="middle" x="606" y="-7.5" font-family="Vera" font-size="10.00">topo.tests.unit.testboundingregion.TestBoundingEllipse</text>
</g>
<!-- topo.tests.unit.testboundingregion.TestBoundingEllipse&#45;&gt;topo.tests.unit.testboundingregion.TestBoundingCircle -->
<g id="edge2" class="edge"><title>topo.tests.unit.testboundingregion.TestBoundingEllipse&#45;&gt;topo.tests.unit.testboundingregion.TestBoundingCircle</title>
<path fill="none" stroke="black" stroke-width="0.5" d="M745.554,-10C755.97,-10 766.49,-10 776.927,-10"/>
<polygon fill="black" stroke="black" points="777.043,-11.7501 782.043,-10 777.043,-8.2501 777.043,-11.7501"/>
</g>
<!-- unittest.case.TestCase -->
<g id="node4" class="node"><title>unittest.case.TestCase</title>
<polygon fill="none" stroke="black" stroke-width="0.5" points="125,-39.5 1,-39.5 1,-18.5 125,-18.5 125,-39.5"/>
<text text-anchor="middle" x="63" y="-26.5" font-family="Vera" font-size="10.00">unittest.case.TestCase</text>
</g>
<!-- topo.tests.unit.testboundingregion.TestAARectangle -->
<g id="node5" class="node"><title>topo.tests.unit.testboundingregion.TestAARectangle</title>
<polygon fill="none" stroke="black" stroke-width="0.5" points="428,-58.5 164,-58.5 164,-37.5 428,-37.5 428,-58.5"/>
<text text-anchor="middle" x="296" y="-45.5" font-family="Vera" font-size="10.00">topo.tests.unit.testboundingregion.TestAARectangle</text>
</g>
<!-- unittest.case.TestCase&#45;&gt;topo.tests.unit.testboundingregion.TestAARectangle -->
<g id="edge4" class="edge"><title>unittest.case.TestCase&#45;&gt;topo.tests.unit.testboundingregion.TestAARectangle</title>
<path fill="none" stroke="black" stroke-width="0.5" d="M125.746,-34.1166C139.067,-35.2029 153.589,-36.3871 168.351,-37.5909"/>
<polygon fill="black" stroke="black" points="168.24,-39.3375 173.366,-37.9998 168.524,-35.8491 168.24,-39.3375"/>
</g>
<!-- topo.tests.unit.testboundingregion.TestBoundingBox -->
<g id="node7" class="node"><title>topo.tests.unit.testboundingregion.TestBoundingBox</title>
<polygon fill="none" stroke="black" stroke-width="0.5" points="429,-20.5 163,-20.5 163,0.5 429,0.5 429,-20.5"/>
<text text-anchor="middle" x="296" y="-7.5" font-family="Vera" font-size="10.00">topo.tests.unit.testboundingregion.TestBoundingBox</text>
</g>
<!-- unittest.case.TestCase&#45;&gt;topo.tests.unit.testboundingregion.TestBoundingBox -->
<g id="edge6" class="edge"><title>unittest.case.TestCase&#45;&gt;topo.tests.unit.testboundingregion.TestBoundingBox</title>
<path fill="none" stroke="black" stroke-width="0.5" d="M125.746,-23.8834C139.067,-22.7971 153.589,-21.6129 168.351,-20.4091"/>
<polygon fill="black" stroke="black" points="168.524,-22.1509 173.366,-20.0002 168.24,-18.6625 168.524,-22.1509"/>
</g>
<!-- topo.tests.unit.testboundingregion.TestBoundingBox&#45;&gt;topo.tests.unit.testboundingregion.TestBoundingEllipse -->
<g id="edge8" class="edge"><title>topo.tests.unit.testboundingregion.TestBoundingBox&#45;&gt;topo.tests.unit.testboundingregion.TestBoundingEllipse</title>
<path fill="none" stroke="black" stroke-width="0.5" d="M429.717,-10C440.138,-10 450.69,-10 461.18,-10"/>
<polygon fill="black" stroke="black" points="461.323,-11.7501 466.323,-10 461.323,-8.2501 461.323,-11.7501"/>
</g>
</g>
</svg>
