<?xml version="1.0" encoding="UTF-8" standalone="no"?>
<!DOCTYPE svg PUBLIC "-//W3C//DTD SVG 1.1//EN"
 "http://www.w3.org/Graphics/SVG/1.1/DTD/svg11.dtd">
<!-- Generated by graphviz version 2.26.3 (20100126.1600)
 -->
<!-- Title: inheritance530d41a019 Pages: 1 -->
<svg width="654pt" height="66pt"
 viewBox="0.00 0.00 654.00 66.00" xmlns="http://www.w3.org/2000/svg" xmlns:xlink="http://www.w3.org/1999/xlink">
<g id="graph1" class="graph" transform="scale(1 1) rotate(0) translate(4 62)">
<title>inheritance530d41a019</title>
<polygon fill="white" stroke="white" points="-4,5 -4,-62 651,-62 651,5 -4,5"/>
<!-- imagen.ndmapping.NdIndexableMapping -->
<g id="node1" class="node"><title>imagen.ndmapping.NdIndexableMapping</title>
<polygon fill="none" stroke="black" stroke-width="0.5" points="442,-20.5 230,-20.5 230,0.5 442,0.5 442,-20.5"/>
<text text-anchor="middle" x="336" y="-7.5" font-family="Vera" font-size="10.00">imagen.ndmapping.NdIndexableMapping</text>
</g>
<!-- imagen.ndmapping.NdMapping -->
<g id="node4" class="node"><title>imagen.ndmapping.NdMapping</title>
<polygon fill="none" stroke="black" stroke-width="0.5" points="645,-20.5 479,-20.5 479,0.5 645,0.5 645,-20.5"/>
<text text-anchor="middle" x="562" y="-7.5" font-family="Vera" font-size="10.00">imagen.ndmapping.NdMapping</text>
</g>
<!-- imagen.ndmapping.NdIndexableMapping&#45;&gt;imagen.ndmapping.NdMapping -->
<g id="edge4" class="edge"><title>imagen.ndmapping.NdIndexableMapping&#45;&gt;imagen.ndmapping.NdMapping</title>
<path fill="none" stroke="black" stroke-width="0.5" d="M442.052,-10C452.499,-10 463.025,-10 473.272,-10"/>
<polygon fill="black" stroke="black" points="473.279,-11.7501 478.279,-10 473.279,-8.2501 473.279,-11.7501"/>
</g>
<!-- param.parameterized.Parameterized -->
<g id="node2" class="node"><title>param.parameterized.Parameterized</title>
<polygon fill="none" stroke="black" stroke-width="0.5" points="194,-20.5 5.68434e-14,-20.5 0,0.5 194,0.5 194,-20.5"/>
<text text-anchor="middle" x="97" y="-7.5" font-family="Vera" font-size="10.00">param.parameterized.Parameterized</text>
</g>
<!-- param.parameterized.Parameterized&#45;&gt;imagen.ndmapping.NdIndexableMapping -->
<g id="edge2" class="edge"><title>param.parameterized.Parameterized&#45;&gt;imagen.ndmapping.NdIndexableMapping</title>
<path fill="none" stroke="black" stroke-width="0.5" d="M194.21,-10C204.317,-10 214.644,-10 224.889,-10"/>
<polygon fill="black" stroke="black" points="224.91,-11.7501 229.91,-10 224.91,-8.2501 224.91,-11.7501"/>
</g>
<!-- imagen.ndmapping.AttrDict -->
<g id="node6" class="node"><title>imagen.ndmapping.AttrDict</title>
<polygon fill="none" stroke="black" stroke-width="0.5" points="171,-58.5 23,-58.5 23,-37.5 171,-37.5 171,-58.5"/>
<text text-anchor="middle" x="97" y="-45.5" font-family="Vera" font-size="10.00">imagen.ndmapping.AttrDict</text>
</g>
</g>
</svg>
