<?xml version="1.0" encoding="UTF-8" standalone="no"?>
<!DOCTYPE svg PUBLIC "-//W3C//DTD SVG 1.1//EN"
 "http://www.w3.org/Graphics/SVG/1.1/DTD/svg11.dtd">
<!-- Generated by graphviz version 2.26.3 (20100126.1600)
 -->
<!-- Title: inheritancedfab4961fd Pages: 1 -->
<svg width="766pt" height="332pt"
 viewBox="0.00 0.00 766.00 332.00" xmlns="http://www.w3.org/2000/svg" xmlns:xlink="http://www.w3.org/1999/xlink">
<g id="graph1" class="graph" transform="scale(1 1) rotate(0) translate(4 328)">
<title>inheritancedfab4961fd</title>
<polygon fill="white" stroke="white" points="-4,5 -4,-328 763,-328 763,5 -4,5"/>
<!-- topo.base.simulation.Event -->
<g id="node1" class="node"><title>topo.base.simulation.Event</title>
<polygon fill="none" stroke="black" stroke-width="0.5" points="176,-77.5 30,-77.5 30,-56.5 176,-56.5 176,-77.5"/>
<text text-anchor="middle" x="103" y="-64.5" font-family="Vera" font-size="10.00">topo.base.simulation.Event</text>
</g>
<!-- topo.base.simulation.EventSequence -->
<g id="node3" class="node"><title>topo.base.simulation.EventSequence</title>
<polygon fill="none" stroke="black" stroke-width="0.5" points="462,-134.5 268,-134.5 268,-113.5 462,-113.5 462,-134.5"/>
<text text-anchor="middle" x="365" y="-121.5" font-family="Vera" font-size="10.00">topo.base.simulation.EventSequence</text>
</g>
<!-- topo.base.simulation.Event&#45;&gt;topo.base.simulation.EventSequence -->
<g id="edge18" class="edge"><title>topo.base.simulation.Event&#45;&gt;topo.base.simulation.EventSequence</title>
<path fill="none" stroke="black" stroke-width="0.5" d="M135.602,-77.0417C163.609,-85.3957 205.176,-97.149 242,-105 256.145,-108.016 271.301,-110.753 285.974,-113.152"/>
<polygon fill="black" stroke="black" points="285.714,-114.883 290.929,-113.953 286.272,-111.428 285.714,-114.883"/>
</g>
<!-- topo.base.simulation.CommandEvent -->
<g id="node10" class="node"><title>topo.base.simulation.CommandEvent</title>
<polygon fill="none" stroke="black" stroke-width="0.5" points="463,-96.5 267,-96.5 267,-75.5 463,-75.5 463,-96.5"/>
<text text-anchor="middle" x="365" y="-83.5" font-family="Vera" font-size="10.00">topo.base.simulation.CommandEvent</text>
</g>
<!-- topo.base.simulation.Event&#45;&gt;topo.base.simulation.CommandEvent -->
<g id="edge6" class="edge"><title>topo.base.simulation.Event&#45;&gt;topo.base.simulation.CommandEvent</title>
<path fill="none" stroke="black" stroke-width="0.5" d="M176.679,-72.3431C202.896,-74.2444 232.929,-76.4223 261.195,-78.4721"/>
<polygon fill="black" stroke="black" points="261.337,-80.237 266.451,-78.8533 261.59,-76.7461 261.337,-80.237"/>
</g>
<!-- topo.base.simulation.EPConnectionEvent -->
<g id="node14" class="node"><title>topo.base.simulation.EPConnectionEvent</title>
<polygon fill="none" stroke="black" stroke-width="0.5" points="471,-58.5 259,-58.5 259,-37.5 471,-37.5 471,-58.5"/>
<text text-anchor="middle" x="365" y="-45.5" font-family="Vera" font-size="10.00">topo.base.simulation.EPConnectionEvent</text>
</g>
<!-- topo.base.simulation.Event&#45;&gt;topo.base.simulation.EPConnectionEvent -->
<g id="edge10" class="edge"><title>topo.base.simulation.Event&#45;&gt;topo.base.simulation.EPConnectionEvent</title>
<path fill="none" stroke="black" stroke-width="0.5" d="M176.679,-61.6569C200.375,-59.9384 227.188,-57.994 252.997,-56.1224"/>
<polygon fill="black" stroke="black" points="253.283,-57.8563 258.144,-55.7491 253.03,-54.3654 253.283,-57.8563"/>
</g>
<!-- topo.base.simulation.FunctionEvent -->
<g id="node24" class="node"><title>topo.base.simulation.FunctionEvent</title>
<polygon fill="none" stroke="black" stroke-width="0.5" points="458,-20.5 272,-20.5 272,0.5 458,0.5 458,-20.5"/>
<text text-anchor="middle" x="365" y="-7.5" font-family="Vera" font-size="10.00">topo.base.simulation.FunctionEvent</text>
</g>
<!-- topo.base.simulation.Event&#45;&gt;topo.base.simulation.FunctionEvent -->
<g id="edge22" class="edge"><title>topo.base.simulation.Event&#45;&gt;topo.base.simulation.FunctionEvent</title>
<path fill="none" stroke="black" stroke-width="0.5" d="M135.602,-56.9583C163.609,-48.6043 205.176,-36.851 242,-29 256.145,-25.9843 271.301,-23.2467 285.974,-20.8479"/>
<polygon fill="black" stroke="black" points="286.272,-22.5725 290.929,-20.0475 285.714,-19.1173 286.272,-22.5725"/>
</g>
<!-- topo.base.simulation.PeriodicEventSequence -->
<g id="node2" class="node"><title>topo.base.simulation.PeriodicEventSequence</title>
<polygon fill="none" stroke="black" stroke-width="0.5" points="757,-134.5 525,-134.5 525,-113.5 757,-113.5 757,-134.5"/>
<text text-anchor="middle" x="641" y="-121.5" font-family="Vera" font-size="10.00">topo.base.simulation.PeriodicEventSequence</text>
</g>
<!-- topo.base.simulation.EventSequence&#45;&gt;topo.base.simulation.PeriodicEventSequence -->
<g id="edge2" class="edge"><title>topo.base.simulation.EventSequence&#45;&gt;topo.base.simulation.PeriodicEventSequence</title>
<path fill="none" stroke="black" stroke-width="0.5" d="M462.696,-124C480.839,-124 500.001,-124 518.769,-124"/>
<polygon fill="black" stroke="black" points="519.051,-125.75 524.051,-124 519.051,-122.25 519.051,-125.75"/>
</g>
<!-- param.parameterized.Parameterized -->
<g id="node5" class="node"><title>param.parameterized.Parameterized</title>
<polygon fill="none" stroke="black" stroke-width="0.5" points="200,-229.5 6,-229.5 6,-208.5 200,-208.5 200,-229.5"/>
<text text-anchor="middle" x="103" y="-216.5" font-family="Vera" font-size="10.00">param.parameterized.Parameterized</text>
</g>
<!-- topo.base.simulation.Simulation -->
<g id="node7" class="node"><title>topo.base.simulation.Simulation</title>
<polygon fill="none" stroke="black" stroke-width="0.5" points="450,-286.5 280,-286.5 280,-265.5 450,-265.5 450,-286.5"/>
<text text-anchor="middle" x="365" y="-273.5" font-family="Vera" font-size="10.00">topo.base.simulation.Simulation</text>
</g>
<!-- param.parameterized.Parameterized&#45;&gt;topo.base.simulation.Simulation -->
<g id="edge12" class="edge"><title>param.parameterized.Parameterized&#45;&gt;topo.base.simulation.Simulation</title>
<path fill="none" stroke="black" stroke-width="0.5" d="M135.602,-229.042C163.609,-237.396 205.176,-249.149 242,-257 256.145,-260.016 271.301,-262.753 285.974,-265.152"/>
<polygon fill="black" stroke="black" points="285.714,-266.883 290.929,-265.953 286.272,-263.428 285.714,-266.883"/>
</g>
<!-- topo.base.simulation.SomeTimer -->
<g id="node12" class="node"><title>topo.base.simulation.SomeTimer</title>
<polygon fill="none" stroke="black" stroke-width="0.5" points="453,-248.5 277,-248.5 277,-227.5 453,-227.5 453,-248.5"/>
<text text-anchor="middle" x="365" y="-235.5" font-family="Vera" font-size="10.00">topo.base.simulation.SomeTimer</text>
</g>
<!-- param.parameterized.Parameterized&#45;&gt;topo.base.simulation.SomeTimer -->
<g id="edge8" class="edge"><title>param.parameterized.Parameterized&#45;&gt;topo.base.simulation.SomeTimer</title>
<path fill="none" stroke="black" stroke-width="0.5" d="M200.187,-226.048C223.474,-227.737 248.291,-229.536 271.412,-231.213"/>
<polygon fill="black" stroke="black" points="271.513,-232.975 276.627,-231.591 271.767,-229.484 271.513,-232.975"/>
</g>
<!-- topo.base.simulation.EventProcessor -->
<g id="node19" class="node"><title>topo.base.simulation.EventProcessor</title>
<polygon fill="none" stroke="black" stroke-width="0.5" points="462,-210.5 268,-210.5 268,-189.5 462,-189.5 462,-210.5"/>
<text text-anchor="middle" x="365" y="-197.5" font-family="Vera" font-size="10.00">topo.base.simulation.EventProcessor</text>
</g>
<!-- param.parameterized.Parameterized&#45;&gt;topo.base.simulation.EventProcessor -->
<g id="edge16" class="edge"><title>param.parameterized.Parameterized&#45;&gt;topo.base.simulation.EventProcessor</title>
<path fill="none" stroke="black" stroke-width="0.5" d="M200.187,-211.952C220.593,-210.472 242.175,-208.907 262.76,-207.414"/>
<polygon fill="black" stroke="black" points="263.11,-209.144 267.97,-207.037 262.857,-205.653 263.11,-209.144"/>
</g>
<!-- topo.base.simulation.EPConnection -->
<g id="node26" class="node"><title>topo.base.simulation.EPConnection</title>
<polygon fill="none" stroke="black" stroke-width="0.5" points="458,-172.5 272,-172.5 272,-151.5 458,-151.5 458,-172.5"/>
<text text-anchor="middle" x="365" y="-159.5" font-family="Vera" font-size="10.00">topo.base.simulation.EPConnection</text>
</g>
<!-- param.parameterized.Parameterized&#45;&gt;topo.base.simulation.EPConnection -->
<g id="edge24" class="edge"><title>param.parameterized.Parameterized&#45;&gt;topo.base.simulation.EPConnection</title>
<path fill="none" stroke="black" stroke-width="0.5" d="M135.602,-208.958C163.609,-200.604 205.176,-188.851 242,-181 256.145,-177.984 271.301,-175.247 285.974,-172.848"/>
<polygon fill="black" stroke="black" points="286.272,-174.572 290.929,-172.047 285.714,-171.117 286.272,-174.572"/>
</g>
<!-- topo.base.simulation.RealTimeSimulation -->
<g id="node6" class="node"><title>topo.base.simulation.RealTimeSimulation</title>
<polygon fill="none" stroke="black" stroke-width="0.5" points="748,-286.5 534,-286.5 534,-265.5 748,-265.5 748,-286.5"/>
<text text-anchor="middle" x="641" y="-273.5" font-family="Vera" font-size="10.00">topo.base.simulation.RealTimeSimulation</text>
</g>
<!-- topo.base.simulation.Simulation&#45;&gt;topo.base.simulation.RealTimeSimulation -->
<g id="edge4" class="edge"><title>topo.base.simulation.Simulation&#45;&gt;topo.base.simulation.RealTimeSimulation</title>
<path fill="none" stroke="black" stroke-width="0.5" d="M450.815,-276C475.442,-276 502.669,-276 528.64,-276"/>
<polygon fill="black" stroke="black" points="528.816,-277.75 533.816,-276 528.816,-274.25 528.816,-277.75"/>
</g>
<!-- param.parameterized.Parameter -->
<g id="node9" class="node"><title>param.parameterized.Parameter</title>
<polygon fill="none" stroke="black" stroke-width="0.5" points="190,-324.5 16,-324.5 16,-303.5 190,-303.5 190,-324.5"/>
<text text-anchor="middle" x="103" y="-311.5" font-family="Vera" font-size="10.00">param.parameterized.Parameter</text>
</g>
<!-- topo.base.simulation.EventProcessorParameter -->
<g id="node22" class="node"><title>topo.base.simulation.EventProcessorParameter</title>
<polygon fill="none" stroke="black" stroke-width="0.5" points="487,-324.5 243,-324.5 243,-303.5 487,-303.5 487,-324.5"/>
<text text-anchor="middle" x="365" y="-311.5" font-family="Vera" font-size="10.00">topo.base.simulation.EventProcessorParameter</text>
</g>
<!-- param.parameterized.Parameter&#45;&gt;topo.base.simulation.EventProcessorParameter -->
<g id="edge20" class="edge"><title>param.parameterized.Parameter&#45;&gt;topo.base.simulation.EventProcessorParameter</title>
<path fill="none" stroke="black" stroke-width="0.5" d="M190.606,-314C205.575,-314 221.397,-314 237.157,-314"/>
<polygon fill="black" stroke="black" points="237.498,-315.75 242.498,-314 237.498,-312.25 237.498,-315.75"/>
</g>
<!-- topo.base.simulation.OptionalSingleton -->
<g id="node17" class="node"><title>topo.base.simulation.OptionalSingleton</title>
<polygon fill="none" stroke="black" stroke-width="0.5" points="205,-286.5 1,-286.5 1,-265.5 205,-265.5 205,-286.5"/>
<text text-anchor="middle" x="103" y="-273.5" font-family="Vera" font-size="10.00">topo.base.simulation.OptionalSingleton</text>
</g>
<!-- topo.base.simulation.OptionalSingleton&#45;&gt;topo.base.simulation.Simulation -->
<g id="edge14" class="edge"><title>topo.base.simulation.OptionalSingleton&#45;&gt;topo.base.simulation.Simulation</title>
<path fill="none" stroke="black" stroke-width="0.5" d="M205.797,-276C228.36,-276 252.094,-276 274.148,-276"/>
<polygon fill="black" stroke="black" points="274.418,-277.75 279.418,-276 274.418,-274.25 274.418,-277.75"/>
</g>
</g>
</svg>
