<?xml version="1.0" encoding="UTF-8" standalone="no"?>
<!DOCTYPE svg PUBLIC "-//W3C//DTD SVG 1.1//EN"
 "http://www.w3.org/Graphics/SVG/1.1/DTD/svg11.dtd">
<!-- Generated by graphviz version 2.26.3 (20100126.1600)
 -->
<!-- Title: inheritancecf805f0ede Pages: 1 -->
<svg width="380pt" height="142pt"
 viewBox="0.00 0.00 380.00 142.00" xmlns="http://www.w3.org/2000/svg" xmlns:xlink="http://www.w3.org/1999/xlink">
<g id="graph1" class="graph" transform="scale(1 1) rotate(0) translate(4 138)">
<title>inheritancecf805f0ede</title>
<polygon fill="white" stroke="white" points="-4,5 -4,-138 377,-138 377,5 -4,5"/>
<!-- paramtk.odict.SequenceOrderedDict -->
<g id="node1" class="node"><title>paramtk.odict.SequenceOrderedDict</title>
<polygon fill="none" stroke="black" stroke-width="0.5" points="372,-20.5 180,-20.5 180,0.5 372,0.5 372,-20.5"/>
<text text-anchor="middle" x="276" y="-7.5" font-family="Vera" font-size="10.00">paramtk.odict.SequenceOrderedDict</text>
</g>
<!-- paramtk.odict.OrderedDict -->
<g id="node2" class="node"><title>paramtk.odict.OrderedDict</title>
<polygon fill="none" stroke="black" stroke-width="0.5" points="144,-20.5 5.68434e-14,-20.5 0,0.5 144,0.5 144,-20.5"/>
<text text-anchor="middle" x="72" y="-7.5" font-family="Vera" font-size="10.00">paramtk.odict.OrderedDict</text>
</g>
<!-- paramtk.odict.OrderedDict&#45;&gt;paramtk.odict.SequenceOrderedDict -->
<g id="edge2" class="edge"><title>paramtk.odict.OrderedDict&#45;&gt;paramtk.odict.SequenceOrderedDict</title>
<path fill="none" stroke="black" stroke-width="0.5" d="M144.21,-10C154.158,-10 164.521,-10 174.872,-10"/>
<polygon fill="black" stroke="black" points="174.951,-11.7501 179.951,-10 174.951,-8.2501 174.951,-11.7501"/>
</g>
<!-- paramtk.odict.Items -->
<g id="node4" class="node"><title>paramtk.odict.Items</title>
<polygon fill="none" stroke="black" stroke-width="0.5" points="128,-58.5 16,-58.5 16,-37.5 128,-37.5 128,-58.5"/>
<text text-anchor="middle" x="72" y="-45.5" font-family="Vera" font-size="10.00">paramtk.odict.Items</text>
</g>
<!-- paramtk.odict.Keys -->
<g id="node5" class="node"><title>paramtk.odict.Keys</title>
<polygon fill="none" stroke="black" stroke-width="0.5" points="126,-96.5 18,-96.5 18,-75.5 126,-75.5 126,-96.5"/>
<text text-anchor="middle" x="72" y="-83.5" font-family="Vera" font-size="10.00">paramtk.odict.Keys</text>
</g>
<!-- paramtk.odict.Values -->
<g id="node6" class="node"><title>paramtk.odict.Values</title>
<polygon fill="none" stroke="black" stroke-width="0.5" points="131,-134.5 13,-134.5 13,-113.5 131,-113.5 131,-134.5"/>
<text text-anchor="middle" x="72" y="-121.5" font-family="Vera" font-size="10.00">paramtk.odict.Values</text>
</g>
</g>
</svg>
