<?xml version="1.0" encoding="UTF-8" standalone="no"?>
<!DOCTYPE svg PUBLIC "-//W3C//DTD SVG 1.1//EN"
 "http://www.w3.org/Graphics/SVG/1.1/DTD/svg11.dtd">
<!-- Generated by graphviz version 2.26.3 (20100126.1600)
 -->
<!-- Title: inheritance8b9e1caa4a Pages: 1 -->
<svg width="768pt" height="28pt"
 viewBox="0.00 0.00 768.00 28.00" xmlns="http://www.w3.org/2000/svg" xmlns:xlink="http://www.w3.org/1999/xlink">
<g id="graph1" class="graph" transform="scale(1 1) rotate(0) translate(4 24)">
<title>inheritance8b9e1caa4a</title>
<polygon fill="white" stroke="white" points="-4,5 -4,-24 765,-24 765,5 -4,5"/>
<!-- dataviews.test.utils.IPTestCase -->
<g id="node1" class="node"><title>dataviews.test.utils.IPTestCase</title>
<polygon fill="none" stroke="black" stroke-width="0.5" points="536,-20.5 374,-20.5 374,0.5 536,0.5 536,-20.5"/>
<text text-anchor="middle" x="455" y="-7.5" font-family="Vera" font-size="10.00">dataviews.test.utils.IPTestCase</text>
</g>
<!-- dataviews.test.utils.IPHookTestCase -->
<g id="node6" class="node"><title>dataviews.test.utils.IPHookTestCase</title>
<polygon fill="none" stroke="black" stroke-width="0.5" points="759,-20.5 573,-20.5 573,0.5 759,0.5 759,-20.5"/>
<text text-anchor="middle" x="666" y="-7.5" font-family="Vera" font-size="10.00">dataviews.test.utils.IPHookTestCase</text>
</g>
<!-- dataviews.test.utils.IPTestCase&#45;&gt;dataviews.test.utils.IPHookTestCase -->
<g id="edge6" class="edge"><title>dataviews.test.utils.IPTestCase&#45;&gt;dataviews.test.utils.IPHookTestCase</title>
<path fill="none" stroke="black" stroke-width="0.5" d="M536.276,-10C546.453,-10 556.947,-10 567.352,-10"/>
<polygon fill="black" stroke="black" points="567.45,-11.7501 572.45,-10 567.45,-8.2501 567.45,-11.7501"/>
</g>
<!-- dataviews.test.utils.ViewTestCase -->
<g id="node2" class="node"><title>dataviews.test.utils.ViewTestCase</title>
<polygon fill="none" stroke="black" stroke-width="0.5" points="338,-20.5 162,-20.5 162,0.5 338,0.5 338,-20.5"/>
<text text-anchor="middle" x="250" y="-7.5" font-family="Vera" font-size="10.00">dataviews.test.utils.ViewTestCase</text>
</g>
<!-- dataviews.test.utils.ViewTestCase&#45;&gt;dataviews.test.utils.IPTestCase -->
<g id="edge2" class="edge"><title>dataviews.test.utils.ViewTestCase&#45;&gt;dataviews.test.utils.IPTestCase</title>
<path fill="none" stroke="black" stroke-width="0.5" d="M338.128,-10C348.201,-10 358.463,-10 368.514,-10"/>
<polygon fill="black" stroke="black" points="368.749,-11.7501 373.749,-10 368.749,-8.2501 368.749,-11.7501"/>
</g>
<!-- unittest.case.TestCase -->
<g id="node4" class="node"><title>unittest.case.TestCase</title>
<polygon fill="none" stroke="black" stroke-width="0.5" points="125,-20.5 1,-20.5 1,0.5 125,0.5 125,-20.5"/>
<text text-anchor="middle" x="63" y="-7.5" font-family="Vera" font-size="10.00">unittest.case.TestCase</text>
</g>
<!-- unittest.case.TestCase&#45;&gt;dataviews.test.utils.ViewTestCase -->
<g id="edge4" class="edge"><title>unittest.case.TestCase&#45;&gt;dataviews.test.utils.ViewTestCase</title>
<path fill="none" stroke="black" stroke-width="0.5" d="M125.528,-10C135.565,-10 146.139,-10 156.709,-10"/>
<polygon fill="black" stroke="black" points="156.896,-11.7501 161.896,-10 156.896,-8.2501 156.896,-11.7501"/>
</g>
</g>
</svg>
