<?xml version="1.0" encoding="UTF-8" standalone="no"?>
<!DOCTYPE svg PUBLIC "-//W3C//DTD SVG 1.1//EN"
 "http://www.w3.org/Graphics/SVG/1.1/DTD/svg11.dtd">
<!-- Generated by graphviz version 2.26.3 (20100126.1600)
 -->
<!-- Title: inheritance7e624f3f72 Pages: 1 -->
<svg width="1190pt" height="218pt"
 viewBox="0.00 0.00 1190.00 218.00" xmlns="http://www.w3.org/2000/svg" xmlns:xlink="http://www.w3.org/1999/xlink">
<g id="graph1" class="graph" transform="scale(1 1) rotate(0) translate(4 214)">
<title>inheritance7e624f3f72</title>
<polygon fill="white" stroke="white" points="-4,5 -4,-214 1187,-214 1187,5 -4,5"/>
<!-- dataviews.ndmapping.NdIndexableMapping -->
<g id="node1" class="node"><title>dataviews.ndmapping.NdIndexableMapping</title>
<polygon fill="none" stroke="black" stroke-width="0.5" points="454,-153.5 230,-153.5 230,-132.5 454,-132.5 454,-153.5"/>
<text text-anchor="middle" x="342" y="-140.5" font-family="Vera" font-size="10.00">dataviews.ndmapping.NdIndexableMapping</text>
</g>
<!-- dataviews.ndmapping.NdMapping -->
<g id="node12" class="node"><title>dataviews.ndmapping.NdMapping</title>
<polygon fill="none" stroke="black" stroke-width="0.5" points="703,-172.5 525,-172.5 525,-151.5 703,-151.5 703,-172.5"/>
<text text-anchor="middle" x="614" y="-159.5" font-family="Vera" font-size="10.00">dataviews.ndmapping.NdMapping</text>
</g>
<!-- dataviews.ndmapping.NdIndexableMapping&#45;&gt;dataviews.ndmapping.NdMapping -->
<g id="edge28" class="edge"><title>dataviews.ndmapping.NdIndexableMapping&#45;&gt;dataviews.ndmapping.NdMapping</title>
<path fill="none" stroke="black" stroke-width="0.5" d="M454.203,-150.838C476.015,-152.361 498.67,-153.944 519.828,-155.422"/>
<polygon fill="black" stroke="black" points="519.777,-157.172 524.887,-155.775 520.021,-153.681 519.777,-157.172"/>
</g>
<!-- param.parameterized.Parameterized -->
<g id="node2" class="node"><title>param.parameterized.Parameterized</title>
<polygon fill="none" stroke="black" stroke-width="0.5" points="194,-96.5 5.68434e-14,-96.5 0,-75.5 194,-75.5 194,-96.5"/>
<text text-anchor="middle" x="97" y="-83.5" font-family="Vera" font-size="10.00">param.parameterized.Parameterized</text>
</g>
<!-- param.parameterized.Parameterized&#45;&gt;dataviews.ndmapping.NdIndexableMapping -->
<g id="edge2" class="edge"><title>param.parameterized.Parameterized&#45;&gt;dataviews.ndmapping.NdIndexableMapping</title>
<path fill="none" stroke="black" stroke-width="0.5" d="M140.237,-96.0592C183.226,-106.061 249.039,-121.372 293.715,-131.766"/>
<polygon fill="black" stroke="black" points="293.517,-133.517 298.784,-132.946 294.31,-130.108 293.517,-133.517"/>
</g>
<!-- dataviews.views.View -->
<g id="node5" class="node"><title>dataviews.views.View</title>
<polygon fill="none" stroke="black" stroke-width="0.5" points="400,-77.5 284,-77.5 284,-56.5 400,-56.5 400,-77.5"/>
<text text-anchor="middle" x="342" y="-64.5" font-family="Vera" font-size="10.00">dataviews.views.View</text>
</g>
<!-- param.parameterized.Parameterized&#45;&gt;dataviews.views.View -->
<g id="edge24" class="edge"><title>param.parameterized.Parameterized&#45;&gt;dataviews.views.View</title>
<path fill="none" stroke="black" stroke-width="0.5" d="M194.182,-78.4634C222.489,-76.2682 252.681,-73.9268 278.35,-71.9361"/>
<polygon fill="black" stroke="black" points="278.573,-73.6742 283.422,-71.5428 278.302,-70.1847 278.573,-73.6742"/>
</g>
<!-- dataviews.sheetviews.SheetLayer -->
<g id="node4" class="node"><title>dataviews.sheetviews.SheetLayer</title>
<polygon fill="none" stroke="black" stroke-width="0.5" points="702,-77.5 526,-77.5 526,-56.5 702,-56.5 702,-77.5"/>
<text text-anchor="middle" x="614" y="-64.5" font-family="Vera" font-size="10.00">dataviews.sheetviews.SheetLayer</text>
</g>
<!-- dataviews.sheetviews.SheetView -->
<g id="node7" class="node"><title>dataviews.sheetviews.SheetView</title>
<polygon fill="none" stroke="black" stroke-width="0.5" points="957,-134.5 785,-134.5 785,-113.5 957,-113.5 957,-134.5"/>
<text text-anchor="middle" x="871" y="-121.5" font-family="Vera" font-size="10.00">dataviews.sheetviews.SheetView</text>
</g>
<!-- dataviews.sheetviews.SheetLayer&#45;&gt;dataviews.sheetviews.SheetView -->
<g id="edge6" class="edge"><title>dataviews.sheetviews.SheetLayer&#45;&gt;dataviews.sheetviews.SheetView</title>
<path fill="none" stroke="black" stroke-width="0.5" d="M654.34,-77.0497C686.632,-84.9809 733.122,-96.1458 774,-105 786.511,-107.71 799.967,-110.454 812.755,-112.982"/>
<polygon fill="black" stroke="black" points="812.565,-114.728 817.809,-113.977 813.241,-111.294 812.565,-114.728"/>
</g>
<!-- dataviews.sheetviews.Points -->
<g id="node19" class="node"><title>dataviews.sheetviews.Points</title>
<polygon fill="none" stroke="black" stroke-width="0.5" points="947,-96.5 795,-96.5 795,-75.5 947,-75.5 947,-96.5"/>
<text text-anchor="middle" x="871" y="-83.5" font-family="Vera" font-size="10.00">dataviews.sheetviews.Points</text>
</g>
<!-- dataviews.sheetviews.SheetLayer&#45;&gt;dataviews.sheetviews.Points -->
<g id="edge18" class="edge"><title>dataviews.sheetviews.SheetLayer&#45;&gt;dataviews.sheetviews.Points</title>
<path fill="none" stroke="black" stroke-width="0.5" d="M702.805,-73.5653C730.941,-75.6455 761.894,-77.9338 789.492,-79.9741"/>
<polygon fill="black" stroke="black" points="789.49,-81.7286 794.605,-80.3521 789.748,-78.2381 789.49,-81.7286"/>
</g>
<!-- dataviews.sheetviews.Contours -->
<g id="node21" class="node"><title>dataviews.sheetviews.Contours</title>
<polygon fill="none" stroke="black" stroke-width="0.5" points="954,-58.5 788,-58.5 788,-37.5 954,-37.5 954,-58.5"/>
<text text-anchor="middle" x="871" y="-45.5" font-family="Vera" font-size="10.00">dataviews.sheetviews.Contours</text>
</g>
<!-- dataviews.sheetviews.SheetLayer&#45;&gt;dataviews.sheetviews.Contours -->
<g id="edge20" class="edge"><title>dataviews.sheetviews.SheetLayer&#45;&gt;dataviews.sheetviews.Contours</title>
<path fill="none" stroke="black" stroke-width="0.5" d="M702.805,-60.4347C728.648,-58.524 756.867,-56.4378 782.681,-54.5294"/>
<polygon fill="black" stroke="black" points="782.953,-56.2642 787.81,-54.1502 782.695,-52.7737 782.953,-56.2642"/>
</g>
<!-- dataviews.sheetviews.SheetOverlay -->
<g id="node29" class="node"><title>dataviews.sheetviews.SheetOverlay</title>
<polygon fill="none" stroke="black" stroke-width="0.5" points="964,-20.5 778,-20.5 778,0.5 964,0.5 964,-20.5"/>
<text text-anchor="middle" x="871" y="-7.5" font-family="Vera" font-size="10.00">dataviews.sheetviews.SheetOverlay</text>
</g>
<!-- dataviews.sheetviews.SheetLayer&#45;&gt;dataviews.sheetviews.SheetOverlay -->
<g id="edge30" class="edge"><title>dataviews.sheetviews.SheetLayer&#45;&gt;dataviews.sheetviews.SheetOverlay</title>
<path fill="none" stroke="black" stroke-width="0.5" d="M702.584,-57.1319C714.636,-54.7182 726.729,-51.7206 738,-48 755.18,-42.329 756.941,-35.0252 774,-29 782.533,-25.9862 791.666,-23.4078 800.791,-21.2134"/>
<polygon fill="black" stroke="black" points="801.383,-22.8724 805.855,-20.0334 800.588,-19.4637 801.383,-22.8724"/>
</g>
<!-- dataviews.views.View&#45;&gt;dataviews.sheetviews.SheetLayer -->
<g id="edge4" class="edge"><title>dataviews.views.View&#45;&gt;dataviews.sheetviews.SheetLayer</title>
<path fill="none" stroke="black" stroke-width="0.5" d="M400.685,-67C435.51,-67 480.462,-67 520.115,-67"/>
<polygon fill="black" stroke="black" points="520.423,-68.7501 525.423,-67 520.423,-65.2501 520.423,-68.7501"/>
</g>
<!-- dataviews.views.Overlay -->
<g id="node26" class="node"><title>dataviews.views.Overlay</title>
<polygon fill="none" stroke="black" stroke-width="0.5" points="679,-39.5 549,-39.5 549,-18.5 679,-18.5 679,-39.5"/>
<text text-anchor="middle" x="614" y="-26.5" font-family="Vera" font-size="10.00">dataviews.views.Overlay</text>
</g>
<!-- dataviews.views.View&#45;&gt;dataviews.views.Overlay -->
<g id="edge26" class="edge"><title>dataviews.views.View&#45;&gt;dataviews.views.Overlay</title>
<path fill="none" stroke="black" stroke-width="0.5" d="M400.685,-58.8013C442.49,-52.961 498.89,-45.0816 543.196,-38.8917"/>
<polygon fill="black" stroke="black" points="543.554,-40.6088 548.263,-38.1838 543.069,-37.1425 543.554,-40.6088"/>
</g>
<!-- dataviews.sheetcoords.SheetCoordinateSystem -->
<g id="node9" class="node"><title>dataviews.sheetcoords.SheetCoordinateSystem</title>
<polygon fill="none" stroke="black" stroke-width="0.5" points="737,-134.5 491,-134.5 491,-113.5 737,-113.5 737,-134.5"/>
<text text-anchor="middle" x="614" y="-121.5" font-family="Vera" font-size="10.00">dataviews.sheetcoords.SheetCoordinateSystem</text>
</g>
<!-- dataviews.sheetcoords.SheetCoordinateSystem&#45;&gt;dataviews.sheetviews.SheetView -->
<g id="edge8" class="edge"><title>dataviews.sheetcoords.SheetCoordinateSystem&#45;&gt;dataviews.sheetviews.SheetView</title>
<path fill="none" stroke="black" stroke-width="0.5" d="M737.607,-124C751.57,-124 765.611,-124 779.067,-124"/>
<polygon fill="black" stroke="black" points="779.394,-125.75 784.394,-124 779.394,-122.25 779.394,-125.75"/>
</g>
<!-- dataviews.sheetviews.CoordinateGrid -->
<g id="node15" class="node"><title>dataviews.sheetviews.CoordinateGrid</title>
<polygon fill="none" stroke="black" stroke-width="0.5" points="968,-172.5 774,-172.5 774,-151.5 968,-151.5 968,-172.5"/>
<text text-anchor="middle" x="871" y="-159.5" font-family="Vera" font-size="10.00">dataviews.sheetviews.CoordinateGrid</text>
</g>
<!-- dataviews.sheetcoords.SheetCoordinateSystem&#45;&gt;dataviews.sheetviews.CoordinateGrid -->
<g id="edge16" class="edge"><title>dataviews.sheetcoords.SheetCoordinateSystem&#45;&gt;dataviews.sheetviews.CoordinateGrid</title>
<path fill="none" stroke="black" stroke-width="0.5" d="M681.86,-134.034C717.579,-139.315 761.41,-145.796 797.88,-151.189"/>
<polygon fill="black" stroke="black" points="798.004,-152.976 803.206,-151.976 798.516,-149.513 798.004,-152.976"/>
</g>
<!-- dataviews.dataviews.Stack -->
<g id="node11" class="node"><title>dataviews.dataviews.Stack</title>
<polygon fill="none" stroke="black" stroke-width="0.5" points="943,-210.5 799,-210.5 799,-189.5 943,-189.5 943,-210.5"/>
<text text-anchor="middle" x="871" y="-197.5" font-family="Vera" font-size="10.00">dataviews.dataviews.Stack</text>
</g>
<!-- dataviews.sheetviews.SheetStack -->
<g id="node23" class="node"><title>dataviews.sheetviews.SheetStack</title>
<polygon fill="none" stroke="black" stroke-width="0.5" points="1182,-210.5 1004,-210.5 1004,-189.5 1182,-189.5 1182,-210.5"/>
<text text-anchor="middle" x="1093" y="-197.5" font-family="Vera" font-size="10.00">dataviews.sheetviews.SheetStack</text>
</g>
<!-- dataviews.dataviews.Stack&#45;&gt;dataviews.sheetviews.SheetStack -->
<g id="edge22" class="edge"><title>dataviews.dataviews.Stack&#45;&gt;dataviews.sheetviews.SheetStack</title>
<path fill="none" stroke="black" stroke-width="0.5" d="M943.077,-200C960.783,-200 980.002,-200 998.587,-200"/>
<polygon fill="black" stroke="black" points="998.81,-201.75 1003.81,-200 998.81,-198.25 998.81,-201.75"/>
</g>
<!-- dataviews.ndmapping.NdMapping&#45;&gt;dataviews.dataviews.Stack -->
<g id="edge10" class="edge"><title>dataviews.ndmapping.NdMapping&#45;&gt;dataviews.dataviews.Stack</title>
<path fill="none" stroke="black" stroke-width="0.5" d="M681.86,-172.034C717.579,-177.315 761.41,-183.796 797.88,-189.189"/>
<polygon fill="black" stroke="black" points="798.004,-190.976 803.206,-189.976 798.516,-187.513 798.004,-190.976"/>
</g>
<!-- dataviews.ndmapping.NdMapping&#45;&gt;dataviews.sheetviews.CoordinateGrid -->
<g id="edge14" class="edge"><title>dataviews.ndmapping.NdMapping&#45;&gt;dataviews.sheetviews.CoordinateGrid</title>
<path fill="none" stroke="black" stroke-width="0.5" d="M703.165,-162C724.237,-162 746.871,-162 768.481,-162"/>
<polygon fill="black" stroke="black" points="768.658,-163.75 773.658,-162 768.658,-160.25 768.658,-163.75"/>
</g>
<!-- dataviews.sheetviews.DataGrid -->
<g id="node14" class="node"><title>dataviews.sheetviews.DataGrid</title>
<polygon fill="none" stroke="black" stroke-width="0.5" points="1175,-172.5 1011,-172.5 1011,-151.5 1175,-151.5 1175,-172.5"/>
<text text-anchor="middle" x="1093" y="-159.5" font-family="Vera" font-size="10.00">dataviews.sheetviews.DataGrid</text>
</g>
<!-- dataviews.sheetviews.CoordinateGrid&#45;&gt;dataviews.sheetviews.DataGrid -->
<g id="edge12" class="edge"><title>dataviews.sheetviews.CoordinateGrid&#45;&gt;dataviews.sheetviews.DataGrid</title>
<path fill="none" stroke="black" stroke-width="0.5" d="M968.049,-162C980.402,-162 992.989,-162 1005.19,-162"/>
<polygon fill="black" stroke="black" points="1005.39,-163.75 1010.39,-162 1005.39,-160.25 1005.39,-163.75"/>
</g>
<!-- dataviews.views.Overlay&#45;&gt;dataviews.sheetviews.SheetOverlay -->
<g id="edge32" class="edge"><title>dataviews.views.Overlay&#45;&gt;dataviews.sheetviews.SheetOverlay</title>
<path fill="none" stroke="black" stroke-width="0.5" d="M679.517,-24.1563C707.634,-22.0777 741.095,-19.6039 772.12,-17.3102"/>
<polygon fill="black" stroke="black" points="772.621,-19.028 777.479,-16.914 772.363,-15.5375 772.621,-19.028"/>
</g>
</g>
</svg>
