<?xml version="1.0" encoding="UTF-8" standalone="no"?>
<!DOCTYPE svg PUBLIC "-//W3C//DTD SVG 1.1//EN"
 "http://www.w3.org/Graphics/SVG/1.1/DTD/svg11.dtd">
<!-- Generated by graphviz version 2.26.3 (20100126.1600)
 -->
<!-- Title: inheritanceea4ef9e090 Pages: 1 -->
<svg width="910pt" height="256pt"
 viewBox="0.00 0.00 910.00 256.00" xmlns="http://www.w3.org/2000/svg" xmlns:xlink="http://www.w3.org/1999/xlink">
<g id="graph1" class="graph" transform="scale(1 1) rotate(0) translate(4 252)">
<title>inheritanceea4ef9e090</title>
<polygon fill="white" stroke="white" points="-4,5 -4,-252 907,-252 907,5 -4,5"/>
<!-- imagen.ndmapping.NdIndexableMapping -->
<g id="node1" class="node"><title>imagen.ndmapping.NdIndexableMapping</title>
<polygon fill="none" stroke="black" stroke-width="0.5" points="442,-162.5 230,-162.5 230,-141.5 442,-141.5 442,-162.5"/>
<text text-anchor="middle" x="336" y="-149.5" font-family="Vera" font-size="10.00">imagen.ndmapping.NdIndexableMapping</text>
</g>
<!-- imagen.ndmapping.NdMapping -->
<g id="node4" class="node"><title>imagen.ndmapping.NdMapping</title>
<polygon fill="none" stroke="black" stroke-width="0.5" points="679,-200.5 513,-200.5 513,-179.5 679,-179.5 679,-200.5"/>
<text text-anchor="middle" x="596" y="-187.5" font-family="Vera" font-size="10.00">imagen.ndmapping.NdMapping</text>
</g>
<!-- imagen.ndmapping.NdIndexableMapping&#45;&gt;imagen.ndmapping.NdMapping -->
<g id="edge4" class="edge"><title>imagen.ndmapping.NdIndexableMapping&#45;&gt;imagen.ndmapping.NdMapping</title>
<path fill="none" stroke="black" stroke-width="0.5" d="M404.652,-162.034C440.788,-167.315 485.13,-173.796 522.027,-179.189"/>
<polygon fill="black" stroke="black" points="522.214,-180.984 527.414,-179.976 522.72,-177.521 522.214,-180.984"/>
</g>
<!-- param.parameterized.Parameterized -->
<g id="node2" class="node"><title>param.parameterized.Parameterized</title>
<polygon fill="none" stroke="black" stroke-width="0.5" points="194,-86.5 5.68434e-14,-86.5 0,-65.5 194,-65.5 194,-86.5"/>
<text text-anchor="middle" x="97" y="-73.5" font-family="Vera" font-size="10.00">param.parameterized.Parameterized</text>
</g>
<!-- param.parameterized.Parameterized&#45;&gt;imagen.ndmapping.NdIndexableMapping -->
<g id="edge2" class="edge"><title>param.parameterized.Parameterized&#45;&gt;imagen.ndmapping.NdIndexableMapping</title>
<path fill="none" stroke="black" stroke-width="0.5" d="M128.737,-86.0922C172.965,-100.156 252.937,-125.587 299.553,-140.41"/>
<polygon fill="black" stroke="black" points="299.217,-142.14 304.512,-141.987 300.277,-138.804 299.217,-142.14"/>
</g>
<!-- imagen.views.View -->
<g id="node14" class="node"><title>imagen.views.View</title>
<polygon fill="none" stroke="black" stroke-width="0.5" points="389,-86.5 283,-86.5 283,-65.5 389,-65.5 389,-86.5"/>
<text text-anchor="middle" x="336" y="-73.5" font-family="Vera" font-size="10.00">imagen.views.View</text>
</g>
<!-- param.parameterized.Parameterized&#45;&gt;imagen.views.View -->
<g id="edge32" class="edge"><title>param.parameterized.Parameterized&#45;&gt;imagen.views.View</title>
<path fill="none" stroke="black" stroke-width="0.5" d="M194.21,-76C222.443,-76 252.397,-76 277.463,-76"/>
<polygon fill="black" stroke="black" points="277.736,-77.7501 282.735,-76 277.735,-74.2501 277.736,-77.7501"/>
</g>
<!-- imagen.views.Timeline -->
<g id="node19" class="node"><title>imagen.views.Timeline</title>
<polygon fill="none" stroke="black" stroke-width="0.5" points="398,-48.5 274,-48.5 274,-27.5 398,-27.5 398,-48.5"/>
<text text-anchor="middle" x="336" y="-35.5" font-family="Vera" font-size="10.00">imagen.views.Timeline</text>
</g>
<!-- param.parameterized.Parameterized&#45;&gt;imagen.views.Timeline -->
<g id="edge18" class="edge"><title>param.parameterized.Parameterized&#45;&gt;imagen.views.Timeline</title>
<path fill="none" stroke="black" stroke-width="0.5" d="M160.107,-65.9662C193.588,-60.6429 234.733,-54.1011 268.808,-48.6833"/>
<polygon fill="black" stroke="black" points="269.119,-50.4059 273.782,-47.8924 268.569,-46.9493 269.119,-50.4059"/>
</g>
<!-- imagen.views.ProjectionGrid -->
<g id="node6" class="node"><title>imagen.views.ProjectionGrid</title>
<polygon fill="none" stroke="black" stroke-width="0.5" points="901,-172.5 751,-172.5 751,-151.5 901,-151.5 901,-172.5"/>
<text text-anchor="middle" x="826" y="-159.5" font-family="Vera" font-size="10.00">imagen.views.ProjectionGrid</text>
</g>
<!-- imagen.ndmapping.NdMapping&#45;&gt;imagen.views.ProjectionGrid -->
<g id="edge6" class="edge"><title>imagen.ndmapping.NdMapping&#45;&gt;imagen.views.ProjectionGrid</title>
<path fill="none" stroke="black" stroke-width="0.5" d="M678.386,-179.97C700.104,-177.326 723.514,-174.477 745.151,-171.843"/>
<polygon fill="black" stroke="black" points="745.567,-173.555 750.319,-171.213 745.144,-170.081 745.567,-173.555"/>
</g>
<!-- imagen.views.SheetStack -->
<g id="node24" class="node"><title>imagen.views.SheetStack</title>
<polygon fill="none" stroke="black" stroke-width="0.5" points="896,-210.5 756,-210.5 756,-189.5 896,-189.5 896,-210.5"/>
<text text-anchor="middle" x="826" y="-197.5" font-family="Vera" font-size="10.00">imagen.views.SheetStack</text>
</g>
<!-- imagen.ndmapping.NdMapping&#45;&gt;imagen.views.SheetStack -->
<g id="edge24" class="edge"><title>imagen.ndmapping.NdMapping&#45;&gt;imagen.views.SheetStack</title>
<path fill="none" stroke="black" stroke-width="0.5" d="M679.686,-193.639C702.971,-194.651 728.111,-195.744 750.872,-196.734"/>
<polygon fill="black" stroke="black" points="750.922,-198.487 755.993,-196.956 751.074,-194.991 750.922,-198.487"/>
</g>
<!-- imagen.views.GridLayout -->
<g id="node26" class="node"><title>imagen.views.GridLayout</title>
<polygon fill="none" stroke="black" stroke-width="0.5" points="894,-248.5 758,-248.5 758,-227.5 894,-227.5 894,-248.5"/>
<text text-anchor="middle" x="826" y="-235.5" font-family="Vera" font-size="10.00">imagen.views.GridLayout</text>
</g>
<!-- imagen.ndmapping.NdMapping&#45;&gt;imagen.views.GridLayout -->
<g id="edge26" class="edge"><title>imagen.ndmapping.NdMapping&#45;&gt;imagen.views.GridLayout</title>
<path fill="none" stroke="black" stroke-width="0.5" d="M643.936,-200.004C681.482,-207.84 733.69,-218.735 772.576,-226.851"/>
<polygon fill="black" stroke="black" points="772.479,-228.618 777.731,-227.926 773.194,-225.192 772.479,-228.618"/>
</g>
<!-- imagen.sheetcoords.SheetCoordinateSystem -->
<g id="node8" class="node"><title>imagen.sheetcoords.SheetCoordinateSystem</title>
<polygon fill="none" stroke="black" stroke-width="0.5" points="714,-143.5 478,-143.5 478,-122.5 714,-122.5 714,-143.5"/>
<text text-anchor="middle" x="596" y="-130.5" font-family="Vera" font-size="10.00">imagen.sheetcoords.SheetCoordinateSystem</text>
</g>
<!-- imagen.sheetcoords.SheetCoordinateSystem&#45;&gt;imagen.views.ProjectionGrid -->
<g id="edge8" class="edge"><title>imagen.sheetcoords.SheetCoordinateSystem&#45;&gt;imagen.views.ProjectionGrid</title>
<path fill="none" stroke="black" stroke-width="0.5" d="M675.475,-143.021C698.049,-145.867 722.648,-148.969 745.293,-151.824"/>
<polygon fill="black" stroke="black" points="745.217,-153.578 750.396,-152.467 745.655,-150.106 745.217,-153.578"/>
</g>
<!-- imagen.views.SheetView -->
<g id="node21" class="node"><title>imagen.views.SheetView</title>
<polygon fill="none" stroke="black" stroke-width="0.5" points="893,-134.5 759,-134.5 759,-113.5 893,-113.5 893,-134.5"/>
<text text-anchor="middle" x="826" y="-121.5" font-family="Vera" font-size="10.00">imagen.views.SheetView</text>
</g>
<!-- imagen.sheetcoords.SheetCoordinateSystem&#45;&gt;imagen.views.SheetView -->
<g id="edge22" class="edge"><title>imagen.sheetcoords.SheetCoordinateSystem&#45;&gt;imagen.views.SheetView</title>
<path fill="none" stroke="black" stroke-width="0.5" d="M714.032,-128.381C727.567,-127.852 741.045,-127.324 753.717,-126.828"/>
<polygon fill="black" stroke="black" points="753.791,-128.577 758.719,-126.633 753.654,-125.08 753.791,-128.577"/>
</g>
<!-- imagen.views.SheetPoints -->
<g id="node10" class="node"><title>imagen.views.SheetPoints</title>
<polygon fill="none" stroke="black" stroke-width="0.5" points="897,-58.5 755,-58.5 755,-37.5 897,-37.5 897,-58.5"/>
<text text-anchor="middle" x="826" y="-45.5" font-family="Vera" font-size="10.00">imagen.views.SheetPoints</text>
</g>
<!-- imagen.views.SheetLayer -->
<g id="node11" class="node"><title>imagen.views.SheetLayer</title>
<polygon fill="none" stroke="black" stroke-width="0.5" points="665,-86.5 527,-86.5 527,-65.5 665,-65.5 665,-86.5"/>
<text text-anchor="middle" x="596" y="-73.5" font-family="Vera" font-size="10.00">imagen.views.SheetLayer</text>
</g>
<!-- imagen.views.SheetLayer&#45;&gt;imagen.views.SheetPoints -->
<g id="edge10" class="edge"><title>imagen.views.SheetLayer&#45;&gt;imagen.views.SheetPoints</title>
<path fill="none" stroke="black" stroke-width="0.5" d="M665.632,-67.5231C692.144,-64.2955 722.487,-60.6016 749.594,-57.3016"/>
<polygon fill="black" stroke="black" points="749.864,-59.0317 754.616,-56.6902 749.441,-55.5573 749.864,-59.0317"/>
</g>
<!-- imagen.views.SheetOverlay -->
<g id="node16" class="node"><title>imagen.views.SheetOverlay</title>
<polygon fill="none" stroke="black" stroke-width="0.5" points="900,-20.5 752,-20.5 752,0.5 900,0.5 900,-20.5"/>
<text text-anchor="middle" x="826" y="-7.5" font-family="Vera" font-size="10.00">imagen.views.SheetOverlay</text>
</g>
<!-- imagen.views.SheetLayer&#45;&gt;imagen.views.SheetOverlay -->
<g id="edge14" class="edge"><title>imagen.views.SheetLayer&#45;&gt;imagen.views.SheetOverlay</title>
<path fill="none" stroke="black" stroke-width="0.5" d="M627.127,-65.9874C658.137,-56.134 707.171,-40.8808 750,-29 759.375,-26.3995 769.444,-23.7688 779.088,-21.3278"/>
<polygon fill="black" stroke="black" points="779.665,-22.9873 784.087,-20.0699 778.811,-19.5932 779.665,-22.9873"/>
</g>
<!-- imagen.views.SheetLayer&#45;&gt;imagen.views.SheetView -->
<g id="edge20" class="edge"><title>imagen.views.SheetLayer&#45;&gt;imagen.views.SheetView</title>
<path fill="none" stroke="black" stroke-width="0.5" d="M643.936,-86.0039C681.482,-93.8398 733.69,-104.735 772.576,-112.851"/>
<polygon fill="black" stroke="black" points="772.479,-114.618 777.731,-113.926 773.194,-111.192 772.479,-114.618"/>
</g>
<!-- imagen.views.SheetLines -->
<g id="node28" class="node"><title>imagen.views.SheetLines</title>
<polygon fill="none" stroke="black" stroke-width="0.5" points="894,-96.5 758,-96.5 758,-75.5 894,-75.5 894,-96.5"/>
<text text-anchor="middle" x="826" y="-83.5" font-family="Vera" font-size="10.00">imagen.views.SheetLines</text>
</g>
<!-- imagen.views.SheetLayer&#45;&gt;imagen.views.SheetLines -->
<g id="edge28" class="edge"><title>imagen.views.SheetLayer&#45;&gt;imagen.views.SheetLines</title>
<path fill="none" stroke="black" stroke-width="0.5" d="M665.632,-79.0275C693.015,-80.218 724.486,-81.5863 752.256,-82.7937"/>
<polygon fill="black" stroke="black" points="752.325,-84.5483 757.396,-83.0172 752.477,-81.0516 752.325,-84.5483"/>
</g>
<!-- imagen.views.Overlay -->
<g id="node13" class="node"><title>imagen.views.Overlay</title>
<polygon fill="none" stroke="black" stroke-width="0.5" points="656,-29.5 536,-29.5 536,-8.5 656,-8.5 656,-29.5"/>
<text text-anchor="middle" x="596" y="-16.5" font-family="Vera" font-size="10.00">imagen.views.Overlay</text>
</g>
<!-- imagen.views.Overlay&#45;&gt;imagen.views.SheetOverlay -->
<g id="edge16" class="edge"><title>imagen.views.Overlay&#45;&gt;imagen.views.SheetOverlay</title>
<path fill="none" stroke="black" stroke-width="0.5" d="M656.129,-16.6471C683.684,-15.5689 716.728,-14.2758 746.318,-13.118"/>
<polygon fill="black" stroke="black" points="746.489,-14.8627 751.417,-12.9185 746.352,-11.3654 746.489,-14.8627"/>
</g>
<!-- imagen.views.View&#45;&gt;imagen.views.SheetLayer -->
<g id="edge30" class="edge"><title>imagen.views.View&#45;&gt;imagen.views.SheetLayer</title>
<path fill="none" stroke="black" stroke-width="0.5" d="M389.242,-76C427.217,-76 478.807,-76 520.953,-76"/>
<polygon fill="black" stroke="black" points="521.044,-77.7501 526.044,-76 521.044,-74.2501 521.044,-77.7501"/>
</g>
<!-- imagen.views.View&#45;&gt;imagen.views.Overlay -->
<g id="edge12" class="edge"><title>imagen.views.View&#45;&gt;imagen.views.Overlay</title>
<path fill="none" stroke="black" stroke-width="0.5" d="M389.241,-67.1496C406.153,-64.153 424.902,-60.6379 442,-57 479.84,-48.949 522.525,-38.2907 553.343,-30.3112"/>
<polygon fill="black" stroke="black" points="553.785,-32.0047 558.185,-29.0544 552.905,-28.6169 553.785,-32.0047"/>
</g>
</g>
</svg>
