<?xml version="1.0" encoding="UTF-8" standalone="no"?>
<!DOCTYPE svg PUBLIC "-//W3C//DTD SVG 1.1//EN"
 "http://www.w3.org/Graphics/SVG/1.1/DTD/svg11.dtd">
<!-- Generated by graphviz version 2.26.3 (20100126.1600)
 -->
<!-- Title: inheritance07d1eff978 Pages: 1 -->
<svg width="1784pt" height="28pt"
 viewBox="0.00 0.00 1784.00 28.00" xmlns="http://www.w3.org/2000/svg" xmlns:xlink="http://www.w3.org/1999/xlink">
<g id="graph1" class="graph" transform="scale(1 1) rotate(0) translate(4 24)">
<title>inheritance07d1eff978</title>
<polygon fill="white" stroke="white" points="-4,5 -4,-24 1781,-24 1781,5 -4,5"/>
<!-- topo.analysis.featureresponses.SinusoidalMeasureResponseCommand -->
<g id="node1" class="node"><title>topo.analysis.featureresponses.SinusoidalMeasureResponseCommand</title>
<polygon fill="none" stroke="black" stroke-width="0.5" points="1200,-20.5 844,-20.5 844,0.5 1200,0.5 1200,-20.5"/>
<text text-anchor="middle" x="1022" y="-7.5" font-family="Vera" font-size="10.00">topo.analysis.featureresponses.SinusoidalMeasureResponseCommand</text>
</g>
<!-- topo.command.analysis.measure_sine_pref -->
<g id="node8" class="node"><title>topo.command.analysis.measure_sine_pref</title>
<polygon fill="none" stroke="black" stroke-width="0.5" points="1462,-20.5 1236,-20.5 1236,0.5 1462,0.5 1462,-20.5"/>
<text text-anchor="middle" x="1349" y="-7.5" font-family="Vera" font-size="10.00">topo.command.analysis.measure_sine_pref</text>
</g>
<!-- topo.analysis.featureresponses.SinusoidalMeasureResponseCommand&#45;&gt;topo.command.analysis.measure_sine_pref -->
<g id="edge8" class="edge"><title>topo.analysis.featureresponses.SinusoidalMeasureResponseCommand&#45;&gt;topo.command.analysis.measure_sine_pref</title>
<path fill="none" stroke="black" stroke-width="0.5" d="M1200.33,-10C1210.51,-10 1220.62,-10 1230.48,-10"/>
<polygon fill="black" stroke="black" points="1230.62,-11.7501 1235.62,-10 1230.62,-8.2501 1230.62,-11.7501"/>
</g>
<!-- topo.analysis.featureresponses.MeasureResponseCommand -->
<g id="node2" class="node"><title>topo.analysis.featureresponses.MeasureResponseCommand</title>
<polygon fill="none" stroke="black" stroke-width="0.5" points="807,-20.5 501,-20.5 501,0.5 807,0.5 807,-20.5"/>
<text text-anchor="middle" x="654" y="-7.5" font-family="Vera" font-size="10.00">topo.analysis.featureresponses.MeasureResponseCommand</text>
</g>
<!-- topo.analysis.featureresponses.MeasureResponseCommand&#45;&gt;topo.analysis.featureresponses.SinusoidalMeasureResponseCommand -->
<g id="edge2" class="edge"><title>topo.analysis.featureresponses.MeasureResponseCommand&#45;&gt;topo.analysis.featureresponses.SinusoidalMeasureResponseCommand</title>
<path fill="none" stroke="black" stroke-width="0.5" d="M807.667,-10C817.914,-10 828.29,-10 838.663,-10"/>
<polygon fill="black" stroke="black" points="838.754,-11.7501 843.754,-10 838.754,-8.2501 838.754,-11.7501"/>
</g>
<!-- param.parameterized.ParameterizedFunction -->
<g id="node4" class="node"><title>param.parameterized.ParameterizedFunction</title>
<polygon fill="none" stroke="black" stroke-width="0.5" points="464,-20.5 230,-20.5 230,0.5 464,0.5 464,-20.5"/>
<text text-anchor="middle" x="347" y="-7.5" font-family="Vera" font-size="10.00">param.parameterized.ParameterizedFunction</text>
</g>
<!-- param.parameterized.ParameterizedFunction&#45;&gt;topo.analysis.featureresponses.MeasureResponseCommand -->
<g id="edge10" class="edge"><title>param.parameterized.ParameterizedFunction&#45;&gt;topo.analysis.featureresponses.MeasureResponseCommand</title>
<path fill="none" stroke="black" stroke-width="0.5" d="M464.378,-10C474.488,-10 484.819,-10 495.183,-10"/>
<polygon fill="black" stroke="black" points="495.273,-11.7501 500.273,-10 495.273,-8.2501 495.273,-11.7501"/>
</g>
<!-- param.parameterized.Parameterized -->
<g id="node5" class="node"><title>param.parameterized.Parameterized</title>
<polygon fill="none" stroke="black" stroke-width="0.5" points="194,-20.5 5.68434e-14,-20.5 0,0.5 194,0.5 194,-20.5"/>
<text text-anchor="middle" x="97" y="-7.5" font-family="Vera" font-size="10.00">param.parameterized.Parameterized</text>
</g>
<!-- param.parameterized.Parameterized&#45;&gt;param.parameterized.ParameterizedFunction -->
<g id="edge4" class="edge"><title>param.parameterized.Parameterized&#45;&gt;param.parameterized.ParameterizedFunction</title>
<path fill="none" stroke="black" stroke-width="0.5" d="M194.014,-10C204.04,-10 214.319,-10 224.575,-10"/>
<polygon fill="black" stroke="black" points="224.607,-11.7501 229.607,-10 224.607,-8.2501 224.607,-11.7501"/>
</g>
<!-- topo.analysis.vision.measure_and_analyze_complexity -->
<g id="node7" class="node"><title>topo.analysis.vision.measure_and_analyze_complexity</title>
<polygon fill="none" stroke="black" stroke-width="0.5" points="1776,-20.5 1498,-20.5 1498,0.5 1776,0.5 1776,-20.5"/>
<text text-anchor="middle" x="1637" y="-7.5" font-family="Vera" font-size="10.00">topo.analysis.vision.measure_and_analyze_complexity</text>
</g>
<!-- topo.command.analysis.measure_sine_pref&#45;&gt;topo.analysis.vision.measure_and_analyze_complexity -->
<g id="edge6" class="edge"><title>topo.command.analysis.measure_sine_pref&#45;&gt;topo.analysis.vision.measure_and_analyze_complexity</title>
<path fill="none" stroke="black" stroke-width="0.5" d="M1462.41,-10C1472.42,-10 1482.64,-10 1492.86,-10"/>
<polygon fill="black" stroke="black" points="1492.87,-11.7501 1497.87,-10 1492.87,-8.2501 1492.87,-11.7501"/>
</g>
</g>
</svg>
