<?xml version="1.0" encoding="UTF-8" standalone="no"?>
<!DOCTYPE svg PUBLIC "-//W3C//DTD SVG 1.1//EN"
 "http://www.w3.org/Graphics/SVG/1.1/DTD/svg11.dtd">
<!-- Generated by graphviz version 2.26.3 (20100126.1600)
 -->
<!-- Title: inheritancef9691dc773 Pages: 1 -->
<svg width="1062pt" height="66pt"
 viewBox="0.00 0.00 1062.00 66.00" xmlns="http://www.w3.org/2000/svg" xmlns:xlink="http://www.w3.org/1999/xlink">
<g id="graph1" class="graph" transform="scale(1 1) rotate(0) translate(4 62)">
<title>inheritancef9691dc773</title>
<polygon fill="white" stroke="white" points="-4,5 -4,-62 1059,-62 1059,5 -4,5"/>
<!-- unittest.case.TestCase -->
<g id="node1" class="node"><title>unittest.case.TestCase</title>
<polygon fill="none" stroke="black" stroke-width="0.5" points="125,-39.5 1,-39.5 1,-18.5 125,-18.5 125,-39.5"/>
<text text-anchor="middle" x="63" y="-26.5" font-family="Vera" font-size="10.00">unittest.case.TestCase</text>
</g>
<!-- dataviews.test.testboundingregion.TestBoundingBox -->
<g id="node3" class="node"><title>dataviews.test.testboundingregion.TestBoundingBox</title>
<polygon fill="none" stroke="black" stroke-width="0.5" points="428,-58.5 162,-58.5 162,-37.5 428,-37.5 428,-58.5"/>
<text text-anchor="middle" x="295" y="-45.5" font-family="Vera" font-size="10.00">dataviews.test.testboundingregion.TestBoundingBox</text>
</g>
<!-- unittest.case.TestCase&#45;&gt;dataviews.test.testboundingregion.TestBoundingBox -->
<g id="edge6" class="edge"><title>unittest.case.TestCase&#45;&gt;dataviews.test.testboundingregion.TestBoundingBox</title>
<path fill="none" stroke="black" stroke-width="0.5" d="M125.783,-34.1417C138.81,-35.2086 152.981,-36.3691 167.393,-37.5494"/>
<polygon fill="black" stroke="black" points="167.585,-39.321 172.712,-37.985 167.871,-35.8326 167.585,-39.321"/>
</g>
<!-- dataviews.test.testboundingregion.TestAARectangle -->
<g id="node5" class="node"><title>dataviews.test.testboundingregion.TestAARectangle</title>
<polygon fill="none" stroke="black" stroke-width="0.5" points="426,-20.5 164,-20.5 164,0.5 426,0.5 426,-20.5"/>
<text text-anchor="middle" x="295" y="-7.5" font-family="Vera" font-size="10.00">dataviews.test.testboundingregion.TestAARectangle</text>
</g>
<!-- unittest.case.TestCase&#45;&gt;dataviews.test.testboundingregion.TestAARectangle -->
<g id="edge4" class="edge"><title>unittest.case.TestCase&#45;&gt;dataviews.test.testboundingregion.TestAARectangle</title>
<path fill="none" stroke="black" stroke-width="0.5" d="M125.783,-23.8583C138.81,-22.7914 152.981,-21.6309 167.393,-20.4506"/>
<polygon fill="black" stroke="black" points="167.871,-22.1674 172.712,-20.015 167.585,-18.679 167.871,-22.1674"/>
</g>
<!-- dataviews.test.testboundingregion.TestBoundingEllipse -->
<g id="node2" class="node"><title>dataviews.test.testboundingregion.TestBoundingEllipse</title>
<polygon fill="none" stroke="black" stroke-width="0.5" points="742,-58.5 464,-58.5 464,-37.5 742,-37.5 742,-58.5"/>
<text text-anchor="middle" x="603" y="-45.5" font-family="Vera" font-size="10.00">dataviews.test.testboundingregion.TestBoundingEllipse</text>
</g>
<!-- dataviews.test.testboundingregion.TestBoundingCircle -->
<g id="node8" class="node"><title>dataviews.test.testboundingregion.TestBoundingCircle</title>
<polygon fill="none" stroke="black" stroke-width="0.5" points="1053,-58.5 779,-58.5 779,-37.5 1053,-37.5 1053,-58.5"/>
<text text-anchor="middle" x="916" y="-45.5" font-family="Vera" font-size="10.00">dataviews.test.testboundingregion.TestBoundingCircle</text>
</g>
<!-- dataviews.test.testboundingregion.TestBoundingEllipse&#45;&gt;dataviews.test.testboundingregion.TestBoundingCircle -->
<g id="edge8" class="edge"><title>dataviews.test.testboundingregion.TestBoundingEllipse&#45;&gt;dataviews.test.testboundingregion.TestBoundingCircle</title>
<path fill="none" stroke="black" stroke-width="0.5" d="M742.109,-48C752.492,-48 762.979,-48 773.382,-48"/>
<polygon fill="black" stroke="black" points="773.482,-49.7501 778.482,-48 773.482,-46.2501 773.482,-49.7501"/>
</g>
<!-- dataviews.test.testboundingregion.TestBoundingBox&#45;&gt;dataviews.test.testboundingregion.TestBoundingEllipse -->
<g id="edge2" class="edge"><title>dataviews.test.testboundingregion.TestBoundingBox&#45;&gt;dataviews.test.testboundingregion.TestBoundingEllipse</title>
<path fill="none" stroke="black" stroke-width="0.5" d="M428.302,-48C438.27,-48 448.356,-48 458.389,-48"/>
<polygon fill="black" stroke="black" points="458.629,-49.7501 463.629,-48 458.629,-46.2501 458.629,-49.7501"/>
</g>
</g>
</svg>
