<?xml version="1.0" encoding="UTF-8" standalone="no"?>
<!DOCTYPE svg PUBLIC "-//W3C//DTD SVG 1.1//EN"
 "http://www.w3.org/Graphics/SVG/1.1/DTD/svg11.dtd">
<!-- Generated by graphviz version 2.26.3 (20100126.1600)
 -->
<!-- Title: inheritance0c0d2b112e Pages: 1 -->
<svg width="772pt" height="446pt"
 viewBox="0.00 0.00 772.00 446.00" xmlns="http://www.w3.org/2000/svg" xmlns:xlink="http://www.w3.org/1999/xlink">
<g id="graph1" class="graph" transform="scale(1 1) rotate(0) translate(4 442)">
<title>inheritance0c0d2b112e</title>
<polygon fill="white" stroke="white" points="-4,5 -4,-442 769,-442 769,5 -4,5"/>
<!-- param.Path -->
<g id="node1" class="node"><title>param.Path</title>
<polygon fill="none" stroke="black" stroke-width="0.5" points="383,-324.5 311,-324.5 311,-303.5 383,-303.5 383,-324.5"/>
<text text-anchor="middle" x="347" y="-311.5" font-family="Vera" font-size="10.00">param.Path</text>
</g>
<!-- param.Foldername -->
<g id="node22" class="node"><title>param.Foldername</title>
<polygon fill="none" stroke="black" stroke-width="0.5" points="617,-362.5 509,-362.5 509,-341.5 617,-341.5 617,-362.5"/>
<text text-anchor="middle" x="563" y="-349.5" font-family="Vera" font-size="10.00">param.Foldername</text>
</g>
<!-- param.Path&#45;&gt;param.Foldername -->
<g id="edge20" class="edge"><title>param.Path&#45;&gt;param.Foldername</title>
<path fill="none" stroke="black" stroke-width="0.5" d="M383.154,-320.36C416.026,-326.143 465.149,-334.786 503.754,-341.577"/>
<polygon fill="black" stroke="black" points="503.661,-343.337 508.888,-342.48 504.267,-339.89 503.661,-343.337"/>
</g>
<!-- param.Filename -->
<g id="node42" class="node"><title>param.Filename</title>
<polygon fill="none" stroke="black" stroke-width="0.5" points="610,-324.5 516,-324.5 516,-303.5 610,-303.5 610,-324.5"/>
<text text-anchor="middle" x="563" y="-311.5" font-family="Vera" font-size="10.00">param.Filename</text>
</g>
<!-- param.Path&#45;&gt;param.Filename -->
<g id="edge40" class="edge"><title>param.Path&#45;&gt;param.Filename</title>
<path fill="none" stroke="black" stroke-width="0.5" d="M383.154,-314C417.979,-314 471.047,-314 510.521,-314"/>
<polygon fill="black" stroke="black" points="510.753,-315.75 515.753,-314 510.753,-312.25 510.753,-315.75"/>
</g>
<!-- param.parameterized.Parameter -->
<g id="node2" class="node"><title>param.parameterized.Parameter</title>
<polygon fill="none" stroke="black" stroke-width="0.5" points="184,-153.5 10,-153.5 10,-132.5 184,-132.5 184,-153.5"/>
<text text-anchor="middle" x="97" y="-140.5" font-family="Vera" font-size="10.00">param.parameterized.Parameter</text>
</g>
<!-- param.parameterized.Parameter&#45;&gt;param.Path -->
<g id="edge2" class="edge"><title>param.parameterized.Parameter&#45;&gt;param.Path</title>
<path fill="none" stroke="black" stroke-width="0.5" d="M106.957,-153.135C128.156,-174.335 179.919,-224.118 230,-257 257.977,-275.369 292.749,-291.564 317.086,-301.951"/>
<polygon fill="black" stroke="black" points="316.523,-303.613 321.81,-303.95 317.887,-300.39 316.523,-303.613"/>
</g>
<!-- param.Selector -->
<g id="node8" class="node"><title>param.Selector</title>
<polygon fill="none" stroke="black" stroke-width="0.5" points="392,-248.5 302,-248.5 302,-227.5 392,-227.5 392,-248.5"/>
<text text-anchor="middle" x="347" y="-235.5" font-family="Vera" font-size="10.00">param.Selector</text>
</g>
<!-- param.parameterized.Parameter&#45;&gt;param.Selector -->
<g id="edge10" class="edge"><title>param.parameterized.Parameter&#45;&gt;param.Selector</title>
<path fill="none" stroke="black" stroke-width="0.5" d="M110.934,-153.239C134.288,-169.857 183.367,-202.501 230,-219 251.103,-226.467 275.397,-231.018 296.36,-233.784"/>
<polygon fill="black" stroke="black" points="296.154,-235.522 301.334,-234.416 296.594,-232.05 296.154,-235.522"/>
</g>
<!-- param.Dynamic -->
<g id="node14" class="node"><title>param.Dynamic</title>
<polygon fill="none" stroke="black" stroke-width="0.5" points="393,-210.5 301,-210.5 301,-189.5 393,-189.5 393,-210.5"/>
<text text-anchor="middle" x="347" y="-197.5" font-family="Vera" font-size="10.00">param.Dynamic</text>
</g>
<!-- param.parameterized.Parameter&#45;&gt;param.Dynamic -->
<g id="edge36" class="edge"><title>param.parameterized.Parameter&#45;&gt;param.Dynamic</title>
<path fill="none" stroke="black" stroke-width="0.5" d="M128.175,-153.03C154.96,-161.376 194.727,-173.125 230,-181 251.2,-185.733 274.808,-189.793 295.235,-192.93"/>
<polygon fill="black" stroke="black" points="295.151,-194.688 300.357,-193.708 295.676,-191.227 295.151,-194.688"/>
</g>
<!-- param.NumericTuple -->
<g id="node18" class="node"><title>param.NumericTuple</title>
<polygon fill="none" stroke="black" stroke-width="0.5" points="405,-172.5 289,-172.5 289,-151.5 405,-151.5 405,-172.5"/>
<text text-anchor="middle" x="347" y="-159.5" font-family="Vera" font-size="10.00">param.NumericTuple</text>
</g>
<!-- param.parameterized.Parameter&#45;&gt;param.NumericTuple -->
<g id="edge16" class="edge"><title>param.parameterized.Parameter&#45;&gt;param.NumericTuple</title>
<path fill="none" stroke="black" stroke-width="0.5" d="M184.789,-149.672C217.374,-152.148 253.671,-154.907 283.654,-157.186"/>
<polygon fill="black" stroke="black" points="283.674,-158.942 288.792,-157.576 283.939,-155.452 283.674,-158.942"/>
</g>
<!-- param.List -->
<g id="node27" class="node"><title>param.List</title>
<polygon fill="none" stroke="black" stroke-width="0.5" points="381,-134.5 313,-134.5 313,-113.5 381,-113.5 381,-134.5"/>
<text text-anchor="middle" x="347" y="-121.5" font-family="Vera" font-size="10.00">param.List</text>
</g>
<!-- param.parameterized.Parameter&#45;&gt;param.List -->
<g id="edge30" class="edge"><title>param.parameterized.Parameter&#45;&gt;param.List</title>
<path fill="none" stroke="black" stroke-width="0.5" d="M184.789,-136.328C226.723,-133.141 274.805,-129.487 307.667,-126.989"/>
<polygon fill="black" stroke="black" points="307.954,-128.723 312.807,-126.599 307.688,-125.233 307.954,-128.723"/>
</g>
<!-- param.Composite -->
<g id="node34" class="node"><title>param.Composite</title>
<polygon fill="none" stroke="black" stroke-width="0.5" points="398,-96.5 296,-96.5 296,-75.5 398,-75.5 398,-96.5"/>
<text text-anchor="middle" x="347" y="-83.5" font-family="Vera" font-size="10.00">param.Composite</text>
</g>
<!-- param.parameterized.Parameter&#45;&gt;param.Composite -->
<g id="edge32" class="edge"><title>param.parameterized.Parameter&#45;&gt;param.Composite</title>
<path fill="none" stroke="black" stroke-width="0.5" d="M128.175,-132.97C154.96,-124.624 194.727,-112.875 230,-105 249.46,-100.656 270.949,-96.8782 290.144,-93.8607"/>
<polygon fill="black" stroke="black" points="290.822,-95.5266 295.494,-93.0299 290.284,-92.068 290.822,-95.5266"/>
</g>
<!-- param.Boolean -->
<g id="node37" class="node"><title>param.Boolean</title>
<polygon fill="none" stroke="black" stroke-width="0.5" points="392,-58.5 302,-58.5 302,-37.5 392,-37.5 392,-58.5"/>
<text text-anchor="middle" x="347" y="-45.5" font-family="Vera" font-size="10.00">param.Boolean</text>
</g>
<!-- param.parameterized.Parameter&#45;&gt;param.Boolean -->
<g id="edge34" class="edge"><title>param.parameterized.Parameter&#45;&gt;param.Boolean</title>
<path fill="none" stroke="black" stroke-width="0.5" d="M110.934,-132.761C134.288,-116.143 183.367,-83.4992 230,-67 251.283,-59.4698 275.811,-54.9044 296.895,-52.1455"/>
<polygon fill="black" stroke="black" points="297.153,-53.8768 301.895,-51.5162 296.716,-50.4042 297.153,-53.8768"/>
</g>
<!-- param.Callable -->
<g id="node40" class="node"><title>param.Callable</title>
<polygon fill="none" stroke="black" stroke-width="0.5" points="391,-20.5 303,-20.5 303,0.5 391,0.5 391,-20.5"/>
<text text-anchor="middle" x="347" y="-7.5" font-family="Vera" font-size="10.00">param.Callable</text>
</g>
<!-- param.parameterized.Parameter&#45;&gt;param.Callable -->
<g id="edge38" class="edge"><title>param.parameterized.Parameter&#45;&gt;param.Callable</title>
<path fill="none" stroke="black" stroke-width="0.5" d="M105.389,-132.699C124.689,-109.789 174.836,-54.621 230,-29 250.821,-19.3298 275.713,-14.4795 297.175,-12.0848"/>
<polygon fill="black" stroke="black" points="297.474,-13.8131 302.266,-11.555 297.112,-10.3319 297.474,-13.8131"/>
</g>
<!-- param.parameterized.ParameterizedFunction -->
<g id="node4" class="node"><title>param.parameterized.ParameterizedFunction</title>
<polygon fill="none" stroke="black" stroke-width="0.5" points="464,-419.5 230,-419.5 230,-398.5 464,-398.5 464,-419.5"/>
<text text-anchor="middle" x="347" y="-406.5" font-family="Vera" font-size="10.00">param.parameterized.ParameterizedFunction</text>
</g>
<!-- param.normalize_path -->
<g id="node16" class="node"><title>param.normalize_path</title>
<polygon fill="none" stroke="black" stroke-width="0.5" points="625,-438.5 501,-438.5 501,-417.5 625,-417.5 625,-438.5"/>
<text text-anchor="middle" x="563" y="-425.5" font-family="Vera" font-size="10.00">param.normalize_path</text>
</g>
<!-- param.parameterized.ParameterizedFunction&#45;&gt;param.normalize_path -->
<g id="edge14" class="edge"><title>param.parameterized.ParameterizedFunction&#45;&gt;param.normalize_path</title>
<path fill="none" stroke="black" stroke-width="0.5" d="M460.693,-419.001C472.503,-420.04 484.223,-421.071 495.284,-422.043"/>
<polygon fill="black" stroke="black" points="495.183,-423.791 500.318,-422.486 495.49,-420.305 495.183,-423.791"/>
</g>
<!-- param.resolve_path -->
<g id="node46" class="node"><title>param.resolve_path</title>
<polygon fill="none" stroke="black" stroke-width="0.5" points="619,-400.5 507,-400.5 507,-379.5 619,-379.5 619,-400.5"/>
<text text-anchor="middle" x="563" y="-387.5" font-family="Vera" font-size="10.00">param.resolve_path</text>
</g>
<!-- param.parameterized.ParameterizedFunction&#45;&gt;param.resolve_path -->
<g id="edge44" class="edge"><title>param.parameterized.ParameterizedFunction&#45;&gt;param.resolve_path</title>
<path fill="none" stroke="black" stroke-width="0.5" d="M460.693,-398.999C474.69,-397.768 488.559,-396.548 501.357,-395.422"/>
<polygon fill="black" stroke="black" points="501.567,-397.161 506.394,-394.979 501.26,-393.674 501.567,-397.161"/>
</g>
<!-- param.parameterized.Parameterized -->
<g id="node5" class="node"><title>param.parameterized.Parameterized</title>
<polygon fill="none" stroke="black" stroke-width="0.5" points="194,-400.5 5.68434e-14,-400.5 0,-379.5 194,-379.5 194,-400.5"/>
<text text-anchor="middle" x="97" y="-387.5" font-family="Vera" font-size="10.00">param.parameterized.Parameterized</text>
</g>
<!-- param.parameterized.Parameterized&#45;&gt;param.parameterized.ParameterizedFunction -->
<g id="edge4" class="edge"><title>param.parameterized.Parameterized&#45;&gt;param.parameterized.ParameterizedFunction</title>
<path fill="none" stroke="black" stroke-width="0.5" d="M194.014,-397.373C204.04,-398.135 214.319,-398.916 224.575,-399.696"/>
<polygon fill="black" stroke="black" points="224.489,-401.444 229.607,-400.078 224.754,-397.954 224.489,-401.444"/>
</g>
<!-- param.Time -->
<g id="node10" class="node"><title>param.Time</title>
<polygon fill="none" stroke="black" stroke-width="0.5" points="384,-381.5 310,-381.5 310,-360.5 384,-360.5 384,-381.5"/>
<text text-anchor="middle" x="347" y="-368.5" font-family="Vera" font-size="10.00">param.Time</text>
</g>
<!-- param.parameterized.Parameterized&#45;&gt;param.Time -->
<g id="edge8" class="edge"><title>param.parameterized.Parameterized&#45;&gt;param.Time</title>
<path fill="none" stroke="black" stroke-width="0.5" d="M194.014,-382.627C232.419,-379.708 274.539,-376.507 304.844,-374.204"/>
<polygon fill="black" stroke="black" points="305.128,-375.937 309.981,-373.813 304.863,-372.447 305.128,-375.937"/>
</g>
<!-- param.ClassSelector -->
<g id="node7" class="node"><title>param.ClassSelector</title>
<polygon fill="none" stroke="black" stroke-width="0.5" points="621,-286.5 505,-286.5 505,-265.5 621,-265.5 621,-286.5"/>
<text text-anchor="middle" x="563" y="-273.5" font-family="Vera" font-size="10.00">param.ClassSelector</text>
</g>
<!-- param.Array -->
<g id="node29" class="node"><title>param.Array</title>
<polygon fill="none" stroke="black" stroke-width="0.5" points="751,-305.5 675,-305.5 675,-284.5 751,-284.5 751,-305.5"/>
<text text-anchor="middle" x="713" y="-292.5" font-family="Vera" font-size="10.00">param.Array</text>
</g>
<!-- param.ClassSelector&#45;&gt;param.Array -->
<g id="edge26" class="edge"><title>param.ClassSelector&#45;&gt;param.Array</title>
<path fill="none" stroke="black" stroke-width="0.5" d="M621.423,-283.4C637.387,-285.422 654.406,-287.578 669.386,-289.476"/>
<polygon fill="black" stroke="black" points="669.203,-291.216 674.383,-290.109 669.643,-287.744 669.203,-291.216"/>
</g>
<!-- param.Dict -->
<g id="node48" class="node"><title>param.Dict</title>
<polygon fill="none" stroke="black" stroke-width="0.5" points="748,-267.5 678,-267.5 678,-246.5 748,-246.5 748,-267.5"/>
<text text-anchor="middle" x="713" y="-254.5" font-family="Vera" font-size="10.00">param.Dict</text>
</g>
<!-- param.ClassSelector&#45;&gt;param.Dict -->
<g id="edge46" class="edge"><title>param.ClassSelector&#45;&gt;param.Dict</title>
<path fill="none" stroke="black" stroke-width="0.5" d="M621.423,-268.6C638.57,-266.428 656.933,-264.102 672.68,-262.107"/>
<polygon fill="black" stroke="black" points="673.174,-263.809 677.915,-261.444 672.734,-260.336 673.174,-263.809"/>
</g>
<!-- param.Selector&#45;&gt;param.ClassSelector -->
<g id="edge6" class="edge"><title>param.Selector&#45;&gt;param.ClassSelector</title>
<path fill="none" stroke="black" stroke-width="0.5" d="M392.544,-246.012C424.042,-251.554 466.34,-258.995 500.92,-265.078"/>
<polygon fill="black" stroke="black" points="500.736,-266.823 505.963,-265.966 501.342,-263.376 500.736,-266.823"/>
</g>
<!-- param.ObjectSelector -->
<g id="node44" class="node"><title>param.ObjectSelector</title>
<polygon fill="none" stroke="black" stroke-width="0.5" points="624,-248.5 502,-248.5 502,-227.5 624,-227.5 624,-248.5"/>
<text text-anchor="middle" x="563" y="-235.5" font-family="Vera" font-size="10.00">param.ObjectSelector</text>
</g>
<!-- param.Selector&#45;&gt;param.ObjectSelector -->
<g id="edge42" class="edge"><title>param.Selector&#45;&gt;param.ObjectSelector</title>
<path fill="none" stroke="black" stroke-width="0.5" d="M392.544,-238C422.739,-238 462.856,-238 496.587,-238"/>
<polygon fill="black" stroke="black" points="496.943,-239.75 501.943,-238 496.943,-236.25 496.943,-239.75"/>
</g>
<!-- param.Number -->
<g id="node13" class="node"><title>param.Number</title>
<polygon fill="none" stroke="black" stroke-width="0.5" points="608,-210.5 518,-210.5 518,-189.5 608,-189.5 608,-210.5"/>
<text text-anchor="middle" x="563" y="-197.5" font-family="Vera" font-size="10.00">param.Number</text>
</g>
<!-- param.Integer -->
<g id="node24" class="node"><title>param.Integer</title>
<polygon fill="none" stroke="black" stroke-width="0.5" points="755,-229.5 671,-229.5 671,-208.5 755,-208.5 755,-229.5"/>
<text text-anchor="middle" x="713" y="-216.5" font-family="Vera" font-size="10.00">param.Integer</text>
</g>
<!-- param.Number&#45;&gt;param.Integer -->
<g id="edge22" class="edge"><title>param.Number&#45;&gt;param.Integer</title>
<path fill="none" stroke="black" stroke-width="0.5" d="M608.005,-205.701C626.068,-207.989 646.911,-210.629 665.241,-212.951"/>
<polygon fill="black" stroke="black" points="665.16,-214.704 670.341,-213.596 665.6,-211.232 665.16,-214.704"/>
</g>
<!-- param.Magnitude -->
<g id="node31" class="node"><title>param.Magnitude</title>
<polygon fill="none" stroke="black" stroke-width="0.5" points="763,-191.5 663,-191.5 663,-170.5 763,-170.5 763,-191.5"/>
<text text-anchor="middle" x="713" y="-178.5" font-family="Vera" font-size="10.00">param.Magnitude</text>
</g>
<!-- param.Number&#45;&gt;param.Magnitude -->
<g id="edge28" class="edge"><title>param.Number&#45;&gt;param.Magnitude</title>
<path fill="none" stroke="black" stroke-width="0.5" d="M608.005,-194.299C623.49,-192.338 641.017,-190.118 657.253,-188.061"/>
<polygon fill="black" stroke="black" points="657.506,-189.793 662.246,-187.429 657.066,-186.321 657.506,-189.793"/>
</g>
<!-- param.Dynamic&#45;&gt;param.Number -->
<g id="edge12" class="edge"><title>param.Dynamic&#45;&gt;param.Number</title>
<path fill="none" stroke="black" stroke-width="0.5" d="M393.603,-200C428.71,-200 476.779,-200 512.745,-200"/>
<polygon fill="black" stroke="black" points="512.96,-201.75 517.96,-200 512.96,-198.25 512.96,-201.75"/>
</g>
<!-- param.XYCoordinates -->
<g id="node20" class="node"><title>param.XYCoordinates</title>
<polygon fill="none" stroke="black" stroke-width="0.5" points="622,-172.5 504,-172.5 504,-151.5 622,-151.5 622,-172.5"/>
<text text-anchor="middle" x="563" y="-159.5" font-family="Vera" font-size="10.00">param.XYCoordinates</text>
</g>
<!-- param.NumericTuple&#45;&gt;param.XYCoordinates -->
<g id="edge18" class="edge"><title>param.NumericTuple&#45;&gt;param.XYCoordinates</title>
<path fill="none" stroke="black" stroke-width="0.5" d="M405.168,-162C433.871,-162 468.589,-162 498.146,-162"/>
<polygon fill="black" stroke="black" points="498.222,-163.75 503.222,-162 498.222,-160.25 498.222,-163.75"/>
</g>
<!-- param.HookList -->
<g id="node26" class="node"><title>param.HookList</title>
<polygon fill="none" stroke="black" stroke-width="0.5" points="609,-134.5 517,-134.5 517,-113.5 609,-113.5 609,-134.5"/>
<text text-anchor="middle" x="563" y="-121.5" font-family="Vera" font-size="10.00">param.HookList</text>
</g>
<!-- param.List&#45;&gt;param.HookList -->
<g id="edge24" class="edge"><title>param.List&#45;&gt;param.HookList</title>
<path fill="none" stroke="black" stroke-width="0.5" d="M381.226,-124C416.29,-124 471.229,-124 511.536,-124"/>
<polygon fill="black" stroke="black" points="511.874,-125.75 516.874,-124 511.874,-122.25 511.874,-125.75"/>
</g>
<!-- param.Infinity -->
<g id="node36" class="node"><title>param.Infinity</title>
<polygon fill="none" stroke="black" stroke-width="0.5" points="138,-438.5 56,-438.5 56,-417.5 138,-417.5 138,-438.5"/>
<text text-anchor="middle" x="97" y="-425.5" font-family="Vera" font-size="10.00">param.Infinity</text>
</g>
</g>
</svg>
