<?xml version="1.0" encoding="UTF-8" standalone="no"?>
<!DOCTYPE svg PUBLIC "-//W3C//DTD SVG 1.1//EN"
 "http://www.w3.org/Graphics/SVG/1.1/DTD/svg11.dtd">
<!-- Generated by graphviz version 2.26.3 (20100126.1600)
 -->
<!-- Title: inheritance460cea755c Pages: 1 -->
<svg width="486pt" height="142pt"
 viewBox="0.00 0.00 486.00 142.00" xmlns="http://www.w3.org/2000/svg" xmlns:xlink="http://www.w3.org/1999/xlink">
<g id="graph1" class="graph" transform="scale(1 1) rotate(0) translate(4 138)">
<title>inheritance460cea755c</title>
<polygon fill="white" stroke="white" points="-4,5 -4,-138 483,-138 483,5 -4,5"/>
<!-- versioneer.cmd_build -->
<g id="node1" class="node"><title>versioneer.cmd_build</title>
<polygon fill="none" stroke="black" stroke-width="0.5" points="478,-134.5 360,-134.5 360,-113.5 478,-113.5 478,-134.5"/>
<text text-anchor="middle" x="419" y="-121.5" font-family="Vera" font-size="10.00">versioneer.cmd_build</text>
</g>
<!-- distutils.command.build.build -->
<g id="node2" class="node"><title>distutils.command.build.build</title>
<polygon fill="none" stroke="black" stroke-width="0.5" points="324,-134.5 168,-134.5 168,-113.5 324,-113.5 324,-134.5"/>
<text text-anchor="middle" x="246" y="-121.5" font-family="Vera" font-size="10.00">distutils.command.build.build</text>
</g>
<!-- distutils.command.build.build&#45;&gt;versioneer.cmd_build -->
<g id="edge2" class="edge"><title>distutils.command.build.build&#45;&gt;versioneer.cmd_build</title>
<path fill="none" stroke="black" stroke-width="0.5" d="M324.149,-124C334.367,-124 344.741,-124 354.695,-124"/>
<polygon fill="black" stroke="black" points="354.859,-125.75 359.859,-124 354.859,-122.25 354.859,-125.75"/>
</g>
<!-- distutils.command.sdist.sdist -->
<g id="node4" class="node"><title>distutils.command.sdist.sdist</title>
<polygon fill="none" stroke="black" stroke-width="0.5" points="324,-96.5 168,-96.5 168,-75.5 324,-75.5 324,-96.5"/>
<text text-anchor="middle" x="246" y="-83.5" font-family="Vera" font-size="10.00">distutils.command.sdist.sdist</text>
</g>
<!-- versioneer.cmd_sdist -->
<g id="node7" class="node"><title>versioneer.cmd_sdist</title>
<polygon fill="none" stroke="black" stroke-width="0.5" points="478,-96.5 360,-96.5 360,-75.5 478,-75.5 478,-96.5"/>
<text text-anchor="middle" x="419" y="-83.5" font-family="Vera" font-size="10.00">versioneer.cmd_sdist</text>
</g>
<!-- distutils.command.sdist.sdist&#45;&gt;versioneer.cmd_sdist -->
<g id="edge6" class="edge"><title>distutils.command.sdist.sdist&#45;&gt;versioneer.cmd_sdist</title>
<path fill="none" stroke="black" stroke-width="0.5" d="M324.149,-86C334.367,-86 344.741,-86 354.695,-86"/>
<polygon fill="black" stroke="black" points="354.859,-87.7501 359.859,-86 354.859,-84.2501 354.859,-87.7501"/>
</g>
<!-- distutils.cmd.Command -->
<g id="node5" class="node"><title>distutils.cmd.Command</title>
<polygon fill="none" stroke="black" stroke-width="0.5" points="131,-77.5 1,-77.5 1,-56.5 131,-56.5 131,-77.5"/>
<text text-anchor="middle" x="66" y="-64.5" font-family="Vera" font-size="10.00">distutils.cmd.Command</text>
</g>
<!-- distutils.cmd.Command&#45;&gt;distutils.command.build.build -->
<g id="edge8" class="edge"><title>distutils.cmd.Command&#45;&gt;distutils.command.build.build</title>
<path fill="none" stroke="black" stroke-width="0.5" d="M90.4544,-77.0365C110.945,-85.2213 141.082,-96.7388 168,-105 176.964,-107.751 186.603,-110.368 195.943,-112.732"/>
<polygon fill="black" stroke="black" points="195.52,-114.43 200.795,-113.944 196.369,-111.034 195.52,-114.43"/>
</g>
<!-- distutils.cmd.Command&#45;&gt;distutils.command.sdist.sdist -->
<g id="edge4" class="edge"><title>distutils.cmd.Command&#45;&gt;distutils.command.sdist.sdist</title>
<path fill="none" stroke="black" stroke-width="0.5" d="M131.748,-73.9401C141.846,-75.006 152.384,-76.1183 162.8,-77.2177"/>
<polygon fill="black" stroke="black" points="162.744,-78.9716 167.901,-77.7562 163.112,-75.4909 162.744,-78.9716"/>
</g>
<!-- versioneer.cmd_update_files -->
<g id="node10" class="node"><title>versioneer.cmd_update_files</title>
<polygon fill="none" stroke="black" stroke-width="0.5" points="322,-58.5 170,-58.5 170,-37.5 322,-37.5 322,-58.5"/>
<text text-anchor="middle" x="246" y="-45.5" font-family="Vera" font-size="10.00">versioneer.cmd_update_files</text>
</g>
<!-- distutils.cmd.Command&#45;&gt;versioneer.cmd_update_files -->
<g id="edge10" class="edge"><title>distutils.cmd.Command&#45;&gt;versioneer.cmd_update_files</title>
<path fill="none" stroke="black" stroke-width="0.5" d="M131.748,-60.0599C142.373,-58.9384 153.486,-57.7654 164.43,-56.6101"/>
<polygon fill="black" stroke="black" points="164.656,-58.3461 169.445,-56.0808 164.288,-54.8655 164.656,-58.3461"/>
</g>
<!-- versioneer.cmd_version -->
<g id="node12" class="node"><title>versioneer.cmd_version</title>
<polygon fill="none" stroke="black" stroke-width="0.5" points="311,-20.5 181,-20.5 181,0.5 311,0.5 311,-20.5"/>
<text text-anchor="middle" x="246" y="-7.5" font-family="Vera" font-size="10.00">versioneer.cmd_version</text>
</g>
<!-- distutils.cmd.Command&#45;&gt;versioneer.cmd_version -->
<g id="edge12" class="edge"><title>distutils.cmd.Command&#45;&gt;versioneer.cmd_version</title>
<path fill="none" stroke="black" stroke-width="0.5" d="M90.4544,-56.9635C110.945,-48.7787 141.082,-37.2612 168,-29 176.964,-26.249 186.603,-23.6318 195.943,-21.268"/>
<polygon fill="black" stroke="black" points="196.369,-22.9656 200.795,-20.0556 195.52,-19.57 196.369,-22.9656"/>
</g>
</g>
</svg>
