<?xml version="1.0" encoding="UTF-8" standalone="no"?>
<!DOCTYPE svg PUBLIC "-//W3C//DTD SVG 1.1//EN"
 "http://www.w3.org/Graphics/SVG/1.1/DTD/svg11.dtd">
<!-- Generated by graphviz version 2.26.3 (20100126.1600)
 -->
<!-- Title: inheritance8744d36cfd Pages: 1 -->
<svg width="606pt" height="104pt"
 viewBox="0.00 0.00 606.00 104.00" xmlns="http://www.w3.org/2000/svg" xmlns:xlink="http://www.w3.org/1999/xlink">
<g id="graph1" class="graph" transform="scale(1 1) rotate(0) translate(4 100)">
<title>inheritance8744d36cfd</title>
<polygon fill="white" stroke="white" points="-4,5 -4,-100 603,-100 603,5 -4,5"/>
<!-- lancet.core.PrettyPrinted -->
<g id="node1" class="node"><title>lancet.core.PrettyPrinted</title>
<polygon fill="none" stroke="black" stroke-width="0.5" points="164,-77.5 30,-77.5 30,-56.5 164,-56.5 164,-77.5"/>
<text text-anchor="middle" x="97" y="-64.5" font-family="Vera" font-size="10.00">lancet.core.PrettyPrinted</text>
</g>
<!-- lancet.launch.Launcher -->
<g id="node2" class="node"><title>lancet.launch.Launcher</title>
<polygon fill="none" stroke="black" stroke-width="0.5" points="381,-96.5 253,-96.5 253,-75.5 381,-75.5 381,-96.5"/>
<text text-anchor="middle" x="317" y="-83.5" font-family="Vera" font-size="10.00">lancet.launch.Launcher</text>
</g>
<!-- lancet.core.PrettyPrinted&#45;&gt;lancet.launch.Launcher -->
<g id="edge2" class="edge"><title>lancet.core.PrettyPrinted&#45;&gt;lancet.launch.Launcher</title>
<path fill="none" stroke="black" stroke-width="0.5" d="M164.502,-72.8297C190.79,-75.1001 220.905,-77.7009 247.391,-79.9883"/>
<polygon fill="black" stroke="black" points="247.506,-81.7547 252.638,-80.4414 247.807,-78.2676 247.506,-81.7547"/>
</g>
<!-- lancet.launch.Command -->
<g id="node8" class="node"><title>lancet.launch.Command</title>
<polygon fill="none" stroke="black" stroke-width="0.5" points="384,-58.5 250,-58.5 250,-37.5 384,-37.5 384,-58.5"/>
<text text-anchor="middle" x="317" y="-45.5" font-family="Vera" font-size="10.00">lancet.launch.Command</text>
</g>
<!-- lancet.core.PrettyPrinted&#45;&gt;lancet.launch.Command -->
<g id="edge8" class="edge"><title>lancet.core.PrettyPrinted&#45;&gt;lancet.launch.Command</title>
<path fill="none" stroke="black" stroke-width="0.5" d="M164.502,-61.1703C189.843,-58.9817 218.739,-56.4861 244.514,-54.2602"/>
<polygon fill="black" stroke="black" points="244.794,-55.9925 249.625,-53.8187 244.493,-52.5055 244.794,-55.9925"/>
</g>
<!-- lancet.launch.review_and_launch -->
<g id="node11" class="node"><title>lancet.launch.review_and_launch</title>
<polygon fill="none" stroke="black" stroke-width="0.5" points="403,-20.5 231,-20.5 231,0.5 403,0.5 403,-20.5"/>
<text text-anchor="middle" x="317" y="-7.5" font-family="Vera" font-size="10.00">lancet.launch.review_and_launch</text>
</g>
<!-- lancet.core.PrettyPrinted&#45;&gt;lancet.launch.review_and_launch -->
<g id="edge12" class="edge"><title>lancet.core.PrettyPrinted&#45;&gt;lancet.launch.review_and_launch</title>
<path fill="none" stroke="black" stroke-width="0.5" d="M162.145,-56.9666C172.93,-54.5322 183.887,-51.5719 194,-48 211.059,-41.9748 213.007,-35.209 230,-29 237.937,-26.1 246.45,-23.5722 254.932,-21.39"/>
<polygon fill="black" stroke="black" points="255.776,-22.9833 260.204,-20.0756 254.929,-19.5872 255.776,-22.9833"/>
</g>
<!-- lancet.launch.QLauncher -->
<g id="node6" class="node"><title>lancet.launch.QLauncher</title>
<polygon fill="none" stroke="black" stroke-width="0.5" points="586,-96.5 452,-96.5 452,-75.5 586,-75.5 586,-96.5"/>
<text text-anchor="middle" x="519" y="-83.5" font-family="Vera" font-size="10.00">lancet.launch.QLauncher</text>
</g>
<!-- lancet.launch.Launcher&#45;&gt;lancet.launch.QLauncher -->
<g id="edge6" class="edge"><title>lancet.launch.Launcher&#45;&gt;lancet.launch.QLauncher</title>
<path fill="none" stroke="black" stroke-width="0.5" d="M381.192,-86C401.94,-86 425.089,-86 446.402,-86"/>
<polygon fill="black" stroke="black" points="446.49,-87.7501 451.49,-86 446.49,-84.2501 446.49,-87.7501"/>
</g>
<!-- param.parameterized.Parameterized -->
<g id="node4" class="node"><title>param.parameterized.Parameterized</title>
<polygon fill="none" stroke="black" stroke-width="0.5" points="194,-39.5 5.68434e-14,-39.5 0,-18.5 194,-18.5 194,-39.5"/>
<text text-anchor="middle" x="97" y="-26.5" font-family="Vera" font-size="10.00">param.parameterized.Parameterized</text>
</g>
<!-- param.parameterized.Parameterized&#45;&gt;lancet.launch.Launcher -->
<g id="edge4" class="edge"><title>param.parameterized.Parameterized&#45;&gt;lancet.launch.Launcher</title>
<path fill="none" stroke="black" stroke-width="0.5" d="M162.145,-39.0334C172.93,-41.4678 183.887,-44.4281 194,-48 211.059,-54.0252 213.007,-60.791 230,-67 237.937,-69.9 246.45,-72.4278 254.932,-74.61"/>
<polygon fill="black" stroke="black" points="254.929,-76.4128 260.204,-75.9244 255.776,-73.0167 254.929,-76.4128"/>
</g>
<!-- param.parameterized.Parameterized&#45;&gt;lancet.launch.Command -->
<g id="edge10" class="edge"><title>param.parameterized.Parameterized&#45;&gt;lancet.launch.Command</title>
<path fill="none" stroke="black" stroke-width="0.5" d="M194.136,-37.389C210.993,-38.8448 228.258,-40.3359 244.319,-41.723"/>
<polygon fill="black" stroke="black" points="244.586,-43.5025 249.718,-42.1893 244.887,-40.0155 244.586,-43.5025"/>
</g>
<!-- param.parameterized.Parameterized&#45;&gt;lancet.launch.review_and_launch -->
<g id="edge14" class="edge"><title>param.parameterized.Parameterized&#45;&gt;lancet.launch.review_and_launch</title>
<path fill="none" stroke="black" stroke-width="0.5" d="M194.136,-20.611C204.522,-19.714 215.064,-18.8036 225.384,-17.9123"/>
<polygon fill="black" stroke="black" points="225.599,-19.6503 230.43,-17.4765 225.298,-16.1633 225.599,-19.6503"/>
</g>
<!-- lancet.launch.ShellCommand -->
<g id="node14" class="node"><title>lancet.launch.ShellCommand</title>
<polygon fill="none" stroke="black" stroke-width="0.5" points="597,-58.5 441,-58.5 441,-37.5 597,-37.5 597,-58.5"/>
<text text-anchor="middle" x="519" y="-45.5" font-family="Vera" font-size="10.00">lancet.launch.ShellCommand</text>
</g>
<!-- lancet.launch.Command&#45;&gt;lancet.launch.ShellCommand -->
<g id="edge16" class="edge"><title>lancet.launch.Command&#45;&gt;lancet.launch.ShellCommand</title>
<path fill="none" stroke="black" stroke-width="0.5" d="M384.263,-48C400.593,-48 418.251,-48 435.24,-48"/>
<polygon fill="black" stroke="black" points="435.488,-49.7501 440.488,-48 435.488,-46.2501 435.488,-49.7501"/>
</g>
</g>
</svg>
