<?xml version="1.0" encoding="UTF-8" standalone="no"?>
<!DOCTYPE svg PUBLIC "-//W3C//DTD SVG 1.1//EN"
 "http://www.w3.org/Graphics/SVG/1.1/DTD/svg11.dtd">
<!-- Generated by graphviz version 2.26.3 (20100126.1600)
 -->
<!-- Title: inheritance5c943e4cbf Pages: 1 -->
<svg width="628pt" height="66pt"
 viewBox="0.00 0.00 628.00 66.00" xmlns="http://www.w3.org/2000/svg" xmlns:xlink="http://www.w3.org/1999/xlink">
<g id="graph1" class="graph" transform="scale(1 1) rotate(0) translate(4 62)">
<title>inheritance5c943e4cbf</title>
<polygon fill="white" stroke="white" points="-4,5 -4,-62 625,-62 625,5 -4,5"/>
<!-- topo.base.sheetview.UnitView -->
<g id="node1" class="node"><title>topo.base.sheetview.UnitView</title>
<polygon fill="none" stroke="black" stroke-width="0.5" points="606,-58.5 448,-58.5 448,-37.5 606,-37.5 606,-58.5"/>
<text text-anchor="middle" x="527" y="-45.5" font-family="Vera" font-size="10.00">topo.base.sheetview.UnitView</text>
</g>
<!-- topo.base.sheetview.SheetView -->
<g id="node2" class="node"><title>topo.base.sheetview.SheetView</title>
<polygon fill="none" stroke="black" stroke-width="0.5" points="397,-39.5 231,-39.5 231,-18.5 397,-18.5 397,-39.5"/>
<text text-anchor="middle" x="314" y="-26.5" font-family="Vera" font-size="10.00">topo.base.sheetview.SheetView</text>
</g>
<!-- topo.base.sheetview.SheetView&#45;&gt;topo.base.sheetview.UnitView -->
<g id="edge2" class="edge"><title>topo.base.sheetview.SheetView&#45;&gt;topo.base.sheetview.UnitView</title>
<path fill="none" stroke="black" stroke-width="0.5" d="M397.572,-36.4548C412.441,-37.7811 427.936,-39.1633 442.822,-40.4912"/>
<polygon fill="black" stroke="black" points="442.709,-42.238 447.845,-40.9392 443.02,-38.7518 442.709,-42.238"/>
</g>
<!-- topo.base.sheetview.ProjectionView -->
<g id="node6" class="node"><title>topo.base.sheetview.ProjectionView</title>
<polygon fill="none" stroke="black" stroke-width="0.5" points="620,-20.5 434,-20.5 434,0.5 620,0.5 620,-20.5"/>
<text text-anchor="middle" x="527" y="-7.5" font-family="Vera" font-size="10.00">topo.base.sheetview.ProjectionView</text>
</g>
<!-- topo.base.sheetview.SheetView&#45;&gt;topo.base.sheetview.ProjectionView -->
<g id="edge6" class="edge"><title>topo.base.sheetview.SheetView&#45;&gt;topo.base.sheetview.ProjectionView</title>
<path fill="none" stroke="black" stroke-width="0.5" d="M397.572,-21.5452C407.788,-20.6339 418.3,-19.6963 428.707,-18.768"/>
<polygon fill="black" stroke="black" points="428.98,-20.5006 433.805,-18.3132 428.669,-17.0144 428.98,-20.5006"/>
</g>
<!-- param.parameterized.Parameterized -->
<g id="node4" class="node"><title>param.parameterized.Parameterized</title>
<polygon fill="none" stroke="black" stroke-width="0.5" points="194,-39.5 5.68434e-14,-39.5 0,-18.5 194,-18.5 194,-39.5"/>
<text text-anchor="middle" x="97" y="-26.5" font-family="Vera" font-size="10.00">param.parameterized.Parameterized</text>
</g>
<!-- param.parameterized.Parameterized&#45;&gt;topo.base.sheetview.SheetView -->
<g id="edge4" class="edge"><title>param.parameterized.Parameterized&#45;&gt;topo.base.sheetview.SheetView</title>
<path fill="none" stroke="black" stroke-width="0.5" d="M194.075,-29C204.452,-29 214.97,-29 225.243,-29"/>
<polygon fill="black" stroke="black" points="225.265,-30.7501 230.265,-29 225.265,-27.2501 225.265,-30.7501"/>
</g>
</g>
</svg>
