<?xml version="1.0" encoding="UTF-8" standalone="no"?>
<!DOCTYPE svg PUBLIC "-//W3C//DTD SVG 1.1//EN"
 "http://www.w3.org/Graphics/SVG/1.1/DTD/svg11.dtd">
<!-- Generated by graphviz version 2.26.3 (20100126.1600)
 -->
<!-- Title: inheritanceeb4be40e76 Pages: 1 -->
<svg width="506pt" height="218pt"
 viewBox="0.00 0.00 506.00 218.00" xmlns="http://www.w3.org/2000/svg" xmlns:xlink="http://www.w3.org/1999/xlink">
<g id="graph1" class="graph" transform="scale(1 1) rotate(0) translate(4 214)">
<title>inheritanceeb4be40e76</title>
<polygon fill="white" stroke="white" points="-4,5 -4,-214 503,-214 503,5 -4,5"/>
<!-- topo.tests.unit.testoutputfnsbasic.TestDivisiveLpNormalize -->
<g id="node1" class="node"><title>topo.tests.unit.testoutputfnsbasic.TestDivisiveLpNormalize</title>
<polygon fill="none" stroke="black" stroke-width="0.5" points="478,-210.5 182,-210.5 182,-189.5 478,-189.5 478,-210.5"/>
<text text-anchor="middle" x="330" y="-197.5" font-family="Vera" font-size="10.00">topo.tests.unit.testoutputfnsbasic.TestDivisiveLpNormalize</text>
</g>
<!-- unittest.case.TestCase -->
<g id="node2" class="node"><title>unittest.case.TestCase</title>
<polygon fill="none" stroke="black" stroke-width="0.5" points="125,-115.5 1,-115.5 1,-94.5 125,-94.5 125,-115.5"/>
<text text-anchor="middle" x="63" y="-102.5" font-family="Vera" font-size="10.00">unittest.case.TestCase</text>
</g>
<!-- unittest.case.TestCase&#45;&gt;topo.tests.unit.testoutputfnsbasic.TestDivisiveLpNormalize -->
<g id="edge2" class="edge"><title>unittest.case.TestCase&#45;&gt;topo.tests.unit.testoutputfnsbasic.TestDivisiveLpNormalize</title>
<path fill="none" stroke="black" stroke-width="0.5" d="M72.2488,-115.011C88.541,-131.912 124.226,-165.752 162,-181 169.077,-183.857 176.449,-186.329 183.984,-188.466"/>
<polygon fill="black" stroke="black" points="183.94,-190.268 189.224,-189.892 184.859,-186.89 183.94,-190.268"/>
</g>
<!-- topo.tests.unit.testoutputfnsbasic.TestPiecewiseLinear -->
<g id="node4" class="node"><title>topo.tests.unit.testoutputfnsbasic.TestPiecewiseLinear</title>
<polygon fill="none" stroke="black" stroke-width="0.5" points="467,-172.5 193,-172.5 193,-151.5 467,-151.5 467,-172.5"/>
<text text-anchor="middle" x="330" y="-159.5" font-family="Vera" font-size="10.00">topo.tests.unit.testoutputfnsbasic.TestPiecewiseLinear</text>
</g>
<!-- unittest.case.TestCase&#45;&gt;topo.tests.unit.testoutputfnsbasic.TestPiecewiseLinear -->
<g id="edge4" class="edge"><title>unittest.case.TestCase&#45;&gt;topo.tests.unit.testoutputfnsbasic.TestPiecewiseLinear</title>
<path fill="none" stroke="black" stroke-width="0.5" d="M84.5083,-115.087C104.227,-123.888 134.458,-136.273 162,-143 175.206,-146.225 189.132,-148.906 203.085,-151.132"/>
<polygon fill="black" stroke="black" points="203.016,-152.893 208.226,-151.933 203.554,-149.434 203.016,-152.893"/>
</g>
<!-- topo.tests.unit.testoutputfnsbasic.TestDivisiveMaxNormalize -->
<g id="node6" class="node"><title>topo.tests.unit.testoutputfnsbasic.TestDivisiveMaxNormalize</title>
<polygon fill="none" stroke="black" stroke-width="0.5" points="482,-134.5 178,-134.5 178,-113.5 482,-113.5 482,-134.5"/>
<text text-anchor="middle" x="330" y="-121.5" font-family="Vera" font-size="10.00">topo.tests.unit.testoutputfnsbasic.TestDivisiveMaxNormalize</text>
</g>
<!-- unittest.case.TestCase&#45;&gt;topo.tests.unit.testoutputfnsbasic.TestDivisiveMaxNormalize -->
<g id="edge6" class="edge"><title>unittest.case.TestCase&#45;&gt;topo.tests.unit.testoutputfnsbasic.TestDivisiveMaxNormalize</title>
<path fill="none" stroke="black" stroke-width="0.5" d="M125.6,-109.455C143.361,-110.719 163.482,-112.15 184,-113.61"/>
<polygon fill="black" stroke="black" points="184.112,-115.373 189.223,-113.982 184.36,-111.882 184.112,-115.373"/>
</g>
<!-- topo.tests.unit.testoutputfnsbasic.TestDivisiveNormalizeL1 -->
<g id="node8" class="node"><title>topo.tests.unit.testoutputfnsbasic.TestDivisiveNormalizeL1</title>
<polygon fill="none" stroke="black" stroke-width="0.5" points="478,-96.5 182,-96.5 182,-75.5 478,-75.5 478,-96.5"/>
<text text-anchor="middle" x="330" y="-83.5" font-family="Vera" font-size="10.00">topo.tests.unit.testoutputfnsbasic.TestDivisiveNormalizeL1</text>
</g>
<!-- unittest.case.TestCase&#45;&gt;topo.tests.unit.testoutputfnsbasic.TestDivisiveNormalizeL1 -->
<g id="edge8" class="edge"><title>unittest.case.TestCase&#45;&gt;topo.tests.unit.testoutputfnsbasic.TestDivisiveNormalizeL1</title>
<path fill="none" stroke="black" stroke-width="0.5" d="M125.6,-100.545C143.361,-99.2814 163.482,-97.8496 184,-96.3895"/>
<polygon fill="black" stroke="black" points="184.36,-98.1184 189.223,-96.0178 184.112,-94.6272 184.36,-98.1184"/>
</g>
<!-- topo.tests.unit.testoutputfnsbasic.TestTransferFnWithRandomState -->
<g id="node10" class="node"><title>topo.tests.unit.testoutputfnsbasic.TestTransferFnWithRandomState</title>
<polygon fill="none" stroke="black" stroke-width="0.5" points="497,-58.5 163,-58.5 163,-37.5 497,-37.5 497,-58.5"/>
<text text-anchor="middle" x="330" y="-45.5" font-family="Vera" font-size="10.00">topo.tests.unit.testoutputfnsbasic.TestTransferFnWithRandomState</text>
</g>
<!-- unittest.case.TestCase&#45;&gt;topo.tests.unit.testoutputfnsbasic.TestTransferFnWithRandomState -->
<g id="edge10" class="edge"><title>unittest.case.TestCase&#45;&gt;topo.tests.unit.testoutputfnsbasic.TestTransferFnWithRandomState</title>
<path fill="none" stroke="black" stroke-width="0.5" d="M84.5083,-94.9133C104.227,-86.112 134.458,-73.727 162,-67 175.206,-63.7745 189.132,-61.0943 203.085,-58.8675"/>
<polygon fill="black" stroke="black" points="203.554,-60.5656 208.226,-58.0675 203.016,-57.1073 203.554,-60.5656"/>
</g>
<!-- topo.tests.unit.testoutputfnsbasic.TestDivisiveLengthNormalize -->
<g id="node12" class="node"><title>topo.tests.unit.testoutputfnsbasic.TestDivisiveLengthNormalize</title>
<polygon fill="none" stroke="black" stroke-width="0.5" points="489,-20.5 171,-20.5 171,0.5 489,0.5 489,-20.5"/>
<text text-anchor="middle" x="330" y="-7.5" font-family="Vera" font-size="10.00">topo.tests.unit.testoutputfnsbasic.TestDivisiveLengthNormalize</text>
</g>
<!-- unittest.case.TestCase&#45;&gt;topo.tests.unit.testoutputfnsbasic.TestDivisiveLengthNormalize -->
<g id="edge12" class="edge"><title>unittest.case.TestCase&#45;&gt;topo.tests.unit.testoutputfnsbasic.TestDivisiveLengthNormalize</title>
<path fill="none" stroke="black" stroke-width="0.5" d="M72.2488,-94.9894C88.541,-78.088 124.226,-44.2484 162,-29 169.077,-26.1433 176.449,-23.6708 183.984,-21.5341"/>
<polygon fill="black" stroke="black" points="184.859,-23.1095 189.224,-20.1079 183.94,-19.7323 184.859,-23.1095"/>
</g>
</g>
</svg>
