<?xml version="1.0" encoding="UTF-8" standalone="no"?>
<!DOCTYPE svg PUBLIC "-//W3C//DTD SVG 1.1//EN"
 "http://www.w3.org/Graphics/SVG/1.1/DTD/svg11.dtd">
<!-- Generated by graphviz version 2.26.3 (20100126.1600)
 -->
<!-- Title: inheritance97c36bc686 Pages: 1 -->
<svg width="2118pt" height="208pt"
 viewBox="0.00 0.00 2118.00 208.00" xmlns="http://www.w3.org/2000/svg" xmlns:xlink="http://www.w3.org/1999/xlink">
<g id="graph1" class="graph" transform="scale(1 1) rotate(0) translate(4 204)">
<title>inheritance97c36bc686</title>
<polygon fill="white" stroke="white" points="-4,5 -4,-204 2115,-204 2115,5 -4,5"/>
<!-- topo.plotting.plotgroup.ProjectionSheetPlotGroup -->
<g id="node1" class="node"><title>topo.plotting.plotgroup.ProjectionSheetPlotGroup</title>
<polygon fill="none" stroke="black" stroke-width="0.5" points="1250,-134.5 998,-134.5 998,-113.5 1250,-113.5 1250,-134.5"/>
<text text-anchor="middle" x="1124" y="-121.5" font-family="Vera" font-size="10.00">topo.plotting.plotgroup.ProjectionSheetPlotGroup</text>
</g>
<!-- topo.plotting.plotgroup.GridPlotGroup -->
<g id="node6" class="node"><title>topo.plotting.plotgroup.GridPlotGroup</title>
<polygon fill="none" stroke="black" stroke-width="0.5" points="1513,-172.5 1317,-172.5 1317,-151.5 1513,-151.5 1513,-172.5"/>
<text text-anchor="middle" x="1415" y="-159.5" font-family="Vera" font-size="10.00">topo.plotting.plotgroup.GridPlotGroup</text>
</g>
<!-- topo.plotting.plotgroup.ProjectionSheetPlotGroup&#45;&gt;topo.plotting.plotgroup.GridPlotGroup -->
<g id="edge26" class="edge"><title>topo.plotting.plotgroup.ProjectionSheetPlotGroup&#45;&gt;topo.plotting.plotgroup.GridPlotGroup</title>
<path fill="none" stroke="black" stroke-width="0.5" d="M1200.84,-134.034C1241.61,-139.358 1291.73,-145.902 1333.22,-151.321"/>
<polygon fill="black" stroke="black" points="1333.05,-153.064 1338.24,-151.976 1333.51,-149.593 1333.05,-153.064"/>
</g>
<!-- topo.plotting.plotgroup.ProjectionActivityPlotGroup -->
<g id="node8" class="node"><title>topo.plotting.plotgroup.ProjectionActivityPlotGroup</title>
<polygon fill="none" stroke="black" stroke-width="0.5" points="1544,-134.5 1286,-134.5 1286,-113.5 1544,-113.5 1544,-134.5"/>
<text text-anchor="middle" x="1415" y="-121.5" font-family="Vera" font-size="10.00">topo.plotting.plotgroup.ProjectionActivityPlotGroup</text>
</g>
<!-- topo.plotting.plotgroup.ProjectionSheetPlotGroup&#45;&gt;topo.plotting.plotgroup.ProjectionActivityPlotGroup -->
<g id="edge6" class="edge"><title>topo.plotting.plotgroup.ProjectionSheetPlotGroup&#45;&gt;topo.plotting.plotgroup.ProjectionActivityPlotGroup</title>
<path fill="none" stroke="black" stroke-width="0.5" d="M1250.37,-124C1260.52,-124 1270.79,-124 1280.99,-124"/>
<polygon fill="black" stroke="black" points="1280.99,-125.75 1285.99,-124 1280.99,-122.25 1280.99,-125.75"/>
</g>
<!-- topo.plotting.plotgroup.UnitPlotGroup -->
<g id="node10" class="node"><title>topo.plotting.plotgroup.UnitPlotGroup</title>
<polygon fill="none" stroke="black" stroke-width="0.5" points="1513,-96.5 1317,-96.5 1317,-75.5 1513,-75.5 1513,-96.5"/>
<text text-anchor="middle" x="1415" y="-83.5" font-family="Vera" font-size="10.00">topo.plotting.plotgroup.UnitPlotGroup</text>
</g>
<!-- topo.plotting.plotgroup.ProjectionSheetPlotGroup&#45;&gt;topo.plotting.plotgroup.UnitPlotGroup -->
<g id="edge8" class="edge"><title>topo.plotting.plotgroup.ProjectionSheetPlotGroup&#45;&gt;topo.plotting.plotgroup.UnitPlotGroup</title>
<path fill="none" stroke="black" stroke-width="0.5" d="M1200.84,-113.966C1241.61,-108.642 1291.73,-102.098 1333.22,-96.6791"/>
<polygon fill="black" stroke="black" points="1333.51,-98.4068 1338.24,-96.024 1333.05,-94.9363 1333.51,-98.4068"/>
</g>
<!-- topo.plotting.plotgroup.TemplatePlotGroup -->
<g id="node2" class="node"><title>topo.plotting.plotgroup.TemplatePlotGroup</title>
<polygon fill="none" stroke="black" stroke-width="0.5" points="962,-96.5 742,-96.5 742,-75.5 962,-75.5 962,-96.5"/>
<text text-anchor="middle" x="852" y="-83.5" font-family="Vera" font-size="10.00">topo.plotting.plotgroup.TemplatePlotGroup</text>
</g>
<!-- topo.plotting.plotgroup.TemplatePlotGroup&#45;&gt;topo.plotting.plotgroup.ProjectionSheetPlotGroup -->
<g id="edge2" class="edge"><title>topo.plotting.plotgroup.TemplatePlotGroup&#45;&gt;topo.plotting.plotgroup.ProjectionSheetPlotGroup</title>
<path fill="none" stroke="black" stroke-width="0.5" d="M923.821,-96.0338C961.78,-101.337 1008.39,-107.849 1047.09,-113.255"/>
<polygon fill="black" stroke="black" points="1047.05,-115.017 1052.25,-113.976 1047.54,-111.551 1047.05,-115.017"/>
</g>
<!-- topo.plotting.plotgroup.TwoOrientationsPlotGroup -->
<g id="node29" class="node"><title>topo.plotting.plotgroup.TwoOrientationsPlotGroup</title>
<polygon fill="none" stroke="black" stroke-width="0.5" points="1249,-96.5 999,-96.5 999,-75.5 1249,-75.5 1249,-96.5"/>
<text text-anchor="middle" x="1124" y="-83.5" font-family="Vera" font-size="10.00">topo.plotting.plotgroup.TwoOrientationsPlotGroup</text>
</g>
<!-- topo.plotting.plotgroup.TemplatePlotGroup&#45;&gt;topo.plotting.plotgroup.TwoOrientationsPlotGroup -->
<g id="edge28" class="edge"><title>topo.plotting.plotgroup.TemplatePlotGroup&#45;&gt;topo.plotting.plotgroup.TwoOrientationsPlotGroup</title>
<path fill="none" stroke="black" stroke-width="0.5" d="M962.241,-86C972.491,-86 982.945,-86 993.356,-86"/>
<polygon fill="black" stroke="black" points="993.463,-87.7501 998.463,-86 993.463,-84.2501 993.463,-87.7501"/>
</g>
<!-- topo.plotting.plotgroup.RetinotopyPlotGroup -->
<g id="node33" class="node"><title>topo.plotting.plotgroup.RetinotopyPlotGroup</title>
<polygon fill="none" stroke="black" stroke-width="0.5" points="1237,-58.5 1011,-58.5 1011,-37.5 1237,-37.5 1237,-58.5"/>
<text text-anchor="middle" x="1124" y="-45.5" font-family="Vera" font-size="10.00">topo.plotting.plotgroup.RetinotopyPlotGroup</text>
</g>
<!-- topo.plotting.plotgroup.TemplatePlotGroup&#45;&gt;topo.plotting.plotgroup.RetinotopyPlotGroup -->
<g id="edge32" class="edge"><title>topo.plotting.plotgroup.TemplatePlotGroup&#45;&gt;topo.plotting.plotgroup.RetinotopyPlotGroup</title>
<path fill="none" stroke="black" stroke-width="0.5" d="M923.821,-75.9662C961.78,-70.6631 1008.39,-64.1509 1047.09,-58.7453"/>
<polygon fill="black" stroke="black" points="1047.54,-60.4491 1052.25,-58.024 1047.05,-56.9828 1047.54,-60.4491"/>
</g>
<!-- param.parameterized.Parameterized -->
<g id="node4" class="node"><title>param.parameterized.Parameterized</title>
<polygon fill="none" stroke="black" stroke-width="0.5" points="194,-58.5 5.68434e-14,-58.5 0,-37.5 194,-37.5 194,-58.5"/>
<text text-anchor="middle" x="97" y="-45.5" font-family="Vera" font-size="10.00">param.parameterized.Parameterized</text>
</g>
<!-- topo.plotting.plotgroup.PlotGroup -->
<g id="node15" class="node"><title>topo.plotting.plotgroup.PlotGroup</title>
<polygon fill="none" stroke="black" stroke-width="0.5" points="435,-96.5 259,-96.5 259,-75.5 435,-75.5 435,-96.5"/>
<text text-anchor="middle" x="347" y="-83.5" font-family="Vera" font-size="10.00">topo.plotting.plotgroup.PlotGroup</text>
</g>
<!-- param.parameterized.Parameterized&#45;&gt;topo.plotting.plotgroup.PlotGroup -->
<g id="edge20" class="edge"><title>param.parameterized.Parameterized&#45;&gt;topo.plotting.plotgroup.PlotGroup</title>
<path fill="none" stroke="black" stroke-width="0.5" d="M163.012,-58.0338C197.758,-63.3152 240.394,-69.796 275.872,-75.1885"/>
<polygon fill="black" stroke="black" points="275.846,-76.9546 281.052,-75.976 276.372,-73.4944 275.846,-76.9546"/>
</g>
<!-- param.parameterized.ParameterizedFunction -->
<g id="node26" class="node"><title>param.parameterized.ParameterizedFunction</title>
<polygon fill="none" stroke="black" stroke-width="0.5" points="464,-58.5 230,-58.5 230,-37.5 464,-37.5 464,-58.5"/>
<text text-anchor="middle" x="347" y="-45.5" font-family="Vera" font-size="10.00">param.parameterized.ParameterizedFunction</text>
</g>
<!-- param.parameterized.Parameterized&#45;&gt;param.parameterized.ParameterizedFunction -->
<g id="edge34" class="edge"><title>param.parameterized.Parameterized&#45;&gt;param.parameterized.ParameterizedFunction</title>
<path fill="none" stroke="black" stroke-width="0.5" d="M194.014,-48C204.04,-48 214.319,-48 224.575,-48"/>
<polygon fill="black" stroke="black" points="224.607,-49.7501 229.607,-48 224.607,-46.2501 224.607,-49.7501"/>
</g>
<!-- topo.plotting.plotgroup.Subplotting -->
<g id="node31" class="node"><title>topo.plotting.plotgroup.Subplotting</title>
<polygon fill="none" stroke="black" stroke-width="0.5" points="439,-20.5 255,-20.5 255,0.5 439,0.5 439,-20.5"/>
<text text-anchor="middle" x="347" y="-7.5" font-family="Vera" font-size="10.00">topo.plotting.plotgroup.Subplotting</text>
</g>
<!-- param.parameterized.Parameterized&#45;&gt;topo.plotting.plotgroup.Subplotting -->
<g id="edge30" class="edge"><title>param.parameterized.Parameterized&#45;&gt;topo.plotting.plotgroup.Subplotting</title>
<path fill="none" stroke="black" stroke-width="0.5" d="M163.012,-37.9662C197.758,-32.6848 240.394,-26.204 275.872,-20.8115"/>
<polygon fill="black" stroke="black" points="276.372,-22.5056 281.052,-20.024 275.846,-19.0454 276.372,-22.5056"/>
</g>
<!-- topo.plotting.plotgroup.ProjectionPlotGroup -->
<g id="node5" class="node"><title>topo.plotting.plotgroup.ProjectionPlotGroup</title>
<polygon fill="none" stroke="black" stroke-width="0.5" points="1821,-200.5 1597,-200.5 1597,-179.5 1821,-179.5 1821,-200.5"/>
<text text-anchor="middle" x="1709" y="-187.5" font-family="Vera" font-size="10.00">topo.plotting.plotgroup.ProjectionPlotGroup</text>
</g>
<!-- topo.plotting.plotgroup.CFProjectionPlotGroup -->
<g id="node12" class="node"><title>topo.plotting.plotgroup.CFProjectionPlotGroup</title>
<polygon fill="none" stroke="black" stroke-width="0.5" points="2110,-200.5 1874,-200.5 1874,-179.5 2110,-179.5 2110,-200.5"/>
<text text-anchor="middle" x="1992" y="-187.5" font-family="Vera" font-size="10.00">topo.plotting.plotgroup.CFProjectionPlotGroup</text>
</g>
<!-- topo.plotting.plotgroup.ProjectionPlotGroup&#45;&gt;topo.plotting.plotgroup.CFProjectionPlotGroup -->
<g id="edge10" class="edge"><title>topo.plotting.plotgroup.ProjectionPlotGroup&#45;&gt;topo.plotting.plotgroup.CFProjectionPlotGroup</title>
<path fill="none" stroke="black" stroke-width="0.5" d="M1821.26,-190C1836.78,-190 1852.8,-190 1868.52,-190"/>
<polygon fill="black" stroke="black" points="1868.84,-191.75 1873.84,-190 1868.84,-188.25 1868.84,-191.75"/>
</g>
<!-- topo.plotting.plotgroup.GridPlotGroup&#45;&gt;topo.plotting.plotgroup.ProjectionPlotGroup -->
<g id="edge4" class="edge"><title>topo.plotting.plotgroup.GridPlotGroup&#45;&gt;topo.plotting.plotgroup.ProjectionPlotGroup</title>
<path fill="none" stroke="black" stroke-width="0.5" d="M1513.31,-171.363C1540.73,-173.974 1570.7,-176.829 1598.76,-179.501"/>
<polygon fill="black" stroke="black" points="1598.83,-181.266 1603.98,-179.998 1599.17,-177.782 1598.83,-181.266"/>
</g>
<!-- topo.plotting.plotgroup.RFProjectionPlotGroup -->
<g id="node23" class="node"><title>topo.plotting.plotgroup.RFProjectionPlotGroup</title>
<polygon fill="none" stroke="black" stroke-width="0.5" points="1826,-162.5 1592,-162.5 1592,-141.5 1826,-141.5 1826,-162.5"/>
<text text-anchor="middle" x="1709" y="-149.5" font-family="Vera" font-size="10.00">topo.plotting.plotgroup.RFProjectionPlotGroup</text>
</g>
<!-- topo.plotting.plotgroup.GridPlotGroup&#45;&gt;topo.plotting.plotgroup.RFProjectionPlotGroup -->
<g id="edge22" class="edge"><title>topo.plotting.plotgroup.GridPlotGroup&#45;&gt;topo.plotting.plotgroup.RFProjectionPlotGroup</title>
<path fill="none" stroke="black" stroke-width="0.5" d="M1513.31,-158.656C1536.68,-157.861 1561.91,-157.003 1586.23,-156.176"/>
<polygon fill="black" stroke="black" points="1586.47,-157.919 1591.41,-156 1586.35,-154.421 1586.47,-157.919"/>
</g>
<!-- topo.plotting.plotgroup.FeatureCurvePlotGroup -->
<g id="node17" class="node"><title>topo.plotting.plotgroup.FeatureCurvePlotGroup</title>
<polygon fill="none" stroke="black" stroke-width="0.5" points="1829,-115.5 1589,-115.5 1589,-94.5 1829,-94.5 1829,-115.5"/>
<text text-anchor="middle" x="1709" y="-102.5" font-family="Vera" font-size="10.00">topo.plotting.plotgroup.FeatureCurvePlotGroup</text>
</g>
<!-- topo.plotting.plotgroup.UnitPlotGroup&#45;&gt;topo.plotting.plotgroup.FeatureCurvePlotGroup -->
<g id="edge14" class="edge"><title>topo.plotting.plotgroup.UnitPlotGroup&#45;&gt;topo.plotting.plotgroup.FeatureCurvePlotGroup</title>
<path fill="none" stroke="black" stroke-width="0.5" d="M1513.31,-92.3531C1535.9,-93.8135 1560.23,-95.3857 1583.8,-96.9086"/>
<polygon fill="black" stroke="black" points="1583.71,-98.6565 1588.81,-97.2327 1583.94,-95.1638 1583.71,-98.6565"/>
</g>
<!-- topo.plotting.plotgroup.ConnectionFieldsPlotGroup -->
<g id="node20" class="node"><title>topo.plotting.plotgroup.ConnectionFieldsPlotGroup</title>
<polygon fill="none" stroke="black" stroke-width="0.5" points="1837,-77.5 1581,-77.5 1581,-56.5 1837,-56.5 1837,-77.5"/>
<text text-anchor="middle" x="1709" y="-64.5" font-family="Vera" font-size="10.00">topo.plotting.plotgroup.ConnectionFieldsPlotGroup</text>
</g>
<!-- topo.plotting.plotgroup.UnitPlotGroup&#45;&gt;topo.plotting.plotgroup.ConnectionFieldsPlotGroup -->
<g id="edge18" class="edge"><title>topo.plotting.plotgroup.UnitPlotGroup&#45;&gt;topo.plotting.plotgroup.ConnectionFieldsPlotGroup</title>
<path fill="none" stroke="black" stroke-width="0.5" d="M1513.31,-79.6469C1533.24,-78.3585 1554.52,-76.9831 1575.44,-75.6313"/>
<polygon fill="black" stroke="black" points="1575.59,-77.3756 1580.46,-75.3067 1575.36,-73.8829 1575.59,-77.3756"/>
</g>
<!-- topo.plotting.plotgroup.SheetPlotGroup -->
<g id="node14" class="node"><title>topo.plotting.plotgroup.SheetPlotGroup</title>
<polygon fill="none" stroke="black" stroke-width="0.5" points="705,-96.5 501,-96.5 501,-75.5 705,-75.5 705,-96.5"/>
<text text-anchor="middle" x="603" y="-83.5" font-family="Vera" font-size="10.00">topo.plotting.plotgroup.SheetPlotGroup</text>
</g>
<!-- topo.plotting.plotgroup.SheetPlotGroup&#45;&gt;topo.plotting.plotgroup.TemplatePlotGroup -->
<g id="edge16" class="edge"><title>topo.plotting.plotgroup.SheetPlotGroup&#45;&gt;topo.plotting.plotgroup.TemplatePlotGroup</title>
<path fill="none" stroke="black" stroke-width="0.5" d="M705.715,-86C715.962,-86 726.411,-86 736.774,-86"/>
<polygon fill="black" stroke="black" points="736.853,-87.7501 741.853,-86 736.853,-84.2501 736.853,-87.7501"/>
</g>
<!-- topo.plotting.plotgroup.PlotGroup&#45;&gt;topo.plotting.plotgroup.SheetPlotGroup -->
<g id="edge12" class="edge"><title>topo.plotting.plotgroup.PlotGroup&#45;&gt;topo.plotting.plotgroup.SheetPlotGroup</title>
<path fill="none" stroke="black" stroke-width="0.5" d="M435.101,-86C454.434,-86 475.117,-86 495.126,-86"/>
<polygon fill="black" stroke="black" points="495.198,-87.7501 500.198,-86 495.197,-84.2501 495.198,-87.7501"/>
</g>
<!-- topo.plotting.plotgroup.save_plotgroup -->
<g id="node25" class="node"><title>topo.plotting.plotgroup.save_plotgroup</title>
<polygon fill="none" stroke="black" stroke-width="0.5" points="704,-58.5 502,-58.5 502,-37.5 704,-37.5 704,-58.5"/>
<text text-anchor="middle" x="603" y="-45.5" font-family="Vera" font-size="10.00">topo.plotting.plotgroup.save_plotgroup</text>
</g>
<!-- param.parameterized.ParameterizedFunction&#45;&gt;topo.plotting.plotgroup.save_plotgroup -->
<g id="edge24" class="edge"><title>param.parameterized.ParameterizedFunction&#45;&gt;topo.plotting.plotgroup.save_plotgroup</title>
<path fill="none" stroke="black" stroke-width="0.5" d="M464.137,-48C474.772,-48 485.508,-48 496.048,-48"/>
<polygon fill="black" stroke="black" points="496.206,-49.7501 501.206,-48 496.206,-46.2501 496.206,-49.7501"/>
</g>
</g>
</svg>
