<?xml version="1.0" encoding="UTF-8" standalone="no"?>
<!DOCTYPE svg PUBLIC "-//W3C//DTD SVG 1.1//EN"
 "http://www.w3.org/Graphics/SVG/1.1/DTD/svg11.dtd">
<!-- Generated by graphviz version 2.26.3 (20100126.1600)
 -->
<!-- Title: inheritance6c9d819611 Pages: 1 -->
<svg width="346pt" height="66pt"
 viewBox="0.00 0.00 346.00 66.00" xmlns="http://www.w3.org/2000/svg" xmlns:xlink="http://www.w3.org/1999/xlink">
<g id="graph1" class="graph" transform="scale(1 1) rotate(0) translate(4 62)">
<title>inheritance6c9d819611</title>
<polygon fill="white" stroke="white" points="-4,5 -4,-62 343,-62 343,5 -4,5"/>
<!-- param.ipython.ParamPager -->
<g id="node1" class="node"><title>param.ipython.ParamPager</title>
<polygon fill="none" stroke="black" stroke-width="0.5" points="147,-20.5 1,-20.5 1,0.5 147,0.5 147,-20.5"/>
<text text-anchor="middle" x="74" y="-7.5" font-family="Vera" font-size="10.00">param.ipython.ParamPager</text>
</g>
<!-- IPython.core.magic.Magics -->
<g id="node2" class="node"><title>IPython.core.magic.Magics</title>
<polygon fill="none" stroke="black" stroke-width="0.5" points="146,-58.5 2,-58.5 2,-37.5 146,-37.5 146,-58.5"/>
<text text-anchor="middle" x="74" y="-45.5" font-family="Vera" font-size="10.00">IPython.core.magic.Magics</text>
</g>
<!-- param.ipython.ParamMagics -->
<g id="node3" class="node"><title>param.ipython.ParamMagics</title>
<polygon fill="none" stroke="black" stroke-width="0.5" points="337,-58.5 185,-58.5 185,-37.5 337,-37.5 337,-58.5"/>
<text text-anchor="middle" x="261" y="-45.5" font-family="Vera" font-size="10.00">param.ipython.ParamMagics</text>
</g>
<!-- IPython.core.magic.Magics&#45;&gt;param.ipython.ParamMagics -->
<g id="edge2" class="edge"><title>IPython.core.magic.Magics&#45;&gt;param.ipython.ParamMagics</title>
<path fill="none" stroke="black" stroke-width="0.5" d="M146.032,-48C156.917,-48 168.212,-48 179.284,-48"/>
<polygon fill="black" stroke="black" points="179.353,-49.7501 184.353,-48 179.353,-46.2501 179.353,-49.7501"/>
</g>
</g>
</svg>
