<?xml version="1.0" encoding="UTF-8" standalone="no"?>
<!DOCTYPE svg PUBLIC "-//W3C//DTD SVG 1.1//EN"
 "http://www.w3.org/Graphics/SVG/1.1/DTD/svg11.dtd">
<!-- Generated by graphviz version 2.26.3 (20100126.1600)
 -->
<!-- Title: inheritanceb299c4dd19 Pages: 1 -->
<svg width="950pt" height="170pt"
 viewBox="0.00 0.00 950.00 170.00" xmlns="http://www.w3.org/2000/svg" xmlns:xlink="http://www.w3.org/1999/xlink">
<g id="graph1" class="graph" transform="scale(1 1) rotate(0) translate(4 166)">
<title>inheritanceb299c4dd19</title>
<polygon fill="white" stroke="white" points="-4,5 -4,-166 947,-166 947,5 -4,5"/>
<!-- imagen.random.UniformRandom -->
<g id="node1" class="node"><title>imagen.random.UniformRandom</title>
<polygon fill="none" stroke="black" stroke-width="0.5" points="927,-162.5 753,-162.5 753,-141.5 927,-141.5 927,-162.5"/>
<text text-anchor="middle" x="840" y="-149.5" font-family="Vera" font-size="10.00">imagen.random.UniformRandom</text>
</g>
<!-- imagen.random.RandomGenerator -->
<g id="node2" class="node"><title>imagen.random.RandomGenerator</title>
<polygon fill="none" stroke="black" stroke-width="0.5" points="688,-115.5 504,-115.5 504,-94.5 688,-94.5 688,-115.5"/>
<text text-anchor="middle" x="596" y="-102.5" font-family="Vera" font-size="10.00">imagen.random.RandomGenerator</text>
</g>
<!-- imagen.random.RandomGenerator&#45;&gt;imagen.random.UniformRandom -->
<g id="edge2" class="edge"><title>imagen.random.RandomGenerator&#45;&gt;imagen.random.UniformRandom</title>
<path fill="none" stroke="black" stroke-width="0.5" d="M646.249,-115.042C673.403,-120.435 707.523,-127.157 738,-133 751.786,-135.643 766.631,-138.438 780.613,-141.047"/>
<polygon fill="black" stroke="black" points="780.485,-142.803 785.721,-141.999 781.126,-139.362 780.485,-142.803"/>
</g>
<!-- imagen.random.GaussianRandom -->
<g id="node14" class="node"><title>imagen.random.GaussianRandom</title>
<polygon fill="none" stroke="black" stroke-width="0.5" points="930,-124.5 750,-124.5 750,-103.5 930,-103.5 930,-124.5"/>
<text text-anchor="middle" x="840" y="-111.5" font-family="Vera" font-size="10.00">imagen.random.GaussianRandom</text>
</g>
<!-- imagen.random.RandomGenerator&#45;&gt;imagen.random.GaussianRandom -->
<g id="edge14" class="edge"><title>imagen.random.RandomGenerator&#45;&gt;imagen.random.GaussianRandom</title>
<path fill="none" stroke="black" stroke-width="0.5" d="M688.594,-108.415C706.955,-109.093 726.261,-109.805 744.711,-110.485"/>
<polygon fill="black" stroke="black" points="744.829,-112.241 749.89,-110.676 744.958,-108.743 744.829,-112.241"/>
</g>
<!-- imagen.random.BinaryUniformRandom -->
<g id="node16" class="node"><title>imagen.random.BinaryUniformRandom</title>
<polygon fill="none" stroke="black" stroke-width="0.5" points="942,-86.5 738,-86.5 738,-65.5 942,-65.5 942,-86.5"/>
<text text-anchor="middle" x="840" y="-73.5" font-family="Vera" font-size="10.00">imagen.random.BinaryUniformRandom</text>
</g>
<!-- imagen.random.RandomGenerator&#45;&gt;imagen.random.BinaryUniformRandom -->
<g id="edge16" class="edge"><title>imagen.random.RandomGenerator&#45;&gt;imagen.random.BinaryUniformRandom</title>
<path fill="none" stroke="black" stroke-width="0.5" d="M680.313,-94.9792C702.98,-92.2852 727.572,-89.3624 750.51,-86.6362"/>
<polygon fill="black" stroke="black" points="750.926,-88.3491 755.684,-86.0212 750.512,-84.8736 750.926,-88.3491"/>
</g>
<!-- imagen.patterngenerator.PatternGenerator -->
<g id="node4" class="node"><title>imagen.patterngenerator.PatternGenerator</title>
<polygon fill="none" stroke="black" stroke-width="0.5" points="454,-58.5 230,-58.5 230,-37.5 454,-37.5 454,-58.5"/>
<text text-anchor="middle" x="342" y="-45.5" font-family="Vera" font-size="10.00">imagen.patterngenerator.PatternGenerator</text>
</g>
<!-- imagen.patterngenerator.PatternGenerator&#45;&gt;imagen.random.RandomGenerator -->
<g id="edge4" class="edge"><title>imagen.patterngenerator.PatternGenerator&#45;&gt;imagen.random.RandomGenerator</title>
<path fill="none" stroke="black" stroke-width="0.5" d="M386.825,-58.0592C431.484,-68.0811 499.901,-83.4344 546.223,-93.8295"/>
<polygon fill="black" stroke="black" points="545.934,-95.5582 551.196,-94.9456 546.701,-92.1432 545.934,-95.5582"/>
</g>
<!-- imagen.Composite -->
<g id="node7" class="node"><title>imagen.Composite</title>
<polygon fill="none" stroke="black" stroke-width="0.5" points="649,-58.5 543,-58.5 543,-37.5 649,-37.5 649,-58.5"/>
<text text-anchor="middle" x="596" y="-45.5" font-family="Vera" font-size="10.00">imagen.Composite</text>
</g>
<!-- imagen.patterngenerator.PatternGenerator&#45;&gt;imagen.Composite -->
<g id="edge10" class="edge"><title>imagen.patterngenerator.PatternGenerator&#45;&gt;imagen.Composite</title>
<path fill="none" stroke="black" stroke-width="0.5" d="M454.147,-48C482.808,-48 512.492,-48 537.251,-48"/>
<polygon fill="black" stroke="black" points="537.458,-49.7501 542.458,-48 537.458,-46.2501 537.458,-49.7501"/>
</g>
<!-- imagen.random.RandomDotStereogram -->
<g id="node12" class="node"><title>imagen.random.RandomDotStereogram</title>
<polygon fill="none" stroke="black" stroke-width="0.5" points="701,-20.5 491,-20.5 491,0.5 701,0.5 701,-20.5"/>
<text text-anchor="middle" x="596" y="-7.5" font-family="Vera" font-size="10.00">imagen.random.RandomDotStereogram</text>
</g>
<!-- imagen.patterngenerator.PatternGenerator&#45;&gt;imagen.random.RandomDotStereogram -->
<g id="edge12" class="edge"><title>imagen.patterngenerator.PatternGenerator&#45;&gt;imagen.random.RandomDotStereogram</title>
<path fill="none" stroke="black" stroke-width="0.5" d="M409.068,-37.9662C444.37,-32.6848 487.689,-26.204 523.734,-20.8115"/>
<polygon fill="black" stroke="black" points="524.311,-22.4947 528.997,-20.024 523.793,-19.0332 524.311,-22.4947"/>
</g>
<!-- imagen.random.GaussianCloud -->
<g id="node6" class="node"><title>imagen.random.GaussianCloud</title>
<polygon fill="none" stroke="black" stroke-width="0.5" points="923,-48.5 757,-48.5 757,-27.5 923,-27.5 923,-48.5"/>
<text text-anchor="middle" x="840" y="-35.5" font-family="Vera" font-size="10.00">imagen.random.GaussianCloud</text>
</g>
<!-- imagen.Composite&#45;&gt;imagen.random.GaussianCloud -->
<g id="edge6" class="edge"><title>imagen.Composite&#45;&gt;imagen.random.GaussianCloud</title>
<path fill="none" stroke="black" stroke-width="0.5" d="M649.547,-45.8055C679.364,-44.5835 717.246,-43.0309 751.359,-41.6328"/>
<polygon fill="black" stroke="black" points="751.44,-43.3811 756.364,-41.4277 751.296,-39.884 751.44,-43.3811"/>
</g>
<!-- param.parameterized.Parameterized -->
<g id="node9" class="node"><title>param.parameterized.Parameterized</title>
<polygon fill="none" stroke="black" stroke-width="0.5" points="194,-58.5 5.68434e-14,-58.5 0,-37.5 194,-37.5 194,-58.5"/>
<text text-anchor="middle" x="97" y="-45.5" font-family="Vera" font-size="10.00">param.parameterized.Parameterized</text>
</g>
<!-- param.parameterized.Parameterized&#45;&gt;imagen.patterngenerator.PatternGenerator -->
<g id="edge8" class="edge"><title>param.parameterized.Parameterized&#45;&gt;imagen.patterngenerator.PatternGenerator</title>
<path fill="none" stroke="black" stroke-width="0.5" d="M194.182,-48C204.286,-48 214.629,-48 224.922,-48"/>
<polygon fill="black" stroke="black" points="224.969,-49.7501 229.969,-48 224.969,-46.2501 224.969,-49.7501"/>
</g>
</g>
</svg>
