<?xml version="1.0" encoding="UTF-8" standalone="no"?>
<!DOCTYPE svg PUBLIC "-//W3C//DTD SVG 1.1//EN"
 "http://www.w3.org/Graphics/SVG/1.1/DTD/svg11.dtd">
<!-- Generated by graphviz version 2.26.3 (20100126.1600)
 -->
<!-- Title: inheritance788dc9c7ab Pages: 1 -->
<svg width="444pt" height="66pt"
 viewBox="0.00 0.00 444.00 66.00" xmlns="http://www.w3.org/2000/svg" xmlns:xlink="http://www.w3.org/1999/xlink">
<g id="graph1" class="graph" transform="scale(1 1) rotate(0) translate(4 62)">
<title>inheritance788dc9c7ab</title>
<polygon fill="white" stroke="white" points="-4,5 -4,-62 441,-62 441,5 -4,5"/>
<!-- numpy.ndarray -->
<g id="node1" class="node"><title>numpy.ndarray</title>
<polygon fill="none" stroke="black" stroke-width="0.5" points="168,-20.5 80,-20.5 80,0.5 168,0.5 168,-20.5"/>
<text text-anchor="middle" x="124" y="-7.5" font-family="Vera" font-size="10.00">numpy.ndarray</text>
</g>
<!-- dataviews.sheetcoords.Slice -->
<g id="node2" class="node"><title>dataviews.sheetcoords.Slice</title>
<polygon fill="none" stroke="black" stroke-width="0.5" points="436,-20.5 284,-20.5 284,0.5 436,0.5 436,-20.5"/>
<text text-anchor="middle" x="360" y="-7.5" font-family="Vera" font-size="10.00">dataviews.sheetcoords.Slice</text>
</g>
<!-- numpy.ndarray&#45;&gt;dataviews.sheetcoords.Slice -->
<g id="edge2" class="edge"><title>numpy.ndarray&#45;&gt;dataviews.sheetcoords.Slice</title>
<path fill="none" stroke="black" stroke-width="0.5" d="M168.113,-10C199.012,-10 241.223,-10 278.187,-10"/>
<polygon fill="black" stroke="black" points="278.601,-11.7501 283.601,-10 278.601,-8.25009 278.601,-11.7501"/>
</g>
<!-- dataviews.sheetcoords.SheetCoordinateSystem -->
<g id="node4" class="node"><title>dataviews.sheetcoords.SheetCoordinateSystem</title>
<polygon fill="none" stroke="black" stroke-width="0.5" points="247,-58.5 1,-58.5 1,-37.5 247,-37.5 247,-58.5"/>
<text text-anchor="middle" x="124" y="-45.5" font-family="Vera" font-size="10.00">dataviews.sheetcoords.SheetCoordinateSystem</text>
</g>
</g>
</svg>
