<?xml version="1.0" encoding="UTF-8" standalone="no"?>
<!DOCTYPE svg PUBLIC "-//W3C//DTD SVG 1.1//EN"
 "http://www.w3.org/Graphics/SVG/1.1/DTD/svg11.dtd">
<!-- Generated by graphviz version 2.26.3 (20100126.1600)
 -->
<!-- Title: inheritance273a80740e Pages: 1 -->
<svg width="1224pt" height="940pt"
 viewBox="0.00 0.00 1224.00 940.00" xmlns="http://www.w3.org/2000/svg" xmlns:xlink="http://www.w3.org/1999/xlink">
<g id="graph1" class="graph" transform="scale(1 1) rotate(0) translate(4 936)">
<title>inheritance273a80740e</title>
<polygon fill="white" stroke="white" points="-4,5 -4,-936 1221,-936 1221,5 -4,5"/>
<!-- param.parameterized.Parameterized -->
<g id="node1" class="node"><title>param.parameterized.Parameterized</title>
<polygon fill="none" stroke="black" stroke-width="0.5" points="194,-334.5 5.68434e-14,-334.5 0,-313.5 194,-313.5 194,-334.5"/>
<text text-anchor="middle" x="97" y="-321.5" font-family="Vera" font-size="10.00">param.parameterized.Parameterized</text>
</g>
<!-- imagen.patterngenerator.PatternGenerator -->
<g id="node3" class="node"><title>imagen.patterngenerator.PatternGenerator</title>
<polygon fill="none" stroke="black" stroke-width="0.5" points="454,-457.5 230,-457.5 230,-436.5 454,-436.5 454,-457.5"/>
<text text-anchor="middle" x="342" y="-444.5" font-family="Vera" font-size="10.00">imagen.patterngenerator.PatternGenerator</text>
</g>
<!-- param.parameterized.Parameterized&#45;&gt;imagen.patterngenerator.PatternGenerator -->
<g id="edge34" class="edge"><title>param.parameterized.Parameterized&#45;&gt;imagen.patterngenerator.PatternGenerator</title>
<path fill="none" stroke="black" stroke-width="0.5" d="M117.049,-334.066C161.666,-356.465 269.033,-410.368 317.513,-434.707"/>
<polygon fill="black" stroke="black" points="316.764,-436.288 322.017,-436.968 318.334,-433.16 316.764,-436.288"/>
</g>
<!-- imagen.TimeSeries -->
<g id="node36" class="node"><title>imagen.TimeSeries</title>
<polygon fill="none" stroke="black" stroke-width="0.5" points="396,-334.5 288,-334.5 288,-313.5 396,-313.5 396,-334.5"/>
<text text-anchor="middle" x="342" y="-321.5" font-family="Vera" font-size="10.00">imagen.TimeSeries</text>
</g>
<!-- param.parameterized.Parameterized&#45;&gt;imagen.TimeSeries -->
<g id="edge32" class="edge"><title>param.parameterized.Parameterized&#45;&gt;imagen.TimeSeries</title>
<path fill="none" stroke="black" stroke-width="0.5" d="M194.182,-324C223.866,-324 255.624,-324 282.066,-324"/>
<polygon fill="black" stroke="black" points="282.281,-325.75 287.281,-324 282.281,-322.25 282.281,-325.75"/>
</g>
<!-- dataviews.ndmapping.NdIndexableMapping -->
<g id="node41" class="node"><title>dataviews.ndmapping.NdIndexableMapping</title>
<polygon fill="none" stroke="black" stroke-width="0.5" points="454,-125.5 230,-125.5 230,-104.5 454,-104.5 454,-125.5"/>
<text text-anchor="middle" x="342" y="-112.5" font-family="Vera" font-size="10.00">dataviews.ndmapping.NdIndexableMapping</text>
</g>
<!-- param.parameterized.Parameterized&#45;&gt;dataviews.ndmapping.NdIndexableMapping -->
<g id="edge42" class="edge"><title>param.parameterized.Parameterized&#45;&gt;dataviews.ndmapping.NdIndexableMapping</title>
<path fill="none" stroke="black" stroke-width="0.5" d="M108.817,-313.919C148.993,-279.647 280.353,-167.589 326.11,-128.555"/>
<polygon fill="black" stroke="black" points="327.346,-129.801 330.015,-125.224 325.075,-127.138 327.346,-129.801"/>
</g>
<!-- imagen.SineGrating -->
<g id="node2" class="node"><title>imagen.SineGrating</title>
<polygon fill="none" stroke="black" stroke-width="0.5" points="635,-894.5 523,-894.5 523,-873.5 635,-873.5 635,-894.5"/>
<text text-anchor="middle" x="579" y="-881.5" font-family="Vera" font-size="10.00">imagen.SineGrating</text>
</g>
<!-- imagen.OrientationContrast -->
<g id="node13" class="node"><title>imagen.OrientationContrast</title>
<polygon fill="none" stroke="black" stroke-width="0.5" points="858,-894.5 708,-894.5 708,-873.5 858,-873.5 858,-894.5"/>
<text text-anchor="middle" x="783" y="-881.5" font-family="Vera" font-size="10.00">imagen.OrientationContrast</text>
</g>
<!-- imagen.SineGrating&#45;&gt;imagen.OrientationContrast -->
<g id="edge12" class="edge"><title>imagen.SineGrating&#45;&gt;imagen.OrientationContrast</title>
<path fill="none" stroke="black" stroke-width="0.5" d="M635.014,-884C655.959,-884 680.176,-884 702.876,-884"/>
<polygon fill="black" stroke="black" points="702.998,-885.75 707.998,-884 702.998,-882.25 702.998,-885.75"/>
</g>
<!-- imagen.patterngenerator.PatternGenerator&#45;&gt;imagen.SineGrating -->
<g id="edge2" class="edge"><title>imagen.patterngenerator.PatternGenerator&#45;&gt;imagen.SineGrating</title>
<path fill="none" stroke="black" stroke-width="0.5" d="M344.211,-457.252C357.021,-515.731 423.466,-806.596 490,-865 497.857,-871.897 507.599,-876.498 517.726,-879.529"/>
<polygon fill="black" stroke="black" points="517.437,-881.264 522.722,-880.894 518.36,-877.888 517.437,-881.264"/>
</g>
<!-- imagen.Composite -->
<g id="node5" class="node"><title>imagen.Composite</title>
<polygon fill="none" stroke="black" stroke-width="0.5" points="632,-856.5 526,-856.5 526,-835.5 632,-835.5 632,-856.5"/>
<text text-anchor="middle" x="579" y="-843.5" font-family="Vera" font-size="10.00">imagen.Composite</text>
</g>
<!-- imagen.patterngenerator.PatternGenerator&#45;&gt;imagen.Composite -->
<g id="edge4" class="edge"><title>imagen.patterngenerator.PatternGenerator&#45;&gt;imagen.Composite</title>
<path fill="none" stroke="black" stroke-width="0.5" d="M342.6,-457.161C346.09,-506.546 368.123,-723.327 490,-827 498.558,-834.279 509.228,-838.981 520.177,-841.975"/>
<polygon fill="black" stroke="black" points="519.946,-843.721 525.221,-843.233 520.794,-840.325 519.946,-843.721"/>
</g>
<!-- imagen.Disk -->
<g id="node7" class="node"><title>imagen.Disk</title>
<polygon fill="none" stroke="black" stroke-width="0.5" points="617,-818.5 541,-818.5 541,-797.5 617,-797.5 617,-818.5"/>
<text text-anchor="middle" x="579" y="-805.5" font-family="Vera" font-size="10.00">imagen.Disk</text>
</g>
<!-- imagen.patterngenerator.PatternGenerator&#45;&gt;imagen.Disk -->
<g id="edge6" class="edge"><title>imagen.patterngenerator.PatternGenerator&#45;&gt;imagen.Disk</title>
<path fill="none" stroke="black" stroke-width="0.5" d="M343.068,-457.079C348.531,-503.335 377.646,-696.957 490,-789 502.738,-799.435 519.854,-804.523 535.674,-806.887"/>
<polygon fill="black" stroke="black" points="535.795,-808.668 540.981,-807.589 536.253,-805.199 535.795,-808.668"/>
</g>
<!-- imagen.Sigmoid -->
<g id="node9" class="node"><title>imagen.Sigmoid</title>
<polygon fill="none" stroke="black" stroke-width="0.5" points="626,-780.5 532,-780.5 532,-759.5 626,-759.5 626,-780.5"/>
<text text-anchor="middle" x="579" y="-767.5" font-family="Vera" font-size="10.00">imagen.Sigmoid</text>
</g>
<!-- imagen.patterngenerator.PatternGenerator&#45;&gt;imagen.Sigmoid -->
<g id="edge8" class="edge"><title>imagen.patterngenerator.PatternGenerator&#45;&gt;imagen.Sigmoid</title>
<path fill="none" stroke="black" stroke-width="0.5" d="M343.656,-457.12C351.281,-500.29 387.144,-670.507 490,-751 500.325,-759.08 513.308,-763.919 526.141,-766.767"/>
<polygon fill="black" stroke="black" points="525.989,-768.522 531.237,-767.8 526.684,-765.092 525.989,-768.522"/>
</g>
<!-- imagen.ExponentialDecay -->
<g id="node11" class="node"><title>imagen.ExponentialDecay</title>
<polygon fill="none" stroke="black" stroke-width="0.5" points="649,-742.5 509,-742.5 509,-721.5 649,-721.5 649,-742.5"/>
<text text-anchor="middle" x="579" y="-729.5" font-family="Vera" font-size="10.00">imagen.ExponentialDecay</text>
</g>
<!-- imagen.patterngenerator.PatternGenerator&#45;&gt;imagen.ExponentialDecay -->
<g id="edge10" class="edge"><title>imagen.patterngenerator.PatternGenerator&#45;&gt;imagen.ExponentialDecay</title>
<path fill="none" stroke="black" stroke-width="0.5" d="M344.411,-457.2C354.406,-497.111 396.516,-643.876 490,-713 494.192,-716.1 498.783,-718.716 503.599,-720.922"/>
<polygon fill="black" stroke="black" points="503.197,-722.653 508.484,-722.994 504.564,-719.431 503.197,-722.653"/>
</g>
<!-- imagen.Rectangle -->
<g id="node19" class="node"><title>imagen.Rectangle</title>
<polygon fill="none" stroke="black" stroke-width="0.5" points="630,-704.5 528,-704.5 528,-683.5 630,-683.5 630,-704.5"/>
<text text-anchor="middle" x="579" y="-691.5" font-family="Vera" font-size="10.00">imagen.Rectangle</text>
</g>
<!-- imagen.patterngenerator.PatternGenerator&#45;&gt;imagen.Rectangle -->
<g id="edge62" class="edge"><title>imagen.patterngenerator.PatternGenerator&#45;&gt;imagen.Rectangle</title>
<path fill="none" stroke="black" stroke-width="0.5" d="M345.384,-457.221C357.954,-493.49 405.636,-616.951 490,-675 499.681,-681.661 511.248,-686.055 522.79,-688.938"/>
<polygon fill="black" stroke="black" points="522.463,-690.658 527.729,-690.083 523.253,-687.249 522.463,-690.658"/>
</g>
<!-- imagen.SigmoidedDoLG -->
<g id="node21" class="node"><title>imagen.SigmoidedDoLG</title>
<polygon fill="none" stroke="black" stroke-width="0.5" points="645,-666.5 513,-666.5 513,-645.5 645,-645.5 645,-666.5"/>
<text text-anchor="middle" x="579" y="-653.5" font-family="Vera" font-size="10.00">imagen.SigmoidedDoLG</text>
</g>
<!-- imagen.patterngenerator.PatternGenerator&#45;&gt;imagen.SigmoidedDoLG -->
<g id="edge18" class="edge"><title>imagen.patterngenerator.PatternGenerator&#45;&gt;imagen.SigmoidedDoLG</title>
<path fill="none" stroke="black" stroke-width="0.5" d="M346.736,-457.279C362.189,-489.583 414.528,-589.717 490,-637 495.441,-640.409 501.398,-643.214 507.569,-645.522"/>
<polygon fill="black" stroke="black" points="507.028,-647.187 512.325,-647.192 508.187,-643.884 507.028,-647.187"/>
</g>
<!-- imagen.RawRectangle -->
<g id="node23" class="node"><title>imagen.RawRectangle</title>
<polygon fill="none" stroke="black" stroke-width="0.5" points="639,-628.5 519,-628.5 519,-607.5 639,-607.5 639,-628.5"/>
<text text-anchor="middle" x="579" y="-615.5" font-family="Vera" font-size="10.00">imagen.RawRectangle</text>
</g>
<!-- imagen.patterngenerator.PatternGenerator&#45;&gt;imagen.RawRectangle -->
<g id="edge20" class="edge"><title>imagen.patterngenerator.PatternGenerator&#45;&gt;imagen.RawRectangle</title>
<path fill="none" stroke="black" stroke-width="0.5" d="M348.585,-457.122C367.148,-484.769 422.935,-561.967 490,-599 497.216,-602.985 505.187,-606.134 513.306,-608.624"/>
<polygon fill="black" stroke="black" points="513.085,-610.382 518.375,-610.09 514.058,-607.019 513.085,-610.382"/>
</g>
<!-- imagen.LogGaussian -->
<g id="node25" class="node"><title>imagen.LogGaussian</title>
<polygon fill="none" stroke="black" stroke-width="0.5" points="637,-590.5 521,-590.5 521,-569.5 637,-569.5 637,-590.5"/>
<text text-anchor="middle" x="579" y="-577.5" font-family="Vera" font-size="10.00">imagen.LogGaussian</text>
</g>
<!-- imagen.patterngenerator.PatternGenerator&#45;&gt;imagen.LogGaussian -->
<g id="edge22" class="edge"><title>imagen.patterngenerator.PatternGenerator&#45;&gt;imagen.LogGaussian</title>
<path fill="none" stroke="black" stroke-width="0.5" d="M351.697,-457.069C373.912,-479.503 431.129,-533.762 490,-561 497.985,-564.694 506.708,-567.681 515.469,-570.092"/>
<polygon fill="black" stroke="black" points="515.055,-571.793 520.336,-571.373 515.946,-568.408 515.055,-571.793"/>
</g>
<!-- imagen.Arc -->
<g id="node30" class="node"><title>imagen.Arc</title>
<polygon fill="none" stroke="black" stroke-width="0.5" points="614,-552.5 544,-552.5 544,-531.5 614,-531.5 614,-552.5"/>
<text text-anchor="middle" x="579" y="-539.5" font-family="Vera" font-size="10.00">imagen.Arc</text>
</g>
<!-- imagen.patterngenerator.PatternGenerator&#45;&gt;imagen.Arc -->
<g id="edge26" class="edge"><title>imagen.patterngenerator.PatternGenerator&#45;&gt;imagen.Arc</title>
<path fill="none" stroke="black" stroke-width="0.5" d="M358.223,-457.155C384.79,-473.36 439.665,-505.061 490,-523 505.377,-528.48 522.839,-532.632 538.198,-535.634"/>
<polygon fill="black" stroke="black" points="538.081,-537.394 543.32,-536.609 538.735,-533.955 538.081,-537.394"/>
</g>
<!-- imagen.Ring -->
<g id="node32" class="node"><title>imagen.Ring</title>
<polygon fill="none" stroke="black" stroke-width="0.5" points="617,-514.5 541,-514.5 541,-493.5 617,-493.5 617,-514.5"/>
<text text-anchor="middle" x="579" y="-501.5" font-family="Vera" font-size="10.00">imagen.Ring</text>
</g>
<!-- imagen.patterngenerator.PatternGenerator&#45;&gt;imagen.Ring -->
<g id="edge28" class="edge"><title>imagen.patterngenerator.PatternGenerator&#45;&gt;imagen.Ring</title>
<path fill="none" stroke="black" stroke-width="0.5" d="M379.304,-457.029C409.167,-464.949 452.167,-476.109 490,-485 504.794,-488.477 521.036,-492.023 535.548,-495.096"/>
<polygon fill="black" stroke="black" points="535.557,-496.887 540.811,-496.206 536.279,-493.462 535.557,-496.887"/>
</g>
<!-- imagen.DifferenceOfGaussians -->
<g id="node39" class="node"><title>imagen.DifferenceOfGaussians</title>
<polygon fill="none" stroke="black" stroke-width="0.5" points="661,-476.5 497,-476.5 497,-455.5 661,-455.5 661,-476.5"/>
<text text-anchor="middle" x="579" y="-463.5" font-family="Vera" font-size="10.00">imagen.DifferenceOfGaussians</text>
</g>
<!-- imagen.patterngenerator.PatternGenerator&#45;&gt;imagen.DifferenceOfGaussians -->
<g id="edge36" class="edge"><title>imagen.patterngenerator.PatternGenerator&#45;&gt;imagen.DifferenceOfGaussians</title>
<path fill="none" stroke="black" stroke-width="0.5" d="M454.254,-455.999C466.816,-457.006 479.472,-458.021 491.656,-458.998"/>
<polygon fill="black" stroke="black" points="491.723,-460.759 496.847,-459.414 492.003,-457.27 491.723,-460.759"/>
</g>
<!-- imagen.Gabor -->
<g id="node46" class="node"><title>imagen.Gabor</title>
<polygon fill="none" stroke="black" stroke-width="0.5" points="621,-438.5 537,-438.5 537,-417.5 621,-417.5 621,-438.5"/>
<text text-anchor="middle" x="579" y="-425.5" font-family="Vera" font-size="10.00">imagen.Gabor</text>
</g>
<!-- imagen.patterngenerator.PatternGenerator&#45;&gt;imagen.Gabor -->
<g id="edge44" class="edge"><title>imagen.patterngenerator.PatternGenerator&#45;&gt;imagen.Gabor</title>
<path fill="none" stroke="black" stroke-width="0.5" d="M454.254,-438.001C481.28,-435.834 508.74,-433.633 530.992,-431.849"/>
<polygon fill="black" stroke="black" points="531.396,-433.572 536.24,-431.428 531.116,-430.083 531.396,-433.572"/>
</g>
<!-- imagen.SquareGrating -->
<g id="node48" class="node"><title>imagen.SquareGrating</title>
<polygon fill="none" stroke="black" stroke-width="0.5" points="641,-400.5 517,-400.5 517,-379.5 641,-379.5 641,-400.5"/>
<text text-anchor="middle" x="579" y="-387.5" font-family="Vera" font-size="10.00">imagen.SquareGrating</text>
</g>
<!-- imagen.patterngenerator.PatternGenerator&#45;&gt;imagen.SquareGrating -->
<g id="edge46" class="edge"><title>imagen.patterngenerator.PatternGenerator&#45;&gt;imagen.SquareGrating</title>
<path fill="none" stroke="black" stroke-width="0.5" d="M379.304,-436.971C409.167,-429.051 452.167,-417.891 490,-409 501.305,-406.343 513.454,-403.646 525.032,-401.15"/>
<polygon fill="black" stroke="black" points="525.433,-402.854 529.955,-400.094 524.699,-399.432 525.433,-402.854"/>
</g>
<!-- imagen.Line -->
<g id="node50" class="node"><title>imagen.Line</title>
<polygon fill="none" stroke="black" stroke-width="0.5" points="616,-362.5 542,-362.5 542,-341.5 616,-341.5 616,-362.5"/>
<text text-anchor="middle" x="579" y="-349.5" font-family="Vera" font-size="10.00">imagen.Line</text>
</g>
<!-- imagen.patterngenerator.PatternGenerator&#45;&gt;imagen.Line -->
<g id="edge48" class="edge"><title>imagen.patterngenerator.PatternGenerator&#45;&gt;imagen.Line</title>
<path fill="none" stroke="black" stroke-width="0.5" d="M358.223,-436.845C384.79,-420.64 439.665,-388.939 490,-371 504.708,-365.758 521.324,-361.732 536.183,-358.764"/>
<polygon fill="black" stroke="black" points="536.576,-360.47 541.149,-357.798 535.907,-357.035 536.576,-360.47"/>
</g>
<!-- imagen.Selector -->
<g id="node52" class="node"><title>imagen.Selector</title>
<polygon fill="none" stroke="black" stroke-width="0.5" points="626,-324.5 532,-324.5 532,-303.5 626,-303.5 626,-324.5"/>
<text text-anchor="middle" x="579" y="-311.5" font-family="Vera" font-size="10.00">imagen.Selector</text>
</g>
<!-- imagen.patterngenerator.PatternGenerator&#45;&gt;imagen.Selector -->
<g id="edge50" class="edge"><title>imagen.patterngenerator.PatternGenerator&#45;&gt;imagen.Selector</title>
<path fill="none" stroke="black" stroke-width="0.5" d="M351.697,-436.931C373.912,-414.497 431.129,-360.238 490,-333 501.167,-327.834 513.775,-324.052 525.915,-321.291"/>
<polygon fill="black" stroke="black" points="526.569,-322.94 531.084,-320.169 525.827,-319.52 526.569,-322.94"/>
</g>
<!-- imagen.Gaussian -->
<g id="node58" class="node"><title>imagen.Gaussian</title>
<polygon fill="none" stroke="black" stroke-width="0.5" points="629,-286.5 529,-286.5 529,-265.5 629,-265.5 629,-286.5"/>
<text text-anchor="middle" x="579" y="-273.5" font-family="Vera" font-size="10.00">imagen.Gaussian</text>
</g>
<!-- imagen.patterngenerator.PatternGenerator&#45;&gt;imagen.Gaussian -->
<g id="edge56" class="edge"><title>imagen.patterngenerator.PatternGenerator&#45;&gt;imagen.Gaussian</title>
<path fill="none" stroke="black" stroke-width="0.5" d="M354.444,-436.732C375.866,-418.784 420.623,-380.075 454,-343 471.842,-323.181 467.532,-309.363 490,-295 500.134,-288.522 512.11,-284.216 523.938,-281.364"/>
<polygon fill="black" stroke="black" points="524.497,-283.032 528.992,-280.228 523.73,-279.617 524.497,-283.032"/>
</g>
<!-- imagen.PowerSpectrum -->
<g id="node61" class="node"><title>imagen.PowerSpectrum</title>
<polygon fill="none" stroke="black" stroke-width="0.5" points="644,-248.5 514,-248.5 514,-227.5 644,-227.5 644,-248.5"/>
<text text-anchor="middle" x="579" y="-235.5" font-family="Vera" font-size="10.00">imagen.PowerSpectrum</text>
</g>
<!-- imagen.patterngenerator.PatternGenerator&#45;&gt;imagen.PowerSpectrum -->
<g id="edge74" class="edge"><title>imagen.patterngenerator.PatternGenerator&#45;&gt;imagen.PowerSpectrum</title>
<path fill="none" stroke="black" stroke-width="0.5" d="M356.582,-436.727C379.924,-419.639 425.901,-383.252 454,-343 477.718,-309.024 458.105,-283.45 490,-257 495.534,-252.411 501.912,-248.853 508.659,-246.105"/>
<polygon fill="black" stroke="black" points="509.319,-247.726 513.384,-244.329 508.088,-244.45 509.319,-247.726"/>
</g>
<!-- imagen.GaussiansCorner -->
<g id="node66" class="node"><title>imagen.GaussiansCorner</title>
<polygon fill="none" stroke="black" stroke-width="0.5" points="647,-210.5 511,-210.5 511,-189.5 647,-189.5 647,-210.5"/>
<text text-anchor="middle" x="579" y="-197.5" font-family="Vera" font-size="10.00">imagen.GaussiansCorner</text>
</g>
<!-- imagen.patterngenerator.PatternGenerator&#45;&gt;imagen.GaussiansCorner -->
<g id="edge64" class="edge"><title>imagen.patterngenerator.PatternGenerator&#45;&gt;imagen.GaussiansCorner</title>
<path fill="none" stroke="black" stroke-width="0.5" d="M357.514,-436.81C381.728,-420.104 428.377,-384.56 454,-343 484.117,-294.151 447.983,-258.087 490,-219 494.519,-214.796 499.731,-211.433 505.319,-208.752"/>
<polygon fill="black" stroke="black" points="506.219,-210.268 510.095,-206.656 504.813,-207.063 506.219,-210.268"/>
</g>
<!-- imagen.SigmoidedDoG -->
<g id="node68" class="node"><title>imagen.SigmoidedDoG</title>
<polygon fill="none" stroke="black" stroke-width="0.5" points="643,-172.5 515,-172.5 515,-151.5 643,-151.5 643,-172.5"/>
<text text-anchor="middle" x="579" y="-159.5" font-family="Vera" font-size="10.00">imagen.SigmoidedDoG</text>
</g>
<!-- imagen.patterngenerator.PatternGenerator&#45;&gt;imagen.SigmoidedDoG -->
<g id="edge66" class="edge"><title>imagen.patterngenerator.PatternGenerator&#45;&gt;imagen.SigmoidedDoG</title>
<path fill="none" stroke="black" stroke-width="0.5" d="M357.832,-436.999C382.482,-420.552 429.717,-385.357 454,-343 490.683,-279.013 437.629,-232.936 490,-181 495.56,-175.486 502.303,-171.395 509.563,-168.382"/>
<polygon fill="black" stroke="black" points="510.599,-169.863 514.663,-166.465 509.367,-166.587 510.599,-169.863"/>
</g>
<!-- imagen.Sweeper -->
<g id="node72" class="node"><title>imagen.Sweeper</title>
<polygon fill="none" stroke="black" stroke-width="0.5" points="627,-134.5 531,-134.5 531,-113.5 627,-113.5 627,-134.5"/>
<text text-anchor="middle" x="579" y="-121.5" font-family="Vera" font-size="10.00">imagen.Sweeper</text>
</g>
<!-- imagen.patterngenerator.PatternGenerator&#45;&gt;imagen.Sweeper -->
<g id="edge70" class="edge"><title>imagen.patterngenerator.PatternGenerator&#45;&gt;imagen.Sweeper</title>
<path fill="none" stroke="black" stroke-width="0.5" d="M358.446,-436.847C383.485,-420.444 430.709,-385.608 454,-343 497.321,-263.75 427.173,-207.885 490,-143 499.217,-133.481 511.947,-128.159 524.899,-125.307"/>
<polygon fill="black" stroke="black" points="525.49,-126.975 530.061,-124.298 524.818,-123.54 525.49,-126.975"/>
</g>
<!-- imagen.HalfPlane -->
<g id="node74" class="node"><title>imagen.HalfPlane</title>
<polygon fill="none" stroke="black" stroke-width="0.5" points="629,-96.5 529,-96.5 529,-75.5 629,-75.5 629,-96.5"/>
<text text-anchor="middle" x="579" y="-83.5" font-family="Vera" font-size="10.00">imagen.HalfPlane</text>
</g>
<!-- imagen.patterngenerator.PatternGenerator&#45;&gt;imagen.HalfPlane -->
<g id="edge72" class="edge"><title>imagen.patterngenerator.PatternGenerator&#45;&gt;imagen.HalfPlane</title>
<path fill="none" stroke="black" stroke-width="0.5" d="M358.592,-436.925C383.826,-420.627 431.307,-385.93 454,-343 503.996,-248.42 416.664,-182.889 490,-105 498.797,-95.6573 510.97,-90.3303 523.492,-87.4113"/>
<polygon fill="black" stroke="black" points="523.95,-89.1035 528.49,-86.3724 523.238,-85.6767 523.95,-89.1035"/>
</g>
<!-- imagen.Translator -->
<g id="node77" class="node"><title>imagen.Translator</title>
<polygon fill="none" stroke="black" stroke-width="0.5" points="630,-58.5 528,-58.5 528,-37.5 630,-37.5 630,-58.5"/>
<text text-anchor="middle" x="579" y="-45.5" font-family="Vera" font-size="10.00">imagen.Translator</text>
</g>
<!-- imagen.patterngenerator.PatternGenerator&#45;&gt;imagen.Translator -->
<g id="edge76" class="edge"><title>imagen.patterngenerator.PatternGenerator&#45;&gt;imagen.Translator</title>
<path fill="none" stroke="black" stroke-width="0.5" d="M358.699,-436.981C384.076,-420.758 431.747,-386.159 454,-343 510.692,-233.049 406.123,-157.927 490,-67 498.606,-57.6705 510.575,-52.3253 522.949,-49.3826"/>
<polygon fill="black" stroke="black" points="523.364,-51.0837 527.892,-48.334 522.637,-47.6599 523.364,-51.0837"/>
</g>
<!-- imagen.SeparatedComposite -->
<g id="node63" class="node"><title>imagen.SeparatedComposite</title>
<polygon fill="none" stroke="black" stroke-width="0.5" points="862,-856.5 704,-856.5 704,-835.5 862,-835.5 862,-856.5"/>
<text text-anchor="middle" x="783" y="-843.5" font-family="Vera" font-size="10.00">imagen.SeparatedComposite</text>
</g>
<!-- imagen.Composite&#45;&gt;imagen.SeparatedComposite -->
<g id="edge60" class="edge"><title>imagen.Composite&#45;&gt;imagen.SeparatedComposite</title>
<path fill="none" stroke="black" stroke-width="0.5" d="M632.599,-846C652.793,-846 676.282,-846 698.61,-846"/>
<polygon fill="black" stroke="black" points="698.654,-847.75 703.654,-846 698.654,-844.25 698.654,-847.75"/>
</g>
<!-- param.ClassSelector -->
<g id="node15" class="node"><title>param.ClassSelector</title>
<polygon fill="none" stroke="black" stroke-width="0.5" points="637,-932.5 521,-932.5 521,-911.5 637,-911.5 637,-932.5"/>
<text text-anchor="middle" x="579" y="-919.5" font-family="Vera" font-size="10.00">param.ClassSelector</text>
</g>
<!-- imagen.TimeSeriesParam -->
<g id="node56" class="node"><title>imagen.TimeSeriesParam</title>
<polygon fill="none" stroke="black" stroke-width="0.5" points="853,-932.5 713,-932.5 713,-911.5 853,-911.5 853,-932.5"/>
<text text-anchor="middle" x="783" y="-919.5" font-family="Vera" font-size="10.00">imagen.TimeSeriesParam</text>
</g>
<!-- param.ClassSelector&#45;&gt;imagen.TimeSeriesParam -->
<g id="edge54" class="edge"><title>param.ClassSelector&#45;&gt;imagen.TimeSeriesParam</title>
<path fill="none" stroke="black" stroke-width="0.5" d="M637.185,-922C659.083,-922 684.306,-922 707.552,-922"/>
<polygon fill="black" stroke="black" points="707.79,-923.75 712.79,-922 707.79,-920.25 707.79,-923.75"/>
</g>
<!-- param.Selector -->
<g id="node16" class="node"><title>param.Selector</title>
<polygon fill="none" stroke="black" stroke-width="0.5" points="387,-932.5 297,-932.5 297,-911.5 387,-911.5 387,-932.5"/>
<text text-anchor="middle" x="342" y="-919.5" font-family="Vera" font-size="10.00">param.Selector</text>
</g>
<!-- param.Selector&#45;&gt;param.ClassSelector -->
<g id="edge14" class="edge"><title>param.Selector&#45;&gt;param.ClassSelector</title>
<path fill="none" stroke="black" stroke-width="0.5" d="M387.696,-922C423.998,-922 475.183,-922 515.475,-922"/>
<polygon fill="black" stroke="black" points="515.834,-923.75 520.834,-922 515.834,-920.25 515.834,-923.75"/>
</g>
<!-- imagen.TwoRectangles -->
<g id="node18" class="node"><title>imagen.TwoRectangles</title>
<polygon fill="none" stroke="black" stroke-width="0.5" points="845,-704.5 721,-704.5 721,-683.5 845,-683.5 845,-704.5"/>
<text text-anchor="middle" x="783" y="-691.5" font-family="Vera" font-size="10.00">imagen.TwoRectangles</text>
</g>
<!-- imagen.Rectangle&#45;&gt;imagen.TwoRectangles -->
<g id="edge16" class="edge"><title>imagen.Rectangle&#45;&gt;imagen.TwoRectangles</title>
<path fill="none" stroke="black" stroke-width="0.5" d="M630.214,-694C656.103,-694 687.851,-694 715.687,-694"/>
<polygon fill="black" stroke="black" points="715.837,-695.75 720.837,-694 715.837,-692.25 715.837,-695.75"/>
</g>
<!-- dataviews.dataviews.Stack -->
<g id="node27" class="node"><title>dataviews.dataviews.Stack</title>
<polygon fill="none" stroke="black" stroke-width="0.5" points="855,-20.5 711,-20.5 711,0.5 855,0.5 855,-20.5"/>
<text text-anchor="middle" x="783" y="-7.5" font-family="Vera" font-size="10.00">dataviews.dataviews.Stack</text>
</g>
<!-- dataviews.sheetviews.SheetStack -->
<g id="node43" class="node"><title>dataviews.sheetviews.SheetStack</title>
<polygon fill="none" stroke="black" stroke-width="0.5" points="1076,-20.5 898,-20.5 898,0.5 1076,0.5 1076,-20.5"/>
<text text-anchor="middle" x="987" y="-7.5" font-family="Vera" font-size="10.00">dataviews.sheetviews.SheetStack</text>
</g>
<!-- dataviews.dataviews.Stack&#45;&gt;dataviews.sheetviews.SheetStack -->
<g id="edge40" class="edge"><title>dataviews.dataviews.Stack&#45;&gt;dataviews.sheetviews.SheetStack</title>
<path fill="none" stroke="black" stroke-width="0.5" d="M855.21,-10C867.352,-10 880.112,-10 892.714,-10"/>
<polygon fill="black" stroke="black" points="892.722,-11.7501 897.722,-10 892.722,-8.2501 892.722,-11.7501"/>
</g>
<!-- dataviews.ndmapping.NdMapping -->
<g id="node28" class="node"><title>dataviews.ndmapping.NdMapping</title>
<polygon fill="none" stroke="black" stroke-width="0.5" points="668,-20.5 490,-20.5 490,0.5 668,0.5 668,-20.5"/>
<text text-anchor="middle" x="579" y="-7.5" font-family="Vera" font-size="10.00">dataviews.ndmapping.NdMapping</text>
</g>
<!-- dataviews.ndmapping.NdMapping&#45;&gt;dataviews.dataviews.Stack -->
<g id="edge24" class="edge"><title>dataviews.ndmapping.NdMapping&#45;&gt;dataviews.dataviews.Stack</title>
<path fill="none" stroke="black" stroke-width="0.5" d="M668.181,-10C680.658,-10 693.395,-10 705.629,-10"/>
<polygon fill="black" stroke="black" points="705.839,-11.7501 710.839,-10 705.839,-8.2501 705.839,-11.7501"/>
</g>
<!-- imagen.Curve -->
<g id="node70" class="node"><title>imagen.Curve</title>
<polygon fill="none" stroke="black" stroke-width="0.5" points="824,-552.5 742,-552.5 742,-531.5 824,-531.5 824,-552.5"/>
<text text-anchor="middle" x="783" y="-539.5" font-family="Vera" font-size="10.00">imagen.Curve</text>
</g>
<!-- imagen.Arc&#45;&gt;imagen.Curve -->
<g id="edge68" class="edge"><title>imagen.Arc&#45;&gt;imagen.Curve</title>
<path fill="none" stroke="black" stroke-width="0.5" d="M614.534,-542C648.155,-542 698.839,-542 735.832,-542"/>
<polygon fill="black" stroke="black" points="736.187,-543.75 741.187,-542 736.187,-540.25 736.187,-543.75"/>
</g>
<!-- param.parameterized.Parameter -->
<g id="node34" class="node"><title>param.parameterized.Parameter</title>
<polygon fill="none" stroke="black" stroke-width="0.5" points="184,-932.5 10,-932.5 10,-911.5 184,-911.5 184,-932.5"/>
<text text-anchor="middle" x="97" y="-919.5" font-family="Vera" font-size="10.00">param.parameterized.Parameter</text>
</g>
<!-- param.parameterized.Parameter&#45;&gt;param.Selector -->
<g id="edge30" class="edge"><title>param.parameterized.Parameter&#45;&gt;param.Selector</title>
<path fill="none" stroke="black" stroke-width="0.5" d="M184.759,-922C220.453,-922 260.436,-922 291.152,-922"/>
<polygon fill="black" stroke="black" points="291.387,-923.75 296.387,-922 291.387,-920.25 291.387,-923.75"/>
</g>
<!-- dataviews.ndmapping.NdIndexableMapping&#45;&gt;dataviews.ndmapping.NdMapping -->
<g id="edge38" class="edge"><title>dataviews.ndmapping.NdIndexableMapping&#45;&gt;dataviews.ndmapping.NdMapping</title>
<path fill="none" stroke="black" stroke-width="0.5" d="M355.936,-104.853C381.315,-86.8559 437.324,-49.3315 490,-29 497.69,-26.0318 505.942,-23.4844 514.208,-21.3094"/>
<polygon fill="black" stroke="black" points="514.936,-22.9301 519.351,-20.0028 514.074,-19.5378 514.936,-22.9301"/>
</g>
<!-- imagen.Animation -->
<g id="node54" class="node"><title>imagen.Animation</title>
<polygon fill="none" stroke="black" stroke-width="0.5" points="1216,-20.5 1112,-20.5 1112,0.5 1216,0.5 1216,-20.5"/>
<text text-anchor="middle" x="1164" y="-7.5" font-family="Vera" font-size="10.00">imagen.Animation</text>
</g>
<!-- dataviews.sheetviews.SheetStack&#45;&gt;imagen.Animation -->
<g id="edge52" class="edge"><title>dataviews.sheetviews.SheetStack&#45;&gt;imagen.Animation</title>
<path fill="none" stroke="black" stroke-width="0.5" d="M1076.02,-10C1086.43,-10 1096.83,-10 1106.64,-10"/>
<polygon fill="black" stroke="black" points="1106.72,-11.7501 1111.72,-10 1106.72,-8.2501 1106.72,-11.7501"/>
</g>
<!-- imagen.Spectrogram -->
<g id="node60" class="node"><title>imagen.Spectrogram</title>
<polygon fill="none" stroke="black" stroke-width="0.5" points="842,-248.5 724,-248.5 724,-227.5 842,-227.5 842,-248.5"/>
<text text-anchor="middle" x="783" y="-235.5" font-family="Vera" font-size="10.00">imagen.Spectrogram</text>
</g>
<!-- imagen.PowerSpectrum&#45;&gt;imagen.Spectrogram -->
<g id="edge58" class="edge"><title>imagen.PowerSpectrum&#45;&gt;imagen.Spectrogram</title>
<path fill="none" stroke="black" stroke-width="0.5" d="M644.67,-238C668.168,-238 694.625,-238 718.061,-238"/>
<polygon fill="black" stroke="black" points="718.324,-239.75 723.324,-238 718.324,-236.25 718.324,-239.75"/>
</g>
</g>
</svg>
