<?xml version="1.0" encoding="UTF-8" standalone="no"?>
<!DOCTYPE svg PUBLIC "-//W3C//DTD SVG 1.1//EN"
 "http://www.w3.org/Graphics/SVG/1.1/DTD/svg11.dtd">
<!-- Generated by graphviz version 2.26.3 (20100126.1600)
 -->
<!-- Title: inheritance248ef6cf2d Pages: 1 -->
<svg width="686pt" height="28pt"
 viewBox="0.00 0.00 686.00 28.00" xmlns="http://www.w3.org/2000/svg" xmlns:xlink="http://www.w3.org/1999/xlink">
<g id="graph1" class="graph" transform="scale(1 1) rotate(0) translate(4 24)">
<title>inheritance248ef6cf2d</title>
<polygon fill="white" stroke="white" points="-4,5 -4,-24 683,-24 683,5 -4,5"/>
<!-- param.parameterized.Parameterized -->
<g id="node1" class="node"><title>param.parameterized.Parameterized</title>
<polygon fill="none" stroke="black" stroke-width="0.5" points="194,-20.5 5.68434e-14,-20.5 0,0.5 194,0.5 194,-20.5"/>
<text text-anchor="middle" x="97" y="-7.5" font-family="Vera" font-size="10.00">param.parameterized.Parameterized</text>
</g>
<!-- param.parameterized.ParameterizedFunction -->
<g id="node2" class="node"><title>param.parameterized.ParameterizedFunction</title>
<polygon fill="none" stroke="black" stroke-width="0.5" points="464,-20.5 230,-20.5 230,0.5 464,0.5 464,-20.5"/>
<text text-anchor="middle" x="347" y="-7.5" font-family="Vera" font-size="10.00">param.parameterized.ParameterizedFunction</text>
</g>
<!-- param.parameterized.Parameterized&#45;&gt;param.parameterized.ParameterizedFunction -->
<g id="edge2" class="edge"><title>param.parameterized.Parameterized&#45;&gt;param.parameterized.ParameterizedFunction</title>
<path fill="none" stroke="black" stroke-width="0.5" d="M194.014,-10C204.04,-10 214.319,-10 224.575,-10"/>
<polygon fill="black" stroke="black" points="224.607,-11.7501 229.607,-10 224.607,-8.2501 224.607,-11.7501"/>
</g>
<!-- topo.misc.genexamples.generate -->
<g id="node4" class="node"><title>topo.misc.genexamples.generate</title>
<polygon fill="none" stroke="black" stroke-width="0.5" points="678,-20.5 500,-20.5 500,0.5 678,0.5 678,-20.5"/>
<text text-anchor="middle" x="589" y="-7.5" font-family="Vera" font-size="10.00">topo.misc.genexamples.generate</text>
</g>
<!-- param.parameterized.ParameterizedFunction&#45;&gt;topo.misc.genexamples.generate -->
<g id="edge4" class="edge"><title>param.parameterized.ParameterizedFunction&#45;&gt;topo.misc.genexamples.generate</title>
<path fill="none" stroke="black" stroke-width="0.5" d="M464.101,-10C474.375,-10 484.686,-10 494.739,-10"/>
<polygon fill="black" stroke="black" points="494.97,-11.7501 499.97,-10 494.97,-8.2501 494.97,-11.7501"/>
</g>
</g>
</svg>
