<?xml version="1.0" encoding="UTF-8" standalone="no"?>
<!DOCTYPE svg PUBLIC "-//W3C//DTD SVG 1.1//EN"
 "http://www.w3.org/Graphics/SVG/1.1/DTD/svg11.dtd">
<!-- Generated by graphviz version 2.26.3 (20100126.1600)
 -->
<!-- Title: inheritance1f1dc666b6 Pages: 1 -->
<svg width="976pt" height="189pt"
 viewBox="0.00 0.00 976.00 189.00" xmlns="http://www.w3.org/2000/svg" xmlns:xlink="http://www.w3.org/1999/xlink">
<g id="graph1" class="graph" transform="scale(1 1) rotate(0) translate(4 185)">
<title>inheritance1f1dc666b6</title>
<polygon fill="white" stroke="white" points="-4,5 -4,-185 973,-185 973,5 -4,5"/>
<!-- topo.base.projection.AndMask -->
<g id="node1" class="node"><title>topo.base.projection.AndMask</title>
<polygon fill="none" stroke="black" stroke-width="0.5" points="951,-181.5 791,-181.5 791,-160.5 951,-160.5 951,-181.5"/>
<text text-anchor="middle" x="871" y="-168.5" font-family="Vera" font-size="10.00">topo.base.projection.AndMask</text>
</g>
<!-- topo.base.projection.CompositeSheetMask -->
<g id="node2" class="node"><title>topo.base.projection.CompositeSheetMask</title>
<polygon fill="none" stroke="black" stroke-width="0.5" points="737,-162.5 515,-162.5 515,-141.5 737,-141.5 737,-162.5"/>
<text text-anchor="middle" x="626" y="-149.5" font-family="Vera" font-size="10.00">topo.base.projection.CompositeSheetMask</text>
</g>
<!-- topo.base.projection.CompositeSheetMask&#45;&gt;topo.base.projection.AndMask -->
<g id="edge2" class="edge"><title>topo.base.projection.CompositeSheetMask&#45;&gt;topo.base.projection.AndMask</title>
<path fill="none" stroke="black" stroke-width="0.5" d="M737.746,-160.666C753.62,-161.897 769.737,-163.147 785.019,-164.332"/>
<polygon fill="black" stroke="black" points="785.047,-166.089 790.168,-164.731 785.318,-162.6 785.047,-166.089"/>
</g>
<!-- topo.base.projection.OrMask -->
<g id="node5" class="node"><title>topo.base.projection.OrMask</title>
<polygon fill="none" stroke="black" stroke-width="0.5" points="948,-143.5 794,-143.5 794,-122.5 948,-122.5 948,-143.5"/>
<text text-anchor="middle" x="871" y="-130.5" font-family="Vera" font-size="10.00">topo.base.projection.OrMask</text>
</g>
<!-- topo.base.projection.CompositeSheetMask&#45;&gt;topo.base.projection.OrMask -->
<g id="edge4" class="edge"><title>topo.base.projection.CompositeSheetMask&#45;&gt;topo.base.projection.OrMask</title>
<path fill="none" stroke="black" stroke-width="0.5" d="M737.746,-143.334C754.902,-142.004 772.341,-140.651 788.704,-139.382"/>
<polygon fill="black" stroke="black" points="788.896,-141.123 793.746,-138.991 788.625,-137.633 788.896,-141.123"/>
</g>
<!-- param.parameterized.Parameterized -->
<g id="node4" class="node"><title>param.parameterized.Parameterized</title>
<polygon fill="none" stroke="black" stroke-width="0.5" points="194,-96.5 5.68434e-14,-96.5 0,-75.5 194,-75.5 194,-96.5"/>
<text text-anchor="middle" x="97" y="-83.5" font-family="Vera" font-size="10.00">param.parameterized.Parameterized</text>
</g>
<!-- topo.base.projection.SheetMask -->
<g id="node10" class="node"><title>topo.base.projection.SheetMask</title>
<polygon fill="none" stroke="black" stroke-width="0.5" points="439,-134.5 269,-134.5 269,-113.5 439,-113.5 439,-134.5"/>
<text text-anchor="middle" x="354" y="-121.5" font-family="Vera" font-size="10.00">topo.base.projection.SheetMask</text>
</g>
<!-- param.parameterized.Parameterized&#45;&gt;topo.base.projection.SheetMask -->
<g id="edge8" class="edge"><title>param.parameterized.Parameterized&#45;&gt;topo.base.projection.SheetMask</title>
<path fill="none" stroke="black" stroke-width="0.5" d="M164.86,-96.0338C200.579,-101.315 244.41,-107.796 280.88,-113.189"/>
<polygon fill="black" stroke="black" points="281.004,-114.976 286.206,-113.976 281.516,-111.513 281.004,-114.976"/>
</g>
<!-- topo.base.simulation.EventProcessor -->
<g id="node13" class="node"><title>topo.base.simulation.EventProcessor</title>
<polygon fill="none" stroke="black" stroke-width="0.5" points="451,-96.5 257,-96.5 257,-75.5 451,-75.5 451,-96.5"/>
<text text-anchor="middle" x="354" y="-83.5" font-family="Vera" font-size="10.00">topo.base.simulation.EventProcessor</text>
</g>
<!-- param.parameterized.Parameterized&#45;&gt;topo.base.simulation.EventProcessor -->
<g id="edge10" class="edge"><title>param.parameterized.Parameterized&#45;&gt;topo.base.simulation.EventProcessor</title>
<path fill="none" stroke="black" stroke-width="0.5" d="M194.161,-86C212.87,-86 232.524,-86 251.4,-86"/>
<polygon fill="black" stroke="black" points="251.702,-87.7501 256.702,-86 251.702,-84.2501 251.702,-87.7501"/>
</g>
<!-- topo.base.simulation.EPConnection -->
<g id="node21" class="node"><title>topo.base.simulation.EPConnection</title>
<polygon fill="none" stroke="black" stroke-width="0.5" points="447,-20.5 261,-20.5 261,0.5 447,0.5 447,-20.5"/>
<text text-anchor="middle" x="354" y="-7.5" font-family="Vera" font-size="10.00">topo.base.simulation.EPConnection</text>
</g>
<!-- param.parameterized.Parameterized&#45;&gt;topo.base.simulation.EPConnection -->
<g id="edge22" class="edge"><title>param.parameterized.Parameterized&#45;&gt;topo.base.simulation.EPConnection</title>
<path fill="none" stroke="black" stroke-width="0.5" d="M116.26,-75.9003C141.633,-63.03 187.972,-41.0155 230,-29 240.994,-25.857 252.693,-23.204 264.347,-20.9723"/>
<polygon fill="black" stroke="black" points="264.742,-22.6788 269.336,-20.0414 264.1,-19.2382 264.742,-22.6788"/>
</g>
<!-- topo.base.projection.ProjectionSheet -->
<g id="node7" class="node"><title>topo.base.projection.ProjectionSheet</title>
<polygon fill="none" stroke="black" stroke-width="0.5" points="968,-67.5 774,-67.5 774,-46.5 968,-46.5 968,-67.5"/>
<text text-anchor="middle" x="871" y="-54.5" font-family="Vera" font-size="10.00">topo.base.projection.ProjectionSheet</text>
</g>
<!-- topo.base.sheet.Sheet -->
<g id="node8" class="node"><title>topo.base.sheet.Sheet</title>
<polygon fill="none" stroke="black" stroke-width="0.5" points="689,-67.5 563,-67.5 563,-46.5 689,-46.5 689,-67.5"/>
<text text-anchor="middle" x="626" y="-54.5" font-family="Vera" font-size="10.00">topo.base.sheet.Sheet</text>
</g>
<!-- topo.base.sheet.Sheet&#45;&gt;topo.base.projection.ProjectionSheet -->
<g id="edge6" class="edge"><title>topo.base.sheet.Sheet&#45;&gt;topo.base.projection.ProjectionSheet</title>
<path fill="none" stroke="black" stroke-width="0.5" d="M689.094,-57C713.386,-57 741.79,-57 768.834,-57"/>
<polygon fill="black" stroke="black" points="768.867,-58.7501 773.867,-57 768.867,-55.2501 768.867,-58.7501"/>
</g>
<!-- topo.base.projection.SheetMask&#45;&gt;topo.base.projection.CompositeSheetMask -->
<g id="edge12" class="edge"><title>topo.base.projection.SheetMask&#45;&gt;topo.base.projection.CompositeSheetMask</title>
<path fill="none" stroke="black" stroke-width="0.5" d="M439.689,-132.821C466.223,-135.552 495.731,-138.59 523.295,-141.427"/>
<polygon fill="black" stroke="black" points="523.265,-143.183 528.418,-141.955 523.623,-139.702 523.265,-143.183"/>
</g>
<!-- topo.base.projection.NeighborhoodMask -->
<g id="node16" class="node"><title>topo.base.projection.NeighborhoodMask</title>
<polygon fill="none" stroke="black" stroke-width="0.5" points="731,-124.5 521,-124.5 521,-103.5 731,-103.5 731,-124.5"/>
<text text-anchor="middle" x="626" y="-111.5" font-family="Vera" font-size="10.00">topo.base.projection.NeighborhoodMask</text>
</g>
<!-- topo.base.projection.SheetMask&#45;&gt;topo.base.projection.NeighborhoodMask -->
<g id="edge14" class="edge"><title>topo.base.projection.SheetMask&#45;&gt;topo.base.projection.NeighborhoodMask</title>
<path fill="none" stroke="black" stroke-width="0.5" d="M439.689,-120.85C463.777,-119.964 490.316,-118.988 515.627,-118.058"/>
<polygon fill="black" stroke="black" points="515.739,-119.805 520.671,-117.872 515.61,-116.307 515.739,-119.805"/>
</g>
<!-- dataviews.sheetcoords.SheetCoordinateSystem -->
<g id="node12" class="node"><title>dataviews.sheetcoords.SheetCoordinateSystem</title>
<polygon fill="none" stroke="black" stroke-width="0.5" points="477,-58.5 231,-58.5 231,-37.5 477,-37.5 477,-58.5"/>
<text text-anchor="middle" x="354" y="-45.5" font-family="Vera" font-size="10.00">dataviews.sheetcoords.SheetCoordinateSystem</text>
</g>
<!-- dataviews.sheetcoords.SheetCoordinateSystem&#45;&gt;topo.base.sheet.Sheet -->
<g id="edge18" class="edge"><title>dataviews.sheetcoords.SheetCoordinateSystem&#45;&gt;topo.base.sheet.Sheet</title>
<path fill="none" stroke="black" stroke-width="0.5" d="M477.664,-52.0918C505.177,-53.0022 533.37,-53.935 557.688,-54.7397"/>
<polygon fill="black" stroke="black" points="557.761,-56.493 562.816,-54.9094 557.877,-52.9949 557.761,-56.493"/>
</g>
<!-- topo.base.simulation.EventProcessor&#45;&gt;topo.base.sheet.Sheet -->
<g id="edge16" class="edge"><title>topo.base.simulation.EventProcessor&#45;&gt;topo.base.sheet.Sheet</title>
<path fill="none" stroke="black" stroke-width="0.5" d="M447.988,-75.9792C483.99,-72.1408 524.348,-67.8379 557.523,-64.3009"/>
<polygon fill="black" stroke="black" points="557.997,-66.0103 562.784,-63.74 557.626,-62.53 557.997,-66.0103"/>
</g>
<!-- topo.base.projection.Projection -->
<g id="node20" class="node"><title>topo.base.projection.Projection</title>
<polygon fill="none" stroke="black" stroke-width="0.5" points="708,-20.5 544,-20.5 544,0.5 708,0.5 708,-20.5"/>
<text text-anchor="middle" x="626" y="-7.5" font-family="Vera" font-size="10.00">topo.base.projection.Projection</text>
</g>
<!-- topo.base.simulation.EPConnection&#45;&gt;topo.base.projection.Projection -->
<g id="edge20" class="edge"><title>topo.base.simulation.EPConnection&#45;&gt;topo.base.projection.Projection</title>
<path fill="none" stroke="black" stroke-width="0.5" d="M447.226,-10C476.738,-10 509.241,-10 538.347,-10"/>
<polygon fill="black" stroke="black" points="538.363,-11.7501 543.363,-10 538.363,-8.2501 538.363,-11.7501"/>
</g>
</g>
</svg>
