<?xml version="1.0" encoding="UTF-8" standalone="no"?>
<!DOCTYPE svg PUBLIC "-//W3C//DTD SVG 1.1//EN"
 "http://www.w3.org/Graphics/SVG/1.1/DTD/svg11.dtd">
<!-- Generated by graphviz version 2.26.3 (20100126.1600)
 -->
<!-- Title: inheritance814dd881d7 Pages: 1 -->
<svg width="874pt" height="142pt"
 viewBox="0.00 0.00 874.00 142.00" xmlns="http://www.w3.org/2000/svg" xmlns:xlink="http://www.w3.org/1999/xlink">
<g id="graph1" class="graph" transform="scale(1 1) rotate(0) translate(4 138)">
<title>inheritance814dd881d7</title>
<polygon fill="white" stroke="white" points="-4,5 -4,-138 871,-138 871,5 -4,5"/>
<!-- topo.misc.trace.ActivityMovie -->
<g id="node1" class="node"><title>topo.misc.trace.ActivityMovie</title>
<polygon fill="none" stroke="black" stroke-width="0.5" points="405,-134.5 249,-134.5 249,-113.5 405,-113.5 405,-134.5"/>
<text text-anchor="middle" x="327" y="-121.5" font-family="Vera" font-size="10.00">topo.misc.trace.ActivityMovie</text>
</g>
<!-- param.parameterized.Parameterized -->
<g id="node2" class="node"><title>param.parameterized.Parameterized</title>
<polygon fill="none" stroke="black" stroke-width="0.5" points="194,-77.5 5.68434e-14,-77.5 0,-56.5 194,-56.5 194,-77.5"/>
<text text-anchor="middle" x="97" y="-64.5" font-family="Vera" font-size="10.00">param.parameterized.Parameterized</text>
</g>
<!-- param.parameterized.Parameterized&#45;&gt;topo.misc.trace.ActivityMovie -->
<g id="edge2" class="edge"><title>param.parameterized.Parameterized&#45;&gt;topo.misc.trace.ActivityMovie</title>
<path fill="none" stroke="black" stroke-width="0.5" d="M129.318,-77.0662C156.126,-85.2146 195.326,-96.6666 230,-105 241.68,-107.807 254.224,-110.5 266.288,-112.93"/>
<polygon fill="black" stroke="black" points="266.179,-114.693 271.425,-113.956 266.864,-111.261 266.179,-114.693"/>
</g>
<!-- topo.misc.trace.Trace -->
<g id="node7" class="node"><title>topo.misc.trace.Trace</title>
<polygon fill="none" stroke="black" stroke-width="0.5" points="386,-96.5 268,-96.5 268,-75.5 386,-75.5 386,-96.5"/>
<text text-anchor="middle" x="327" y="-83.5" font-family="Vera" font-size="10.00">topo.misc.trace.Trace</text>
</g>
<!-- param.parameterized.Parameterized&#45;&gt;topo.misc.trace.Trace -->
<g id="edge6" class="edge"><title>param.parameterized.Parameterized&#45;&gt;topo.misc.trace.Trace</title>
<path fill="none" stroke="black" stroke-width="0.5" d="M194.207,-75.0302C217.248,-76.9336 241.266,-78.9176 262.439,-80.6667"/>
<polygon fill="black" stroke="black" points="262.347,-82.415 267.474,-81.0827 262.635,-78.9269 262.347,-82.415"/>
</g>
<!-- topo.misc.trace.TraceGroup -->
<g id="node13" class="node"><title>topo.misc.trace.TraceGroup</title>
<polygon fill="none" stroke="black" stroke-width="0.5" points="401,-58.5 253,-58.5 253,-37.5 401,-37.5 401,-58.5"/>
<text text-anchor="middle" x="327" y="-45.5" font-family="Vera" font-size="10.00">topo.misc.trace.TraceGroup</text>
</g>
<!-- param.parameterized.Parameterized&#45;&gt;topo.misc.trace.TraceGroup -->
<g id="edge12" class="edge"><title>param.parameterized.Parameterized&#45;&gt;topo.misc.trace.TraceGroup</title>
<path fill="none" stroke="black" stroke-width="0.5" d="M194.207,-58.9698C211.874,-57.5104 230.114,-56.0036 247.206,-54.5917"/>
<polygon fill="black" stroke="black" points="247.632,-56.3125 252.471,-54.1567 247.344,-52.8244 247.632,-56.3125"/>
</g>
<!-- topo.base.simulation.EventProcessor -->
<g id="node17" class="node"><title>topo.base.simulation.EventProcessor</title>
<polygon fill="none" stroke="black" stroke-width="0.5" points="424,-20.5 230,-20.5 230,0.5 424,0.5 424,-20.5"/>
<text text-anchor="middle" x="327" y="-7.5" font-family="Vera" font-size="10.00">topo.base.simulation.EventProcessor</text>
</g>
<!-- param.parameterized.Parameterized&#45;&gt;topo.base.simulation.EventProcessor -->
<g id="edge16" class="edge"><title>param.parameterized.Parameterized&#45;&gt;topo.base.simulation.EventProcessor</title>
<path fill="none" stroke="black" stroke-width="0.5" d="M129.318,-56.9338C156.126,-48.7854 195.326,-37.3334 230,-29 241.68,-26.193 254.224,-23.5004 266.288,-21.0696"/>
<polygon fill="black" stroke="black" points="266.864,-22.7393 271.425,-20.0443 266.179,-19.307 266.864,-22.7393"/>
</g>
<!-- topo.misc.trace.InMemoryRecorder -->
<g id="node4" class="node"><title>topo.misc.trace.InMemoryRecorder</title>
<polygon fill="none" stroke="black" stroke-width="0.5" points="866,-20.5 682,-20.5 682,0.5 866,0.5 866,-20.5"/>
<text text-anchor="middle" x="774" y="-7.5" font-family="Vera" font-size="10.00">topo.misc.trace.InMemoryRecorder</text>
</g>
<!-- topo.misc.trace.DataRecorder -->
<g id="node5" class="node"><title>topo.misc.trace.DataRecorder</title>
<polygon fill="none" stroke="black" stroke-width="0.5" points="633,-20.5 473,-20.5 473,0.5 633,0.5 633,-20.5"/>
<text text-anchor="middle" x="553" y="-7.5" font-family="Vera" font-size="10.00">topo.misc.trace.DataRecorder</text>
</g>
<!-- topo.misc.trace.DataRecorder&#45;&gt;topo.misc.trace.InMemoryRecorder -->
<g id="edge4" class="edge"><title>topo.misc.trace.DataRecorder&#45;&gt;topo.misc.trace.InMemoryRecorder</title>
<path fill="none" stroke="black" stroke-width="0.5" d="M633.099,-10C647.181,-10 661.977,-10 676.472,-10"/>
<polygon fill="black" stroke="black" points="676.797,-11.7501 681.796,-10 676.796,-8.25009 676.797,-11.7501"/>
</g>
<!-- topo.misc.trace.IdentityTrace -->
<g id="node9" class="node"><title>topo.misc.trace.IdentityTrace</title>
<polygon fill="none" stroke="black" stroke-width="0.5" points="630,-134.5 476,-134.5 476,-113.5 630,-113.5 630,-134.5"/>
<text text-anchor="middle" x="553" y="-121.5" font-family="Vera" font-size="10.00">topo.misc.trace.IdentityTrace</text>
</g>
<!-- topo.misc.trace.Trace&#45;&gt;topo.misc.trace.IdentityTrace -->
<g id="edge8" class="edge"><title>topo.misc.trace.Trace&#45;&gt;topo.misc.trace.IdentityTrace</title>
<path fill="none" stroke="black" stroke-width="0.5" d="M386.674,-96.0338C417.956,-101.294 456.313,-107.743 488.305,-113.122"/>
<polygon fill="black" stroke="black" points="488.162,-114.873 493.383,-113.976 488.743,-111.421 488.162,-114.873"/>
</g>
<!-- topo.misc.trace.IndexTrace -->
<g id="node11" class="node"><title>topo.misc.trace.IndexTrace</title>
<polygon fill="none" stroke="black" stroke-width="0.5" points="625,-96.5 481,-96.5 481,-75.5 625,-75.5 625,-96.5"/>
<text text-anchor="middle" x="553" y="-83.5" font-family="Vera" font-size="10.00">topo.misc.trace.IndexTrace</text>
</g>
<!-- topo.misc.trace.Trace&#45;&gt;topo.misc.trace.IndexTrace -->
<g id="edge10" class="edge"><title>topo.misc.trace.Trace&#45;&gt;topo.misc.trace.IndexTrace</title>
<path fill="none" stroke="black" stroke-width="0.5" d="M386.674,-86C413.872,-86 446.417,-86 475.477,-86"/>
<polygon fill="black" stroke="black" points="475.484,-87.7501 480.484,-86 475.484,-84.2501 475.484,-87.7501"/>
</g>
<!-- topo.misc.trace.SheetPositionTrace -->
<g id="node15" class="node"><title>topo.misc.trace.SheetPositionTrace</title>
<polygon fill="none" stroke="black" stroke-width="0.5" points="645,-58.5 461,-58.5 461,-37.5 645,-37.5 645,-58.5"/>
<text text-anchor="middle" x="553" y="-45.5" font-family="Vera" font-size="10.00">topo.misc.trace.SheetPositionTrace</text>
</g>
<!-- topo.misc.trace.Trace&#45;&gt;topo.misc.trace.SheetPositionTrace -->
<g id="edge14" class="edge"><title>topo.misc.trace.Trace&#45;&gt;topo.misc.trace.SheetPositionTrace</title>
<path fill="none" stroke="black" stroke-width="0.5" d="M386.674,-75.9662C417.956,-70.7064 456.313,-64.2571 488.305,-58.8779"/>
<polygon fill="black" stroke="black" points="488.743,-60.579 493.383,-58.024 488.162,-57.1274 488.743,-60.579"/>
</g>
<!-- topo.base.simulation.EventProcessor&#45;&gt;topo.misc.trace.DataRecorder -->
<g id="edge18" class="edge"><title>topo.base.simulation.EventProcessor&#45;&gt;topo.misc.trace.DataRecorder</title>
<path fill="none" stroke="black" stroke-width="0.5" d="M424.156,-10C438.647,-10 453.492,-10 467.714,-10"/>
<polygon fill="black" stroke="black" points="467.923,-11.7501 472.923,-10 467.923,-8.2501 467.923,-11.7501"/>
</g>
</g>
</svg>
