<?xml version="1.0" encoding="UTF-8" standalone="no"?>
<!DOCTYPE svg PUBLIC "-//W3C//DTD SVG 1.1//EN"
 "http://www.w3.org/Graphics/SVG/1.1/DTD/svg11.dtd">
<!-- Generated by graphviz version 2.26.3 (20100126.1600)
 -->
<!-- Title: inheritance9d692d7c12 Pages: 1 -->
<svg width="462pt" height="66pt"
 viewBox="0.00 0.00 462.00 66.00" xmlns="http://www.w3.org/2000/svg" xmlns:xlink="http://www.w3.org/1999/xlink">
<g id="graph1" class="graph" transform="scale(1 1) rotate(0) translate(4 62)">
<title>inheritance9d692d7c12</title>
<polygon fill="white" stroke="white" points="-4,5 -4,-62 459,-62 459,5 -4,5"/>
<!-- unittest.case.TestCase -->
<g id="node1" class="node"><title>unittest.case.TestCase</title>
<polygon fill="none" stroke="black" stroke-width="0.5" points="125,-39.5 1,-39.5 1,-18.5 125,-18.5 125,-39.5"/>
<text text-anchor="middle" x="63" y="-26.5" font-family="Vera" font-size="10.00">unittest.case.TestCase</text>
</g>
<!-- topo.tests.unit.testnumbergen.TestUniformRandomOffset -->
<g id="node2" class="node"><title>topo.tests.unit.testnumbergen.TestUniformRandomOffset</title>
<polygon fill="none" stroke="black" stroke-width="0.5" points="454,-58.5 162,-58.5 162,-37.5 454,-37.5 454,-58.5"/>
<text text-anchor="middle" x="308" y="-45.5" font-family="Vera" font-size="10.00">topo.tests.unit.testnumbergen.TestUniformRandomOffset</text>
</g>
<!-- unittest.case.TestCase&#45;&gt;topo.tests.unit.testnumbergen.TestUniformRandomOffset -->
<g id="edge2" class="edge"><title>unittest.case.TestCase&#45;&gt;topo.tests.unit.testnumbergen.TestUniformRandomOffset</title>
<path fill="none" stroke="black" stroke-width="0.5" d="M125.775,-33.8683C140.551,-35.0142 156.862,-36.2791 173.471,-37.5671"/>
<polygon fill="black" stroke="black" points="173.513,-39.3255 178.633,-37.9675 173.783,-35.836 173.513,-39.3255"/>
</g>
<!-- topo.tests.unit.testnumbergen.TestUniformRandom -->
<g id="node4" class="node"><title>topo.tests.unit.testnumbergen.TestUniformRandom</title>
<polygon fill="none" stroke="black" stroke-width="0.5" points="439,-20.5 177,-20.5 177,0.5 439,0.5 439,-20.5"/>
<text text-anchor="middle" x="308" y="-7.5" font-family="Vera" font-size="10.00">topo.tests.unit.testnumbergen.TestUniformRandom</text>
</g>
<!-- unittest.case.TestCase&#45;&gt;topo.tests.unit.testnumbergen.TestUniformRandom -->
<g id="edge4" class="edge"><title>unittest.case.TestCase&#45;&gt;topo.tests.unit.testnumbergen.TestUniformRandom</title>
<path fill="none" stroke="black" stroke-width="0.5" d="M125.775,-24.1317C140.551,-22.9858 156.862,-21.7209 173.471,-20.4329"/>
<polygon fill="black" stroke="black" points="173.783,-22.164 178.633,-20.0325 173.513,-18.6745 173.783,-22.164"/>
</g>
</g>
</svg>
