<?xml version="1.0" encoding="UTF-8" standalone="no"?>
<!DOCTYPE svg PUBLIC "-//W3C//DTD SVG 1.1//EN"
 "http://www.w3.org/Graphics/SVG/1.1/DTD/svg11.dtd">
<!-- Generated by graphviz version 2.26.3 (20100126.1600)
 -->
<!-- Title: inheritance6b99715b23 Pages: 1 -->
<svg width="1348pt" height="123pt"
 viewBox="0.00 0.00 1348.00 123.00" xmlns="http://www.w3.org/2000/svg" xmlns:xlink="http://www.w3.org/1999/xlink">
<g id="graph1" class="graph" transform="scale(1 1) rotate(0) translate(4 119)">
<title>inheritance6b99715b23</title>
<polygon fill="white" stroke="white" points="-4,5 -4,-119 1345,-119 1345,5 -4,5"/>
<!-- topo.projection.CFPOF_SharedWeight -->
<g id="node1" class="node"><title>topo.projection.CFPOF_SharedWeight</title>
<polygon fill="none" stroke="black" stroke-width="0.5" points="646,-77.5 452,-77.5 452,-56.5 646,-56.5 646,-77.5"/>
<text text-anchor="middle" x="549" y="-64.5" font-family="Vera" font-size="10.00">topo.projection.CFPOF_SharedWeight</text>
</g>
<!-- topo.base.cf.CFPOutputFn -->
<g id="node2" class="node"><title>topo.base.cf.CFPOutputFn</title>
<polygon fill="none" stroke="black" stroke-width="0.5" points="393,-77.5 253,-77.5 253,-56.5 393,-56.5 393,-77.5"/>
<text text-anchor="middle" x="323" y="-64.5" font-family="Vera" font-size="10.00">topo.base.cf.CFPOutputFn</text>
</g>
<!-- topo.base.cf.CFPOutputFn&#45;&gt;topo.projection.CFPOF_SharedWeight -->
<g id="edge2" class="edge"><title>topo.base.cf.CFPOutputFn&#45;&gt;topo.projection.CFPOF_SharedWeight</title>
<path fill="none" stroke="black" stroke-width="0.5" d="M393.269,-67C410.206,-67 428.645,-67 446.715,-67"/>
<polygon fill="black" stroke="black" points="446.801,-68.7501 451.8,-67 446.8,-65.2501 446.801,-68.7501"/>
</g>
<!-- topo.projection.LeakyCFProjection -->
<g id="node4" class="node"><title>topo.projection.LeakyCFProjection</title>
<polygon fill="none" stroke="black" stroke-width="0.5" points="1339,-96.5 1161,-96.5 1161,-75.5 1339,-75.5 1339,-96.5"/>
<text text-anchor="middle" x="1250" y="-83.5" font-family="Vera" font-size="10.00">topo.projection.LeakyCFProjection</text>
</g>
<!-- topo.base.cf.ResizableCFProjection -->
<g id="node5" class="node"><title>topo.base.cf.ResizableCFProjection</title>
<polygon fill="none" stroke="black" stroke-width="0.5" points="1106,-96.5 924,-96.5 924,-75.5 1106,-75.5 1106,-96.5"/>
<text text-anchor="middle" x="1015" y="-83.5" font-family="Vera" font-size="10.00">topo.base.cf.ResizableCFProjection</text>
</g>
<!-- topo.base.cf.ResizableCFProjection&#45;&gt;topo.projection.LeakyCFProjection -->
<g id="edge4" class="edge"><title>topo.base.cf.ResizableCFProjection&#45;&gt;topo.projection.LeakyCFProjection</title>
<path fill="none" stroke="black" stroke-width="0.5" d="M1106.19,-86C1122.33,-86 1139.16,-86 1155.39,-86"/>
<polygon fill="black" stroke="black" points="1155.4,-87.7501 1160.4,-86 1155.4,-84.2501 1155.4,-87.7501"/>
</g>
<!-- param.parameterized.Parameterized -->
<g id="node7" class="node"><title>param.parameterized.Parameterized</title>
<polygon fill="none" stroke="black" stroke-width="0.5" points="194,-58.5 5.68434e-14,-58.5 0,-37.5 194,-37.5 194,-58.5"/>
<text text-anchor="middle" x="97" y="-45.5" font-family="Vera" font-size="10.00">param.parameterized.Parameterized</text>
</g>
<!-- param.parameterized.Parameterized&#45;&gt;topo.base.cf.CFPOutputFn -->
<g id="edge12" class="edge"><title>param.parameterized.Parameterized&#45;&gt;topo.base.cf.CFPOutputFn</title>
<path fill="none" stroke="black" stroke-width="0.5" d="M194.156,-56.168C212.045,-57.6719 230.475,-59.2214 247.604,-60.6614"/>
<polygon fill="black" stroke="black" points="247.747,-62.4295 252.876,-61.1046 248.04,-58.9418 247.747,-62.4295"/>
</g>
<!-- topo.base.simulation.EPConnection -->
<g id="node17" class="node"><title>topo.base.simulation.EPConnection</title>
<polygon fill="none" stroke="black" stroke-width="0.5" points="416,-39.5 230,-39.5 230,-18.5 416,-18.5 416,-39.5"/>
<text text-anchor="middle" x="323" y="-26.5" font-family="Vera" font-size="10.00">topo.base.simulation.EPConnection</text>
</g>
<!-- param.parameterized.Parameterized&#45;&gt;topo.base.simulation.EPConnection -->
<g id="edge22" class="edge"><title>param.parameterized.Parameterized&#45;&gt;topo.base.simulation.EPConnection</title>
<path fill="none" stroke="black" stroke-width="0.5" d="M194.156,-39.832C204.334,-38.9763 214.688,-38.1059 224.877,-37.2493"/>
<polygon fill="black" stroke="black" points="225.028,-38.9928 229.864,-36.83 224.735,-35.5051 225.028,-38.9928"/>
</g>
<!-- topo.projection.ScaledCFProjection -->
<g id="node8" class="node"><title>topo.projection.ScaledCFProjection</title>
<polygon fill="none" stroke="black" stroke-width="0.5" points="1106,-58.5 924,-58.5 924,-37.5 1106,-37.5 1106,-58.5"/>
<text text-anchor="middle" x="1015" y="-45.5" font-family="Vera" font-size="10.00">topo.projection.ScaledCFProjection</text>
</g>
<!-- topo.base.cf.CFProjection -->
<g id="node9" class="node"><title>topo.base.cf.CFProjection</title>
<polygon fill="none" stroke="black" stroke-width="0.5" points="844,-58.5 708,-58.5 708,-37.5 844,-37.5 844,-58.5"/>
<text text-anchor="middle" x="776" y="-45.5" font-family="Vera" font-size="10.00">topo.base.cf.CFProjection</text>
</g>
<!-- topo.base.cf.CFProjection&#45;&gt;topo.base.cf.ResizableCFProjection -->
<g id="edge16" class="edge"><title>topo.base.cf.CFProjection&#45;&gt;topo.base.cf.ResizableCFProjection</title>
<path fill="none" stroke="black" stroke-width="0.5" d="M839.107,-58.0338C872.325,-63.3152 913.085,-69.796 947.001,-75.1885"/>
<polygon fill="black" stroke="black" points="946.741,-76.919 951.954,-75.976 947.291,-73.4625 946.741,-76.919"/>
</g>
<!-- topo.base.cf.CFProjection&#45;&gt;topo.projection.ScaledCFProjection -->
<g id="edge6" class="edge"><title>topo.base.cf.CFProjection&#45;&gt;topo.projection.ScaledCFProjection</title>
<path fill="none" stroke="black" stroke-width="0.5" d="M844.808,-48C867.596,-48 893.402,-48 917.905,-48"/>
<polygon fill="black" stroke="black" points="918.112,-49.7501 923.112,-48 918.112,-46.2501 918.112,-49.7501"/>
</g>
<!-- topo.projection.SharedWeightCFProjection -->
<g id="node22" class="node"><title>topo.projection.SharedWeightCFProjection</title>
<polygon fill="none" stroke="black" stroke-width="0.5" points="1123,-20.5 907,-20.5 907,0.5 1123,0.5 1123,-20.5"/>
<text text-anchor="middle" x="1015" y="-7.5" font-family="Vera" font-size="10.00">topo.projection.SharedWeightCFProjection</text>
</g>
<!-- topo.base.cf.CFProjection&#45;&gt;topo.projection.SharedWeightCFProjection -->
<g id="edge20" class="edge"><title>topo.base.cf.CFProjection&#45;&gt;topo.projection.SharedWeightCFProjection</title>
<path fill="none" stroke="black" stroke-width="0.5" d="M839.107,-37.9662C872.325,-32.6848 913.085,-26.204 947.001,-20.8115"/>
<polygon fill="black" stroke="black" points="947.291,-22.5375 951.954,-20.024 946.741,-19.081 947.291,-22.5375"/>
</g>
<!-- topo.base.cf.ConnectionField -->
<g id="node11" class="node"><title>topo.base.cf.ConnectionField</title>
<polygon fill="none" stroke="black" stroke-width="0.5" points="173,-115.5 21,-115.5 21,-94.5 173,-94.5 173,-115.5"/>
<text text-anchor="middle" x="97" y="-102.5" font-family="Vera" font-size="10.00">topo.base.cf.ConnectionField</text>
</g>
<!-- topo.projection.SharedWeightCF -->
<g id="node20" class="node"><title>topo.projection.SharedWeightCF</title>
<polygon fill="none" stroke="black" stroke-width="0.5" points="408,-115.5 238,-115.5 238,-94.5 408,-94.5 408,-115.5"/>
<text text-anchor="middle" x="323" y="-102.5" font-family="Vera" font-size="10.00">topo.projection.SharedWeightCF</text>
</g>
<!-- topo.base.cf.ConnectionField&#45;&gt;topo.projection.SharedWeightCF -->
<g id="edge18" class="edge"><title>topo.base.cf.ConnectionField&#45;&gt;topo.projection.SharedWeightCF</title>
<path fill="none" stroke="black" stroke-width="0.5" d="M173.513,-105C192.358,-105 212.72,-105 232.17,-105"/>
<polygon fill="black" stroke="black" points="232.63,-106.75 237.63,-105 232.63,-103.25 232.63,-106.75"/>
</g>
<!-- topo.projection.OneToOneProjection -->
<g id="node12" class="node"><title>topo.projection.OneToOneProjection</title>
<polygon fill="none" stroke="black" stroke-width="0.5" points="870,-20.5 682,-20.5 682,0.5 870,0.5 870,-20.5"/>
<text text-anchor="middle" x="776" y="-7.5" font-family="Vera" font-size="10.00">topo.projection.OneToOneProjection</text>
</g>
<!-- topo.base.projection.Projection -->
<g id="node13" class="node"><title>topo.base.projection.Projection</title>
<polygon fill="none" stroke="black" stroke-width="0.5" points="631,-39.5 467,-39.5 467,-18.5 631,-18.5 631,-39.5"/>
<text text-anchor="middle" x="549" y="-26.5" font-family="Vera" font-size="10.00">topo.base.projection.Projection</text>
</g>
<!-- topo.base.projection.Projection&#45;&gt;topo.base.cf.CFProjection -->
<g id="edge10" class="edge"><title>topo.base.projection.Projection&#45;&gt;topo.base.cf.CFProjection</title>
<path fill="none" stroke="black" stroke-width="0.5" d="M631.594,-35.9132C654.694,-37.8466 679.642,-39.9348 702.197,-41.8227"/>
<polygon fill="black" stroke="black" points="702.143,-43.5742 707.272,-42.2474 702.435,-40.0864 702.143,-43.5742"/>
</g>
<!-- topo.base.projection.Projection&#45;&gt;topo.projection.OneToOneProjection -->
<g id="edge8" class="edge"><title>topo.base.projection.Projection&#45;&gt;topo.projection.OneToOneProjection</title>
<path fill="none" stroke="black" stroke-width="0.5" d="M631.594,-22.0868C646.286,-20.8571 661.727,-19.5647 676.823,-18.3012"/>
<polygon fill="black" stroke="black" points="677.091,-20.0349 681.928,-17.8739 676.799,-16.5471 677.091,-20.0349"/>
</g>
<!-- topo.base.simulation.EPConnection&#45;&gt;topo.base.projection.Projection -->
<g id="edge14" class="edge"><title>topo.base.simulation.EPConnection&#45;&gt;topo.base.projection.Projection</title>
<path fill="none" stroke="black" stroke-width="0.5" d="M416.228,-29C431.194,-29 446.637,-29 461.464,-29"/>
<polygon fill="black" stroke="black" points="461.467,-30.7501 466.467,-29 461.467,-27.2501 461.467,-30.7501"/>
</g>
</g>
</svg>
