<?xml version="1.0" encoding="UTF-8" standalone="no"?>
<!DOCTYPE svg PUBLIC "-//W3C//DTD SVG 1.1//EN"
 "http://www.w3.org/Graphics/SVG/1.1/DTD/svg11.dtd">
<!-- Generated by graphviz version 2.26.3 (20100126.1600)
 -->
<!-- Title: inheritance8ed98380c7 Pages: 1 -->
<svg width="700pt" height="142pt"
 viewBox="0.00 0.00 700.00 142.00" xmlns="http://www.w3.org/2000/svg" xmlns:xlink="http://www.w3.org/1999/xlink">
<g id="graph1" class="graph" transform="scale(1 1) rotate(0) translate(4 138)">
<title>inheritance8ed98380c7</title>
<polygon fill="white" stroke="white" points="-4,5 -4,-138 697,-138 697,5 -4,5"/>
<!-- param.parameterized.Parameterized -->
<g id="node1" class="node"><title>param.parameterized.Parameterized</title>
<polygon fill="none" stroke="black" stroke-width="0.5" points="194,-58.5 5.68434e-14,-58.5 0,-37.5 194,-37.5 194,-58.5"/>
<text text-anchor="middle" x="97" y="-45.5" font-family="Vera" font-size="10.00">param.parameterized.Parameterized</text>
</g>
<!-- topo.base.functionfamily.LearningFn -->
<g id="node3" class="node"><title>topo.base.functionfamily.LearningFn</title>
<polygon fill="none" stroke="black" stroke-width="0.5" points="442,-96.5 254,-96.5 254,-75.5 442,-75.5 442,-96.5"/>
<text text-anchor="middle" x="348" y="-83.5" font-family="Vera" font-size="10.00">topo.base.functionfamily.LearningFn</text>
</g>
<!-- param.parameterized.Parameterized&#45;&gt;topo.base.functionfamily.LearningFn -->
<g id="edge12" class="edge"><title>param.parameterized.Parameterized&#45;&gt;topo.base.functionfamily.LearningFn</title>
<path fill="none" stroke="black" stroke-width="0.5" d="M163.276,-58.0338C198.161,-63.3152 240.968,-69.796 276.587,-75.1885"/>
<polygon fill="black" stroke="black" points="276.583,-76.9577 281.789,-75.976 277.107,-73.4971 276.583,-76.9577"/>
</g>
<!-- topo.base.functionfamily.CoordinateMapperFn -->
<g id="node5" class="node"><title>topo.base.functionfamily.CoordinateMapperFn</title>
<polygon fill="none" stroke="black" stroke-width="0.5" points="466,-58.5 230,-58.5 230,-37.5 466,-37.5 466,-58.5"/>
<text text-anchor="middle" x="348" y="-45.5" font-family="Vera" font-size="10.00">topo.base.functionfamily.CoordinateMapperFn</text>
</g>
<!-- param.parameterized.Parameterized&#45;&gt;topo.base.functionfamily.CoordinateMapperFn -->
<g id="edge4" class="edge"><title>param.parameterized.Parameterized&#45;&gt;topo.base.functionfamily.CoordinateMapperFn</title>
<path fill="none" stroke="black" stroke-width="0.5" d="M194.043,-48C204.12,-48 214.455,-48 224.77,-48"/>
<polygon fill="black" stroke="black" points="224.831,-49.7501 229.831,-48 224.831,-46.2501 224.831,-49.7501"/>
</g>
<!-- topo.base.functionfamily.ResponseFn -->
<g id="node10" class="node"><title>topo.base.functionfamily.ResponseFn</title>
<polygon fill="none" stroke="black" stroke-width="0.5" points="444,-20.5 252,-20.5 252,0.5 444,0.5 444,-20.5"/>
<text text-anchor="middle" x="348" y="-7.5" font-family="Vera" font-size="10.00">topo.base.functionfamily.ResponseFn</text>
</g>
<!-- param.parameterized.Parameterized&#45;&gt;topo.base.functionfamily.ResponseFn -->
<g id="edge10" class="edge"><title>param.parameterized.Parameterized&#45;&gt;topo.base.functionfamily.ResponseFn</title>
<path fill="none" stroke="black" stroke-width="0.5" d="M163.276,-37.9662C198.161,-32.6848 240.968,-26.204 276.587,-20.8115"/>
<polygon fill="black" stroke="black" points="277.107,-22.5029 281.789,-20.024 276.583,-19.0423 277.107,-22.5029"/>
</g>
<!-- topo.base.functionfamily.IdentityLF -->
<g id="node2" class="node"><title>topo.base.functionfamily.IdentityLF</title>
<polygon fill="none" stroke="black" stroke-width="0.5" points="688,-134.5 506,-134.5 506,-113.5 688,-113.5 688,-134.5"/>
<text text-anchor="middle" x="597" y="-121.5" font-family="Vera" font-size="10.00">topo.base.functionfamily.IdentityLF</text>
</g>
<!-- topo.base.functionfamily.LearningFn&#45;&gt;topo.base.functionfamily.IdentityLF -->
<g id="edge2" class="edge"><title>topo.base.functionfamily.LearningFn&#45;&gt;topo.base.functionfamily.IdentityLF</title>
<path fill="none" stroke="black" stroke-width="0.5" d="M413.748,-96.0338C448.355,-101.315 490.821,-107.796 526.156,-113.189"/>
<polygon fill="black" stroke="black" points="526.109,-114.952 531.316,-113.976 526.637,-111.492 526.109,-114.952"/>
</g>
<!-- topo.base.functionfamily.Hebbian -->
<g id="node14" class="node"><title>topo.base.functionfamily.Hebbian</title>
<polygon fill="none" stroke="black" stroke-width="0.5" points="685,-96.5 509,-96.5 509,-75.5 685,-75.5 685,-96.5"/>
<text text-anchor="middle" x="597" y="-83.5" font-family="Vera" font-size="10.00">topo.base.functionfamily.Hebbian</text>
</g>
<!-- topo.base.functionfamily.LearningFn&#45;&gt;topo.base.functionfamily.Hebbian -->
<g id="edge14" class="edge"><title>topo.base.functionfamily.LearningFn&#45;&gt;topo.base.functionfamily.Hebbian</title>
<path fill="none" stroke="black" stroke-width="0.5" d="M442.136,-86C462.323,-86 483.644,-86 503.795,-86"/>
<polygon fill="black" stroke="black" points="503.892,-87.7501 508.892,-86 503.892,-84.2501 503.892,-87.7501"/>
</g>
<!-- topo.base.functionfamily.IdentityMF -->
<g id="node7" class="node"><title>topo.base.functionfamily.IdentityMF</title>
<polygon fill="none" stroke="black" stroke-width="0.5" points="689,-58.5 505,-58.5 505,-37.5 689,-37.5 689,-58.5"/>
<text text-anchor="middle" x="597" y="-45.5" font-family="Vera" font-size="10.00">topo.base.functionfamily.IdentityMF</text>
</g>
<!-- topo.base.functionfamily.CoordinateMapperFn&#45;&gt;topo.base.functionfamily.IdentityMF -->
<g id="edge6" class="edge"><title>topo.base.functionfamily.CoordinateMapperFn&#45;&gt;topo.base.functionfamily.IdentityMF</title>
<path fill="none" stroke="black" stroke-width="0.5" d="M466.302,-48C477.301,-48 488.365,-48 499.149,-48"/>
<polygon fill="black" stroke="black" points="499.418,-49.7501 504.418,-48 499.418,-46.2501 499.418,-49.7501"/>
</g>
<!-- topo.base.functionfamily.DotProduct -->
<g id="node9" class="node"><title>topo.base.functionfamily.DotProduct</title>
<polygon fill="none" stroke="black" stroke-width="0.5" points="692,-20.5 502,-20.5 502,0.5 692,0.5 692,-20.5"/>
<text text-anchor="middle" x="597" y="-7.5" font-family="Vera" font-size="10.00">topo.base.functionfamily.DotProduct</text>
</g>
<!-- topo.base.functionfamily.ResponseFn&#45;&gt;topo.base.functionfamily.DotProduct -->
<g id="edge8" class="edge"><title>topo.base.functionfamily.ResponseFn&#45;&gt;topo.base.functionfamily.DotProduct</title>
<path fill="none" stroke="black" stroke-width="0.5" d="M444.626,-10C461.599,-10 479.3,-10 496.378,-10"/>
<polygon fill="black" stroke="black" points="496.657,-11.7501 501.657,-10 496.657,-8.25009 496.657,-11.7501"/>
</g>
</g>
</svg>
