<?xml version="1.0" encoding="UTF-8" standalone="no"?>
<!DOCTYPE svg PUBLIC "-//W3C//DTD SVG 1.1//EN"
 "http://www.w3.org/Graphics/SVG/1.1/DTD/svg11.dtd">
<!-- Generated by graphviz version 2.26.3 (20100126.1600)
 -->
<!-- Title: inheritanceb299c4dd19 Pages: 1 -->
<svg width="950pt" height="180pt"
 viewBox="0.00 0.00 950.00 180.00" xmlns="http://www.w3.org/2000/svg" xmlns:xlink="http://www.w3.org/1999/xlink">
<g id="graph1" class="graph" transform="scale(1 1) rotate(0) translate(4 176)">
<title>inheritanceb299c4dd19</title>
<polygon fill="white" stroke="white" points="-4,5 -4,-176 947,-176 947,5 -4,5"/>
<!-- param.parameterized.Parameterized -->
<g id="node1" class="node"><title>param.parameterized.Parameterized</title>
<polygon fill="none" stroke="black" stroke-width="0.5" points="194,-96.5 5.68434e-14,-96.5 0,-75.5 194,-75.5 194,-96.5"/>
<text text-anchor="middle" x="97" y="-83.5" font-family="Vera" font-size="10.00">param.parameterized.Parameterized</text>
</g>
<!-- imagen.patterngenerator.PatternGenerator -->
<g id="node3" class="node"><title>imagen.patterngenerator.PatternGenerator</title>
<polygon fill="none" stroke="black" stroke-width="0.5" points="454,-96.5 230,-96.5 230,-75.5 454,-75.5 454,-96.5"/>
<text text-anchor="middle" x="342" y="-83.5" font-family="Vera" font-size="10.00">imagen.patterngenerator.PatternGenerator</text>
</g>
<!-- param.parameterized.Parameterized&#45;&gt;imagen.patterngenerator.PatternGenerator -->
<g id="edge10" class="edge"><title>param.parameterized.Parameterized&#45;&gt;imagen.patterngenerator.PatternGenerator</title>
<path fill="none" stroke="black" stroke-width="0.5" d="M194.182,-86C204.286,-86 214.629,-86 224.922,-86"/>
<polygon fill="black" stroke="black" points="224.969,-87.7501 229.969,-86 224.969,-84.2501 224.969,-87.7501"/>
</g>
<!-- imagen.random.RandomDotStereogram -->
<g id="node2" class="node"><title>imagen.random.RandomDotStereogram</title>
<polygon fill="none" stroke="black" stroke-width="0.5" points="701,-134.5 491,-134.5 491,-113.5 701,-113.5 701,-134.5"/>
<text text-anchor="middle" x="596" y="-121.5" font-family="Vera" font-size="10.00">imagen.random.RandomDotStereogram</text>
</g>
<!-- imagen.patterngenerator.PatternGenerator&#45;&gt;imagen.random.RandomDotStereogram -->
<g id="edge2" class="edge"><title>imagen.patterngenerator.PatternGenerator&#45;&gt;imagen.random.RandomDotStereogram</title>
<path fill="none" stroke="black" stroke-width="0.5" d="M409.068,-96.0338C444.37,-101.315 487.689,-107.796 523.734,-113.189"/>
<polygon fill="black" stroke="black" points="523.793,-114.967 528.997,-113.976 524.311,-111.505 523.793,-114.967"/>
</g>
<!-- imagen.random.RandomGenerator -->
<g id="node5" class="node"><title>imagen.random.RandomGenerator</title>
<polygon fill="none" stroke="black" stroke-width="0.5" points="688,-96.5 504,-96.5 504,-75.5 688,-75.5 688,-96.5"/>
<text text-anchor="middle" x="596" y="-83.5" font-family="Vera" font-size="10.00">imagen.random.RandomGenerator</text>
</g>
<!-- imagen.patterngenerator.PatternGenerator&#45;&gt;imagen.random.RandomGenerator -->
<g id="edge4" class="edge"><title>imagen.patterngenerator.PatternGenerator&#45;&gt;imagen.random.RandomGenerator</title>
<path fill="none" stroke="black" stroke-width="0.5" d="M454.147,-86C468.824,-86 483.769,-86 498.184,-86"/>
<polygon fill="black" stroke="black" points="498.469,-87.7501 503.469,-86 498.469,-84.2501 498.469,-87.7501"/>
</g>
<!-- imagen.Composite -->
<g id="node15" class="node"><title>imagen.Composite</title>
<polygon fill="none" stroke="black" stroke-width="0.5" points="649,-39.5 543,-39.5 543,-18.5 649,-18.5 649,-39.5"/>
<text text-anchor="middle" x="596" y="-26.5" font-family="Vera" font-size="10.00">imagen.Composite</text>
</g>
<!-- imagen.patterngenerator.PatternGenerator&#45;&gt;imagen.Composite -->
<g id="edge18" class="edge"><title>imagen.patterngenerator.PatternGenerator&#45;&gt;imagen.Composite</title>
<path fill="none" stroke="black" stroke-width="0.5" d="M386.825,-75.9408C431.484,-65.9189 499.901,-50.5656 546.223,-40.1705"/>
<polygon fill="black" stroke="black" points="546.701,-41.8568 551.196,-39.0544 545.934,-38.4418 546.701,-41.8568"/>
</g>
<!-- imagen.random.GaussianRandom -->
<g id="node7" class="node"><title>imagen.random.GaussianRandom</title>
<polygon fill="none" stroke="black" stroke-width="0.5" points="930,-172.5 750,-172.5 750,-151.5 930,-151.5 930,-172.5"/>
<text text-anchor="middle" x="840" y="-159.5" font-family="Vera" font-size="10.00">imagen.random.GaussianRandom</text>
</g>
<!-- imagen.random.RandomGenerator&#45;&gt;imagen.random.GaussianRandom -->
<g id="edge6" class="edge"><title>imagen.random.RandomGenerator&#45;&gt;imagen.random.GaussianRandom</title>
<path fill="none" stroke="black" stroke-width="0.5" d="M680.715,-96.0789C688.128,-98.47 695.337,-101.404 702,-105 722.473,-116.049 717.564,-131.881 738,-143 743.192,-145.825 748.728,-148.238 754.436,-150.298"/>
<polygon fill="black" stroke="black" points="753.97,-151.987 759.267,-151.946 755.1,-148.675 753.97,-151.987"/>
</g>
<!-- imagen.random.UniformRandomInt -->
<g id="node9" class="node"><title>imagen.random.UniformRandomInt</title>
<polygon fill="none" stroke="black" stroke-width="0.5" points="933,-134.5 747,-134.5 747,-113.5 933,-113.5 933,-134.5"/>
<text text-anchor="middle" x="840" y="-121.5" font-family="Vera" font-size="10.00">imagen.random.UniformRandomInt</text>
</g>
<!-- imagen.random.RandomGenerator&#45;&gt;imagen.random.UniformRandomInt -->
<g id="edge8" class="edge"><title>imagen.random.RandomGenerator&#45;&gt;imagen.random.UniformRandomInt</title>
<path fill="none" stroke="black" stroke-width="0.5" d="M660.427,-96.0338C694.34,-101.315 735.953,-107.796 770.579,-113.189"/>
<polygon fill="black" stroke="black" points="770.425,-114.936 775.635,-113.976 770.964,-111.477 770.425,-114.936"/>
</g>
<!-- imagen.random.BinaryUniformRandom -->
<g id="node12" class="node"><title>imagen.random.BinaryUniformRandom</title>
<polygon fill="none" stroke="black" stroke-width="0.5" points="942,-96.5 738,-96.5 738,-75.5 942,-75.5 942,-96.5"/>
<text text-anchor="middle" x="840" y="-83.5" font-family="Vera" font-size="10.00">imagen.random.BinaryUniformRandom</text>
</g>
<!-- imagen.random.RandomGenerator&#45;&gt;imagen.random.BinaryUniformRandom -->
<g id="edge12" class="edge"><title>imagen.random.RandomGenerator&#45;&gt;imagen.random.BinaryUniformRandom</title>
<path fill="none" stroke="black" stroke-width="0.5" d="M688.594,-86C702.882,-86 717.743,-86 732.327,-86"/>
<polygon fill="black" stroke="black" points="732.685,-87.7501 737.685,-86 732.685,-84.2501 732.685,-87.7501"/>
</g>
<!-- imagen.random.UniformRandom -->
<g id="node17" class="node"><title>imagen.random.UniformRandom</title>
<polygon fill="none" stroke="black" stroke-width="0.5" points="927,-58.5 753,-58.5 753,-37.5 927,-37.5 927,-58.5"/>
<text text-anchor="middle" x="840" y="-45.5" font-family="Vera" font-size="10.00">imagen.random.UniformRandom</text>
</g>
<!-- imagen.random.RandomGenerator&#45;&gt;imagen.random.UniformRandom -->
<g id="edge16" class="edge"><title>imagen.random.RandomGenerator&#45;&gt;imagen.random.UniformRandom</title>
<path fill="none" stroke="black" stroke-width="0.5" d="M660.427,-75.9662C694.34,-70.6848 735.953,-64.204 770.579,-58.8115"/>
<polygon fill="black" stroke="black" points="770.964,-60.5227 775.635,-58.024 770.425,-57.0644 770.964,-60.5227"/>
</g>
<!-- imagen.random.GaussianCloud -->
<g id="node14" class="node"><title>imagen.random.GaussianCloud</title>
<polygon fill="none" stroke="black" stroke-width="0.5" points="923,-20.5 757,-20.5 757,0.5 923,0.5 923,-20.5"/>
<text text-anchor="middle" x="840" y="-7.5" font-family="Vera" font-size="10.00">imagen.random.GaussianCloud</text>
</g>
<!-- imagen.Composite&#45;&gt;imagen.random.GaussianCloud -->
<g id="edge14" class="edge"><title>imagen.Composite&#45;&gt;imagen.random.GaussianCloud</title>
<path fill="none" stroke="black" stroke-width="0.5" d="M649.547,-24.8304C679.364,-22.5086 717.246,-19.5587 751.359,-16.9023"/>
<polygon fill="black" stroke="black" points="751.515,-18.6456 756.364,-16.5127 751.243,-15.1562 751.515,-18.6456"/>
</g>
</g>
</svg>
