<?xml version="1.0" encoding="UTF-8" standalone="no"?>
<!DOCTYPE svg PUBLIC "-//W3C//DTD SVG 1.1//EN"
 "http://www.w3.org/Graphics/SVG/1.1/DTD/svg11.dtd">
<!-- Generated by graphviz version 2.26.3 (20100126.1600)
 -->
<!-- Title: inheritance95afd34832 Pages: 1 -->
<svg width="1474pt" height="541pt"
 viewBox="0.00 0.00 1474.00 541.00" xmlns="http://www.w3.org/2000/svg" xmlns:xlink="http://www.w3.org/1999/xlink">
<g id="graph1" class="graph" transform="scale(1 1) rotate(0) translate(4 537)">
<title>inheritance95afd34832</title>
<polygon fill="white" stroke="white" points="-4,5 -4,-537 1471,-537 1471,5 -4,5"/>
<!-- paramtk.FocusTakingButton -->
<g id="node1" class="node"><title>paramtk.FocusTakingButton</title>
<polygon fill="none" stroke="black" stroke-width="0.5" points="977,-381.5 829,-381.5 829,-360.5 977,-360.5 977,-381.5"/>
<text text-anchor="middle" x="903" y="-368.5" font-family="Vera" font-size="10.00">paramtk.FocusTakingButton</text>
</g>
<!-- Tkinter.Button -->
<g id="node2" class="node"><title>Tkinter.Button</title>
<polygon fill="none" stroke="black" stroke-width="0.5" points="758,-362.5 676,-362.5 676,-341.5 758,-341.5 758,-362.5"/>
<text text-anchor="middle" x="717" y="-349.5" font-family="Vera" font-size="10.00">Tkinter.Button</text>
</g>
<!-- Tkinter.Button&#45;&gt;paramtk.FocusTakingButton -->
<g id="edge2" class="edge"><title>Tkinter.Button&#45;&gt;paramtk.FocusTakingButton</title>
<path fill="none" stroke="black" stroke-width="0.5" d="M758.742,-356.264C777.861,-358.217 801.182,-360.599 823.453,-362.874"/>
<polygon fill="black" stroke="black" points="823.333,-364.621 828.485,-363.388 823.689,-361.139 823.333,-364.621"/>
</g>
<!-- paramtk.Translator -->
<g id="node4" class="node"><title>paramtk.Translator</title>
<polygon fill="none" stroke="black" stroke-width="0.5" points="141,-438.5 35,-438.5 35,-417.5 141,-417.5 141,-438.5"/>
<text text-anchor="middle" x="88" y="-425.5" font-family="Vera" font-size="10.00">paramtk.Translator</text>
</g>
<!-- paramtk.String_ObjectTranslator -->
<g id="node13" class="node"><title>paramtk.String_ObjectTranslator</title>
<polygon fill="none" stroke="black" stroke-width="0.5" points="394,-495.5 224,-495.5 224,-474.5 394,-474.5 394,-495.5"/>
<text text-anchor="middle" x="309" y="-482.5" font-family="Vera" font-size="10.00">paramtk.String_ObjectTranslator</text>
</g>
<!-- paramtk.Translator&#45;&gt;paramtk.String_ObjectTranslator -->
<g id="edge10" class="edge"><title>paramtk.Translator&#45;&gt;paramtk.String_ObjectTranslator</title>
<path fill="none" stroke="black" stroke-width="0.5" d="M117.572,-438.012C142.543,-446.236 179.347,-457.822 212,-466 223.434,-468.864 235.715,-471.558 247.566,-473.969"/>
<polygon fill="black" stroke="black" points="247.368,-475.714 252.615,-474.984 248.058,-472.282 247.368,-475.714"/>
</g>
<!-- paramtk.ListTranslator -->
<g id="node44" class="node"><title>paramtk.ListTranslator</title>
<polygon fill="none" stroke="black" stroke-width="0.5" points="370,-457.5 248,-457.5 248,-436.5 370,-436.5 370,-457.5"/>
<text text-anchor="middle" x="309" y="-444.5" font-family="Vera" font-size="10.00">paramtk.ListTranslator</text>
</g>
<!-- paramtk.Translator&#45;&gt;paramtk.ListTranslator -->
<g id="edge36" class="edge"><title>paramtk.Translator&#45;&gt;paramtk.ListTranslator</title>
<path fill="none" stroke="black" stroke-width="0.5" d="M141.78,-432.624C171.978,-435.22 209.931,-438.483 242.043,-441.244"/>
<polygon fill="black" stroke="black" points="242.013,-442.997 247.145,-441.682 242.313,-439.51 242.013,-442.997"/>
</g>
<!-- paramtk.DoNothingTranslator -->
<g id="node53" class="node"><title>paramtk.DoNothingTranslator</title>
<polygon fill="none" stroke="black" stroke-width="0.5" points="388,-419.5 230,-419.5 230,-398.5 388,-398.5 388,-419.5"/>
<text text-anchor="middle" x="309" y="-406.5" font-family="Vera" font-size="10.00">paramtk.DoNothingTranslator</text>
</g>
<!-- paramtk.Translator&#45;&gt;paramtk.DoNothingTranslator -->
<g id="edge58" class="edge"><title>paramtk.Translator&#45;&gt;paramtk.DoNothingTranslator</title>
<path fill="none" stroke="black" stroke-width="0.5" d="M141.78,-423.376C166.678,-421.236 196.847,-418.642 224.668,-416.25"/>
<polygon fill="black" stroke="black" points="225.002,-417.978 229.834,-415.806 224.702,-414.491 225.002,-417.978"/>
</g>
<!-- paramtk.Eval_ReprTranslator -->
<g id="node57" class="node"><title>paramtk.Eval_ReprTranslator</title>
<polygon fill="none" stroke="black" stroke-width="0.5" points="385,-381.5 233,-381.5 233,-360.5 385,-360.5 385,-381.5"/>
<text text-anchor="middle" x="309" y="-368.5" font-family="Vera" font-size="10.00">paramtk.Eval_ReprTranslator</text>
</g>
<!-- paramtk.Translator&#45;&gt;paramtk.Eval_ReprTranslator -->
<g id="edge46" class="edge"><title>paramtk.Translator&#45;&gt;paramtk.Eval_ReprTranslator</title>
<path fill="none" stroke="black" stroke-width="0.5" d="M117.572,-417.988C142.543,-409.764 179.347,-398.178 212,-390 223.434,-387.136 235.715,-384.442 247.566,-382.031"/>
<polygon fill="black" stroke="black" points="248.058,-383.718 252.615,-381.016 247.368,-380.286 248.058,-383.718"/>
</g>
<!-- paramtk.ScrodgetWidget -->
<g id="node5" class="node"><title>paramtk.ScrodgetWidget</title>
<polygon fill="none" stroke="black" stroke-width="0.5" points="592,-210.5 456,-210.5 456,-189.5 592,-189.5 592,-210.5"/>
<text text-anchor="middle" x="524" y="-197.5" font-family="Vera" font-size="10.00">paramtk.ScrodgetWidget</text>
</g>
<!-- paramtk.Scrodget -->
<g id="node29" class="node"><title>paramtk.Scrodget</title>
<polygon fill="none" stroke="black" stroke-width="0.5" points="769,-210.5 665,-210.5 665,-189.5 769,-189.5 769,-210.5"/>
<text text-anchor="middle" x="717" y="-197.5" font-family="Vera" font-size="10.00">paramtk.Scrodget</text>
</g>
<!-- paramtk.ScrodgetWidget&#45;&gt;paramtk.Scrodget -->
<g id="edge22" class="edge"><title>paramtk.ScrodgetWidget&#45;&gt;paramtk.Scrodget</title>
<path fill="none" stroke="black" stroke-width="0.5" d="M592.045,-200C614.148,-200 638.44,-200 659.681,-200"/>
<polygon fill="black" stroke="black" points="659.728,-201.75 664.728,-200 659.728,-198.25 659.728,-201.75"/>
</g>
<!-- paramtk.ScrolledFrame -->
<g id="node6" class="node"><title>paramtk.ScrolledFrame</title>
<polygon fill="none" stroke="black" stroke-width="0.5" points="967,-305.5 839,-305.5 839,-284.5 967,-284.5 967,-305.5"/>
<text text-anchor="middle" x="903" y="-292.5" font-family="Vera" font-size="10.00">paramtk.ScrolledFrame</text>
</g>
<!-- Tkinter.Frame -->
<g id="node7" class="node"><title>Tkinter.Frame</title>
<polygon fill="none" stroke="black" stroke-width="0.5" points="757,-248.5 677,-248.5 677,-227.5 757,-227.5 757,-248.5"/>
<text text-anchor="middle" x="717" y="-235.5" font-family="Vera" font-size="10.00">Tkinter.Frame</text>
</g>
<!-- Tkinter.Frame&#45;&gt;paramtk.ScrolledFrame -->
<g id="edge4" class="edge"><title>Tkinter.Frame&#45;&gt;paramtk.ScrolledFrame</title>
<path fill="none" stroke="black" stroke-width="0.5" d="M744.624,-248.16C766.96,-256.204 799.299,-267.467 828,-276 836.908,-278.648 846.479,-281.253 855.704,-283.644"/>
<polygon fill="black" stroke="black" points="855.509,-285.401 860.788,-284.949 856.38,-282.011 855.509,-285.401"/>
</g>
<!-- paramtk.ListItemCtrlWidget -->
<g id="node26" class="node"><title>paramtk.ListItemCtrlWidget</title>
<polygon fill="none" stroke="black" stroke-width="0.5" points="976,-267.5 830,-267.5 830,-246.5 976,-246.5 976,-267.5"/>
<text text-anchor="middle" x="903" y="-254.5" font-family="Vera" font-size="10.00">paramtk.ListItemCtrlWidget</text>
</g>
<!-- Tkinter.Frame&#45;&gt;paramtk.ListItemCtrlWidget -->
<g id="edge20" class="edge"><title>Tkinter.Frame&#45;&gt;paramtk.ListItemCtrlWidget</title>
<path fill="none" stroke="black" stroke-width="0.5" d="M757.818,-242.17C777.305,-244.16 801.31,-246.612 824.149,-248.945"/>
<polygon fill="black" stroke="black" points="824.156,-250.705 829.308,-249.472 824.512,-247.223 824.156,-250.705"/>
</g>
<!-- paramtk.StatusBar -->
<g id="node32" class="node"><title>paramtk.StatusBar</title>
<polygon fill="none" stroke="black" stroke-width="0.5" points="957,-229.5 849,-229.5 849,-208.5 957,-208.5 957,-229.5"/>
<text text-anchor="middle" x="903" y="-216.5" font-family="Vera" font-size="10.00">paramtk.StatusBar</text>
</g>
<!-- Tkinter.Frame&#45;&gt;paramtk.StatusBar -->
<g id="edge26" class="edge"><title>Tkinter.Frame&#45;&gt;paramtk.StatusBar</title>
<path fill="none" stroke="black" stroke-width="0.5" d="M757.818,-233.83C782.986,-231.259 815.693,-227.918 843.69,-225.059"/>
<polygon fill="black" stroke="black" points="844.063,-226.78 848.859,-224.53 843.707,-223.298 844.063,-226.78"/>
</g>
<!-- paramtk.ProgressWindow -->
<g id="node34" class="node"><title>paramtk.ProgressWindow</title>
<polygon fill="none" stroke="black" stroke-width="0.5" points="971,-343.5 835,-343.5 835,-322.5 971,-322.5 971,-343.5"/>
<text text-anchor="middle" x="903" y="-330.5" font-family="Vera" font-size="10.00">paramtk.ProgressWindow</text>
</g>
<!-- Tkinter.Frame&#45;&gt;paramtk.ProgressWindow -->
<g id="edge30" class="edge"><title>Tkinter.Frame&#45;&gt;paramtk.ProgressWindow</title>
<path fill="none" stroke="black" stroke-width="0.5" d="M728.792,-248.191C748.191,-264.445 788.623,-296.215 828,-314 834.243,-316.82 840.975,-319.27 847.754,-321.386"/>
<polygon fill="black" stroke="black" points="847.648,-323.181 852.939,-322.94 848.652,-319.829 847.648,-323.181"/>
</g>
<!-- paramtk.ListWidget -->
<g id="node42" class="node"><title>paramtk.ListWidget</title>
<polygon fill="none" stroke="black" stroke-width="0.5" points="957,-191.5 849,-191.5 849,-170.5 957,-170.5 957,-191.5"/>
<text text-anchor="middle" x="903" y="-178.5" font-family="Vera" font-size="10.00">paramtk.ListWidget</text>
</g>
<!-- Tkinter.Frame&#45;&gt;paramtk.ListWidget -->
<g id="edge34" class="edge"><title>Tkinter.Frame&#45;&gt;paramtk.ListWidget</title>
<path fill="none" stroke="black" stroke-width="0.5" d="M757.64,-229.572C768.936,-226.729 781.092,-223.192 792,-219 808.888,-212.511 811.112,-206.489 828,-200 835.372,-197.167 843.314,-194.633 851.175,-192.411"/>
<polygon fill="black" stroke="black" points="851.698,-194.082 856.054,-191.067 850.769,-190.707 851.698,-194.082"/>
</g>
<!-- paramtk.HackFileEntry -->
<g id="node49" class="node"><title>paramtk.HackFileEntry</title>
<polygon fill="none" stroke="black" stroke-width="0.5" points="965,-153.5 841,-153.5 841,-132.5 965,-132.5 965,-153.5"/>
<text text-anchor="middle" x="903" y="-140.5" font-family="Vera" font-size="10.00">paramtk.HackFileEntry</text>
</g>
<!-- Tkinter.Frame&#45;&gt;paramtk.HackFileEntry -->
<g id="edge40" class="edge"><title>Tkinter.Frame&#45;&gt;paramtk.HackFileEntry</title>
<path fill="none" stroke="black" stroke-width="0.5" d="M757.59,-233.534C769.5,-230.754 781.999,-226.258 792,-219 816.25,-201.401 803.75,-179.599 828,-162 831.672,-159.335 835.681,-157.042 839.875,-155.07"/>
<polygon fill="black" stroke="black" points="840.608,-156.659 844.489,-153.054 839.207,-153.452 840.608,-156.659"/>
</g>
<!-- paramtk.ParametersFrame -->
<g id="node55" class="node"><title>paramtk.ParametersFrame</title>
<polygon fill="none" stroke="black" stroke-width="0.5" points="976,-77.5 830,-77.5 830,-56.5 976,-56.5 976,-77.5"/>
<text text-anchor="middle" x="903" y="-64.5" font-family="Vera" font-size="10.00">paramtk.ParametersFrame</text>
</g>
<!-- Tkinter.Frame&#45;&gt;paramtk.ParametersFrame -->
<g id="edge84" class="edge"><title>Tkinter.Frame&#45;&gt;paramtk.ParametersFrame</title>
<path fill="none" stroke="black" stroke-width="0.5" d="M757.888,-235.527C770.231,-232.873 782.904,-227.95 792,-219 835.652,-176.051 784.348,-128.949 828,-86 830.388,-83.6507 833.022,-81.5789 835.832,-79.7527"/>
<polygon fill="black" stroke="black" points="836.957,-81.1215 840.382,-77.0805 835.184,-78.1035 836.957,-81.1215"/>
</g>
<!-- paramtk.TaggedSlider -->
<g id="node68" class="node"><title>paramtk.TaggedSlider</title>
<polygon fill="none" stroke="black" stroke-width="0.5" points="963,-115.5 843,-115.5 843,-94.5 963,-94.5 963,-115.5"/>
<text text-anchor="middle" x="903" y="-102.5" font-family="Vera" font-size="10.00">paramtk.TaggedSlider</text>
</g>
<!-- Tkinter.Frame&#45;&gt;paramtk.TaggedSlider -->
<g id="edge56" class="edge"><title>Tkinter.Frame&#45;&gt;paramtk.TaggedSlider</title>
<path fill="none" stroke="black" stroke-width="0.5" d="M757.77,-234.901C769.962,-232.199 782.577,-227.404 792,-219 825.696,-188.945 794.304,-154.055 828,-124 830.894,-121.418 834.09,-119.177 837.482,-117.233"/>
<polygon fill="black" stroke="black" points="838.596,-118.626 842.22,-114.761 836.977,-115.523 838.596,-118.626"/>
</g>
<!-- paramtk.ListRepresenter -->
<g id="node9" class="node"><title>paramtk.ListRepresenter</title>
<polygon fill="none" stroke="black" stroke-width="0.5" points="784,-134.5 650,-134.5 650,-113.5 784,-113.5 784,-134.5"/>
<text text-anchor="middle" x="717" y="-121.5" font-family="Vera" font-size="10.00">paramtk.ListRepresenter</text>
</g>
<!-- paramtk.Representer -->
<g id="node10" class="node"><title>paramtk.Representer</title>
<polygon fill="none" stroke="black" stroke-width="0.5" points="583,-134.5 465,-134.5 465,-113.5 583,-113.5 583,-134.5"/>
<text text-anchor="middle" x="524" y="-121.5" font-family="Vera" font-size="10.00">paramtk.Representer</text>
</g>
<!-- paramtk.Representer&#45;&gt;paramtk.ListRepresenter -->
<g id="edge6" class="edge"><title>paramtk.Representer&#45;&gt;paramtk.ListRepresenter</title>
<path fill="none" stroke="black" stroke-width="0.5" d="M583.218,-124C602.627,-124 624.413,-124 644.678,-124"/>
<polygon fill="black" stroke="black" points="644.795,-125.75 649.795,-124 644.795,-122.25 644.795,-125.75"/>
</g>
<!-- paramtk.CSPTranslator -->
<g id="node12" class="node"><title>paramtk.CSPTranslator</title>
<polygon fill="none" stroke="black" stroke-width="0.5" points="587,-495.5 461,-495.5 461,-474.5 587,-474.5 587,-495.5"/>
<text text-anchor="middle" x="524" y="-482.5" font-family="Vera" font-size="10.00">paramtk.CSPTranslator</text>
</g>
<!-- paramtk.String_ObjectTranslator&#45;&gt;paramtk.CSPTranslator -->
<g id="edge8" class="edge"><title>paramtk.String_ObjectTranslator&#45;&gt;paramtk.CSPTranslator</title>
<path fill="none" stroke="black" stroke-width="0.5" d="M394.591,-485C414.822,-485 436.133,-485 455.493,-485"/>
<polygon fill="black" stroke="black" points="455.899,-486.75 460.899,-485 455.899,-483.25 455.899,-486.75"/>
</g>
<!-- paramtk.ScrolledWindow -->
<g id="node16" class="node"><title>paramtk.ScrolledWindow</title>
<polygon fill="none" stroke="black" stroke-width="0.5" points="784,-20.5 650,-20.5 650,0.5 784,0.5 784,-20.5"/>
<text text-anchor="middle" x="717" y="-7.5" font-family="Vera" font-size="10.00">paramtk.ScrolledWindow</text>
</g>
<!-- paramtk.AppWindow -->
<g id="node38" class="node"><title>paramtk.AppWindow</title>
<polygon fill="none" stroke="black" stroke-width="0.5" points="960,-20.5 846,-20.5 846,0.5 960,0.5 960,-20.5"/>
<text text-anchor="middle" x="903" y="-7.5" font-family="Vera" font-size="10.00">paramtk.AppWindow</text>
</g>
<!-- paramtk.ScrolledWindow&#45;&gt;paramtk.AppWindow -->
<g id="edge32" class="edge"><title>paramtk.ScrolledWindow&#45;&gt;paramtk.AppWindow</title>
<path fill="none" stroke="black" stroke-width="0.5" d="M784.15,-10C802.603,-10 822.53,-10 840.697,-10"/>
<polygon fill="black" stroke="black" points="840.771,-11.7501 845.771,-10 840.771,-8.2501 840.771,-11.7501"/>
</g>
<!-- Tkinter.Toplevel -->
<g id="node17" class="node"><title>Tkinter.Toplevel</title>
<polygon fill="none" stroke="black" stroke-width="0.5" points="568,-58.5 480,-58.5 480,-37.5 568,-37.5 568,-58.5"/>
<text text-anchor="middle" x="524" y="-45.5" font-family="Vera" font-size="10.00">Tkinter.Toplevel</text>
</g>
<!-- Tkinter.Toplevel&#45;&gt;paramtk.ScrolledWindow -->
<g id="edge12" class="edge"><title>Tkinter.Toplevel&#45;&gt;paramtk.ScrolledWindow</title>
<path fill="none" stroke="black" stroke-width="0.5" d="M568.763,-39.1865C596.238,-33.7771 631.656,-26.8035 660.982,-21.0295"/>
<polygon fill="black" stroke="black" points="661.44,-22.723 666.007,-20.04 660.764,-19.2889 661.44,-22.723"/>
</g>
<!-- paramtk.ToolTip -->
<g id="node83" class="node"><title>paramtk.ToolTip</title>
<polygon fill="none" stroke="black" stroke-width="0.5" points="763,-58.5 671,-58.5 671,-37.5 763,-37.5 763,-58.5"/>
<text text-anchor="middle" x="717" y="-45.5" font-family="Vera" font-size="10.00">paramtk.ToolTip</text>
</g>
<!-- Tkinter.Toplevel&#45;&gt;paramtk.ToolTip -->
<g id="edge78" class="edge"><title>Tkinter.Toplevel&#45;&gt;paramtk.ToolTip</title>
<path fill="none" stroke="black" stroke-width="0.5" d="M568.763,-48C597.711,-48 635.478,-48 665.646,-48"/>
<polygon fill="black" stroke="black" points="665.802,-49.7501 670.802,-48 665.802,-46.2501 665.802,-49.7501"/>
</g>
<!-- paramtk.Balloon -->
<g id="node19" class="node"><title>paramtk.Balloon</title>
<polygon fill="none" stroke="black" stroke-width="0.5" points="764,-438.5 670,-438.5 670,-417.5 764,-417.5 764,-438.5"/>
<text text-anchor="middle" x="717" y="-425.5" font-family="Vera" font-size="10.00">paramtk.Balloon</text>
</g>
<!-- Tkinter.Widget -->
<g id="node20" class="node"><title>Tkinter.Widget</title>
<polygon fill="none" stroke="black" stroke-width="0.5" points="565,-305.5 483,-305.5 483,-284.5 565,-284.5 565,-305.5"/>
<text text-anchor="middle" x="524" y="-292.5" font-family="Vera" font-size="10.00">Tkinter.Widget</text>
</g>
<!-- Tkinter.Widget&#45;&gt;Tkinter.Button -->
<g id="edge80" class="edge"><title>Tkinter.Widget&#45;&gt;Tkinter.Button</title>
<path fill="none" stroke="black" stroke-width="0.5" d="M553.422,-305.048C577.199,-313.029 611.593,-324.262 642,-333 651.125,-335.622 660.928,-338.245 670.339,-340.668"/>
<polygon fill="black" stroke="black" points="669.942,-342.372 675.219,-341.915 670.809,-338.981 669.942,-342.372"/>
</g>
<!-- Tkinter.Widget&#45;&gt;Tkinter.Frame -->
<g id="edge18" class="edge"><title>Tkinter.Widget&#45;&gt;Tkinter.Frame</title>
<path fill="none" stroke="black" stroke-width="0.5" d="M558.06,-284.941C591.582,-275.041 642.72,-259.938 677.887,-249.551"/>
<polygon fill="black" stroke="black" points="678.657,-251.149 682.956,-248.054 677.665,-247.792 678.657,-251.149"/>
</g>
<!-- Tkinter.Widget&#45;&gt;paramtk.Balloon -->
<g id="edge14" class="edge"><title>Tkinter.Widget&#45;&gt;paramtk.Balloon</title>
<path fill="none" stroke="black" stroke-width="0.5" d="M531.579,-305.336C548.644,-327.832 592.477,-381.42 642,-409 648.9,-412.843 656.587,-415.922 664.335,-418.387"/>
<polygon fill="black" stroke="black" points="663.868,-420.074 669.16,-419.843 664.879,-416.723 663.868,-420.074"/>
</g>
<!-- Tkinter.Widget&#45;&gt;paramtk.Scrodget -->
<g id="edge24" class="edge"><title>Tkinter.Widget&#45;&gt;paramtk.Scrodget</title>
<path fill="none" stroke="black" stroke-width="0.5" d="M536.655,-284.853C557.445,-268.66 600.659,-236.976 642,-219 648.606,-216.128 655.735,-213.625 662.878,-211.463"/>
<polygon fill="black" stroke="black" points="663.51,-213.102 667.82,-210.021 662.53,-209.742 663.51,-213.102"/>
</g>
<!-- Tkinter.Menu -->
<g id="node47" class="node"><title>Tkinter.Menu</title>
<polygon fill="none" stroke="black" stroke-width="0.5" points="755,-400.5 679,-400.5 679,-379.5 755,-379.5 755,-400.5"/>
<text text-anchor="middle" x="717" y="-387.5" font-family="Vera" font-size="10.00">Tkinter.Menu</text>
</g>
<!-- Tkinter.Widget&#45;&gt;Tkinter.Menu -->
<g id="edge62" class="edge"><title>Tkinter.Widget&#45;&gt;Tkinter.Menu</title>
<path fill="none" stroke="black" stroke-width="0.5" d="M536.655,-305.147C557.445,-321.34 600.659,-353.024 642,-371 651.845,-375.281 662.853,-378.74 673.338,-381.475"/>
<polygon fill="black" stroke="black" points="673.159,-383.234 678.435,-382.759 674.014,-379.84 673.159,-383.234"/>
</g>
<!-- paramtk.EditingParametersFrameWithApply -->
<g id="node22" class="node"><title>paramtk.EditingParametersFrameWithApply</title>
<polygon fill="none" stroke="black" stroke-width="0.5" points="1466,-77.5 1242,-77.5 1242,-56.5 1466,-56.5 1466,-77.5"/>
<text text-anchor="middle" x="1354" y="-64.5" font-family="Vera" font-size="10.00">paramtk.EditingParametersFrameWithApply</text>
</g>
<!-- paramtk.ParametersFrameWithApply -->
<g id="node23" class="node"><title>paramtk.ParametersFrameWithApply</title>
<polygon fill="none" stroke="black" stroke-width="0.5" points="1206,-77.5 1014,-77.5 1014,-56.5 1206,-56.5 1206,-77.5"/>
<text text-anchor="middle" x="1110" y="-64.5" font-family="Vera" font-size="10.00">paramtk.ParametersFrameWithApply</text>
</g>
<!-- paramtk.ParametersFrameWithApply&#45;&gt;paramtk.EditingParametersFrameWithApply -->
<g id="edge16" class="edge"><title>paramtk.ParametersFrameWithApply&#45;&gt;paramtk.EditingParametersFrameWithApply</title>
<path fill="none" stroke="black" stroke-width="0.5" d="M1206.09,-67C1216.17,-67 1226.5,-67 1236.79,-67"/>
<polygon fill="black" stroke="black" points="1236.84,-68.7501 1241.84,-67 1236.84,-65.2501 1236.84,-68.7501"/>
</g>
<!-- param.parameterized.Parameterized -->
<g id="node28" class="node"><title>param.parameterized.Parameterized</title>
<polygon fill="none" stroke="black" stroke-width="0.5" points="406,-134.5 212,-134.5 212,-113.5 406,-113.5 406,-134.5"/>
<text text-anchor="middle" x="309" y="-121.5" font-family="Vera" font-size="10.00">param.parameterized.Parameterized</text>
</g>
<!-- param.parameterized.Parameterized&#45;&gt;paramtk.Representer -->
<g id="edge54" class="edge"><title>param.parameterized.Parameterized&#45;&gt;paramtk.Representer</title>
<path fill="none" stroke="black" stroke-width="0.5" d="M406.121,-124C424.274,-124 442.826,-124 459.679,-124"/>
<polygon fill="black" stroke="black" points="459.853,-125.75 464.853,-124 459.852,-122.25 459.853,-125.75"/>
</g>
<!-- paramtk.TkParameterizedBase -->
<g id="node59" class="node"><title>paramtk.TkParameterizedBase</title>
<polygon fill="none" stroke="black" stroke-width="0.5" points="606,-96.5 442,-96.5 442,-75.5 606,-75.5 606,-96.5"/>
<text text-anchor="middle" x="524" y="-83.5" font-family="Vera" font-size="10.00">paramtk.TkParameterizedBase</text>
</g>
<!-- param.parameterized.Parameterized&#45;&gt;paramtk.TkParameterizedBase -->
<g id="edge48" class="edge"><title>param.parameterized.Parameterized&#45;&gt;paramtk.TkParameterizedBase</title>
<path fill="none" stroke="black" stroke-width="0.5" d="M365.77,-113.966C395.407,-108.728 431.719,-102.31 462.078,-96.9443"/>
<polygon fill="black" stroke="black" points="462.666,-98.6176 467.285,-96.024 462.057,-95.1711 462.666,-98.6176"/>
</g>
<!-- paramtk.ProgressController -->
<g id="node35" class="node"><title>paramtk.ProgressController</title>
<polygon fill="none" stroke="black" stroke-width="0.5" points="791,-324.5 643,-324.5 643,-303.5 791,-303.5 791,-324.5"/>
<text text-anchor="middle" x="717" y="-311.5" font-family="Vera" font-size="10.00">paramtk.ProgressController</text>
</g>
<!-- paramtk.ProgressController&#45;&gt;paramtk.ProgressWindow -->
<g id="edge28" class="edge"><title>paramtk.ProgressController&#45;&gt;paramtk.ProgressWindow</title>
<path fill="none" stroke="black" stroke-width="0.5" d="M791.582,-321.619C803.962,-322.883 816.797,-324.194 829.159,-325.457"/>
<polygon fill="black" stroke="black" points="829.274,-327.228 834.426,-325.995 829.629,-323.746 829.274,-327.228"/>
</g>
<!-- param.parameterized.Parameter -->
<g id="node40" class="node"><title>param.parameterized.Parameter</title>
<polygon fill="none" stroke="black" stroke-width="0.5" points="175,-533.5 1,-533.5 1,-512.5 175,-512.5 175,-533.5"/>
<text text-anchor="middle" x="88" y="-520.5" font-family="Vera" font-size="10.00">param.parameterized.Parameter</text>
</g>
<!-- param.Callable -->
<g id="node63" class="node"><title>param.Callable</title>
<polygon fill="none" stroke="black" stroke-width="0.5" points="353,-533.5 265,-533.5 265,-512.5 353,-512.5 353,-533.5"/>
<text text-anchor="middle" x="309" y="-520.5" font-family="Vera" font-size="10.00">param.Callable</text>
</g>
<!-- param.parameterized.Parameter&#45;&gt;param.Callable -->
<g id="edge52" class="edge"><title>param.parameterized.Parameter&#45;&gt;param.Callable</title>
<path fill="none" stroke="black" stroke-width="0.5" d="M175.662,-523C204.015,-523 234.464,-523 259.097,-523"/>
<polygon fill="black" stroke="black" points="259.263,-524.75 264.263,-523 259.263,-521.25 259.263,-524.75"/>
</g>
<!-- Tkinter.Misc -->
<g id="node41" class="node"><title>Tkinter.Misc</title>
<polygon fill="none" stroke="black" stroke-width="0.5" points="124,-96.5 52,-96.5 52,-75.5 124,-75.5 124,-96.5"/>
<text text-anchor="middle" x="88" y="-83.5" font-family="Vera" font-size="10.00">Tkinter.Misc</text>
</g>
<!-- Tkinter.BaseWidget -->
<g id="node72" class="node"><title>Tkinter.BaseWidget</title>
<polygon fill="none" stroke="black" stroke-width="0.5" points="362,-96.5 256,-96.5 256,-75.5 362,-75.5 362,-96.5"/>
<text text-anchor="middle" x="309" y="-83.5" font-family="Vera" font-size="10.00">Tkinter.BaseWidget</text>
</g>
<!-- Tkinter.Misc&#45;&gt;Tkinter.BaseWidget -->
<g id="edge60" class="edge"><title>Tkinter.Misc&#45;&gt;Tkinter.BaseWidget</title>
<path fill="none" stroke="black" stroke-width="0.5" d="M124.494,-86C158.637,-86 210.226,-86 250.18,-86"/>
<polygon fill="black" stroke="black" points="250.489,-87.7501 255.489,-86 250.489,-84.2501 250.489,-87.7501"/>
</g>
<!-- paramtk.Menu -->
<g id="node46" class="node"><title>paramtk.Menu</title>
<polygon fill="none" stroke="black" stroke-width="0.5" points="946,-419.5 860,-419.5 860,-398.5 946,-398.5 946,-419.5"/>
<text text-anchor="middle" x="903" y="-406.5" font-family="Vera" font-size="10.00">paramtk.Menu</text>
</g>
<!-- Tkinter.Menu&#45;&gt;paramtk.Menu -->
<g id="edge38" class="edge"><title>Tkinter.Menu&#45;&gt;paramtk.Menu</title>
<path fill="none" stroke="black" stroke-width="0.5" d="M755.539,-393.937C784.308,-396.876 823.811,-400.911 854.69,-404.065"/>
<polygon fill="black" stroke="black" points="854.807,-405.836 859.959,-404.603 855.163,-402.354 854.807,-405.836"/>
</g>
<!-- Tkinter.Wm -->
<g id="node51" class="node"><title>Tkinter.Wm</title>
<polygon fill="none" stroke="black" stroke-width="0.5" points="343,-58.5 275,-58.5 275,-37.5 343,-37.5 343,-58.5"/>
<text text-anchor="middle" x="309" y="-45.5" font-family="Vera" font-size="10.00">Tkinter.Wm</text>
</g>
<!-- Tkinter.Wm&#45;&gt;Tkinter.Toplevel -->
<g id="edge76" class="edge"><title>Tkinter.Wm&#45;&gt;Tkinter.Toplevel</title>
<path fill="none" stroke="black" stroke-width="0.5" d="M343.543,-48C378.874,-48 434.11,-48 474.169,-48"/>
<polygon fill="black" stroke="black" points="474.47,-49.7501 479.47,-48 474.47,-46.2501 474.47,-49.7501"/>
</g>
<!-- paramtk.BoolTranslator -->
<g id="node52" class="node"><title>paramtk.BoolTranslator</title>
<polygon fill="none" stroke="black" stroke-width="0.5" points="588,-419.5 460,-419.5 460,-398.5 588,-398.5 588,-419.5"/>
<text text-anchor="middle" x="524" y="-406.5" font-family="Vera" font-size="10.00">paramtk.BoolTranslator</text>
</g>
<!-- paramtk.DoNothingTranslator&#45;&gt;paramtk.BoolTranslator -->
<g id="edge42" class="edge"><title>paramtk.DoNothingTranslator&#45;&gt;paramtk.BoolTranslator</title>
<path fill="none" stroke="black" stroke-width="0.5" d="M388.142,-409C409.979,-409 433.497,-409 454.728,-409"/>
<polygon fill="black" stroke="black" points="454.788,-410.75 459.788,-409 454.788,-407.25 454.788,-410.75"/>
</g>
<!-- paramtk.ParametersFrame&#45;&gt;paramtk.ParametersFrameWithApply -->
<g id="edge44" class="edge"><title>paramtk.ParametersFrame&#45;&gt;paramtk.ParametersFrameWithApply</title>
<path fill="none" stroke="black" stroke-width="0.5" d="M976.272,-67C986.862,-67 997.915,-67 1008.93,-67"/>
<polygon fill="black" stroke="black" points="1008.99,-68.7501 1013.99,-67 1008.99,-65.2501 1008.99,-68.7501"/>
</g>
<!-- paramtk.TkParameterized -->
<g id="node61" class="node"><title>paramtk.TkParameterized</title>
<polygon fill="none" stroke="black" stroke-width="0.5" points="787,-96.5 647,-96.5 647,-75.5 787,-75.5 787,-96.5"/>
<text text-anchor="middle" x="717" y="-83.5" font-family="Vera" font-size="10.00">paramtk.TkParameterized</text>
</g>
<!-- paramtk.TkParameterizedBase&#45;&gt;paramtk.TkParameterized -->
<g id="edge50" class="edge"><title>paramtk.TkParameterizedBase&#45;&gt;paramtk.TkParameterized</title>
<path fill="none" stroke="black" stroke-width="0.5" d="M606.129,-86C617.873,-86 629.908,-86 641.516,-86"/>
<polygon fill="black" stroke="black" points="641.817,-87.7501 646.817,-86 641.817,-84.2501 641.817,-87.7501"/>
</g>
<!-- paramtk.TkParameterized&#45;&gt;paramtk.ParametersFrame -->
<g id="edge82" class="edge"><title>paramtk.TkParameterized&#45;&gt;paramtk.ParametersFrame</title>
<path fill="none" stroke="black" stroke-width="0.5" d="M787.054,-78.844C799.418,-77.581 812.359,-76.2591 824.926,-74.9753"/>
<polygon fill="black" stroke="black" points="825.113,-76.7154 829.909,-74.4663 824.757,-73.2335 825.113,-76.7154"/>
</g>
<!-- paramtk.Button -->
<g id="node79" class="node"><title>paramtk.Button</title>
<polygon fill="none" stroke="black" stroke-width="0.5" points="570,-533.5 478,-533.5 478,-512.5 570,-512.5 570,-533.5"/>
<text text-anchor="middle" x="524" y="-520.5" font-family="Vera" font-size="10.00">paramtk.Button</text>
</g>
<!-- param.Callable&#45;&gt;paramtk.Button -->
<g id="edge72" class="edge"><title>param.Callable&#45;&gt;paramtk.Button</title>
<path fill="none" stroke="black" stroke-width="0.5" d="M353.548,-523C388.132,-523 436.136,-523 472.391,-523"/>
<polygon fill="black" stroke="black" points="472.652,-524.75 477.652,-523 472.652,-521.25 472.652,-524.75"/>
</g>
<!-- Tkinter.Pack -->
<g id="node65" class="node"><title>Tkinter.Pack</title>
<polygon fill="none" stroke="black" stroke-width="0.5" points="345,-343.5 273,-343.5 273,-322.5 345,-322.5 345,-343.5"/>
<text text-anchor="middle" x="309" y="-330.5" font-family="Vera" font-size="10.00">Tkinter.Pack</text>
</g>
<!-- Tkinter.Pack&#45;&gt;Tkinter.Widget -->
<g id="edge66" class="edge"><title>Tkinter.Pack&#45;&gt;Tkinter.Widget</title>
<path fill="none" stroke="black" stroke-width="0.5" d="M345.96,-326.468C382.269,-320.05 437.801,-310.235 477.179,-303.275"/>
<polygon fill="black" stroke="black" points="477.764,-304.949 482.383,-302.356 477.154,-301.503 477.764,-304.949"/>
</g>
<!-- Tkinter.Place -->
<g id="node67" class="node"><title>Tkinter.Place</title>
<polygon fill="none" stroke="black" stroke-width="0.5" points="347,-305.5 271,-305.5 271,-284.5 347,-284.5 347,-305.5"/>
<text text-anchor="middle" x="309" y="-292.5" font-family="Vera" font-size="10.00">Tkinter.Place</text>
</g>
<!-- Tkinter.Place&#45;&gt;Tkinter.Widget -->
<g id="edge68" class="edge"><title>Tkinter.Place&#45;&gt;Tkinter.Widget</title>
<path fill="none" stroke="black" stroke-width="0.5" d="M347.935,-295C384.299,-295 438.629,-295 477.308,-295"/>
<polygon fill="black" stroke="black" points="477.42,-296.75 482.42,-295 477.42,-293.25 477.42,-296.75"/>
</g>
<!-- Tkinter.Grid -->
<g id="node71" class="node"><title>Tkinter.Grid</title>
<polygon fill="none" stroke="black" stroke-width="0.5" points="344,-267.5 274,-267.5 274,-246.5 344,-246.5 344,-267.5"/>
<text text-anchor="middle" x="309" y="-254.5" font-family="Vera" font-size="10.00">Tkinter.Grid</text>
</g>
<!-- Tkinter.Grid&#45;&gt;Tkinter.Widget -->
<g id="edge70" class="edge"><title>Tkinter.Grid&#45;&gt;Tkinter.Widget</title>
<path fill="none" stroke="black" stroke-width="0.5" d="M344.503,-263.275C380.687,-269.67 437.012,-279.625 476.905,-286.676"/>
<polygon fill="black" stroke="black" points="476.947,-288.461 482.175,-287.608 477.556,-285.014 476.947,-288.461"/>
</g>
<!-- Tkinter.BaseWidget&#45;&gt;Tkinter.Toplevel -->
<g id="edge74" class="edge"><title>Tkinter.BaseWidget&#45;&gt;Tkinter.Toplevel</title>
<path fill="none" stroke="black" stroke-width="0.5" d="M362.699,-76.509C396.819,-70.4785 440.681,-62.7261 474.052,-56.8281"/>
<polygon fill="black" stroke="black" points="474.695,-58.4916 479.314,-55.898 474.086,-55.045 474.695,-58.4916"/>
</g>
<!-- Tkinter.BaseWidget&#45;&gt;Tkinter.Widget -->
<g id="edge64" class="edge"><title>Tkinter.BaseWidget&#45;&gt;Tkinter.Widget</title>
<path fill="none" stroke="black" stroke-width="0.5" d="M362.674,-86.4094C378.216,-89.0107 394.163,-94.4244 406,-105 445.623,-140.4 413.569,-174.114 442,-219 458.469,-245.001 485.995,-267.949 504.563,-281.651"/>
<polygon fill="black" stroke="black" points="504.004,-283.409 509.078,-284.932 506.062,-280.577 504.004,-283.409"/>
</g>
</g>
</svg>
