<?xml version="1.0" encoding="UTF-8" standalone="no"?>
<!DOCTYPE svg PUBLIC "-//W3C//DTD SVG 1.1//EN"
 "http://www.w3.org/Graphics/SVG/1.1/DTD/svg11.dtd">
<!-- Generated by graphviz version 2.26.3 (20100126.1600)
 -->
<!-- Title: inheritance489beebb75 Pages: 1 -->
<svg width="796pt" height="560pt"
 viewBox="0.00 0.00 796.00 560.00" xmlns="http://www.w3.org/2000/svg" xmlns:xlink="http://www.w3.org/1999/xlink">
<g id="graph1" class="graph" transform="scale(1 1) rotate(0) translate(4 556)">
<title>inheritance489beebb75</title>
<polygon fill="white" stroke="white" points="-4,5 -4,-556 793,-556 793,5 -4,5"/>
<!-- paramtk.tilewrapper.Frame -->
<g id="node1" class="node"><title>paramtk.tilewrapper.Frame</title>
<polygon fill="none" stroke="black" stroke-width="0.5" points="772,-438.5 628,-438.5 628,-417.5 772,-417.5 772,-438.5"/>
<text text-anchor="middle" x="700" y="-425.5" font-family="Vera" font-size="10.00">paramtk.tilewrapper.Frame</text>
</g>
<!-- paramtk.tilewrapper.Widget -->
<g id="node2" class="node"><title>paramtk.tilewrapper.Widget</title>
<polygon fill="none" stroke="black" stroke-width="0.5" points="575,-262.5 429,-262.5 429,-241.5 575,-241.5 575,-262.5"/>
<text text-anchor="middle" x="502" y="-249.5" font-family="Vera" font-size="10.00">paramtk.tilewrapper.Widget</text>
</g>
<!-- paramtk.tilewrapper.Widget&#45;&gt;paramtk.tilewrapper.Frame -->
<g id="edge2" class="edge"><title>paramtk.tilewrapper.Widget&#45;&gt;paramtk.tilewrapper.Frame</title>
<path fill="none" stroke="black" stroke-width="0.5" d="M539.502,-262.108C552.643,-267.323 566.481,-274.979 576,-286 613.233,-329.106 570.298,-370.201 612,-409 615.208,-411.984 618.768,-414.543 622.565,-416.733"/>
<polygon fill="black" stroke="black" points="621.886,-418.353 627.125,-419.139 623.519,-415.258 621.886,-418.353"/>
</g>
<!-- paramtk.tilewrapper.Checkbutton -->
<g id="node6" class="node"><title>paramtk.tilewrapper.Checkbutton</title>
<polygon fill="none" stroke="black" stroke-width="0.5" points="788,-400.5 612,-400.5 612,-379.5 788,-379.5 788,-400.5"/>
<text text-anchor="middle" x="700" y="-387.5" font-family="Vera" font-size="10.00">paramtk.tilewrapper.Checkbutton</text>
</g>
<!-- paramtk.tilewrapper.Widget&#45;&gt;paramtk.tilewrapper.Checkbutton -->
<g id="edge6" class="edge"><title>paramtk.tilewrapper.Widget&#45;&gt;paramtk.tilewrapper.Checkbutton</title>
<path fill="none" stroke="black" stroke-width="0.5" d="M537.317,-262.113C550.809,-267.422 565.465,-275.143 576,-286 604.571,-315.443 580.395,-344.841 612,-371 614.98,-373.467 618.206,-375.634 621.603,-377.537"/>
<polygon fill="black" stroke="black" points="621.088,-379.239 626.335,-379.97 622.689,-376.127 621.088,-379.239"/>
</g>
<!-- paramtk.tilewrapper.Combobox -->
<g id="node10" class="node"><title>paramtk.tilewrapper.Combobox</title>
<polygon fill="none" stroke="black" stroke-width="0.5" points="783,-552.5 617,-552.5 617,-531.5 783,-531.5 783,-552.5"/>
<text text-anchor="middle" x="700" y="-539.5" font-family="Vera" font-size="10.00">paramtk.tilewrapper.Combobox</text>
</g>
<!-- paramtk.tilewrapper.Widget&#45;&gt;paramtk.tilewrapper.Combobox -->
<g id="edge10" class="edge"><title>paramtk.tilewrapper.Widget&#45;&gt;paramtk.tilewrapper.Combobox</title>
<path fill="none" stroke="black" stroke-width="0.5" d="M541.859,-262.062C554.606,-267.201 567.58,-274.819 576,-286 640.089,-371.11 539.031,-445.369 612,-523 614.074,-525.207 616.338,-527.188 618.752,-528.966"/>
<polygon fill="black" stroke="black" points="618.115,-530.643 623.249,-531.95 620.051,-527.727 618.115,-530.643"/>
</g>
<!-- paramtk.tilewrapper.Entry -->
<g id="node15" class="node"><title>paramtk.tilewrapper.Entry</title>
<polygon fill="none" stroke="black" stroke-width="0.5" points="770,-514.5 630,-514.5 630,-493.5 770,-493.5 770,-514.5"/>
<text text-anchor="middle" x="700" y="-501.5" font-family="Vera" font-size="10.00">paramtk.tilewrapper.Entry</text>
</g>
<!-- paramtk.tilewrapper.Widget&#45;&gt;paramtk.tilewrapper.Entry -->
<g id="edge14" class="edge"><title>paramtk.tilewrapper.Widget&#45;&gt;paramtk.tilewrapper.Entry</title>
<path fill="none" stroke="black" stroke-width="0.5" d="M541.296,-262.042C554.15,-267.195 567.337,-274.827 576,-286 631.074,-357.03 549.524,-420.384 612,-485 615.826,-488.957 620.265,-492.185 625.076,-494.81"/>
<polygon fill="black" stroke="black" points="624.335,-496.396 629.592,-497.054 625.893,-493.262 624.335,-496.396"/>
</g>
<!-- paramtk.tilewrapper.Notebook -->
<g id="node18" class="node"><title>paramtk.tilewrapper.Notebook</title>
<polygon fill="none" stroke="black" stroke-width="0.5" points="780,-362.5 620,-362.5 620,-341.5 780,-341.5 780,-362.5"/>
<text text-anchor="middle" x="700" y="-349.5" font-family="Vera" font-size="10.00">paramtk.tilewrapper.Notebook</text>
</g>
<!-- paramtk.tilewrapper.Widget&#45;&gt;paramtk.tilewrapper.Notebook -->
<g id="edge18" class="edge"><title>paramtk.tilewrapper.Widget&#45;&gt;paramtk.tilewrapper.Notebook</title>
<path fill="none" stroke="black" stroke-width="0.5" d="M532.326,-262.056C546.507,-267.688 563.075,-275.677 576,-286 596.56,-302.421 589.775,-318.914 612,-333 616.258,-335.698 620.839,-338.018 625.595,-340.013"/>
<polygon fill="black" stroke="black" points="625.11,-341.702 630.404,-341.9 626.389,-338.444 625.11,-341.702"/>
</g>
<!-- paramtk.tilewrapper.Label -->
<g id="node20" class="node"><title>paramtk.tilewrapper.Label</title>
<polygon fill="none" stroke="black" stroke-width="0.5" points="770,-210.5 630,-210.5 630,-189.5 770,-189.5 770,-210.5"/>
<text text-anchor="middle" x="700" y="-197.5" font-family="Vera" font-size="10.00">paramtk.tilewrapper.Label</text>
</g>
<!-- paramtk.tilewrapper.Widget&#45;&gt;paramtk.tilewrapper.Label -->
<g id="edge20" class="edge"><title>paramtk.tilewrapper.Widget&#45;&gt;paramtk.tilewrapper.Label</title>
<path fill="none" stroke="black" stroke-width="0.5" d="M533.11,-241.953C555.038,-235.047 585.162,-225.912 612,-219 622.632,-216.262 634.054,-213.596 645.033,-211.169"/>
<polygon fill="black" stroke="black" points="645.533,-212.851 650.042,-210.071 644.784,-209.432 645.533,-212.851"/>
</g>
<!-- paramtk.tilewrapper.Menubutton -->
<g id="node33" class="node"><title>paramtk.tilewrapper.Menubutton</title>
<polygon fill="none" stroke="black" stroke-width="0.5" points="786,-134.5 614,-134.5 614,-113.5 786,-113.5 786,-134.5"/>
<text text-anchor="middle" x="700" y="-121.5" font-family="Vera" font-size="10.00">paramtk.tilewrapper.Menubutton</text>
</g>
<!-- paramtk.tilewrapper.Widget&#45;&gt;paramtk.tilewrapper.Menubutton -->
<g id="edge32" class="edge"><title>paramtk.tilewrapper.Widget&#45;&gt;paramtk.tilewrapper.Menubutton</title>
<path fill="none" stroke="black" stroke-width="0.5" d="M537.84,-241.876C551.09,-236.73 565.437,-229.324 576,-219 602.729,-192.876 582.717,-166.225 612,-143 615.115,-140.529 618.48,-138.362 622.014,-136.462"/>
<polygon fill="black" stroke="black" points="623.223,-137.817 626.931,-134.034 621.673,-134.679 623.223,-137.817"/>
</g>
<!-- paramtk.tilewrapper.Paned -->
<g id="node41" class="node"><title>paramtk.tilewrapper.Paned</title>
<polygon fill="none" stroke="black" stroke-width="0.5" points="772,-324.5 628,-324.5 628,-303.5 772,-303.5 772,-324.5"/>
<text text-anchor="middle" x="700" y="-311.5" font-family="Vera" font-size="10.00">paramtk.tilewrapper.Paned</text>
</g>
<!-- paramtk.tilewrapper.Widget&#45;&gt;paramtk.tilewrapper.Paned -->
<g id="edge42" class="edge"><title>paramtk.tilewrapper.Widget&#45;&gt;paramtk.tilewrapper.Paned</title>
<path fill="none" stroke="black" stroke-width="0.5" d="M524.799,-262.152C546.788,-271.644 581.177,-285.713 612,-295 621.517,-297.867 631.736,-300.483 641.721,-302.794"/>
<polygon fill="black" stroke="black" points="641.336,-304.501 646.6,-303.904 642.113,-301.089 641.336,-304.501"/>
</g>
<!-- paramtk.tilewrapper.Progressbar -->
<g id="node43" class="node"><title>paramtk.tilewrapper.Progressbar</title>
<polygon fill="none" stroke="black" stroke-width="0.5" points="786,-286.5 614,-286.5 614,-265.5 786,-265.5 786,-286.5"/>
<text text-anchor="middle" x="700" y="-273.5" font-family="Vera" font-size="10.00">paramtk.tilewrapper.Progressbar</text>
</g>
<!-- paramtk.tilewrapper.Widget&#45;&gt;paramtk.tilewrapper.Progressbar -->
<g id="edge44" class="edge"><title>paramtk.tilewrapper.Widget&#45;&gt;paramtk.tilewrapper.Progressbar</title>
<path fill="none" stroke="black" stroke-width="0.5" d="M575.728,-260.937C587.561,-262.371 599.911,-263.868 612.037,-265.338"/>
<polygon fill="black" stroke="black" points="612.043,-267.101 617.218,-265.966 612.465,-263.627 612.043,-267.101"/>
</g>
<!-- paramtk.tilewrapper.Radiobutton -->
<g id="node45" class="node"><title>paramtk.tilewrapper.Radiobutton</title>
<polygon fill="none" stroke="black" stroke-width="0.5" points="786,-96.5 614,-96.5 614,-75.5 786,-75.5 786,-96.5"/>
<text text-anchor="middle" x="700" y="-83.5" font-family="Vera" font-size="10.00">paramtk.tilewrapper.Radiobutton</text>
</g>
<!-- paramtk.tilewrapper.Widget&#45;&gt;paramtk.tilewrapper.Radiobutton -->
<g id="edge46" class="edge"><title>paramtk.tilewrapper.Widget&#45;&gt;paramtk.tilewrapper.Radiobutton</title>
<path fill="none" stroke="black" stroke-width="0.5" d="M540.513,-241.864C553.294,-236.827 566.634,-229.495 576,-219 611.377,-179.357 572.719,-140.779 612,-105 614.578,-102.652 617.375,-100.568 620.334,-98.7216"/>
<polygon fill="black" stroke="black" points="621.624,-100.001 625.108,-96.0104 619.896,-96.958 621.624,-100.001"/>
</g>
<!-- paramtk.tilewrapper.LabelFrame -->
<g id="node49" class="node"><title>paramtk.tilewrapper.LabelFrame</title>
<polygon fill="none" stroke="black" stroke-width="0.5" points="785,-172.5 615,-172.5 615,-151.5 785,-151.5 785,-172.5"/>
<text text-anchor="middle" x="700" y="-159.5" font-family="Vera" font-size="10.00">paramtk.tilewrapper.LabelFrame</text>
</g>
<!-- paramtk.tilewrapper.Widget&#45;&gt;paramtk.tilewrapper.LabelFrame -->
<g id="edge50" class="edge"><title>paramtk.tilewrapper.Widget&#45;&gt;paramtk.tilewrapper.LabelFrame</title>
<path fill="none" stroke="black" stroke-width="0.5" d="M531.516,-241.93C545.671,-236.35 562.452,-228.59 576,-219 594.989,-205.559 591.725,-192.409 612,-181 616.902,-178.242 622.164,-175.884 627.589,-173.868"/>
<polygon fill="black" stroke="black" points="628.469,-175.414 632.611,-172.111 627.313,-172.11 628.469,-175.414"/>
</g>
<!-- paramtk.tilewrapper.Scrollbar -->
<g id="node52" class="node"><title>paramtk.tilewrapper.Scrollbar</title>
<polygon fill="none" stroke="black" stroke-width="0.5" points="778,-58.5 622,-58.5 622,-37.5 778,-37.5 778,-58.5"/>
<text text-anchor="middle" x="700" y="-45.5" font-family="Vera" font-size="10.00">paramtk.tilewrapper.Scrollbar</text>
</g>
<!-- paramtk.tilewrapper.Widget&#45;&gt;paramtk.tilewrapper.Scrollbar -->
<g id="edge54" class="edge"><title>paramtk.tilewrapper.Widget&#45;&gt;paramtk.tilewrapper.Scrollbar</title>
<path fill="none" stroke="black" stroke-width="0.5" d="M541.718,-241.936C554.299,-236.939 567.204,-229.615 576,-219 620.295,-165.542 562.423,-115.599 612,-67 614.344,-64.7023 616.895,-62.6537 619.605,-60.8289"/>
<polygon fill="black" stroke="black" points="620.638,-62.248 623.985,-58.1417 618.808,-59.2647 620.638,-62.248"/>
</g>
<!-- paramtk.tilewrapper.Separator -->
<g id="node55" class="node"><title>paramtk.tilewrapper.Separator</title>
<polygon fill="none" stroke="black" stroke-width="0.5" points="781,-248.5 619,-248.5 619,-227.5 781,-227.5 781,-248.5"/>
<text text-anchor="middle" x="700" y="-235.5" font-family="Vera" font-size="10.00">paramtk.tilewrapper.Separator</text>
</g>
<!-- paramtk.tilewrapper.Widget&#45;&gt;paramtk.tilewrapper.Separator -->
<g id="edge58" class="edge"><title>paramtk.tilewrapper.Widget&#45;&gt;paramtk.tilewrapper.Separator</title>
<path fill="none" stroke="black" stroke-width="0.5" d="M575.728,-246.787C587.85,-245.93 600.514,-245.034 612.924,-244.157"/>
<polygon fill="black" stroke="black" points="613.36,-245.881 618.224,-243.782 613.113,-242.389 613.36,-245.881"/>
</g>
<!-- paramtk.tilewrapper.Treeview -->
<g id="node60" class="node"><title>paramtk.tilewrapper.Treeview</title>
<polygon fill="none" stroke="black" stroke-width="0.5" points="777,-476.5 623,-476.5 623,-455.5 777,-455.5 777,-476.5"/>
<text text-anchor="middle" x="700" y="-463.5" font-family="Vera" font-size="10.00">paramtk.tilewrapper.Treeview</text>
</g>
<!-- paramtk.tilewrapper.Widget&#45;&gt;paramtk.tilewrapper.Treeview -->
<g id="edge64" class="edge"><title>paramtk.tilewrapper.Widget&#45;&gt;paramtk.tilewrapper.Treeview</title>
<path fill="none" stroke="black" stroke-width="0.5" d="M540.658,-262.088C553.608,-267.262 567.02,-274.897 576,-286 622.107,-343.012 559.963,-395.344 612,-447 614.329,-449.312 616.869,-451.373 619.568,-453.208"/>
<polygon fill="black" stroke="black" points="618.761,-454.767 623.934,-455.91 620.603,-451.791 618.761,-454.767"/>
</g>
<!-- paramtk.tilewrapper.Button -->
<g id="node64" class="node"><title>paramtk.tilewrapper.Button</title>
<polygon fill="none" stroke="black" stroke-width="0.5" points="773,-20.5 627,-20.5 627,0.5 773,0.5 773,-20.5"/>
<text text-anchor="middle" x="700" y="-7.5" font-family="Vera" font-size="10.00">paramtk.tilewrapper.Button</text>
</g>
<!-- paramtk.tilewrapper.Widget&#45;&gt;paramtk.tilewrapper.Button -->
<g id="edge68" class="edge"><title>paramtk.tilewrapper.Widget&#45;&gt;paramtk.tilewrapper.Button</title>
<path fill="none" stroke="black" stroke-width="0.5" d="M542.768,-241.852C555.121,-236.879 567.622,-229.591 576,-219 629.324,-151.595 552.003,-90.5402 612,-29 614.85,-26.0763 618.036,-23.5514 621.457,-21.3744"/>
<polygon fill="black" stroke="black" points="622.796,-22.6238 626.261,-18.6167 621.053,-19.5884 622.796,-22.6238"/>
</g>
<!-- Tkinter.Frame -->
<g id="node4" class="node"><title>Tkinter.Frame</title>
<polygon fill="none" stroke="black" stroke-width="0.5" points="542,-410.5 462,-410.5 462,-389.5 542,-389.5 542,-410.5"/>
<text text-anchor="middle" x="502" y="-397.5" font-family="Vera" font-size="10.00">Tkinter.Frame</text>
</g>
<!-- Tkinter.Frame&#45;&gt;paramtk.tilewrapper.Frame -->
<g id="edge4" class="edge"><title>Tkinter.Frame&#45;&gt;paramtk.tilewrapper.Frame</title>
<path fill="none" stroke="black" stroke-width="0.5" d="M542.546,-405.734C565.978,-409.047 596.217,-413.324 623.922,-417.242"/>
<polygon fill="black" stroke="black" points="623.868,-419.001 629.064,-417.969 624.358,-415.536 623.868,-419.001"/>
</g>
<!-- Tkinter.Checkbutton -->
<g id="node8" class="node"><title>Tkinter.Checkbutton</title>
<polygon fill="none" stroke="black" stroke-width="0.5" points="558,-315.5 446,-315.5 446,-294.5 558,-294.5 558,-315.5"/>
<text text-anchor="middle" x="502" y="-302.5" font-family="Vera" font-size="10.00">Tkinter.Checkbutton</text>
</g>
<!-- Tkinter.Checkbutton&#45;&gt;paramtk.tilewrapper.Checkbutton -->
<g id="edge8" class="edge"><title>Tkinter.Checkbutton&#45;&gt;paramtk.tilewrapper.Checkbutton</title>
<path fill="none" stroke="black" stroke-width="0.5" d="M515.471,-315.1C535.483,-329.619 574.721,-356.26 612,-371 619.463,-373.951 627.472,-376.482 635.508,-378.644"/>
<polygon fill="black" stroke="black" points="635.231,-380.38 640.51,-379.942 636.11,-376.992 635.231,-380.38"/>
</g>
<!-- Tkinter.Entry -->
<g id="node12" class="node"><title>Tkinter.Entry</title>
<polygon fill="none" stroke="black" stroke-width="0.5" points="540,-514.5 464,-514.5 464,-493.5 540,-493.5 540,-514.5"/>
<text text-anchor="middle" x="502" y="-501.5" font-family="Vera" font-size="10.00">Tkinter.Entry</text>
</g>
<!-- Tkinter.Entry&#45;&gt;paramtk.tilewrapper.Combobox -->
<g id="edge12" class="edge"><title>Tkinter.Entry&#45;&gt;paramtk.tilewrapper.Combobox</title>
<path fill="none" stroke="black" stroke-width="0.5" d="M540.176,-511.327C569.19,-516.895 609.584,-524.647 642.503,-530.965"/>
<polygon fill="black" stroke="black" points="642.479,-532.742 647.719,-531.966 643.138,-529.305 642.479,-532.742"/>
</g>
<!-- Tkinter.Entry&#45;&gt;paramtk.tilewrapper.Entry -->
<g id="edge16" class="edge"><title>Tkinter.Entry&#45;&gt;paramtk.tilewrapper.Entry</title>
<path fill="none" stroke="black" stroke-width="0.5" d="M540.176,-504C564.085,-504 595.721,-504 624.534,-504"/>
<polygon fill="black" stroke="black" points="624.879,-505.75 629.879,-504 624.879,-502.25 624.879,-505.75"/>
</g>
<!-- paramtk.tilewrapper.Style -->
<g id="node14" class="node"><title>paramtk.tilewrapper.Style</title>
<polygon fill="none" stroke="black" stroke-width="0.5" points="391,-262.5 253,-262.5 253,-241.5 391,-241.5 391,-262.5"/>
<text text-anchor="middle" x="322" y="-249.5" font-family="Vera" font-size="10.00">paramtk.tilewrapper.Style</text>
</g>
<!-- paramtk.tilewrapper.Style&#45;&gt;paramtk.tilewrapper.Widget -->
<g id="edge86" class="edge"><title>paramtk.tilewrapper.Style&#45;&gt;paramtk.tilewrapper.Widget</title>
<path fill="none" stroke="black" stroke-width="0.5" d="M391.593,-252C401.965,-252 412.719,-252 423.263,-252"/>
<polygon fill="black" stroke="black" points="423.42,-253.75 428.42,-252 423.42,-250.25 423.42,-253.75"/>
</g>
<!-- Tkinter.Label -->
<g id="node22" class="node"><title>Tkinter.Label</title>
<polygon fill="none" stroke="black" stroke-width="0.5" points="540,-210.5 464,-210.5 464,-189.5 540,-189.5 540,-210.5"/>
<text text-anchor="middle" x="502" y="-197.5" font-family="Vera" font-size="10.00">Tkinter.Label</text>
</g>
<!-- Tkinter.Label&#45;&gt;paramtk.tilewrapper.Label -->
<g id="edge22" class="edge"><title>Tkinter.Label&#45;&gt;paramtk.tilewrapper.Label</title>
<path fill="none" stroke="black" stroke-width="0.5" d="M540.646,-200C564.485,-200 595.873,-200 624.483,-200"/>
<polygon fill="black" stroke="black" points="624.791,-201.75 629.791,-200 624.791,-198.25 624.791,-201.75"/>
</g>
<!-- Tkinter.Label&#45;&gt;paramtk.tilewrapper.LabelFrame -->
<g id="edge52" class="edge"><title>Tkinter.Label&#45;&gt;paramtk.tilewrapper.LabelFrame</title>
<path fill="none" stroke="black" stroke-width="0.5" d="M540.646,-192.583C569.597,-187.027 609.681,-179.334 642.404,-173.054"/>
<polygon fill="black" stroke="black" points="643.01,-174.72 647.59,-172.058 642.35,-171.282 643.01,-174.72"/>
</g>
<!-- Tkinter.Widget -->
<g id="node24" class="node"><title>Tkinter.Widget</title>
<polygon fill="none" stroke="black" stroke-width="0.5" points="363,-210.5 281,-210.5 281,-189.5 363,-189.5 363,-210.5"/>
<text text-anchor="middle" x="322" y="-197.5" font-family="Vera" font-size="10.00">Tkinter.Widget</text>
</g>
<!-- Tkinter.Widget&#45;&gt;paramtk.tilewrapper.Widget -->
<g id="edge84" class="edge"><title>Tkinter.Widget&#45;&gt;paramtk.tilewrapper.Widget</title>
<path fill="none" stroke="black" stroke-width="0.5" d="M356.706,-210.026C386.864,-218.739 430.547,-231.358 462.133,-240.483"/>
<polygon fill="black" stroke="black" points="461.805,-242.21 467.094,-241.916 462.776,-238.847 461.805,-242.21"/>
</g>
<!-- Tkinter.Widget&#45;&gt;Tkinter.Frame -->
<g id="edge88" class="edge"><title>Tkinter.Widget&#45;&gt;Tkinter.Frame</title>
<path fill="none" stroke="black" stroke-width="0.5" d="M355.899,-210.014C368.58,-215.171 382.256,-222.613 392,-233 421.758,-264.721 404.369,-287.485 428,-324 444.05,-348.8 469.04,-372.36 485.465,-386.497"/>
<polygon fill="black" stroke="black" points="484.503,-387.976 489.445,-389.883 486.771,-385.31 484.503,-387.976"/>
</g>
<!-- Tkinter.Widget&#45;&gt;Tkinter.Checkbutton -->
<g id="edge36" class="edge"><title>Tkinter.Widget&#45;&gt;Tkinter.Checkbutton</title>
<path fill="none" stroke="black" stroke-width="0.5" d="M349.219,-210.042C362.742,-215.706 378.939,-223.547 392,-233 410.847,-246.64 409.087,-257.453 428,-271 440.387,-279.872 455.458,-287.3 468.759,-292.927"/>
<polygon fill="black" stroke="black" points="468.282,-294.623 473.571,-294.918 469.62,-291.389 468.282,-294.623"/>
</g>
<!-- Tkinter.Widget&#45;&gt;Tkinter.Entry -->
<g id="edge60" class="edge"><title>Tkinter.Widget&#45;&gt;Tkinter.Entry</title>
<path fill="none" stroke="black" stroke-width="0.5" d="M360.141,-210.091C372.087,-215.09 384.178,-222.408 392,-233 459.209,-324.011 352.495,-400.745 428,-485 435.9,-493.816 447.287,-498.794 458.768,-501.539"/>
<polygon fill="black" stroke="black" points="458.429,-503.256 463.684,-502.584 459.157,-499.833 458.429,-503.256"/>
</g>
<!-- Tkinter.Widget&#45;&gt;Tkinter.Label -->
<g id="edge24" class="edge"><title>Tkinter.Widget&#45;&gt;Tkinter.Label</title>
<path fill="none" stroke="black" stroke-width="0.5" d="M363.748,-200C392.004,-200 429.268,-200 457.988,-200"/>
<polygon fill="black" stroke="black" points="458.247,-201.75 463.247,-200 458.247,-198.25 458.247,-201.75"/>
</g>
<!-- Tkinter.Listbox -->
<g id="node26" class="node"><title>Tkinter.Listbox</title>
<polygon fill="none" stroke="black" stroke-width="0.5" points="544,-476.5 460,-476.5 460,-455.5 544,-455.5 544,-476.5"/>
<text text-anchor="middle" x="502" y="-463.5" font-family="Vera" font-size="10.00">Tkinter.Listbox</text>
</g>
<!-- Tkinter.Widget&#45;&gt;Tkinter.Listbox -->
<g id="edge26" class="edge"><title>Tkinter.Widget&#45;&gt;Tkinter.Listbox</title>
<path fill="none" stroke="black" stroke-width="0.5" d="M359.116,-210.01C371.27,-215.036 383.755,-222.392 392,-233 443.673,-299.481 380.591,-349.414 428,-419 438.562,-434.502 456.106,-445.972 471.461,-453.698"/>
<polygon fill="black" stroke="black" points="470.885,-455.363 476.146,-455.976 472.415,-452.216 470.885,-455.363"/>
</g>
<!-- Tkinter.Menubutton -->
<g id="node35" class="node"><title>Tkinter.Menubutton</title>
<polygon fill="none" stroke="black" stroke-width="0.5" points="556,-170.5 448,-170.5 448,-149.5 556,-149.5 556,-170.5"/>
<text text-anchor="middle" x="502" y="-157.5" font-family="Vera" font-size="10.00">Tkinter.Menubutton</text>
</g>
<!-- Tkinter.Widget&#45;&gt;Tkinter.Menubutton -->
<g id="edge38" class="edge"><title>Tkinter.Widget&#45;&gt;Tkinter.Menubutton</title>
<path fill="none" stroke="black" stroke-width="0.5" d="M363.748,-190.723C389.95,-184.9 423.9,-177.356 451.599,-171.2"/>
<polygon fill="black" stroke="black" points="452.193,-172.861 456.695,-170.068 451.434,-169.444 452.193,-172.861"/>
</g>
<!-- Tkinter.Scrollbar -->
<g id="node39" class="node"><title>Tkinter.Scrollbar</title>
<polygon fill="none" stroke="black" stroke-width="0.5" points="548,-80.5 456,-80.5 456,-59.5 548,-59.5 548,-80.5"/>
<text text-anchor="middle" x="502" y="-67.5" font-family="Vera" font-size="10.00">Tkinter.Scrollbar</text>
</g>
<!-- Tkinter.Widget&#45;&gt;Tkinter.Scrollbar -->
<g id="edge40" class="edge"><title>Tkinter.Widget&#45;&gt;Tkinter.Scrollbar</title>
<path fill="none" stroke="black" stroke-width="0.5" d="M330.018,-189.92C346.439,-169.868 385.91,-124.62 428,-98 438.361,-91.4469 450.492,-86.0599 461.9,-81.8222"/>
<polygon fill="black" stroke="black" points="462.628,-83.4199 466.737,-80.0764 461.44,-80.1278 462.628,-83.4199"/>
</g>
<!-- Tkinter.Radiobutton -->
<g id="node47" class="node"><title>Tkinter.Radiobutton</title>
<polygon fill="none" stroke="black" stroke-width="0.5" points="556,-127.5 448,-127.5 448,-106.5 556,-106.5 556,-127.5"/>
<text text-anchor="middle" x="502" y="-114.5" font-family="Vera" font-size="10.00">Tkinter.Radiobutton</text>
</g>
<!-- Tkinter.Widget&#45;&gt;Tkinter.Radiobutton -->
<g id="edge72" class="edge"><title>Tkinter.Widget&#45;&gt;Tkinter.Radiobutton</title>
<path fill="none" stroke="black" stroke-width="0.5" d="M338.021,-189.784C358.354,-177.126 394.788,-155.465 428,-141 438.523,-136.417 450.215,-132.232 461.139,-128.685"/>
<polygon fill="black" stroke="black" points="461.867,-130.29 466.098,-127.102 460.802,-126.956 461.867,-130.29"/>
</g>
<!-- Tkinter.Button -->
<g id="node66" class="node"><title>Tkinter.Button</title>
<polygon fill="none" stroke="black" stroke-width="0.5" points="543,-23.5 461,-23.5 461,-2.5 543,-2.5 543,-23.5"/>
<text text-anchor="middle" x="502" y="-10.5" font-family="Vera" font-size="10.00">Tkinter.Button</text>
</g>
<!-- Tkinter.Widget&#45;&gt;Tkinter.Button -->
<g id="edge90" class="edge"><title>Tkinter.Widget&#45;&gt;Tkinter.Button</title>
<path fill="none" stroke="black" stroke-width="0.5" d="M327.086,-189.687C340.421,-163.516 378.792,-93.59 428,-51 440.46,-40.2159 456.513,-31.496 470.482,-25.1425"/>
<polygon fill="black" stroke="black" points="471.271,-26.7071 475.131,-23.079 469.851,-23.508 471.271,-26.7071"/>
</g>
<!-- Tkinter.Listbox&#45;&gt;paramtk.tilewrapper.Treeview -->
<g id="edge66" class="edge"><title>Tkinter.Listbox&#45;&gt;paramtk.tilewrapper.Treeview</title>
<path fill="none" stroke="black" stroke-width="0.5" d="M544.963,-466C566.094,-466 592.303,-466 617.123,-466"/>
<polygon fill="black" stroke="black" points="617.396,-467.75 622.396,-466 617.395,-464.25 617.396,-467.75"/>
</g>
<!-- Tkinter.XView -->
<g id="node28" class="node"><title>Tkinter.XView</title>
<polygon fill="none" stroke="black" stroke-width="0.5" points="361,-514.5 283,-514.5 283,-493.5 361,-493.5 361,-514.5"/>
<text text-anchor="middle" x="322" y="-501.5" font-family="Vera" font-size="10.00">Tkinter.XView</text>
</g>
<!-- Tkinter.XView&#45;&gt;Tkinter.Entry -->
<g id="edge62" class="edge"><title>Tkinter.XView&#45;&gt;Tkinter.Entry</title>
<path fill="none" stroke="black" stroke-width="0.5" d="M361.502,-504C390.263,-504 429.198,-504 458.787,-504"/>
<polygon fill="black" stroke="black" points="458.825,-505.75 463.825,-504 458.825,-502.25 458.825,-505.75"/>
</g>
<!-- Tkinter.XView&#45;&gt;Tkinter.Listbox -->
<g id="edge28" class="edge"><title>Tkinter.XView&#45;&gt;Tkinter.Listbox</title>
<path fill="none" stroke="black" stroke-width="0.5" d="M361.502,-495.661C388.894,-489.878 425.513,-482.147 454.499,-476.028"/>
<polygon fill="black" stroke="black" points="454.919,-477.728 459.449,-474.983 454.196,-474.304 454.919,-477.728"/>
</g>
<!-- Tkinter.YView -->
<g id="node30" class="node"><title>Tkinter.YView</title>
<polygon fill="none" stroke="black" stroke-width="0.5" points="361,-476.5 283,-476.5 283,-455.5 361,-455.5 361,-476.5"/>
<text text-anchor="middle" x="322" y="-463.5" font-family="Vera" font-size="10.00">Tkinter.YView</text>
</g>
<!-- Tkinter.YView&#45;&gt;Tkinter.Listbox -->
<g id="edge30" class="edge"><title>Tkinter.YView&#45;&gt;Tkinter.Listbox</title>
<path fill="none" stroke="black" stroke-width="0.5" d="M361.057,-466C388.312,-466 424.861,-466 453.91,-466"/>
<polygon fill="black" stroke="black" points="454.243,-467.75 459.243,-466 454.243,-464.25 454.243,-467.75"/>
</g>
<!-- Tkinter.Misc -->
<g id="node32" class="node"><title>Tkinter.Misc</title>
<polygon fill="none" stroke="black" stroke-width="0.5" points="72,-153.5 2.84217e-14,-153.5 0,-132.5 72,-132.5 72,-153.5"/>
<text text-anchor="middle" x="36" y="-140.5" font-family="Vera" font-size="10.00">Tkinter.Misc</text>
</g>
<!-- Tkinter.BaseWidget -->
<g id="node70" class="node"><title>Tkinter.BaseWidget</title>
<polygon fill="none" stroke="black" stroke-width="0.5" points="215,-153.5 109,-153.5 109,-132.5 215,-132.5 215,-153.5"/>
<text text-anchor="middle" x="162" y="-140.5" font-family="Vera" font-size="10.00">Tkinter.BaseWidget</text>
</g>
<!-- Tkinter.Misc&#45;&gt;Tkinter.BaseWidget -->
<g id="edge74" class="edge"><title>Tkinter.Misc&#45;&gt;Tkinter.BaseWidget</title>
<path fill="none" stroke="black" stroke-width="0.5" d="M72.1065,-143C81.7306,-143 92.3855,-143 102.895,-143"/>
<polygon fill="black" stroke="black" points="103.038,-144.75 108.038,-143 103.038,-141.25 103.038,-144.75"/>
</g>
<!-- Tkinter.Menubutton&#45;&gt;paramtk.tilewrapper.Menubutton -->
<g id="edge34" class="edge"><title>Tkinter.Menubutton&#45;&gt;paramtk.tilewrapper.Menubutton</title>
<path fill="none" stroke="black" stroke-width="0.5" d="M556.629,-150.068C582.383,-145.385 613.19,-139.784 639.634,-134.976"/>
<polygon fill="black" stroke="black" points="640.256,-136.641 644.862,-134.025 639.63,-133.198 640.256,-136.641"/>
</g>
<!-- Tkinter.Scrollbar&#45;&gt;paramtk.tilewrapper.Scrollbar -->
<g id="edge56" class="edge"><title>Tkinter.Scrollbar&#45;&gt;paramtk.tilewrapper.Scrollbar</title>
<path fill="none" stroke="black" stroke-width="0.5" d="M548.673,-64.8142C568.868,-62.5702 593.14,-59.8733 616.273,-57.303"/>
<polygon fill="black" stroke="black" points="616.724,-59.0138 621.5,-56.7223 616.337,-55.5352 616.724,-59.0138"/>
</g>
<!-- Tkinter.Radiobutton&#45;&gt;paramtk.tilewrapper.Radiobutton -->
<g id="edge48" class="edge"><title>Tkinter.Radiobutton&#45;&gt;paramtk.tilewrapper.Radiobutton</title>
<path fill="none" stroke="black" stroke-width="0.5" d="M556.629,-108.447C579.605,-104.85 606.601,-100.623 630.934,-96.8134"/>
<polygon fill="black" stroke="black" points="631.414,-98.5096 636.084,-96.0071 630.873,-95.0517 631.414,-98.5096"/>
</g>
<!-- Tkinter.Pack -->
<g id="node59" class="node"><title>Tkinter.Pack</title>
<polygon fill="none" stroke="black" stroke-width="0.5" points="198,-267.5 126,-267.5 126,-246.5 198,-246.5 198,-267.5"/>
<text text-anchor="middle" x="162" y="-254.5" font-family="Vera" font-size="10.00">Tkinter.Pack</text>
</g>
<!-- Tkinter.Pack&#45;&gt;Tkinter.Widget -->
<g id="edge78" class="edge"><title>Tkinter.Pack&#45;&gt;Tkinter.Widget</title>
<path fill="none" stroke="black" stroke-width="0.5" d="M190.596,-246.974C198.802,-244.087 207.759,-240.927 216,-238 240.559,-229.277 268.285,-219.335 289.22,-211.808"/>
<polygon fill="black" stroke="black" points="290.006,-213.385 294.119,-210.046 288.821,-210.091 290.006,-213.385"/>
</g>
<!-- Tkinter.Place -->
<g id="node63" class="node"><title>Tkinter.Place</title>
<polygon fill="none" stroke="black" stroke-width="0.5" points="200,-229.5 124,-229.5 124,-208.5 200,-208.5 200,-229.5"/>
<text text-anchor="middle" x="162" y="-216.5" font-family="Vera" font-size="10.00">Tkinter.Place</text>
</g>
<!-- Tkinter.Place&#45;&gt;Tkinter.Widget -->
<g id="edge80" class="edge"><title>Tkinter.Place&#45;&gt;Tkinter.Widget</title>
<path fill="none" stroke="black" stroke-width="0.5" d="M200.732,-214.401C223.181,-211.735 251.601,-208.36 275.284,-205.548"/>
<polygon fill="black" stroke="black" points="275.503,-207.284 280.262,-204.956 275.091,-203.808 275.503,-207.284"/>
</g>
<!-- Tkinter.Button&#45;&gt;paramtk.tilewrapper.Button -->
<g id="edge70" class="edge"><title>Tkinter.Button&#45;&gt;paramtk.tilewrapper.Button</title>
<path fill="none" stroke="black" stroke-width="0.5" d="M543.507,-12.3711C565.939,-12.0312 594.397,-11.6 620.876,-11.1988"/>
<polygon fill="black" stroke="black" points="621.171,-12.9447 626.143,-11.119 621.117,-9.44508 621.171,-12.9447"/>
</g>
<!-- Tkinter.Grid -->
<g id="node68" class="node"><title>Tkinter.Grid</title>
<polygon fill="none" stroke="black" stroke-width="0.5" points="197,-191.5 127,-191.5 127,-170.5 197,-170.5 197,-191.5"/>
<text text-anchor="middle" x="162" y="-178.5" font-family="Vera" font-size="10.00">Tkinter.Grid</text>
</g>
<!-- Tkinter.Grid&#45;&gt;Tkinter.Widget -->
<g id="edge82" class="edge"><title>Tkinter.Grid&#45;&gt;Tkinter.Widget</title>
<path fill="none" stroke="black" stroke-width="0.5" d="M197.509,-185.217C220.372,-187.932 250.344,-191.491 275.15,-194.437"/>
<polygon fill="black" stroke="black" points="275.189,-196.203 280.36,-195.055 275.601,-192.728 275.189,-196.203"/>
</g>
<!-- Tkinter.BaseWidget&#45;&gt;Tkinter.Widget -->
<g id="edge76" class="edge"><title>Tkinter.BaseWidget&#45;&gt;Tkinter.Widget</title>
<path fill="none" stroke="black" stroke-width="0.5" d="M190.596,-153.026C198.802,-155.913 207.759,-159.073 216,-162 240.559,-170.723 268.285,-180.665 289.22,-188.192"/>
<polygon fill="black" stroke="black" points="288.821,-189.909 294.119,-189.954 290.006,-186.615 288.821,-189.909"/>
</g>
</g>
</svg>
