<?xml version="1.0" encoding="UTF-8" standalone="no"?>
<!DOCTYPE svg PUBLIC "-//W3C//DTD SVG 1.1//EN"
 "http://www.w3.org/Graphics/SVG/1.1/DTD/svg11.dtd">
<!-- Generated by graphviz version 2.26.3 (20100126.1600)
 -->
<!-- Title: inheritance55ea2345ea Pages: 1 -->
<svg width="570pt" height="66pt"
 viewBox="0.00 0.00 570.00 66.00" xmlns="http://www.w3.org/2000/svg" xmlns:xlink="http://www.w3.org/1999/xlink">
<g id="graph1" class="graph" transform="scale(1 1) rotate(0) translate(4 62)">
<title>inheritance55ea2345ea</title>
<polygon fill="white" stroke="white" points="-4,5 -4,-62 567,-62 567,5 -4,5"/>
<!-- unittest.case.TestCase -->
<g id="node1" class="node"><title>unittest.case.TestCase</title>
<polygon fill="none" stroke="black" stroke-width="0.5" points="150,-20 34,-20 34,-1.06581e-14 150,-3.55271e-15 150,-20"/>
<text text-anchor="middle" x="92" y="-7" font-family="Vera" font-size="10.00">unittest.case.TestCase</text>
</g>
<!-- topo.tests.unit.testparametersframe_tk.TestParametersFrameWithApply -->
<g id="node5" class="node"><title>topo.tests.unit.testparametersframe_tk.TestParametersFrameWithApply</title>
<polygon fill="none" stroke="black" stroke-width="0.5" points="562,-20 220,-20 220,-1.06581e-14 562,-3.55271e-15 562,-20"/>
<text text-anchor="middle" x="391" y="-7" font-family="Vera" font-size="10.00">topo.tests.unit.testparametersframe_tk.TestParametersFrameWithApply</text>
</g>
<!-- unittest.case.TestCase&#45;&gt;topo.tests.unit.testparametersframe_tk.TestParametersFrameWithApply -->
<g id="edge4" class="edge"><title>unittest.case.TestCase&#45;&gt;topo.tests.unit.testparametersframe_tk.TestParametersFrameWithApply</title>
<path fill="none" stroke="black" stroke-width="0.5" d="M150.005,-10C169.109,-10 191.452,-10 214.688,-10"/>
<polygon fill="black" stroke="black" points="214.974,-11.7501 219.974,-10 214.974,-8.25009 214.974,-11.7501"/>
</g>
<!-- topo.tests.unit.testparametersframe_tk.TestPO -->
<g id="node2" class="node"><title>topo.tests.unit.testparametersframe_tk.TestPO</title>
<polygon fill="none" stroke="black" stroke-width="0.5" points="504,-58 278,-58 278,-38 504,-38 504,-58"/>
<text text-anchor="middle" x="391" y="-45" font-family="Vera" font-size="10.00">topo.tests.unit.testparametersframe_tk.TestPO</text>
</g>
<!-- param.parameterized.Parameterized -->
<g id="node3" class="node"><title>param.parameterized.Parameterized</title>
<polygon fill="none" stroke="black" stroke-width="0.5" points="184,-58 8.52651e-14,-58 0,-38 184,-38 184,-58"/>
<text text-anchor="middle" x="92" y="-45" font-family="Vera" font-size="10.00">param.parameterized.Parameterized</text>
</g>
<!-- param.parameterized.Parameterized&#45;&gt;topo.tests.unit.testparametersframe_tk.TestPO -->
<g id="edge2" class="edge"><title>param.parameterized.Parameterized&#45;&gt;topo.tests.unit.testparametersframe_tk.TestPO</title>
<path fill="none" stroke="black" stroke-width="0.5" d="M184.15,-48C211.968,-48 242.908,-48 272.205,-48"/>
<polygon fill="black" stroke="black" points="272.272,-49.7501 277.272,-48 272.272,-46.2501 272.272,-49.7501"/>
</g>
</g>
</svg>
