<?xml version="1.0" encoding="UTF-8" standalone="no"?>
<!DOCTYPE svg PUBLIC "-//W3C//DTD SVG 1.1//EN"
 "http://www.w3.org/Graphics/SVG/1.1/DTD/svg11.dtd">
<!-- Generated by graphviz version 2.26.3 (20100126.1600)
 -->
<!-- Title: inheritance03c0df95af Pages: 1 -->
<svg width="1818pt" height="104pt"
 viewBox="0.00 0.00 1818.00 104.00" xmlns="http://www.w3.org/2000/svg" xmlns:xlink="http://www.w3.org/1999/xlink">
<g id="graph1" class="graph" transform="scale(1 1) rotate(0) translate(4 100)">
<title>inheritance03c0df95af</title>
<polygon fill="white" stroke="white" points="-4,5 -4,-100 1815,-100 1815,5 -4,5"/>
<!-- topo.base.cf.CFSheet -->
<g id="node1" class="node"><title>topo.base.cf.CFSheet</title>
<polygon fill="none" stroke="black" stroke-width="0.5" points="1139,-77.5 1021,-77.5 1021,-56.5 1139,-56.5 1139,-77.5"/>
<text text-anchor="middle" x="1080" y="-64.5" font-family="Vera" font-size="10.00">topo.base.cf.CFSheet</text>
</g>
<!-- topo.sheet.JointNormalizingCFSheet -->
<g id="node15" class="node"><title>topo.sheet.JointNormalizingCFSheet</title>
<polygon fill="none" stroke="black" stroke-width="0.5" points="1365,-77.5 1177,-77.5 1177,-56.5 1365,-56.5 1365,-77.5"/>
<text text-anchor="middle" x="1271" y="-64.5" font-family="Vera" font-size="10.00">topo.sheet.JointNormalizingCFSheet</text>
</g>
<!-- topo.base.cf.CFSheet&#45;&gt;topo.sheet.JointNormalizingCFSheet -->
<g id="edge14" class="edge"><title>topo.base.cf.CFSheet&#45;&gt;topo.sheet.JointNormalizingCFSheet</title>
<path fill="none" stroke="black" stroke-width="0.5" d="M1139.65,-67C1149.71,-67 1160.4,-67 1171.16,-67"/>
<polygon fill="black" stroke="black" points="1171.44,-68.7501 1176.44,-67 1171.44,-65.2501 1171.44,-68.7501"/>
</g>
<!-- topo.base.projection.ProjectionSheet -->
<g id="node2" class="node"><title>topo.base.projection.ProjectionSheet</title>
<polygon fill="none" stroke="black" stroke-width="0.5" points="963,-77.5 769,-77.5 769,-56.5 963,-56.5 963,-77.5"/>
<text text-anchor="middle" x="866" y="-64.5" font-family="Vera" font-size="10.00">topo.base.projection.ProjectionSheet</text>
</g>
<!-- topo.base.projection.ProjectionSheet&#45;&gt;topo.base.cf.CFSheet -->
<g id="edge2" class="edge"><title>topo.base.projection.ProjectionSheet&#45;&gt;topo.base.cf.CFSheet</title>
<path fill="none" stroke="black" stroke-width="0.5" d="M963.294,-67C980.905,-67 998.869,-67 1015.26,-67"/>
<polygon fill="black" stroke="black" points="1015.29,-68.7501 1020.29,-67 1015.29,-65.2501 1015.29,-68.7501"/>
</g>
<!-- topo.base.sheet.Sheet -->
<g id="node4" class="node"><title>topo.base.sheet.Sheet</title>
<polygon fill="none" stroke="black" stroke-width="0.5" points="670,-77.5 544,-77.5 544,-56.5 670,-56.5 670,-77.5"/>
<text text-anchor="middle" x="607" y="-64.5" font-family="Vera" font-size="10.00">topo.base.sheet.Sheet</text>
</g>
<!-- topo.base.sheet.Sheet&#45;&gt;topo.base.projection.ProjectionSheet -->
<g id="edge4" class="edge"><title>topo.base.sheet.Sheet&#45;&gt;topo.base.projection.ProjectionSheet</title>
<path fill="none" stroke="black" stroke-width="0.5" d="M670.027,-67C698.241,-67 732.229,-67 763.921,-67"/>
<polygon fill="black" stroke="black" points="763.986,-68.7501 768.986,-67 763.986,-65.2501 763.986,-68.7501"/>
</g>
<!-- topo.base.simulation.EventProcessor -->
<g id="node6" class="node"><title>topo.base.simulation.EventProcessor</title>
<polygon fill="none" stroke="black" stroke-width="0.5" points="445,-96.5 251,-96.5 251,-75.5 445,-75.5 445,-96.5"/>
<text text-anchor="middle" x="348" y="-83.5" font-family="Vera" font-size="10.00">topo.base.simulation.EventProcessor</text>
</g>
<!-- topo.base.simulation.EventProcessor&#45;&gt;topo.base.sheet.Sheet -->
<g id="edge6" class="edge"><title>topo.base.simulation.EventProcessor&#45;&gt;topo.base.sheet.Sheet</title>
<path fill="none" stroke="black" stroke-width="0.5" d="M445.179,-78.871C476.259,-76.5911 509.992,-74.1164 538.576,-72.0196"/>
<polygon fill="black" stroke="black" points="538.993,-73.7438 543.851,-71.6325 538.736,-70.2531 538.993,-73.7438"/>
</g>
<!-- imagen.sheetcoords.SheetCoordinateSystem -->
<g id="node8" class="node"><title>imagen.sheetcoords.SheetCoordinateSystem</title>
<polygon fill="none" stroke="black" stroke-width="0.5" points="466,-58.5 230,-58.5 230,-37.5 466,-37.5 466,-58.5"/>
<text text-anchor="middle" x="348" y="-45.5" font-family="Vera" font-size="10.00">imagen.sheetcoords.SheetCoordinateSystem</text>
</g>
<!-- imagen.sheetcoords.SheetCoordinateSystem&#45;&gt;topo.base.sheet.Sheet -->
<g id="edge8" class="edge"><title>imagen.sheetcoords.SheetCoordinateSystem&#45;&gt;topo.base.sheet.Sheet</title>
<path fill="none" stroke="black" stroke-width="0.5" d="M466.131,-56.666C491.062,-58.4949 516.559,-60.3654 538.889,-62.0034"/>
<polygon fill="black" stroke="black" points="538.784,-63.7504 543.899,-62.371 539.04,-60.2598 538.784,-63.7504"/>
</g>
<!-- param.parameterized.Parameterized -->
<g id="node10" class="node"><title>param.parameterized.Parameterized</title>
<polygon fill="none" stroke="black" stroke-width="0.5" points="194,-58.5 5.68434e-14,-58.5 0,-37.5 194,-37.5 194,-58.5"/>
<text text-anchor="middle" x="97" y="-45.5" font-family="Vera" font-size="10.00">param.parameterized.Parameterized</text>
</g>
<!-- param.parameterized.Parameterized&#45;&gt;topo.base.simulation.EventProcessor -->
<g id="edge10" class="edge"><title>param.parameterized.Parameterized&#45;&gt;topo.base.simulation.EventProcessor</title>
<path fill="none" stroke="black" stroke-width="0.5" d="M163.276,-58.0338C198.161,-63.3152 240.968,-69.796 276.587,-75.1885"/>
<polygon fill="black" stroke="black" points="276.583,-76.9577 281.789,-75.976 277.107,-73.4971 276.583,-76.9577"/>
</g>
<!-- topo.base.projection.SheetMask -->
<g id="node17" class="node"><title>topo.base.projection.SheetMask</title>
<polygon fill="none" stroke="black" stroke-width="0.5" points="433,-20.5 263,-20.5 263,0.5 433,0.5 433,-20.5"/>
<text text-anchor="middle" x="348" y="-7.5" font-family="Vera" font-size="10.00">topo.base.projection.SheetMask</text>
</g>
<!-- param.parameterized.Parameterized&#45;&gt;topo.base.projection.SheetMask -->
<g id="edge20" class="edge"><title>param.parameterized.Parameterized&#45;&gt;topo.base.projection.SheetMask</title>
<path fill="none" stroke="black" stroke-width="0.5" d="M163.276,-37.9662C198.161,-32.6848 240.968,-26.204 276.587,-20.8115"/>
<polygon fill="black" stroke="black" points="277.107,-22.5029 281.789,-20.024 276.583,-19.0423 277.107,-22.5029"/>
</g>
<!-- topo.sheet.optimized.NeighborhoodMask_Opt -->
<g id="node12" class="node"><title>topo.sheet.optimized.NeighborhoodMask_Opt</title>
<polygon fill="none" stroke="black" stroke-width="0.5" points="984,-20.5 748,-20.5 748,0.5 984,0.5 984,-20.5"/>
<text text-anchor="middle" x="866" y="-7.5" font-family="Vera" font-size="10.00">topo.sheet.optimized.NeighborhoodMask_Opt</text>
</g>
<!-- topo.base.projection.NeighborhoodMask -->
<g id="node13" class="node"><title>topo.base.projection.NeighborhoodMask</title>
<polygon fill="none" stroke="black" stroke-width="0.5" points="712,-20.5 502,-20.5 502,0.5 712,0.5 712,-20.5"/>
<text text-anchor="middle" x="607" y="-7.5" font-family="Vera" font-size="10.00">topo.base.projection.NeighborhoodMask</text>
</g>
<!-- topo.base.projection.NeighborhoodMask&#45;&gt;topo.sheet.optimized.NeighborhoodMask_Opt -->
<g id="edge12" class="edge"><title>topo.base.projection.NeighborhoodMask&#45;&gt;topo.sheet.optimized.NeighborhoodMask_Opt</title>
<path fill="none" stroke="black" stroke-width="0.5" d="M712.345,-10C722.244,-10 732.338,-10 742.384,-10"/>
<polygon fill="black" stroke="black" points="742.633,-11.7501 747.632,-10 742.632,-8.2501 742.633,-11.7501"/>
</g>
<!-- topo.sheet.SettlingCFSheet -->
<g id="node19" class="node"><title>topo.sheet.SettlingCFSheet</title>
<polygon fill="none" stroke="black" stroke-width="0.5" points="1551,-77.5 1403,-77.5 1403,-56.5 1551,-56.5 1551,-77.5"/>
<text text-anchor="middle" x="1477" y="-64.5" font-family="Vera" font-size="10.00">topo.sheet.SettlingCFSheet</text>
</g>
<!-- topo.sheet.JointNormalizingCFSheet&#45;&gt;topo.sheet.SettlingCFSheet -->
<g id="edge18" class="edge"><title>topo.sheet.JointNormalizingCFSheet&#45;&gt;topo.sheet.SettlingCFSheet</title>
<path fill="none" stroke="black" stroke-width="0.5" d="M1365.56,-67C1376.19,-67 1386.95,-67 1397.37,-67"/>
<polygon fill="black" stroke="black" points="1397.45,-68.7501 1402.45,-67 1397.45,-65.2501 1397.45,-68.7501"/>
</g>
<!-- topo.base.projection.SheetMask&#45;&gt;topo.base.projection.NeighborhoodMask -->
<g id="edge16" class="edge"><title>topo.base.projection.SheetMask&#45;&gt;topo.base.projection.NeighborhoodMask</title>
<path fill="none" stroke="black" stroke-width="0.5" d="M433.524,-10C453.713,-10 475.519,-10 496.632,-10"/>
<polygon fill="black" stroke="black" points="496.696,-11.7501 501.696,-10 496.696,-8.2501 496.696,-11.7501"/>
</g>
<!-- topo.sheet.optimized.SettlingCFSheet_Opt -->
<g id="node22" class="node"><title>topo.sheet.optimized.SettlingCFSheet_Opt</title>
<polygon fill="none" stroke="black" stroke-width="0.5" points="1809,-77.5 1589,-77.5 1589,-56.5 1809,-56.5 1809,-77.5"/>
<text text-anchor="middle" x="1699" y="-64.5" font-family="Vera" font-size="10.00">topo.sheet.optimized.SettlingCFSheet_Opt</text>
</g>
<!-- topo.sheet.SettlingCFSheet&#45;&gt;topo.sheet.optimized.SettlingCFSheet_Opt -->
<g id="edge22" class="edge"><title>topo.sheet.SettlingCFSheet&#45;&gt;topo.sheet.optimized.SettlingCFSheet_Opt</title>
<path fill="none" stroke="black" stroke-width="0.5" d="M1551.54,-67C1561.72,-67 1572.35,-67 1583.05,-67"/>
<polygon fill="black" stroke="black" points="1583.3,-68.7501 1588.3,-67 1583.3,-65.2501 1583.3,-68.7501"/>
</g>
</g>
</svg>
