<?xml version="1.0" encoding="UTF-8" standalone="no"?>
<!DOCTYPE svg PUBLIC "-//W3C//DTD SVG 1.1//EN"
 "http://www.w3.org/Graphics/SVG/1.1/DTD/svg11.dtd">
<!-- Generated by graphviz version 2.26.3 (20100126.1600)
 -->
<!-- Title: inheritance36f3b85054 Pages: 1 -->
<svg width="676pt" height="85pt"
 viewBox="0.00 0.00 676.00 85.00" xmlns="http://www.w3.org/2000/svg" xmlns:xlink="http://www.w3.org/1999/xlink">
<g id="graph1" class="graph" transform="scale(1 1) rotate(0) translate(4 81)">
<title>inheritance36f3b85054</title>
<polygon fill="white" stroke="white" points="-4,5 -4,-81 673,-81 673,5 -4,5"/>
<!-- dataviews.ndmapping.NdIndexableMapping -->
<g id="node1" class="node"><title>dataviews.ndmapping.NdIndexableMapping</title>
<polygon fill="none" stroke="black" stroke-width="0.5" points="454,-58.5 230,-58.5 230,-37.5 454,-37.5 454,-58.5"/>
<text text-anchor="middle" x="342" y="-45.5" font-family="Vera" font-size="10.00">dataviews.ndmapping.NdIndexableMapping</text>
</g>
<!-- dataviews.ndmapping.NdMapping -->
<g id="node7" class="node"><title>dataviews.ndmapping.NdMapping</title>
<polygon fill="none" stroke="black" stroke-width="0.5" points="668,-58.5 490,-58.5 490,-37.5 668,-37.5 668,-58.5"/>
<text text-anchor="middle" x="579" y="-45.5" font-family="Vera" font-size="10.00">dataviews.ndmapping.NdMapping</text>
</g>
<!-- dataviews.ndmapping.NdIndexableMapping&#45;&gt;dataviews.ndmapping.NdMapping -->
<g id="edge6" class="edge"><title>dataviews.ndmapping.NdIndexableMapping&#45;&gt;dataviews.ndmapping.NdMapping</title>
<path fill="none" stroke="black" stroke-width="0.5" d="M454.254,-48C464.442,-48 474.692,-48 484.701,-48"/>
<polygon fill="black" stroke="black" points="484.912,-49.7501 489.912,-48 484.912,-46.2501 484.912,-49.7501"/>
</g>
<!-- param.parameterized.Parameterized -->
<g id="node2" class="node"><title>param.parameterized.Parameterized</title>
<polygon fill="none" stroke="black" stroke-width="0.5" points="194,-39.5 5.68434e-14,-39.5 0,-18.5 194,-18.5 194,-39.5"/>
<text text-anchor="middle" x="97" y="-26.5" font-family="Vera" font-size="10.00">param.parameterized.Parameterized</text>
</g>
<!-- param.parameterized.Parameterized&#45;&gt;dataviews.ndmapping.NdIndexableMapping -->
<g id="edge2" class="edge"><title>param.parameterized.Parameterized&#45;&gt;dataviews.ndmapping.NdIndexableMapping</title>
<path fill="none" stroke="black" stroke-width="0.5" d="M194.182,-36.5366C204.286,-37.3201 214.629,-38.1223 224.922,-38.9205"/>
<polygon fill="black" stroke="black" points="224.849,-40.67 229.969,-39.3119 225.12,-37.1805 224.849,-40.67"/>
</g>
<!-- dataviews.ndmapping.Dimension -->
<g id="node4" class="node"><title>dataviews.ndmapping.Dimension</title>
<polygon fill="none" stroke="black" stroke-width="0.5" points="429,-20.5 255,-20.5 255,0.5 429,0.5 429,-20.5"/>
<text text-anchor="middle" x="342" y="-7.5" font-family="Vera" font-size="10.00">dataviews.ndmapping.Dimension</text>
</g>
<!-- param.parameterized.Parameterized&#45;&gt;dataviews.ndmapping.Dimension -->
<g id="edge4" class="edge"><title>param.parameterized.Parameterized&#45;&gt;dataviews.ndmapping.Dimension</title>
<path fill="none" stroke="black" stroke-width="0.5" d="M194.182,-21.4634C212.378,-20.0523 231.353,-18.5808 249.405,-17.1809"/>
<polygon fill="black" stroke="black" points="249.621,-18.9195 254.47,-16.788 249.35,-15.4299 249.621,-18.9195"/>
</g>
<!-- dataviews.ndmapping.AttrDict -->
<g id="node6" class="node"><title>dataviews.ndmapping.AttrDict</title>
<polygon fill="none" stroke="black" stroke-width="0.5" points="177,-77.5 17,-77.5 17,-56.5 177,-56.5 177,-77.5"/>
<text text-anchor="middle" x="97" y="-64.5" font-family="Vera" font-size="10.00">dataviews.ndmapping.AttrDict</text>
</g>
</g>
</svg>
