<?xml version="1.0" encoding="UTF-8" standalone="no"?>
<!DOCTYPE svg PUBLIC "-//W3C//DTD SVG 1.1//EN"
 "http://www.w3.org/Graphics/SVG/1.1/DTD/svg11.dtd">
<!-- Generated by graphviz version 2.26.3 (20100126.1600)
 -->
<!-- Title: inheritance3d1eaa8e0e Pages: 1 -->
<svg width="1284pt" height="199pt"
 viewBox="0.00 0.00 1284.00 199.00" xmlns="http://www.w3.org/2000/svg" xmlns:xlink="http://www.w3.org/1999/xlink">
<g id="graph1" class="graph" transform="scale(1 1) rotate(0) translate(4 195)">
<title>inheritance3d1eaa8e0e</title>
<polygon fill="white" stroke="white" points="-4,5 -4,-195 1281,-195 1281,5 -4,5"/>
<!-- topo.misc.distribution.DSF_BimodalPeaks -->
<g id="node1" class="node"><title>topo.misc.distribution.DSF_BimodalPeaks</title>
<polygon fill="none" stroke="black" stroke-width="0.5" points="1275,-115.5 1061,-115.5 1061,-94.5 1275,-94.5 1275,-115.5"/>
<text text-anchor="middle" x="1168" y="-102.5" font-family="Vera" font-size="10.00">topo.misc.distribution.DSF_BimodalPeaks</text>
</g>
<!-- topo.misc.distribution.DescriptiveBimodalStatisticFn -->
<g id="node2" class="node"><title>topo.misc.distribution.DescriptiveBimodalStatisticFn</title>
<polygon fill="none" stroke="black" stroke-width="0.5" points="1024,-96.5 758,-96.5 758,-75.5 1024,-75.5 1024,-96.5"/>
<text text-anchor="middle" x="891" y="-83.5" font-family="Vera" font-size="10.00">topo.misc.distribution.DescriptiveBimodalStatisticFn</text>
</g>
<!-- topo.misc.distribution.DescriptiveBimodalStatisticFn&#45;&gt;topo.misc.distribution.DSF_BimodalPeaks -->
<g id="edge2" class="edge"><title>topo.misc.distribution.DescriptiveBimodalStatisticFn&#45;&gt;topo.misc.distribution.DSF_BimodalPeaks</title>
<path fill="none" stroke="black" stroke-width="0.5" d="M1024.23,-95.1383C1034.59,-95.849 1044.99,-96.5625 1055.2,-97.2628"/>
<polygon fill="black" stroke="black" points="1055.09,-99.009 1060.19,-97.6054 1055.33,-95.5172 1055.09,-99.009"/>
</g>
<!-- topo.misc.distribution.DSF_TopTwoValues -->
<g id="node22" class="node"><title>topo.misc.distribution.DSF_TopTwoValues</title>
<polygon fill="none" stroke="black" stroke-width="0.5" points="1274,-77.5 1062,-77.5 1062,-56.5 1274,-56.5 1274,-77.5"/>
<text text-anchor="middle" x="1168" y="-64.5" font-family="Vera" font-size="10.00">topo.misc.distribution.DSF_TopTwoValues</text>
</g>
<!-- topo.misc.distribution.DescriptiveBimodalStatisticFn&#45;&gt;topo.misc.distribution.DSF_TopTwoValues -->
<g id="edge20" class="edge"><title>topo.misc.distribution.DescriptiveBimodalStatisticFn&#45;&gt;topo.misc.distribution.DSF_TopTwoValues</title>
<path fill="none" stroke="black" stroke-width="0.5" d="M1024.23,-76.8617C1035.07,-76.1183 1045.95,-75.3719 1056.61,-74.6407"/>
<polygon fill="black" stroke="black" points="1056.95,-76.3713 1061.82,-74.2831 1056.71,-72.8795 1056.95,-76.3713"/>
</g>
<!-- topo.misc.distribution.DSF_BimodalVonMisesFit -->
<g id="node4" class="node"><title>topo.misc.distribution.DSF_BimodalVonMisesFit</title>
<polygon fill="none" stroke="black" stroke-width="0.5" points="1012,-172.5 770,-172.5 770,-151.5 1012,-151.5 1012,-172.5"/>
<text text-anchor="middle" x="891" y="-159.5" font-family="Vera" font-size="10.00">topo.misc.distribution.DSF_BimodalVonMisesFit</text>
</g>
<!-- topo.misc.distribution.VonMisesStatisticFn -->
<g id="node5" class="node"><title>topo.misc.distribution.VonMisesStatisticFn</title>
<polygon fill="none" stroke="black" stroke-width="0.5" points="717,-134.5 499,-134.5 499,-113.5 717,-113.5 717,-134.5"/>
<text text-anchor="middle" x="608" y="-121.5" font-family="Vera" font-size="10.00">topo.misc.distribution.VonMisesStatisticFn</text>
</g>
<!-- topo.misc.distribution.VonMisesStatisticFn&#45;&gt;topo.misc.distribution.DSF_BimodalVonMisesFit -->
<g id="edge4" class="edge"><title>topo.misc.distribution.VonMisesStatisticFn&#45;&gt;topo.misc.distribution.DSF_BimodalVonMisesFit</title>
<path fill="none" stroke="black" stroke-width="0.5" d="M682.725,-134.034C722.219,-139.337 770.718,-145.849 810.976,-151.255"/>
<polygon fill="black" stroke="black" points="811.159,-153.045 816.347,-151.976 811.625,-149.576 811.159,-153.045"/>
</g>
<!-- topo.misc.distribution.DSF_VonMisesFit -->
<g id="node19" class="node"><title>topo.misc.distribution.DSF_VonMisesFit</title>
<polygon fill="none" stroke="black" stroke-width="0.5" points="992,-134.5 790,-134.5 790,-113.5 992,-113.5 992,-134.5"/>
<text text-anchor="middle" x="891" y="-121.5" font-family="Vera" font-size="10.00">topo.misc.distribution.DSF_VonMisesFit</text>
</g>
<!-- topo.misc.distribution.VonMisesStatisticFn&#45;&gt;topo.misc.distribution.DSF_VonMisesFit -->
<g id="edge16" class="edge"><title>topo.misc.distribution.VonMisesStatisticFn&#45;&gt;topo.misc.distribution.DSF_VonMisesFit</title>
<path fill="none" stroke="black" stroke-width="0.5" d="M717.01,-124C739.065,-124 762.234,-124 784.211,-124"/>
<polygon fill="black" stroke="black" points="784.473,-125.75 789.473,-124 784.473,-122.25 784.473,-125.75"/>
</g>
<!-- param.parameterized.Parameterized -->
<g id="node7" class="node"><title>param.parameterized.Parameterized</title>
<polygon fill="none" stroke="black" stroke-width="0.5" points="194,-115.5 5.68434e-14,-115.5 0,-94.5 194,-94.5 194,-115.5"/>
<text text-anchor="middle" x="97" y="-102.5" font-family="Vera" font-size="10.00">param.parameterized.Parameterized</text>
</g>
<!-- topo.misc.distribution.DistributionStatisticFn -->
<g id="node13" class="node"><title>topo.misc.distribution.DistributionStatisticFn</title>
<polygon fill="none" stroke="black" stroke-width="0.5" points="458,-115.5 230,-115.5 230,-94.5 458,-94.5 458,-115.5"/>
<text text-anchor="middle" x="344" y="-102.5" font-family="Vera" font-size="10.00">topo.misc.distribution.DistributionStatisticFn</text>
</g>
<!-- param.parameterized.Parameterized&#45;&gt;topo.misc.distribution.DistributionStatisticFn -->
<g id="edge10" class="edge"><title>param.parameterized.Parameterized&#45;&gt;topo.misc.distribution.DistributionStatisticFn</title>
<path fill="none" stroke="black" stroke-width="0.5" d="M194.266,-105C204.153,-105 214.275,-105 224.362,-105"/>
<polygon fill="black" stroke="black" points="224.633,-106.75 229.633,-105 224.633,-103.25 224.633,-106.75"/>
</g>
<!-- topo.misc.distribution.DSF_WeightedAverage -->
<g id="node8" class="node"><title>topo.misc.distribution.DSF_WeightedAverage</title>
<polygon fill="none" stroke="black" stroke-width="0.5" points="1006,-58.5 776,-58.5 776,-37.5 1006,-37.5 1006,-58.5"/>
<text text-anchor="middle" x="891" y="-45.5" font-family="Vera" font-size="10.00">topo.misc.distribution.DSF_WeightedAverage</text>
</g>
<!-- topo.misc.distribution.DescriptiveStatisticFn -->
<g id="node9" class="node"><title>topo.misc.distribution.DescriptiveStatisticFn</title>
<polygon fill="none" stroke="black" stroke-width="0.5" points="721,-77.5 495,-77.5 495,-56.5 721,-56.5 721,-77.5"/>
<text text-anchor="middle" x="608" y="-64.5" font-family="Vera" font-size="10.00">topo.misc.distribution.DescriptiveStatisticFn</text>
</g>
<!-- topo.misc.distribution.DescriptiveStatisticFn&#45;&gt;topo.misc.distribution.DescriptiveBimodalStatisticFn -->
<g id="edge18" class="edge"><title>topo.misc.distribution.DescriptiveStatisticFn&#45;&gt;topo.misc.distribution.DescriptiveBimodalStatisticFn</title>
<path fill="none" stroke="black" stroke-width="0.5" d="M721.884,-74.6459C732.047,-75.3282 742.408,-76.0239 752.746,-76.7179"/>
<polygon fill="black" stroke="black" points="752.712,-78.4695 757.818,-77.0585 752.947,-74.9774 752.712,-78.4695"/>
</g>
<!-- topo.misc.distribution.DescriptiveStatisticFn&#45;&gt;topo.misc.distribution.DSF_WeightedAverage -->
<g id="edge6" class="edge"><title>topo.misc.distribution.DescriptiveStatisticFn&#45;&gt;topo.misc.distribution.DSF_WeightedAverage</title>
<path fill="none" stroke="black" stroke-width="0.5" d="M721.884,-59.3541C738.03,-58.2701 754.675,-57.1526 770.934,-56.061"/>
<polygon fill="black" stroke="black" points="771.095,-57.8042 775.966,-55.7231 770.86,-54.3121 771.095,-57.8042"/>
</g>
<!-- topo.misc.distribution.DSF_MaxValue -->
<g id="node11" class="node"><title>topo.misc.distribution.DSF_MaxValue</title>
<polygon fill="none" stroke="black" stroke-width="0.5" points="988,-20.5 794,-20.5 794,0.5 988,0.5 988,-20.5"/>
<text text-anchor="middle" x="891" y="-7.5" font-family="Vera" font-size="10.00">topo.misc.distribution.DSF_MaxValue</text>
</g>
<!-- topo.misc.distribution.DescriptiveStatisticFn&#45;&gt;topo.misc.distribution.DSF_MaxValue -->
<g id="edge8" class="edge"><title>topo.misc.distribution.DescriptiveStatisticFn&#45;&gt;topo.misc.distribution.DSF_MaxValue</title>
<path fill="none" stroke="black" stroke-width="0.5" d="M643.219,-56.9498C673.465,-48.5906 718.335,-36.8343 758,-29 773.316,-25.9748 789.715,-23.2327 805.584,-20.8324"/>
<polygon fill="black" stroke="black" points="806.256,-22.5015 810.943,-20.0316 805.739,-19.0399 806.256,-22.5015"/>
</g>
<!-- topo.misc.distribution.DistributionStatisticFn&#45;&gt;topo.misc.distribution.VonMisesStatisticFn -->
<g id="edge12" class="edge"><title>topo.misc.distribution.DistributionStatisticFn&#45;&gt;topo.misc.distribution.VonMisesStatisticFn</title>
<path fill="none" stroke="black" stroke-width="0.5" d="M458.259,-113.223C470.086,-114.074 482.108,-114.94 493.933,-115.791"/>
<polygon fill="black" stroke="black" points="493.875,-117.541 498.988,-116.154 494.127,-114.05 493.875,-117.541"/>
</g>
<!-- topo.misc.distribution.DistributionStatisticFn&#45;&gt;topo.misc.distribution.DescriptiveStatisticFn -->
<g id="edge14" class="edge"><title>topo.misc.distribution.DistributionStatisticFn&#45;&gt;topo.misc.distribution.DescriptiveStatisticFn</title>
<path fill="none" stroke="black" stroke-width="0.5" d="M413.708,-94.9662C450.551,-89.6631 495.794,-83.1509 533.349,-77.7453"/>
<polygon fill="black" stroke="black" points="533.66,-79.4686 538.359,-77.024 533.161,-76.0043 533.66,-79.4686"/>
</g>
<!-- topo.misc.distribution.Distribution -->
<g id="node16" class="node"><title>topo.misc.distribution.Distribution</title>
<polygon fill="none" stroke="black" stroke-width="0.5" points="186,-153.5 8,-153.5 8,-132.5 186,-132.5 186,-153.5"/>
<text text-anchor="middle" x="97" y="-140.5" font-family="Vera" font-size="10.00">topo.misc.distribution.Distribution</text>
</g>
<!-- topo.misc.distribution.Pref -->
<g id="node17" class="node"><title>topo.misc.distribution.Pref</title>
<polygon fill="none" stroke="black" stroke-width="0.5" points="168,-191.5 26,-191.5 26,-170.5 168,-170.5 168,-191.5"/>
<text text-anchor="middle" x="97" y="-178.5" font-family="Vera" font-size="10.00">topo.misc.distribution.Pref</text>
</g>
</g>
</svg>
