<?xml version="1.0" encoding="UTF-8" standalone="no"?>
<!DOCTYPE svg PUBLIC "-//W3C//DTD SVG 1.1//EN"
 "http://www.w3.org/Graphics/SVG/1.1/DTD/svg11.dtd">
<!-- Generated by graphviz version 2.26.3 (20100126.1600)
 -->
<!-- Title: inheritancee08cba1177 Pages: 1 -->
<svg width="1650pt" height="123pt"
 viewBox="0.00 0.00 1650.00 123.00" xmlns="http://www.w3.org/2000/svg" xmlns:xlink="http://www.w3.org/1999/xlink">
<g id="graph1" class="graph" transform="scale(1 1) rotate(0) translate(4 119)">
<title>inheritancee08cba1177</title>
<polygon fill="white" stroke="white" points="-4,5 -4,-119 1647,-119 1647,5 -4,5"/>
<!-- param.parameterized.Parameterized -->
<g id="node1" class="node"><title>param.parameterized.Parameterized</title>
<polygon fill="none" stroke="black" stroke-width="0.5" points="194,-77.5 5.68434e-14,-77.5 0,-56.5 194,-56.5 194,-77.5"/>
<text text-anchor="middle" x="97" y="-64.5" font-family="Vera" font-size="10.00">param.parameterized.Parameterized</text>
</g>
<!-- topo.base.simulation.EventProcessor -->
<g id="node11" class="node"><title>topo.base.simulation.EventProcessor</title>
<polygon fill="none" stroke="black" stroke-width="0.5" points="451,-77.5 257,-77.5 257,-56.5 451,-56.5 451,-77.5"/>
<text text-anchor="middle" x="354" y="-64.5" font-family="Vera" font-size="10.00">topo.base.simulation.EventProcessor</text>
</g>
<!-- param.parameterized.Parameterized&#45;&gt;topo.base.simulation.EventProcessor -->
<g id="edge8" class="edge"><title>param.parameterized.Parameterized&#45;&gt;topo.base.simulation.EventProcessor</title>
<path fill="none" stroke="black" stroke-width="0.5" d="M194.161,-67C212.87,-67 232.524,-67 251.4,-67"/>
<polygon fill="black" stroke="black" points="251.702,-68.7501 256.702,-67 251.702,-65.2501 251.702,-68.7501"/>
</g>
<!-- topo.sheet.SettlingCFSheet -->
<g id="node2" class="node"><title>topo.sheet.SettlingCFSheet</title>
<polygon fill="none" stroke="black" stroke-width="0.5" points="1592,-115.5 1444,-115.5 1444,-94.5 1592,-94.5 1592,-115.5"/>
<text text-anchor="middle" x="1518" y="-102.5" font-family="Vera" font-size="10.00">topo.sheet.SettlingCFSheet</text>
</g>
<!-- topo.sheet.JointNormalizingCFSheet -->
<g id="node3" class="node"><title>topo.sheet.JointNormalizingCFSheet</title>
<polygon fill="none" stroke="black" stroke-width="0.5" points="1357,-96.5 1169,-96.5 1169,-75.5 1357,-75.5 1357,-96.5"/>
<text text-anchor="middle" x="1263" y="-83.5" font-family="Vera" font-size="10.00">topo.sheet.JointNormalizingCFSheet</text>
</g>
<!-- topo.sheet.JointNormalizingCFSheet&#45;&gt;topo.sheet.SettlingCFSheet -->
<g id="edge2" class="edge"><title>topo.sheet.JointNormalizingCFSheet&#45;&gt;topo.sheet.SettlingCFSheet</title>
<path fill="none" stroke="black" stroke-width="0.5" d="M1357.59,-93.0479C1384.17,-95.0281 1412.79,-97.1608 1438.4,-99.0688"/>
<polygon fill="black" stroke="black" points="1438.36,-100.821 1443.48,-99.4473 1438.62,-97.3306 1438.36,-100.821"/>
</g>
<!-- topo.sheet.JointNormalizingCFSheet_Continuous -->
<g id="node5" class="node"><title>topo.sheet.JointNormalizingCFSheet_Continuous</title>
<polygon fill="none" stroke="black" stroke-width="0.5" points="1642,-77.5 1394,-77.5 1394,-56.5 1642,-56.5 1642,-77.5"/>
<text text-anchor="middle" x="1518" y="-64.5" font-family="Vera" font-size="10.00">topo.sheet.JointNormalizingCFSheet_Continuous</text>
</g>
<!-- topo.sheet.JointNormalizingCFSheet&#45;&gt;topo.sheet.JointNormalizingCFSheet_Continuous -->
<g id="edge4" class="edge"><title>topo.sheet.JointNormalizingCFSheet&#45;&gt;topo.sheet.JointNormalizingCFSheet_Continuous</title>
<path fill="none" stroke="black" stroke-width="0.5" d="M1357.59,-78.9521C1367.7,-78.1988 1378.11,-77.4234 1388.53,-76.6468"/>
<polygon fill="black" stroke="black" points="1388.79,-78.3822 1393.65,-76.2655 1388.53,-74.8919 1388.79,-78.3822"/>
</g>
<!-- topo.base.projection.ProjectionSheet -->
<g id="node7" class="node"><title>topo.base.projection.ProjectionSheet</title>
<polygon fill="none" stroke="black" stroke-width="0.5" points="884,-96.5 690,-96.5 690,-75.5 884,-75.5 884,-96.5"/>
<text text-anchor="middle" x="787" y="-83.5" font-family="Vera" font-size="10.00">topo.base.projection.ProjectionSheet</text>
</g>
<!-- topo.base.cf.CFSheet -->
<g id="node15" class="node"><title>topo.base.cf.CFSheet</title>
<polygon fill="none" stroke="black" stroke-width="0.5" points="1092,-96.5 974,-96.5 974,-75.5 1092,-75.5 1092,-96.5"/>
<text text-anchor="middle" x="1033" y="-83.5" font-family="Vera" font-size="10.00">topo.base.cf.CFSheet</text>
</g>
<!-- topo.base.projection.ProjectionSheet&#45;&gt;topo.base.cf.CFSheet -->
<g id="edge14" class="edge"><title>topo.base.projection.ProjectionSheet&#45;&gt;topo.base.cf.CFSheet</title>
<path fill="none" stroke="black" stroke-width="0.5" d="M884.226,-86C912.429,-86 942.524,-86 968.216,-86"/>
<polygon fill="black" stroke="black" points="968.293,-87.7501 973.293,-86 968.293,-84.2501 968.293,-87.7501"/>
</g>
<!-- topo.base.sheet.Sheet -->
<g id="node8" class="node"><title>topo.base.sheet.Sheet</title>
<polygon fill="none" stroke="black" stroke-width="0.5" points="640,-58.5 514,-58.5 514,-37.5 640,-37.5 640,-58.5"/>
<text text-anchor="middle" x="577" y="-45.5" font-family="Vera" font-size="10.00">topo.base.sheet.Sheet</text>
</g>
<!-- topo.base.sheet.Sheet&#45;&gt;topo.base.projection.ProjectionSheet -->
<g id="edge6" class="edge"><title>topo.base.sheet.Sheet&#45;&gt;topo.base.projection.ProjectionSheet</title>
<path fill="none" stroke="black" stroke-width="0.5" d="M628.091,-58.0084C643.478,-60.9678 660.416,-64.1711 676,-67 690.863,-69.6981 706.866,-72.4983 721.967,-75.0932"/>
<polygon fill="black" stroke="black" points="721.826,-76.8446 727.05,-75.9649 722.418,-73.395 721.826,-76.8446"/>
</g>
<!-- topo.base.generatorsheet.GeneratorSheet -->
<g id="node17" class="node"><title>topo.base.generatorsheet.GeneratorSheet</title>
<polygon fill="none" stroke="black" stroke-width="0.5" points="898,-58.5 676,-58.5 676,-37.5 898,-37.5 898,-58.5"/>
<text text-anchor="middle" x="787" y="-45.5" font-family="Vera" font-size="10.00">topo.base.generatorsheet.GeneratorSheet</text>
</g>
<!-- topo.base.sheet.Sheet&#45;&gt;topo.base.generatorsheet.GeneratorSheet -->
<g id="edge16" class="edge"><title>topo.base.sheet.Sheet&#45;&gt;topo.base.generatorsheet.GeneratorSheet</title>
<path fill="none" stroke="black" stroke-width="0.5" d="M640.007,-48C649.766,-48 660.105,-48 670.598,-48"/>
<polygon fill="black" stroke="black" points="670.76,-49.7501 675.76,-48 670.76,-46.2501 670.76,-49.7501"/>
</g>
<!-- topo.sheet.ActivityCopy -->
<g id="node20" class="node"><title>topo.sheet.ActivityCopy</title>
<polygon fill="none" stroke="black" stroke-width="0.5" points="852,-20.5 722,-20.5 722,0.5 852,0.5 852,-20.5"/>
<text text-anchor="middle" x="787" y="-7.5" font-family="Vera" font-size="10.00">topo.sheet.ActivityCopy</text>
</g>
<!-- topo.base.sheet.Sheet&#45;&gt;topo.sheet.ActivityCopy -->
<g id="edge20" class="edge"><title>topo.base.sheet.Sheet&#45;&gt;topo.sheet.ActivityCopy</title>
<path fill="none" stroke="black" stroke-width="0.5" d="M628.091,-37.9916C643.478,-35.0322 660.416,-31.8289 676,-29 690.863,-26.3019 706.866,-23.5017 721.967,-20.9068"/>
<polygon fill="black" stroke="black" points="722.418,-22.605 727.05,-20.0351 721.826,-19.1554 722.418,-22.605"/>
</g>
<!-- dataviews.sheetcoords.SheetCoordinateSystem -->
<g id="node10" class="node"><title>dataviews.sheetcoords.SheetCoordinateSystem</title>
<polygon fill="none" stroke="black" stroke-width="0.5" points="477,-39.5 231,-39.5 231,-18.5 477,-18.5 477,-39.5"/>
<text text-anchor="middle" x="354" y="-26.5" font-family="Vera" font-size="10.00">dataviews.sheetcoords.SheetCoordinateSystem</text>
</g>
<!-- dataviews.sheetcoords.SheetCoordinateSystem&#45;&gt;topo.base.sheet.Sheet -->
<g id="edge12" class="edge"><title>dataviews.sheetcoords.SheetCoordinateSystem&#45;&gt;topo.base.sheet.Sheet</title>
<path fill="none" stroke="black" stroke-width="0.5" d="M471.377,-39.0008C484.139,-40.0881 496.798,-41.1667 508.683,-42.1793"/>
<polygon fill="black" stroke="black" points="508.597,-43.9282 513.727,-42.6091 508.894,-40.4408 508.597,-43.9282"/>
</g>
<!-- topo.base.simulation.EventProcessor&#45;&gt;topo.base.sheet.Sheet -->
<g id="edge10" class="edge"><title>topo.base.simulation.EventProcessor&#45;&gt;topo.base.sheet.Sheet</title>
<path fill="none" stroke="black" stroke-width="0.5" d="M451.162,-58.7216C470.581,-57.0671 490.589,-55.3624 508.779,-53.8126"/>
<polygon fill="black" stroke="black" points="509.025,-55.548 513.859,-53.3797 508.728,-52.0606 509.025,-55.548"/>
</g>
<!-- topo.base.cf.CFSheet&#45;&gt;topo.sheet.JointNormalizingCFSheet -->
<g id="edge18" class="edge"><title>topo.base.cf.CFSheet&#45;&gt;topo.sheet.JointNormalizingCFSheet</title>
<path fill="none" stroke="black" stroke-width="0.5" d="M1092.53,-86C1114.15,-86 1139.21,-86 1163.36,-86"/>
<polygon fill="black" stroke="black" points="1163.49,-87.7501 1168.49,-86 1163.49,-84.2501 1163.49,-87.7501"/>
</g>
<!-- topo.sheet.SequenceGeneratorSheet -->
<g id="node22" class="node"><title>topo.sheet.SequenceGeneratorSheet</title>
<polygon fill="none" stroke="black" stroke-width="0.5" points="1131,-58.5 935,-58.5 935,-37.5 1131,-37.5 1131,-58.5"/>
<text text-anchor="middle" x="1033" y="-45.5" font-family="Vera" font-size="10.00">topo.sheet.SequenceGeneratorSheet</text>
</g>
<!-- topo.base.generatorsheet.GeneratorSheet&#45;&gt;topo.sheet.SequenceGeneratorSheet -->
<g id="edge22" class="edge"><title>topo.base.generatorsheet.GeneratorSheet&#45;&gt;topo.sheet.SequenceGeneratorSheet</title>
<path fill="none" stroke="black" stroke-width="0.5" d="M898.125,-48C908.52,-48 919.029,-48 929.352,-48"/>
<polygon fill="black" stroke="black" points="929.403,-49.7501 934.403,-48 929.403,-46.2501 929.403,-49.7501"/>
</g>
</g>
</svg>
