<?xml version="1.0" encoding="UTF-8" standalone="no"?>
<!DOCTYPE svg PUBLIC "-//W3C//DTD SVG 1.1//EN"
 "http://www.w3.org/Graphics/SVG/1.1/DTD/svg11.dtd">
<!-- Generated by graphviz version 2.26.3 (20100126.1600)
 -->
<!-- Title: inheritance87315e6b61 Pages: 1 -->
<svg width="626pt" height="104pt"
 viewBox="0.00 0.00 626.00 104.00" xmlns="http://www.w3.org/2000/svg" xmlns:xlink="http://www.w3.org/1999/xlink">
<g id="graph1" class="graph" transform="scale(1 1) rotate(0) translate(4 100)">
<title>inheritance87315e6b61</title>
<polygon fill="white" stroke="white" points="-4,5 -4,-100 623,-100 623,5 -4,5"/>
<!-- param.parameterized.Parameterized -->
<g id="node1" class="node"><title>param.parameterized.Parameterized</title>
<polygon fill="none" stroke="black" stroke-width="0.5" points="194,-58.5 5.68434e-14,-58.5 0,-37.5 194,-37.5 194,-58.5"/>
<text text-anchor="middle" x="97" y="-45.5" font-family="Vera" font-size="10.00">param.parameterized.Parameterized</text>
</g>
<!-- topo.base.simulation.EventProcessor -->
<g id="node2" class="node"><title>topo.base.simulation.EventProcessor</title>
<polygon fill="none" stroke="black" stroke-width="0.5" points="424,-58.5 230,-58.5 230,-37.5 424,-37.5 424,-58.5"/>
<text text-anchor="middle" x="327" y="-45.5" font-family="Vera" font-size="10.00">topo.base.simulation.EventProcessor</text>
</g>
<!-- param.parameterized.Parameterized&#45;&gt;topo.base.simulation.EventProcessor -->
<g id="edge2" class="edge"><title>param.parameterized.Parameterized&#45;&gt;topo.base.simulation.EventProcessor</title>
<path fill="none" stroke="black" stroke-width="0.5" d="M194.207,-48C204.23,-48 214.438,-48 224.515,-48"/>
<polygon fill="black" stroke="black" points="224.772,-49.7501 229.772,-48 224.772,-46.2501 224.772,-49.7501"/>
</g>
<!-- topo.base.ep.SumUnit -->
<g id="node4" class="node"><title>topo.base.ep.SumUnit</title>
<polygon fill="none" stroke="black" stroke-width="0.5" points="601,-96.5 477,-96.5 477,-75.5 601,-75.5 601,-96.5"/>
<text text-anchor="middle" x="539" y="-83.5" font-family="Vera" font-size="10.00">topo.base.ep.SumUnit</text>
</g>
<!-- topo.base.simulation.EventProcessor&#45;&gt;topo.base.ep.SumUnit -->
<g id="edge4" class="edge"><title>topo.base.simulation.EventProcessor&#45;&gt;topo.base.ep.SumUnit</title>
<path fill="none" stroke="black" stroke-width="0.5" d="M382.978,-58.0338C412.201,-63.2719 448.006,-69.6898 477.942,-75.0557"/>
<polygon fill="black" stroke="black" points="477.846,-76.8163 483.076,-75.976 478.464,-73.3712 477.846,-76.8163"/>
</g>
<!-- topo.base.ep.ThresholdUnit -->
<g id="node6" class="node"><title>topo.base.ep.ThresholdUnit</title>
<polygon fill="none" stroke="black" stroke-width="0.5" points="613,-58.5 465,-58.5 465,-37.5 613,-37.5 613,-58.5"/>
<text text-anchor="middle" x="539" y="-45.5" font-family="Vera" font-size="10.00">topo.base.ep.ThresholdUnit</text>
</g>
<!-- topo.base.simulation.EventProcessor&#45;&gt;topo.base.ep.ThresholdUnit -->
<g id="edge6" class="edge"><title>topo.base.simulation.EventProcessor&#45;&gt;topo.base.ep.ThresholdUnit</title>
<path fill="none" stroke="black" stroke-width="0.5" d="M424.004,-48C435.728,-48 447.599,-48 459.04,-48"/>
<polygon fill="black" stroke="black" points="459.264,-49.7501 464.264,-48 459.264,-46.2501 459.264,-49.7501"/>
</g>
<!-- topo.base.ep.PulseGenerator -->
<g id="node8" class="node"><title>topo.base.ep.PulseGenerator</title>
<polygon fill="none" stroke="black" stroke-width="0.5" points="617,-20.5 461,-20.5 461,0.5 617,0.5 617,-20.5"/>
<text text-anchor="middle" x="539" y="-7.5" font-family="Vera" font-size="10.00">topo.base.ep.PulseGenerator</text>
</g>
<!-- topo.base.simulation.EventProcessor&#45;&gt;topo.base.ep.PulseGenerator -->
<g id="edge8" class="edge"><title>topo.base.simulation.EventProcessor&#45;&gt;topo.base.ep.PulseGenerator</title>
<path fill="none" stroke="black" stroke-width="0.5" d="M382.978,-37.9662C412.201,-32.7281 448.006,-26.3102 477.942,-20.9443"/>
<polygon fill="black" stroke="black" points="478.464,-22.6288 483.076,-20.024 477.846,-19.1837 478.464,-22.6288"/>
</g>
</g>
</svg>
