<?xml version="1.0" encoding="UTF-8" standalone="no"?>
<!DOCTYPE svg PUBLIC "-//W3C//DTD SVG 1.1//EN"
 "http://www.w3.org/Graphics/SVG/1.1/DTD/svg11.dtd">
<!-- Generated by graphviz version 2.26.3 (20100126.1600)
 -->
<!-- Title: inheritance0f827376bc Pages: 1 -->
<svg width="1360pt" height="28pt"
 viewBox="0.00 0.00 1360.00 28.00" xmlns="http://www.w3.org/2000/svg" xmlns:xlink="http://www.w3.org/1999/xlink">
<g id="graph1" class="graph" transform="scale(1 1) rotate(0) translate(4 24)">
<title>inheritance0f827376bc</title>
<polygon fill="white" stroke="white" points="-4,5 -4,-24 1357,-24 1357,5 -4,5"/>
<!-- featuremapper.command.PatternPresentingCommand -->
<g id="node1" class="node"><title>featuremapper.command.PatternPresentingCommand</title>
<polygon fill="none" stroke="black" stroke-width="0.5" points="778,-20.5 500,-20.5 500,0.5 778,0.5 778,-20.5"/>
<text text-anchor="middle" x="639" y="-7.5" font-family="Vera" font-size="10.00">featuremapper.command.PatternPresentingCommand</text>
</g>
<!-- topo.analysis.featureresponses.pattern_present -->
<g id="node5" class="node"><title>topo.analysis.featureresponses.pattern_present</title>
<polygon fill="none" stroke="black" stroke-width="0.5" points="1061,-20.5 815,-20.5 815,0.5 1061,0.5 1061,-20.5"/>
<text text-anchor="middle" x="938" y="-7.5" font-family="Vera" font-size="10.00">topo.analysis.featureresponses.pattern_present</text>
</g>
<!-- featuremapper.command.PatternPresentingCommand&#45;&gt;topo.analysis.featureresponses.pattern_present -->
<g id="edge6" class="edge"><title>featuremapper.command.PatternPresentingCommand&#45;&gt;topo.analysis.featureresponses.pattern_present</title>
<path fill="none" stroke="black" stroke-width="0.5" d="M778.433,-10C788.769,-10 799.17,-10 809.436,-10"/>
<polygon fill="black" stroke="black" points="809.464,-11.7501 814.464,-10 809.464,-8.2501 809.464,-11.7501"/>
</g>
<!-- param.parameterized.ParameterizedFunction -->
<g id="node2" class="node"><title>param.parameterized.ParameterizedFunction</title>
<polygon fill="none" stroke="black" stroke-width="0.5" points="464,-20.5 230,-20.5 230,0.5 464,0.5 464,-20.5"/>
<text text-anchor="middle" x="347" y="-7.5" font-family="Vera" font-size="10.00">param.parameterized.ParameterizedFunction</text>
</g>
<!-- param.parameterized.ParameterizedFunction&#45;&gt;featuremapper.command.PatternPresentingCommand -->
<g id="edge2" class="edge"><title>param.parameterized.ParameterizedFunction&#45;&gt;featuremapper.command.PatternPresentingCommand</title>
<path fill="none" stroke="black" stroke-width="0.5" d="M464.085,-10C474.175,-10 484.457,-10 494.728,-10"/>
<polygon fill="black" stroke="black" points="494.768,-11.7501 499.768,-10 494.768,-8.2501 494.768,-11.7501"/>
</g>
<!-- topo.analysis.featureresponses.pattern_response -->
<g id="node4" class="node"><title>topo.analysis.featureresponses.pattern_response</title>
<polygon fill="none" stroke="black" stroke-width="0.5" points="1352,-20.5 1098,-20.5 1098,0.5 1352,0.5 1352,-20.5"/>
<text text-anchor="middle" x="1225" y="-7.5" font-family="Vera" font-size="10.00">topo.analysis.featureresponses.pattern_response</text>
</g>
<!-- topo.analysis.featureresponses.pattern_present&#45;&gt;topo.analysis.featureresponses.pattern_response -->
<g id="edge4" class="edge"><title>topo.analysis.featureresponses.pattern_present&#45;&gt;topo.analysis.featureresponses.pattern_response</title>
<path fill="none" stroke="black" stroke-width="0.5" d="M1061.8,-10C1072.1,-10 1082.53,-10 1092.89,-10"/>
<polygon fill="black" stroke="black" points="1092.97,-11.7501 1097.97,-10 1092.97,-8.2501 1092.97,-11.7501"/>
</g>
<!-- param.parameterized.Parameterized -->
<g id="node8" class="node"><title>param.parameterized.Parameterized</title>
<polygon fill="none" stroke="black" stroke-width="0.5" points="194,-20.5 5.68434e-14,-20.5 0,0.5 194,0.5 194,-20.5"/>
<text text-anchor="middle" x="97" y="-7.5" font-family="Vera" font-size="10.00">param.parameterized.Parameterized</text>
</g>
<!-- param.parameterized.Parameterized&#45;&gt;param.parameterized.ParameterizedFunction -->
<g id="edge8" class="edge"><title>param.parameterized.Parameterized&#45;&gt;param.parameterized.ParameterizedFunction</title>
<path fill="none" stroke="black" stroke-width="0.5" d="M194.014,-10C204.04,-10 214.319,-10 224.575,-10"/>
<polygon fill="black" stroke="black" points="224.607,-11.7501 229.607,-10 224.607,-8.2501 224.607,-11.7501"/>
</g>
</g>
</svg>
