<?xml version="1.0" encoding="UTF-8" standalone="no"?>
<!DOCTYPE svg PUBLIC "-//W3C//DTD SVG 1.1//EN"
 "http://www.w3.org/Graphics/SVG/1.1/DTD/svg11.dtd">
<!-- Generated by graphviz version 2.26.3 (20100126.1600)
 -->
<!-- Title: inheritancefe104bf3e4 Pages: 1 -->
<svg width="608pt" height="142pt"
 viewBox="0.00 0.00 608.00 142.00" xmlns="http://www.w3.org/2000/svg" xmlns:xlink="http://www.w3.org/1999/xlink">
<g id="graph1" class="graph" transform="scale(1 1) rotate(0) translate(4 138)">
<title>inheritancefe104bf3e4</title>
<polygon fill="white" stroke="white" points="-4,5 -4,-138 605,-138 605,5 -4,5"/>
<!-- param.parameterized.Parameterized -->
<g id="node1" class="node"><title>param.parameterized.Parameterized</title>
<polygon fill="none" stroke="black" stroke-width="0.5" points="194,-77.5 5.68434e-14,-77.5 0,-56.5 194,-56.5 194,-77.5"/>
<text text-anchor="middle" x="97" y="-64.5" font-family="Vera" font-size="10.00">param.parameterized.Parameterized</text>
</g>
<!-- topo.base.functionfamily.LearningFn -->
<g id="node3" class="node"><title>topo.base.functionfamily.LearningFn</title>
<polygon fill="none" stroke="black" stroke-width="0.5" points="418,-77.5 230,-77.5 230,-56.5 418,-56.5 418,-77.5"/>
<text text-anchor="middle" x="324" y="-64.5" font-family="Vera" font-size="10.00">topo.base.functionfamily.LearningFn</text>
</g>
<!-- param.parameterized.Parameterized&#45;&gt;topo.base.functionfamily.LearningFn -->
<g id="edge10" class="edge"><title>param.parameterized.Parameterized&#45;&gt;topo.base.functionfamily.LearningFn</title>
<path fill="none" stroke="black" stroke-width="0.5" d="M194.256,-67C204.299,-67 214.514,-67 224.58,-67"/>
<polygon fill="black" stroke="black" points="224.828,-68.7501 229.828,-67 224.828,-65.2501 224.828,-68.7501"/>
</g>
<!-- topo.learningfn.BCMFixed -->
<g id="node2" class="node"><title>topo.learningfn.BCMFixed</title>
<polygon fill="none" stroke="black" stroke-width="0.5" points="595,-134.5 459,-134.5 459,-113.5 595,-113.5 595,-134.5"/>
<text text-anchor="middle" x="527" y="-121.5" font-family="Vera" font-size="10.00">topo.learningfn.BCMFixed</text>
</g>
<!-- topo.base.functionfamily.LearningFn&#45;&gt;topo.learningfn.BCMFixed -->
<g id="edge2" class="edge"><title>topo.base.functionfamily.LearningFn&#45;&gt;topo.learningfn.BCMFixed</title>
<path fill="none" stroke="black" stroke-width="0.5" d="M357.32,-77.0362C383.537,-84.8609 421.022,-95.8907 454,-105 463.244,-107.554 473.174,-110.201 482.64,-112.68"/>
<polygon fill="black" stroke="black" points="482.262,-114.39 487.542,-113.959 483.146,-111.003 482.262,-114.39"/>
</g>
<!-- topo.learningfn.Oja -->
<g id="node5" class="node"><title>topo.learningfn.Oja</title>
<polygon fill="none" stroke="black" stroke-width="0.5" points="580,-96.5 474,-96.5 474,-75.5 580,-75.5 580,-96.5"/>
<text text-anchor="middle" x="527" y="-83.5" font-family="Vera" font-size="10.00">topo.learningfn.Oja</text>
</g>
<!-- topo.base.functionfamily.LearningFn&#45;&gt;topo.learningfn.Oja -->
<g id="edge4" class="edge"><title>topo.base.functionfamily.LearningFn&#45;&gt;topo.learningfn.Oja</title>
<path fill="none" stroke="black" stroke-width="0.5" d="M418.072,-75.8048C435.124,-77.4007 452.457,-79.023 468.132,-80.4902"/>
<polygon fill="black" stroke="black" points="468.24,-82.2579 473.381,-80.9815 468.566,-78.7731 468.24,-82.2579"/>
</g>
<!-- topo.learningfn.Covariance -->
<g id="node7" class="node"><title>topo.learningfn.Covariance</title>
<polygon fill="none" stroke="black" stroke-width="0.5" points="599,-58.5 455,-58.5 455,-37.5 599,-37.5 599,-58.5"/>
<text text-anchor="middle" x="527" y="-45.5" font-family="Vera" font-size="10.00">topo.learningfn.Covariance</text>
</g>
<!-- topo.base.functionfamily.LearningFn&#45;&gt;topo.learningfn.Covariance -->
<g id="edge6" class="edge"><title>topo.base.functionfamily.LearningFn&#45;&gt;topo.learningfn.Covariance</title>
<path fill="none" stroke="black" stroke-width="0.5" d="M418.072,-58.1952C428.405,-57.2281 438.842,-56.2513 448.95,-55.3052"/>
<polygon fill="black" stroke="black" points="449.388,-57.0219 454.203,-54.8135 449.062,-53.5371 449.388,-57.0219"/>
</g>
<!-- topo.learningfn.CPCA -->
<g id="node9" class="node"><title>topo.learningfn.CPCA</title>
<polygon fill="none" stroke="black" stroke-width="0.5" points="586,-20.5 468,-20.5 468,0.5 586,0.5 586,-20.5"/>
<text text-anchor="middle" x="527" y="-7.5" font-family="Vera" font-size="10.00">topo.learningfn.CPCA</text>
</g>
<!-- topo.base.functionfamily.LearningFn&#45;&gt;topo.learningfn.CPCA -->
<g id="edge8" class="edge"><title>topo.base.functionfamily.LearningFn&#45;&gt;topo.learningfn.CPCA</title>
<path fill="none" stroke="black" stroke-width="0.5" d="M357.32,-56.9638C383.537,-49.1391 421.022,-38.1093 454,-29 463.244,-26.4464 473.174,-23.799 482.64,-21.3203"/>
<polygon fill="black" stroke="black" points="483.146,-22.997 487.542,-20.0409 482.262,-19.6105 483.146,-22.997"/>
</g>
</g>
</svg>
