<?xml version="1.0" encoding="UTF-8" standalone="no"?>
<!DOCTYPE svg PUBLIC "-//W3C//DTD SVG 1.1//EN"
 "http://www.w3.org/Graphics/SVG/1.1/DTD/svg11.dtd">
<!-- Generated by graphviz version 2.26.3 (20100126.1600)
 -->
<!-- Title: inheritance36d83ca3f9 Pages: 1 -->
<svg width="360pt" height="104pt"
 viewBox="0.00 0.00 360.00 104.00" xmlns="http://www.w3.org/2000/svg" xmlns:xlink="http://www.w3.org/1999/xlink">
<g id="graph1" class="graph" transform="scale(1 1) rotate(0) translate(4 100)">
<title>inheritance36d83ca3f9</title>
<polygon fill="white" stroke="white" points="-4,5 -4,-100 357,-100 357,5 -4,5"/>
<!-- dataviews.ipython.ViewMagic -->
<g id="node1" class="node"><title>dataviews.ipython.ViewMagic</title>
<polygon fill="none" stroke="black" stroke-width="0.5" points="343,-96.5 189,-96.5 189,-75.5 343,-75.5 343,-96.5"/>
<text text-anchor="middle" x="266" y="-83.5" font-family="Vera" font-size="10.00">dataviews.ipython.ViewMagic</text>
</g>
<!-- IPython.core.magic.Magics -->
<g id="node2" class="node"><title>IPython.core.magic.Magics</title>
<polygon fill="none" stroke="black" stroke-width="0.5" points="144,-58.5 5.68434e-14,-58.5 0,-37.5 144,-37.5 144,-58.5"/>
<text text-anchor="middle" x="72" y="-45.5" font-family="Vera" font-size="10.00">IPython.core.magic.Magics</text>
</g>
<!-- IPython.core.magic.Magics&#45;&gt;dataviews.ipython.ViewMagic -->
<g id="edge2" class="edge"><title>IPython.core.magic.Magics&#45;&gt;dataviews.ipython.ViewMagic</title>
<path fill="none" stroke="black" stroke-width="0.5" d="M123.225,-58.0338C149.857,-63.2503 182.461,-69.6368 209.786,-74.9891"/>
<polygon fill="black" stroke="black" points="209.581,-76.7321 214.825,-75.976 210.254,-73.2974 209.581,-76.7321"/>
</g>
<!-- dataviews.ipython.OptsMagic -->
<g id="node4" class="node"><title>dataviews.ipython.OptsMagic</title>
<polygon fill="none" stroke="black" stroke-width="0.5" points="343,-58.5 189,-58.5 189,-37.5 343,-37.5 343,-58.5"/>
<text text-anchor="middle" x="266" y="-45.5" font-family="Vera" font-size="10.00">dataviews.ipython.OptsMagic</text>
</g>
<!-- IPython.core.magic.Magics&#45;&gt;dataviews.ipython.OptsMagic -->
<g id="edge4" class="edge"><title>IPython.core.magic.Magics&#45;&gt;dataviews.ipython.OptsMagic</title>
<path fill="none" stroke="black" stroke-width="0.5" d="M144.238,-48C156.982,-48 170.337,-48 183.341,-48"/>
<polygon fill="black" stroke="black" points="183.498,-49.7501 188.498,-48 183.498,-46.2501 183.498,-49.7501"/>
</g>
<!-- dataviews.ipython.ChannelMagic -->
<g id="node6" class="node"><title>dataviews.ipython.ChannelMagic</title>
<polygon fill="none" stroke="black" stroke-width="0.5" points="352,-20.5 180,-20.5 180,0.5 352,0.5 352,-20.5"/>
<text text-anchor="middle" x="266" y="-7.5" font-family="Vera" font-size="10.00">dataviews.ipython.ChannelMagic</text>
</g>
<!-- IPython.core.magic.Magics&#45;&gt;dataviews.ipython.ChannelMagic -->
<g id="edge6" class="edge"><title>IPython.core.magic.Magics&#45;&gt;dataviews.ipython.ChannelMagic</title>
<path fill="none" stroke="black" stroke-width="0.5" d="M123.225,-37.9662C149.857,-32.7497 182.461,-26.3632 209.786,-21.0109"/>
<polygon fill="black" stroke="black" points="210.254,-22.7026 214.825,-20.024 209.581,-19.2679 210.254,-22.7026"/>
</g>
</g>
</svg>
