<?xml version="1.0" encoding="UTF-8" standalone="no"?>
<!DOCTYPE svg PUBLIC "-//W3C//DTD SVG 1.1//EN"
 "http://www.w3.org/Graphics/SVG/1.1/DTD/svg11.dtd">
<!-- Generated by graphviz version 2.26.3 (20100126.1600)
 -->
<!-- Title: inheritance75655fcdea Pages: 1 -->
<svg width="932pt" height="180pt"
 viewBox="0.00 0.00 932.00 180.00" xmlns="http://www.w3.org/2000/svg" xmlns:xlink="http://www.w3.org/1999/xlink">
<g id="graph1" class="graph" transform="scale(1 1) rotate(0) translate(4 176)">
<title>inheritance75655fcdea</title>
<polygon fill="white" stroke="white" points="-4,5 -4,-176 929,-176 929,5 -4,5"/>
<!-- imagen.analysis.cyclic_similarity_index -->
<g id="node1" class="node"><title>imagen.analysis.cyclic_similarity_index</title>
<polygon fill="none" stroke="black" stroke-width="0.5" points="923,-172.5 723,-172.5 723,-151.5 923,-151.5 923,-172.5"/>
<text text-anchor="middle" x="823" y="-159.5" font-family="Vera" font-size="10.00">imagen.analysis.cyclic_similarity_index</text>
</g>
<!-- dataviews.operation.ViewOperation -->
<g id="node2" class="node"><title>dataviews.operation.ViewOperation</title>
<polygon fill="none" stroke="black" stroke-width="0.5" points="685,-96.5 501,-96.5 501,-75.5 685,-75.5 685,-96.5"/>
<text text-anchor="middle" x="593" y="-83.5" font-family="Vera" font-size="10.00">dataviews.operation.ViewOperation</text>
</g>
<!-- dataviews.operation.ViewOperation&#45;&gt;imagen.analysis.cyclic_similarity_index -->
<g id="edge2" class="edge"><title>dataviews.operation.ViewOperation&#45;&gt;imagen.analysis.cyclic_similarity_index</title>
<path fill="none" stroke="black" stroke-width="0.5" d="M612.13,-96.1295C636.856,-108.826 681.546,-130.442 722,-143 731.738,-146.023 742.162,-148.643 752.479,-150.89"/>
<polygon fill="black" stroke="black" points="752.278,-152.636 757.533,-151.963 753.005,-149.212 752.278,-152.636"/>
</g>
<!-- imagen.analysis.gradient -->
<g id="node4" class="node"><title>imagen.analysis.gradient</title>
<polygon fill="none" stroke="black" stroke-width="0.5" points="891,-134.5 755,-134.5 755,-113.5 891,-113.5 891,-134.5"/>
<text text-anchor="middle" x="823" y="-121.5" font-family="Vera" font-size="10.00">imagen.analysis.gradient</text>
</g>
<!-- dataviews.operation.ViewOperation&#45;&gt;imagen.analysis.gradient -->
<g id="edge4" class="edge"><title>dataviews.operation.ViewOperation&#45;&gt;imagen.analysis.gradient</title>
<path fill="none" stroke="black" stroke-width="0.5" d="M653.731,-96.0338C685.566,-101.294 724.602,-107.743 757.16,-113.122"/>
<polygon fill="black" stroke="black" points="757.11,-114.887 762.328,-113.976 757.68,-111.434 757.11,-114.887"/>
</g>
<!-- imagen.analysis.autocorrelation -->
<g id="node7" class="node"><title>imagen.analysis.autocorrelation</title>
<polygon fill="none" stroke="black" stroke-width="0.5" points="908,-96.5 738,-96.5 738,-75.5 908,-75.5 908,-96.5"/>
<text text-anchor="middle" x="823" y="-83.5" font-family="Vera" font-size="10.00">imagen.analysis.autocorrelation</text>
</g>
<!-- dataviews.operation.ViewOperation&#45;&gt;imagen.analysis.autocorrelation -->
<g id="edge6" class="edge"><title>dataviews.operation.ViewOperation&#45;&gt;imagen.analysis.autocorrelation</title>
<path fill="none" stroke="black" stroke-width="0.5" d="M685.556,-86C701.032,-86 717.073,-86 732.497,-86"/>
<polygon fill="black" stroke="black" points="732.703,-87.7501 737.702,-86 732.702,-84.2501 732.703,-87.7501"/>
</g>
<!-- imagen.analysis.contours -->
<g id="node9" class="node"><title>imagen.analysis.contours</title>
<polygon fill="none" stroke="black" stroke-width="0.5" points="892,-58.5 754,-58.5 754,-37.5 892,-37.5 892,-58.5"/>
<text text-anchor="middle" x="823" y="-45.5" font-family="Vera" font-size="10.00">imagen.analysis.contours</text>
</g>
<!-- dataviews.operation.ViewOperation&#45;&gt;imagen.analysis.contours -->
<g id="edge8" class="edge"><title>dataviews.operation.ViewOperation&#45;&gt;imagen.analysis.contours</title>
<path fill="none" stroke="black" stroke-width="0.5" d="M653.731,-75.9662C685.566,-70.7064 724.602,-64.2571 757.16,-58.8779"/>
<polygon fill="black" stroke="black" points="757.68,-60.5658 762.328,-58.024 757.11,-57.1126 757.68,-60.5658"/>
</g>
<!-- imagen.analysis.fft_power_spectrum -->
<g id="node14" class="node"><title>imagen.analysis.fft_power_spectrum</title>
<polygon fill="none" stroke="black" stroke-width="0.5" points="918,-20.5 728,-20.5 728,0.5 918,0.5 918,-20.5"/>
<text text-anchor="middle" x="823" y="-7.5" font-family="Vera" font-size="10.00">imagen.analysis.fft_power_spectrum</text>
</g>
<!-- dataviews.operation.ViewOperation&#45;&gt;imagen.analysis.fft_power_spectrum -->
<g id="edge14" class="edge"><title>dataviews.operation.ViewOperation&#45;&gt;imagen.analysis.fft_power_spectrum</title>
<path fill="none" stroke="black" stroke-width="0.5" d="M612.13,-75.8705C636.856,-63.1742 681.546,-41.5585 722,-29 731.738,-25.9769 742.162,-23.3567 752.479,-21.1101"/>
<polygon fill="black" stroke="black" points="753.005,-22.7876 757.533,-20.0372 752.278,-19.3639 753.005,-22.7876"/>
</g>
<!-- param.parameterized.Parameterized -->
<g id="node6" class="node"><title>param.parameterized.Parameterized</title>
<polygon fill="none" stroke="black" stroke-width="0.5" points="194,-96.5 5.68434e-14,-96.5 0,-75.5 194,-75.5 194,-96.5"/>
<text text-anchor="middle" x="97" y="-83.5" font-family="Vera" font-size="10.00">param.parameterized.Parameterized</text>
</g>
<!-- param.parameterized.ParameterizedFunction -->
<g id="node11" class="node"><title>param.parameterized.ParameterizedFunction</title>
<polygon fill="none" stroke="black" stroke-width="0.5" points="464,-96.5 230,-96.5 230,-75.5 464,-75.5 464,-96.5"/>
<text text-anchor="middle" x="347" y="-83.5" font-family="Vera" font-size="10.00">param.parameterized.ParameterizedFunction</text>
</g>
<!-- param.parameterized.Parameterized&#45;&gt;param.parameterized.ParameterizedFunction -->
<g id="edge12" class="edge"><title>param.parameterized.Parameterized&#45;&gt;param.parameterized.ParameterizedFunction</title>
<path fill="none" stroke="black" stroke-width="0.5" d="M194.014,-86C204.04,-86 214.319,-86 224.575,-86"/>
<polygon fill="black" stroke="black" points="224.607,-87.7501 229.607,-86 224.607,-84.2501 224.607,-87.7501"/>
</g>
<!-- param.parameterized.ParameterizedFunction&#45;&gt;dataviews.operation.ViewOperation -->
<g id="edge10" class="edge"><title>param.parameterized.ParameterizedFunction&#45;&gt;dataviews.operation.ViewOperation</title>
<path fill="none" stroke="black" stroke-width="0.5" d="M464.236,-86C474.658,-86 485.136,-86 495.368,-86"/>
<polygon fill="black" stroke="black" points="495.37,-87.7501 500.37,-86 495.37,-84.2501 495.37,-87.7501"/>
</g>
</g>
</svg>
