<?xml version="1.0" encoding="UTF-8" standalone="no"?>
<!DOCTYPE svg PUBLIC "-//W3C//DTD SVG 1.1//EN"
 "http://www.w3.org/Graphics/SVG/1.1/DTD/svg11.dtd">
<!-- Generated by graphviz version 2.26.3 (20100126.1600)
 -->
<!-- Title: inheritance50a093cced Pages: 1 -->
<svg width="466pt" height="66pt"
 viewBox="0.00 0.00 466.00 66.00" xmlns="http://www.w3.org/2000/svg" xmlns:xlink="http://www.w3.org/1999/xlink">
<g id="graph1" class="graph" transform="scale(1 1) rotate(0) translate(4 62)">
<title>inheritance50a093cced</title>
<polygon fill="white" stroke="white" points="-4,5 -4,-62 463,-62 463,5 -4,5"/>
<!-- unittest.case.TestCase -->
<g id="node1" class="node"><title>unittest.case.TestCase</title>
<polygon fill="none" stroke="black" stroke-width="0.5" points="125,-39.5 1,-39.5 1,-18.5 125,-18.5 125,-39.5"/>
<text text-anchor="middle" x="63" y="-26.5" font-family="Vera" font-size="10.00">unittest.case.TestCase</text>
</g>
<!-- topo.tests.unit.testpatterngenerator.TestSelector -->
<g id="node2" class="node"><title>topo.tests.unit.testpatterngenerator.TestSelector</title>
<polygon fill="none" stroke="black" stroke-width="0.5" points="435,-58.5 185,-58.5 185,-37.5 435,-37.5 435,-58.5"/>
<text text-anchor="middle" x="310" y="-45.5" font-family="Vera" font-size="10.00">topo.tests.unit.testpatterngenerator.TestSelector</text>
</g>
<!-- unittest.case.TestCase&#45;&gt;topo.tests.unit.testpatterngenerator.TestSelector -->
<g id="edge2" class="edge"><title>unittest.case.TestCase&#45;&gt;topo.tests.unit.testpatterngenerator.TestSelector</title>
<path fill="none" stroke="black" stroke-width="0.5" d="M125.648,-33.8191C142.108,-35.0853 160.492,-36.4994 179.1,-37.9308"/>
<polygon fill="black" stroke="black" points="179.234,-39.6961 184.353,-38.3349 179.502,-36.2064 179.234,-39.6961"/>
</g>
<!-- topo.tests.unit.testpatterngenerator.TestPatternGenerator -->
<g id="node4" class="node"><title>topo.tests.unit.testpatterngenerator.TestPatternGenerator</title>
<polygon fill="none" stroke="black" stroke-width="0.5" points="457,-20.5 163,-20.5 163,0.5 457,0.5 457,-20.5"/>
<text text-anchor="middle" x="310" y="-7.5" font-family="Vera" font-size="10.00">topo.tests.unit.testpatterngenerator.TestPatternGenerator</text>
</g>
<!-- unittest.case.TestCase&#45;&gt;topo.tests.unit.testpatterngenerator.TestPatternGenerator -->
<g id="edge4" class="edge"><title>unittest.case.TestCase&#45;&gt;topo.tests.unit.testpatterngenerator.TestPatternGenerator</title>
<path fill="none" stroke="black" stroke-width="0.5" d="M125.648,-24.1809C140.802,-23.0152 157.586,-21.7242 174.675,-20.4096"/>
<polygon fill="black" stroke="black" points="175.135,-22.1295 179.986,-20.001 174.867,-18.6398 175.135,-22.1295"/>
</g>
</g>
</svg>
