<?xml version="1.0" encoding="UTF-8" standalone="no"?>
<!DOCTYPE svg PUBLIC "-//W3C//DTD SVG 1.1//EN"
 "http://www.w3.org/Graphics/SVG/1.1/DTD/svg11.dtd">
<!-- Generated by graphviz version 2.26.3 (20100126.1600)
 -->
<!-- Title: inheritancee08cba1177 Pages: 1 -->
<svg width="1638pt" height="123pt"
 viewBox="0.00 0.00 1638.00 123.00" xmlns="http://www.w3.org/2000/svg" xmlns:xlink="http://www.w3.org/1999/xlink">
<g id="graph1" class="graph" transform="scale(1 1) rotate(0) translate(4 119)">
<title>inheritancee08cba1177</title>
<polygon fill="white" stroke="white" points="-4,5 -4,-119 1635,-119 1635,5 -4,5"/>
<!-- topo.base.cf.CFSheet -->
<g id="node1" class="node"><title>topo.base.cf.CFSheet</title>
<polygon fill="none" stroke="black" stroke-width="0.5" points="1080,-96.5 962,-96.5 962,-75.5 1080,-75.5 1080,-96.5"/>
<text text-anchor="middle" x="1021" y="-83.5" font-family="Vera" font-size="10.00">topo.base.cf.CFSheet</text>
</g>
<!-- topo.sheet.JointNormalizingCFSheet -->
<g id="node8" class="node"><title>topo.sheet.JointNormalizingCFSheet</title>
<polygon fill="none" stroke="black" stroke-width="0.5" points="1345,-96.5 1157,-96.5 1157,-75.5 1345,-75.5 1345,-96.5"/>
<text text-anchor="middle" x="1251" y="-83.5" font-family="Vera" font-size="10.00">topo.sheet.JointNormalizingCFSheet</text>
</g>
<!-- topo.base.cf.CFSheet&#45;&gt;topo.sheet.JointNormalizingCFSheet -->
<g id="edge12" class="edge"><title>topo.base.cf.CFSheet&#45;&gt;topo.sheet.JointNormalizingCFSheet</title>
<path fill="none" stroke="black" stroke-width="0.5" d="M1080.53,-86C1102.15,-86 1127.21,-86 1151.36,-86"/>
<polygon fill="black" stroke="black" points="1151.49,-87.7501 1156.49,-86 1151.49,-84.2501 1151.49,-87.7501"/>
</g>
<!-- topo.base.projection.ProjectionSheet -->
<g id="node2" class="node"><title>topo.base.projection.ProjectionSheet</title>
<polygon fill="none" stroke="black" stroke-width="0.5" points="872,-96.5 678,-96.5 678,-75.5 872,-75.5 872,-96.5"/>
<text text-anchor="middle" x="775" y="-83.5" font-family="Vera" font-size="10.00">topo.base.projection.ProjectionSheet</text>
</g>
<!-- topo.base.projection.ProjectionSheet&#45;&gt;topo.base.cf.CFSheet -->
<g id="edge2" class="edge"><title>topo.base.projection.ProjectionSheet&#45;&gt;topo.base.cf.CFSheet</title>
<path fill="none" stroke="black" stroke-width="0.5" d="M872.226,-86C900.429,-86 930.524,-86 956.216,-86"/>
<polygon fill="black" stroke="black" points="956.293,-87.7501 961.293,-86 956.293,-84.2501 956.293,-87.7501"/>
</g>
<!-- param.parameterized.Parameterized -->
<g id="node4" class="node"><title>param.parameterized.Parameterized</title>
<polygon fill="none" stroke="black" stroke-width="0.5" points="194,-77.5 5.68434e-14,-77.5 0,-56.5 194,-56.5 194,-77.5"/>
<text text-anchor="middle" x="97" y="-64.5" font-family="Vera" font-size="10.00">param.parameterized.Parameterized</text>
</g>
<!-- topo.base.simulation.EventProcessor -->
<g id="node5" class="node"><title>topo.base.simulation.EventProcessor</title>
<polygon fill="none" stroke="black" stroke-width="0.5" points="445,-77.5 251,-77.5 251,-56.5 445,-56.5 445,-77.5"/>
<text text-anchor="middle" x="348" y="-64.5" font-family="Vera" font-size="10.00">topo.base.simulation.EventProcessor</text>
</g>
<!-- param.parameterized.Parameterized&#45;&gt;topo.base.simulation.EventProcessor -->
<g id="edge4" class="edge"><title>param.parameterized.Parameterized&#45;&gt;topo.base.simulation.EventProcessor</title>
<path fill="none" stroke="black" stroke-width="0.5" d="M194.043,-67C210.921,-67 228.523,-67 245.54,-67"/>
<polygon fill="black" stroke="black" points="245.801,-68.7501 250.801,-67 245.801,-65.2501 245.801,-68.7501"/>
</g>
<!-- topo.base.sheet.Sheet -->
<g id="node12" class="node"><title>topo.base.sheet.Sheet</title>
<polygon fill="none" stroke="black" stroke-width="0.5" points="628,-58.5 502,-58.5 502,-37.5 628,-37.5 628,-58.5"/>
<text text-anchor="middle" x="565" y="-45.5" font-family="Vera" font-size="10.00">topo.base.sheet.Sheet</text>
</g>
<!-- topo.base.simulation.EventProcessor&#45;&gt;topo.base.sheet.Sheet -->
<g id="edge14" class="edge"><title>topo.base.simulation.EventProcessor&#45;&gt;topo.base.sheet.Sheet</title>
<path fill="none" stroke="black" stroke-width="0.5" d="M445.075,-58.5003C462.563,-56.9691 480.451,-55.4029 496.895,-53.9631"/>
<polygon fill="black" stroke="black" points="497.122,-55.7001 501.95,-53.5205 496.816,-52.2134 497.122,-55.7001"/>
</g>
<!-- topo.sheet.JointNormalizingCFSheet_Continuous -->
<g id="node7" class="node"><title>topo.sheet.JointNormalizingCFSheet_Continuous</title>
<polygon fill="none" stroke="black" stroke-width="0.5" points="1630,-115.5 1382,-115.5 1382,-94.5 1630,-94.5 1630,-115.5"/>
<text text-anchor="middle" x="1506" y="-102.5" font-family="Vera" font-size="10.00">topo.sheet.JointNormalizingCFSheet_Continuous</text>
</g>
<!-- topo.sheet.JointNormalizingCFSheet&#45;&gt;topo.sheet.JointNormalizingCFSheet_Continuous -->
<g id="edge6" class="edge"><title>topo.sheet.JointNormalizingCFSheet&#45;&gt;topo.sheet.JointNormalizingCFSheet_Continuous</title>
<path fill="none" stroke="black" stroke-width="0.5" d="M1345.59,-93.0479C1355.7,-93.8012 1366.11,-94.5766 1376.53,-95.3532"/>
<polygon fill="black" stroke="black" points="1376.53,-97.1081 1381.65,-95.7345 1376.79,-93.6178 1376.53,-97.1081"/>
</g>
<!-- topo.sheet.SettlingCFSheet -->
<g id="node20" class="node"><title>topo.sheet.SettlingCFSheet</title>
<polygon fill="none" stroke="black" stroke-width="0.5" points="1580,-77.5 1432,-77.5 1432,-56.5 1580,-56.5 1580,-77.5"/>
<text text-anchor="middle" x="1506" y="-64.5" font-family="Vera" font-size="10.00">topo.sheet.SettlingCFSheet</text>
</g>
<!-- topo.sheet.JointNormalizingCFSheet&#45;&gt;topo.sheet.SettlingCFSheet -->
<g id="edge18" class="edge"><title>topo.sheet.JointNormalizingCFSheet&#45;&gt;topo.sheet.SettlingCFSheet</title>
<path fill="none" stroke="black" stroke-width="0.5" d="M1345.59,-78.9521C1372.17,-76.9719 1400.79,-74.8392 1426.4,-72.9312"/>
<polygon fill="black" stroke="black" points="1426.62,-74.6694 1431.48,-72.5527 1426.36,-71.1791 1426.62,-74.6694"/>
</g>
<!-- imagen.sheetcoords.SheetCoordinateSystem -->
<g id="node10" class="node"><title>imagen.sheetcoords.SheetCoordinateSystem</title>
<polygon fill="none" stroke="black" stroke-width="0.5" points="466,-39.5 230,-39.5 230,-18.5 466,-18.5 466,-39.5"/>
<text text-anchor="middle" x="348" y="-26.5" font-family="Vera" font-size="10.00">imagen.sheetcoords.SheetCoordinateSystem</text>
</g>
<!-- imagen.sheetcoords.SheetCoordinateSystem&#45;&gt;topo.base.sheet.Sheet -->
<g id="edge16" class="edge"><title>imagen.sheetcoords.SheetCoordinateSystem&#45;&gt;topo.base.sheet.Sheet</title>
<path fill="none" stroke="black" stroke-width="0.5" d="M462.219,-39.0008C473.996,-40.0319 485.682,-41.0551 496.721,-42.0217"/>
<polygon fill="black" stroke="black" points="496.612,-43.7687 501.746,-42.4616 496.918,-40.2821 496.612,-43.7687"/>
</g>
<!-- topo.sheet.ActivityCopy -->
<g id="node11" class="node"><title>topo.sheet.ActivityCopy</title>
<polygon fill="none" stroke="black" stroke-width="0.5" points="840,-58.5 710,-58.5 710,-37.5 840,-37.5 840,-58.5"/>
<text text-anchor="middle" x="775" y="-45.5" font-family="Vera" font-size="10.00">topo.sheet.ActivityCopy</text>
</g>
<!-- topo.base.sheet.Sheet&#45;&gt;topo.base.projection.ProjectionSheet -->
<g id="edge20" class="edge"><title>topo.base.sheet.Sheet&#45;&gt;topo.base.projection.ProjectionSheet</title>
<path fill="none" stroke="black" stroke-width="0.5" d="M616.091,-58.0084C631.478,-60.9678 648.416,-64.1711 664,-67 678.863,-69.6981 694.866,-72.4983 709.967,-75.0932"/>
<polygon fill="black" stroke="black" points="709.826,-76.8446 715.05,-75.9649 710.418,-73.395 709.826,-76.8446"/>
</g>
<!-- topo.base.sheet.Sheet&#45;&gt;topo.sheet.ActivityCopy -->
<g id="edge8" class="edge"><title>topo.base.sheet.Sheet&#45;&gt;topo.sheet.ActivityCopy</title>
<path fill="none" stroke="black" stroke-width="0.5" d="M628.007,-48C652.144,-48 679.826,-48 704.611,-48"/>
<polygon fill="black" stroke="black" points="704.854,-49.7501 709.854,-48 704.854,-46.2501 704.854,-49.7501"/>
</g>
<!-- topo.misc.generatorsheet.GeneratorSheet -->
<g id="node15" class="node"><title>topo.misc.generatorsheet.GeneratorSheet</title>
<polygon fill="none" stroke="black" stroke-width="0.5" points="885,-20.5 665,-20.5 665,0.5 885,0.5 885,-20.5"/>
<text text-anchor="middle" x="775" y="-7.5" font-family="Vera" font-size="10.00">topo.misc.generatorsheet.GeneratorSheet</text>
</g>
<!-- topo.base.sheet.Sheet&#45;&gt;topo.misc.generatorsheet.GeneratorSheet -->
<g id="edge22" class="edge"><title>topo.base.sheet.Sheet&#45;&gt;topo.misc.generatorsheet.GeneratorSheet</title>
<path fill="none" stroke="black" stroke-width="0.5" d="M616.091,-37.9916C631.478,-35.0322 648.416,-31.8289 664,-29 678.863,-26.3019 694.866,-23.5017 709.967,-20.9068"/>
<polygon fill="black" stroke="black" points="710.418,-22.605 715.05,-20.0351 709.826,-19.1554 710.418,-22.605"/>
</g>
<!-- topo.sheet.SequenceGeneratorSheet -->
<g id="node14" class="node"><title>topo.sheet.SequenceGeneratorSheet</title>
<polygon fill="none" stroke="black" stroke-width="0.5" points="1119,-20.5 923,-20.5 923,0.5 1119,0.5 1119,-20.5"/>
<text text-anchor="middle" x="1021" y="-7.5" font-family="Vera" font-size="10.00">topo.sheet.SequenceGeneratorSheet</text>
</g>
<!-- topo.misc.generatorsheet.GeneratorSheet&#45;&gt;topo.sheet.SequenceGeneratorSheet -->
<g id="edge10" class="edge"><title>topo.misc.generatorsheet.GeneratorSheet&#45;&gt;topo.sheet.SequenceGeneratorSheet</title>
<path fill="none" stroke="black" stroke-width="0.5" d="M885.766,-10C896.287,-10 906.929,-10 917.379,-10"/>
<polygon fill="black" stroke="black" points="917.493,-11.7501 922.493,-10 917.493,-8.2501 917.493,-11.7501"/>
</g>
</g>
</svg>
