<?xml version="1.0" encoding="UTF-8" standalone="no"?>
<!DOCTYPE svg PUBLIC "-//W3C//DTD SVG 1.1//EN"
 "http://www.w3.org/Graphics/SVG/1.1/DTD/svg11.dtd">
<!-- Generated by graphviz version 2.26.3 (20100126.1600)
 -->
<!-- Title: inheritance3d1eaa8e0e Pages: 1 -->
<svg width="1284pt" height="180pt"
 viewBox="0.00 0.00 1284.00 180.00" xmlns="http://www.w3.org/2000/svg" xmlns:xlink="http://www.w3.org/1999/xlink">
<g id="graph1" class="graph" transform="scale(1 1) rotate(0) translate(4 176)">
<title>inheritance3d1eaa8e0e</title>
<polygon fill="white" stroke="white" points="-4,5 -4,-176 1281,-176 1281,5 -4,5"/>
<!-- topo.misc.distribution.DescriptiveStatisticFn -->
<g id="node1" class="node"><title>topo.misc.distribution.DescriptiveStatisticFn</title>
<polygon fill="none" stroke="black" stroke-width="0.5" points="721,-115.5 495,-115.5 495,-94.5 721,-94.5 721,-115.5"/>
<text text-anchor="middle" x="608" y="-102.5" font-family="Vera" font-size="10.00">topo.misc.distribution.DescriptiveStatisticFn</text>
</g>
<!-- topo.misc.distribution.DSF_MaxValue -->
<g id="node8" class="node"><title>topo.misc.distribution.DSF_MaxValue</title>
<polygon fill="none" stroke="black" stroke-width="0.5" points="988,-172.5 794,-172.5 794,-151.5 988,-151.5 988,-172.5"/>
<text text-anchor="middle" x="891" y="-159.5" font-family="Vera" font-size="10.00">topo.misc.distribution.DSF_MaxValue</text>
</g>
<!-- topo.misc.distribution.DescriptiveStatisticFn&#45;&gt;topo.misc.distribution.DSF_MaxValue -->
<g id="edge6" class="edge"><title>topo.misc.distribution.DescriptiveStatisticFn&#45;&gt;topo.misc.distribution.DSF_MaxValue</title>
<path fill="none" stroke="black" stroke-width="0.5" d="M643.219,-115.05C673.465,-123.409 718.335,-135.166 758,-143 773.316,-146.025 789.715,-148.767 805.584,-151.168"/>
<polygon fill="black" stroke="black" points="805.739,-152.96 810.943,-151.968 806.256,-149.499 805.739,-152.96"/>
</g>
<!-- topo.misc.distribution.DSF_WeightedAverage -->
<g id="node15" class="node"><title>topo.misc.distribution.DSF_WeightedAverage</title>
<polygon fill="none" stroke="black" stroke-width="0.5" points="1006,-134.5 776,-134.5 776,-113.5 1006,-113.5 1006,-134.5"/>
<text text-anchor="middle" x="891" y="-121.5" font-family="Vera" font-size="10.00">topo.misc.distribution.DSF_WeightedAverage</text>
</g>
<!-- topo.misc.distribution.DescriptiveStatisticFn&#45;&gt;topo.misc.distribution.DSF_WeightedAverage -->
<g id="edge12" class="edge"><title>topo.misc.distribution.DescriptiveStatisticFn&#45;&gt;topo.misc.distribution.DSF_WeightedAverage</title>
<path fill="none" stroke="black" stroke-width="0.5" d="M721.884,-112.646C738.03,-113.73 754.675,-114.847 770.934,-115.939"/>
<polygon fill="black" stroke="black" points="770.86,-117.688 775.966,-116.277 771.095,-114.196 770.86,-117.688"/>
</g>
<!-- topo.misc.distribution.DescriptiveBimodalStatisticFn -->
<g id="node19" class="node"><title>topo.misc.distribution.DescriptiveBimodalStatisticFn</title>
<polygon fill="none" stroke="black" stroke-width="0.5" points="1024,-96.5 758,-96.5 758,-75.5 1024,-75.5 1024,-96.5"/>
<text text-anchor="middle" x="891" y="-83.5" font-family="Vera" font-size="10.00">topo.misc.distribution.DescriptiveBimodalStatisticFn</text>
</g>
<!-- topo.misc.distribution.DescriptiveStatisticFn&#45;&gt;topo.misc.distribution.DescriptiveBimodalStatisticFn -->
<g id="edge20" class="edge"><title>topo.misc.distribution.DescriptiveStatisticFn&#45;&gt;topo.misc.distribution.DescriptiveBimodalStatisticFn</title>
<path fill="none" stroke="black" stroke-width="0.5" d="M721.884,-97.3541C732.047,-96.6718 742.408,-95.9761 752.746,-95.2821"/>
<polygon fill="black" stroke="black" points="752.947,-97.0226 757.818,-94.9415 752.712,-93.5305 752.947,-97.0226"/>
</g>
<!-- topo.misc.distribution.DistributionStatisticFn -->
<g id="node2" class="node"><title>topo.misc.distribution.DistributionStatisticFn</title>
<polygon fill="none" stroke="black" stroke-width="0.5" points="458,-77.5 230,-77.5 230,-56.5 458,-56.5 458,-77.5"/>
<text text-anchor="middle" x="344" y="-64.5" font-family="Vera" font-size="10.00">topo.misc.distribution.DistributionStatisticFn</text>
</g>
<!-- topo.misc.distribution.DistributionStatisticFn&#45;&gt;topo.misc.distribution.DescriptiveStatisticFn -->
<g id="edge2" class="edge"><title>topo.misc.distribution.DistributionStatisticFn&#45;&gt;topo.misc.distribution.DescriptiveStatisticFn</title>
<path fill="none" stroke="black" stroke-width="0.5" d="M413.708,-77.0338C450.551,-82.3369 495.794,-88.8491 533.349,-94.2547"/>
<polygon fill="black" stroke="black" points="533.161,-95.9957 538.359,-94.976 533.66,-92.5314 533.161,-95.9957"/>
</g>
<!-- topo.misc.distribution.VonMisesStatisticFn -->
<g id="node6" class="node"><title>topo.misc.distribution.VonMisesStatisticFn</title>
<polygon fill="none" stroke="black" stroke-width="0.5" points="717,-58.5 499,-58.5 499,-37.5 717,-37.5 717,-58.5"/>
<text text-anchor="middle" x="608" y="-45.5" font-family="Vera" font-size="10.00">topo.misc.distribution.VonMisesStatisticFn</text>
</g>
<!-- topo.misc.distribution.DistributionStatisticFn&#45;&gt;topo.misc.distribution.VonMisesStatisticFn -->
<g id="edge14" class="edge"><title>topo.misc.distribution.DistributionStatisticFn&#45;&gt;topo.misc.distribution.VonMisesStatisticFn</title>
<path fill="none" stroke="black" stroke-width="0.5" d="M458.259,-58.7768C470.086,-57.9256 482.108,-57.0604 493.933,-56.2094"/>
<polygon fill="black" stroke="black" points="494.127,-57.95 498.988,-55.8456 493.875,-54.4591 494.127,-57.95"/>
</g>
<!-- topo.misc.distribution.Pref -->
<g id="node4" class="node"><title>topo.misc.distribution.Pref</title>
<polygon fill="none" stroke="black" stroke-width="0.5" points="168,-115.5 26,-115.5 26,-94.5 168,-94.5 168,-115.5"/>
<text text-anchor="middle" x="97" y="-102.5" font-family="Vera" font-size="10.00">topo.misc.distribution.Pref</text>
</g>
<!-- topo.misc.distribution.DSF_BimodalVonMisesFit -->
<g id="node5" class="node"><title>topo.misc.distribution.DSF_BimodalVonMisesFit</title>
<polygon fill="none" stroke="black" stroke-width="0.5" points="1012,-58.5 770,-58.5 770,-37.5 1012,-37.5 1012,-58.5"/>
<text text-anchor="middle" x="891" y="-45.5" font-family="Vera" font-size="10.00">topo.misc.distribution.DSF_BimodalVonMisesFit</text>
</g>
<!-- topo.misc.distribution.VonMisesStatisticFn&#45;&gt;topo.misc.distribution.DSF_BimodalVonMisesFit -->
<g id="edge4" class="edge"><title>topo.misc.distribution.VonMisesStatisticFn&#45;&gt;topo.misc.distribution.DSF_BimodalVonMisesFit</title>
<path fill="none" stroke="black" stroke-width="0.5" d="M717.01,-48C732.539,-48 748.619,-48 764.446,-48"/>
<polygon fill="black" stroke="black" points="764.803,-49.7501 769.803,-48 764.803,-46.2501 764.803,-49.7501"/>
</g>
<!-- topo.misc.distribution.DSF_VonMisesFit -->
<g id="node10" class="node"><title>topo.misc.distribution.DSF_VonMisesFit</title>
<polygon fill="none" stroke="black" stroke-width="0.5" points="992,-20.5 790,-20.5 790,0.5 992,0.5 992,-20.5"/>
<text text-anchor="middle" x="891" y="-7.5" font-family="Vera" font-size="10.00">topo.misc.distribution.DSF_VonMisesFit</text>
</g>
<!-- topo.misc.distribution.VonMisesStatisticFn&#45;&gt;topo.misc.distribution.DSF_VonMisesFit -->
<g id="edge8" class="edge"><title>topo.misc.distribution.VonMisesStatisticFn&#45;&gt;topo.misc.distribution.DSF_VonMisesFit</title>
<path fill="none" stroke="black" stroke-width="0.5" d="M682.725,-37.9662C722.219,-32.6631 770.718,-26.1509 810.976,-20.7453"/>
<polygon fill="black" stroke="black" points="811.625,-22.424 816.347,-20.024 811.159,-18.9551 811.625,-22.424"/>
</g>
<!-- topo.misc.distribution.Distribution -->
<g id="node12" class="node"><title>topo.misc.distribution.Distribution</title>
<polygon fill="none" stroke="black" stroke-width="0.5" points="186,-153.5 8,-153.5 8,-132.5 186,-132.5 186,-153.5"/>
<text text-anchor="middle" x="97" y="-140.5" font-family="Vera" font-size="10.00">topo.misc.distribution.Distribution</text>
</g>
<!-- param.parameterized.Parameterized -->
<g id="node13" class="node"><title>param.parameterized.Parameterized</title>
<polygon fill="none" stroke="black" stroke-width="0.5" points="194,-77.5 5.68434e-14,-77.5 0,-56.5 194,-56.5 194,-77.5"/>
<text text-anchor="middle" x="97" y="-64.5" font-family="Vera" font-size="10.00">param.parameterized.Parameterized</text>
</g>
<!-- param.parameterized.Parameterized&#45;&gt;topo.misc.distribution.DistributionStatisticFn -->
<g id="edge10" class="edge"><title>param.parameterized.Parameterized&#45;&gt;topo.misc.distribution.DistributionStatisticFn</title>
<path fill="none" stroke="black" stroke-width="0.5" d="M194.266,-67C204.153,-67 214.275,-67 224.362,-67"/>
<polygon fill="black" stroke="black" points="224.633,-68.7501 229.633,-67 224.633,-65.2501 224.633,-68.7501"/>
</g>
<!-- topo.misc.distribution.DSF_BimodalPeaks -->
<g id="node18" class="node"><title>topo.misc.distribution.DSF_BimodalPeaks</title>
<polygon fill="none" stroke="black" stroke-width="0.5" points="1275,-115.5 1061,-115.5 1061,-94.5 1275,-94.5 1275,-115.5"/>
<text text-anchor="middle" x="1168" y="-102.5" font-family="Vera" font-size="10.00">topo.misc.distribution.DSF_BimodalPeaks</text>
</g>
<!-- topo.misc.distribution.DescriptiveBimodalStatisticFn&#45;&gt;topo.misc.distribution.DSF_BimodalPeaks -->
<g id="edge16" class="edge"><title>topo.misc.distribution.DescriptiveBimodalStatisticFn&#45;&gt;topo.misc.distribution.DSF_BimodalPeaks</title>
<path fill="none" stroke="black" stroke-width="0.5" d="M1024.23,-95.1383C1034.59,-95.849 1044.99,-96.5625 1055.2,-97.2628"/>
<polygon fill="black" stroke="black" points="1055.09,-99.009 1060.19,-97.6054 1055.33,-95.5172 1055.09,-99.009"/>
</g>
<!-- topo.misc.distribution.DSF_TopTwoValues -->
<g id="node21" class="node"><title>topo.misc.distribution.DSF_TopTwoValues</title>
<polygon fill="none" stroke="black" stroke-width="0.5" points="1274,-77.5 1062,-77.5 1062,-56.5 1274,-56.5 1274,-77.5"/>
<text text-anchor="middle" x="1168" y="-64.5" font-family="Vera" font-size="10.00">topo.misc.distribution.DSF_TopTwoValues</text>
</g>
<!-- topo.misc.distribution.DescriptiveBimodalStatisticFn&#45;&gt;topo.misc.distribution.DSF_TopTwoValues -->
<g id="edge18" class="edge"><title>topo.misc.distribution.DescriptiveBimodalStatisticFn&#45;&gt;topo.misc.distribution.DSF_TopTwoValues</title>
<path fill="none" stroke="black" stroke-width="0.5" d="M1024.23,-76.8617C1035.07,-76.1183 1045.95,-75.3719 1056.61,-74.6407"/>
<polygon fill="black" stroke="black" points="1056.95,-76.3713 1061.82,-74.2831 1056.71,-72.8795 1056.95,-76.3713"/>
</g>
</g>
</svg>
