<?xml version="1.0" encoding="UTF-8" standalone="no"?>
<!DOCTYPE svg PUBLIC "-//W3C//DTD SVG 1.1//EN"
 "http://www.w3.org/Graphics/SVG/1.1/DTD/svg11.dtd">
<!-- Generated by graphviz version 2.26.3 (20100126.1600)
 -->
<!-- Title: inheritancea3b1853c84 Pages: 1 -->
<svg width="1404pt" height="66pt"
 viewBox="0.00 0.00 1404.00 66.00" xmlns="http://www.w3.org/2000/svg" xmlns:xlink="http://www.w3.org/1999/xlink">
<g id="graph1" class="graph" transform="scale(1 1) rotate(0) translate(4 62)">
<title>inheritancea3b1853c84</title>
<polygon fill="white" stroke="white" points="-4,5 -4,-62 1401,-62 1401,5 -4,5"/>
<!-- topo.sheet.saccade.ShiftingGeneratorSheet -->
<g id="node1" class="node"><title>topo.sheet.saccade.ShiftingGeneratorSheet</title>
<polygon fill="none" stroke="black" stroke-width="0.5" points="1395,-58.5 1169,-58.5 1169,-37.5 1395,-37.5 1395,-58.5"/>
<text text-anchor="middle" x="1282" y="-45.5" font-family="Vera" font-size="10.00">topo.sheet.saccade.ShiftingGeneratorSheet</text>
</g>
<!-- topo.sheet.SequenceGeneratorSheet -->
<g id="node2" class="node"><title>topo.sheet.SequenceGeneratorSheet</title>
<polygon fill="none" stroke="black" stroke-width="0.5" points="1131,-58.5 935,-58.5 935,-37.5 1131,-37.5 1131,-58.5"/>
<text text-anchor="middle" x="1033" y="-45.5" font-family="Vera" font-size="10.00">topo.sheet.SequenceGeneratorSheet</text>
</g>
<!-- topo.sheet.SequenceGeneratorSheet&#45;&gt;topo.sheet.saccade.ShiftingGeneratorSheet -->
<g id="edge2" class="edge"><title>topo.sheet.SequenceGeneratorSheet&#45;&gt;topo.sheet.saccade.ShiftingGeneratorSheet</title>
<path fill="none" stroke="black" stroke-width="0.5" d="M1131.77,-48C1142.04,-48 1152.55,-48 1163.01,-48"/>
<polygon fill="black" stroke="black" points="1163.14,-49.7501 1168.14,-48 1163.14,-46.2501 1163.14,-49.7501"/>
</g>
<!-- param.parameterized.Parameterized -->
<g id="node4" class="node"><title>param.parameterized.Parameterized</title>
<polygon fill="none" stroke="black" stroke-width="0.5" points="194,-20.5 5.68434e-14,-20.5 0,0.5 194,0.5 194,-20.5"/>
<text text-anchor="middle" x="97" y="-7.5" font-family="Vera" font-size="10.00">param.parameterized.Parameterized</text>
</g>
<!-- topo.base.simulation.EventProcessor -->
<g id="node11" class="node"><title>topo.base.simulation.EventProcessor</title>
<polygon fill="none" stroke="black" stroke-width="0.5" points="451,-20.5 257,-20.5 257,0.5 451,0.5 451,-20.5"/>
<text text-anchor="middle" x="354" y="-7.5" font-family="Vera" font-size="10.00">topo.base.simulation.EventProcessor</text>
</g>
<!-- param.parameterized.Parameterized&#45;&gt;topo.base.simulation.EventProcessor -->
<g id="edge8" class="edge"><title>param.parameterized.Parameterized&#45;&gt;topo.base.simulation.EventProcessor</title>
<path fill="none" stroke="black" stroke-width="0.5" d="M194.161,-10C212.87,-10 232.524,-10 251.4,-10"/>
<polygon fill="black" stroke="black" points="251.702,-11.7501 256.702,-10 251.702,-8.25009 251.702,-11.7501"/>
</g>
<!-- topo.base.generatorsheet.GeneratorSheet -->
<g id="node5" class="node"><title>topo.base.generatorsheet.GeneratorSheet</title>
<polygon fill="none" stroke="black" stroke-width="0.5" points="898,-58.5 676,-58.5 676,-37.5 898,-37.5 898,-58.5"/>
<text text-anchor="middle" x="787" y="-45.5" font-family="Vera" font-size="10.00">topo.base.generatorsheet.GeneratorSheet</text>
</g>
<!-- topo.base.generatorsheet.GeneratorSheet&#45;&gt;topo.sheet.SequenceGeneratorSheet -->
<g id="edge18" class="edge"><title>topo.base.generatorsheet.GeneratorSheet&#45;&gt;topo.sheet.SequenceGeneratorSheet</title>
<path fill="none" stroke="black" stroke-width="0.5" d="M898.125,-48C908.52,-48 919.029,-48 929.352,-48"/>
<polygon fill="black" stroke="black" points="929.403,-49.7501 934.403,-48 929.403,-46.2501 929.403,-49.7501"/>
</g>
<!-- topo.base.sheet.Sheet -->
<g id="node6" class="node"><title>topo.base.sheet.Sheet</title>
<polygon fill="none" stroke="black" stroke-width="0.5" points="640,-39.5 514,-39.5 514,-18.5 640,-18.5 640,-39.5"/>
<text text-anchor="middle" x="577" y="-26.5" font-family="Vera" font-size="10.00">topo.base.sheet.Sheet</text>
</g>
<!-- topo.base.sheet.Sheet&#45;&gt;topo.base.generatorsheet.GeneratorSheet -->
<g id="edge4" class="edge"><title>topo.base.sheet.Sheet&#45;&gt;topo.base.generatorsheet.GeneratorSheet</title>
<path fill="none" stroke="black" stroke-width="0.5" d="M640.007,-34.7006C649.87,-35.593 660.325,-36.539 670.933,-37.4987"/>
<polygon fill="black" stroke="black" points="671.013,-39.263 676.151,-37.9708 671.329,-35.7773 671.013,-39.263"/>
</g>
<!-- topo.base.projection.ProjectionSheet -->
<g id="node8" class="node"><title>topo.base.projection.ProjectionSheet</title>
<polygon fill="none" stroke="black" stroke-width="0.5" points="884,-20.5 690,-20.5 690,0.5 884,0.5 884,-20.5"/>
<text text-anchor="middle" x="787" y="-7.5" font-family="Vera" font-size="10.00">topo.base.projection.ProjectionSheet</text>
</g>
<!-- topo.base.sheet.Sheet&#45;&gt;topo.base.projection.ProjectionSheet -->
<g id="edge6" class="edge"><title>topo.base.sheet.Sheet&#45;&gt;topo.base.projection.ProjectionSheet</title>
<path fill="none" stroke="black" stroke-width="0.5" d="M640.007,-23.2994C654.118,-22.0227 669.44,-20.6364 684.686,-19.257"/>
<polygon fill="black" stroke="black" points="685.03,-20.9831 689.852,-18.7896 684.715,-17.4973 685.03,-20.9831"/>
</g>
<!-- topo.base.cf.CFSheet -->
<g id="node15" class="node"><title>topo.base.cf.CFSheet</title>
<polygon fill="none" stroke="black" stroke-width="0.5" points="1092,-20.5 974,-20.5 974,0.5 1092,0.5 1092,-20.5"/>
<text text-anchor="middle" x="1033" y="-7.5" font-family="Vera" font-size="10.00">topo.base.cf.CFSheet</text>
</g>
<!-- topo.base.projection.ProjectionSheet&#45;&gt;topo.base.cf.CFSheet -->
<g id="edge14" class="edge"><title>topo.base.projection.ProjectionSheet&#45;&gt;topo.base.cf.CFSheet</title>
<path fill="none" stroke="black" stroke-width="0.5" d="M884.226,-10C912.429,-10 942.524,-10 968.216,-10"/>
<polygon fill="black" stroke="black" points="968.293,-11.7501 973.293,-10 968.293,-8.2501 968.293,-11.7501"/>
</g>
<!-- dataviews.sheetcoords.SheetCoordinateSystem -->
<g id="node10" class="node"><title>dataviews.sheetcoords.SheetCoordinateSystem</title>
<polygon fill="none" stroke="black" stroke-width="0.5" points="477,-58.5 231,-58.5 231,-37.5 477,-37.5 477,-58.5"/>
<text text-anchor="middle" x="354" y="-45.5" font-family="Vera" font-size="10.00">dataviews.sheetcoords.SheetCoordinateSystem</text>
</g>
<!-- dataviews.sheetcoords.SheetCoordinateSystem&#45;&gt;topo.base.sheet.Sheet -->
<g id="edge12" class="edge"><title>dataviews.sheetcoords.SheetCoordinateSystem&#45;&gt;topo.base.sheet.Sheet</title>
<path fill="none" stroke="black" stroke-width="0.5" d="M471.377,-37.9992C484.139,-36.9119 496.798,-35.8333 508.683,-34.8207"/>
<polygon fill="black" stroke="black" points="508.894,-36.5592 513.727,-34.3909 508.597,-33.0718 508.894,-36.5592"/>
</g>
<!-- topo.base.simulation.EventProcessor&#45;&gt;topo.base.sheet.Sheet -->
<g id="edge10" class="edge"><title>topo.base.simulation.EventProcessor&#45;&gt;topo.base.sheet.Sheet</title>
<path fill="none" stroke="black" stroke-width="0.5" d="M451.162,-18.2784C470.581,-19.9329 490.589,-21.6376 508.779,-23.1874"/>
<polygon fill="black" stroke="black" points="508.728,-24.9394 513.859,-23.6203 509.025,-21.452 508.728,-24.9394"/>
</g>
<!-- topo.sheet.saccade.SaccadeController -->
<g id="node17" class="node"><title>topo.sheet.saccade.SaccadeController</title>
<polygon fill="none" stroke="black" stroke-width="0.5" points="1383,-20.5 1181,-20.5 1181,0.5 1383,0.5 1383,-20.5"/>
<text text-anchor="middle" x="1282" y="-7.5" font-family="Vera" font-size="10.00">topo.sheet.saccade.SaccadeController</text>
</g>
<!-- topo.base.cf.CFSheet&#45;&gt;topo.sheet.saccade.SaccadeController -->
<g id="edge16" class="edge"><title>topo.base.cf.CFSheet&#45;&gt;topo.sheet.saccade.SaccadeController</title>
<path fill="none" stroke="black" stroke-width="0.5" d="M1092.64,-10C1117.43,-10 1146.97,-10 1175.27,-10"/>
<polygon fill="black" stroke="black" points="1175.54,-11.7501 1180.54,-10 1175.54,-8.25009 1175.54,-11.7501"/>
</g>
</g>
</svg>
