<?xml version="1.0" encoding="UTF-8" standalone="no"?>
<!DOCTYPE svg PUBLIC "-//W3C//DTD SVG 1.1//EN"
 "http://www.w3.org/Graphics/SVG/1.1/DTD/svg11.dtd">
<!-- Generated by graphviz version 2.26.3 (20100126.1600)
 -->
<!-- Title: inheritance8c61d587de Pages: 1 -->
<svg width="166pt" height="294pt"
 viewBox="0.00 0.00 166.00 294.00" xmlns="http://www.w3.org/2000/svg" xmlns:xlink="http://www.w3.org/1999/xlink">
<g id="graph1" class="graph" transform="scale(1 1) rotate(0) translate(4 290)">
<title>inheritance8c61d587de</title>
<polygon fill="white" stroke="white" points="-4,5 -4,-290 163,-290 163,5 -4,5"/>
<!-- topo.misc.asizeof._Slots -->
<g id="node1" class="node"><title>topo.misc.asizeof._Slots</title>
<polygon fill="none" stroke="black" stroke-width="0.5" points="145,-20.5 13,-20.5 13,0.5 145,0.5 145,-20.5"/>
<text text-anchor="middle" x="79" y="-7.5" font-family="Vera" font-size="10.00">topo.misc.asizeof._Slots</text>
</g>
<!-- topo.misc.asizeof._Typedef -->
<g id="node2" class="node"><title>topo.misc.asizeof._Typedef</title>
<polygon fill="none" stroke="black" stroke-width="0.5" points="151,-58.5 7,-58.5 7,-37.5 151,-37.5 151,-58.5"/>
<text text-anchor="middle" x="79" y="-45.5" font-family="Vera" font-size="10.00">topo.misc.asizeof._Typedef</text>
</g>
<!-- topo.misc.asizeof._Claskey -->
<g id="node3" class="node"><title>topo.misc.asizeof._Claskey</title>
<polygon fill="none" stroke="black" stroke-width="0.5" points="151,-96.5 7,-96.5 7,-75.5 151,-75.5 151,-96.5"/>
<text text-anchor="middle" x="79" y="-83.5" font-family="Vera" font-size="10.00">topo.misc.asizeof._Claskey</text>
</g>
<!-- topo.misc.asizeof._Instkey -->
<g id="node4" class="node"><title>topo.misc.asizeof._Instkey</title>
<polygon fill="none" stroke="black" stroke-width="0.5" points="150,-134.5 8,-134.5 8,-113.5 150,-113.5 150,-134.5"/>
<text text-anchor="middle" x="79" y="-121.5" font-family="Vera" font-size="10.00">topo.misc.asizeof._Instkey</text>
</g>
<!-- topo.misc.asizeof._Prof -->
<g id="node5" class="node"><title>topo.misc.asizeof._Prof</title>
<polygon fill="none" stroke="black" stroke-width="0.5" points="142,-172.5 16,-172.5 16,-151.5 142,-151.5 142,-172.5"/>
<text text-anchor="middle" x="79" y="-159.5" font-family="Vera" font-size="10.00">topo.misc.asizeof._Prof</text>
</g>
<!-- topo.misc.asizeof._NamedRef -->
<g id="node6" class="node"><title>topo.misc.asizeof._NamedRef</title>
<polygon fill="none" stroke="black" stroke-width="0.5" points="158,-210.5 7.10543e-14,-210.5 0,-189.5 158,-189.5 158,-210.5"/>
<text text-anchor="middle" x="79" y="-197.5" font-family="Vera" font-size="10.00">topo.misc.asizeof._NamedRef</text>
</g>
<!-- topo.misc.asizeof.Asized -->
<g id="node7" class="node"><title>topo.misc.asizeof.Asized</title>
<polygon fill="none" stroke="black" stroke-width="0.5" points="146,-248.5 12,-248.5 12,-227.5 146,-227.5 146,-248.5"/>
<text text-anchor="middle" x="79" y="-235.5" font-family="Vera" font-size="10.00">topo.misc.asizeof.Asized</text>
</g>
<!-- topo.misc.asizeof.Asizer -->
<g id="node8" class="node"><title>topo.misc.asizeof.Asizer</title>
<polygon fill="none" stroke="black" stroke-width="0.5" points="145,-286.5 13,-286.5 13,-265.5 145,-265.5 145,-286.5"/>
<text text-anchor="middle" x="79" y="-273.5" font-family="Vera" font-size="10.00">topo.misc.asizeof.Asizer</text>
</g>
</g>
</svg>
