<?xml version="1.0" encoding="UTF-8" standalone="no"?>
<!DOCTYPE svg PUBLIC "-//W3C//DTD SVG 1.1//EN"
 "http://www.w3.org/Graphics/SVG/1.1/DTD/svg11.dtd">
<!-- Generated by graphviz version 2.26.3 (20100126.1600)
 -->
<!-- Title: inheritance5a1c78b06b Pages: 1 -->
<svg width="682pt" height="28pt"
 viewBox="0.00 0.00 682.00 28.00" xmlns="http://www.w3.org/2000/svg" xmlns:xlink="http://www.w3.org/1999/xlink">
<g id="graph1" class="graph" transform="scale(1 1) rotate(0) translate(4 24)">
<title>inheritance5a1c78b06b</title>
<polygon fill="white" stroke="white" points="-4,5 -4,-24 679,-24 679,5 -4,5"/>
<!-- imagen.patterngenerator.Constant -->
<g id="node1" class="node"><title>imagen.patterngenerator.Constant</title>
<polygon fill="none" stroke="black" stroke-width="0.5" points="674,-20.5 490,-20.5 490,0.5 674,0.5 674,-20.5"/>
<text text-anchor="middle" x="582" y="-7.5" font-family="Vera" font-size="10.00">imagen.patterngenerator.Constant</text>
</g>
<!-- imagen.patterngenerator.PatternGenerator -->
<g id="node2" class="node"><title>imagen.patterngenerator.PatternGenerator</title>
<polygon fill="none" stroke="black" stroke-width="0.5" points="454,-20.5 230,-20.5 230,0.5 454,0.5 454,-20.5"/>
<text text-anchor="middle" x="342" y="-7.5" font-family="Vera" font-size="10.00">imagen.patterngenerator.PatternGenerator</text>
</g>
<!-- imagen.patterngenerator.PatternGenerator&#45;&gt;imagen.patterngenerator.Constant -->
<g id="edge2" class="edge"><title>imagen.patterngenerator.PatternGenerator&#45;&gt;imagen.patterngenerator.Constant</title>
<path fill="none" stroke="black" stroke-width="0.5" d="M454.27,-10C464.451,-10 474.707,-10 484.742,-10"/>
<polygon fill="black" stroke="black" points="484.968,-11.7501 489.968,-10 484.968,-8.2501 484.968,-11.7501"/>
</g>
<!-- param.parameterized.Parameterized -->
<g id="node4" class="node"><title>param.parameterized.Parameterized</title>
<polygon fill="none" stroke="black" stroke-width="0.5" points="194,-20.5 5.68434e-14,-20.5 0,0.5 194,0.5 194,-20.5"/>
<text text-anchor="middle" x="97" y="-7.5" font-family="Vera" font-size="10.00">param.parameterized.Parameterized</text>
</g>
<!-- param.parameterized.Parameterized&#45;&gt;imagen.patterngenerator.PatternGenerator -->
<g id="edge4" class="edge"><title>param.parameterized.Parameterized&#45;&gt;imagen.patterngenerator.PatternGenerator</title>
<path fill="none" stroke="black" stroke-width="0.5" d="M194.182,-10C204.286,-10 214.629,-10 224.922,-10"/>
<polygon fill="black" stroke="black" points="224.969,-11.7501 229.969,-10 224.969,-8.2501 224.969,-11.7501"/>
</g>
</g>
</svg>
