<?xml version="1.0" encoding="UTF-8" standalone="no"?>
<!DOCTYPE svg PUBLIC "-//W3C//DTD SVG 1.1//EN"
 "http://www.w3.org/Graphics/SVG/1.1/DTD/svg11.dtd">
<!-- Generated by graphviz version 2.26.3 (20100126.1600)
 -->
<!-- Title: inheritance9cc735fe36 Pages: 1 -->
<svg width="678pt" height="66pt"
 viewBox="0.00 0.00 678.00 66.00" xmlns="http://www.w3.org/2000/svg" xmlns:xlink="http://www.w3.org/1999/xlink">
<g id="graph1" class="graph" transform="scale(1 1) rotate(0) translate(4 62)">
<title>inheritance9cc735fe36</title>
<polygon fill="white" stroke="white" points="-4,5 -4,-62 675,-62 675,5 -4,5"/>
<!-- topo.base.cf.CFPResponseFn -->
<g id="node1" class="node"><title>topo.base.cf.CFPResponseFn</title>
<polygon fill="none" stroke="black" stroke-width="0.5" points="383,-39.5 231,-39.5 231,-18.5 383,-18.5 383,-39.5"/>
<text text-anchor="middle" x="307" y="-26.5" font-family="Vera" font-size="10.00">topo.base.cf.CFPResponseFn</text>
</g>
<!-- topo.responsefn.projfn.CFPRF_EuclideanDistance -->
<g id="node4" class="node"><title>topo.responsefn.projfn.CFPRF_EuclideanDistance</title>
<polygon fill="none" stroke="black" stroke-width="0.5" points="670,-58.5 420,-58.5 420,-37.5 670,-37.5 670,-58.5"/>
<text text-anchor="middle" x="545" y="-45.5" font-family="Vera" font-size="10.00">topo.responsefn.projfn.CFPRF_EuclideanDistance</text>
</g>
<!-- topo.base.cf.CFPResponseFn&#45;&gt;topo.responsefn.projfn.CFPRF_EuclideanDistance -->
<g id="edge4" class="edge"><title>topo.base.cf.CFPResponseFn&#45;&gt;topo.responsefn.projfn.CFPRF_EuclideanDistance</title>
<path fill="none" stroke="black" stroke-width="0.5" d="M383.615,-35.1163C393.541,-35.9087 403.92,-36.7373 414.42,-37.5756"/>
<polygon fill="black" stroke="black" points="414.46,-39.3342 419.583,-37.9877 414.738,-35.8453 414.46,-39.3342"/>
</g>
<!-- topo.responsefn.projfn.CFPRF_ActivityBased -->
<g id="node6" class="node"><title>topo.responsefn.projfn.CFPRF_ActivityBased</title>
<polygon fill="none" stroke="black" stroke-width="0.5" points="658,-20.5 432,-20.5 432,0.5 658,0.5 658,-20.5"/>
<text text-anchor="middle" x="545" y="-7.5" font-family="Vera" font-size="10.00">topo.responsefn.projfn.CFPRF_ActivityBased</text>
</g>
<!-- topo.base.cf.CFPResponseFn&#45;&gt;topo.responsefn.projfn.CFPRF_ActivityBased -->
<g id="edge6" class="edge"><title>topo.base.cf.CFPResponseFn&#45;&gt;topo.responsefn.projfn.CFPRF_ActivityBased</title>
<path fill="none" stroke="black" stroke-width="0.5" d="M383.615,-22.8837C397.17,-21.8016 411.569,-20.6521 425.968,-19.5026"/>
<polygon fill="black" stroke="black" points="426.427,-21.2216 431.272,-19.0792 426.148,-17.7327 426.427,-21.2216"/>
</g>
<!-- param.parameterized.Parameterized -->
<g id="node2" class="node"><title>param.parameterized.Parameterized</title>
<polygon fill="none" stroke="black" stroke-width="0.5" points="194,-39.5 5.68434e-14,-39.5 0,-18.5 194,-18.5 194,-39.5"/>
<text text-anchor="middle" x="97" y="-26.5" font-family="Vera" font-size="10.00">param.parameterized.Parameterized</text>
</g>
<!-- param.parameterized.Parameterized&#45;&gt;topo.base.cf.CFPResponseFn -->
<g id="edge2" class="edge"><title>param.parameterized.Parameterized&#45;&gt;topo.base.cf.CFPResponseFn</title>
<path fill="none" stroke="black" stroke-width="0.5" d="M194.009,-29C204.35,-29 214.795,-29 224.94,-29"/>
<polygon fill="black" stroke="black" points="225.216,-30.7501 230.216,-29 225.216,-27.2501 225.216,-30.7501"/>
</g>
</g>
</svg>
