<?xml version="1.0" encoding="UTF-8" standalone="no"?>
<!DOCTYPE svg PUBLIC "-//W3C//DTD SVG 1.1//EN"
 "http://www.w3.org/Graphics/SVG/1.1/DTD/svg11.dtd">
<!-- Generated by graphviz version 2.26.3 (20100126.1600)
 -->
<!-- Title: inheritanced74a500e8c Pages: 1 -->
<svg width="848pt" height="104pt"
 viewBox="0.00 0.00 848.00 104.00" xmlns="http://www.w3.org/2000/svg" xmlns:xlink="http://www.w3.org/1999/xlink">
<g id="graph1" class="graph" transform="scale(1 1) rotate(0) translate(4 100)">
<title>inheritanced74a500e8c</title>
<polygon fill="white" stroke="white" points="-4,5 -4,-100 845,-100 845,5 -4,5"/>
<!-- imagen.image.GenericImage -->
<g id="node1" class="node"><title>imagen.image.GenericImage</title>
<polygon fill="none" stroke="black" stroke-width="0.5" points="657,-96.5 503,-96.5 503,-75.5 657,-75.5 657,-96.5"/>
<text text-anchor="middle" x="580" y="-83.5" font-family="Vera" font-size="10.00">imagen.image.GenericImage</text>
</g>
<!-- imagen.image.FileImage -->
<g id="node12" class="node"><title>imagen.image.FileImage</title>
<polygon fill="none" stroke="black" stroke-width="0.5" points="840,-96.5 706,-96.5 706,-75.5 840,-75.5 840,-96.5"/>
<text text-anchor="middle" x="773" y="-83.5" font-family="Vera" font-size="10.00">imagen.image.FileImage</text>
</g>
<!-- imagen.image.GenericImage&#45;&gt;imagen.image.FileImage -->
<g id="edge12" class="edge"><title>imagen.image.GenericImage&#45;&gt;imagen.image.FileImage</title>
<path fill="none" stroke="black" stroke-width="0.5" d="M657.666,-86C671.846,-86 686.591,-86 700.61,-86"/>
<polygon fill="black" stroke="black" points="700.739,-87.7501 705.739,-86 700.739,-84.2501 700.739,-87.7501"/>
</g>
<!-- imagen.patterngenerator.PatternGenerator -->
<g id="node2" class="node"><title>imagen.patterngenerator.PatternGenerator</title>
<polygon fill="none" stroke="black" stroke-width="0.5" points="454,-96.5 230,-96.5 230,-75.5 454,-75.5 454,-96.5"/>
<text text-anchor="middle" x="342" y="-83.5" font-family="Vera" font-size="10.00">imagen.patterngenerator.PatternGenerator</text>
</g>
<!-- imagen.patterngenerator.PatternGenerator&#45;&gt;imagen.image.GenericImage -->
<g id="edge2" class="edge"><title>imagen.patterngenerator.PatternGenerator&#45;&gt;imagen.image.GenericImage</title>
<path fill="none" stroke="black" stroke-width="0.5" d="M454.031,-86C468.527,-86 483.162,-86 497.07,-86"/>
<polygon fill="black" stroke="black" points="497.16,-87.7501 502.16,-86 497.16,-84.2501 497.16,-87.7501"/>
</g>
<!-- imagen.image.FastImageSampler -->
<g id="node4" class="node"><title>imagen.image.FastImageSampler</title>
<polygon fill="none" stroke="black" stroke-width="0.5" points="669,-58.5 491,-58.5 491,-37.5 669,-37.5 669,-58.5"/>
<text text-anchor="middle" x="580" y="-45.5" font-family="Vera" font-size="10.00">imagen.image.FastImageSampler</text>
</g>
<!-- imagen.image.ImageSampler -->
<g id="node5" class="node"><title>imagen.image.ImageSampler</title>
<polygon fill="none" stroke="black" stroke-width="0.5" points="421,-58.5 263,-58.5 263,-37.5 421,-37.5 421,-58.5"/>
<text text-anchor="middle" x="342" y="-45.5" font-family="Vera" font-size="10.00">imagen.image.ImageSampler</text>
</g>
<!-- imagen.image.ImageSampler&#45;&gt;imagen.image.FastImageSampler -->
<g id="edge4" class="edge"><title>imagen.image.ImageSampler&#45;&gt;imagen.image.FastImageSampler</title>
<path fill="none" stroke="black" stroke-width="0.5" d="M421.581,-48C441.973,-48 464.106,-48 485.183,-48"/>
<polygon fill="black" stroke="black" points="485.23,-49.7501 490.23,-48 485.23,-46.2501 485.23,-49.7501"/>
</g>
<!-- imagen.image.PatternSampler -->
<g id="node9" class="node"><title>imagen.image.PatternSampler</title>
<polygon fill="none" stroke="black" stroke-width="0.5" points="662,-20.5 498,-20.5 498,0.5 662,0.5 662,-20.5"/>
<text text-anchor="middle" x="580" y="-7.5" font-family="Vera" font-size="10.00">imagen.image.PatternSampler</text>
</g>
<!-- imagen.image.ImageSampler&#45;&gt;imagen.image.PatternSampler -->
<g id="edge8" class="edge"><title>imagen.image.ImageSampler&#45;&gt;imagen.image.PatternSampler</title>
<path fill="none" stroke="black" stroke-width="0.5" d="M404.843,-37.9662C437.786,-32.7064 478.179,-26.2571 511.87,-20.8779"/>
<polygon fill="black" stroke="black" points="512.556,-22.5406 517.218,-20.024 512.004,-19.0843 512.556,-22.5406"/>
</g>
<!-- param.parameterized.Parameterized -->
<g id="node7" class="node"><title>param.parameterized.Parameterized</title>
<polygon fill="none" stroke="black" stroke-width="0.5" points="194,-77.5 5.68434e-14,-77.5 0,-56.5 194,-56.5 194,-77.5"/>
<text text-anchor="middle" x="97" y="-64.5" font-family="Vera" font-size="10.00">param.parameterized.Parameterized</text>
</g>
<!-- param.parameterized.Parameterized&#45;&gt;imagen.patterngenerator.PatternGenerator -->
<g id="edge10" class="edge"><title>param.parameterized.Parameterized&#45;&gt;imagen.patterngenerator.PatternGenerator</title>
<path fill="none" stroke="black" stroke-width="0.5" d="M194.182,-74.5366C204.286,-75.3201 214.629,-76.1223 224.922,-76.9205"/>
<polygon fill="black" stroke="black" points="224.849,-78.67 229.969,-77.3119 225.12,-75.1805 224.849,-78.67"/>
</g>
<!-- param.parameterized.Parameterized&#45;&gt;imagen.image.ImageSampler -->
<g id="edge6" class="edge"><title>param.parameterized.Parameterized&#45;&gt;imagen.image.ImageSampler</title>
<path fill="none" stroke="black" stroke-width="0.5" d="M194.182,-59.4634C214.997,-57.8492 236.831,-56.156 257.136,-54.5813"/>
<polygon fill="black" stroke="black" points="257.415,-56.315 262.264,-54.1836 257.144,-52.8255 257.415,-56.315"/>
</g>
</g>
</svg>
