<?xml version="1.0" encoding="UTF-8" standalone="no"?>
<!DOCTYPE svg PUBLIC "-//W3C//DTD SVG 1.1//EN"
 "http://www.w3.org/Graphics/SVG/1.1/DTD/svg11.dtd">
<!-- Generated by graphviz version 2.26.3 (20100126.1600)
 -->
<!-- Title: inheritancea9586fb404 Pages: 1 -->
<svg width="634pt" height="294pt"
 viewBox="0.00 0.00 634.00 294.00" xmlns="http://www.w3.org/2000/svg" xmlns:xlink="http://www.w3.org/1999/xlink">
<g id="graph1" class="graph" transform="scale(1 1) rotate(0) translate(4 290)">
<title>inheritancea9586fb404</title>
<polygon fill="white" stroke="white" points="-4,5 -4,-290 631,-290 631,5 -4,5"/>
<!-- param.parameterized.Parameterized -->
<g id="node1" class="node"><title>param.parameterized.Parameterized</title>
<polygon fill="none" stroke="black" stroke-width="0.5" points="194,-153.5 5.68434e-14,-153.5 0,-132.5 194,-132.5 194,-153.5"/>
<text text-anchor="middle" x="97" y="-140.5" font-family="Vera" font-size="10.00">param.parameterized.Parameterized</text>
</g>
<!-- imagen.transferfn.TransferFn -->
<g id="node3" class="node"><title>imagen.transferfn.TransferFn</title>
<polygon fill="none" stroke="black" stroke-width="0.5" points="384,-153.5 230,-153.5 230,-132.5 384,-132.5 384,-153.5"/>
<text text-anchor="middle" x="307" y="-140.5" font-family="Vera" font-size="10.00">imagen.transferfn.TransferFn</text>
</g>
<!-- param.parameterized.Parameterized&#45;&gt;imagen.transferfn.TransferFn -->
<g id="edge16" class="edge"><title>param.parameterized.Parameterized&#45;&gt;imagen.transferfn.TransferFn</title>
<path fill="none" stroke="black" stroke-width="0.5" d="M194.009,-143C204.259,-143 214.611,-143 224.671,-143"/>
<polygon fill="black" stroke="black" points="224.903,-144.75 229.903,-143 224.903,-141.25 224.903,-144.75"/>
</g>
<!-- imagen.transferfn.DivisiveNormalizeL2 -->
<g id="node2" class="node"><title>imagen.transferfn.DivisiveNormalizeL2</title>
<polygon fill="none" stroke="black" stroke-width="0.5" points="623,-286.5 423,-286.5 423,-265.5 623,-265.5 623,-286.5"/>
<text text-anchor="middle" x="523" y="-273.5" font-family="Vera" font-size="10.00">imagen.transferfn.DivisiveNormalizeL2</text>
</g>
<!-- imagen.transferfn.TransferFn&#45;&gt;imagen.transferfn.DivisiveNormalizeL2 -->
<g id="edge2" class="edge"><title>imagen.transferfn.TransferFn&#45;&gt;imagen.transferfn.DivisiveNormalizeL2</title>
<path fill="none" stroke="black" stroke-width="0.5" d="M313.782,-153.241C329.471,-176.028 370.722,-230.962 420,-257 425.338,-259.821 431.024,-262.229 436.878,-264.285"/>
<polygon fill="black" stroke="black" points="436.534,-266.015 441.831,-265.931 437.638,-262.694 436.534,-266.015"/>
</g>
<!-- imagen.transferfn.Scale -->
<g id="node5" class="node"><title>imagen.transferfn.Scale</title>
<polygon fill="none" stroke="black" stroke-width="0.5" points="588,-248.5 458,-248.5 458,-227.5 588,-227.5 588,-248.5"/>
<text text-anchor="middle" x="523" y="-235.5" font-family="Vera" font-size="10.00">imagen.transferfn.Scale</text>
</g>
<!-- imagen.transferfn.TransferFn&#45;&gt;imagen.transferfn.Scale -->
<g id="edge4" class="edge"><title>imagen.transferfn.TransferFn&#45;&gt;imagen.transferfn.Scale</title>
<path fill="none" stroke="black" stroke-width="0.5" d="M318.593,-153.215C338.08,-169.798 379.281,-202.393 420,-219 430.148,-223.139 441.226,-226.382 452.235,-228.921"/>
<polygon fill="black" stroke="black" points="452.024,-230.667 457.284,-230.04 452.781,-227.25 452.024,-230.667"/>
</g>
<!-- imagen.transferfn.IdentityTF -->
<g id="node7" class="node"><title>imagen.transferfn.IdentityTF</title>
<polygon fill="none" stroke="black" stroke-width="0.5" points="598,-210.5 448,-210.5 448,-189.5 598,-189.5 598,-210.5"/>
<text text-anchor="middle" x="523" y="-197.5" font-family="Vera" font-size="10.00">imagen.transferfn.IdentityTF</text>
</g>
<!-- imagen.transferfn.TransferFn&#45;&gt;imagen.transferfn.IdentityTF -->
<g id="edge6" class="edge"><title>imagen.transferfn.TransferFn&#45;&gt;imagen.transferfn.IdentityTF</title>
<path fill="none" stroke="black" stroke-width="0.5" d="M333.618,-153.146C356.315,-161.508 389.945,-173.216 420,-181 431.398,-183.952 443.619,-186.626 455.519,-188.974"/>
<polygon fill="black" stroke="black" points="455.353,-190.724 460.595,-189.96 456.021,-187.289 455.353,-190.724"/>
</g>
<!-- imagen.transferfn.DivisiveNormalizeL1 -->
<g id="node9" class="node"><title>imagen.transferfn.DivisiveNormalizeL1</title>
<polygon fill="none" stroke="black" stroke-width="0.5" points="623,-172.5 423,-172.5 423,-151.5 623,-151.5 623,-172.5"/>
<text text-anchor="middle" x="523" y="-159.5" font-family="Vera" font-size="10.00">imagen.transferfn.DivisiveNormalizeL1</text>
</g>
<!-- imagen.transferfn.TransferFn&#45;&gt;imagen.transferfn.DivisiveNormalizeL1 -->
<g id="edge8" class="edge"><title>imagen.transferfn.TransferFn&#45;&gt;imagen.transferfn.DivisiveNormalizeL1</title>
<path fill="none" stroke="black" stroke-width="0.5" d="M384.066,-149.779C394.783,-150.722 405.943,-151.703 417.074,-152.682"/>
<polygon fill="black" stroke="black" points="417.051,-154.437 422.185,-153.132 417.357,-150.951 417.051,-154.437"/>
</g>
<!-- imagen.transferfn.DivisiveNormalizeLinf -->
<g id="node11" class="node"><title>imagen.transferfn.DivisiveNormalizeLinf</title>
<polygon fill="none" stroke="black" stroke-width="0.5" points="626,-134.5 420,-134.5 420,-113.5 626,-113.5 626,-134.5"/>
<text text-anchor="middle" x="523" y="-121.5" font-family="Vera" font-size="10.00">imagen.transferfn.DivisiveNormalizeLinf</text>
</g>
<!-- imagen.transferfn.TransferFn&#45;&gt;imagen.transferfn.DivisiveNormalizeLinf -->
<g id="edge10" class="edge"><title>imagen.transferfn.TransferFn&#45;&gt;imagen.transferfn.DivisiveNormalizeLinf</title>
<path fill="none" stroke="black" stroke-width="0.5" d="M384.066,-136.221C394.062,-135.342 404.443,-134.429 414.827,-133.515"/>
<polygon fill="black" stroke="black" points="415.095,-135.248 419.923,-133.067 414.788,-131.762 415.095,-135.248"/>
</g>
<!-- imagen.transferfn.BinaryThreshold -->
<g id="node13" class="node"><title>imagen.transferfn.BinaryThreshold</title>
<polygon fill="none" stroke="black" stroke-width="0.5" points="614,-96.5 432,-96.5 432,-75.5 614,-75.5 614,-96.5"/>
<text text-anchor="middle" x="523" y="-83.5" font-family="Vera" font-size="10.00">imagen.transferfn.BinaryThreshold</text>
</g>
<!-- imagen.transferfn.TransferFn&#45;&gt;imagen.transferfn.BinaryThreshold -->
<g id="edge12" class="edge"><title>imagen.transferfn.TransferFn&#45;&gt;imagen.transferfn.BinaryThreshold</title>
<path fill="none" stroke="black" stroke-width="0.5" d="M333.618,-132.854C356.315,-124.492 389.945,-112.784 420,-105 431.398,-102.048 443.619,-99.3741 455.519,-97.0261"/>
<polygon fill="black" stroke="black" points="456.021,-98.7113 460.595,-96.0399 455.353,-95.2756 456.021,-98.7113"/>
</g>
<!-- imagen.transferfn.DivisiveNormalizeLp -->
<g id="node15" class="node"><title>imagen.transferfn.DivisiveNormalizeLp</title>
<polygon fill="none" stroke="black" stroke-width="0.5" points="623,-58.5 423,-58.5 423,-37.5 623,-37.5 623,-58.5"/>
<text text-anchor="middle" x="523" y="-45.5" font-family="Vera" font-size="10.00">imagen.transferfn.DivisiveNormalizeLp</text>
</g>
<!-- imagen.transferfn.TransferFn&#45;&gt;imagen.transferfn.DivisiveNormalizeLp -->
<g id="edge14" class="edge"><title>imagen.transferfn.TransferFn&#45;&gt;imagen.transferfn.DivisiveNormalizeLp</title>
<path fill="none" stroke="black" stroke-width="0.5" d="M318.593,-132.785C338.08,-116.202 379.281,-83.6066 420,-67 427.39,-63.9861 435.274,-61.4471 443.264,-59.3089"/>
<polygon fill="black" stroke="black" points="443.842,-60.9673 448.25,-58.0286 442.972,-57.5773 443.842,-60.9673"/>
</g>
<!-- imagen.transferfn.Threshold -->
<g id="node18" class="node"><title>imagen.transferfn.Threshold</title>
<polygon fill="none" stroke="black" stroke-width="0.5" points="599,-20.5 447,-20.5 447,0.5 599,0.5 599,-20.5"/>
<text text-anchor="middle" x="523" y="-7.5" font-family="Vera" font-size="10.00">imagen.transferfn.Threshold</text>
</g>
<!-- imagen.transferfn.TransferFn&#45;&gt;imagen.transferfn.Threshold -->
<g id="edge18" class="edge"><title>imagen.transferfn.TransferFn&#45;&gt;imagen.transferfn.Threshold</title>
<path fill="none" stroke="black" stroke-width="0.5" d="M313.782,-132.759C329.471,-109.972 370.722,-55.0385 420,-29 426.923,-25.3418 434.432,-22.3766 442.133,-19.9749"/>
<polygon fill="black" stroke="black" points="442.65,-21.6469 446.949,-18.5512 441.658,-18.2904 442.65,-21.6469"/>
</g>
</g>
</svg>
