<?xml version="1.0" encoding="UTF-8" standalone="no"?>
<!DOCTYPE svg PUBLIC "-//W3C//DTD SVG 1.1//EN"
 "http://www.w3.org/Graphics/SVG/1.1/DTD/svg11.dtd">
<!-- Generated by graphviz version 2.26.3 (20100126.1600)
 -->
<!-- Title: inheritance52f2812edd Pages: 1 -->
<svg width="1516pt" height="218pt"
 viewBox="0.00 0.00 1516.00 218.00" xmlns="http://www.w3.org/2000/svg" xmlns:xlink="http://www.w3.org/1999/xlink">
<g id="graph1" class="graph" transform="scale(1 1) rotate(0) translate(4 214)">
<title>inheritance52f2812edd</title>
<polygon fill="white" stroke="white" points="-4,5 -4,-214 1513,-214 1513,5 -4,5"/>
<!-- Tkinter.Grid -->
<g id="node1" class="node"><title>Tkinter.Grid</title>
<polygon fill="none" stroke="black" stroke-width="0.5" points="240,-210.5 170,-210.5 170,-189.5 240,-189.5 240,-210.5"/>
<text text-anchor="middle" x="205" y="-197.5" font-family="Vera" font-size="10.00">Tkinter.Grid</text>
</g>
<!-- Tkinter.Widget -->
<g id="node6" class="node"><title>Tkinter.Widget</title>
<polygon fill="none" stroke="black" stroke-width="0.5" points="467,-134.5 385,-134.5 385,-113.5 467,-113.5 467,-134.5"/>
<text text-anchor="middle" x="426" y="-121.5" font-family="Vera" font-size="10.00">Tkinter.Widget</text>
</g>
<!-- Tkinter.Grid&#45;&gt;Tkinter.Widget -->
<g id="edge24" class="edge"><title>Tkinter.Grid&#45;&gt;Tkinter.Widget</title>
<path fill="none" stroke="black" stroke-width="0.5" d="M240.531,-195.117C259.112,-192.046 282.076,-187.429 302,-181 338.571,-169.199 378.574,-149.472 402.982,-136.599"/>
<polygon fill="black" stroke="black" points="404.055,-138.011 407.65,-134.12 402.413,-134.92 404.055,-138.011"/>
</g>
<!-- topo.plotting.plotgroup.SheetPlotGroup -->
<g id="node2" class="node"><title>topo.plotting.plotgroup.SheetPlotGroup</title>
<polygon fill="none" stroke="black" stroke-width="0.5" points="755,-20.5 551,-20.5 551,0.5 755,0.5 755,-20.5"/>
<text text-anchor="middle" x="653" y="-7.5" font-family="Vera" font-size="10.00">topo.plotting.plotgroup.SheetPlotGroup</text>
</g>
<!-- topo.tkgui.testpattern.TestPatternPlotGroup -->
<g id="node32" class="node"><title>topo.tkgui.testpattern.TestPatternPlotGroup</title>
<polygon fill="none" stroke="black" stroke-width="0.5" points="1017,-20.5 793,-20.5 793,0.5 1017,0.5 1017,-20.5"/>
<text text-anchor="middle" x="905" y="-7.5" font-family="Vera" font-size="10.00">topo.tkgui.testpattern.TestPatternPlotGroup</text>
</g>
<!-- topo.plotting.plotgroup.SheetPlotGroup&#45;&gt;topo.tkgui.testpattern.TestPatternPlotGroup -->
<g id="edge32" class="edge"><title>topo.plotting.plotgroup.SheetPlotGroup&#45;&gt;topo.tkgui.testpattern.TestPatternPlotGroup</title>
<path fill="none" stroke="black" stroke-width="0.5" d="M755.862,-10C766.154,-10 776.659,-10 787.09,-10"/>
<polygon fill="black" stroke="black" points="787.204,-11.7501 792.204,-10 787.204,-8.2501 787.204,-11.7501"/>
</g>
<!-- topo.plotting.plotgroup.PlotGroup -->
<g id="node3" class="node"><title>topo.plotting.plotgroup.PlotGroup</title>
<polygon fill="none" stroke="black" stroke-width="0.5" points="514,-20.5 338,-20.5 338,0.5 514,0.5 514,-20.5"/>
<text text-anchor="middle" x="426" y="-7.5" font-family="Vera" font-size="10.00">topo.plotting.plotgroup.PlotGroup</text>
</g>
<!-- topo.plotting.plotgroup.PlotGroup&#45;&gt;topo.plotting.plotgroup.SheetPlotGroup -->
<g id="edge2" class="edge"><title>topo.plotting.plotgroup.PlotGroup&#45;&gt;topo.plotting.plotgroup.SheetPlotGroup</title>
<path fill="none" stroke="black" stroke-width="0.5" d="M514.089,-10C524.264,-10 534.725,-10 545.124,-10"/>
<polygon fill="black" stroke="black" points="545.222,-11.7501 550.222,-10 545.222,-8.2501 545.222,-11.7501"/>
</g>
<!-- Tkinter.Frame -->
<g id="node5" class="node"><title>Tkinter.Frame</title>
<polygon fill="none" stroke="black" stroke-width="0.5" points="693,-134.5 613,-134.5 613,-113.5 693,-113.5 693,-134.5"/>
<text text-anchor="middle" x="653" y="-121.5" font-family="Vera" font-size="10.00">Tkinter.Frame</text>
</g>
<!-- topo.tkgui.plotgrouppanel.PlotGroupPanel -->
<g id="node9" class="node"><title>topo.tkgui.plotgrouppanel.PlotGroupPanel</title>
<polygon fill="none" stroke="black" stroke-width="0.5" points="1012,-96.5 798,-96.5 798,-75.5 1012,-75.5 1012,-96.5"/>
<text text-anchor="middle" x="905" y="-83.5" font-family="Vera" font-size="10.00">topo.tkgui.plotgrouppanel.PlotGroupPanel</text>
</g>
<!-- Tkinter.Frame&#45;&gt;topo.tkgui.plotgrouppanel.PlotGroupPanel -->
<g id="edge16" class="edge"><title>Tkinter.Frame&#45;&gt;topo.tkgui.plotgrouppanel.PlotGroupPanel</title>
<path fill="none" stroke="black" stroke-width="0.5" d="M693.768,-117.852C731.325,-112.189 787.9,-103.658 833.05,-96.8495"/>
<polygon fill="black" stroke="black" points="833.535,-98.5464 838.218,-96.0703 833.013,-95.0855 833.535,-98.5464"/>
</g>
<!-- Tkinter.Widget&#45;&gt;Tkinter.Frame -->
<g id="edge4" class="edge"><title>Tkinter.Widget&#45;&gt;Tkinter.Frame</title>
<path fill="none" stroke="black" stroke-width="0.5" d="M467.635,-124C507.078,-124 566.192,-124 607.009,-124"/>
<polygon fill="black" stroke="black" points="607.392,-125.75 612.392,-124 607.392,-122.25 607.392,-125.75"/>
</g>
<!-- topo.tkgui.plotgrouppanel.SheetPanel -->
<g id="node8" class="node"><title>topo.tkgui.plotgrouppanel.SheetPanel</title>
<polygon fill="none" stroke="black" stroke-width="0.5" points="1272,-96.5 1076,-96.5 1076,-75.5 1272,-75.5 1272,-96.5"/>
<text text-anchor="middle" x="1174" y="-83.5" font-family="Vera" font-size="10.00">topo.tkgui.plotgrouppanel.SheetPanel</text>
</g>
<!-- topo.tkgui.testpattern.TestPattern -->
<g id="node29" class="node"><title>topo.tkgui.testpattern.TestPattern</title>
<polygon fill="none" stroke="black" stroke-width="0.5" points="1508,-77.5 1330,-77.5 1330,-56.5 1508,-56.5 1508,-77.5"/>
<text text-anchor="middle" x="1419" y="-64.5" font-family="Vera" font-size="10.00">topo.tkgui.testpattern.TestPattern</text>
</g>
<!-- topo.tkgui.plotgrouppanel.SheetPanel&#45;&gt;topo.tkgui.testpattern.TestPattern -->
<g id="edge28" class="edge"><title>topo.tkgui.plotgrouppanel.SheetPanel&#45;&gt;topo.tkgui.testpattern.TestPattern</title>
<path fill="none" stroke="black" stroke-width="0.5" d="M1272.59,-78.3541C1289.7,-77.0271 1307.46,-75.6499 1324.46,-74.3316"/>
<polygon fill="black" stroke="black" points="1324.86,-76.0559 1329.71,-73.9244 1324.59,-72.5663 1324.86,-76.0559"/>
</g>
<!-- topo.tkgui.plotgrouppanel.PlotGroupPanel&#45;&gt;topo.tkgui.plotgrouppanel.SheetPanel -->
<g id="edge6" class="edge"><title>topo.tkgui.plotgrouppanel.PlotGroupPanel&#45;&gt;topo.tkgui.plotgrouppanel.SheetPanel</title>
<path fill="none" stroke="black" stroke-width="0.5" d="M1012.86,-86C1031.7,-86 1051.27,-86 1070,-86"/>
<polygon fill="black" stroke="black" points="1070.26,-87.7501 1075.26,-86 1070.26,-84.2501 1070.26,-87.7501"/>
</g>
<!-- Tkinter.BaseWidget -->
<g id="node11" class="node"><title>Tkinter.BaseWidget</title>
<polygon fill="none" stroke="black" stroke-width="0.5" points="258,-172.5 152,-172.5 152,-151.5 258,-151.5 258,-172.5"/>
<text text-anchor="middle" x="205" y="-159.5" font-family="Vera" font-size="10.00">Tkinter.BaseWidget</text>
</g>
<!-- Tkinter.BaseWidget&#45;&gt;Tkinter.Widget -->
<g id="edge18" class="edge"><title>Tkinter.BaseWidget&#45;&gt;Tkinter.Widget</title>
<path fill="none" stroke="black" stroke-width="0.5" d="M258.78,-152.753C295.557,-146.429 343.834,-138.128 379.057,-132.072"/>
<polygon fill="black" stroke="black" points="379.525,-133.767 384.157,-131.195 378.932,-130.317 379.525,-133.767"/>
</g>
<!-- Tkinter.Misc -->
<g id="node12" class="node"><title>Tkinter.Misc</title>
<polygon fill="none" stroke="black" stroke-width="0.5" points="72,-172.5 2.84217e-14,-172.5 0,-151.5 72,-151.5 72,-172.5"/>
<text text-anchor="middle" x="36" y="-159.5" font-family="Vera" font-size="10.00">Tkinter.Misc</text>
</g>
<!-- Tkinter.Misc&#45;&gt;Tkinter.BaseWidget -->
<g id="edge8" class="edge"><title>Tkinter.Misc&#45;&gt;Tkinter.BaseWidget</title>
<path fill="none" stroke="black" stroke-width="0.5" d="M72.2547,-162C93.805,-162 121.651,-162 146.27,-162"/>
<polygon fill="black" stroke="black" points="146.471,-163.75 151.471,-162 146.471,-160.25 146.471,-163.75"/>
</g>
<!-- paramtk.TkParameterizedBase -->
<g id="node14" class="node"><title>paramtk.TkParameterizedBase</title>
<polygon fill="none" stroke="black" stroke-width="0.5" points="508,-96.5 344,-96.5 344,-75.5 508,-75.5 508,-96.5"/>
<text text-anchor="middle" x="426" y="-83.5" font-family="Vera" font-size="10.00">paramtk.TkParameterizedBase</text>
</g>
<!-- paramtk.TkParameterized -->
<g id="node17" class="node"><title>paramtk.TkParameterized</title>
<polygon fill="none" stroke="black" stroke-width="0.5" points="723,-96.5 583,-96.5 583,-75.5 723,-75.5 723,-96.5"/>
<text text-anchor="middle" x="653" y="-83.5" font-family="Vera" font-size="10.00">paramtk.TkParameterized</text>
</g>
<!-- paramtk.TkParameterizedBase&#45;&gt;paramtk.TkParameterized -->
<g id="edge12" class="edge"><title>paramtk.TkParameterizedBase&#45;&gt;paramtk.TkParameterized</title>
<path fill="none" stroke="black" stroke-width="0.5" d="M508.273,-86C531.04,-86 555.624,-86 577.955,-86"/>
<polygon fill="black" stroke="black" points="577.982,-87.7501 582.982,-86 577.982,-84.2501 577.982,-87.7501"/>
</g>
<!-- param.parameterized.Parameterized -->
<g id="node15" class="node"><title>param.parameterized.Parameterized</title>
<polygon fill="none" stroke="black" stroke-width="0.5" points="302,-58.5 108,-58.5 108,-37.5 302,-37.5 302,-58.5"/>
<text text-anchor="middle" x="205" y="-45.5" font-family="Vera" font-size="10.00">param.parameterized.Parameterized</text>
</g>
<!-- param.parameterized.Parameterized&#45;&gt;topo.plotting.plotgroup.PlotGroup -->
<g id="edge34" class="edge"><title>param.parameterized.Parameterized&#45;&gt;topo.plotting.plotgroup.PlotGroup</title>
<path fill="none" stroke="black" stroke-width="0.5" d="M263.354,-37.9662C293.944,-32.7064 331.452,-26.2571 362.737,-20.8779"/>
<polygon fill="black" stroke="black" points="363.071,-22.5961 367.702,-20.024 362.478,-19.1467 363.071,-22.5961"/>
</g>
<!-- param.parameterized.Parameterized&#45;&gt;paramtk.TkParameterizedBase -->
<g id="edge10" class="edge"><title>param.parameterized.Parameterized&#45;&gt;paramtk.TkParameterizedBase</title>
<path fill="none" stroke="black" stroke-width="0.5" d="M263.354,-58.0338C293.944,-63.2936 331.452,-69.7429 362.737,-75.1221"/>
<polygon fill="black" stroke="black" points="362.478,-76.8533 367.702,-75.976 363.071,-73.4039 362.478,-76.8533"/>
</g>
<!-- topo.base.functionfamily.PatternDrivenAnalysis -->
<g id="node27" class="node"><title>topo.base.functionfamily.PatternDrivenAnalysis</title>
<polygon fill="none" stroke="black" stroke-width="0.5" points="1294,-58.5 1054,-58.5 1054,-37.5 1294,-37.5 1294,-58.5"/>
<text text-anchor="middle" x="1174" y="-45.5" font-family="Vera" font-size="10.00">topo.base.functionfamily.PatternDrivenAnalysis</text>
</g>
<!-- param.parameterized.Parameterized&#45;&gt;topo.base.functionfamily.PatternDrivenAnalysis -->
<g id="edge26" class="edge"><title>param.parameterized.Parameterized&#45;&gt;topo.base.functionfamily.PatternDrivenAnalysis</title>
<path fill="none" stroke="black" stroke-width="0.5" d="M302.348,-48C479.195,-48 852.97,-48 1048.62,-48"/>
<polygon fill="black" stroke="black" points="1048.78,-49.7501 1053.78,-48 1048.78,-46.2501 1048.78,-49.7501"/>
</g>
<!-- paramtk.TkParameterized&#45;&gt;topo.tkgui.plotgrouppanel.PlotGroupPanel -->
<g id="edge14" class="edge"><title>paramtk.TkParameterized&#45;&gt;topo.tkgui.plotgrouppanel.PlotGroupPanel</title>
<path fill="none" stroke="black" stroke-width="0.5" d="M723.196,-86C744.678,-86 768.872,-86 792.433,-86"/>
<polygon fill="black" stroke="black" points="792.45,-87.7501 797.45,-86 792.45,-84.2501 792.45,-87.7501"/>
</g>
<!-- Tkinter.Pack -->
<g id="node22" class="node"><title>Tkinter.Pack</title>
<polygon fill="none" stroke="black" stroke-width="0.5" points="241,-134.5 169,-134.5 169,-113.5 241,-113.5 241,-134.5"/>
<text text-anchor="middle" x="205" y="-121.5" font-family="Vera" font-size="10.00">Tkinter.Pack</text>
</g>
<!-- Tkinter.Pack&#45;&gt;Tkinter.Widget -->
<g id="edge20" class="edge"><title>Tkinter.Pack&#45;&gt;Tkinter.Widget</title>
<path fill="none" stroke="black" stroke-width="0.5" d="M241.99,-124C279.622,-124 338.069,-124 378.968,-124"/>
<polygon fill="black" stroke="black" points="379.367,-125.75 384.367,-124 379.367,-122.25 379.367,-125.75"/>
</g>
<!-- Tkinter.Place -->
<g id="node24" class="node"><title>Tkinter.Place</title>
<polygon fill="none" stroke="black" stroke-width="0.5" points="243,-96.5 167,-96.5 167,-75.5 243,-75.5 243,-96.5"/>
<text text-anchor="middle" x="205" y="-83.5" font-family="Vera" font-size="10.00">Tkinter.Place</text>
</g>
<!-- Tkinter.Place&#45;&gt;Tkinter.Widget -->
<g id="edge22" class="edge"><title>Tkinter.Place&#45;&gt;Tkinter.Widget</title>
<path fill="none" stroke="black" stroke-width="0.5" d="M243.748,-92.6626C281.423,-99.1406 338.702,-108.99 378.969,-115.913"/>
<polygon fill="black" stroke="black" points="379.062,-117.705 384.287,-116.828 379.655,-114.255 379.062,-117.705"/>
</g>
<!-- topo.base.functionfamily.PatternDrivenAnalysis&#45;&gt;topo.tkgui.testpattern.TestPattern -->
<g id="edge30" class="edge"><title>topo.base.functionfamily.PatternDrivenAnalysis&#45;&gt;topo.tkgui.testpattern.TestPattern</title>
<path fill="none" stroke="black" stroke-width="0.5" d="M1294.35,-57.333C1304.55,-58.1242 1314.77,-58.9169 1324.73,-59.6892"/>
<polygon fill="black" stroke="black" points="1324.79,-61.4492 1329.91,-60.0911 1325.06,-57.9597 1324.79,-61.4492"/>
</g>
</g>
</svg>
