<?xml version="1.0" encoding="UTF-8" standalone="no"?>
<!DOCTYPE svg PUBLIC "-//W3C//DTD SVG 1.1//EN"
 "http://www.w3.org/Graphics/SVG/1.1/DTD/svg11.dtd">
<!-- Generated by graphviz version 2.26.3 (20100126.1600)
 -->
<!-- Title: inheritance1a184a655e Pages: 1 -->
<svg width="1070pt" height="218pt"
 viewBox="0.00 0.00 1070.00 218.00" xmlns="http://www.w3.org/2000/svg" xmlns:xlink="http://www.w3.org/1999/xlink">
<g id="graph1" class="graph" transform="scale(1 1) rotate(0) translate(4 214)">
<title>inheritance1a184a655e</title>
<polygon fill="white" stroke="white" points="-4,5 -4,-214 1067,-214 1067,5 -4,5"/>
<!-- unittest.case.TestCase -->
<g id="node1" class="node"><title>unittest.case.TestCase</title>
<polygon fill="none" stroke="black" stroke-width="0.5" points="227,-39.5 103,-39.5 103,-18.5 227,-18.5 227,-39.5"/>
<text text-anchor="middle" x="165" y="-26.5" font-family="Vera" font-size="10.00">unittest.case.TestCase</text>
</g>
<!-- topo.tests.unit.testparameterizedobject.TestParameterizedFunction -->
<g id="node7" class="node"><title>topo.tests.unit.testparameterizedobject.TestParameterizedFunction</title>
<polygon fill="none" stroke="black" stroke-width="0.5" points="705,-58.5 367,-58.5 367,-37.5 705,-37.5 705,-58.5"/>
<text text-anchor="middle" x="536" y="-45.5" font-family="Vera" font-size="10.00">topo.tests.unit.testparameterizedobject.TestParameterizedFunction</text>
</g>
<!-- unittest.case.TestCase&#45;&gt;topo.tests.unit.testparameterizedobject.TestParameterizedFunction -->
<g id="edge6" class="edge"><title>unittest.case.TestCase&#45;&gt;topo.tests.unit.testparameterizedobject.TestParameterizedFunction</title>
<path fill="none" stroke="black" stroke-width="0.5" d="M227.516,-32.2016C264.476,-34.0945 313.292,-36.5945 361.159,-39.0459"/>
<polygon fill="black" stroke="black" points="361.304,-40.8055 366.387,-39.3136 361.483,-37.3101 361.304,-40.8055"/>
</g>
<!-- topo.tests.unit.testparameterizedobject.TestParameterized -->
<g id="node15" class="node"><title>topo.tests.unit.testparameterizedobject.TestParameterized</title>
<polygon fill="none" stroke="black" stroke-width="0.5" points="685,-20.5 387,-20.5 387,0.5 685,0.5 685,-20.5"/>
<text text-anchor="middle" x="536" y="-7.5" font-family="Vera" font-size="10.00">topo.tests.unit.testparameterizedobject.TestParameterized</text>
</g>
<!-- unittest.case.TestCase&#45;&gt;topo.tests.unit.testparameterizedobject.TestParameterized -->
<g id="edge14" class="edge"><title>unittest.case.TestCase&#45;&gt;topo.tests.unit.testparameterizedobject.TestParameterized</title>
<path fill="none" stroke="black" stroke-width="0.5" d="M227.516,-25.7984C269.627,-23.6417 327.129,-20.6969 381.082,-17.9338"/>
<polygon fill="black" stroke="black" points="381.387,-19.6706 386.291,-17.667 381.208,-16.1751 381.387,-19.6706"/>
</g>
<!-- param.parameterized.ParameterizedFunction -->
<g id="node2" class="node"><title>param.parameterized.ParameterizedFunction</title>
<polygon fill="none" stroke="black" stroke-width="0.5" points="653,-210.5 419,-210.5 419,-189.5 653,-189.5 653,-210.5"/>
<text text-anchor="middle" x="536" y="-197.5" font-family="Vera" font-size="10.00">param.parameterized.ParameterizedFunction</text>
</g>
<!-- topo.tests.unit.testparameterizedobject.some_fn -->
<g id="node11" class="node"><title>topo.tests.unit.testparameterizedobject.some_fn</title>
<polygon fill="none" stroke="black" stroke-width="0.5" points="1028,-210.5 776,-210.5 776,-189.5 1028,-189.5 1028,-210.5"/>
<text text-anchor="middle" x="902" y="-197.5" font-family="Vera" font-size="10.00">topo.tests.unit.testparameterizedobject.some_fn</text>
</g>
<!-- param.parameterized.ParameterizedFunction&#45;&gt;topo.tests.unit.testparameterizedobject.some_fn -->
<g id="edge10" class="edge"><title>param.parameterized.ParameterizedFunction&#45;&gt;topo.tests.unit.testparameterizedobject.some_fn</title>
<path fill="none" stroke="black" stroke-width="0.5" d="M653.063,-200C690.493,-200 732.171,-200 770.554,-200"/>
<polygon fill="black" stroke="black" points="770.704,-201.75 775.704,-200 770.704,-198.25 770.704,-201.75"/>
</g>
<!-- param.parameterized.Parameterized -->
<g id="node3" class="node"><title>param.parameterized.Parameterized</title>
<polygon fill="none" stroke="black" stroke-width="0.5" points="262,-153.5 68,-153.5 68,-132.5 262,-132.5 262,-153.5"/>
<text text-anchor="middle" x="165" y="-140.5" font-family="Vera" font-size="10.00">param.parameterized.Parameterized</text>
</g>
<!-- param.parameterized.Parameterized&#45;&gt;param.parameterized.ParameterizedFunction -->
<g id="edge2" class="edge"><title>param.parameterized.Parameterized&#45;&gt;param.parameterized.ParameterizedFunction</title>
<path fill="none" stroke="black" stroke-width="0.5" d="M262.218,-148.139C284.803,-150.989 308.514,-155.35 330,-162 347.283,-167.349 348.708,-175.68 366,-181 381.177,-185.669 397.43,-189.217 413.648,-191.908"/>
<polygon fill="black" stroke="black" points="413.464,-193.651 418.679,-192.716 414.019,-190.195 413.464,-193.651"/>
</g>
<!-- topo.tests.unit.testparameterizedobject.TestAbstractPO -->
<g id="node5" class="node"><title>topo.tests.unit.testparameterizedobject.TestAbstractPO</title>
<polygon fill="none" stroke="black" stroke-width="0.5" points="678,-172.5 394,-172.5 394,-151.5 678,-151.5 678,-172.5"/>
<text text-anchor="middle" x="536" y="-159.5" font-family="Vera" font-size="10.00">topo.tests.unit.testparameterizedobject.TestAbstractPO</text>
</g>
<!-- param.parameterized.Parameterized&#45;&gt;topo.tests.unit.testparameterizedobject.TestAbstractPO -->
<g id="edge4" class="edge"><title>param.parameterized.Parameterized&#45;&gt;topo.tests.unit.testparameterizedobject.TestAbstractPO</title>
<path fill="none" stroke="black" stroke-width="0.5" d="M262.476,-147.992C301.055,-149.968 346.246,-152.282 388.656,-154.454"/>
<polygon fill="black" stroke="black" points="388.73,-156.21 393.813,-154.718 388.909,-152.715 388.73,-156.21"/>
</g>
<!-- topo.tests.unit.testparameterizedobject.AnotherTestPO -->
<g id="node9" class="node"><title>topo.tests.unit.testparameterizedobject.AnotherTestPO</title>
<polygon fill="none" stroke="black" stroke-width="0.5" points="676,-134.5 396,-134.5 396,-113.5 676,-113.5 676,-134.5"/>
<text text-anchor="middle" x="536" y="-121.5" font-family="Vera" font-size="10.00">topo.tests.unit.testparameterizedobject.AnotherTestPO</text>
</g>
<!-- param.parameterized.Parameterized&#45;&gt;topo.tests.unit.testparameterizedobject.AnotherTestPO -->
<g id="edge8" class="edge"><title>param.parameterized.Parameterized&#45;&gt;topo.tests.unit.testparameterizedobject.AnotherTestPO</title>
<path fill="none" stroke="black" stroke-width="0.5" d="M262.476,-138.008C301.467,-136.011 347.213,-133.668 390.016,-131.476"/>
<polygon fill="black" stroke="black" points="390.316,-133.213 395.22,-131.21 390.137,-129.718 390.316,-133.213"/>
</g>
<!-- topo.tests.unit.testparameterizedobject.TestPO -->
<g id="node17" class="node"><title>topo.tests.unit.testparameterizedobject.TestPO</title>
<polygon fill="none" stroke="black" stroke-width="0.5" points="657,-96.5 415,-96.5 415,-75.5 657,-75.5 657,-96.5"/>
<text text-anchor="middle" x="536" y="-83.5" font-family="Vera" font-size="10.00">topo.tests.unit.testparameterizedobject.TestPO</text>
</g>
<!-- param.parameterized.Parameterized&#45;&gt;topo.tests.unit.testparameterizedobject.TestPO -->
<g id="edge16" class="edge"><title>param.parameterized.Parameterized&#45;&gt;topo.tests.unit.testparameterizedobject.TestPO</title>
<path fill="none" stroke="black" stroke-width="0.5" d="M212.749,-132.92C253.366,-124.598 313.32,-112.912 366,-105 386.527,-101.917 408.518,-99.1011 429.644,-96.6363"/>
<polygon fill="black" stroke="black" points="429.941,-98.3637 434.707,-96.0503 429.538,-94.8869 429.941,-98.3637"/>
</g>
<!-- topo.tests.unit.testparameterizedobject.TestParamInstantiation -->
<g id="node13" class="node"><title>topo.tests.unit.testparameterizedobject.TestParamInstantiation</title>
<polygon fill="none" stroke="black" stroke-width="0.5" points="1062,-134.5 742,-134.5 742,-113.5 1062,-113.5 1062,-134.5"/>
<text text-anchor="middle" x="902" y="-121.5" font-family="Vera" font-size="10.00">topo.tests.unit.testparameterizedobject.TestParamInstantiation</text>
</g>
<!-- topo.tests.unit.testparameterizedobject.AnotherTestPO&#45;&gt;topo.tests.unit.testparameterizedobject.TestParamInstantiation -->
<g id="edge12" class="edge"><title>topo.tests.unit.testparameterizedobject.AnotherTestPO&#45;&gt;topo.tests.unit.testparameterizedobject.TestParamInstantiation</title>
<path fill="none" stroke="black" stroke-width="0.5" d="M676.72,-124C696.409,-124 716.788,-124 736.877,-124"/>
<polygon fill="black" stroke="black" points="736.978,-125.75 741.978,-124 736.978,-122.25 736.978,-125.75"/>
</g>
<!-- topo.tests.unit.testparameterizedobject._SomeRandomNumbers -->
<g id="node19" class="node"><title>topo.tests.unit.testparameterizedobject._SomeRandomNumbers</title>
<polygon fill="none" stroke="black" stroke-width="0.5" points="329,-191.5 1,-191.5 1,-170.5 329,-170.5 329,-191.5"/>
<text text-anchor="middle" x="165" y="-178.5" font-family="Vera" font-size="10.00">topo.tests.unit.testparameterizedobject._SomeRandomNumbers</text>
</g>
</g>
</svg>
