<?xml version="1.0" encoding="UTF-8" standalone="no"?>
<!DOCTYPE svg PUBLIC "-//W3C//DTD SVG 1.1//EN"
 "http://www.w3.org/Graphics/SVG/1.1/DTD/svg11.dtd">
<!-- Generated by graphviz version 2.26.3 (20100126.1600)
 -->
<!-- Title: inheritance97c36bc686 Pages: 1 -->
<svg width="2280pt" height="142pt"
 viewBox="0.00 0.00 2280.00 142.00" xmlns="http://www.w3.org/2000/svg" xmlns:xlink="http://www.w3.org/1999/xlink">
<g id="graph1" class="graph" transform="scale(1 1) rotate(0) translate(4 138)">
<title>inheritance97c36bc686</title>
<polygon fill="white" stroke="white" points="-4,5 -4,-138 2277,-138 2277,5 -4,5"/>
<!-- topo.plotting.plotgroup.FeatureCurvePlotGroup -->
<g id="node1" class="node"><title>topo.plotting.plotgroup.FeatureCurvePlotGroup</title>
<polygon fill="none" stroke="black" stroke-width="0.5" points="1991,-134.5 1751,-134.5 1751,-113.5 1991,-113.5 1991,-134.5"/>
<text text-anchor="middle" x="1871" y="-121.5" font-family="Vera" font-size="10.00">topo.plotting.plotgroup.FeatureCurvePlotGroup</text>
</g>
<!-- topo.plotting.plotgroup.UnitPlotGroup -->
<g id="node2" class="node"><title>topo.plotting.plotgroup.UnitPlotGroup</title>
<polygon fill="none" stroke="black" stroke-width="0.5" points="1675,-96.5 1479,-96.5 1479,-75.5 1675,-75.5 1675,-96.5"/>
<text text-anchor="middle" x="1577" y="-83.5" font-family="Vera" font-size="10.00">topo.plotting.plotgroup.UnitPlotGroup</text>
</g>
<!-- topo.plotting.plotgroup.UnitPlotGroup&#45;&gt;topo.plotting.plotgroup.FeatureCurvePlotGroup -->
<g id="edge2" class="edge"><title>topo.plotting.plotgroup.UnitPlotGroup&#45;&gt;topo.plotting.plotgroup.FeatureCurvePlotGroup</title>
<path fill="none" stroke="black" stroke-width="0.5" d="M1654.63,-96.0338C1695.83,-101.358 1746.45,-107.902 1788.38,-113.321"/>
<polygon fill="black" stroke="black" points="1788.26,-115.071 1793.45,-113.976 1788.71,-111.599 1788.26,-115.071"/>
</g>
<!-- topo.plotting.plotgroup.ConnectionFieldsPlotGroup -->
<g id="node26" class="node"><title>topo.plotting.plotgroup.ConnectionFieldsPlotGroup</title>
<polygon fill="none" stroke="black" stroke-width="0.5" points="1999,-96.5 1743,-96.5 1743,-75.5 1999,-75.5 1999,-96.5"/>
<text text-anchor="middle" x="1871" y="-83.5" font-family="Vera" font-size="10.00">topo.plotting.plotgroup.ConnectionFieldsPlotGroup</text>
</g>
<!-- topo.plotting.plotgroup.UnitPlotGroup&#45;&gt;topo.plotting.plotgroup.ConnectionFieldsPlotGroup -->
<g id="edge22" class="edge"><title>topo.plotting.plotgroup.UnitPlotGroup&#45;&gt;topo.plotting.plotgroup.ConnectionFieldsPlotGroup</title>
<path fill="none" stroke="black" stroke-width="0.5" d="M1675.31,-86C1695.24,-86 1716.52,-86 1737.44,-86"/>
<polygon fill="black" stroke="black" points="1737.46,-87.7501 1742.46,-86 1737.46,-84.2501 1737.46,-87.7501"/>
</g>
<!-- topo.plotting.plotgroup.SheetPlotGroup -->
<g id="node4" class="node"><title>topo.plotting.plotgroup.SheetPlotGroup</title>
<polygon fill="none" stroke="black" stroke-width="0.5" points="763,-58.5 559,-58.5 559,-37.5 763,-37.5 763,-58.5"/>
<text text-anchor="middle" x="661" y="-45.5" font-family="Vera" font-size="10.00">topo.plotting.plotgroup.SheetPlotGroup</text>
</g>
<!-- topo.plotting.plotgroup.TemplatePlotGroup -->
<g id="node17" class="node"><title>topo.plotting.plotgroup.TemplatePlotGroup</title>
<polygon fill="none" stroke="black" stroke-width="0.5" points="1101,-58.5 881,-58.5 881,-37.5 1101,-37.5 1101,-58.5"/>
<text text-anchor="middle" x="991" y="-45.5" font-family="Vera" font-size="10.00">topo.plotting.plotgroup.TemplatePlotGroup</text>
</g>
<!-- topo.plotting.plotgroup.SheetPlotGroup&#45;&gt;topo.plotting.plotgroup.TemplatePlotGroup -->
<g id="edge20" class="edge"><title>topo.plotting.plotgroup.SheetPlotGroup&#45;&gt;topo.plotting.plotgroup.TemplatePlotGroup</title>
<path fill="none" stroke="black" stroke-width="0.5" d="M763.605,-48C799.041,-48 838.979,-48 875.385,-48"/>
<polygon fill="black" stroke="black" points="875.73,-49.7501 880.729,-48 875.729,-46.2501 875.73,-49.7501"/>
</g>
<!-- topo.plotting.plotgroup.PlotGroup -->
<g id="node5" class="node"><title>topo.plotting.plotgroup.PlotGroup</title>
<polygon fill="none" stroke="black" stroke-width="0.5" points="435,-58.5 259,-58.5 259,-37.5 435,-37.5 435,-58.5"/>
<text text-anchor="middle" x="347" y="-45.5" font-family="Vera" font-size="10.00">topo.plotting.plotgroup.PlotGroup</text>
</g>
<!-- topo.plotting.plotgroup.PlotGroup&#45;&gt;topo.plotting.plotgroup.SheetPlotGroup -->
<g id="edge4" class="edge"><title>topo.plotting.plotgroup.PlotGroup&#45;&gt;topo.plotting.plotgroup.SheetPlotGroup</title>
<path fill="none" stroke="black" stroke-width="0.5" d="M435.302,-48C471.932,-48 514.775,-48 553.234,-48"/>
<polygon fill="black" stroke="black" points="553.387,-49.7501 558.387,-48 553.387,-46.2501 553.387,-49.7501"/>
</g>
<!-- param.parameterized.ParameterizedFunction -->
<g id="node7" class="node"><title>param.parameterized.ParameterizedFunction</title>
<polygon fill="none" stroke="black" stroke-width="0.5" points="464,-20.5 230,-20.5 230,0.5 464,0.5 464,-20.5"/>
<text text-anchor="middle" x="347" y="-7.5" font-family="Vera" font-size="10.00">param.parameterized.ParameterizedFunction</text>
</g>
<!-- topo.plotting.plotgroup.ProjectionSheetMeasurementCommand -->
<g id="node14" class="node"><title>topo.plotting.plotgroup.ProjectionSheetMeasurementCommand</title>
<polygon fill="none" stroke="black" stroke-width="0.5" points="822,-20.5 500,-20.5 500,0.5 822,0.5 822,-20.5"/>
<text text-anchor="middle" x="661" y="-7.5" font-family="Vera" font-size="10.00">topo.plotting.plotgroup.ProjectionSheetMeasurementCommand</text>
</g>
<!-- param.parameterized.ParameterizedFunction&#45;&gt;topo.plotting.plotgroup.ProjectionSheetMeasurementCommand -->
<g id="edge26" class="edge"><title>param.parameterized.ParameterizedFunction&#45;&gt;topo.plotting.plotgroup.ProjectionSheetMeasurementCommand</title>
<path fill="none" stroke="black" stroke-width="0.5" d="M464.369,-10C474.323,-10 484.506,-10 494.741,-10"/>
<polygon fill="black" stroke="black" points="494.769,-11.7501 499.769,-10 494.769,-8.2501 494.769,-11.7501"/>
</g>
<!-- param.parameterized.Parameterized -->
<g id="node8" class="node"><title>param.parameterized.Parameterized</title>
<polygon fill="none" stroke="black" stroke-width="0.5" points="194,-39.5 5.68434e-14,-39.5 0,-18.5 194,-18.5 194,-39.5"/>
<text text-anchor="middle" x="97" y="-26.5" font-family="Vera" font-size="10.00">param.parameterized.Parameterized</text>
</g>
<!-- param.parameterized.Parameterized&#45;&gt;topo.plotting.plotgroup.PlotGroup -->
<g id="edge34" class="edge"><title>param.parameterized.Parameterized&#45;&gt;topo.plotting.plotgroup.PlotGroup</title>
<path fill="none" stroke="black" stroke-width="0.5" d="M194.014,-36.3731C213.46,-37.851 233.859,-39.4013 253.193,-40.8707"/>
<polygon fill="black" stroke="black" points="253.499,-42.6489 258.617,-41.2829 253.764,-39.1589 253.499,-42.6489"/>
</g>
<!-- param.parameterized.Parameterized&#45;&gt;param.parameterized.ParameterizedFunction -->
<g id="edge6" class="edge"><title>param.parameterized.Parameterized&#45;&gt;param.parameterized.ParameterizedFunction</title>
<path fill="none" stroke="black" stroke-width="0.5" d="M194.014,-21.6269C204.04,-20.8649 214.319,-20.0837 224.575,-19.3043"/>
<polygon fill="black" stroke="black" points="224.754,-21.0458 229.607,-18.9219 224.489,-17.5559 224.754,-21.0458"/>
</g>
<!-- topo.plotting.plotgroup.ProjectionPlotGroup -->
<g id="node10" class="node"><title>topo.plotting.plotgroup.ProjectionPlotGroup</title>
<polygon fill="none" stroke="black" stroke-width="0.5" points="1983,-58.5 1759,-58.5 1759,-37.5 1983,-37.5 1983,-58.5"/>
<text text-anchor="middle" x="1871" y="-45.5" font-family="Vera" font-size="10.00">topo.plotting.plotgroup.ProjectionPlotGroup</text>
</g>
<!-- topo.plotting.plotgroup.CFProjectionPlotGroup -->
<g id="node33" class="node"><title>topo.plotting.plotgroup.CFProjectionPlotGroup</title>
<polygon fill="none" stroke="black" stroke-width="0.5" points="2272,-58.5 2036,-58.5 2036,-37.5 2272,-37.5 2272,-58.5"/>
<text text-anchor="middle" x="2154" y="-45.5" font-family="Vera" font-size="10.00">topo.plotting.plotgroup.CFProjectionPlotGroup</text>
</g>
<!-- topo.plotting.plotgroup.ProjectionPlotGroup&#45;&gt;topo.plotting.plotgroup.CFProjectionPlotGroup -->
<g id="edge32" class="edge"><title>topo.plotting.plotgroup.ProjectionPlotGroup&#45;&gt;topo.plotting.plotgroup.CFProjectionPlotGroup</title>
<path fill="none" stroke="black" stroke-width="0.5" d="M1983.26,-48C1998.78,-48 2014.8,-48 2030.52,-48"/>
<polygon fill="black" stroke="black" points="2030.84,-49.7501 2035.84,-48 2030.84,-46.2501 2030.84,-49.7501"/>
</g>
<!-- topo.plotting.plotgroup.GridPlotGroup -->
<g id="node11" class="node"><title>topo.plotting.plotgroup.GridPlotGroup</title>
<polygon fill="none" stroke="black" stroke-width="0.5" points="1675,-58.5 1479,-58.5 1479,-37.5 1675,-37.5 1675,-58.5"/>
<text text-anchor="middle" x="1577" y="-45.5" font-family="Vera" font-size="10.00">topo.plotting.plotgroup.GridPlotGroup</text>
</g>
<!-- topo.plotting.plotgroup.GridPlotGroup&#45;&gt;topo.plotting.plotgroup.ProjectionPlotGroup -->
<g id="edge8" class="edge"><title>topo.plotting.plotgroup.GridPlotGroup&#45;&gt;topo.plotting.plotgroup.ProjectionPlotGroup</title>
<path fill="none" stroke="black" stroke-width="0.5" d="M1675.31,-48C1700.42,-48 1727.68,-48 1753.65,-48"/>
<polygon fill="black" stroke="black" points="1753.82,-49.7501 1758.82,-48 1753.82,-46.2501 1753.82,-49.7501"/>
</g>
<!-- topo.plotting.plotgroup.RFProjectionPlotGroup -->
<g id="node21" class="node"><title>topo.plotting.plotgroup.RFProjectionPlotGroup</title>
<polygon fill="none" stroke="black" stroke-width="0.5" points="1988,-20.5 1754,-20.5 1754,0.5 1988,0.5 1988,-20.5"/>
<text text-anchor="middle" x="1871" y="-7.5" font-family="Vera" font-size="10.00">topo.plotting.plotgroup.RFProjectionPlotGroup</text>
</g>
<!-- topo.plotting.plotgroup.GridPlotGroup&#45;&gt;topo.plotting.plotgroup.RFProjectionPlotGroup -->
<g id="edge16" class="edge"><title>topo.plotting.plotgroup.GridPlotGroup&#45;&gt;topo.plotting.plotgroup.RFProjectionPlotGroup</title>
<path fill="none" stroke="black" stroke-width="0.5" d="M1654.63,-37.9662C1695.83,-32.6415 1746.45,-26.0977 1788.38,-20.6791"/>
<polygon fill="black" stroke="black" points="1788.71,-22.4006 1793.45,-20.024 1788.26,-18.9295 1788.71,-22.4006"/>
</g>
<!-- topo.plotting.plotgroup.UnitMeasurementCommand -->
<g id="node13" class="node"><title>topo.plotting.plotgroup.UnitMeasurementCommand</title>
<polygon fill="none" stroke="black" stroke-width="0.5" points="1124,-20.5 858,-20.5 858,0.5 1124,0.5 1124,-20.5"/>
<text text-anchor="middle" x="991" y="-7.5" font-family="Vera" font-size="10.00">topo.plotting.plotgroup.UnitMeasurementCommand</text>
</g>
<!-- topo.plotting.plotgroup.ProjectionSheetMeasurementCommand&#45;&gt;topo.plotting.plotgroup.UnitMeasurementCommand -->
<g id="edge10" class="edge"><title>topo.plotting.plotgroup.ProjectionSheetMeasurementCommand&#45;&gt;topo.plotting.plotgroup.UnitMeasurementCommand</title>
<path fill="none" stroke="black" stroke-width="0.5" d="M822.133,-10C832.304,-10 842.494,-10 852.549,-10"/>
<polygon fill="black" stroke="black" points="852.794,-11.7501 857.794,-10 852.794,-8.2501 852.794,-11.7501"/>
</g>
<!-- topo.plotting.plotgroup.RetinotopyPlotGroup -->
<g id="node16" class="node"><title>topo.plotting.plotgroup.RetinotopyPlotGroup</title>
<polygon fill="none" stroke="black" stroke-width="0.5" points="1399,-96.5 1173,-96.5 1173,-75.5 1399,-75.5 1399,-96.5"/>
<text text-anchor="middle" x="1286" y="-83.5" font-family="Vera" font-size="10.00">topo.plotting.plotgroup.RetinotopyPlotGroup</text>
</g>
<!-- topo.plotting.plotgroup.TemplatePlotGroup&#45;&gt;topo.plotting.plotgroup.RetinotopyPlotGroup -->
<g id="edge12" class="edge"><title>topo.plotting.plotgroup.TemplatePlotGroup&#45;&gt;topo.plotting.plotgroup.RetinotopyPlotGroup</title>
<path fill="none" stroke="black" stroke-width="0.5" d="M1068.89,-58.0338C1110.23,-63.3585 1161.03,-69.9023 1203.1,-75.3209"/>
<polygon fill="black" stroke="black" points="1203,-77.0727 1208.18,-75.976 1203.45,-73.6014 1203,-77.0727"/>
</g>
<!-- topo.plotting.plotgroup.ProjectionSheetPlotGroup -->
<g id="node19" class="node"><title>topo.plotting.plotgroup.ProjectionSheetPlotGroup</title>
<polygon fill="none" stroke="black" stroke-width="0.5" points="1412,-58.5 1160,-58.5 1160,-37.5 1412,-37.5 1412,-58.5"/>
<text text-anchor="middle" x="1286" y="-45.5" font-family="Vera" font-size="10.00">topo.plotting.plotgroup.ProjectionSheetPlotGroup</text>
</g>
<!-- topo.plotting.plotgroup.TemplatePlotGroup&#45;&gt;topo.plotting.plotgroup.ProjectionSheetPlotGroup -->
<g id="edge14" class="edge"><title>topo.plotting.plotgroup.TemplatePlotGroup&#45;&gt;topo.plotting.plotgroup.ProjectionSheetPlotGroup</title>
<path fill="none" stroke="black" stroke-width="0.5" d="M1101.27,-48C1118.77,-48 1137.02,-48 1154.94,-48"/>
<polygon fill="black" stroke="black" points="1154.99,-49.7501 1159.99,-48 1154.99,-46.2501 1154.99,-49.7501"/>
</g>
<!-- topo.plotting.plotgroup.TwoOrientationsPlotGroup -->
<g id="node31" class="node"><title>topo.plotting.plotgroup.TwoOrientationsPlotGroup</title>
<polygon fill="none" stroke="black" stroke-width="0.5" points="1411,-20.5 1161,-20.5 1161,0.5 1411,0.5 1411,-20.5"/>
<text text-anchor="middle" x="1286" y="-7.5" font-family="Vera" font-size="10.00">topo.plotting.plotgroup.TwoOrientationsPlotGroup</text>
</g>
<!-- topo.plotting.plotgroup.TemplatePlotGroup&#45;&gt;topo.plotting.plotgroup.TwoOrientationsPlotGroup -->
<g id="edge30" class="edge"><title>topo.plotting.plotgroup.TemplatePlotGroup&#45;&gt;topo.plotting.plotgroup.TwoOrientationsPlotGroup</title>
<path fill="none" stroke="black" stroke-width="0.5" d="M1068.89,-37.9662C1110.23,-32.6415 1161.03,-26.0977 1203.1,-20.6791"/>
<polygon fill="black" stroke="black" points="1203.45,-22.3986 1208.18,-20.024 1203,-18.9273 1203.45,-22.3986"/>
</g>
<!-- topo.plotting.plotgroup.ProjectionSheetPlotGroup&#45;&gt;topo.plotting.plotgroup.UnitPlotGroup -->
<g id="edge24" class="edge"><title>topo.plotting.plotgroup.ProjectionSheetPlotGroup&#45;&gt;topo.plotting.plotgroup.UnitPlotGroup</title>
<path fill="none" stroke="black" stroke-width="0.5" d="M1362.84,-58.0338C1403.61,-63.3585 1453.73,-69.9023 1495.22,-75.3209"/>
<polygon fill="black" stroke="black" points="1495.05,-77.0637 1500.24,-75.976 1495.51,-73.5932 1495.05,-77.0637"/>
</g>
<!-- topo.plotting.plotgroup.ProjectionSheetPlotGroup&#45;&gt;topo.plotting.plotgroup.GridPlotGroup -->
<g id="edge28" class="edge"><title>topo.plotting.plotgroup.ProjectionSheetPlotGroup&#45;&gt;topo.plotting.plotgroup.GridPlotGroup</title>
<path fill="none" stroke="black" stroke-width="0.5" d="M1412.37,-48C1432.87,-48 1453.89,-48 1473.76,-48"/>
<polygon fill="black" stroke="black" points="1473.78,-49.7501 1478.78,-48 1473.78,-46.2501 1473.78,-49.7501"/>
</g>
<!-- topo.plotting.plotgroup.ProjectionActivityPlotGroup -->
<g id="node23" class="node"><title>topo.plotting.plotgroup.ProjectionActivityPlotGroup</title>
<polygon fill="none" stroke="black" stroke-width="0.5" points="1706,-20.5 1448,-20.5 1448,0.5 1706,0.5 1706,-20.5"/>
<text text-anchor="middle" x="1577" y="-7.5" font-family="Vera" font-size="10.00">topo.plotting.plotgroup.ProjectionActivityPlotGroup</text>
</g>
<!-- topo.plotting.plotgroup.ProjectionSheetPlotGroup&#45;&gt;topo.plotting.plotgroup.ProjectionActivityPlotGroup -->
<g id="edge18" class="edge"><title>topo.plotting.plotgroup.ProjectionSheetPlotGroup&#45;&gt;topo.plotting.plotgroup.ProjectionActivityPlotGroup</title>
<path fill="none" stroke="black" stroke-width="0.5" d="M1362.84,-37.9662C1403.61,-32.6415 1453.73,-26.0977 1495.22,-20.6791"/>
<polygon fill="black" stroke="black" points="1495.51,-22.4068 1500.24,-20.024 1495.05,-18.9363 1495.51,-22.4068"/>
</g>
</g>
</svg>
