<?xml version="1.0" encoding="UTF-8" standalone="no"?>
<!DOCTYPE svg PUBLIC "-//W3C//DTD SVG 1.1//EN"
 "http://www.w3.org/Graphics/SVG/1.1/DTD/svg11.dtd">
<!-- Generated by graphviz version 2.26.3 (20100126.1600)
 -->
<!-- Title: inheritanced7d49f6d9a Pages: 1 -->
<svg width="618pt" height="28pt"
 viewBox="0.00 0.00 618.00 28.00" xmlns="http://www.w3.org/2000/svg" xmlns:xlink="http://www.w3.org/1999/xlink">
<g id="graph1" class="graph" transform="scale(1 1) rotate(0) translate(4 24)">
<title>inheritanced7d49f6d9a</title>
<polygon fill="white" stroke="white" points="-4,5 -4,-24 615,-24 615,5 -4,5"/>
<!-- imagen.transferfn.sheet_tf.Convolve -->
<g id="node1" class="node"><title>imagen.transferfn.sheet_tf.Convolve</title>
<polygon fill="none" stroke="black" stroke-width="0.5" points="610,-20.5 420,-20.5 420,0.5 610,0.5 610,-20.5"/>
<text text-anchor="middle" x="515" y="-7.5" font-family="Vera" font-size="10.00">imagen.transferfn.sheet_tf.Convolve</text>
</g>
<!-- imagen.transferfn.TransferFn -->
<g id="node2" class="node"><title>imagen.transferfn.TransferFn</title>
<polygon fill="none" stroke="black" stroke-width="0.5" points="384,-20.5 230,-20.5 230,0.5 384,0.5 384,-20.5"/>
<text text-anchor="middle" x="307" y="-7.5" font-family="Vera" font-size="10.00">imagen.transferfn.TransferFn</text>
</g>
<!-- imagen.transferfn.TransferFn&#45;&gt;imagen.transferfn.sheet_tf.Convolve -->
<g id="edge2" class="edge"><title>imagen.transferfn.TransferFn&#45;&gt;imagen.transferfn.sheet_tf.Convolve</title>
<path fill="none" stroke="black" stroke-width="0.5" d="M384.156,-10C394.191,-10 404.584,-10 414.925,-10"/>
<polygon fill="black" stroke="black" points="414.996,-11.7501 419.996,-10 414.996,-8.2501 414.996,-11.7501"/>
</g>
<!-- param.parameterized.Parameterized -->
<g id="node4" class="node"><title>param.parameterized.Parameterized</title>
<polygon fill="none" stroke="black" stroke-width="0.5" points="194,-20.5 5.68434e-14,-20.5 0,0.5 194,0.5 194,-20.5"/>
<text text-anchor="middle" x="97" y="-7.5" font-family="Vera" font-size="10.00">param.parameterized.Parameterized</text>
</g>
<!-- param.parameterized.Parameterized&#45;&gt;imagen.transferfn.TransferFn -->
<g id="edge4" class="edge"><title>param.parameterized.Parameterized&#45;&gt;imagen.transferfn.TransferFn</title>
<path fill="none" stroke="black" stroke-width="0.5" d="M194.009,-10C204.259,-10 214.611,-10 224.671,-10"/>
<polygon fill="black" stroke="black" points="224.903,-11.7501 229.903,-10 224.903,-8.2501 224.903,-11.7501"/>
</g>
</g>
</svg>
