<?xml version="1.0" encoding="UTF-8" standalone="no"?>
<!DOCTYPE svg PUBLIC "-//W3C//DTD SVG 1.1//EN"
 "http://www.w3.org/Graphics/SVG/1.1/DTD/svg11.dtd">
<!-- Generated by graphviz version 2.26.3 (20100126.1600)
 -->
<!-- Title: inheritancef4cea304dd Pages: 1 -->
<svg width="1124pt" height="256pt"
 viewBox="0.00 0.00 1124.00 256.00" xmlns="http://www.w3.org/2000/svg" xmlns:xlink="http://www.w3.org/1999/xlink">
<g id="graph1" class="graph" transform="scale(1 1) rotate(0) translate(4 252)">
<title>inheritancef4cea304dd</title>
<polygon fill="white" stroke="white" points="-4,5 -4,-252 1121,-252 1121,5 -4,5"/>
<!-- topo.base.projection.Projection -->
<g id="node1" class="node"><title>topo.base.projection.Projection</title>
<polygon fill="none" stroke="black" stroke-width="0.5" points="667,-248.5 503,-248.5 503,-227.5 667,-227.5 667,-248.5"/>
<text text-anchor="middle" x="585" y="-235.5" font-family="Vera" font-size="10.00">topo.base.projection.Projection</text>
</g>
<!-- topo.base.cf.CFProjection -->
<g id="node18" class="node"><title>topo.base.cf.CFProjection</title>
<polygon fill="none" stroke="black" stroke-width="0.5" points="869,-248.5 733,-248.5 733,-227.5 869,-227.5 869,-248.5"/>
<text text-anchor="middle" x="801" y="-235.5" font-family="Vera" font-size="10.00">topo.base.cf.CFProjection</text>
</g>
<!-- topo.base.projection.Projection&#45;&gt;topo.base.cf.CFProjection -->
<g id="edge24" class="edge"><title>topo.base.projection.Projection&#45;&gt;topo.base.cf.CFProjection</title>
<path fill="none" stroke="black" stroke-width="0.5" d="M667.585,-238C687.071,-238 707.728,-238 726.817,-238"/>
<polygon fill="black" stroke="black" points="727.157,-239.75 732.157,-238 727.157,-236.25 727.157,-239.75"/>
</g>
<!-- topo.base.simulation.EPConnection -->
<g id="node2" class="node"><title>topo.base.simulation.EPConnection</title>
<polygon fill="none" stroke="black" stroke-width="0.5" points="441,-229.5 255,-229.5 255,-208.5 441,-208.5 441,-229.5"/>
<text text-anchor="middle" x="348" y="-216.5" font-family="Vera" font-size="10.00">topo.base.simulation.EPConnection</text>
</g>
<!-- topo.base.simulation.EPConnection&#45;&gt;topo.base.projection.Projection -->
<g id="edge2" class="edge"><title>topo.base.simulation.EPConnection&#45;&gt;topo.base.projection.Projection</title>
<path fill="none" stroke="black" stroke-width="0.5" d="M441.328,-226.482C459.681,-227.953 478.878,-229.492 497.046,-230.949"/>
<polygon fill="black" stroke="black" points="497.018,-232.702 502.142,-231.357 497.298,-229.213 497.018,-232.702"/>
</g>
<!-- topo.base.cf.CFPOutputFn -->
<g id="node4" class="node"><title>topo.base.cf.CFPOutputFn</title>
<polygon fill="none" stroke="black" stroke-width="0.5" points="418,-172.5 278,-172.5 278,-151.5 418,-151.5 418,-172.5"/>
<text text-anchor="middle" x="348" y="-159.5" font-family="Vera" font-size="10.00">topo.base.cf.CFPOutputFn</text>
</g>
<!-- topo.base.cf.CFPOF_Plugin -->
<g id="node20" class="node"><title>topo.base.cf.CFPOF_Plugin</title>
<polygon fill="none" stroke="black" stroke-width="0.5" points="656,-210.5 514,-210.5 514,-189.5 656,-189.5 656,-210.5"/>
<text text-anchor="middle" x="585" y="-197.5" font-family="Vera" font-size="10.00">topo.base.cf.CFPOF_Plugin</text>
</g>
<!-- topo.base.cf.CFPOutputFn&#45;&gt;topo.base.cf.CFPOF_Plugin -->
<g id="edge14" class="edge"><title>topo.base.cf.CFPOutputFn&#45;&gt;topo.base.cf.CFPOF_Plugin</title>
<path fill="none" stroke="black" stroke-width="0.5" d="M410.579,-172.034C443.384,-177.294 483.607,-183.743 517.157,-189.122"/>
<polygon fill="black" stroke="black" points="517.268,-190.912 522.482,-189.976 517.822,-187.456 517.268,-190.912"/>
</g>
<!-- topo.base.cf.CFPOF_Identity -->
<g id="node34" class="node"><title>topo.base.cf.CFPOF_Identity</title>
<polygon fill="none" stroke="black" stroke-width="0.5" points="659,-172.5 511,-172.5 511,-151.5 659,-151.5 659,-172.5"/>
<text text-anchor="middle" x="585" y="-159.5" font-family="Vera" font-size="10.00">topo.base.cf.CFPOF_Identity</text>
</g>
<!-- topo.base.cf.CFPOutputFn&#45;&gt;topo.base.cf.CFPOF_Identity -->
<g id="edge30" class="edge"><title>topo.base.cf.CFPOutputFn&#45;&gt;topo.base.cf.CFPOF_Identity</title>
<path fill="none" stroke="black" stroke-width="0.5" d="M418.146,-162C445.516,-162 477.04,-162 505.266,-162"/>
<polygon fill="black" stroke="black" points="505.496,-163.75 510.496,-162 505.496,-160.25 505.496,-163.75"/>
</g>
<!-- param.parameterized.Parameterized -->
<g id="node5" class="node"><title>param.parameterized.Parameterized</title>
<polygon fill="none" stroke="black" stroke-width="0.5" points="194,-134.5 5.68434e-14,-134.5 0,-113.5 194,-113.5 194,-134.5"/>
<text text-anchor="middle" x="97" y="-121.5" font-family="Vera" font-size="10.00">param.parameterized.Parameterized</text>
</g>
<!-- param.parameterized.Parameterized&#45;&gt;topo.base.simulation.EPConnection -->
<g id="edge32" class="edge"><title>param.parameterized.Parameterized&#45;&gt;topo.base.simulation.EPConnection</title>
<path fill="none" stroke="black" stroke-width="0.5" d="M172.778,-134.022C180.177,-136.411 187.384,-139.361 194,-143 214.384,-154.213 210.314,-168.603 230,-181 249.221,-193.104 272.649,-201.686 293.548,-207.593"/>
<polygon fill="black" stroke="black" points="293.238,-209.323 298.523,-208.963 294.167,-205.948 293.238,-209.323"/>
</g>
<!-- param.parameterized.Parameterized&#45;&gt;topo.base.cf.CFPOutputFn -->
<g id="edge4" class="edge"><title>param.parameterized.Parameterized&#45;&gt;topo.base.cf.CFPOutputFn</title>
<path fill="none" stroke="black" stroke-width="0.5" d="M163.276,-134.034C198.161,-139.315 240.968,-145.796 276.587,-151.189"/>
<polygon fill="black" stroke="black" points="276.583,-152.958 281.789,-151.976 277.107,-149.497 276.583,-152.958"/>
</g>
<!-- topo.base.cf.CFPLearningFn -->
<g id="node8" class="node"><title>topo.base.cf.CFPLearningFn</title>
<polygon fill="none" stroke="black" stroke-width="0.5" points="422,-134.5 274,-134.5 274,-113.5 422,-113.5 422,-134.5"/>
<text text-anchor="middle" x="348" y="-121.5" font-family="Vera" font-size="10.00">topo.base.cf.CFPLearningFn</text>
</g>
<!-- param.parameterized.Parameterized&#45;&gt;topo.base.cf.CFPLearningFn -->
<g id="edge22" class="edge"><title>param.parameterized.Parameterized&#45;&gt;topo.base.cf.CFPLearningFn</title>
<path fill="none" stroke="black" stroke-width="0.5" d="M194.043,-124C218.642,-124 244.781,-124 268.403,-124"/>
<polygon fill="black" stroke="black" points="268.404,-125.75 273.404,-124 268.404,-122.25 268.404,-125.75"/>
</g>
<!-- topo.base.simulation.EventProcessor -->
<g id="node10" class="node"><title>topo.base.simulation.EventProcessor</title>
<polygon fill="none" stroke="black" stroke-width="0.5" points="445,-96.5 251,-96.5 251,-75.5 445,-75.5 445,-96.5"/>
<text text-anchor="middle" x="348" y="-83.5" font-family="Vera" font-size="10.00">topo.base.simulation.EventProcessor</text>
</g>
<!-- param.parameterized.Parameterized&#45;&gt;topo.base.simulation.EventProcessor -->
<g id="edge8" class="edge"><title>param.parameterized.Parameterized&#45;&gt;topo.base.simulation.EventProcessor</title>
<path fill="none" stroke="black" stroke-width="0.5" d="M163.276,-113.966C198.161,-108.685 240.968,-102.204 276.587,-96.8115"/>
<polygon fill="black" stroke="black" points="277.107,-98.5029 281.789,-96.024 276.583,-95.0423 277.107,-98.5029"/>
</g>
<!-- topo.base.cf.CFPResponseFn -->
<g id="node14" class="node"><title>topo.base.cf.CFPResponseFn</title>
<polygon fill="none" stroke="black" stroke-width="0.5" points="424,-20.5 272,-20.5 272,0.5 424,0.5 424,-20.5"/>
<text text-anchor="middle" x="348" y="-7.5" font-family="Vera" font-size="10.00">topo.base.cf.CFPResponseFn</text>
</g>
<!-- param.parameterized.Parameterized&#45;&gt;topo.base.cf.CFPResponseFn -->
<g id="edge28" class="edge"><title>param.parameterized.Parameterized&#45;&gt;topo.base.cf.CFPResponseFn</title>
<path fill="none" stroke="black" stroke-width="0.5" d="M107.338,-113.972C128.441,-94.1446 178.821,-50.0342 230,-29 241.437,-24.2996 253.943,-20.758 266.4,-18.0904"/>
<polygon fill="black" stroke="black" points="266.81,-19.7928 271.356,-17.0736 266.107,-16.3642 266.81,-19.7928"/>
</g>
<!-- topo.base.cf.CFPLF_Identity -->
<g id="node7" class="node"><title>topo.base.cf.CFPLF_Identity</title>
<polygon fill="none" stroke="black" stroke-width="0.5" points="658,-134.5 512,-134.5 512,-113.5 658,-113.5 658,-134.5"/>
<text text-anchor="middle" x="585" y="-121.5" font-family="Vera" font-size="10.00">topo.base.cf.CFPLF_Identity</text>
</g>
<!-- topo.base.cf.CFPLearningFn&#45;&gt;topo.base.cf.CFPLF_Identity -->
<g id="edge6" class="edge"><title>topo.base.cf.CFPLearningFn&#45;&gt;topo.base.cf.CFPLF_Identity</title>
<path fill="none" stroke="black" stroke-width="0.5" d="M422.663,-124C449.121,-124 478.973,-124 505.796,-124"/>
<polygon fill="black" stroke="black" points="506.118,-125.75 511.118,-124 506.118,-122.25 506.118,-125.75"/>
</g>
<!-- topo.base.cf.CFPLF_Plugin -->
<g id="node31" class="node"><title>topo.base.cf.CFPLF_Plugin</title>
<polygon fill="none" stroke="black" stroke-width="0.5" points="655,-96.5 515,-96.5 515,-75.5 655,-75.5 655,-96.5"/>
<text text-anchor="middle" x="585" y="-83.5" font-family="Vera" font-size="10.00">topo.base.cf.CFPLF_Plugin</text>
</g>
<!-- topo.base.cf.CFPLearningFn&#45;&gt;topo.base.cf.CFPLF_Plugin -->
<g id="edge26" class="edge"><title>topo.base.cf.CFPLearningFn&#45;&gt;topo.base.cf.CFPLF_Plugin</title>
<path fill="none" stroke="black" stroke-width="0.5" d="M410.579,-113.966C443.384,-108.706 483.607,-102.257 517.157,-96.8779"/>
<polygon fill="black" stroke="black" points="517.822,-98.5436 522.482,-96.024 517.268,-95.0878 517.822,-98.5436"/>
</g>
<!-- topo.base.sheet.Sheet -->
<g id="node22" class="node"><title>topo.base.sheet.Sheet</title>
<polygon fill="none" stroke="black" stroke-width="0.5" points="648,-58.5 522,-58.5 522,-37.5 648,-37.5 648,-58.5"/>
<text text-anchor="middle" x="585" y="-45.5" font-family="Vera" font-size="10.00">topo.base.sheet.Sheet</text>
</g>
<!-- topo.base.simulation.EventProcessor&#45;&gt;topo.base.sheet.Sheet -->
<g id="edge16" class="edge"><title>topo.base.simulation.EventProcessor&#45;&gt;topo.base.sheet.Sheet</title>
<path fill="none" stroke="black" stroke-width="0.5" d="M410.579,-75.9662C443.384,-70.7064 483.607,-64.2571 517.157,-58.8779"/>
<polygon fill="black" stroke="black" points="517.822,-60.5436 522.482,-58.024 517.268,-57.0878 517.822,-60.5436"/>
</g>
<!-- topo.base.cf.ConnectionField -->
<g id="node12" class="node"><title>topo.base.cf.ConnectionField</title>
<polygon fill="none" stroke="black" stroke-width="0.5" points="173,-172.5 21,-172.5 21,-151.5 173,-151.5 173,-172.5"/>
<text text-anchor="middle" x="97" y="-159.5" font-family="Vera" font-size="10.00">topo.base.cf.ConnectionField</text>
</g>
<!-- topo.base.cf.CFPRF_Plugin -->
<g id="node13" class="node"><title>topo.base.cf.CFPRF_Plugin</title>
<polygon fill="none" stroke="black" stroke-width="0.5" points="655,-20.5 515,-20.5 515,0.5 655,0.5 655,-20.5"/>
<text text-anchor="middle" x="585" y="-7.5" font-family="Vera" font-size="10.00">topo.base.cf.CFPRF_Plugin</text>
</g>
<!-- topo.base.cf.CFPResponseFn&#45;&gt;topo.base.cf.CFPRF_Plugin -->
<g id="edge10" class="edge"><title>topo.base.cf.CFPResponseFn&#45;&gt;topo.base.cf.CFPRF_Plugin</title>
<path fill="none" stroke="black" stroke-width="0.5" d="M424.62,-10C451.738,-10 482.215,-10 509.259,-10"/>
<polygon fill="black" stroke="black" points="509.268,-11.7501 514.268,-10 509.268,-8.2501 509.268,-11.7501"/>
</g>
<!-- topo.base.cf.NullCFError -->
<g id="node16" class="node"><title>topo.base.cf.NullCFError</title>
<polygon fill="none" stroke="black" stroke-width="0.5" points="162,-210.5 32,-210.5 32,-189.5 162,-189.5 162,-210.5"/>
<text text-anchor="middle" x="97" y="-197.5" font-family="Vera" font-size="10.00">topo.base.cf.NullCFError</text>
</g>
<!-- topo.base.cf.ResizableCFProjection -->
<g id="node17" class="node"><title>topo.base.cf.ResizableCFProjection</title>
<polygon fill="none" stroke="black" stroke-width="0.5" points="1116,-248.5 934,-248.5 934,-227.5 1116,-227.5 1116,-248.5"/>
<text text-anchor="middle" x="1025" y="-235.5" font-family="Vera" font-size="10.00">topo.base.cf.ResizableCFProjection</text>
</g>
<!-- topo.base.cf.CFProjection&#45;&gt;topo.base.cf.ResizableCFProjection -->
<g id="edge12" class="edge"><title>topo.base.cf.CFProjection&#45;&gt;topo.base.cf.ResizableCFProjection</title>
<path fill="none" stroke="black" stroke-width="0.5" d="M869.73,-238C888.343,-238 908.841,-238 928.67,-238"/>
<polygon fill="black" stroke="black" points="928.696,-239.75 933.696,-238 928.696,-236.25 928.696,-239.75"/>
</g>
<!-- topo.base.projection.ProjectionSheet -->
<g id="node27" class="node"><title>topo.base.projection.ProjectionSheet</title>
<polygon fill="none" stroke="black" stroke-width="0.5" points="898,-58.5 704,-58.5 704,-37.5 898,-37.5 898,-58.5"/>
<text text-anchor="middle" x="801" y="-45.5" font-family="Vera" font-size="10.00">topo.base.projection.ProjectionSheet</text>
</g>
<!-- topo.base.sheet.Sheet&#45;&gt;topo.base.projection.ProjectionSheet -->
<g id="edge34" class="edge"><title>topo.base.sheet.Sheet&#45;&gt;topo.base.projection.ProjectionSheet</title>
<path fill="none" stroke="black" stroke-width="0.5" d="M648.057,-48C663.856,-48 681.216,-48 698.394,-48"/>
<polygon fill="black" stroke="black" points="698.717,-49.7501 703.717,-48 698.717,-46.2501 698.717,-49.7501"/>
</g>
<!-- imagen.sheetcoords.SheetCoordinateSystem -->
<g id="node24" class="node"><title>imagen.sheetcoords.SheetCoordinateSystem</title>
<polygon fill="none" stroke="black" stroke-width="0.5" points="466,-58.5 230,-58.5 230,-37.5 466,-37.5 466,-58.5"/>
<text text-anchor="middle" x="348" y="-45.5" font-family="Vera" font-size="10.00">imagen.sheetcoords.SheetCoordinateSystem</text>
</g>
<!-- imagen.sheetcoords.SheetCoordinateSystem&#45;&gt;topo.base.sheet.Sheet -->
<g id="edge18" class="edge"><title>imagen.sheetcoords.SheetCoordinateSystem&#45;&gt;topo.base.sheet.Sheet</title>
<path fill="none" stroke="black" stroke-width="0.5" d="M466.153,-48C483.445,-48 500.748,-48 516.587,-48"/>
<polygon fill="black" stroke="black" points="516.901,-49.7501 521.901,-48 516.9,-46.2501 516.901,-49.7501"/>
</g>
<!-- topo.base.cf.CFSheet -->
<g id="node26" class="node"><title>topo.base.cf.CFSheet</title>
<polygon fill="none" stroke="black" stroke-width="0.5" points="1084,-58.5 966,-58.5 966,-37.5 1084,-37.5 1084,-58.5"/>
<text text-anchor="middle" x="1025" y="-45.5" font-family="Vera" font-size="10.00">topo.base.cf.CFSheet</text>
</g>
<!-- topo.base.projection.ProjectionSheet&#45;&gt;topo.base.cf.CFSheet -->
<g id="edge20" class="edge"><title>topo.base.projection.ProjectionSheet&#45;&gt;topo.base.cf.CFSheet</title>
<path fill="none" stroke="black" stroke-width="0.5" d="M898.272,-48C919.101,-48 940.622,-48 959.885,-48"/>
<polygon fill="black" stroke="black" points="960.255,-49.7501 965.255,-48 960.255,-46.2501 960.255,-49.7501"/>
</g>
<!-- topo.base.cf.CFIter -->
<g id="node36" class="node"><title>topo.base.cf.CFIter</title>
<polygon fill="none" stroke="black" stroke-width="0.5" points="150,-248.5 44,-248.5 44,-227.5 150,-227.5 150,-248.5"/>
<text text-anchor="middle" x="97" y="-235.5" font-family="Vera" font-size="10.00">topo.base.cf.CFIter</text>
</g>
</g>
</svg>
