<?xml version="1.0" encoding="UTF-8" standalone="no"?>
<!DOCTYPE svg PUBLIC "-//W3C//DTD SVG 1.1//EN"
 "http://www.w3.org/Graphics/SVG/1.1/DTD/svg11.dtd">
<!-- Generated by graphviz version 2.26.3 (20100126.1600)
 -->
<!-- Title: inheritancef460e08ae4 Pages: 1 -->
<svg width="838pt" height="199pt"
 viewBox="0.00 0.00 838.00 199.00" xmlns="http://www.w3.org/2000/svg" xmlns:xlink="http://www.w3.org/1999/xlink">
<g id="graph1" class="graph" transform="scale(1 1) rotate(0) translate(4 195)">
<title>inheritancef460e08ae4</title>
<polygon fill="white" stroke="white" points="-4,5 -4,-195 835,-195 835,5 -4,5"/>
<!-- dataviews.boundingregion.BoundingEllipse -->
<g id="node1" class="node"><title>dataviews.boundingregion.BoundingEllipse</title>
<polygon fill="none" stroke="black" stroke-width="0.5" points="807,-115.5 589,-115.5 589,-94.5 807,-94.5 807,-115.5"/>
<text text-anchor="middle" x="698" y="-102.5" font-family="Vera" font-size="10.00">dataviews.boundingregion.BoundingEllipse</text>
</g>
<!-- dataviews.boundingregion.BoundingBox -->
<g id="node2" class="node"><title>dataviews.boundingregion.BoundingBox</title>
<polygon fill="none" stroke="black" stroke-width="0.5" points="497,-96.5 291,-96.5 291,-75.5 497,-75.5 497,-96.5"/>
<text text-anchor="middle" x="394" y="-83.5" font-family="Vera" font-size="10.00">dataviews.boundingregion.BoundingBox</text>
</g>
<!-- dataviews.boundingregion.BoundingBox&#45;&gt;dataviews.boundingregion.BoundingEllipse -->
<g id="edge2" class="edge"><title>dataviews.boundingregion.BoundingBox&#45;&gt;dataviews.boundingregion.BoundingEllipse</title>
<path fill="none" stroke="black" stroke-width="0.5" d="M497.769,-92.4856C525.297,-94.206 555.179,-96.0737 583.254,-97.8284"/>
<polygon fill="black" stroke="black" points="583.374,-99.5892 588.474,-98.1546 583.593,-96.096 583.374,-99.5892"/>
</g>
<!-- dataviews.boundingregion.BoundingBoxIntersection -->
<g id="node9" class="node"><title>dataviews.boundingregion.BoundingBoxIntersection</title>
<polygon fill="none" stroke="black" stroke-width="0.5" points="829,-77.5 567,-77.5 567,-56.5 829,-56.5 829,-77.5"/>
<text text-anchor="middle" x="698" y="-64.5" font-family="Vera" font-size="10.00">dataviews.boundingregion.BoundingBoxIntersection</text>
</g>
<!-- dataviews.boundingregion.BoundingBox&#45;&gt;dataviews.boundingregion.BoundingBoxIntersection -->
<g id="edge6" class="edge"><title>dataviews.boundingregion.BoundingBox&#45;&gt;dataviews.boundingregion.BoundingBoxIntersection</title>
<path fill="none" stroke="black" stroke-width="0.5" d="M497.769,-79.5144C518.231,-78.2355 539.995,-76.8753 561.349,-75.5407"/>
<polygon fill="black" stroke="black" points="561.596,-77.2788 566.477,-75.2202 561.377,-73.7856 561.596,-77.2788"/>
</g>
<!-- dataviews.boundingregion.BoundingRegionParameter -->
<g id="node4" class="node"><title>dataviews.boundingregion.BoundingRegionParameter</title>
<polygon fill="none" stroke="black" stroke-width="0.5" points="529,-172.5 259,-172.5 259,-151.5 529,-151.5 529,-172.5"/>
<text text-anchor="middle" x="394" y="-159.5" font-family="Vera" font-size="10.00">dataviews.boundingregion.BoundingRegionParameter</text>
</g>
<!-- param.parameterized.Parameter -->
<g id="node5" class="node"><title>param.parameterized.Parameter</title>
<polygon fill="none" stroke="black" stroke-width="0.5" points="198,-153.5 24,-153.5 24,-132.5 198,-132.5 198,-153.5"/>
<text text-anchor="middle" x="111" y="-140.5" font-family="Vera" font-size="10.00">param.parameterized.Parameter</text>
</g>
<!-- param.parameterized.Parameter&#45;&gt;dataviews.boundingregion.BoundingRegionParameter -->
<g id="edge4" class="edge"><title>param.parameterized.Parameter&#45;&gt;dataviews.boundingregion.BoundingRegionParameter</title>
<path fill="none" stroke="black" stroke-width="0.5" d="M198.605,-148.882C215.966,-150.047 234.599,-151.298 253.216,-152.548"/>
<polygon fill="black" stroke="black" points="253.359,-154.312 258.465,-152.9 253.593,-150.819 253.359,-154.312"/>
</g>
<!-- dataviews.boundingregion.Cartesian2DPoint -->
<g id="node11" class="node"><title>dataviews.boundingregion.Cartesian2DPoint</title>
<polygon fill="none" stroke="black" stroke-width="0.5" points="507,-134.5 281,-134.5 281,-113.5 507,-113.5 507,-134.5"/>
<text text-anchor="middle" x="394" y="-121.5" font-family="Vera" font-size="10.00">dataviews.boundingregion.Cartesian2DPoint</text>
</g>
<!-- param.parameterized.Parameter&#45;&gt;dataviews.boundingregion.Cartesian2DPoint -->
<g id="edge8" class="edge"><title>param.parameterized.Parameter&#45;&gt;dataviews.boundingregion.Cartesian2DPoint</title>
<path fill="none" stroke="black" stroke-width="0.5" d="M198.605,-137.118C222.879,-135.489 249.64,-133.692 275.366,-131.965"/>
<polygon fill="black" stroke="black" points="275.625,-133.701 280.496,-131.62 275.39,-130.209 275.625,-133.701"/>
</g>
<!-- dataviews.boundingregion.AARectangle -->
<g id="node7" class="node"><title>dataviews.boundingregion.AARectangle</title>
<polygon fill="none" stroke="black" stroke-width="0.5" points="213,-191.5 9,-191.5 9,-170.5 213,-170.5 213,-191.5"/>
<text text-anchor="middle" x="111" y="-178.5" font-family="Vera" font-size="10.00">dataviews.boundingregion.AARectangle</text>
</g>
<!-- dataviews.boundingregion.BoundingRegion -->
<g id="node8" class="node"><title>dataviews.boundingregion.BoundingRegion</title>
<polygon fill="none" stroke="black" stroke-width="0.5" points="221,-58.5 1,-58.5 1,-37.5 221,-37.5 221,-58.5"/>
<text text-anchor="middle" x="111" y="-45.5" font-family="Vera" font-size="10.00">dataviews.boundingregion.BoundingRegion</text>
</g>
<!-- dataviews.boundingregion.BoundingRegion&#45;&gt;dataviews.boundingregion.BoundingBox -->
<g id="edge12" class="edge"><title>dataviews.boundingregion.BoundingRegion&#45;&gt;dataviews.boundingregion.BoundingBox</title>
<path fill="none" stroke="black" stroke-width="0.5" d="M185.725,-58.0338C225.219,-63.3369 273.718,-69.8491 313.976,-75.2547"/>
<polygon fill="black" stroke="black" points="314.159,-77.0449 319.347,-75.976 314.625,-73.576 314.159,-77.0449"/>
</g>
<!-- dataviews.boundingregion.Unbounded -->
<g id="node13" class="node"><title>dataviews.boundingregion.Unbounded</title>
<polygon fill="none" stroke="black" stroke-width="0.5" points="494,-58.5 294,-58.5 294,-37.5 494,-37.5 494,-58.5"/>
<text text-anchor="middle" x="394" y="-45.5" font-family="Vera" font-size="10.00">dataviews.boundingregion.Unbounded</text>
</g>
<!-- dataviews.boundingregion.BoundingRegion&#45;&gt;dataviews.boundingregion.Unbounded -->
<g id="edge10" class="edge"><title>dataviews.boundingregion.BoundingRegion&#45;&gt;dataviews.boundingregion.Unbounded</title>
<path fill="none" stroke="black" stroke-width="0.5" d="M221.631,-48C243.59,-48 266.591,-48 288.377,-48"/>
<polygon fill="black" stroke="black" points="288.592,-49.7501 293.592,-48 288.592,-46.2501 288.592,-49.7501"/>
</g>
<!-- dataviews.boundingregion.BoundingCircle -->
<g id="node16" class="node"><title>dataviews.boundingregion.BoundingCircle</title>
<polygon fill="none" stroke="black" stroke-width="0.5" points="501,-20.5 287,-20.5 287,0.5 501,0.5 501,-20.5"/>
<text text-anchor="middle" x="394" y="-7.5" font-family="Vera" font-size="10.00">dataviews.boundingregion.BoundingCircle</text>
</g>
<!-- dataviews.boundingregion.BoundingRegion&#45;&gt;dataviews.boundingregion.BoundingCircle -->
<g id="edge14" class="edge"><title>dataviews.boundingregion.BoundingRegion&#45;&gt;dataviews.boundingregion.BoundingCircle</title>
<path fill="none" stroke="black" stroke-width="0.5" d="M185.725,-37.9662C225.219,-32.6631 273.718,-26.1509 313.976,-20.7453"/>
<polygon fill="black" stroke="black" points="314.625,-22.424 319.347,-20.024 314.159,-18.9551 314.625,-22.424"/>
</g>
</g>
</svg>
