<?xml version="1.0" encoding="UTF-8" standalone="no"?>
<!DOCTYPE svg PUBLIC "-//W3C//DTD SVG 1.1//EN"
 "http://www.w3.org/Graphics/SVG/1.1/DTD/svg11.dtd">
<!-- Generated by graphviz version 2.26.3 (20100126.1600)
 -->
<!-- Title: inheritancebede3c61fc Pages: 1 -->
<svg width="1742pt" height="408pt"
 viewBox="0.00 0.00 1742.00 408.00" xmlns="http://www.w3.org/2000/svg" xmlns:xlink="http://www.w3.org/1999/xlink">
<g id="graph1" class="graph" transform="scale(1 1) rotate(0) translate(4 404)">
<title>inheritancebede3c61fc</title>
<polygon fill="white" stroke="white" points="-4,5 -4,-404 1739,-404 1739,5 -4,5"/>
<!-- topo.command.pylabplot.overlaid_plots -->
<g id="node1" class="node"><title>topo.command.pylabplot.overlaid_plots</title>
<polygon fill="none" stroke="black" stroke-width="0.5" points="1441,-400.5 1235,-400.5 1235,-379.5 1441,-379.5 1441,-400.5"/>
<text text-anchor="middle" x="1338" y="-387.5" font-family="Vera" font-size="10.00">topo.command.pylabplot.overlaid_plots</text>
</g>
<!-- topo.command.pylabplot.overlaid_plot -->
<g id="node2" class="node"><title>topo.command.pylabplot.overlaid_plot</title>
<polygon fill="none" stroke="black" stroke-width="0.5" points="1162,-362.5 962,-362.5 962,-341.5 1162,-341.5 1162,-362.5"/>
<text text-anchor="middle" x="1062" y="-349.5" font-family="Vera" font-size="10.00">topo.command.pylabplot.overlaid_plot</text>
</g>
<!-- topo.command.pylabplot.overlaid_plot&#45;&gt;topo.command.pylabplot.overlaid_plots -->
<g id="edge2" class="edge"><title>topo.command.pylabplot.overlaid_plot&#45;&gt;topo.command.pylabplot.overlaid_plots</title>
<path fill="none" stroke="black" stroke-width="0.5" d="M1134.88,-362.034C1173.39,-367.337 1220.69,-373.849 1259.96,-379.255"/>
<polygon fill="black" stroke="black" points="1260,-381.028 1265.19,-379.976 1260.48,-377.56 1260,-381.028"/>
</g>
<!-- topo.command.pylabplot.matrixplot -->
<g id="node4" class="node"><title>topo.command.pylabplot.matrixplot</title>
<polygon fill="none" stroke="black" stroke-width="0.5" points="1156,-286.5 968,-286.5 968,-265.5 1156,-265.5 1156,-286.5"/>
<text text-anchor="middle" x="1062" y="-273.5" font-family="Vera" font-size="10.00">topo.command.pylabplot.matrixplot</text>
</g>
<!-- topo.command.pylabplot.fftplot -->
<g id="node16" class="node"><title>topo.command.pylabplot.fftplot</title>
<polygon fill="none" stroke="black" stroke-width="0.5" points="1421,-362.5 1255,-362.5 1255,-341.5 1421,-341.5 1421,-362.5"/>
<text text-anchor="middle" x="1338" y="-349.5" font-family="Vera" font-size="10.00">topo.command.pylabplot.fftplot</text>
</g>
<!-- topo.command.pylabplot.matrixplot&#45;&gt;topo.command.pylabplot.fftplot -->
<g id="edge14" class="edge"><title>topo.command.pylabplot.matrixplot&#45;&gt;topo.command.pylabplot.fftplot</title>
<path fill="none" stroke="black" stroke-width="0.5" d="M1083.57,-286.043C1111.95,-298.851 1163.67,-320.799 1210,-333 1222.56,-336.308 1235.98,-339.091 1249.23,-341.418"/>
<polygon fill="black" stroke="black" points="1249.27,-343.2 1254.49,-342.32 1249.86,-339.75 1249.27,-343.2"/>
</g>
<!-- topo.command.pylabplot.gradientplot -->
<g id="node28" class="node"><title>topo.command.pylabplot.gradientplot</title>
<polygon fill="none" stroke="black" stroke-width="0.5" points="1436,-324.5 1240,-324.5 1240,-303.5 1436,-303.5 1436,-324.5"/>
<text text-anchor="middle" x="1338" y="-311.5" font-family="Vera" font-size="10.00">topo.command.pylabplot.gradientplot</text>
</g>
<!-- topo.command.pylabplot.matrixplot&#45;&gt;topo.command.pylabplot.gradientplot -->
<g id="edge26" class="edge"><title>topo.command.pylabplot.matrixplot&#45;&gt;topo.command.pylabplot.gradientplot</title>
<path fill="none" stroke="black" stroke-width="0.5" d="M1134.88,-286.034C1173.39,-291.337 1220.69,-297.849 1259.96,-303.255"/>
<polygon fill="black" stroke="black" points="1260,-305.028 1265.19,-303.976 1260.48,-301.56 1260,-305.028"/>
</g>
<!-- topo.command.pylabplot.activityplot -->
<g id="node38" class="node"><title>topo.command.pylabplot.activityplot</title>
<polygon fill="none" stroke="black" stroke-width="0.5" points="1433,-286.5 1243,-286.5 1243,-265.5 1433,-265.5 1433,-286.5"/>
<text text-anchor="middle" x="1338" y="-273.5" font-family="Vera" font-size="10.00">topo.command.pylabplot.activityplot</text>
</g>
<!-- topo.command.pylabplot.matrixplot&#45;&gt;topo.command.pylabplot.activityplot -->
<g id="edge38" class="edge"><title>topo.command.pylabplot.matrixplot&#45;&gt;topo.command.pylabplot.activityplot</title>
<path fill="none" stroke="black" stroke-width="0.5" d="M1156.21,-276C1182.27,-276 1210.65,-276 1237.08,-276"/>
<polygon fill="black" stroke="black" points="1237.34,-277.75 1242.34,-276 1237.34,-274.25 1237.34,-277.75"/>
</g>
<!-- topo.command.pylabplot.autocorrelationplot -->
<g id="node40" class="node"><title>topo.command.pylabplot.autocorrelationplot</title>
<polygon fill="none" stroke="black" stroke-width="0.5" points="1453,-248.5 1223,-248.5 1223,-227.5 1453,-227.5 1453,-248.5"/>
<text text-anchor="middle" x="1338" y="-235.5" font-family="Vera" font-size="10.00">topo.command.pylabplot.autocorrelationplot</text>
</g>
<!-- topo.command.pylabplot.matrixplot&#45;&gt;topo.command.pylabplot.autocorrelationplot -->
<g id="edge40" class="edge"><title>topo.command.pylabplot.matrixplot&#45;&gt;topo.command.pylabplot.autocorrelationplot</title>
<path fill="none" stroke="black" stroke-width="0.5" d="M1134.88,-265.966C1173.39,-260.663 1220.69,-254.151 1259.96,-248.745"/>
<polygon fill="black" stroke="black" points="1260.48,-250.44 1265.19,-248.024 1260,-246.972 1260.48,-250.44"/>
</g>
<!-- topo.command.pylabplot.PylabPlotCommand -->
<g id="node5" class="node"><title>topo.command.pylabplot.PylabPlotCommand</title>
<polygon fill="none" stroke="black" stroke-width="0.5" points="913,-153.5 681,-153.5 681,-132.5 913,-132.5 913,-153.5"/>
<text text-anchor="middle" x="797" y="-140.5" font-family="Vera" font-size="10.00">topo.command.pylabplot.PylabPlotCommand</text>
</g>
<!-- topo.command.pylabplot.PylabPlotCommand&#45;&gt;topo.command.pylabplot.overlaid_plot -->
<g id="edge6" class="edge"><title>topo.command.pylabplot.PylabPlotCommand&#45;&gt;topo.command.pylabplot.overlaid_plot</title>
<path fill="none" stroke="black" stroke-width="0.5" d="M805.394,-153.336C827.113,-179.6 887.818,-250 950,-295 975.742,-313.629 1008.44,-329.51 1031.85,-339.74"/>
<polygon fill="black" stroke="black" points="1031.42,-341.459 1036.7,-341.837 1032.81,-338.246 1031.42,-341.459"/>
</g>
<!-- topo.command.pylabplot.PylabPlotCommand&#45;&gt;topo.command.pylabplot.matrixplot -->
<g id="edge4" class="edge"><title>topo.command.pylabplot.PylabPlotCommand&#45;&gt;topo.command.pylabplot.matrixplot</title>
<path fill="none" stroke="black" stroke-width="0.5" d="M817.354,-153.215C865.354,-177.306 985.478,-237.595 1037.43,-263.667"/>
<polygon fill="black" stroke="black" points="1036.69,-265.253 1041.94,-265.932 1038.26,-262.125 1036.69,-265.253"/>
</g>
<!-- topo.command.pylabplot.xy_grid -->
<g id="node19" class="node"><title>topo.command.pylabplot.xy_grid</title>
<polygon fill="none" stroke="black" stroke-width="0.5" points="1148,-210.5 976,-210.5 976,-189.5 1148,-189.5 1148,-210.5"/>
<text text-anchor="middle" x="1062" y="-197.5" font-family="Vera" font-size="10.00">topo.command.pylabplot.xy_grid</text>
</g>
<!-- topo.command.pylabplot.PylabPlotCommand&#45;&gt;topo.command.pylabplot.xy_grid -->
<g id="edge24" class="edge"><title>topo.command.pylabplot.PylabPlotCommand&#45;&gt;topo.command.pylabplot.xy_grid</title>
<path fill="none" stroke="black" stroke-width="0.5" d="M834.232,-153.082C865.102,-161.24 910.213,-172.697 950,-181 963.756,-183.871 978.53,-186.615 992.691,-189.082"/>
<polygon fill="black" stroke="black" points="992.652,-190.851 997.877,-189.977 993.248,-187.402 992.652,-190.851"/>
</g>
<!-- topo.command.pylabplot.unit_tuning_curve -->
<g id="node21" class="node"><title>topo.command.pylabplot.unit_tuning_curve</title>
<polygon fill="none" stroke="black" stroke-width="0.5" points="1174,-172.5 950,-172.5 950,-151.5 1174,-151.5 1174,-172.5"/>
<text text-anchor="middle" x="1062" y="-159.5" font-family="Vera" font-size="10.00">topo.command.pylabplot.unit_tuning_curve</text>
</g>
<!-- topo.command.pylabplot.PylabPlotCommand&#45;&gt;topo.command.pylabplot.unit_tuning_curve -->
<g id="edge28" class="edge"><title>topo.command.pylabplot.PylabPlotCommand&#45;&gt;topo.command.pylabplot.unit_tuning_curve</title>
<path fill="none" stroke="black" stroke-width="0.5" d="M913.618,-151.361C924,-152.106 934.514,-152.86 944.9,-153.604"/>
<polygon fill="black" stroke="black" points="944.875,-155.357 949.987,-153.969 945.125,-151.866 944.875,-155.357"/>
</g>
<!-- topo.command.pylabplot.matrixplot3d -->
<g id="node23" class="node"><title>topo.command.pylabplot.matrixplot3d</title>
<polygon fill="none" stroke="black" stroke-width="0.5" points="1162,-134.5 962,-134.5 962,-113.5 1162,-113.5 1162,-134.5"/>
<text text-anchor="middle" x="1062" y="-121.5" font-family="Vera" font-size="10.00">topo.command.pylabplot.matrixplot3d</text>
</g>
<!-- topo.command.pylabplot.PylabPlotCommand&#45;&gt;topo.command.pylabplot.matrixplot3d -->
<g id="edge20" class="edge"><title>topo.command.pylabplot.PylabPlotCommand&#45;&gt;topo.command.pylabplot.matrixplot3d</title>
<path fill="none" stroke="black" stroke-width="0.5" d="M913.618,-134.639C927.964,-133.61 942.562,-132.563 956.727,-131.548"/>
<polygon fill="black" stroke="black" points="957.062,-133.278 961.924,-131.175 956.812,-129.787 957.062,-133.278"/>
</g>
<!-- topo.command.pylabplot.histogramplot -->
<g id="node31" class="node"><title>topo.command.pylabplot.histogramplot</title>
<polygon fill="none" stroke="black" stroke-width="0.5" points="1165,-96.5 959,-96.5 959,-75.5 1165,-75.5 1165,-96.5"/>
<text text-anchor="middle" x="1062" y="-83.5" font-family="Vera" font-size="10.00">topo.command.pylabplot.histogramplot</text>
</g>
<!-- topo.command.pylabplot.PylabPlotCommand&#45;&gt;topo.command.pylabplot.histogramplot -->
<g id="edge30" class="edge"><title>topo.command.pylabplot.PylabPlotCommand&#45;&gt;topo.command.pylabplot.histogramplot</title>
<path fill="none" stroke="black" stroke-width="0.5" d="M834.232,-132.918C865.102,-124.76 910.213,-113.303 950,-105 963.756,-102.129 978.53,-99.3847 992.691,-96.9185"/>
<polygon fill="black" stroke="black" points="993.248,-98.5982 997.877,-96.0227 992.652,-95.1493 993.248,-98.5982"/>
</g>
<!-- topo.command.pylabplot.vectorplot -->
<g id="node33" class="node"><title>topo.command.pylabplot.vectorplot</title>
<polygon fill="none" stroke="black" stroke-width="0.5" points="1156,-58.5 968,-58.5 968,-37.5 1156,-37.5 1156,-58.5"/>
<text text-anchor="middle" x="1062" y="-45.5" font-family="Vera" font-size="10.00">topo.command.pylabplot.vectorplot</text>
</g>
<!-- topo.command.pylabplot.PylabPlotCommand&#45;&gt;topo.command.pylabplot.vectorplot -->
<g id="edge32" class="edge"><title>topo.command.pylabplot.PylabPlotCommand&#45;&gt;topo.command.pylabplot.vectorplot</title>
<path fill="none" stroke="black" stroke-width="0.5" d="M813.296,-132.889C840.544,-116.453 897.541,-84.067 950,-67 959.509,-63.9063 969.645,-61.2928 979.786,-59.0905"/>
<polygon fill="black" stroke="black" points="980.231,-60.7854 984.763,-58.0422 979.509,-57.3606 980.231,-60.7854"/>
</g>
<!-- topo.command.pylabplot.matrixplot3dx3 -->
<g id="node35" class="node"><title>topo.command.pylabplot.matrixplot3dx3</title>
<polygon fill="none" stroke="black" stroke-width="0.5" points="1168,-20.5 956,-20.5 956,0.5 1168,0.5 1168,-20.5"/>
<text text-anchor="middle" x="1062" y="-7.5" font-family="Vera" font-size="10.00">topo.command.pylabplot.matrixplot3dx3</text>
</g>
<!-- topo.command.pylabplot.PylabPlotCommand&#45;&gt;topo.command.pylabplot.matrixplot3dx3 -->
<g id="edge34" class="edge"><title>topo.command.pylabplot.PylabPlotCommand&#45;&gt;topo.command.pylabplot.matrixplot3dx3</title>
<path fill="none" stroke="black" stroke-width="0.5" d="M807.017,-132.762C829.967,-109.979 889.088,-55.0551 950,-29 956.925,-26.038 964.275,-23.5369 971.771,-21.4251"/>
<polygon fill="black" stroke="black" points="972.606,-23.0128 976.98,-20.0244 971.698,-19.6329 972.606,-23.0128"/>
</g>
<!-- topo.command.Command -->
<g id="node8" class="node"><title>topo.command.Command</title>
<polygon fill="none" stroke="black" stroke-width="0.5" points="643,-153.5 501,-153.5 501,-132.5 643,-132.5 643,-153.5"/>
<text text-anchor="middle" x="572" y="-140.5" font-family="Vera" font-size="10.00">topo.command.Command</text>
</g>
<!-- topo.command.Command&#45;&gt;topo.command.pylabplot.PylabPlotCommand -->
<g id="edge36" class="edge"><title>topo.command.Command&#45;&gt;topo.command.pylabplot.PylabPlotCommand</title>
<path fill="none" stroke="black" stroke-width="0.5" d="M643.501,-143C653.767,-143 664.56,-143 675.468,-143"/>
<polygon fill="black" stroke="black" points="675.486,-144.75 680.486,-143 675.486,-141.25 675.486,-144.75"/>
</g>
<!-- param.parameterized.ParameterizedFunction -->
<g id="node9" class="node"><title>param.parameterized.ParameterizedFunction</title>
<polygon fill="none" stroke="black" stroke-width="0.5" points="464,-153.5 230,-153.5 230,-132.5 464,-132.5 464,-153.5"/>
<text text-anchor="middle" x="347" y="-140.5" font-family="Vera" font-size="10.00">param.parameterized.ParameterizedFunction</text>
</g>
<!-- param.parameterized.ParameterizedFunction&#45;&gt;topo.command.Command -->
<g id="edge8" class="edge"><title>param.parameterized.ParameterizedFunction&#45;&gt;topo.command.Command</title>
<path fill="none" stroke="black" stroke-width="0.5" d="M464.113,-143C474.661,-143 485.155,-143 495.222,-143"/>
<polygon fill="black" stroke="black" points="495.446,-144.75 500.446,-143 495.446,-141.25 495.446,-144.75"/>
</g>
<!-- topo.command.pylabplot.cyclic_tuning_curve -->
<g id="node11" class="node"><title>topo.command.pylabplot.cyclic_tuning_curve</title>
<polygon fill="none" stroke="black" stroke-width="0.5" points="1734,-172.5 1502,-172.5 1502,-151.5 1734,-151.5 1734,-172.5"/>
<text text-anchor="middle" x="1618" y="-159.5" font-family="Vera" font-size="10.00">topo.command.pylabplot.cyclic_tuning_curve</text>
</g>
<!-- topo.command.pylabplot.cyclic_unit_tuning_curve -->
<g id="node12" class="node"><title>topo.command.pylabplot.cyclic_unit_tuning_curve</title>
<polygon fill="none" stroke="black" stroke-width="0.5" points="1465,-172.5 1211,-172.5 1211,-151.5 1465,-151.5 1465,-172.5"/>
<text text-anchor="middle" x="1338" y="-159.5" font-family="Vera" font-size="10.00">topo.command.pylabplot.cyclic_unit_tuning_curve</text>
</g>
<!-- topo.command.pylabplot.cyclic_unit_tuning_curve&#45;&gt;topo.command.pylabplot.cyclic_tuning_curve -->
<g id="edge10" class="edge"><title>topo.command.pylabplot.cyclic_unit_tuning_curve&#45;&gt;topo.command.pylabplot.cyclic_tuning_curve</title>
<path fill="none" stroke="black" stroke-width="0.5" d="M1465.71,-162C1476,-162 1486.37,-162 1496.62,-162"/>
<polygon fill="black" stroke="black" points="1496.63,-163.75 1501.63,-162 1496.63,-160.25 1496.63,-163.75"/>
</g>
<!-- param.parameterized.Parameterized -->
<g id="node14" class="node"><title>param.parameterized.Parameterized</title>
<polygon fill="none" stroke="black" stroke-width="0.5" points="194,-153.5 5.68434e-14,-153.5 0,-132.5 194,-132.5 194,-153.5"/>
<text text-anchor="middle" x="97" y="-140.5" font-family="Vera" font-size="10.00">param.parameterized.Parameterized</text>
</g>
<!-- param.parameterized.Parameterized&#45;&gt;param.parameterized.ParameterizedFunction -->
<g id="edge12" class="edge"><title>param.parameterized.Parameterized&#45;&gt;param.parameterized.ParameterizedFunction</title>
<path fill="none" stroke="black" stroke-width="0.5" d="M194.014,-143C204.04,-143 214.319,-143 224.575,-143"/>
<polygon fill="black" stroke="black" points="224.607,-144.75 229.607,-143 224.607,-141.25 224.607,-144.75"/>
</g>
<!-- topo.command.pylabplot.topographic_grid -->
<g id="node18" class="node"><title>topo.command.pylabplot.topographic_grid</title>
<polygon fill="none" stroke="black" stroke-width="0.5" points="1448,-210.5 1228,-210.5 1228,-189.5 1448,-189.5 1448,-210.5"/>
<text text-anchor="middle" x="1338" y="-197.5" font-family="Vera" font-size="10.00">topo.command.pylabplot.topographic_grid</text>
</g>
<!-- topo.command.pylabplot.xy_grid&#45;&gt;topo.command.pylabplot.topographic_grid -->
<g id="edge16" class="edge"><title>topo.command.pylabplot.xy_grid&#45;&gt;topo.command.pylabplot.topographic_grid</title>
<path fill="none" stroke="black" stroke-width="0.5" d="M1148.57,-200C1172.04,-200 1197.82,-200 1222.6,-200"/>
<polygon fill="black" stroke="black" points="1222.87,-201.75 1227.87,-200 1222.87,-198.25 1222.87,-201.75"/>
</g>
<!-- topo.command.pylabplot.unit_tuning_curve&#45;&gt;topo.command.pylabplot.cyclic_unit_tuning_curve -->
<g id="edge18" class="edge"><title>topo.command.pylabplot.unit_tuning_curve&#45;&gt;topo.command.pylabplot.cyclic_unit_tuning_curve</title>
<path fill="none" stroke="black" stroke-width="0.5" d="M1174.26,-162C1184.39,-162 1194.72,-162 1205,-162"/>
<polygon fill="black" stroke="black" points="1205.05,-163.75 1210.05,-162 1205.05,-160.25 1205.05,-163.75"/>
</g>
<!-- topo.command.pylabplot.tuning_curve -->
<g id="node25" class="node"><title>topo.command.pylabplot.tuning_curve</title>
<polygon fill="none" stroke="black" stroke-width="0.5" points="1438,-134.5 1238,-134.5 1238,-113.5 1438,-113.5 1438,-134.5"/>
<text text-anchor="middle" x="1338" y="-121.5" font-family="Vera" font-size="10.00">topo.command.pylabplot.tuning_curve</text>
</g>
<!-- topo.command.pylabplot.unit_tuning_curve&#45;&gt;topo.command.pylabplot.tuning_curve -->
<g id="edge22" class="edge"><title>topo.command.pylabplot.unit_tuning_curve&#45;&gt;topo.command.pylabplot.tuning_curve</title>
<path fill="none" stroke="black" stroke-width="0.5" d="M1134.88,-151.966C1173.39,-146.663 1220.69,-140.151 1259.96,-134.745"/>
<polygon fill="black" stroke="black" points="1260.48,-136.44 1265.19,-134.024 1260,-132.972 1260.48,-136.44"/>
</g>
</g>
</svg>
