<?xml version="1.0" encoding="UTF-8" standalone="no"?>
<!DOCTYPE svg PUBLIC "-//W3C//DTD SVG 1.1//EN"
 "http://www.w3.org/Graphics/SVG/1.1/DTD/svg11.dtd">
<!-- Generated by graphviz version 2.26.3 (20100126.1600)
 -->
<!-- Title: inheritance0adcb6e2a1 Pages: 1 -->
<svg width="1626pt" height="85pt"
 viewBox="0.00 0.00 1626.00 85.00" xmlns="http://www.w3.org/2000/svg" xmlns:xlink="http://www.w3.org/1999/xlink">
<g id="graph1" class="graph" transform="scale(1 1) rotate(0) translate(4 81)">
<title>inheritance0adcb6e2a1</title>
<polygon fill="white" stroke="white" points="-4,5 -4,-81 1623,-81 1623,5 -4,5"/>
<!-- dataviews.test.testcomparisons.StackComparisonTest -->
<g id="node1" class="node"><title>dataviews.test.testcomparisons.StackComparisonTest</title>
<polygon fill="none" stroke="black" stroke-width="0.5" points="1617,-77.5 1343,-77.5 1343,-56.5 1617,-56.5 1617,-77.5"/>
<text text-anchor="middle" x="1480" y="-64.5" font-family="Vera" font-size="10.00">dataviews.test.testcomparisons.StackComparisonTest</text>
</g>
<!-- dataviews.test.testcomparisons.StackTestCase -->
<g id="node2" class="node"><title>dataviews.test.testcomparisons.StackTestCase</title>
<polygon fill="none" stroke="black" stroke-width="0.5" points="1270,-77.5 1028,-77.5 1028,-56.5 1270,-56.5 1270,-77.5"/>
<text text-anchor="middle" x="1149" y="-64.5" font-family="Vera" font-size="10.00">dataviews.test.testcomparisons.StackTestCase</text>
</g>
<!-- dataviews.test.testcomparisons.StackTestCase&#45;&gt;dataviews.test.testcomparisons.StackComparisonTest -->
<g id="edge2" class="edge"><title>dataviews.test.testcomparisons.StackTestCase&#45;&gt;dataviews.test.testcomparisons.StackComparisonTest</title>
<path fill="none" stroke="black" stroke-width="0.5" d="M1270.37,-67C1292.16,-67 1315.04,-67 1337.36,-67"/>
<polygon fill="black" stroke="black" points="1337.42,-68.7501 1342.42,-67 1337.42,-65.2501 1337.42,-68.7501"/>
</g>
<!-- unittest.case.TestCase -->
<g id="node4" class="node"><title>unittest.case.TestCase</title>
<polygon fill="none" stroke="black" stroke-width="0.5" points="125,-39.5 1,-39.5 1,-18.5 125,-18.5 125,-39.5"/>
<text text-anchor="middle" x="63" y="-26.5" font-family="Vera" font-size="10.00">unittest.case.TestCase</text>
</g>
<!-- dataviews.test.utils.ViewTestCase -->
<g id="node6" class="node"><title>dataviews.test.utils.ViewTestCase</title>
<polygon fill="none" stroke="black" stroke-width="0.5" points="338,-39.5 162,-39.5 162,-18.5 338,-18.5 338,-39.5"/>
<text text-anchor="middle" x="250" y="-26.5" font-family="Vera" font-size="10.00">dataviews.test.utils.ViewTestCase</text>
</g>
<!-- unittest.case.TestCase&#45;&gt;dataviews.test.utils.ViewTestCase -->
<g id="edge10" class="edge"><title>unittest.case.TestCase&#45;&gt;dataviews.test.utils.ViewTestCase</title>
<path fill="none" stroke="black" stroke-width="0.5" d="M125.528,-29C135.565,-29 146.139,-29 156.709,-29"/>
<polygon fill="black" stroke="black" points="156.896,-30.7501 161.896,-29 156.896,-27.2501 156.896,-30.7501"/>
</g>
<!-- dataviews.test.testcomparisons.SheetViewTestCase -->
<g id="node5" class="node"><title>dataviews.test.testcomparisons.SheetViewTestCase</title>
<polygon fill="none" stroke="black" stroke-width="0.5" points="639,-39.5 375,-39.5 375,-18.5 639,-18.5 639,-39.5"/>
<text text-anchor="middle" x="507" y="-26.5" font-family="Vera" font-size="10.00">dataviews.test.testcomparisons.SheetViewTestCase</text>
</g>
<!-- dataviews.test.testcomparisons.SheetOverlayTestCase -->
<g id="node9" class="node"><title>dataviews.test.testcomparisons.SheetOverlayTestCase</title>
<polygon fill="none" stroke="black" stroke-width="0.5" points="955,-58.5 677,-58.5 677,-37.5 955,-37.5 955,-58.5"/>
<text text-anchor="middle" x="816" y="-45.5" font-family="Vera" font-size="10.00">dataviews.test.testcomparisons.SheetOverlayTestCase</text>
</g>
<!-- dataviews.test.testcomparisons.SheetViewTestCase&#45;&gt;dataviews.test.testcomparisons.SheetOverlayTestCase -->
<g id="edge14" class="edge"><title>dataviews.test.testcomparisons.SheetViewTestCase&#45;&gt;dataviews.test.testcomparisons.SheetOverlayTestCase</title>
<path fill="none" stroke="black" stroke-width="0.5" d="M639.837,-37.168C650.239,-37.8076 660.775,-38.4554 671.251,-39.0996"/>
<polygon fill="black" stroke="black" points="671.29,-40.8552 676.388,-39.4155 671.505,-37.3618 671.29,-40.8552"/>
</g>
<!-- dataviews.test.testcomparisons.SheetComparisonTest -->
<g id="node11" class="node"><title>dataviews.test.testcomparisons.SheetComparisonTest</title>
<polygon fill="none" stroke="black" stroke-width="0.5" points="954,-20.5 678,-20.5 678,0.5 954,0.5 954,-20.5"/>
<text text-anchor="middle" x="816" y="-7.5" font-family="Vera" font-size="10.00">dataviews.test.testcomparisons.SheetComparisonTest</text>
</g>
<!-- dataviews.test.testcomparisons.SheetViewTestCase&#45;&gt;dataviews.test.testcomparisons.SheetComparisonTest -->
<g id="edge8" class="edge"><title>dataviews.test.testcomparisons.SheetViewTestCase&#45;&gt;dataviews.test.testcomparisons.SheetComparisonTest</title>
<path fill="none" stroke="black" stroke-width="0.5" d="M639.837,-20.832C650.52,-20.1751 661.345,-19.5095 672.1,-18.8482"/>
<polygon fill="black" stroke="black" points="672.491,-20.5776 677.374,-18.5239 672.276,-17.0842 672.491,-20.5776"/>
</g>
<!-- dataviews.test.utils.ViewTestCase&#45;&gt;dataviews.test.testcomparisons.SheetViewTestCase -->
<g id="edge4" class="edge"><title>dataviews.test.utils.ViewTestCase&#45;&gt;dataviews.test.testcomparisons.SheetViewTestCase</title>
<path fill="none" stroke="black" stroke-width="0.5" d="M338.085,-29C348.2,-29 358.686,-29 369.257,-29"/>
<polygon fill="black" stroke="black" points="369.451,-30.7501 374.451,-29 369.451,-27.2501 369.451,-30.7501"/>
</g>
<!-- dataviews.test.testcomparisons.SheetOverlayComparisonTest -->
<g id="node8" class="node"><title>dataviews.test.testcomparisons.SheetOverlayComparisonTest</title>
<polygon fill="none" stroke="black" stroke-width="0.5" points="1305,-39.5 993,-39.5 993,-18.5 1305,-18.5 1305,-39.5"/>
<text text-anchor="middle" x="1149" y="-26.5" font-family="Vera" font-size="10.00">dataviews.test.testcomparisons.SheetOverlayComparisonTest</text>
</g>
<!-- dataviews.test.testcomparisons.SheetOverlayTestCase&#45;&gt;dataviews.test.testcomparisons.StackTestCase -->
<g id="edge12" class="edge"><title>dataviews.test.testcomparisons.SheetOverlayTestCase&#45;&gt;dataviews.test.testcomparisons.StackTestCase</title>
<path fill="none" stroke="black" stroke-width="0.5" d="M955.775,-55.9751C977.937,-57.2396 1000.75,-58.5412 1022.58,-59.7869"/>
<polygon fill="black" stroke="black" points="1022.72,-61.5477 1027.81,-60.0854 1022.92,-58.0534 1022.72,-61.5477"/>
</g>
<!-- dataviews.test.testcomparisons.SheetOverlayTestCase&#45;&gt;dataviews.test.testcomparisons.SheetOverlayComparisonTest -->
<g id="edge6" class="edge"><title>dataviews.test.testcomparisons.SheetOverlayTestCase&#45;&gt;dataviews.test.testcomparisons.SheetOverlayComparisonTest</title>
<path fill="none" stroke="black" stroke-width="0.5" d="M955.775,-40.0249C966.176,-39.4314 976.72,-38.8298 987.238,-38.2296"/>
<polygon fill="black" stroke="black" points="987.507,-39.9672 992.399,-37.9352 987.308,-36.4729 987.507,-39.9672"/>
</g>
</g>
</svg>
