<?xml version="1.0" encoding="UTF-8" standalone="no"?>
<!DOCTYPE svg PUBLIC "-//W3C//DTD SVG 1.1//EN"
 "http://www.w3.org/Graphics/SVG/1.1/DTD/svg11.dtd">
<!-- Generated by graphviz version 2.26.3 (20100126.1600)
 -->
<!-- Title: inheritancee1aac473e9 Pages: 1 -->
<svg width="1086pt" height="66pt"
 viewBox="0.00 0.00 1086.00 66.00" xmlns="http://www.w3.org/2000/svg" xmlns:xlink="http://www.w3.org/1999/xlink">
<g id="graph1" class="graph" transform="scale(1 1) rotate(0) translate(4 62)">
<title>inheritancee1aac473e9</title>
<polygon fill="white" stroke="white" points="-4,5 -4,-62 1083,-62 1083,5 -4,5"/>
<!-- topo.base.sheet.Sheet -->
<g id="node1" class="node"><title>topo.base.sheet.Sheet</title>
<polygon fill="none" stroke="black" stroke-width="0.5" points="628,-39.5 502,-39.5 502,-18.5 628,-18.5 628,-39.5"/>
<text text-anchor="middle" x="565" y="-26.5" font-family="Vera" font-size="10.00">topo.base.sheet.Sheet</text>
</g>
<!-- topo.sheet.ptztracker.PtzTracker -->
<g id="node9" class="node"><title>topo.sheet.ptztracker.PtzTracker</title>
<polygon fill="none" stroke="black" stroke-width="0.5" points="835,-39.5 665,-39.5 665,-18.5 835,-18.5 835,-39.5"/>
<text text-anchor="middle" x="750" y="-26.5" font-family="Vera" font-size="10.00">topo.sheet.ptztracker.PtzTracker</text>
</g>
<!-- topo.base.sheet.Sheet&#45;&gt;topo.sheet.ptztracker.PtzTracker -->
<g id="edge12" class="edge"><title>topo.base.sheet.Sheet&#45;&gt;topo.sheet.ptztracker.PtzTracker</title>
<path fill="none" stroke="black" stroke-width="0.5" d="M628.149,-29C638.134,-29 648.628,-29 659.095,-29"/>
<polygon fill="black" stroke="black" points="659.228,-30.7501 664.228,-29 659.228,-27.2501 659.228,-30.7501"/>
</g>
<!-- topo.base.simulation.EventProcessor -->
<g id="node2" class="node"><title>topo.base.simulation.EventProcessor</title>
<polygon fill="none" stroke="black" stroke-width="0.5" points="445,-58.5 251,-58.5 251,-37.5 445,-37.5 445,-58.5"/>
<text text-anchor="middle" x="348" y="-45.5" font-family="Vera" font-size="10.00">topo.base.simulation.EventProcessor</text>
</g>
<!-- topo.base.simulation.EventProcessor&#45;&gt;topo.base.sheet.Sheet -->
<g id="edge2" class="edge"><title>topo.base.simulation.EventProcessor&#45;&gt;topo.base.sheet.Sheet</title>
<path fill="none" stroke="black" stroke-width="0.5" d="M445.075,-39.5003C462.563,-37.9691 480.451,-36.4029 496.895,-34.9631"/>
<polygon fill="black" stroke="black" points="497.122,-36.7001 501.95,-34.5205 496.816,-33.2134 497.122,-36.7001"/>
</g>
<!-- imagen.sheetcoords.SheetCoordinateSystem -->
<g id="node4" class="node"><title>imagen.sheetcoords.SheetCoordinateSystem</title>
<polygon fill="none" stroke="black" stroke-width="0.5" points="466,-20.5 230,-20.5 230,0.5 466,0.5 466,-20.5"/>
<text text-anchor="middle" x="348" y="-7.5" font-family="Vera" font-size="10.00">imagen.sheetcoords.SheetCoordinateSystem</text>
</g>
<!-- imagen.sheetcoords.SheetCoordinateSystem&#45;&gt;topo.base.sheet.Sheet -->
<g id="edge4" class="edge"><title>imagen.sheetcoords.SheetCoordinateSystem&#45;&gt;topo.base.sheet.Sheet</title>
<path fill="none" stroke="black" stroke-width="0.5" d="M462.219,-20.0008C473.996,-21.0319 485.682,-22.0551 496.721,-23.0217"/>
<polygon fill="black" stroke="black" points="496.612,-24.7687 501.746,-23.4616 496.918,-21.2821 496.612,-24.7687"/>
</g>
<!-- param.parameterized.Parameterized -->
<g id="node6" class="node"><title>param.parameterized.Parameterized</title>
<polygon fill="none" stroke="black" stroke-width="0.5" points="194,-58.5 5.68434e-14,-58.5 0,-37.5 194,-37.5 194,-58.5"/>
<text text-anchor="middle" x="97" y="-45.5" font-family="Vera" font-size="10.00">param.parameterized.Parameterized</text>
</g>
<!-- param.parameterized.Parameterized&#45;&gt;topo.base.simulation.EventProcessor -->
<g id="edge6" class="edge"><title>param.parameterized.Parameterized&#45;&gt;topo.base.simulation.EventProcessor</title>
<path fill="none" stroke="black" stroke-width="0.5" d="M194.043,-48C210.921,-48 228.523,-48 245.54,-48"/>
<polygon fill="black" stroke="black" points="245.801,-49.7501 250.801,-48 245.801,-46.2501 245.801,-49.7501"/>
</g>
<!-- topo.sheet.ptztracker.FaceTracker -->
<g id="node8" class="node"><title>topo.sheet.ptztracker.FaceTracker</title>
<polygon fill="none" stroke="black" stroke-width="0.5" points="1064,-58.5 886,-58.5 886,-37.5 1064,-37.5 1064,-58.5"/>
<text text-anchor="middle" x="975" y="-45.5" font-family="Vera" font-size="10.00">topo.sheet.ptztracker.FaceTracker</text>
</g>
<!-- topo.sheet.ptztracker.PtzTracker&#45;&gt;topo.sheet.ptztracker.FaceTracker -->
<g id="edge8" class="edge"><title>topo.sheet.ptztracker.PtzTracker&#45;&gt;topo.sheet.ptztracker.FaceTracker</title>
<path fill="none" stroke="black" stroke-width="0.5" d="M835.705,-36.2373C850.433,-37.481 865.811,-38.7796 880.749,-40.041"/>
<polygon fill="black" stroke="black" points="880.667,-41.7902 885.796,-40.4672 880.961,-38.3026 880.667,-41.7902"/>
</g>
<!-- topo.sheet.ptztracker.BrightPixelTracker -->
<g id="node11" class="node"><title>topo.sheet.ptztracker.BrightPixelTracker</title>
<polygon fill="none" stroke="black" stroke-width="0.5" points="1078,-20.5 872,-20.5 872,0.5 1078,0.5 1078,-20.5"/>
<text text-anchor="middle" x="975" y="-7.5" font-family="Vera" font-size="10.00">topo.sheet.ptztracker.BrightPixelTracker</text>
</g>
<!-- topo.sheet.ptztracker.PtzTracker&#45;&gt;topo.sheet.ptztracker.BrightPixelTracker -->
<g id="edge10" class="edge"><title>topo.sheet.ptztracker.PtzTracker&#45;&gt;topo.sheet.ptztracker.BrightPixelTracker</title>
<path fill="none" stroke="black" stroke-width="0.5" d="M835.705,-21.7627C845.844,-20.9065 856.291,-20.0243 866.69,-19.1462"/>
<polygon fill="black" stroke="black" points="866.955,-20.8801 871.79,-18.7155 866.66,-17.3925 866.955,-20.8801"/>
</g>
</g>
</svg>
