<?xml version="1.0" encoding="UTF-8" standalone="no"?>
<!DOCTYPE svg PUBLIC "-//W3C//DTD SVG 1.1//EN"
 "http://www.w3.org/Graphics/SVG/1.1/DTD/svg11.dtd">
<!-- Generated by graphviz version 2.26.3 (20100126.1600)
 -->
<!-- Title: inheritance03c0df95af Pages: 1 -->
<svg width="1830pt" height="104pt"
 viewBox="0.00 0.00 1830.00 104.00" xmlns="http://www.w3.org/2000/svg" xmlns:xlink="http://www.w3.org/1999/xlink">
<g id="graph1" class="graph" transform="scale(1 1) rotate(0) translate(4 100)">
<title>inheritance03c0df95af</title>
<polygon fill="white" stroke="white" points="-4,5 -4,-100 1827,-100 1827,5 -4,5"/>
<!-- param.parameterized.Parameterized -->
<g id="node1" class="node"><title>param.parameterized.Parameterized</title>
<polygon fill="none" stroke="black" stroke-width="0.5" points="194,-77.5 5.68434e-14,-77.5 0,-56.5 194,-56.5 194,-77.5"/>
<text text-anchor="middle" x="97" y="-64.5" font-family="Vera" font-size="10.00">param.parameterized.Parameterized</text>
</g>
<!-- topo.base.projection.SheetMask -->
<g id="node8" class="node"><title>topo.base.projection.SheetMask</title>
<polygon fill="none" stroke="black" stroke-width="0.5" points="439,-96.5 269,-96.5 269,-75.5 439,-75.5 439,-96.5"/>
<text text-anchor="middle" x="354" y="-83.5" font-family="Vera" font-size="10.00">topo.base.projection.SheetMask</text>
</g>
<!-- param.parameterized.Parameterized&#45;&gt;topo.base.projection.SheetMask -->
<g id="edge6" class="edge"><title>param.parameterized.Parameterized&#45;&gt;topo.base.projection.SheetMask</title>
<path fill="none" stroke="black" stroke-width="0.5" d="M194.161,-74.1831C216.758,-75.8537 240.733,-77.6262 263.051,-79.2761"/>
<polygon fill="black" stroke="black" points="262.97,-81.0248 268.085,-79.6483 263.228,-77.5343 262.97,-81.0248"/>
</g>
<!-- topo.base.simulation.EventProcessor -->
<g id="node11" class="node"><title>topo.base.simulation.EventProcessor</title>
<polygon fill="none" stroke="black" stroke-width="0.5" points="451,-58.5 257,-58.5 257,-37.5 451,-37.5 451,-58.5"/>
<text text-anchor="middle" x="354" y="-45.5" font-family="Vera" font-size="10.00">topo.base.simulation.EventProcessor</text>
</g>
<!-- param.parameterized.Parameterized&#45;&gt;topo.base.simulation.EventProcessor -->
<g id="edge8" class="edge"><title>param.parameterized.Parameterized&#45;&gt;topo.base.simulation.EventProcessor</title>
<path fill="none" stroke="black" stroke-width="0.5" d="M194.161,-59.8169C212.87,-58.4337 232.524,-56.9807 251.4,-55.5852"/>
<polygon fill="black" stroke="black" points="251.845,-57.3072 256.702,-55.1932 251.586,-53.8167 251.845,-57.3072"/>
</g>
<!-- topo.sheet.SettlingCFSheet -->
<g id="node2" class="node"><title>topo.sheet.SettlingCFSheet</title>
<polygon fill="none" stroke="black" stroke-width="0.5" points="1563,-39.5 1415,-39.5 1415,-18.5 1563,-18.5 1563,-39.5"/>
<text text-anchor="middle" x="1489" y="-26.5" font-family="Vera" font-size="10.00">topo.sheet.SettlingCFSheet</text>
</g>
<!-- topo.sheet.optimized.SettlingCFSheet_Opt -->
<g id="node21" class="node"><title>topo.sheet.optimized.SettlingCFSheet_Opt</title>
<polygon fill="none" stroke="black" stroke-width="0.5" points="1821,-39.5 1601,-39.5 1601,-18.5 1821,-18.5 1821,-39.5"/>
<text text-anchor="middle" x="1711" y="-26.5" font-family="Vera" font-size="10.00">topo.sheet.optimized.SettlingCFSheet_Opt</text>
</g>
<!-- topo.sheet.SettlingCFSheet&#45;&gt;topo.sheet.optimized.SettlingCFSheet_Opt -->
<g id="edge20" class="edge"><title>topo.sheet.SettlingCFSheet&#45;&gt;topo.sheet.optimized.SettlingCFSheet_Opt</title>
<path fill="none" stroke="black" stroke-width="0.5" d="M1563.54,-29C1573.72,-29 1584.35,-29 1595.05,-29"/>
<polygon fill="black" stroke="black" points="1595.3,-30.7501 1600.3,-29 1595.3,-27.2501 1595.3,-30.7501"/>
</g>
<!-- topo.sheet.JointNormalizingCFSheet -->
<g id="node3" class="node"><title>topo.sheet.JointNormalizingCFSheet</title>
<polygon fill="none" stroke="black" stroke-width="0.5" points="1377,-39.5 1189,-39.5 1189,-18.5 1377,-18.5 1377,-39.5"/>
<text text-anchor="middle" x="1283" y="-26.5" font-family="Vera" font-size="10.00">topo.sheet.JointNormalizingCFSheet</text>
</g>
<!-- topo.sheet.JointNormalizingCFSheet&#45;&gt;topo.sheet.SettlingCFSheet -->
<g id="edge2" class="edge"><title>topo.sheet.JointNormalizingCFSheet&#45;&gt;topo.sheet.SettlingCFSheet</title>
<path fill="none" stroke="black" stroke-width="0.5" d="M1377.56,-29C1388.19,-29 1398.95,-29 1409.37,-29"/>
<polygon fill="black" stroke="black" points="1409.45,-30.7501 1414.45,-29 1409.45,-27.2501 1409.45,-30.7501"/>
</g>
<!-- topo.base.projection.ProjectionSheet -->
<g id="node5" class="node"><title>topo.base.projection.ProjectionSheet</title>
<polygon fill="none" stroke="black" stroke-width="0.5" points="975,-39.5 781,-39.5 781,-18.5 975,-18.5 975,-39.5"/>
<text text-anchor="middle" x="878" y="-26.5" font-family="Vera" font-size="10.00">topo.base.projection.ProjectionSheet</text>
</g>
<!-- topo.base.cf.CFSheet -->
<g id="node19" class="node"><title>topo.base.cf.CFSheet</title>
<polygon fill="none" stroke="black" stroke-width="0.5" points="1151,-39.5 1033,-39.5 1033,-18.5 1151,-18.5 1151,-39.5"/>
<text text-anchor="middle" x="1092" y="-26.5" font-family="Vera" font-size="10.00">topo.base.cf.CFSheet</text>
</g>
<!-- topo.base.projection.ProjectionSheet&#45;&gt;topo.base.cf.CFSheet -->
<g id="edge18" class="edge"><title>topo.base.projection.ProjectionSheet&#45;&gt;topo.base.cf.CFSheet</title>
<path fill="none" stroke="black" stroke-width="0.5" d="M975.294,-29C992.905,-29 1010.87,-29 1027.26,-29"/>
<polygon fill="black" stroke="black" points="1027.29,-30.7501 1032.29,-29 1027.29,-27.2501 1027.29,-30.7501"/>
</g>
<!-- topo.base.sheet.Sheet -->
<g id="node6" class="node"><title>topo.base.sheet.Sheet</title>
<polygon fill="none" stroke="black" stroke-width="0.5" points="682,-39.5 556,-39.5 556,-18.5 682,-18.5 682,-39.5"/>
<text text-anchor="middle" x="619" y="-26.5" font-family="Vera" font-size="10.00">topo.base.sheet.Sheet</text>
</g>
<!-- topo.base.sheet.Sheet&#45;&gt;topo.base.projection.ProjectionSheet -->
<g id="edge4" class="edge"><title>topo.base.sheet.Sheet&#45;&gt;topo.base.projection.ProjectionSheet</title>
<path fill="none" stroke="black" stroke-width="0.5" d="M682.027,-29C710.241,-29 744.229,-29 775.921,-29"/>
<polygon fill="black" stroke="black" points="775.986,-30.7501 780.986,-29 775.986,-27.2501 775.986,-30.7501"/>
</g>
<!-- topo.base.projection.NeighborhoodMask -->
<g id="node14" class="node"><title>topo.base.projection.NeighborhoodMask</title>
<polygon fill="none" stroke="black" stroke-width="0.5" points="724,-96.5 514,-96.5 514,-75.5 724,-75.5 724,-96.5"/>
<text text-anchor="middle" x="619" y="-83.5" font-family="Vera" font-size="10.00">topo.base.projection.NeighborhoodMask</text>
</g>
<!-- topo.base.projection.SheetMask&#45;&gt;topo.base.projection.NeighborhoodMask -->
<g id="edge12" class="edge"><title>topo.base.projection.SheetMask&#45;&gt;topo.base.projection.NeighborhoodMask</title>
<path fill="none" stroke="black" stroke-width="0.5" d="M439.672,-86C461.603,-86 485.499,-86 508.486,-86"/>
<polygon fill="black" stroke="black" points="508.685,-87.7501 513.685,-86 508.685,-84.2501 508.685,-87.7501"/>
</g>
<!-- dataviews.sheetcoords.SheetCoordinateSystem -->
<g id="node10" class="node"><title>dataviews.sheetcoords.SheetCoordinateSystem</title>
<polygon fill="none" stroke="black" stroke-width="0.5" points="477,-20.5 231,-20.5 231,0.5 477,0.5 477,-20.5"/>
<text text-anchor="middle" x="354" y="-7.5" font-family="Vera" font-size="10.00">dataviews.sheetcoords.SheetCoordinateSystem</text>
</g>
<!-- dataviews.sheetcoords.SheetCoordinateSystem&#45;&gt;topo.base.sheet.Sheet -->
<g id="edge16" class="edge"><title>dataviews.sheetcoords.SheetCoordinateSystem&#45;&gt;topo.base.sheet.Sheet</title>
<path fill="none" stroke="black" stroke-width="0.5" d="M477.578,-18.8603C502.793,-20.6681 528.44,-22.507 550.846,-24.1135"/>
<polygon fill="black" stroke="black" points="550.76,-25.8617 555.872,-24.4739 551.01,-22.3707 550.76,-25.8617"/>
</g>
<!-- topo.base.simulation.EventProcessor&#45;&gt;topo.base.sheet.Sheet -->
<g id="edge14" class="edge"><title>topo.base.simulation.EventProcessor&#45;&gt;topo.base.sheet.Sheet</title>
<path fill="none" stroke="black" stroke-width="0.5" d="M451.171,-41.033C484.126,-38.6702 520.226,-36.0819 550.474,-33.9132"/>
<polygon fill="black" stroke="black" points="550.801,-35.6443 555.663,-33.5412 550.55,-32.1533 550.801,-35.6443"/>
</g>
<!-- topo.sheet.optimized.NeighborhoodMask_Opt -->
<g id="node13" class="node"><title>topo.sheet.optimized.NeighborhoodMask_Opt</title>
<polygon fill="none" stroke="black" stroke-width="0.5" points="996,-96.5 760,-96.5 760,-75.5 996,-75.5 996,-96.5"/>
<text text-anchor="middle" x="878" y="-83.5" font-family="Vera" font-size="10.00">topo.sheet.optimized.NeighborhoodMask_Opt</text>
</g>
<!-- topo.base.projection.NeighborhoodMask&#45;&gt;topo.sheet.optimized.NeighborhoodMask_Opt -->
<g id="edge10" class="edge"><title>topo.base.projection.NeighborhoodMask&#45;&gt;topo.sheet.optimized.NeighborhoodMask_Opt</title>
<path fill="none" stroke="black" stroke-width="0.5" d="M724.345,-86C734.244,-86 744.338,-86 754.384,-86"/>
<polygon fill="black" stroke="black" points="754.633,-87.7501 759.632,-86 754.632,-84.2501 754.633,-87.7501"/>
</g>
<!-- topo.base.cf.CFSheet&#45;&gt;topo.sheet.JointNormalizingCFSheet -->
<g id="edge22" class="edge"><title>topo.base.cf.CFSheet&#45;&gt;topo.sheet.JointNormalizingCFSheet</title>
<path fill="none" stroke="black" stroke-width="0.5" d="M1151.65,-29C1161.71,-29 1172.4,-29 1183.16,-29"/>
<polygon fill="black" stroke="black" points="1183.44,-30.7501 1188.44,-29 1183.44,-27.2501 1183.44,-30.7501"/>
</g>
</g>
</svg>
