<?xml version="1.0" encoding="UTF-8" standalone="no"?>
<!DOCTYPE svg PUBLIC "-//W3C//DTD SVG 1.1//EN"
 "http://www.w3.org/Graphics/SVG/1.1/DTD/svg11.dtd">
<!-- Generated by graphviz version 2.26.3 (20100126.1600)
 -->
<!-- Title: inheritance73beadcb5f Pages: 1 -->
<svg width="626pt" height="28pt"
 viewBox="0.00 0.00 626.00 28.00" xmlns="http://www.w3.org/2000/svg" xmlns:xlink="http://www.w3.org/1999/xlink">
<g id="graph1" class="graph" transform="scale(1 1) rotate(0) translate(4 24)">
<title>inheritance73beadcb5f</title>
<polygon fill="white" stroke="white" points="-4,5 -4,-24 623,-24 623,5 -4,5"/>
<!-- param.parameterized.Parameterized -->
<g id="node1" class="node"><title>param.parameterized.Parameterized</title>
<polygon fill="none" stroke="black" stroke-width="0.5" points="194,-20.5 5.68434e-14,-20.5 0,0.5 194,0.5 194,-20.5"/>
<text text-anchor="middle" x="97" y="-7.5" font-family="Vera" font-size="10.00">param.parameterized.Parameterized</text>
</g>
<!-- param.parameterized.ParameterizedFunction -->
<g id="node2" class="node"><title>param.parameterized.ParameterizedFunction</title>
<polygon fill="none" stroke="black" stroke-width="0.5" points="464,-20.5 230,-20.5 230,0.5 464,0.5 464,-20.5"/>
<text text-anchor="middle" x="347" y="-7.5" font-family="Vera" font-size="10.00">param.parameterized.ParameterizedFunction</text>
</g>
<!-- param.parameterized.Parameterized&#45;&gt;param.parameterized.ParameterizedFunction -->
<g id="edge2" class="edge"><title>param.parameterized.Parameterized&#45;&gt;param.parameterized.ParameterizedFunction</title>
<path fill="none" stroke="black" stroke-width="0.5" d="M194.014,-10C204.04,-10 214.319,-10 224.575,-10"/>
<polygon fill="black" stroke="black" points="224.607,-11.7501 229.607,-10 224.607,-8.2501 224.607,-11.7501"/>
</g>
<!-- lancet.vcs_metadata -->
<g id="node4" class="node"><title>lancet.vcs_metadata</title>
<polygon fill="none" stroke="black" stroke-width="0.5" points="617,-20.5 501,-20.5 501,0.5 617,0.5 617,-20.5"/>
<text text-anchor="middle" x="559" y="-7.5" font-family="Vera" font-size="10.00">lancet.vcs_metadata</text>
</g>
<!-- param.parameterized.ParameterizedFunction&#45;&gt;lancet.vcs_metadata -->
<g id="edge4" class="edge"><title>param.parameterized.ParameterizedFunction&#45;&gt;lancet.vcs_metadata</title>
<path fill="none" stroke="black" stroke-width="0.5" d="M464.161,-10C474.844,-10 485.374,-10 495.31,-10"/>
<polygon fill="black" stroke="black" points="495.45,-11.7501 500.45,-10 495.45,-8.2501 495.45,-11.7501"/>
</g>
</g>
</svg>
