<?xml version="1.0" encoding="UTF-8" standalone="no"?>
<!DOCTYPE svg PUBLIC "-//W3C//DTD SVG 1.1//EN"
 "http://www.w3.org/Graphics/SVG/1.1/DTD/svg11.dtd">
<!-- Generated by graphviz version 2.26.3 (20100126.1600)
 -->
<!-- Title: inheritancea3b1853c84 Pages: 1 -->
<svg width="1392pt" height="66pt"
 viewBox="0.00 0.00 1392.00 66.00" xmlns="http://www.w3.org/2000/svg" xmlns:xlink="http://www.w3.org/1999/xlink">
<g id="graph1" class="graph" transform="scale(1 1) rotate(0) translate(4 62)">
<title>inheritancea3b1853c84</title>
<polygon fill="white" stroke="white" points="-4,5 -4,-62 1389,-62 1389,5 -4,5"/>
<!-- topo.base.cf.CFSheet -->
<g id="node1" class="node"><title>topo.base.cf.CFSheet</title>
<polygon fill="none" stroke="black" stroke-width="0.5" points="1080,-58.5 962,-58.5 962,-37.5 1080,-37.5 1080,-58.5"/>
<text text-anchor="middle" x="1021" y="-45.5" font-family="Vera" font-size="10.00">topo.base.cf.CFSheet</text>
</g>
<!-- topo.sheet.saccade.SaccadeController -->
<g id="node16" class="node"><title>topo.sheet.saccade.SaccadeController</title>
<polygon fill="none" stroke="black" stroke-width="0.5" points="1371,-58.5 1169,-58.5 1169,-37.5 1371,-37.5 1371,-58.5"/>
<text text-anchor="middle" x="1270" y="-45.5" font-family="Vera" font-size="10.00">topo.sheet.saccade.SaccadeController</text>
</g>
<!-- topo.base.cf.CFSheet&#45;&gt;topo.sheet.saccade.SaccadeController -->
<g id="edge14" class="edge"><title>topo.base.cf.CFSheet&#45;&gt;topo.sheet.saccade.SaccadeController</title>
<path fill="none" stroke="black" stroke-width="0.5" d="M1080.64,-48C1105.43,-48 1134.97,-48 1163.27,-48"/>
<polygon fill="black" stroke="black" points="1163.54,-49.7501 1168.54,-48 1163.54,-46.2501 1163.54,-49.7501"/>
</g>
<!-- topo.base.projection.ProjectionSheet -->
<g id="node2" class="node"><title>topo.base.projection.ProjectionSheet</title>
<polygon fill="none" stroke="black" stroke-width="0.5" points="872,-58.5 678,-58.5 678,-37.5 872,-37.5 872,-58.5"/>
<text text-anchor="middle" x="775" y="-45.5" font-family="Vera" font-size="10.00">topo.base.projection.ProjectionSheet</text>
</g>
<!-- topo.base.projection.ProjectionSheet&#45;&gt;topo.base.cf.CFSheet -->
<g id="edge2" class="edge"><title>topo.base.projection.ProjectionSheet&#45;&gt;topo.base.cf.CFSheet</title>
<path fill="none" stroke="black" stroke-width="0.5" d="M872.226,-48C900.429,-48 930.524,-48 956.216,-48"/>
<polygon fill="black" stroke="black" points="956.293,-49.7501 961.293,-48 956.293,-46.2501 956.293,-49.7501"/>
</g>
<!-- topo.base.sheet.Sheet -->
<g id="node4" class="node"><title>topo.base.sheet.Sheet</title>
<polygon fill="none" stroke="black" stroke-width="0.5" points="628,-39.5 502,-39.5 502,-18.5 628,-18.5 628,-39.5"/>
<text text-anchor="middle" x="565" y="-26.5" font-family="Vera" font-size="10.00">topo.base.sheet.Sheet</text>
</g>
<!-- topo.base.sheet.Sheet&#45;&gt;topo.base.projection.ProjectionSheet -->
<g id="edge16" class="edge"><title>topo.base.sheet.Sheet&#45;&gt;topo.base.projection.ProjectionSheet</title>
<path fill="none" stroke="black" stroke-width="0.5" d="M628.007,-34.7006C642.118,-35.9773 657.44,-37.3636 672.686,-38.743"/>
<polygon fill="black" stroke="black" points="672.715,-40.5027 677.852,-39.2104 673.03,-37.0169 672.715,-40.5027"/>
</g>
<!-- topo.misc.generatorsheet.GeneratorSheet -->
<g id="node14" class="node"><title>topo.misc.generatorsheet.GeneratorSheet</title>
<polygon fill="none" stroke="black" stroke-width="0.5" points="885,-20.5 665,-20.5 665,0.5 885,0.5 885,-20.5"/>
<text text-anchor="middle" x="775" y="-7.5" font-family="Vera" font-size="10.00">topo.misc.generatorsheet.GeneratorSheet</text>
</g>
<!-- topo.base.sheet.Sheet&#45;&gt;topo.misc.generatorsheet.GeneratorSheet -->
<g id="edge18" class="edge"><title>topo.base.sheet.Sheet&#45;&gt;topo.misc.generatorsheet.GeneratorSheet</title>
<path fill="none" stroke="black" stroke-width="0.5" d="M628.007,-23.2994C637.87,-22.407 648.325,-21.461 658.933,-20.5013"/>
<polygon fill="black" stroke="black" points="659.329,-22.2227 664.151,-20.0292 659.013,-18.737 659.329,-22.2227"/>
</g>
<!-- topo.base.simulation.EventProcessor -->
<g id="node5" class="node"><title>topo.base.simulation.EventProcessor</title>
<polygon fill="none" stroke="black" stroke-width="0.5" points="445,-58.5 251,-58.5 251,-37.5 445,-37.5 445,-58.5"/>
<text text-anchor="middle" x="348" y="-45.5" font-family="Vera" font-size="10.00">topo.base.simulation.EventProcessor</text>
</g>
<!-- topo.base.simulation.EventProcessor&#45;&gt;topo.base.sheet.Sheet -->
<g id="edge4" class="edge"><title>topo.base.simulation.EventProcessor&#45;&gt;topo.base.sheet.Sheet</title>
<path fill="none" stroke="black" stroke-width="0.5" d="M445.075,-39.5003C462.563,-37.9691 480.451,-36.4029 496.895,-34.9631"/>
<polygon fill="black" stroke="black" points="497.122,-36.7001 501.95,-34.5205 496.816,-33.2134 497.122,-36.7001"/>
</g>
<!-- imagen.sheetcoords.SheetCoordinateSystem -->
<g id="node7" class="node"><title>imagen.sheetcoords.SheetCoordinateSystem</title>
<polygon fill="none" stroke="black" stroke-width="0.5" points="466,-20.5 230,-20.5 230,0.5 466,0.5 466,-20.5"/>
<text text-anchor="middle" x="348" y="-7.5" font-family="Vera" font-size="10.00">imagen.sheetcoords.SheetCoordinateSystem</text>
</g>
<!-- imagen.sheetcoords.SheetCoordinateSystem&#45;&gt;topo.base.sheet.Sheet -->
<g id="edge6" class="edge"><title>imagen.sheetcoords.SheetCoordinateSystem&#45;&gt;topo.base.sheet.Sheet</title>
<path fill="none" stroke="black" stroke-width="0.5" d="M462.219,-20.0008C473.996,-21.0319 485.682,-22.0551 496.721,-23.0217"/>
<polygon fill="black" stroke="black" points="496.612,-24.7687 501.746,-23.4616 496.918,-21.2821 496.612,-24.7687"/>
</g>
<!-- param.parameterized.Parameterized -->
<g id="node9" class="node"><title>param.parameterized.Parameterized</title>
<polygon fill="none" stroke="black" stroke-width="0.5" points="194,-58.5 5.68434e-14,-58.5 0,-37.5 194,-37.5 194,-58.5"/>
<text text-anchor="middle" x="97" y="-45.5" font-family="Vera" font-size="10.00">param.parameterized.Parameterized</text>
</g>
<!-- param.parameterized.Parameterized&#45;&gt;topo.base.simulation.EventProcessor -->
<g id="edge8" class="edge"><title>param.parameterized.Parameterized&#45;&gt;topo.base.simulation.EventProcessor</title>
<path fill="none" stroke="black" stroke-width="0.5" d="M194.043,-48C210.921,-48 228.523,-48 245.54,-48"/>
<polygon fill="black" stroke="black" points="245.801,-49.7501 250.801,-48 245.801,-46.2501 245.801,-49.7501"/>
</g>
<!-- topo.sheet.saccade.ShiftingGeneratorSheet -->
<g id="node11" class="node"><title>topo.sheet.saccade.ShiftingGeneratorSheet</title>
<polygon fill="none" stroke="black" stroke-width="0.5" points="1383,-20.5 1157,-20.5 1157,0.5 1383,0.5 1383,-20.5"/>
<text text-anchor="middle" x="1270" y="-7.5" font-family="Vera" font-size="10.00">topo.sheet.saccade.ShiftingGeneratorSheet</text>
</g>
<!-- topo.sheet.SequenceGeneratorSheet -->
<g id="node12" class="node"><title>topo.sheet.SequenceGeneratorSheet</title>
<polygon fill="none" stroke="black" stroke-width="0.5" points="1119,-20.5 923,-20.5 923,0.5 1119,0.5 1119,-20.5"/>
<text text-anchor="middle" x="1021" y="-7.5" font-family="Vera" font-size="10.00">topo.sheet.SequenceGeneratorSheet</text>
</g>
<!-- topo.sheet.SequenceGeneratorSheet&#45;&gt;topo.sheet.saccade.ShiftingGeneratorSheet -->
<g id="edge10" class="edge"><title>topo.sheet.SequenceGeneratorSheet&#45;&gt;topo.sheet.saccade.ShiftingGeneratorSheet</title>
<path fill="none" stroke="black" stroke-width="0.5" d="M1119.77,-10C1130.04,-10 1140.55,-10 1151.01,-10"/>
<polygon fill="black" stroke="black" points="1151.14,-11.7501 1156.14,-10 1151.14,-8.2501 1151.14,-11.7501"/>
</g>
<!-- topo.misc.generatorsheet.GeneratorSheet&#45;&gt;topo.sheet.SequenceGeneratorSheet -->
<g id="edge12" class="edge"><title>topo.misc.generatorsheet.GeneratorSheet&#45;&gt;topo.sheet.SequenceGeneratorSheet</title>
<path fill="none" stroke="black" stroke-width="0.5" d="M885.766,-10C896.287,-10 906.929,-10 917.379,-10"/>
<polygon fill="black" stroke="black" points="917.493,-11.7501 922.493,-10 917.493,-8.2501 917.493,-11.7501"/>
</g>
</g>
</svg>
