<?xml version="1.0" encoding="UTF-8" standalone="no"?>
<!DOCTYPE svg PUBLIC "-//W3C//DTD SVG 1.1//EN"
 "http://www.w3.org/Graphics/SVG/1.1/DTD/svg11.dtd">
<!-- Generated by graphviz version 2.26.3 (20100126.1600)
 -->
<!-- Title: inheritance2ef9206f2c Pages: 1 -->
<svg width="648pt" height="104pt"
 viewBox="0.00 0.00 648.00 104.00" xmlns="http://www.w3.org/2000/svg" xmlns:xlink="http://www.w3.org/1999/xlink">
<g id="graph1" class="graph" transform="scale(1 1) rotate(0) translate(4 100)">
<title>inheritance2ef9206f2c</title>
<polygon fill="white" stroke="white" points="-4,5 -4,-100 645,-100 645,5 -4,5"/>
<!-- param.parameterized.Parameterized -->
<g id="node1" class="node"><title>param.parameterized.Parameterized</title>
<polygon fill="none" stroke="black" stroke-width="0.5" points="194,-58.5 5.68434e-14,-58.5 0,-37.5 194,-37.5 194,-58.5"/>
<text text-anchor="middle" x="97" y="-45.5" font-family="Vera" font-size="10.00">param.parameterized.Parameterized</text>
</g>
<!-- topo.base.simulation.EventProcessor -->
<g id="node3" class="node"><title>topo.base.simulation.EventProcessor</title>
<polygon fill="none" stroke="black" stroke-width="0.5" points="451,-58.5 257,-58.5 257,-37.5 451,-37.5 451,-58.5"/>
<text text-anchor="middle" x="354" y="-45.5" font-family="Vera" font-size="10.00">topo.base.simulation.EventProcessor</text>
</g>
<!-- param.parameterized.Parameterized&#45;&gt;topo.base.simulation.EventProcessor -->
<g id="edge2" class="edge"><title>param.parameterized.Parameterized&#45;&gt;topo.base.simulation.EventProcessor</title>
<path fill="none" stroke="black" stroke-width="0.5" d="M194.161,-48C212.87,-48 232.524,-48 251.4,-48"/>
<polygon fill="black" stroke="black" points="251.702,-49.7501 256.702,-48 251.702,-46.2501 251.702,-49.7501"/>
</g>
<!-- dataviews.sheetcoords.SheetCoordinateSystem -->
<g id="node2" class="node"><title>dataviews.sheetcoords.SheetCoordinateSystem</title>
<polygon fill="none" stroke="black" stroke-width="0.5" points="477,-20.5 231,-20.5 231,0.5 477,0.5 477,-20.5"/>
<text text-anchor="middle" x="354" y="-7.5" font-family="Vera" font-size="10.00">dataviews.sheetcoords.SheetCoordinateSystem</text>
</g>
<!-- topo.base.sheet.Sheet -->
<g id="node6" class="node"><title>topo.base.sheet.Sheet</title>
<polygon fill="none" stroke="black" stroke-width="0.5" points="640,-39.5 514,-39.5 514,-18.5 640,-18.5 640,-39.5"/>
<text text-anchor="middle" x="577" y="-26.5" font-family="Vera" font-size="10.00">topo.base.sheet.Sheet</text>
</g>
<!-- dataviews.sheetcoords.SheetCoordinateSystem&#45;&gt;topo.base.sheet.Sheet -->
<g id="edge6" class="edge"><title>dataviews.sheetcoords.SheetCoordinateSystem&#45;&gt;topo.base.sheet.Sheet</title>
<path fill="none" stroke="black" stroke-width="0.5" d="M471.377,-20.0008C484.139,-21.0881 496.798,-22.1667 508.683,-23.1793"/>
<polygon fill="black" stroke="black" points="508.597,-24.9282 513.727,-23.6091 508.894,-21.4408 508.597,-24.9282"/>
</g>
<!-- topo.base.simulation.EventProcessor&#45;&gt;topo.base.sheet.Sheet -->
<g id="edge4" class="edge"><title>topo.base.simulation.EventProcessor&#45;&gt;topo.base.sheet.Sheet</title>
<path fill="none" stroke="black" stroke-width="0.5" d="M451.162,-39.7216C470.581,-38.0671 490.589,-36.3624 508.779,-34.8126"/>
<polygon fill="black" stroke="black" points="509.025,-36.548 513.859,-34.3797 508.728,-33.0606 509.025,-36.548"/>
</g>
<!-- topo.base.sheet.AttrDict -->
<g id="node5" class="node"><title>topo.base.sheet.AttrDict</title>
<polygon fill="none" stroke="black" stroke-width="0.5" points="164,-96.5 30,-96.5 30,-75.5 164,-75.5 164,-96.5"/>
<text text-anchor="middle" x="97" y="-83.5" font-family="Vera" font-size="10.00">topo.base.sheet.AttrDict</text>
</g>
</g>
</svg>
