<?xml version="1.0" encoding="UTF-8" standalone="no"?>
<!DOCTYPE svg PUBLIC "-//W3C//DTD SVG 1.1//EN"
 "http://www.w3.org/Graphics/SVG/1.1/DTD/svg11.dtd">
<!-- Generated by graphviz version 2.26.3 (20100126.1600)
 -->
<!-- Title: inheritance580fb0a561 Pages: 1 -->
<svg width="620pt" height="180pt"
 viewBox="0.00 0.00 620.00 180.00" xmlns="http://www.w3.org/2000/svg" xmlns:xlink="http://www.w3.org/1999/xlink">
<g id="graph1" class="graph" transform="scale(1 1) rotate(0) translate(4 176)">
<title>inheritance580fb0a561</title>
<polygon fill="white" stroke="white" points="-4,5 -4,-176 617,-176 617,5 -4,5"/>
<!-- param.parameterized.Parameterized -->
<g id="node1" class="node"><title>param.parameterized.Parameterized</title>
<polygon fill="none" stroke="black" stroke-width="0.5" points="194,-96.5 5.68434e-14,-96.5 0,-75.5 194,-75.5 194,-96.5"/>
<text text-anchor="middle" x="97" y="-83.5" font-family="Vera" font-size="10.00">param.parameterized.Parameterized</text>
</g>
<!-- topo.plotting.bitmap.Bitmap -->
<g id="node3" class="node"><title>topo.plotting.bitmap.Bitmap</title>
<polygon fill="none" stroke="black" stroke-width="0.5" points="382,-96.5 230,-96.5 230,-75.5 382,-75.5 382,-96.5"/>
<text text-anchor="middle" x="306" y="-83.5" font-family="Vera" font-size="10.00">topo.plotting.bitmap.Bitmap</text>
</g>
<!-- param.parameterized.Parameterized&#45;&gt;topo.plotting.bitmap.Bitmap -->
<g id="edge6" class="edge"><title>param.parameterized.Parameterized&#45;&gt;topo.plotting.bitmap.Bitmap</title>
<path fill="none" stroke="black" stroke-width="0.5" d="M194.158,-86C204.325,-86 214.585,-86 224.55,-86"/>
<polygon fill="black" stroke="black" points="224.733,-87.7501 229.733,-86 224.733,-84.2501 224.733,-87.7501"/>
</g>
<!-- topo.plotting.bitmap.HSVBitmap -->
<g id="node2" class="node"><title>topo.plotting.bitmap.HSVBitmap</title>
<polygon fill="none" stroke="black" stroke-width="0.5" points="601,-172.5 429,-172.5 429,-151.5 601,-151.5 601,-172.5"/>
<text text-anchor="middle" x="515" y="-159.5" font-family="Vera" font-size="10.00">topo.plotting.bitmap.HSVBitmap</text>
</g>
<!-- topo.plotting.bitmap.Bitmap&#45;&gt;topo.plotting.bitmap.HSVBitmap -->
<g id="edge2" class="edge"><title>topo.plotting.bitmap.Bitmap&#45;&gt;topo.plotting.bitmap.HSVBitmap</title>
<path fill="none" stroke="black" stroke-width="0.5" d="M322.433,-96.2092C343.714,-108.99 382.318,-130.694 418,-143 426.772,-146.025 436.167,-148.62 445.529,-150.832"/>
<polygon fill="black" stroke="black" points="445.153,-152.541 450.418,-151.953 445.936,-149.13 445.153,-152.541"/>
</g>
<!-- topo.plotting.bitmap.MontageBitmap -->
<g id="node5" class="node"><title>topo.plotting.bitmap.MontageBitmap</title>
<polygon fill="none" stroke="black" stroke-width="0.5" points="612,-134.5 418,-134.5 418,-113.5 612,-113.5 612,-134.5"/>
<text text-anchor="middle" x="515" y="-121.5" font-family="Vera" font-size="10.00">topo.plotting.bitmap.MontageBitmap</text>
</g>
<!-- topo.plotting.bitmap.Bitmap&#45;&gt;topo.plotting.bitmap.MontageBitmap -->
<g id="edge4" class="edge"><title>topo.plotting.bitmap.Bitmap&#45;&gt;topo.plotting.bitmap.MontageBitmap</title>
<path fill="none" stroke="black" stroke-width="0.5" d="M361.186,-96.0338C389.996,-101.272 425.294,-107.69 454.806,-113.056"/>
<polygon fill="black" stroke="black" points="454.635,-114.803 459.868,-113.976 455.261,-111.36 454.635,-114.803"/>
</g>
<!-- topo.plotting.bitmap.RGBBitmap -->
<g id="node8" class="node"><title>topo.plotting.bitmap.RGBBitmap</title>
<polygon fill="none" stroke="black" stroke-width="0.5" points="601,-96.5 429,-96.5 429,-75.5 601,-75.5 601,-96.5"/>
<text text-anchor="middle" x="515" y="-83.5" font-family="Vera" font-size="10.00">topo.plotting.bitmap.RGBBitmap</text>
</g>
<!-- topo.plotting.bitmap.Bitmap&#45;&gt;topo.plotting.bitmap.RGBBitmap -->
<g id="edge8" class="edge"><title>topo.plotting.bitmap.Bitmap&#45;&gt;topo.plotting.bitmap.RGBBitmap</title>
<path fill="none" stroke="black" stroke-width="0.5" d="M382.045,-86C395.558,-86 409.759,-86 423.645,-86"/>
<polygon fill="black" stroke="black" points="423.745,-87.7501 428.745,-86 423.745,-84.2501 423.745,-87.7501"/>
</g>
<!-- topo.plotting.bitmap.DrawBitmap -->
<g id="node10" class="node"><title>topo.plotting.bitmap.DrawBitmap</title>
<polygon fill="none" stroke="black" stroke-width="0.5" points="603,-58.5 427,-58.5 427,-37.5 603,-37.5 603,-58.5"/>
<text text-anchor="middle" x="515" y="-45.5" font-family="Vera" font-size="10.00">topo.plotting.bitmap.DrawBitmap</text>
</g>
<!-- topo.plotting.bitmap.Bitmap&#45;&gt;topo.plotting.bitmap.DrawBitmap -->
<g id="edge10" class="edge"><title>topo.plotting.bitmap.Bitmap&#45;&gt;topo.plotting.bitmap.DrawBitmap</title>
<path fill="none" stroke="black" stroke-width="0.5" d="M361.186,-75.9662C389.996,-70.7281 425.294,-64.3102 454.806,-58.9443"/>
<polygon fill="black" stroke="black" points="455.261,-60.6403 459.868,-58.024 454.635,-57.1968 455.261,-60.6403"/>
</g>
<!-- topo.plotting.bitmap.PaletteBitmap -->
<g id="node12" class="node"><title>topo.plotting.bitmap.PaletteBitmap</title>
<polygon fill="none" stroke="black" stroke-width="0.5" points="607,-20.5 423,-20.5 423,0.5 607,0.5 607,-20.5"/>
<text text-anchor="middle" x="515" y="-7.5" font-family="Vera" font-size="10.00">topo.plotting.bitmap.PaletteBitmap</text>
</g>
<!-- topo.plotting.bitmap.Bitmap&#45;&gt;topo.plotting.bitmap.PaletteBitmap -->
<g id="edge12" class="edge"><title>topo.plotting.bitmap.Bitmap&#45;&gt;topo.plotting.bitmap.PaletteBitmap</title>
<path fill="none" stroke="black" stroke-width="0.5" d="M322.433,-75.7908C343.714,-63.0103 382.318,-41.3057 418,-29 426.772,-25.9747 436.167,-23.3798 445.529,-21.1683"/>
<polygon fill="black" stroke="black" points="445.936,-22.8704 450.418,-20.0466 445.153,-19.459 445.936,-22.8704"/>
</g>
</g>
</svg>
