<?xml version="1.0" encoding="UTF-8" standalone="no"?>
<!DOCTYPE svg PUBLIC "-//W3C//DTD SVG 1.1//EN"
 "http://www.w3.org/Graphics/SVG/1.1/DTD/svg11.dtd">
<!-- Generated by graphviz version 2.26.3 (20100126.1600)
 -->
<!-- Title: inheritanced74a500e8c Pages: 1 -->
<svg width="852pt" height="123pt"
 viewBox="0.00 0.00 852.00 123.00" xmlns="http://www.w3.org/2000/svg" xmlns:xlink="http://www.w3.org/1999/xlink">
<g id="graph1" class="graph" transform="scale(1 1) rotate(0) translate(4 119)">
<title>inheritanced74a500e8c</title>
<polygon fill="white" stroke="white" points="-4,5 -4,-119 849,-119 849,5 -4,5"/>
<!-- param.parameterized.Parameterized -->
<g id="node1" class="node"><title>param.parameterized.Parameterized</title>
<polygon fill="none" stroke="black" stroke-width="0.5" points="194,-58.5 5.68434e-14,-58.5 0,-37.5 194,-37.5 194,-58.5"/>
<text text-anchor="middle" x="97" y="-45.5" font-family="Vera" font-size="10.00">param.parameterized.Parameterized</text>
</g>
<!-- imagen.image.ImageSampler -->
<g id="node6" class="node"><title>imagen.image.ImageSampler</title>
<polygon fill="none" stroke="black" stroke-width="0.5" points="421,-77.5 263,-77.5 263,-56.5 421,-56.5 421,-77.5"/>
<text text-anchor="middle" x="342" y="-64.5" font-family="Vera" font-size="10.00">imagen.image.ImageSampler</text>
</g>
<!-- param.parameterized.Parameterized&#45;&gt;imagen.image.ImageSampler -->
<g id="edge10" class="edge"><title>param.parameterized.Parameterized&#45;&gt;imagen.image.ImageSampler</title>
<path fill="none" stroke="black" stroke-width="0.5" d="M194.182,-55.5366C214.997,-57.1508 236.831,-58.844 257.136,-60.4187"/>
<polygon fill="black" stroke="black" points="257.144,-62.1745 262.264,-60.8164 257.415,-58.685 257.144,-62.1745"/>
</g>
<!-- imagen.patterngenerator.PatternGenerator -->
<g id="node10" class="node"><title>imagen.patterngenerator.PatternGenerator</title>
<polygon fill="none" stroke="black" stroke-width="0.5" points="454,-39.5 230,-39.5 230,-18.5 454,-18.5 454,-39.5"/>
<text text-anchor="middle" x="342" y="-26.5" font-family="Vera" font-size="10.00">imagen.patterngenerator.PatternGenerator</text>
</g>
<!-- param.parameterized.Parameterized&#45;&gt;imagen.patterngenerator.PatternGenerator -->
<g id="edge8" class="edge"><title>param.parameterized.Parameterized&#45;&gt;imagen.patterngenerator.PatternGenerator</title>
<path fill="none" stroke="black" stroke-width="0.5" d="M194.182,-40.4634C204.286,-39.6799 214.629,-38.8777 224.922,-38.0795"/>
<polygon fill="black" stroke="black" points="225.12,-39.8195 229.969,-37.6881 224.849,-36.33 225.12,-39.8195"/>
</g>
<!-- imagen.image.FileImage -->
<g id="node2" class="node"><title>imagen.image.FileImage</title>
<polygon fill="none" stroke="black" stroke-width="0.5" points="842,-58.5 708,-58.5 708,-37.5 842,-37.5 842,-58.5"/>
<text text-anchor="middle" x="775" y="-45.5" font-family="Vera" font-size="10.00">imagen.image.FileImage</text>
</g>
<!-- imagen.image.GenericImage -->
<g id="node3" class="node"><title>imagen.image.GenericImage</title>
<polygon fill="none" stroke="black" stroke-width="0.5" points="657,-39.5 503,-39.5 503,-18.5 657,-18.5 657,-39.5"/>
<text text-anchor="middle" x="580" y="-26.5" font-family="Vera" font-size="10.00">imagen.image.GenericImage</text>
</g>
<!-- imagen.image.GenericImage&#45;&gt;imagen.image.FileImage -->
<g id="edge2" class="edge"><title>imagen.image.GenericImage&#45;&gt;imagen.image.FileImage</title>
<path fill="none" stroke="black" stroke-width="0.5" d="M657.629,-36.5639C672.386,-38.0017 687.777,-39.5013 702.371,-40.9233"/>
<polygon fill="black" stroke="black" points="702.562,-42.7002 707.709,-41.4434 702.902,-39.2167 702.562,-42.7002"/>
</g>
<!-- imagen.image.NumpyFile -->
<g id="node8" class="node"><title>imagen.image.NumpyFile</title>
<polygon fill="none" stroke="black" stroke-width="0.5" points="844,-20.5 706,-20.5 706,0.5 844,0.5 844,-20.5"/>
<text text-anchor="middle" x="775" y="-7.5" font-family="Vera" font-size="10.00">imagen.image.NumpyFile</text>
</g>
<!-- imagen.image.GenericImage&#45;&gt;imagen.image.NumpyFile -->
<g id="edge6" class="edge"><title>imagen.image.GenericImage&#45;&gt;imagen.image.NumpyFile</title>
<path fill="none" stroke="black" stroke-width="0.5" d="M657.629,-21.4361C671.818,-20.0536 686.594,-18.614 700.683,-17.2411"/>
<polygon fill="black" stroke="black" points="701.034,-18.9653 705.841,-16.7386 700.695,-15.4818 701.034,-18.9653"/>
</g>
<!-- imagen.image.PatternSampler -->
<g id="node5" class="node"><title>imagen.image.PatternSampler</title>
<polygon fill="none" stroke="black" stroke-width="0.5" points="662,-115.5 498,-115.5 498,-94.5 662,-94.5 662,-115.5"/>
<text text-anchor="middle" x="580" y="-102.5" font-family="Vera" font-size="10.00">imagen.image.PatternSampler</text>
</g>
<!-- imagen.image.ImageSampler&#45;&gt;imagen.image.PatternSampler -->
<g id="edge4" class="edge"><title>imagen.image.ImageSampler&#45;&gt;imagen.image.PatternSampler</title>
<path fill="none" stroke="black" stroke-width="0.5" d="M404.843,-77.0338C437.786,-82.2936 478.179,-88.7429 511.87,-94.1221"/>
<polygon fill="black" stroke="black" points="512.004,-95.9157 517.218,-94.976 512.556,-92.4594 512.004,-95.9157"/>
</g>
<!-- imagen.image.FastImageSampler -->
<g id="node13" class="node"><title>imagen.image.FastImageSampler</title>
<polygon fill="none" stroke="black" stroke-width="0.5" points="669,-77.5 491,-77.5 491,-56.5 669,-56.5 669,-77.5"/>
<text text-anchor="middle" x="580" y="-64.5" font-family="Vera" font-size="10.00">imagen.image.FastImageSampler</text>
</g>
<!-- imagen.image.ImageSampler&#45;&gt;imagen.image.FastImageSampler -->
<g id="edge12" class="edge"><title>imagen.image.ImageSampler&#45;&gt;imagen.image.FastImageSampler</title>
<path fill="none" stroke="black" stroke-width="0.5" d="M421.581,-67C441.973,-67 464.106,-67 485.183,-67"/>
<polygon fill="black" stroke="black" points="485.23,-68.7501 490.23,-67 485.23,-65.2501 485.23,-68.7501"/>
</g>
<!-- imagen.patterngenerator.PatternGenerator&#45;&gt;imagen.image.GenericImage -->
<g id="edge14" class="edge"><title>imagen.patterngenerator.PatternGenerator&#45;&gt;imagen.image.GenericImage</title>
<path fill="none" stroke="black" stroke-width="0.5" d="M454.031,-29C468.527,-29 483.162,-29 497.07,-29"/>
<polygon fill="black" stroke="black" points="497.16,-30.7501 502.16,-29 497.16,-27.2501 497.16,-30.7501"/>
</g>
</g>
</svg>
