<?xml version="1.0" encoding="UTF-8" standalone="no"?>
<!DOCTYPE svg PUBLIC "-//W3C//DTD SVG 1.1//EN"
 "http://www.w3.org/Graphics/SVG/1.1/DTD/svg11.dtd">
<!-- Generated by graphviz version 2.26.3 (20100126.1600)
 -->
<!-- Title: inheritanceae4658ee53 Pages: 1 -->
<svg width="384pt" height="142pt"
 viewBox="0.00 0.00 384.00 142.00" xmlns="http://www.w3.org/2000/svg" xmlns:xlink="http://www.w3.org/1999/xlink">
<g id="graph1" class="graph" transform="scale(1 1) rotate(0) translate(4 138)">
<title>inheritanceae4658ee53</title>
<polygon fill="white" stroke="white" points="-4,5 -4,-138 381,-138 381,5 -4,5"/>
<!-- dataviews.options.OptionsGroup -->
<g id="node1" class="node"><title>dataviews.options.OptionsGroup</title>
<polygon fill="none" stroke="black" stroke-width="0.5" points="171,-20.5 1,-20.5 1,0.5 171,0.5 171,-20.5"/>
<text text-anchor="middle" x="86" y="-7.5" font-family="Vera" font-size="10.00">dataviews.options.OptionsGroup</text>
</g>
<!-- dataviews.options.Options -->
<g id="node2" class="node"><title>dataviews.options.Options</title>
<polygon fill="none" stroke="black" stroke-width="0.5" points="157,-58.5 15,-58.5 15,-37.5 157,-37.5 157,-58.5"/>
<text text-anchor="middle" x="86" y="-45.5" font-family="Vera" font-size="10.00">dataviews.options.Options</text>
</g>
<!-- dataviews.options.Opts -->
<g id="node3" class="node"><title>dataviews.options.Opts</title>
<polygon fill="none" stroke="black" stroke-width="0.5" points="150,-96.5 22,-96.5 22,-75.5 150,-75.5 150,-96.5"/>
<text text-anchor="middle" x="86" y="-83.5" font-family="Vera" font-size="10.00">dataviews.options.Opts</text>
</g>
<!-- dataviews.options.PlotOpts -->
<g id="node5" class="node"><title>dataviews.options.PlotOpts</title>
<polygon fill="none" stroke="black" stroke-width="0.5" points="365,-134.5 219,-134.5 219,-113.5 365,-113.5 365,-134.5"/>
<text text-anchor="middle" x="292" y="-121.5" font-family="Vera" font-size="10.00">dataviews.options.PlotOpts</text>
</g>
<!-- dataviews.options.Opts&#45;&gt;dataviews.options.PlotOpts -->
<g id="edge2" class="edge"><title>dataviews.options.Opts&#45;&gt;dataviews.options.PlotOpts</title>
<path fill="none" stroke="black" stroke-width="0.5" d="M140.394,-96.0338C168.79,-101.272 203.582,-107.69 232.67,-113.056"/>
<polygon fill="black" stroke="black" points="232.425,-114.79 237.659,-113.976 233.06,-111.348 232.425,-114.79"/>
</g>
<!-- dataviews.options.StyleOpts -->
<g id="node7" class="node"><title>dataviews.options.StyleOpts</title>
<polygon fill="none" stroke="black" stroke-width="0.5" points="368,-96.5 216,-96.5 216,-75.5 368,-75.5 368,-96.5"/>
<text text-anchor="middle" x="292" y="-83.5" font-family="Vera" font-size="10.00">dataviews.options.StyleOpts</text>
</g>
<!-- dataviews.options.Opts&#45;&gt;dataviews.options.StyleOpts -->
<g id="edge4" class="edge"><title>dataviews.options.Opts&#45;&gt;dataviews.options.StyleOpts</title>
<path fill="none" stroke="black" stroke-width="0.5" d="M150.05,-86C169.214,-86 190.486,-86 210.607,-86"/>
<polygon fill="black" stroke="black" points="210.696,-87.7501 215.696,-86 210.696,-84.2501 210.696,-87.7501"/>
</g>
<!-- dataviews.options.ChannelOpts -->
<g id="node9" class="node"><title>dataviews.options.ChannelOpts</title>
<polygon fill="none" stroke="black" stroke-width="0.5" points="375,-58.5 209,-58.5 209,-37.5 375,-37.5 375,-58.5"/>
<text text-anchor="middle" x="292" y="-45.5" font-family="Vera" font-size="10.00">dataviews.options.ChannelOpts</text>
</g>
<!-- dataviews.options.Opts&#45;&gt;dataviews.options.ChannelOpts -->
<g id="edge6" class="edge"><title>dataviews.options.Opts&#45;&gt;dataviews.options.ChannelOpts</title>
<path fill="none" stroke="black" stroke-width="0.5" d="M140.394,-75.9662C168.79,-70.7281 203.582,-64.3102 232.67,-58.9443"/>
<polygon fill="black" stroke="black" points="233.06,-60.6521 237.659,-58.024 232.425,-57.2102 233.06,-60.6521"/>
</g>
<!-- dataviews.options.Cycle -->
<g id="node4" class="node"><title>dataviews.options.Cycle</title>
<polygon fill="none" stroke="black" stroke-width="0.5" points="151,-134.5 21,-134.5 21,-113.5 151,-113.5 151,-134.5"/>
<text text-anchor="middle" x="86" y="-121.5" font-family="Vera" font-size="10.00">dataviews.options.Cycle</text>
</g>
</g>
</svg>
