<?xml version="1.0" encoding="UTF-8" standalone="no"?>
<!DOCTYPE svg PUBLIC "-//W3C//DTD SVG 1.1//EN"
 "http://www.w3.org/Graphics/SVG/1.1/DTD/svg11.dtd">
<!-- Generated by graphviz version 2.26.3 (20100126.1600)
 -->
<!-- Title: inheritance23d65fc6d3 Pages: 1 -->
<svg width="992pt" height="104pt"
 viewBox="0.00 0.00 992.00 104.00" xmlns="http://www.w3.org/2000/svg" xmlns:xlink="http://www.w3.org/1999/xlink">
<g id="graph1" class="graph" transform="scale(1 1) rotate(0) translate(4 100)">
<title>inheritance23d65fc6d3</title>
<polygon fill="white" stroke="white" points="-4,5 -4,-100 989,-100 989,5 -4,5"/>
<!-- topo.base.cf.CFPResponseFn -->
<g id="node1" class="node"><title>topo.base.cf.CFPResponseFn</title>
<polygon fill="none" stroke="black" stroke-width="0.5" points="383,-58.5 231,-58.5 231,-37.5 383,-37.5 383,-58.5"/>
<text text-anchor="middle" x="307" y="-45.5" font-family="Vera" font-size="10.00">topo.base.cf.CFPResponseFn</text>
</g>
<!-- topo.base.cf.CFPRF_Plugin -->
<g id="node4" class="node"><title>topo.base.cf.CFPRF_Plugin</title>
<polygon fill="none" stroke="black" stroke-width="0.5" points="636,-96.5 496,-96.5 496,-75.5 636,-75.5 636,-96.5"/>
<text text-anchor="middle" x="566" y="-83.5" font-family="Vera" font-size="10.00">topo.base.cf.CFPRF_Plugin</text>
</g>
<!-- topo.base.cf.CFPResponseFn&#45;&gt;topo.base.cf.CFPRF_Plugin -->
<g id="edge4" class="edge"><title>topo.base.cf.CFPResponseFn&#45;&gt;topo.base.cf.CFPRF_Plugin</title>
<path fill="none" stroke="black" stroke-width="0.5" d="M364.13,-58.0304C381.999,-61.0534 401.8,-64.2866 420,-67 442.799,-70.399 467.652,-73.761 490.284,-76.6903"/>
<polygon fill="black" stroke="black" points="490.196,-78.4434 495.379,-77.3474 490.644,-74.9722 490.196,-78.4434"/>
</g>
<!-- topo.responsefn.optimized.CFPRF_EuclideanDistance_opt -->
<g id="node6" class="node"><title>topo.responsefn.optimized.CFPRF_EuclideanDistance_opt</title>
<polygon fill="none" stroke="black" stroke-width="0.5" points="711,-58.5 421,-58.5 421,-37.5 711,-37.5 711,-58.5"/>
<text text-anchor="middle" x="566" y="-45.5" font-family="Vera" font-size="10.00">topo.responsefn.optimized.CFPRF_EuclideanDistance_opt</text>
</g>
<!-- topo.base.cf.CFPResponseFn&#45;&gt;topo.responsefn.optimized.CFPRF_EuclideanDistance_opt -->
<g id="edge6" class="edge"><title>topo.base.cf.CFPResponseFn&#45;&gt;topo.responsefn.optimized.CFPRF_EuclideanDistance_opt</title>
<path fill="none" stroke="black" stroke-width="0.5" d="M383.657,-48C393.656,-48 404.162,-48 414.871,-48"/>
<polygon fill="black" stroke="black" points="415.143,-49.7501 420.143,-48 415.143,-46.2501 415.143,-49.7501"/>
</g>
<!-- topo.responsefn.optimized.CFPRF_DotProduct_opt -->
<g id="node10" class="node"><title>topo.responsefn.optimized.CFPRF_DotProduct_opt</title>
<polygon fill="none" stroke="black" stroke-width="0.5" points="694,-20.5 438,-20.5 438,0.5 694,0.5 694,-20.5"/>
<text text-anchor="middle" x="566" y="-7.5" font-family="Vera" font-size="10.00">topo.responsefn.optimized.CFPRF_DotProduct_opt</text>
</g>
<!-- topo.base.cf.CFPResponseFn&#45;&gt;topo.responsefn.optimized.CFPRF_DotProduct_opt -->
<g id="edge10" class="edge"><title>topo.base.cf.CFPResponseFn&#45;&gt;topo.responsefn.optimized.CFPRF_DotProduct_opt</title>
<path fill="none" stroke="black" stroke-width="0.5" d="M364.13,-37.9696C381.999,-34.9466 401.8,-31.7134 420,-29 439.344,-26.116 460.168,-23.2587 479.858,-20.6696"/>
<polygon fill="black" stroke="black" points="480.108,-22.402 484.838,-20.0174 479.653,-18.9316 480.108,-22.402"/>
</g>
<!-- param.parameterized.Parameterized -->
<g id="node2" class="node"><title>param.parameterized.Parameterized</title>
<polygon fill="none" stroke="black" stroke-width="0.5" points="194,-58.5 5.68434e-14,-58.5 0,-37.5 194,-37.5 194,-58.5"/>
<text text-anchor="middle" x="97" y="-45.5" font-family="Vera" font-size="10.00">param.parameterized.Parameterized</text>
</g>
<!-- param.parameterized.Parameterized&#45;&gt;topo.base.cf.CFPResponseFn -->
<g id="edge2" class="edge"><title>param.parameterized.Parameterized&#45;&gt;topo.base.cf.CFPResponseFn</title>
<path fill="none" stroke="black" stroke-width="0.5" d="M194.009,-48C204.35,-48 214.795,-48 224.94,-48"/>
<polygon fill="black" stroke="black" points="225.216,-49.7501 230.216,-48 225.216,-46.2501 225.216,-49.7501"/>
</g>
<!-- topo.responsefn.optimized.CFPRF_DotProduct -->
<g id="node8" class="node"><title>topo.responsefn.optimized.CFPRF_DotProduct</title>
<polygon fill="none" stroke="black" stroke-width="0.5" points="984,-96.5 748,-96.5 748,-75.5 984,-75.5 984,-96.5"/>
<text text-anchor="middle" x="866" y="-83.5" font-family="Vera" font-size="10.00">topo.responsefn.optimized.CFPRF_DotProduct</text>
</g>
<!-- topo.base.cf.CFPRF_Plugin&#45;&gt;topo.responsefn.optimized.CFPRF_DotProduct -->
<g id="edge8" class="edge"><title>topo.base.cf.CFPRF_Plugin&#45;&gt;topo.responsefn.optimized.CFPRF_DotProduct</title>
<path fill="none" stroke="black" stroke-width="0.5" d="M636.716,-86C668.334,-86 706.548,-86 742.637,-86"/>
<polygon fill="black" stroke="black" points="742.945,-87.7501 747.945,-86 742.945,-84.2501 742.945,-87.7501"/>
</g>
</g>
</svg>
