<?xml version="1.0" encoding="UTF-8" standalone="no"?>
<!DOCTYPE svg PUBLIC "-//W3C//DTD SVG 1.1//EN"
 "http://www.w3.org/Graphics/SVG/1.1/DTD/svg11.dtd">
<!-- Generated by graphviz version 2.26.3 (20100126.1600)
 -->
<!-- Title: inheritancefba4d2ab10 Pages: 1 -->
<svg width="1092pt" height="180pt"
 viewBox="0.00 0.00 1092.00 180.00" xmlns="http://www.w3.org/2000/svg" xmlns:xlink="http://www.w3.org/1999/xlink">
<g id="graph1" class="graph" transform="scale(1 1) rotate(0) translate(4 176)">
<title>inheritancefba4d2ab10</title>
<polygon fill="white" stroke="white" points="-4,5 -4,-176 1089,-176 1089,5 -4,5"/>
<!-- dataviews.ndmapping.NdIndexableMapping -->
<g id="node1" class="node"><title>dataviews.ndmapping.NdIndexableMapping</title>
<polygon fill="none" stroke="black" stroke-width="0.5" points="454,-143.5 230,-143.5 230,-122.5 454,-122.5 454,-143.5"/>
<text text-anchor="middle" x="342" y="-130.5" font-family="Vera" font-size="10.00">dataviews.ndmapping.NdIndexableMapping</text>
</g>
<!-- dataviews.ndmapping.NdMapping -->
<g id="node10" class="node"><title>dataviews.ndmapping.NdMapping</title>
<polygon fill="none" stroke="black" stroke-width="0.5" points="668,-153.5 490,-153.5 490,-132.5 668,-132.5 668,-153.5"/>
<text text-anchor="middle" x="579" y="-140.5" font-family="Vera" font-size="10.00">dataviews.ndmapping.NdMapping</text>
</g>
<!-- dataviews.ndmapping.NdIndexableMapping&#45;&gt;dataviews.ndmapping.NdMapping -->
<g id="edge26" class="edge"><title>dataviews.ndmapping.NdIndexableMapping&#45;&gt;dataviews.ndmapping.NdMapping</title>
<path fill="none" stroke="black" stroke-width="0.5" d="M454.254,-137.736C464.442,-138.166 474.692,-138.599 484.701,-139.021"/>
<polygon fill="black" stroke="black" points="484.843,-140.779 489.912,-139.241 484.99,-137.282 484.843,-140.779"/>
</g>
<!-- param.parameterized.Parameterized -->
<g id="node2" class="node"><title>param.parameterized.Parameterized</title>
<polygon fill="none" stroke="black" stroke-width="0.5" points="194,-114.5 5.68434e-14,-114.5 0,-93.5 194,-93.5 194,-114.5"/>
<text text-anchor="middle" x="97" y="-101.5" font-family="Vera" font-size="10.00">param.parameterized.Parameterized</text>
</g>
<!-- param.parameterized.Parameterized&#45;&gt;dataviews.ndmapping.NdIndexableMapping -->
<g id="edge2" class="edge"><title>param.parameterized.Parameterized&#45;&gt;dataviews.ndmapping.NdIndexableMapping</title>
<path fill="none" stroke="black" stroke-width="0.5" d="M181.658,-114.021C204.418,-116.715 229.111,-119.638 252.143,-122.364"/>
<polygon fill="black" stroke="black" points="252.167,-124.129 257.338,-122.979 252.579,-120.653 252.167,-124.129"/>
</g>
<!-- dataviews.views.View -->
<g id="node5" class="node"><title>dataviews.views.View</title>
<polygon fill="none" stroke="black" stroke-width="0.5" points="400,-86.5 284,-86.5 284,-65.5 400,-65.5 400,-86.5"/>
<text text-anchor="middle" x="342" y="-73.5" font-family="Vera" font-size="10.00">dataviews.views.View</text>
</g>
<!-- param.parameterized.Parameterized&#45;&gt;dataviews.views.View -->
<g id="edge22" class="edge"><title>param.parameterized.Parameterized&#45;&gt;dataviews.views.View</title>
<path fill="none" stroke="black" stroke-width="0.5" d="M184.759,-93.9704C215.522,-90.4546 249.473,-86.5745 277.93,-83.3223"/>
<polygon fill="black" stroke="black" points="278.409,-85.0291 283.178,-82.7226 278.011,-81.5517 278.409,-85.0291"/>
</g>
<!-- dataviews.views.Overlay -->
<g id="node4" class="node"><title>dataviews.views.Overlay</title>
<polygon fill="none" stroke="black" stroke-width="0.5" points="644,-115.5 514,-115.5 514,-94.5 644,-94.5 644,-115.5"/>
<text text-anchor="middle" x="579" y="-102.5" font-family="Vera" font-size="10.00">dataviews.views.Overlay</text>
</g>
<!-- dataviews.dataviews.DataOverlay -->
<g id="node14" class="node"><title>dataviews.dataviews.DataOverlay</title>
<polygon fill="none" stroke="black" stroke-width="0.5" points="880,-105.5 704,-105.5 704,-84.5 880,-84.5 880,-105.5"/>
<text text-anchor="middle" x="792" y="-92.5" font-family="Vera" font-size="10.00">dataviews.dataviews.DataOverlay</text>
</g>
<!-- dataviews.views.Overlay&#45;&gt;dataviews.dataviews.DataOverlay -->
<g id="edge14" class="edge"><title>dataviews.views.Overlay&#45;&gt;dataviews.dataviews.DataOverlay</title>
<path fill="none" stroke="black" stroke-width="0.5" d="M644.645,-101.918C661.74,-101.116 680.49,-100.235 698.716,-99.3796"/>
<polygon fill="black" stroke="black" points="698.928,-101.122 703.84,-99.1389 698.764,-97.6254 698.928,-101.122"/>
</g>
<!-- dataviews.views.View&#45;&gt;dataviews.views.Overlay -->
<g id="edge4" class="edge"><title>dataviews.views.View&#45;&gt;dataviews.views.Overlay</title>
<path fill="none" stroke="black" stroke-width="0.5" d="M400.584,-83.1685C433.116,-87.1492 473.824,-92.1303 508.137,-96.3291"/>
<polygon fill="black" stroke="black" points="507.976,-98.0723 513.152,-96.9426 508.402,-94.5982 507.976,-98.0723"/>
</g>
<!-- dataviews.dataviews.Table -->
<g id="node12" class="node"><title>dataviews.dataviews.Table</title>
<polygon fill="none" stroke="black" stroke-width="0.5" points="649,-77.5 509,-77.5 509,-56.5 649,-56.5 649,-77.5"/>
<text text-anchor="middle" x="579" y="-64.5" font-family="Vera" font-size="10.00">dataviews.dataviews.Table</text>
</g>
<!-- dataviews.views.View&#45;&gt;dataviews.dataviews.Table -->
<g id="edge10" class="edge"><title>dataviews.views.View&#45;&gt;dataviews.dataviews.Table</title>
<path fill="none" stroke="black" stroke-width="0.5" d="M400.584,-73.7753C431.551,-72.5993 469.927,-71.142 503.144,-69.8806"/>
<polygon fill="black" stroke="black" points="503.499,-71.6185 508.429,-69.6799 503.366,-68.121 503.499,-71.6185"/>
</g>
<!-- dataviews.dataviews.DataLayer -->
<g id="node15" class="node"><title>dataviews.dataviews.DataLayer</title>
<polygon fill="none" stroke="black" stroke-width="0.5" points="662,-39.5 496,-39.5 496,-18.5 662,-18.5 662,-39.5"/>
<text text-anchor="middle" x="579" y="-26.5" font-family="Vera" font-size="10.00">dataviews.dataviews.DataLayer</text>
</g>
<!-- dataviews.views.View&#45;&gt;dataviews.dataviews.DataLayer -->
<g id="edge16" class="edge"><title>dataviews.views.View&#45;&gt;dataviews.dataviews.DataLayer</title>
<path fill="none" stroke="black" stroke-width="0.5" d="M392.552,-65.975C430.933,-58.3636 483.677,-47.9037 523.274,-40.0511"/>
<polygon fill="black" stroke="black" points="523.962,-41.6989 528.526,-39.0096 523.281,-38.2657 523.962,-41.6989"/>
</g>
<!-- dataviews.dataviews.TableStack -->
<g id="node7" class="node"><title>dataviews.dataviews.TableStack</title>
<polygon fill="none" stroke="black" stroke-width="0.5" points="1084,-172.5 916,-172.5 916,-151.5 1084,-151.5 1084,-172.5"/>
<text text-anchor="middle" x="1000" y="-159.5" font-family="Vera" font-size="10.00">dataviews.dataviews.TableStack</text>
</g>
<!-- dataviews.dataviews.Stack -->
<g id="node8" class="node"><title>dataviews.dataviews.Stack</title>
<polygon fill="none" stroke="black" stroke-width="0.5" points="864,-153.5 720,-153.5 720,-132.5 864,-132.5 864,-153.5"/>
<text text-anchor="middle" x="792" y="-140.5" font-family="Vera" font-size="10.00">dataviews.dataviews.Stack</text>
</g>
<!-- dataviews.dataviews.Stack&#45;&gt;dataviews.dataviews.TableStack -->
<g id="edge6" class="edge"><title>dataviews.dataviews.Stack&#45;&gt;dataviews.dataviews.TableStack</title>
<path fill="none" stroke="black" stroke-width="0.5" d="M864.165,-149.592C879.134,-150.959 895.077,-152.416 910.579,-153.832"/>
<polygon fill="black" stroke="black" points="910.679,-155.598 915.818,-154.31 910.998,-152.113 910.679,-155.598"/>
</g>
<!-- dataviews.dataviews.DataStack -->
<g id="node19" class="node"><title>dataviews.dataviews.DataStack</title>
<polygon fill="none" stroke="black" stroke-width="0.5" points="1083,-134.5 917,-134.5 917,-113.5 1083,-113.5 1083,-134.5"/>
<text text-anchor="middle" x="1000" y="-121.5" font-family="Vera" font-size="10.00">dataviews.dataviews.DataStack</text>
</g>
<!-- dataviews.dataviews.Stack&#45;&gt;dataviews.dataviews.DataStack -->
<g id="edge18" class="edge"><title>dataviews.dataviews.Stack&#45;&gt;dataviews.dataviews.DataStack</title>
<path fill="none" stroke="black" stroke-width="0.5" d="M864.165,-136.408C879.239,-135.031 895.302,-133.564 910.907,-132.138"/>
<polygon fill="black" stroke="black" points="911.359,-133.854 916.179,-131.657 911.041,-130.369 911.359,-133.854"/>
</g>
<!-- dataviews.ndmapping.NdMapping&#45;&gt;dataviews.dataviews.Stack -->
<g id="edge8" class="edge"><title>dataviews.ndmapping.NdMapping&#45;&gt;dataviews.dataviews.Stack</title>
<path fill="none" stroke="black" stroke-width="0.5" d="M668.097,-143C683.563,-143 699.531,-143 714.651,-143"/>
<polygon fill="black" stroke="black" points="714.744,-144.75 719.744,-143 714.744,-141.25 714.744,-144.75"/>
</g>
<!-- dataviews.dataviews.DataLayer&#45;&gt;dataviews.dataviews.DataOverlay -->
<g id="edge12" class="edge"><title>dataviews.dataviews.DataLayer&#45;&gt;dataviews.dataviews.DataOverlay</title>
<path fill="none" stroke="black" stroke-width="0.5" d="M637.578,-39.0992C647.856,-41.5496 658.346,-44.4981 668,-48 685.007,-54.1692 687.314,-60.0075 704,-67 718.879,-73.2353 735.657,-78.8949 750.543,-83.468"/>
<polygon fill="black" stroke="black" points="750.22,-85.1988 755.513,-84.9764 751.237,-81.8497 750.22,-85.1988"/>
</g>
<!-- dataviews.dataviews.Curve -->
<g id="node21" class="node"><title>dataviews.dataviews.Curve</title>
<polygon fill="none" stroke="black" stroke-width="0.5" points="864,-58.5 720,-58.5 720,-37.5 864,-37.5 864,-58.5"/>
<text text-anchor="middle" x="792" y="-45.5" font-family="Vera" font-size="10.00">dataviews.dataviews.Curve</text>
</g>
<!-- dataviews.dataviews.DataLayer&#45;&gt;dataviews.dataviews.Curve -->
<g id="edge20" class="edge"><title>dataviews.dataviews.DataLayer&#45;&gt;dataviews.dataviews.Curve</title>
<path fill="none" stroke="black" stroke-width="0.5" d="M662.572,-36.4548C679.577,-37.9717 697.401,-39.5616 714.196,-41.0598"/>
<polygon fill="black" stroke="black" points="714.238,-42.8203 719.373,-41.5216 714.549,-39.3342 714.238,-42.8203"/>
</g>
<!-- dataviews.dataviews.Histogram -->
<g id="node24" class="node"><title>dataviews.dataviews.Histogram</title>
<polygon fill="none" stroke="black" stroke-width="0.5" points="875,-20.5 709,-20.5 709,0.5 875,0.5 875,-20.5"/>
<text text-anchor="middle" x="792" y="-7.5" font-family="Vera" font-size="10.00">dataviews.dataviews.Histogram</text>
</g>
<!-- dataviews.dataviews.DataLayer&#45;&gt;dataviews.dataviews.Histogram -->
<g id="edge24" class="edge"><title>dataviews.dataviews.DataLayer&#45;&gt;dataviews.dataviews.Histogram</title>
<path fill="none" stroke="black" stroke-width="0.5" d="M662.572,-21.5452C675.845,-20.3613 689.617,-19.1328 703.009,-17.9382"/>
<polygon fill="black" stroke="black" points="703.495,-19.6519 708.319,-17.4645 703.184,-16.1657 703.495,-19.6519"/>
</g>
</g>
</svg>
