<?xml version="1.0" encoding="UTF-8" standalone="no"?>
<!DOCTYPE svg PUBLIC "-//W3C//DTD SVG 1.1//EN"
 "http://www.w3.org/Graphics/SVG/1.1/DTD/svg11.dtd">
<!-- Generated by graphviz version 2.26.3 (20100126.1600)
 -->
<!-- Title: inheritance25825c39b2 Pages: 1 -->
<svg width="1312pt" height="104pt"
 viewBox="0.00 0.00 1312.00 104.00" xmlns="http://www.w3.org/2000/svg" xmlns:xlink="http://www.w3.org/1999/xlink">
<g id="graph1" class="graph" transform="scale(1 1) rotate(0) translate(4 100)">
<title>inheritance25825c39b2</title>
<polygon fill="white" stroke="white" points="-4,5 -4,-100 1309,-100 1309,5 -4,5"/>
<!-- imagen.PowerSpectrum -->
<g id="node1" class="node"><title>imagen.PowerSpectrum</title>
<polygon fill="none" stroke="black" stroke-width="0.5" points="621,-58.5 491,-58.5 491,-37.5 621,-37.5 621,-58.5"/>
<text text-anchor="middle" x="556" y="-45.5" font-family="Vera" font-size="10.00">imagen.PowerSpectrum</text>
</g>
<!-- imagen.audio.LyonsCochlearModel -->
<g id="node8" class="node"><title>imagen.audio.LyonsCochlearModel</title>
<polygon fill="none" stroke="black" stroke-width="0.5" points="840,-96.5 658,-96.5 658,-75.5 840,-75.5 840,-96.5"/>
<text text-anchor="middle" x="749" y="-83.5" font-family="Vera" font-size="10.00">imagen.audio.LyonsCochlearModel</text>
</g>
<!-- imagen.PowerSpectrum&#45;&gt;imagen.audio.LyonsCochlearModel -->
<g id="edge14" class="edge"><title>imagen.PowerSpectrum&#45;&gt;imagen.audio.LyonsCochlearModel</title>
<path fill="none" stroke="black" stroke-width="0.5" d="M606.961,-58.0338C633.455,-63.2503 665.892,-69.6368 693.076,-74.9891"/>
<polygon fill="black" stroke="black" points="692.844,-76.727 698.088,-75.976 693.521,-73.2929 692.844,-76.727"/>
</g>
<!-- imagen.Spectrogram -->
<g id="node18" class="node"><title>imagen.Spectrogram</title>
<polygon fill="none" stroke="black" stroke-width="0.5" points="808,-58.5 690,-58.5 690,-37.5 808,-37.5 808,-58.5"/>
<text text-anchor="middle" x="749" y="-45.5" font-family="Vera" font-size="10.00">imagen.Spectrogram</text>
</g>
<!-- imagen.PowerSpectrum&#45;&gt;imagen.Spectrogram -->
<g id="edge16" class="edge"><title>imagen.PowerSpectrum&#45;&gt;imagen.Spectrogram</title>
<path fill="none" stroke="black" stroke-width="0.5" d="M621.61,-48C641.859,-48 664.137,-48 684.323,-48"/>
<polygon fill="black" stroke="black" points="684.407,-49.7501 689.407,-48 684.407,-46.2501 684.407,-49.7501"/>
</g>
<!-- imagen.patterngenerator.PatternGenerator -->
<g id="node2" class="node"><title>imagen.patterngenerator.PatternGenerator</title>
<polygon fill="none" stroke="black" stroke-width="0.5" points="454,-58.5 230,-58.5 230,-37.5 454,-37.5 454,-58.5"/>
<text text-anchor="middle" x="342" y="-45.5" font-family="Vera" font-size="10.00">imagen.patterngenerator.PatternGenerator</text>
</g>
<!-- imagen.patterngenerator.PatternGenerator&#45;&gt;imagen.PowerSpectrum -->
<g id="edge2" class="edge"><title>imagen.patterngenerator.PatternGenerator&#45;&gt;imagen.PowerSpectrum</title>
<path fill="none" stroke="black" stroke-width="0.5" d="M454.014,-48C464.606,-48 475.133,-48 485.178,-48"/>
<polygon fill="black" stroke="black" points="485.384,-49.7501 490.384,-48 485.384,-46.2501 485.384,-49.7501"/>
</g>
<!-- imagen.audio.ModulatedLogSpectrogram -->
<g id="node4" class="node"><title>imagen.audio.ModulatedLogSpectrogram</title>
<polygon fill="none" stroke="black" stroke-width="0.5" points="1303,-58.5 1089,-58.5 1089,-37.5 1303,-37.5 1303,-58.5"/>
<text text-anchor="middle" x="1196" y="-45.5" font-family="Vera" font-size="10.00">imagen.audio.ModulatedLogSpectrogram</text>
</g>
<!-- imagen.audio.LogSpectrogram -->
<g id="node5" class="node"><title>imagen.audio.LogSpectrogram</title>
<polygon fill="none" stroke="black" stroke-width="0.5" points="1046,-58.5 882,-58.5 882,-37.5 1046,-37.5 1046,-58.5"/>
<text text-anchor="middle" x="964" y="-45.5" font-family="Vera" font-size="10.00">imagen.audio.LogSpectrogram</text>
</g>
<!-- imagen.audio.LogSpectrogram&#45;&gt;imagen.audio.ModulatedLogSpectrogram -->
<g id="edge4" class="edge"><title>imagen.audio.LogSpectrogram&#45;&gt;imagen.audio.ModulatedLogSpectrogram</title>
<path fill="none" stroke="black" stroke-width="0.5" d="M1046.77,-48C1058.5,-48 1070.73,-48 1082.91,-48"/>
<polygon fill="black" stroke="black" points="1083.12,-49.7501 1088.12,-48 1083.12,-46.2501 1083.12,-49.7501"/>
</g>
<!-- imagen.audio.LyonsCochleogram -->
<g id="node7" class="node"><title>imagen.audio.LyonsCochleogram</title>
<polygon fill="none" stroke="black" stroke-width="0.5" points="1052,-96.5 876,-96.5 876,-75.5 1052,-75.5 1052,-96.5"/>
<text text-anchor="middle" x="964" y="-83.5" font-family="Vera" font-size="10.00">imagen.audio.LyonsCochleogram</text>
</g>
<!-- imagen.audio.LyonsCochlearModel&#45;&gt;imagen.audio.LyonsCochleogram -->
<g id="edge6" class="edge"><title>imagen.audio.LyonsCochlearModel&#45;&gt;imagen.audio.LyonsCochleogram</title>
<path fill="none" stroke="black" stroke-width="0.5" d="M840.179,-86C850.218,-86 860.451,-86 870.517,-86"/>
<polygon fill="black" stroke="black" points="870.764,-87.7501 875.764,-86 870.764,-84.2501 870.764,-87.7501"/>
</g>
<!-- imagen.audio.AudioFolder -->
<g id="node10" class="node"><title>imagen.audio.AudioFolder</title>
<polygon fill="none" stroke="black" stroke-width="0.5" points="819,-20.5 679,-20.5 679,0.5 819,0.5 819,-20.5"/>
<text text-anchor="middle" x="749" y="-7.5" font-family="Vera" font-size="10.00">imagen.audio.AudioFolder</text>
</g>
<!-- imagen.audio.AudioFile -->
<g id="node11" class="node"><title>imagen.audio.AudioFile</title>
<polygon fill="none" stroke="black" stroke-width="0.5" points="619,-20.5 493,-20.5 493,0.5 619,0.5 619,-20.5"/>
<text text-anchor="middle" x="556" y="-7.5" font-family="Vera" font-size="10.00">imagen.audio.AudioFile</text>
</g>
<!-- imagen.audio.AudioFile&#45;&gt;imagen.audio.AudioFolder -->
<g id="edge8" class="edge"><title>imagen.audio.AudioFile&#45;&gt;imagen.audio.AudioFolder</title>
<path fill="none" stroke="black" stroke-width="0.5" d="M619.73,-10C636.746,-10 655.303,-10 672.911,-10"/>
<polygon fill="black" stroke="black" points="673.342,-11.7501 678.342,-10 673.342,-8.25009 673.342,-11.7501"/>
</g>
<!-- param.parameterized.Parameterized -->
<g id="node13" class="node"><title>param.parameterized.Parameterized</title>
<polygon fill="none" stroke="black" stroke-width="0.5" points="194,-39.5 5.68434e-14,-39.5 0,-18.5 194,-18.5 194,-39.5"/>
<text text-anchor="middle" x="97" y="-26.5" font-family="Vera" font-size="10.00">param.parameterized.Parameterized</text>
</g>
<!-- param.parameterized.Parameterized&#45;&gt;imagen.patterngenerator.PatternGenerator -->
<g id="edge10" class="edge"><title>param.parameterized.Parameterized&#45;&gt;imagen.patterngenerator.PatternGenerator</title>
<path fill="none" stroke="black" stroke-width="0.5" d="M194.182,-36.5366C204.286,-37.3201 214.629,-38.1223 224.922,-38.9205"/>
<polygon fill="black" stroke="black" points="224.849,-40.67 229.969,-39.3119 225.12,-37.1805 224.849,-40.67"/>
</g>
<!-- imagen.TimeSeries -->
<g id="node15" class="node"><title>imagen.TimeSeries</title>
<polygon fill="none" stroke="black" stroke-width="0.5" points="396,-20.5 288,-20.5 288,0.5 396,0.5 396,-20.5"/>
<text text-anchor="middle" x="342" y="-7.5" font-family="Vera" font-size="10.00">imagen.TimeSeries</text>
</g>
<!-- param.parameterized.Parameterized&#45;&gt;imagen.TimeSeries -->
<g id="edge12" class="edge"><title>param.parameterized.Parameterized&#45;&gt;imagen.TimeSeries</title>
<path fill="none" stroke="black" stroke-width="0.5" d="M194.182,-21.4634C223.866,-19.1614 255.624,-16.6985 282.066,-14.648"/>
<polygon fill="black" stroke="black" points="282.431,-16.375 287.281,-14.2435 282.161,-12.8854 282.431,-16.375"/>
</g>
<!-- imagen.TimeSeries&#45;&gt;imagen.audio.AudioFile -->
<g id="edge20" class="edge"><title>imagen.TimeSeries&#45;&gt;imagen.audio.AudioFile</title>
<path fill="none" stroke="black" stroke-width="0.5" d="M396.555,-10C424.181,-10 458.005,-10 487.38,-10"/>
<polygon fill="black" stroke="black" points="487.431,-11.7501 492.431,-10 487.431,-8.2501 487.431,-11.7501"/>
</g>
<!-- imagen.Spectrogram&#45;&gt;imagen.audio.LogSpectrogram -->
<g id="edge18" class="edge"><title>imagen.Spectrogram&#45;&gt;imagen.audio.LogSpectrogram</title>
<path fill="none" stroke="black" stroke-width="0.5" d="M808.604,-48C829.516,-48 853.467,-48 876.202,-48"/>
<polygon fill="black" stroke="black" points="876.337,-49.7501 881.337,-48 876.337,-46.2501 876.337,-49.7501"/>
</g>
</g>
</svg>
