<?xml version="1.0" encoding="UTF-8" standalone="no"?>
<!DOCTYPE svg PUBLIC "-//W3C//DTD SVG 1.1//EN"
 "http://www.w3.org/Graphics/SVG/1.1/DTD/svg11.dtd">
<!-- Generated by graphviz version 2.26.3 (20100126.1600)
 -->
<!-- Title: inheritanceb275281aee Pages: 1 -->
<svg width="602pt" height="28pt"
 viewBox="0.00 0.00 602.00 28.00" xmlns="http://www.w3.org/2000/svg" xmlns:xlink="http://www.w3.org/1999/xlink">
<g id="graph1" class="graph" transform="scale(1 1) rotate(0) translate(4 24)">
<title>inheritanceb275281aee</title>
<polygon fill="white" stroke="white" points="-4,5 -4,-24 599,-24 599,5 -4,5"/>
<!-- topo.misc.ipython.RunProgress -->
<g id="node1" class="node"><title>topo.misc.ipython.RunProgress</title>
<polygon fill="none" stroke="black" stroke-width="0.5" points="594,-20.5 430,-20.5 430,0.5 594,0.5 594,-20.5"/>
<text text-anchor="middle" x="512" y="-7.5" font-family="Vera" font-size="10.00">topo.misc.ipython.RunProgress</text>
</g>
<!-- topo.misc.ipython.ProgressBar -->
<g id="node2" class="node"><title>topo.misc.ipython.ProgressBar</title>
<polygon fill="none" stroke="black" stroke-width="0.5" points="394,-20.5 230,-20.5 230,0.5 394,0.5 394,-20.5"/>
<text text-anchor="middle" x="312" y="-7.5" font-family="Vera" font-size="10.00">topo.misc.ipython.ProgressBar</text>
</g>
<!-- topo.misc.ipython.ProgressBar&#45;&gt;topo.misc.ipython.RunProgress -->
<g id="edge2" class="edge"><title>topo.misc.ipython.ProgressBar&#45;&gt;topo.misc.ipython.RunProgress</title>
<path fill="none" stroke="black" stroke-width="0.5" d="M394.213,-10C404.214,-10 414.46,-10 424.533,-10"/>
<polygon fill="black" stroke="black" points="424.783,-11.7501 429.783,-10 424.783,-8.2501 424.783,-11.7501"/>
</g>
<!-- param.parameterized.Parameterized -->
<g id="node4" class="node"><title>param.parameterized.Parameterized</title>
<polygon fill="none" stroke="black" stroke-width="0.5" points="194,-20.5 5.68434e-14,-20.5 0,0.5 194,0.5 194,-20.5"/>
<text text-anchor="middle" x="97" y="-7.5" font-family="Vera" font-size="10.00">param.parameterized.Parameterized</text>
</g>
<!-- param.parameterized.Parameterized&#45;&gt;topo.misc.ipython.ProgressBar -->
<g id="edge4" class="edge"><title>param.parameterized.Parameterized&#45;&gt;topo.misc.ipython.ProgressBar</title>
<path fill="none" stroke="black" stroke-width="0.5" d="M194.121,-10C204.261,-10 214.525,-10 224.548,-10"/>
<polygon fill="black" stroke="black" points="224.766,-11.7501 229.766,-10 224.766,-8.2501 224.766,-11.7501"/>
</g>
</g>
</svg>
