<?xml version="1.0" encoding="UTF-8" standalone="no"?>
<!DOCTYPE svg PUBLIC "-//W3C//DTD SVG 1.1//EN"
 "http://www.w3.org/Graphics/SVG/1.1/DTD/svg11.dtd">
<!-- Generated by graphviz version 2.26.3 (20100126.1600)
 -->
<!-- Title: inheritance66b1f728c9 Pages: 1 -->
<svg width="420pt" height="66pt"
 viewBox="0.00 0.00 420.00 66.00" xmlns="http://www.w3.org/2000/svg" xmlns:xlink="http://www.w3.org/1999/xlink">
<g id="graph1" class="graph" transform="scale(1 1) rotate(0) translate(4 62)">
<title>inheritance66b1f728c9</title>
<polygon fill="white" stroke="white" points="-4,5 -4,-62 417,-62 417,5 -4,5"/>
<!-- numpy.ndarray -->
<g id="node1" class="node"><title>numpy.ndarray</title>
<polygon fill="none" stroke="black" stroke-width="0.5" points="162,-20.5 74,-20.5 74,0.5 162,0.5 162,-20.5"/>
<text text-anchor="middle" x="118" y="-7.5" font-family="Vera" font-size="10.00">numpy.ndarray</text>
</g>
<!-- imagen.sheetcoords.Slice -->
<g id="node2" class="node"><title>imagen.sheetcoords.Slice</title>
<polygon fill="none" stroke="black" stroke-width="0.5" points="412,-20.5 272,-20.5 272,0.5 412,0.5 412,-20.5"/>
<text text-anchor="middle" x="342" y="-7.5" font-family="Vera" font-size="10.00">imagen.sheetcoords.Slice</text>
</g>
<!-- numpy.ndarray&#45;&gt;imagen.sheetcoords.Slice -->
<g id="edge2" class="edge"><title>numpy.ndarray&#45;&gt;imagen.sheetcoords.Slice</title>
<path fill="none" stroke="black" stroke-width="0.5" d="M162.255,-10C192.029,-10 232.033,-10 266.743,-10"/>
<polygon fill="black" stroke="black" points="266.824,-11.7501 271.824,-10 266.823,-8.2501 266.824,-11.7501"/>
</g>
<!-- imagen.sheetcoords.SheetCoordinateSystem -->
<g id="node4" class="node"><title>imagen.sheetcoords.SheetCoordinateSystem</title>
<polygon fill="none" stroke="black" stroke-width="0.5" points="236,-58.5 8.52651e-14,-58.5 0,-37.5 236,-37.5 236,-58.5"/>
<text text-anchor="middle" x="118" y="-45.5" font-family="Vera" font-size="10.00">imagen.sheetcoords.SheetCoordinateSystem</text>
</g>
</g>
</svg>
