<?xml version="1.0" encoding="UTF-8" standalone="no"?>
<!DOCTYPE svg PUBLIC "-//W3C//DTD SVG 1.1//EN"
 "http://www.w3.org/Graphics/SVG/1.1/DTD/svg11.dtd">
<!-- Generated by graphviz version 2.26.3 (20100126.1600)
 -->
<!-- Title: inheritancec32af4147c Pages: 1 -->
<svg width="788pt" height="484pt"
 viewBox="0.00 0.00 788.00 484.00" xmlns="http://www.w3.org/2000/svg" xmlns:xlink="http://www.w3.org/1999/xlink">
<g id="graph1" class="graph" transform="scale(1 1) rotate(0) translate(4 480)">
<title>inheritancec32af4147c</title>
<polygon fill="white" stroke="white" points="-4,5 -4,-480 785,-480 785,5 -4,5"/>
<!-- dataviews.plots.DataGridPlot -->
<g id="node1" class="node"><title>dataviews.plots.DataGridPlot</title>
<polygon fill="none" stroke="black" stroke-width="0.5" points="547,-476.5 393,-476.5 393,-455.5 547,-455.5 547,-476.5"/>
<text text-anchor="middle" x="470" y="-463.5" font-family="Vera" font-size="10.00">dataviews.plots.DataGridPlot</text>
</g>
<!-- dataviews.plots.Plot -->
<g id="node2" class="node"><title>dataviews.plots.Plot</title>
<polygon fill="none" stroke="black" stroke-width="0.5" points="341,-248.5 231,-248.5 231,-227.5 341,-227.5 341,-248.5"/>
<text text-anchor="middle" x="286" y="-235.5" font-family="Vera" font-size="10.00">dataviews.plots.Plot</text>
</g>
<!-- dataviews.plots.Plot&#45;&gt;dataviews.plots.DataGridPlot -->
<g id="edge2" class="edge"><title>dataviews.plots.Plot&#45;&gt;dataviews.plots.DataGridPlot</title>
<path fill="none" stroke="black" stroke-width="0.5" d="M287.223,-248.242C291.878,-282.419 311.717,-393.411 378,-447 381.052,-449.467 384.343,-451.639 387.801,-453.548"/>
<polygon fill="black" stroke="black" points="387.363,-455.288 392.613,-455.992 388.948,-452.168 387.363,-455.288"/>
</g>
<!-- dataviews.plots.TablePlot -->
<g id="node5" class="node"><title>dataviews.plots.TablePlot</title>
<polygon fill="none" stroke="black" stroke-width="0.5" points="537,-438.5 403,-438.5 403,-417.5 537,-417.5 537,-438.5"/>
<text text-anchor="middle" x="470" y="-425.5" font-family="Vera" font-size="10.00">dataviews.plots.TablePlot</text>
</g>
<!-- dataviews.plots.Plot&#45;&gt;dataviews.plots.TablePlot -->
<g id="edge4" class="edge"><title>dataviews.plots.Plot&#45;&gt;dataviews.plots.TablePlot</title>
<path fill="none" stroke="black" stroke-width="0.5" d="M288.242,-248.054C295.449,-277.891 320.964,-366.496 378,-409 383.844,-413.355 390.451,-416.769 397.377,-419.437"/>
<polygon fill="black" stroke="black" points="396.92,-421.132 402.217,-421.167 398.098,-417.836 396.92,-421.132"/>
</g>
<!-- dataviews.plots.CurvePlot -->
<g id="node7" class="node"><title>dataviews.plots.CurvePlot</title>
<polygon fill="none" stroke="black" stroke-width="0.5" points="539,-400.5 401,-400.5 401,-379.5 539,-379.5 539,-400.5"/>
<text text-anchor="middle" x="470" y="-387.5" font-family="Vera" font-size="10.00">dataviews.plots.CurvePlot</text>
</g>
<!-- dataviews.plots.Plot&#45;&gt;dataviews.plots.CurvePlot -->
<g id="edge6" class="edge"><title>dataviews.plots.Plot&#45;&gt;dataviews.plots.CurvePlot</title>
<path fill="none" stroke="black" stroke-width="0.5" d="M289.934,-248.321C300.176,-273.702 330.238,-339.389 378,-371 383.419,-374.586 389.38,-377.517 395.582,-379.908"/>
<polygon fill="black" stroke="black" points="395.07,-381.584 400.367,-381.634 396.258,-378.291 395.07,-381.584"/>
</g>
<!-- dataviews.plots.ContourPlot -->
<g id="node9" class="node"><title>dataviews.plots.ContourPlot</title>
<polygon fill="none" stroke="black" stroke-width="0.5" points="544,-362.5 396,-362.5 396,-341.5 544,-341.5 544,-362.5"/>
<text text-anchor="middle" x="470" y="-349.5" font-family="Vera" font-size="10.00">dataviews.plots.ContourPlot</text>
</g>
<!-- dataviews.plots.Plot&#45;&gt;dataviews.plots.ContourPlot -->
<g id="edge8" class="edge"><title>dataviews.plots.Plot&#45;&gt;dataviews.plots.ContourPlot</title>
<path fill="none" stroke="black" stroke-width="0.5" d="M292.706,-248.242C306.259,-268.052 338.966,-311.546 378,-333 383.136,-335.823 388.644,-338.228 394.317,-340.276"/>
<polygon fill="black" stroke="black" points="393.819,-341.956 399.116,-341.915 394.95,-338.643 393.819,-341.956"/>
</g>
<!-- dataviews.plots.SheetPlot -->
<g id="node11" class="node"><title>dataviews.plots.SheetPlot</title>
<polygon fill="none" stroke="black" stroke-width="0.5" points="540,-324.5 400,-324.5 400,-303.5 540,-303.5 540,-324.5"/>
<text text-anchor="middle" x="470" y="-311.5" font-family="Vera" font-size="10.00">dataviews.plots.SheetPlot</text>
</g>
<!-- dataviews.plots.Plot&#45;&gt;dataviews.plots.SheetPlot -->
<g id="edge10" class="edge"><title>dataviews.plots.Plot&#45;&gt;dataviews.plots.SheetPlot</title>
<path fill="none" stroke="black" stroke-width="0.5" d="M298.922,-248.073C316.042,-260.915 347.629,-282.899 378,-295 385.403,-297.95 393.331,-300.465 401.314,-302.605"/>
<polygon fill="black" stroke="black" points="401.009,-304.334 406.288,-303.89 401.884,-300.945 401.009,-304.334"/>
</g>
<!-- dataviews.plots.GridLayoutPlot -->
<g id="node13" class="node"><title>dataviews.plots.GridLayoutPlot</title>
<polygon fill="none" stroke="black" stroke-width="0.5" points="551,-286.5 389,-286.5 389,-265.5 551,-265.5 551,-286.5"/>
<text text-anchor="middle" x="470" y="-273.5" font-family="Vera" font-size="10.00">dataviews.plots.GridLayoutPlot</text>
</g>
<!-- dataviews.plots.Plot&#45;&gt;dataviews.plots.GridLayoutPlot -->
<g id="edge12" class="edge"><title>dataviews.plots.Plot&#45;&gt;dataviews.plots.GridLayoutPlot</title>
<path fill="none" stroke="black" stroke-width="0.5" d="M334.826,-248.084C359.878,-253.258 390.456,-259.572 416.187,-264.886"/>
<polygon fill="black" stroke="black" points="416.015,-266.638 421.266,-265.935 416.723,-263.21 416.015,-266.638"/>
</g>
<!-- dataviews.plots.SheetViewPlot -->
<g id="node15" class="node"><title>dataviews.plots.SheetViewPlot</title>
<polygon fill="none" stroke="black" stroke-width="0.5" points="550,-248.5 390,-248.5 390,-227.5 550,-227.5 550,-248.5"/>
<text text-anchor="middle" x="470" y="-235.5" font-family="Vera" font-size="10.00">dataviews.plots.SheetViewPlot</text>
</g>
<!-- dataviews.plots.Plot&#45;&gt;dataviews.plots.SheetViewPlot -->
<g id="edge14" class="edge"><title>dataviews.plots.Plot&#45;&gt;dataviews.plots.SheetViewPlot</title>
<path fill="none" stroke="black" stroke-width="0.5" d="M341.705,-238C355.082,-238 369.679,-238 384.076,-238"/>
<polygon fill="black" stroke="black" points="384.368,-239.75 389.368,-238 384.368,-236.25 384.368,-239.75"/>
</g>
<!-- dataviews.plots.CoordinateGridPlot -->
<g id="node17" class="node"><title>dataviews.plots.CoordinateGridPlot</title>
<polygon fill="none" stroke="black" stroke-width="0.5" points="561,-210.5 379,-210.5 379,-189.5 561,-189.5 561,-210.5"/>
<text text-anchor="middle" x="470" y="-197.5" font-family="Vera" font-size="10.00">dataviews.plots.CoordinateGridPlot</text>
</g>
<!-- dataviews.plots.Plot&#45;&gt;dataviews.plots.CoordinateGridPlot -->
<g id="edge16" class="edge"><title>dataviews.plots.Plot&#45;&gt;dataviews.plots.CoordinateGridPlot</title>
<path fill="none" stroke="black" stroke-width="0.5" d="M334.826,-227.916C359.878,-222.742 390.456,-216.428 416.187,-211.114"/>
<polygon fill="black" stroke="black" points="416.723,-212.79 421.266,-210.065 416.015,-209.362 416.723,-212.79"/>
</g>
<!-- dataviews.plots.PointPlot -->
<g id="node19" class="node"><title>dataviews.plots.PointPlot</title>
<polygon fill="none" stroke="black" stroke-width="0.5" points="537,-172.5 403,-172.5 403,-151.5 537,-151.5 537,-172.5"/>
<text text-anchor="middle" x="470" y="-159.5" font-family="Vera" font-size="10.00">dataviews.plots.PointPlot</text>
</g>
<!-- dataviews.plots.Plot&#45;&gt;dataviews.plots.PointPlot -->
<g id="edge18" class="edge"><title>dataviews.plots.Plot&#45;&gt;dataviews.plots.PointPlot</title>
<path fill="none" stroke="black" stroke-width="0.5" d="M298.922,-227.927C316.042,-215.085 347.629,-193.101 378,-181 385.403,-178.05 393.331,-175.535 401.314,-173.395"/>
<polygon fill="black" stroke="black" points="401.884,-175.055 406.288,-172.11 401.009,-171.666 401.884,-175.055"/>
</g>
<!-- dataviews.plots.HistogramPlot -->
<g id="node21" class="node"><title>dataviews.plots.HistogramPlot</title>
<polygon fill="none" stroke="black" stroke-width="0.5" points="550,-134.5 390,-134.5 390,-113.5 550,-113.5 550,-134.5"/>
<text text-anchor="middle" x="470" y="-121.5" font-family="Vera" font-size="10.00">dataviews.plots.HistogramPlot</text>
</g>
<!-- dataviews.plots.Plot&#45;&gt;dataviews.plots.HistogramPlot -->
<g id="edge20" class="edge"><title>dataviews.plots.Plot&#45;&gt;dataviews.plots.HistogramPlot</title>
<path fill="none" stroke="black" stroke-width="0.5" d="M292.706,-227.758C306.259,-207.948 338.966,-164.454 378,-143 383.136,-140.177 388.644,-137.772 394.317,-135.724"/>
<polygon fill="black" stroke="black" points="394.95,-137.357 399.116,-134.085 393.819,-134.044 394.95,-137.357"/>
</g>
<!-- dataviews.plots.DataPlot -->
<g id="node23" class="node"><title>dataviews.plots.DataPlot</title>
<polygon fill="none" stroke="black" stroke-width="0.5" points="537,-96.5 403,-96.5 403,-75.5 537,-75.5 537,-96.5"/>
<text text-anchor="middle" x="470" y="-83.5" font-family="Vera" font-size="10.00">dataviews.plots.DataPlot</text>
</g>
<!-- dataviews.plots.Plot&#45;&gt;dataviews.plots.DataPlot -->
<g id="edge22" class="edge"><title>dataviews.plots.Plot&#45;&gt;dataviews.plots.DataPlot</title>
<path fill="none" stroke="black" stroke-width="0.5" d="M289.934,-227.679C300.176,-202.298 330.238,-136.611 378,-105 384.078,-100.978 390.837,-97.7805 397.854,-95.2432"/>
<polygon fill="black" stroke="black" points="398.572,-96.8481 402.749,-93.59 397.452,-93.5322 398.572,-96.8481"/>
</g>
<!-- dataviews.plots.LayoutPlot -->
<g id="node25" class="node"><title>dataviews.plots.LayoutPlot</title>
<polygon fill="none" stroke="black" stroke-width="0.5" points="541,-58.5 399,-58.5 399,-37.5 541,-37.5 541,-58.5"/>
<text text-anchor="middle" x="470" y="-45.5" font-family="Vera" font-size="10.00">dataviews.plots.LayoutPlot</text>
</g>
<!-- dataviews.plots.Plot&#45;&gt;dataviews.plots.LayoutPlot -->
<g id="edge24" class="edge"><title>dataviews.plots.Plot&#45;&gt;dataviews.plots.LayoutPlot</title>
<path fill="none" stroke="black" stroke-width="0.5" d="M288.242,-227.946C295.449,-198.109 320.964,-109.504 378,-67 382.802,-63.4216 388.119,-60.4788 393.705,-58.0629"/>
<polygon fill="black" stroke="black" points="394.467,-59.6427 398.454,-56.1552 393.162,-56.3949 394.467,-59.6427"/>
</g>
<!-- dataviews.plots.AnnotationPlot -->
<g id="node27" class="node"><title>dataviews.plots.AnnotationPlot</title>
<polygon fill="none" stroke="black" stroke-width="0.5" points="552,-20.5 388,-20.5 388,0.5 552,0.5 552,-20.5"/>
<text text-anchor="middle" x="470" y="-7.5" font-family="Vera" font-size="10.00">dataviews.plots.AnnotationPlot</text>
</g>
<!-- dataviews.plots.Plot&#45;&gt;dataviews.plots.AnnotationPlot -->
<g id="edge26" class="edge"><title>dataviews.plots.Plot&#45;&gt;dataviews.plots.AnnotationPlot</title>
<path fill="none" stroke="black" stroke-width="0.5" d="M287.223,-227.758C291.878,-193.581 311.717,-82.5887 378,-29 381.052,-26.5327 384.343,-24.3613 387.801,-22.4521"/>
<polygon fill="black" stroke="black" points="388.948,-23.8324 392.613,-20.0079 387.363,-20.7118 388.948,-23.8324"/>
</g>
<!-- param.parameterized.Parameterized -->
<g id="node4" class="node"><title>param.parameterized.Parameterized</title>
<polygon fill="none" stroke="black" stroke-width="0.5" points="194,-248.5 5.68434e-14,-248.5 0,-227.5 194,-227.5 194,-248.5"/>
<text text-anchor="middle" x="97" y="-235.5" font-family="Vera" font-size="10.00">param.parameterized.Parameterized</text>
</g>
<!-- param.parameterized.Parameterized&#45;&gt;dataviews.plots.Plot -->
<g id="edge28" class="edge"><title>param.parameterized.Parameterized&#45;&gt;dataviews.plots.Plot</title>
<path fill="none" stroke="black" stroke-width="0.5" d="M194.268,-238C204.743,-238 215.173,-238 225.042,-238"/>
<polygon fill="black" stroke="black" points="225.149,-239.75 230.149,-238 225.149,-236.25 225.149,-239.75"/>
</g>
<!-- dataviews.plots.SideHistogramPlot -->
<g id="node30" class="node"><title>dataviews.plots.SideHistogramPlot</title>
<polygon fill="none" stroke="black" stroke-width="0.5" points="780,-134.5 598,-134.5 598,-113.5 780,-113.5 780,-134.5"/>
<text text-anchor="middle" x="689" y="-121.5" font-family="Vera" font-size="10.00">dataviews.plots.SideHistogramPlot</text>
</g>
<!-- dataviews.plots.HistogramPlot&#45;&gt;dataviews.plots.SideHistogramPlot -->
<g id="edge30" class="edge"><title>dataviews.plots.HistogramPlot&#45;&gt;dataviews.plots.SideHistogramPlot</title>
<path fill="none" stroke="black" stroke-width="0.5" d="M550.615,-124C564.301,-124 578.636,-124 592.677,-124"/>
<polygon fill="black" stroke="black" points="592.835,-125.75 597.835,-124 592.835,-122.25 592.835,-125.75"/>
</g>
</g>
</svg>
