<?xml version="1.0" encoding="UTF-8" standalone="no"?>
<!DOCTYPE svg PUBLIC "-//W3C//DTD SVG 1.1//EN"
 "http://www.w3.org/Graphics/SVG/1.1/DTD/svg11.dtd">
<!-- Generated by graphviz version 2.26.3 (20100126.1600)
 -->
<!-- Title: inheritanceb93d1cfda2 Pages: 1 -->
<svg width="454pt" height="66pt"
 viewBox="0.00 0.00 454.00 66.00" xmlns="http://www.w3.org/2000/svg" xmlns:xlink="http://www.w3.org/1999/xlink">
<g id="graph1" class="graph" transform="scale(1 1) rotate(0) translate(4 62)">
<title>inheritanceb93d1cfda2</title>
<polygon fill="white" stroke="white" points="-4,5 -4,-62 451,-62 451,5 -4,5"/>
<!-- unittest.case.TestCase -->
<g id="node1" class="node"><title>unittest.case.TestCase</title>
<polygon fill="none" stroke="black" stroke-width="0.5" points="125,-39.5 1,-39.5 1,-18.5 125,-18.5 125,-39.5"/>
<text text-anchor="middle" x="63" y="-26.5" font-family="Vera" font-size="10.00">unittest.case.TestCase</text>
</g>
<!-- dataviews.test.testndmapping.NdIndexableMappingTest -->
<g id="node2" class="node"><title>dataviews.test.testndmapping.NdIndexableMappingTest</title>
<polygon fill="none" stroke="black" stroke-width="0.5" points="445,-58.5 163,-58.5 163,-37.5 445,-37.5 445,-58.5"/>
<text text-anchor="middle" x="304" y="-45.5" font-family="Vera" font-size="10.00">dataviews.test.testndmapping.NdIndexableMappingTest</text>
</g>
<!-- unittest.case.TestCase&#45;&gt;dataviews.test.testndmapping.NdIndexableMappingTest -->
<g id="edge2" class="edge"><title>unittest.case.TestCase&#45;&gt;dataviews.test.testndmapping.NdIndexableMappingTest</title>
<path fill="none" stroke="black" stroke-width="0.5" d="M125.691,-33.9424C140.099,-35.0784 155.953,-36.3283 172.083,-37.5999"/>
<polygon fill="black" stroke="black" points="171.974,-39.3466 177.096,-37.9951 172.249,-35.8575 171.974,-39.3466"/>
</g>
<!-- dataviews.test.testndmapping.DimensionTest -->
<g id="node4" class="node"><title>dataviews.test.testndmapping.DimensionTest</title>
<polygon fill="none" stroke="black" stroke-width="0.5" points="421,-20.5 187,-20.5 187,0.5 421,0.5 421,-20.5"/>
<text text-anchor="middle" x="304" y="-7.5" font-family="Vera" font-size="10.00">dataviews.test.testndmapping.DimensionTest</text>
</g>
<!-- unittest.case.TestCase&#45;&gt;dataviews.test.testndmapping.DimensionTest -->
<g id="edge4" class="edge"><title>unittest.case.TestCase&#45;&gt;dataviews.test.testndmapping.DimensionTest</title>
<path fill="none" stroke="black" stroke-width="0.5" d="M125.691,-24.0576C142.901,-22.7008 162.173,-21.1814 181.513,-19.6567"/>
<polygon fill="black" stroke="black" points="182.121,-21.3642 186.968,-19.2266 181.846,-17.8751 182.121,-21.3642"/>
</g>
</g>
</svg>
