<?xml version="1.0" encoding="UTF-8" standalone="no"?>
<!DOCTYPE svg PUBLIC "-//W3C//DTD SVG 1.1//EN"
 "http://www.w3.org/Graphics/SVG/1.1/DTD/svg11.dtd">
<!-- Generated by graphviz version 2.26.3 (20100126.1600)
 -->
<!-- Title: inheritancec2708a0c37 Pages: 1 -->
<svg width="766pt" height="28pt"
 viewBox="0.00 0.00 766.00 28.00" xmlns="http://www.w3.org/2000/svg" xmlns:xlink="http://www.w3.org/1999/xlink">
<g id="graph1" class="graph" transform="scale(1 1) rotate(0) translate(4 24)">
<title>inheritancec2708a0c37</title>
<polygon fill="white" stroke="white" points="-4,5 -4,-24 763,-24 763,5 -4,5"/>
<!-- topo.plotting.plotfilesaver.CFProjectionPlotGroupSaver -->
<g id="node1" class="node"><title>topo.plotting.plotfilesaver.CFProjectionPlotGroupSaver</title>
<polygon fill="none" stroke="black" stroke-width="0.5" points="757,-20.5 483,-20.5 483,0.5 757,0.5 757,-20.5"/>
<text text-anchor="middle" x="620" y="-7.5" font-family="Vera" font-size="10.00">topo.plotting.plotfilesaver.CFProjectionPlotGroupSaver</text>
</g>
<!-- topo.plotting.plotfilesaver.PlotGroupSaver -->
<g id="node2" class="node"><title>topo.plotting.plotfilesaver.PlotGroupSaver</title>
<polygon fill="none" stroke="black" stroke-width="0.5" points="445,-20.5 231,-20.5 231,0.5 445,0.5 445,-20.5"/>
<text text-anchor="middle" x="338" y="-7.5" font-family="Vera" font-size="10.00">topo.plotting.plotfilesaver.PlotGroupSaver</text>
</g>
<!-- topo.plotting.plotfilesaver.PlotGroupSaver&#45;&gt;topo.plotting.plotfilesaver.CFProjectionPlotGroupSaver -->
<g id="edge2" class="edge"><title>topo.plotting.plotfilesaver.PlotGroupSaver&#45;&gt;topo.plotting.plotfilesaver.CFProjectionPlotGroupSaver</title>
<path fill="none" stroke="black" stroke-width="0.5" d="M445.819,-10C456.108,-10 466.647,-10 477.199,-10"/>
<polygon fill="black" stroke="black" points="477.379,-11.7501 482.379,-10 477.379,-8.2501 477.379,-11.7501"/>
</g>
<!-- param.parameterized.Parameterized -->
<g id="node4" class="node"><title>param.parameterized.Parameterized</title>
<polygon fill="none" stroke="black" stroke-width="0.5" points="194,-20.5 5.68434e-14,-20.5 0,0.5 194,0.5 194,-20.5"/>
<text text-anchor="middle" x="97" y="-7.5" font-family="Vera" font-size="10.00">param.parameterized.Parameterized</text>
</g>
<!-- param.parameterized.Parameterized&#45;&gt;topo.plotting.plotfilesaver.PlotGroupSaver -->
<g id="edge4" class="edge"><title>param.parameterized.Parameterized&#45;&gt;topo.plotting.plotfilesaver.PlotGroupSaver</title>
<path fill="none" stroke="black" stroke-width="0.5" d="M194.329,-10C204.546,-10 214.993,-10 225.362,-10"/>
<polygon fill="black" stroke="black" points="225.445,-11.7501 230.445,-10 225.445,-8.2501 225.445,-11.7501"/>
</g>
</g>
</svg>
