<?xml version="1.0" encoding="UTF-8" standalone="no"?>
<!DOCTYPE svg PUBLIC "-//W3C//DTD SVG 1.1//EN"
 "http://www.w3.org/Graphics/SVG/1.1/DTD/svg11.dtd">
<!-- Generated by graphviz version 2.26.3 (20100126.1600)
 -->
<!-- Title: inheritance09fca71fec Pages: 1 -->
<svg width="1140pt" height="246pt"
 viewBox="0.00 0.00 1140.00 246.00" xmlns="http://www.w3.org/2000/svg" xmlns:xlink="http://www.w3.org/1999/xlink">
<g id="graph1" class="graph" transform="scale(1 1) rotate(0) translate(4 242)">
<title>inheritance09fca71fec</title>
<polygon fill="white" stroke="white" points="-4,5 -4,-242 1137,-242 1137,5 -4,5"/>
<!-- param.parameterized.Parameterized -->
<g id="node1" class="node"><title>param.parameterized.Parameterized</title>
<polygon fill="none" stroke="black" stroke-width="0.5" points="446,-219.5 252,-219.5 252,-198.5 446,-198.5 446,-219.5"/>
<text text-anchor="middle" x="349" y="-206.5" font-family="Vera" font-size="10.00">param.parameterized.Parameterized</text>
</g>
<!-- paramtk.TkParameterizedBase -->
<g id="node3" class="node"><title>paramtk.TkParameterizedBase</title>
<polygon fill="none" stroke="black" stroke-width="0.5" points="666,-238.5 502,-238.5 502,-217.5 666,-217.5 666,-238.5"/>
<text text-anchor="middle" x="584" y="-225.5" font-family="Vera" font-size="10.00">paramtk.TkParameterizedBase</text>
</g>
<!-- param.parameterized.Parameterized&#45;&gt;paramtk.TkParameterizedBase -->
<g id="edge18" class="edge"><title>param.parameterized.Parameterized&#45;&gt;paramtk.TkParameterizedBase</title>
<path fill="none" stroke="black" stroke-width="0.5" d="M446.28,-216.865C462.987,-218.216 480.256,-219.612 496.682,-220.94"/>
<polygon fill="black" stroke="black" points="496.626,-222.691 501.75,-221.35 496.908,-219.203 496.626,-222.691"/>
</g>
<!-- topo.tkgui.topoconsole.PlotsMenuEntry -->
<g id="node29" class="node"><title>topo.tkgui.topoconsole.PlotsMenuEntry</title>
<polygon fill="none" stroke="black" stroke-width="0.5" points="685,-200.5 483,-200.5 483,-179.5 685,-179.5 685,-200.5"/>
<text text-anchor="middle" x="584" y="-187.5" font-family="Vera" font-size="10.00">topo.tkgui.topoconsole.PlotsMenuEntry</text>
</g>
<!-- param.parameterized.Parameterized&#45;&gt;topo.tkgui.topoconsole.PlotsMenuEntry -->
<g id="edge22" class="edge"><title>param.parameterized.Parameterized&#45;&gt;topo.tkgui.topoconsole.PlotsMenuEntry</title>
<path fill="none" stroke="black" stroke-width="0.5" d="M446.28,-201.135C456.48,-200.31 466.89,-199.468 477.189,-198.636"/>
<polygon fill="black" stroke="black" points="477.392,-200.375 482.235,-198.228 477.11,-196.887 477.392,-200.375"/>
</g>
<!-- paramtk.TkParameterized -->
<g id="node2" class="node"><title>paramtk.TkParameterized</title>
<polygon fill="none" stroke="black" stroke-width="0.5" points="873,-228.5 733,-228.5 733,-207.5 873,-207.5 873,-228.5"/>
<text text-anchor="middle" x="803" y="-215.5" font-family="Vera" font-size="10.00">paramtk.TkParameterized</text>
</g>
<!-- topo.tkgui.topoconsole.TopoConsole -->
<g id="node5" class="node"><title>topo.tkgui.topoconsole.TopoConsole</title>
<polygon fill="none" stroke="black" stroke-width="0.5" points="1120,-199.5 932,-199.5 932,-178.5 1120,-178.5 1120,-199.5"/>
<text text-anchor="middle" x="1026" y="-186.5" font-family="Vera" font-size="10.00">topo.tkgui.topoconsole.TopoConsole</text>
</g>
<!-- paramtk.TkParameterized&#45;&gt;topo.tkgui.topoconsole.TopoConsole -->
<g id="edge6" class="edge"><title>paramtk.TkParameterized&#45;&gt;topo.tkgui.topoconsole.TopoConsole</title>
<path fill="none" stroke="black" stroke-width="0.5" d="M873.253,-208.864C895.566,-205.962 920.446,-202.727 943.539,-199.724"/>
<polygon fill="black" stroke="black" points="944.014,-201.427 948.746,-199.046 943.562,-197.956 944.014,-201.427"/>
</g>
<!-- paramtk.TkParameterizedBase&#45;&gt;paramtk.TkParameterized -->
<g id="edge2" class="edge"><title>paramtk.TkParameterizedBase&#45;&gt;paramtk.TkParameterized</title>
<path fill="none" stroke="black" stroke-width="0.5" d="M666.171,-224.248C686.423,-223.323 708.007,-222.338 727.904,-221.429"/>
<polygon fill="black" stroke="black" points="728.01,-223.176 732.925,-221.2 727.85,-219.68 728.01,-223.176"/>
</g>
<!-- paramtk.AppWindow -->
<g id="node6" class="node"><title>paramtk.AppWindow</title>
<polygon fill="none" stroke="black" stroke-width="0.5" points="860,-171.5 746,-171.5 746,-150.5 860,-150.5 860,-171.5"/>
<text text-anchor="middle" x="803" y="-158.5" font-family="Vera" font-size="10.00">paramtk.AppWindow</text>
</g>
<!-- paramtk.AppWindow&#45;&gt;topo.tkgui.topoconsole.TopoConsole -->
<g id="edge4" class="edge"><title>paramtk.AppWindow&#45;&gt;topo.tkgui.topoconsole.TopoConsole</title>
<path fill="none" stroke="black" stroke-width="0.5" d="M860.138,-168.174C884.8,-171.271 914.159,-174.957 941.273,-178.362"/>
<polygon fill="black" stroke="black" points="941.129,-180.107 946.308,-178.994 941.565,-176.634 941.129,-180.107"/>
</g>
<!-- paramtk.ScrolledWindow -->
<g id="node9" class="node"><title>paramtk.ScrolledWindow</title>
<polygon fill="none" stroke="black" stroke-width="0.5" points="651,-162.5 517,-162.5 517,-141.5 651,-141.5 651,-162.5"/>
<text text-anchor="middle" x="584" y="-149.5" font-family="Vera" font-size="10.00">paramtk.ScrolledWindow</text>
</g>
<!-- paramtk.ScrolledWindow&#45;&gt;paramtk.AppWindow -->
<g id="edge38" class="edge"><title>paramtk.ScrolledWindow&#45;&gt;paramtk.AppWindow</title>
<path fill="none" stroke="black" stroke-width="0.5" d="M651.196,-154.761C679.722,-155.934 712.775,-157.292 740.742,-158.441"/>
<polygon fill="black" stroke="black" points="740.834,-160.197 745.902,-158.654 740.978,-156.7 740.834,-160.197"/>
</g>
<!-- Tkinter.Toplevel -->
<g id="node10" class="node"><title>Tkinter.Toplevel</title>
<polygon fill="none" stroke="black" stroke-width="0.5" points="393,-162.5 305,-162.5 305,-141.5 393,-141.5 393,-162.5"/>
<text text-anchor="middle" x="349" y="-149.5" font-family="Vera" font-size="10.00">Tkinter.Toplevel</text>
</g>
<!-- Tkinter.Toplevel&#45;&gt;paramtk.ScrolledWindow -->
<g id="edge8" class="edge"><title>Tkinter.Toplevel&#45;&gt;paramtk.ScrolledWindow</title>
<path fill="none" stroke="black" stroke-width="0.5" d="M393.755,-152C427.019,-152 473.106,-152 511.588,-152"/>
<polygon fill="black" stroke="black" points="511.724,-153.75 516.724,-152 511.724,-150.25 511.724,-153.75"/>
</g>
<!-- Tkinter.Misc -->
<g id="node12" class="node"><title>Tkinter.Misc</title>
<polygon fill="none" stroke="black" stroke-width="0.5" points="72,-134.5 2.84217e-14,-134.5 0,-113.5 72,-113.5 72,-134.5"/>
<text text-anchor="middle" x="36" y="-121.5" font-family="Vera" font-size="10.00">Tkinter.Misc</text>
</g>
<!-- Tkinter.BaseWidget -->
<g id="node31" class="node"><title>Tkinter.BaseWidget</title>
<polygon fill="none" stroke="black" stroke-width="0.5" points="215,-134.5 109,-134.5 109,-113.5 215,-113.5 215,-134.5"/>
<text text-anchor="middle" x="162" y="-121.5" font-family="Vera" font-size="10.00">Tkinter.BaseWidget</text>
</g>
<!-- Tkinter.Misc&#45;&gt;Tkinter.BaseWidget -->
<g id="edge24" class="edge"><title>Tkinter.Misc&#45;&gt;Tkinter.BaseWidget</title>
<path fill="none" stroke="black" stroke-width="0.5" d="M72.1065,-124C81.7306,-124 92.3855,-124 102.895,-124"/>
<polygon fill="black" stroke="black" points="103.038,-125.75 108.038,-124 103.038,-122.25 103.038,-125.75"/>
</g>
<!-- Tkinter.Menu -->
<g id="node13" class="node"><title>Tkinter.Menu</title>
<polygon fill="none" stroke="black" stroke-width="0.5" points="622,-67.5 546,-67.5 546,-46.5 622,-46.5 622,-67.5"/>
<text text-anchor="middle" x="584" y="-54.5" font-family="Vera" font-size="10.00">Tkinter.Menu</text>
</g>
<!-- paramtk.Menu -->
<g id="node23" class="node"><title>paramtk.Menu</title>
<polygon fill="none" stroke="black" stroke-width="0.5" points="846,-67.5 760,-67.5 760,-46.5 846,-46.5 846,-67.5"/>
<text text-anchor="middle" x="803" y="-54.5" font-family="Vera" font-size="10.00">paramtk.Menu</text>
</g>
<!-- Tkinter.Menu&#45;&gt;paramtk.Menu -->
<g id="edge20" class="edge"><title>Tkinter.Menu&#45;&gt;paramtk.Menu</title>
<path fill="none" stroke="black" stroke-width="0.5" d="M622.649,-57C659.432,-57 714.908,-57 754.613,-57"/>
<polygon fill="black" stroke="black" points="754.862,-58.7501 759.862,-57 754.862,-55.2501 754.862,-58.7501"/>
</g>
<!-- Tkinter.Widget -->
<g id="node14" class="node"><title>Tkinter.Widget</title>
<polygon fill="none" stroke="black" stroke-width="0.5" points="390,-67.5 308,-67.5 308,-46.5 390,-46.5 390,-67.5"/>
<text text-anchor="middle" x="349" y="-54.5" font-family="Vera" font-size="10.00">Tkinter.Widget</text>
</g>
<!-- Tkinter.Widget&#45;&gt;Tkinter.Menu -->
<g id="edge10" class="edge"><title>Tkinter.Widget&#45;&gt;Tkinter.Menu</title>
<path fill="none" stroke="black" stroke-width="0.5" d="M390.743,-57C432.821,-57 497.495,-57 540.269,-57"/>
<polygon fill="black" stroke="black" points="540.373,-58.7501 545.373,-57 540.373,-55.2501 540.373,-58.7501"/>
</g>
<!-- paramtk.tilewrapper.Widget -->
<g id="node18" class="node"><title>paramtk.tilewrapper.Widget</title>
<polygon fill="none" stroke="black" stroke-width="0.5" points="657,-105.5 511,-105.5 511,-84.5 657,-84.5 657,-105.5"/>
<text text-anchor="middle" x="584" y="-92.5" font-family="Vera" font-size="10.00">paramtk.tilewrapper.Widget</text>
</g>
<!-- Tkinter.Widget&#45;&gt;paramtk.tilewrapper.Widget -->
<g id="edge12" class="edge"><title>Tkinter.Widget&#45;&gt;paramtk.tilewrapper.Widget</title>
<path fill="none" stroke="black" stroke-width="0.5" d="M390.743,-63.7499C425.581,-69.3833 475.909,-77.5215 516.472,-84.0806"/>
<polygon fill="black" stroke="black" points="516.659,-85.8835 521.875,-84.9542 517.218,-82.4284 516.659,-85.8835"/>
</g>
<!-- Tkinter.Wm -->
<g id="node16" class="node"><title>Tkinter.Wm</title>
<polygon fill="none" stroke="black" stroke-width="0.5" points="196,-172.5 128,-172.5 128,-151.5 196,-151.5 196,-172.5"/>
<text text-anchor="middle" x="162" y="-159.5" font-family="Vera" font-size="10.00">Tkinter.Wm</text>
</g>
<!-- Tkinter.Wm&#45;&gt;Tkinter.Toplevel -->
<g id="edge36" class="edge"><title>Tkinter.Wm&#45;&gt;Tkinter.Toplevel</title>
<path fill="none" stroke="black" stroke-width="0.5" d="M196.735,-160.143C225.509,-158.604 266.771,-156.397 299.085,-154.669"/>
<polygon fill="black" stroke="black" points="299.292,-156.411 304.191,-154.396 299.105,-152.916 299.292,-156.411"/>
</g>
<!-- paramtk.tilewrapper.Style -->
<g id="node17" class="node"><title>paramtk.tilewrapper.Style</title>
<polygon fill="none" stroke="black" stroke-width="0.5" points="418,-105.5 280,-105.5 280,-84.5 418,-84.5 418,-105.5"/>
<text text-anchor="middle" x="349" y="-92.5" font-family="Vera" font-size="10.00">paramtk.tilewrapper.Style</text>
</g>
<!-- paramtk.tilewrapper.Style&#45;&gt;paramtk.tilewrapper.Widget -->
<g id="edge14" class="edge"><title>paramtk.tilewrapper.Style&#45;&gt;paramtk.tilewrapper.Widget</title>
<path fill="none" stroke="black" stroke-width="0.5" d="M418.554,-95C445.693,-95 476.951,-95 504.939,-95"/>
<polygon fill="black" stroke="black" points="505.125,-96.7501 510.125,-95 505.125,-93.2501 505.125,-96.7501"/>
</g>
<!-- paramtk.tilewrapper.Notebook -->
<g id="node40" class="node"><title>paramtk.tilewrapper.Notebook</title>
<polygon fill="none" stroke="black" stroke-width="0.5" points="883,-105.5 723,-105.5 723,-84.5 883,-84.5 883,-105.5"/>
<text text-anchor="middle" x="803" y="-92.5" font-family="Vera" font-size="10.00">paramtk.tilewrapper.Notebook</text>
</g>
<!-- paramtk.tilewrapper.Widget&#45;&gt;paramtk.tilewrapper.Notebook -->
<g id="edge40" class="edge"><title>paramtk.tilewrapper.Widget&#45;&gt;paramtk.tilewrapper.Notebook</title>
<path fill="none" stroke="black" stroke-width="0.5" d="M657.533,-95C676.582,-95 697.265,-95 716.896,-95"/>
<polygon fill="black" stroke="black" points="717.132,-96.7501 722.132,-95 717.132,-93.2501 717.132,-96.7501"/>
</g>
<!-- Tkinter.Pack -->
<g id="node21" class="node"><title>Tkinter.Pack</title>
<polygon fill="none" stroke="black" stroke-width="0.5" points="198,-96.5 126,-96.5 126,-75.5 198,-75.5 198,-96.5"/>
<text text-anchor="middle" x="162" y="-83.5" font-family="Vera" font-size="10.00">Tkinter.Pack</text>
</g>
<!-- Tkinter.Pack&#45;&gt;Tkinter.Widget -->
<g id="edge28" class="edge"><title>Tkinter.Pack&#45;&gt;Tkinter.Widget</title>
<path fill="none" stroke="black" stroke-width="0.5" d="M198.945,-80.2705C228.549,-75.6796 270.267,-69.2099 302.204,-64.2571"/>
<polygon fill="black" stroke="black" points="302.57,-65.9714 307.243,-63.4757 302.034,-62.5127 302.57,-65.9714"/>
</g>
<!-- topo.tkgui.topoconsole.ControllableMenu -->
<g id="node22" class="node"><title>topo.tkgui.topoconsole.ControllableMenu</title>
<polygon fill="none" stroke="black" stroke-width="0.5" points="1132,-67.5 920,-67.5 920,-46.5 1132,-46.5 1132,-67.5"/>
<text text-anchor="middle" x="1026" y="-54.5" font-family="Vera" font-size="10.00">topo.tkgui.topoconsole.ControllableMenu</text>
</g>
<!-- paramtk.Menu&#45;&gt;topo.tkgui.topoconsole.ControllableMenu -->
<g id="edge16" class="edge"><title>paramtk.Menu&#45;&gt;topo.tkgui.topoconsole.ControllableMenu</title>
<path fill="none" stroke="black" stroke-width="0.5" d="M846.261,-57C866.009,-57 890.396,-57 914.767,-57"/>
<polygon fill="black" stroke="black" points="914.965,-58.7501 919.965,-57 914.965,-55.2501 914.965,-58.7501"/>
</g>
<!-- Tkinter.Place -->
<g id="node25" class="node"><title>Tkinter.Place</title>
<polygon fill="none" stroke="black" stroke-width="0.5" points="200,-58.5 124,-58.5 124,-37.5 200,-37.5 200,-58.5"/>
<text text-anchor="middle" x="162" y="-45.5" font-family="Vera" font-size="10.00">Tkinter.Place</text>
</g>
<!-- Tkinter.Place&#45;&gt;Tkinter.Widget -->
<g id="edge30" class="edge"><title>Tkinter.Place&#45;&gt;Tkinter.Widget</title>
<path fill="none" stroke="black" stroke-width="0.5" d="M200.747,-49.8648C230.175,-51.2812 270.777,-53.2353 302.051,-54.7404"/>
<polygon fill="black" stroke="black" points="302.302,-56.5045 307.381,-54.9969 302.471,-53.0085 302.302,-56.5045"/>
</g>
<!-- Tkinter.Grid -->
<g id="node28" class="node"><title>Tkinter.Grid</title>
<polygon fill="none" stroke="black" stroke-width="0.5" points="197,-20.5 127,-20.5 127,0.5 197,0.5 197,-20.5"/>
<text text-anchor="middle" x="162" y="-7.5" font-family="Vera" font-size="10.00">Tkinter.Grid</text>
</g>
<!-- Tkinter.Grid&#45;&gt;Tkinter.Widget -->
<g id="edge32" class="edge"><title>Tkinter.Grid&#45;&gt;Tkinter.Widget</title>
<path fill="none" stroke="black" stroke-width="0.5" d="M197.613,-18.951C227.79,-26.5354 271.229,-37.4533 303.843,-45.6504"/>
<polygon fill="black" stroke="black" points="303.705,-47.42 308.981,-46.9417 304.558,-44.0256 303.705,-47.42"/>
</g>
<!-- Tkinter.BaseWidget&#45;&gt;Tkinter.Toplevel -->
<g id="edge34" class="edge"><title>Tkinter.BaseWidget&#45;&gt;Tkinter.Toplevel</title>
<path fill="none" stroke="black" stroke-width="0.5" d="M215.587,-132.024C241.894,-135.963 273.39,-140.679 299.173,-144.539"/>
<polygon fill="black" stroke="black" points="299.046,-146.29 304.25,-145.299 299.564,-142.828 299.046,-146.29"/>
</g>
<!-- Tkinter.BaseWidget&#45;&gt;Tkinter.Widget -->
<g id="edge26" class="edge"><title>Tkinter.BaseWidget&#45;&gt;Tkinter.Widget</title>
<path fill="none" stroke="black" stroke-width="0.5" d="M196.185,-113.953C202.937,-111.424 209.836,-108.434 216,-105 233.949,-95.002 233.374,-84.6726 252,-76 267.508,-68.7791 285.647,-64.3008 302.016,-61.5241"/>
<polygon fill="black" stroke="black" points="302.376,-63.2387 307.035,-60.7159 301.82,-59.7832 302.376,-63.2387"/>
</g>
<!-- topo.tkgui.topoconsole.DockManager -->
<g id="node42" class="node"><title>topo.tkgui.topoconsole.DockManager</title>
<polygon fill="none" stroke="black" stroke-width="0.5" points="1123,-105.5 929,-105.5 929,-84.5 1123,-84.5 1123,-105.5"/>
<text text-anchor="middle" x="1026" y="-92.5" font-family="Vera" font-size="10.00">topo.tkgui.topoconsole.DockManager</text>
</g>
<!-- paramtk.tilewrapper.Notebook&#45;&gt;topo.tkgui.topoconsole.DockManager -->
<g id="edge42" class="edge"><title>paramtk.tilewrapper.Notebook&#45;&gt;topo.tkgui.topoconsole.DockManager</title>
<path fill="none" stroke="black" stroke-width="0.5" d="M883.508,-95C896.394,-95 909.88,-95 923.2,-95"/>
<polygon fill="black" stroke="black" points="923.493,-96.7501 928.493,-95 923.493,-93.2501 923.493,-96.7501"/>
</g>
</g>
</svg>
