<?xml version="1.0" encoding="UTF-8" standalone="no"?>
<!DOCTYPE svg PUBLIC "-//W3C//DTD SVG 1.1//EN"
 "http://www.w3.org/Graphics/SVG/1.1/DTD/svg11.dtd">
<!-- Generated by graphviz version 2.26.3 (20100126.1600)
 -->
<!-- Title: inheritance775de93f23 Pages: 1 -->
<svg width="708pt" height="66pt"
 viewBox="0.00 0.00 708.00 66.00" xmlns="http://www.w3.org/2000/svg" xmlns:xlink="http://www.w3.org/1999/xlink">
<g id="graph1" class="graph" transform="scale(1 1) rotate(0) translate(4 62)">
<title>inheritance775de93f23</title>
<polygon fill="white" stroke="white" points="-4,5 -4,-62 705,-62 705,5 -4,5"/>
<!-- topo.transferfn.optimized.CFPOF_DivisiveNormalizeL1 -->
<g id="node1" class="node"><title>topo.transferfn.optimized.CFPOF_DivisiveNormalizeL1</title>
<polygon fill="none" stroke="black" stroke-width="0.5" points="689,-58.5 417,-58.5 417,-37.5 689,-37.5 689,-58.5"/>
<text text-anchor="middle" x="553" y="-45.5" font-family="Vera" font-size="10.00">topo.transferfn.optimized.CFPOF_DivisiveNormalizeL1</text>
</g>
<!-- topo.base.cf.CFPOutputFn -->
<g id="node2" class="node"><title>topo.base.cf.CFPOutputFn</title>
<polygon fill="none" stroke="black" stroke-width="0.5" points="370,-39.5 230,-39.5 230,-18.5 370,-18.5 370,-39.5"/>
<text text-anchor="middle" x="300" y="-26.5" font-family="Vera" font-size="10.00">topo.base.cf.CFPOutputFn</text>
</g>
<!-- topo.base.cf.CFPOutputFn&#45;&gt;topo.transferfn.optimized.CFPOF_DivisiveNormalizeL1 -->
<g id="edge2" class="edge"><title>topo.base.cf.CFPOutputFn&#45;&gt;topo.transferfn.optimized.CFPOF_DivisiveNormalizeL1</title>
<path fill="none" stroke="black" stroke-width="0.5" d="M370.139,-34.2673C384.066,-35.3132 399.138,-36.4452 414.448,-37.5949"/>
<polygon fill="black" stroke="black" points="414.531,-39.356 419.648,-37.9854 414.793,-35.8658 414.531,-39.356"/>
</g>
<!-- topo.transferfn.optimized.CFPOF_DivisiveNormalizeL1_opt -->
<g id="node4" class="node"><title>topo.transferfn.optimized.CFPOF_DivisiveNormalizeL1_opt</title>
<polygon fill="none" stroke="black" stroke-width="0.5" points="700,-20.5 406,-20.5 406,0.5 700,0.5 700,-20.5"/>
<text text-anchor="middle" x="553" y="-7.5" font-family="Vera" font-size="10.00">topo.transferfn.optimized.CFPOF_DivisiveNormalizeL1_opt</text>
</g>
<!-- topo.base.cf.CFPOutputFn&#45;&gt;topo.transferfn.optimized.CFPOF_DivisiveNormalizeL1_opt -->
<g id="edge4" class="edge"><title>topo.base.cf.CFPOutputFn&#45;&gt;topo.transferfn.optimized.CFPOF_DivisiveNormalizeL1_opt</title>
<path fill="none" stroke="black" stroke-width="0.5" d="M370.139,-23.7327C384.066,-22.6868 399.138,-21.5548 414.448,-20.4051"/>
<polygon fill="black" stroke="black" points="414.793,-22.1342 419.648,-20.0146 414.531,-18.644 414.793,-22.1342"/>
</g>
<!-- param.parameterized.Parameterized -->
<g id="node6" class="node"><title>param.parameterized.Parameterized</title>
<polygon fill="none" stroke="black" stroke-width="0.5" points="194,-39.5 5.68434e-14,-39.5 0,-18.5 194,-18.5 194,-39.5"/>
<text text-anchor="middle" x="97" y="-26.5" font-family="Vera" font-size="10.00">param.parameterized.Parameterized</text>
</g>
<!-- param.parameterized.Parameterized&#45;&gt;topo.base.cf.CFPOutputFn -->
<g id="edge6" class="edge"><title>param.parameterized.Parameterized&#45;&gt;topo.base.cf.CFPOutputFn</title>
<path fill="none" stroke="black" stroke-width="0.5" d="M194.041,-29C204.371,-29 214.762,-29 224.787,-29"/>
<polygon fill="black" stroke="black" points="224.993,-30.7501 229.993,-29 224.993,-27.2501 224.993,-30.7501"/>
</g>
</g>
</svg>
