<?xml version="1.0" encoding="UTF-8" standalone="no"?>
<!DOCTYPE svg PUBLIC "-//W3C//DTD SVG 1.1//EN"
 "http://www.w3.org/Graphics/SVG/1.1/DTD/svg11.dtd">
<!-- Generated by graphviz version 2.26.3 (20100126.1600)
 -->
<!-- Title: inheritance50788f43fb Pages: 1 -->
<svg width="910pt" height="218pt"
 viewBox="0.00 0.00 910.00 218.00" xmlns="http://www.w3.org/2000/svg" xmlns:xlink="http://www.w3.org/1999/xlink">
<g id="graph1" class="graph" transform="scale(1 1) rotate(0) translate(4 214)">
<title>inheritance50788f43fb</title>
<polygon fill="white" stroke="white" points="-4,5 -4,-214 907,-214 907,5 -4,5"/>
<!-- dataviews.operation.ViewOperation -->
<g id="node1" class="node"><title>dataviews.operation.ViewOperation</title>
<polygon fill="none" stroke="black" stroke-width="0.5" points="685,-115.5 501,-115.5 501,-94.5 685,-94.5 685,-115.5"/>
<text text-anchor="middle" x="593" y="-102.5" font-family="Vera" font-size="10.00">dataviews.operation.ViewOperation</text>
</g>
<!-- dataviews.operation.cmap2rgb -->
<g id="node4" class="node"><title>dataviews.operation.cmap2rgb</title>
<polygon fill="none" stroke="black" stroke-width="0.5" points="894,-210.5 730,-210.5 730,-189.5 894,-189.5 894,-210.5"/>
<text text-anchor="middle" x="812" y="-197.5" font-family="Vera" font-size="10.00">dataviews.operation.cmap2rgb</text>
</g>
<!-- dataviews.operation.ViewOperation&#45;&gt;dataviews.operation.cmap2rgb -->
<g id="edge4" class="edge"><title>dataviews.operation.ViewOperation&#45;&gt;dataviews.operation.cmap2rgb</title>
<path fill="none" stroke="black" stroke-width="0.5" d="M606.551,-115.016C629.253,-131.313 676.928,-163.506 722,-181 729.644,-183.967 737.842,-186.508 746.064,-188.674"/>
<polygon fill="black" stroke="black" points="745.905,-190.44 751.182,-189.976 746.767,-187.047 745.905,-190.44"/>
</g>
<!-- dataviews.operation.HCS -->
<g id="node7" class="node"><title>dataviews.operation.HCS</title>
<polygon fill="none" stroke="black" stroke-width="0.5" points="880,-172.5 744,-172.5 744,-151.5 880,-151.5 880,-172.5"/>
<text text-anchor="middle" x="812" y="-159.5" font-family="Vera" font-size="10.00">dataviews.operation.HCS</text>
</g>
<!-- dataviews.operation.ViewOperation&#45;&gt;dataviews.operation.HCS -->
<g id="edge6" class="edge"><title>dataviews.operation.ViewOperation&#45;&gt;dataviews.operation.HCS</title>
<path fill="none" stroke="black" stroke-width="0.5" d="M624.617,-115.068C650.616,-123.164 688.497,-134.543 722,-143 732.876,-145.745 744.56,-148.415 755.788,-150.843"/>
<polygon fill="black" stroke="black" points="755.655,-152.604 760.911,-151.941 756.389,-149.182 755.655,-152.604"/>
</g>
<!-- dataviews.operation.split -->
<g id="node9" class="node"><title>dataviews.operation.split</title>
<polygon fill="none" stroke="black" stroke-width="0.5" points="879,-134.5 745,-134.5 745,-113.5 879,-113.5 879,-134.5"/>
<text text-anchor="middle" x="812" y="-121.5" font-family="Vera" font-size="10.00">dataviews.operation.split</text>
</g>
<!-- dataviews.operation.ViewOperation&#45;&gt;dataviews.operation.split -->
<g id="edge8" class="edge"><title>dataviews.operation.ViewOperation&#45;&gt;dataviews.operation.split</title>
<path fill="none" stroke="black" stroke-width="0.5" d="M685.558,-113.03C703.438,-114.581 721.934,-116.186 739.079,-117.674"/>
<polygon fill="black" stroke="black" points="739.222,-119.442 744.355,-118.131 739.525,-115.956 739.222,-119.442"/>
</g>
<!-- dataviews.operation.AlphaOverlay -->
<g id="node11" class="node"><title>dataviews.operation.AlphaOverlay</title>
<polygon fill="none" stroke="black" stroke-width="0.5" points="901,-96.5 723,-96.5 723,-75.5 901,-75.5 901,-96.5"/>
<text text-anchor="middle" x="812" y="-83.5" font-family="Vera" font-size="10.00">dataviews.operation.AlphaOverlay</text>
</g>
<!-- dataviews.operation.ViewOperation&#45;&gt;dataviews.operation.AlphaOverlay -->
<g id="edge10" class="edge"><title>dataviews.operation.ViewOperation&#45;&gt;dataviews.operation.AlphaOverlay</title>
<path fill="none" stroke="black" stroke-width="0.5" d="M685.558,-96.9698C695.992,-96.0646 706.636,-95.1412 717.098,-94.2335"/>
<polygon fill="black" stroke="black" points="717.388,-95.965 722.218,-93.7893 717.086,-92.4781 717.388,-95.965"/>
</g>
<!-- dataviews.operation.Colorize -->
<g id="node13" class="node"><title>dataviews.operation.Colorize</title>
<polygon fill="none" stroke="black" stroke-width="0.5" points="889,-58.5 735,-58.5 735,-37.5 889,-37.5 889,-58.5"/>
<text text-anchor="middle" x="812" y="-45.5" font-family="Vera" font-size="10.00">dataviews.operation.Colorize</text>
</g>
<!-- dataviews.operation.ViewOperation&#45;&gt;dataviews.operation.Colorize -->
<g id="edge12" class="edge"><title>dataviews.operation.ViewOperation&#45;&gt;dataviews.operation.Colorize</title>
<path fill="none" stroke="black" stroke-width="0.5" d="M624.617,-94.9325C650.616,-86.8364 688.497,-75.4572 722,-67 732.876,-64.2546 744.56,-61.5853 755.788,-59.1571"/>
<polygon fill="black" stroke="black" points="756.389,-60.8182 760.911,-58.059 755.655,-57.3959 756.389,-60.8182"/>
</g>
<!-- dataviews.operation.RGBA -->
<g id="node15" class="node"><title>dataviews.operation.RGBA</title>
<polygon fill="none" stroke="black" stroke-width="0.5" points="883,-20.5 741,-20.5 741,0.5 883,0.5 883,-20.5"/>
<text text-anchor="middle" x="812" y="-7.5" font-family="Vera" font-size="10.00">dataviews.operation.RGBA</text>
</g>
<!-- dataviews.operation.ViewOperation&#45;&gt;dataviews.operation.RGBA -->
<g id="edge14" class="edge"><title>dataviews.operation.ViewOperation&#45;&gt;dataviews.operation.RGBA</title>
<path fill="none" stroke="black" stroke-width="0.5" d="M606.551,-94.9843C629.253,-78.6868 676.928,-46.4937 722,-29 729.644,-26.0333 737.842,-23.4923 746.064,-21.3256"/>
<polygon fill="black" stroke="black" points="746.767,-22.9525 751.182,-20.0245 745.905,-19.5604 746.767,-22.9525"/>
</g>
<!-- param.parameterized.ParameterizedFunction -->
<g id="node2" class="node"><title>param.parameterized.ParameterizedFunction</title>
<polygon fill="none" stroke="black" stroke-width="0.5" points="464,-115.5 230,-115.5 230,-94.5 464,-94.5 464,-115.5"/>
<text text-anchor="middle" x="347" y="-102.5" font-family="Vera" font-size="10.00">param.parameterized.ParameterizedFunction</text>
</g>
<!-- param.parameterized.ParameterizedFunction&#45;&gt;dataviews.operation.ViewOperation -->
<g id="edge2" class="edge"><title>param.parameterized.ParameterizedFunction&#45;&gt;dataviews.operation.ViewOperation</title>
<path fill="none" stroke="black" stroke-width="0.5" d="M464.236,-105C474.658,-105 485.136,-105 495.368,-105"/>
<polygon fill="black" stroke="black" points="495.37,-106.75 500.37,-105 495.37,-103.25 495.37,-106.75"/>
</g>
<!-- param.parameterized.Parameterized -->
<g id="node6" class="node"><title>param.parameterized.Parameterized</title>
<polygon fill="none" stroke="black" stroke-width="0.5" points="194,-115.5 5.68434e-14,-115.5 0,-94.5 194,-94.5 194,-115.5"/>
<text text-anchor="middle" x="97" y="-102.5" font-family="Vera" font-size="10.00">param.parameterized.Parameterized</text>
</g>
<!-- param.parameterized.Parameterized&#45;&gt;param.parameterized.ParameterizedFunction -->
<g id="edge16" class="edge"><title>param.parameterized.Parameterized&#45;&gt;param.parameterized.ParameterizedFunction</title>
<path fill="none" stroke="black" stroke-width="0.5" d="M194.014,-105C204.04,-105 214.319,-105 224.575,-105"/>
<polygon fill="black" stroke="black" points="224.607,-106.75 229.607,-105 224.607,-103.25 224.607,-106.75"/>
</g>
</g>
</svg>
