<?xml version="1.0" encoding="UTF-8" standalone="no"?>
<!DOCTYPE svg PUBLIC "-//W3C//DTD SVG 1.1//EN"
 "http://www.w3.org/Graphics/SVG/1.1/DTD/svg11.dtd">
<!-- Generated by graphviz version 2.26.3 (20100126.1600)
 -->
<!-- Title: inheritance3835fd925f Pages: 1 -->
<svg width="538pt" height="142pt"
 viewBox="0.00 0.00 538.00 142.00" xmlns="http://www.w3.org/2000/svg" xmlns:xlink="http://www.w3.org/1999/xlink">
<g id="graph1" class="graph" transform="scale(1 1) rotate(0) translate(4 138)">
<title>inheritance3835fd925f</title>
<polygon fill="white" stroke="white" points="-4,5 -4,-138 535,-138 535,5 -4,5"/>
<!-- param.parameterized.Parameterized -->
<g id="node1" class="node"><title>param.parameterized.Parameterized</title>
<polygon fill="none" stroke="black" stroke-width="0.5" points="230,-58.5 36,-58.5 36,-37.5 230,-37.5 230,-58.5"/>
<text text-anchor="middle" x="133" y="-45.5" font-family="Vera" font-size="10.00">param.parameterized.Parameterized</text>
</g>
<!-- topo.misc.commandline.GlobalParams -->
<g id="node10" class="node"><title>topo.misc.commandline.GlobalParams</title>
<polygon fill="none" stroke="black" stroke-width="0.5" points="516,-20.5 316,-20.5 316,0.5 516,0.5 516,-20.5"/>
<text text-anchor="middle" x="416" y="-7.5" font-family="Vera" font-size="10.00">topo.misc.commandline.GlobalParams</text>
</g>
<!-- param.parameterized.Parameterized&#45;&gt;topo.misc.commandline.GlobalParams -->
<g id="edge8" class="edge"><title>param.parameterized.Parameterized&#45;&gt;topo.misc.commandline.GlobalParams</title>
<path fill="none" stroke="black" stroke-width="0.5" d="M207.725,-37.9662C247.219,-32.6631 295.718,-26.1509 335.976,-20.7453"/>
<polygon fill="black" stroke="black" points="336.625,-22.424 341.347,-20.024 336.159,-18.9551 336.625,-22.424"/>
</g>
<!-- topo.misc.commandline.OutputPrompt -->
<g id="node2" class="node"><title>topo.misc.commandline.OutputPrompt</title>
<polygon fill="none" stroke="black" stroke-width="0.5" points="517,-134.5 315,-134.5 315,-113.5 517,-113.5 517,-134.5"/>
<text text-anchor="middle" x="416" y="-121.5" font-family="Vera" font-size="10.00">topo.misc.commandline.OutputPrompt</text>
</g>
<!-- topo.misc.commandline.IPCommandPromptHandler -->
<g id="node3" class="node"><title>topo.misc.commandline.IPCommandPromptHandler</title>
<polygon fill="none" stroke="black" stroke-width="0.5" points="266,-96.5 1.42109e-13,-96.5 0,-75.5 266,-75.5 266,-96.5"/>
<text text-anchor="middle" x="133" y="-83.5" font-family="Vera" font-size="10.00">topo.misc.commandline.IPCommandPromptHandler</text>
</g>
<!-- topo.misc.commandline.IPCommandPromptHandler&#45;&gt;topo.misc.commandline.OutputPrompt -->
<g id="edge2" class="edge"><title>topo.misc.commandline.IPCommandPromptHandler&#45;&gt;topo.misc.commandline.OutputPrompt</title>
<path fill="none" stroke="black" stroke-width="0.5" d="M207.725,-96.0338C247.219,-101.337 295.718,-107.849 335.976,-113.255"/>
<polygon fill="black" stroke="black" points="336.159,-115.045 341.347,-113.976 336.625,-111.576 336.159,-115.045"/>
</g>
<!-- topo.misc.commandline.CommandPrompt2 -->
<g id="node5" class="node"><title>topo.misc.commandline.CommandPrompt2</title>
<polygon fill="none" stroke="black" stroke-width="0.5" points="529,-96.5 303,-96.5 303,-75.5 529,-75.5 529,-96.5"/>
<text text-anchor="middle" x="416" y="-83.5" font-family="Vera" font-size="10.00">topo.misc.commandline.CommandPrompt2</text>
</g>
<!-- topo.misc.commandline.IPCommandPromptHandler&#45;&gt;topo.misc.commandline.CommandPrompt2 -->
<g id="edge4" class="edge"><title>topo.misc.commandline.IPCommandPromptHandler&#45;&gt;topo.misc.commandline.CommandPrompt2</title>
<path fill="none" stroke="black" stroke-width="0.5" d="M266.213,-86C276.562,-86 286.97,-86 297.216,-86"/>
<polygon fill="black" stroke="black" points="297.231,-87.7501 302.231,-86 297.231,-84.2501 297.231,-87.7501"/>
</g>
<!-- topo.misc.commandline.CommandPrompt -->
<g id="node7" class="node"><title>topo.misc.commandline.CommandPrompt</title>
<polygon fill="none" stroke="black" stroke-width="0.5" points="526,-58.5 306,-58.5 306,-37.5 526,-37.5 526,-58.5"/>
<text text-anchor="middle" x="416" y="-45.5" font-family="Vera" font-size="10.00">topo.misc.commandline.CommandPrompt</text>
</g>
<!-- topo.misc.commandline.IPCommandPromptHandler&#45;&gt;topo.misc.commandline.CommandPrompt -->
<g id="edge6" class="edge"><title>topo.misc.commandline.IPCommandPromptHandler&#45;&gt;topo.misc.commandline.CommandPrompt</title>
<path fill="none" stroke="black" stroke-width="0.5" d="M207.725,-75.9662C247.219,-70.6631 295.718,-64.1509 335.976,-58.7453"/>
<polygon fill="black" stroke="black" points="336.625,-60.424 341.347,-58.024 336.159,-56.9551 336.625,-60.424"/>
</g>
<!-- topo.base.simulation.OptionalSingleton -->
<g id="node9" class="node"><title>topo.base.simulation.OptionalSingleton</title>
<polygon fill="none" stroke="black" stroke-width="0.5" points="235,-20.5 31,-20.5 31,0.5 235,0.5 235,-20.5"/>
<text text-anchor="middle" x="133" y="-7.5" font-family="Vera" font-size="10.00">topo.base.simulation.OptionalSingleton</text>
</g>
<!-- topo.base.simulation.OptionalSingleton&#45;&gt;topo.misc.commandline.GlobalParams -->
<g id="edge10" class="edge"><title>topo.base.simulation.OptionalSingleton&#45;&gt;topo.misc.commandline.GlobalParams</title>
<path fill="none" stroke="black" stroke-width="0.5" d="M235.57,-10C259.789,-10 285.658,-10 310.025,-10"/>
<polygon fill="black" stroke="black" points="310.201,-11.7501 315.2,-10 310.2,-8.2501 310.201,-11.7501"/>
</g>
</g>
</svg>
