<?xml version="1.0" encoding="UTF-8" standalone="no"?>
<!DOCTYPE svg PUBLIC "-//W3C//DTD SVG 1.1//EN"
 "http://www.w3.org/Graphics/SVG/1.1/DTD/svg11.dtd">
<!-- Generated by graphviz version 2.26.3 (20100126.1600)
 -->
<!-- Title: inheritance8744d36cfd Pages: 1 -->
<svg width="588pt" height="104pt"
 viewBox="0.00 0.00 588.00 104.00" xmlns="http://www.w3.org/2000/svg" xmlns:xlink="http://www.w3.org/1999/xlink">
<g id="graph1" class="graph" transform="scale(1 1) rotate(0) translate(4 100)">
<title>inheritance8744d36cfd</title>
<polygon fill="white" stroke="white" points="-4,5 -4,-100 585,-100 585,5 -4,5"/>
<!-- lancet.launch.QLauncher -->
<g id="node1" class="node"><title>lancet.launch.QLauncher</title>
<polygon fill="none" stroke="black" stroke-width="0.5" points="579,-96.5 445,-96.5 445,-75.5 579,-75.5 579,-96.5"/>
<text text-anchor="middle" x="512" y="-83.5" font-family="Vera" font-size="10.00">lancet.launch.QLauncher</text>
</g>
<!-- lancet.launch.Launcher -->
<g id="node2" class="node"><title>lancet.launch.Launcher</title>
<polygon fill="none" stroke="black" stroke-width="0.5" points="383,-96.5 255,-96.5 255,-75.5 383,-75.5 383,-96.5"/>
<text text-anchor="middle" x="319" y="-83.5" font-family="Vera" font-size="10.00">lancet.launch.Launcher</text>
</g>
<!-- lancet.launch.Launcher&#45;&gt;lancet.launch.QLauncher -->
<g id="edge2" class="edge"><title>lancet.launch.Launcher&#45;&gt;lancet.launch.QLauncher</title>
<path fill="none" stroke="black" stroke-width="0.5" d="M383.266,-86C401.208,-86 420.829,-86 439.224,-86"/>
<polygon fill="black" stroke="black" points="439.377,-87.7501 444.377,-86 439.377,-84.2501 439.377,-87.7501"/>
</g>
<!-- lancet.launch.CommandTemplate -->
<g id="node4" class="node"><title>lancet.launch.CommandTemplate</title>
<polygon fill="none" stroke="black" stroke-width="0.5" points="407,-58.5 231,-58.5 231,-37.5 407,-37.5 407,-58.5"/>
<text text-anchor="middle" x="319" y="-45.5" font-family="Vera" font-size="10.00">lancet.launch.CommandTemplate</text>
</g>
<!-- param.parameterized.Parameterized -->
<g id="node5" class="node"><title>param.parameterized.Parameterized</title>
<polygon fill="none" stroke="black" stroke-width="0.5" points="194,-58.5 5.68434e-14,-58.5 0,-37.5 194,-37.5 194,-58.5"/>
<text text-anchor="middle" x="97" y="-45.5" font-family="Vera" font-size="10.00">param.parameterized.Parameterized</text>
</g>
<!-- param.parameterized.Parameterized&#45;&gt;lancet.launch.Launcher -->
<g id="edge6" class="edge"><title>param.parameterized.Parameterized&#45;&gt;lancet.launch.Launcher</title>
<path fill="none" stroke="black" stroke-width="0.5" d="M155.618,-58.0338C186.347,-63.2936 224.024,-69.7429 255.45,-75.1221"/>
<polygon fill="black" stroke="black" points="255.215,-76.8572 260.438,-75.976 255.805,-73.4074 255.215,-76.8572"/>
</g>
<!-- param.parameterized.Parameterized&#45;&gt;lancet.launch.CommandTemplate -->
<g id="edge4" class="edge"><title>param.parameterized.Parameterized&#45;&gt;lancet.launch.CommandTemplate</title>
<path fill="none" stroke="black" stroke-width="0.5" d="M194.049,-48C204.377,-48 214.868,-48 225.158,-48"/>
<polygon fill="black" stroke="black" points="225.191,-49.7501 230.191,-48 225.191,-46.2501 225.191,-49.7501"/>
</g>
<!-- lancet.launch.review_and_launch -->
<g id="node8" class="node"><title>lancet.launch.review_and_launch</title>
<polygon fill="none" stroke="black" stroke-width="0.5" points="405,-20.5 233,-20.5 233,0.5 405,0.5 405,-20.5"/>
<text text-anchor="middle" x="319" y="-7.5" font-family="Vera" font-size="10.00">lancet.launch.review_and_launch</text>
</g>
<!-- param.parameterized.Parameterized&#45;&gt;lancet.launch.review_and_launch -->
<g id="edge8" class="edge"><title>param.parameterized.Parameterized&#45;&gt;lancet.launch.review_and_launch</title>
<path fill="none" stroke="black" stroke-width="0.5" d="M155.618,-37.9662C186.347,-32.7064 224.024,-26.2571 255.45,-20.8779"/>
<polygon fill="black" stroke="black" points="255.805,-22.5926 260.438,-20.024 255.215,-19.1428 255.805,-22.5926"/>
</g>
</g>
</svg>
