<?xml version="1.0" encoding="UTF-8" standalone="no"?>
<!DOCTYPE svg PUBLIC "-//W3C//DTD SVG 1.1//EN"
 "http://www.w3.org/Graphics/SVG/1.1/DTD/svg11.dtd">
<!-- Generated by graphviz version 2.26.3 (20100126.1600)
 -->
<!-- Title: inheritance0bce68b9cf Pages: 1 -->
<svg width="1432pt" height="142pt"
 viewBox="0.00 0.00 1432.00 142.00" xmlns="http://www.w3.org/2000/svg" xmlns:xlink="http://www.w3.org/1999/xlink">
<g id="graph1" class="graph" transform="scale(1 1) rotate(0) translate(4 138)">
<title>inheritance0bce68b9cf</title>
<polygon fill="white" stroke="white" points="-4,5 -4,-138 1429,-138 1429,5 -4,5"/>
<!-- topo.command.analysis.ProjectionSheetMeasurementCommand -->
<g id="node1" class="node"><title>topo.command.analysis.ProjectionSheetMeasurementCommand</title>
<polygon fill="none" stroke="black" stroke-width="0.5" points="827,-96.5 501,-96.5 501,-75.5 827,-75.5 827,-96.5"/>
<text text-anchor="middle" x="664" y="-83.5" font-family="Vera" font-size="10.00">topo.command.analysis.ProjectionSheetMeasurementCommand</text>
</g>
<!-- topo.command.analysis.UnitMeasurementCommand -->
<g id="node7" class="node"><title>topo.command.analysis.UnitMeasurementCommand</title>
<polygon fill="none" stroke="black" stroke-width="0.5" points="1135,-115.5 865,-115.5 865,-94.5 1135,-94.5 1135,-115.5"/>
<text text-anchor="middle" x="1000" y="-102.5" font-family="Vera" font-size="10.00">topo.command.analysis.UnitMeasurementCommand</text>
</g>
<!-- topo.command.analysis.ProjectionSheetMeasurementCommand&#45;&gt;topo.command.analysis.UnitMeasurementCommand -->
<g id="edge8" class="edge"><title>topo.command.analysis.ProjectionSheetMeasurementCommand&#45;&gt;topo.command.analysis.UnitMeasurementCommand</title>
<path fill="none" stroke="black" stroke-width="0.5" d="M827.571,-95.2495C838.184,-95.8497 848.821,-96.4512 859.312,-97.0444"/>
<polygon fill="black" stroke="black" points="859.359,-98.7998 864.45,-97.335 859.557,-95.3054 859.359,-98.7998"/>
</g>
<!-- topo.command.analysis.update_projectionactivity -->
<g id="node10" class="node"><title>topo.command.analysis.update_projectionactivity</title>
<polygon fill="none" stroke="black" stroke-width="0.5" points="1127,-77.5 873,-77.5 873,-56.5 1127,-56.5 1127,-77.5"/>
<text text-anchor="middle" x="1000" y="-64.5" font-family="Vera" font-size="10.00">topo.command.analysis.update_projectionactivity</text>
</g>
<!-- topo.command.analysis.ProjectionSheetMeasurementCommand&#45;&gt;topo.command.analysis.update_projectionactivity -->
<g id="edge10" class="edge"><title>topo.command.analysis.ProjectionSheetMeasurementCommand&#45;&gt;topo.command.analysis.update_projectionactivity</title>
<path fill="none" stroke="black" stroke-width="0.5" d="M827.571,-76.7505C840.978,-75.9923 854.424,-75.232 867.565,-74.4889"/>
<polygon fill="black" stroke="black" points="867.888,-76.2235 872.781,-74.1939 867.69,-72.7291 867.888,-76.2235"/>
</g>
<!-- param.parameterized.ParameterizedFunction -->
<g id="node2" class="node"><title>param.parameterized.ParameterizedFunction</title>
<polygon fill="none" stroke="black" stroke-width="0.5" points="464,-58.5 230,-58.5 230,-37.5 464,-37.5 464,-58.5"/>
<text text-anchor="middle" x="347" y="-45.5" font-family="Vera" font-size="10.00">param.parameterized.ParameterizedFunction</text>
</g>
<!-- param.parameterized.ParameterizedFunction&#45;&gt;topo.command.analysis.ProjectionSheetMeasurementCommand -->
<g id="edge2" class="edge"><title>param.parameterized.ParameterizedFunction&#45;&gt;topo.command.analysis.ProjectionSheetMeasurementCommand</title>
<path fill="none" stroke="black" stroke-width="0.5" d="M426.79,-58.0343C450.36,-60.9644 476.215,-64.1454 500,-67 523.018,-69.7625 547.862,-72.6761 571.08,-75.3694"/>
<polygon fill="black" stroke="black" points="571.151,-77.1392 576.319,-75.9766 571.554,-73.6625 571.151,-77.1392"/>
</g>
<!-- topo.command.analysis.measure_cog -->
<g id="node4" class="node"><title>topo.command.analysis.measure_cog</title>
<polygon fill="none" stroke="black" stroke-width="0.5" points="764,-58.5 564,-58.5 564,-37.5 764,-37.5 764,-58.5"/>
<text text-anchor="middle" x="664" y="-45.5" font-family="Vera" font-size="10.00">topo.command.analysis.measure_cog</text>
</g>
<!-- param.parameterized.ParameterizedFunction&#45;&gt;topo.command.analysis.measure_cog -->
<g id="edge4" class="edge"><title>param.parameterized.ParameterizedFunction&#45;&gt;topo.command.analysis.measure_cog</title>
<path fill="none" stroke="black" stroke-width="0.5" d="M464.138,-48C495.066,-48 528.252,-48 558.523,-48"/>
<polygon fill="black" stroke="black" points="558.746,-49.7501 563.746,-48 558.746,-46.2501 558.746,-49.7501"/>
</g>
<!-- topo.command.analysis.measure_projection -->
<g id="node16" class="node"><title>topo.command.analysis.measure_projection</title>
<polygon fill="none" stroke="black" stroke-width="0.5" points="779,-20.5 549,-20.5 549,0.5 779,0.5 779,-20.5"/>
<text text-anchor="middle" x="664" y="-7.5" font-family="Vera" font-size="10.00">topo.command.analysis.measure_projection</text>
</g>
<!-- param.parameterized.ParameterizedFunction&#45;&gt;topo.command.analysis.measure_projection -->
<g id="edge16" class="edge"><title>param.parameterized.ParameterizedFunction&#45;&gt;topo.command.analysis.measure_projection</title>
<path fill="none" stroke="black" stroke-width="0.5" d="M426.79,-37.9657C450.36,-35.0356 476.215,-31.8546 500,-29 523.018,-26.2375 547.862,-23.3239 571.08,-20.6306"/>
<polygon fill="black" stroke="black" points="571.554,-22.3375 576.319,-20.0234 571.151,-18.8608 571.554,-22.3375"/>
</g>
<!-- topo.command.analysis.update_connectionfields -->
<g id="node6" class="node"><title>topo.command.analysis.update_connectionfields</title>
<polygon fill="none" stroke="black" stroke-width="0.5" points="1423,-134.5 1173,-134.5 1173,-113.5 1423,-113.5 1423,-134.5"/>
<text text-anchor="middle" x="1298" y="-121.5" font-family="Vera" font-size="10.00">topo.command.analysis.update_connectionfields</text>
</g>
<!-- topo.command.analysis.UnitMeasurementCommand&#45;&gt;topo.command.analysis.update_connectionfields -->
<g id="edge6" class="edge"><title>topo.command.analysis.UnitMeasurementCommand&#45;&gt;topo.command.analysis.update_connectionfields</title>
<path fill="none" stroke="black" stroke-width="0.5" d="M1135.92,-113.666C1146.34,-114.33 1156.85,-115 1167.24,-115.663"/>
<polygon fill="black" stroke="black" points="1167.22,-117.415 1172.32,-115.987 1167.45,-113.922 1167.22,-117.415"/>
</g>
<!-- topo.command.analysis.update_projection -->
<g id="node14" class="node"><title>topo.command.analysis.update_projection</title>
<polygon fill="none" stroke="black" stroke-width="0.5" points="1408,-96.5 1188,-96.5 1188,-75.5 1408,-75.5 1408,-96.5"/>
<text text-anchor="middle" x="1298" y="-83.5" font-family="Vera" font-size="10.00">topo.command.analysis.update_projection</text>
</g>
<!-- topo.command.analysis.UnitMeasurementCommand&#45;&gt;topo.command.analysis.update_projection -->
<g id="edge14" class="edge"><title>topo.command.analysis.UnitMeasurementCommand&#45;&gt;topo.command.analysis.update_projection</title>
<path fill="none" stroke="black" stroke-width="0.5" d="M1135.92,-96.334C1151.37,-95.3492 1167,-94.3523 1182.15,-93.3861"/>
<polygon fill="black" stroke="black" points="1182.4,-95.1244 1187.27,-93.0597 1182.17,-91.6315 1182.4,-95.1244"/>
</g>
<!-- param.parameterized.Parameterized -->
<g id="node12" class="node"><title>param.parameterized.Parameterized</title>
<polygon fill="none" stroke="black" stroke-width="0.5" points="194,-58.5 5.68434e-14,-58.5 0,-37.5 194,-37.5 194,-58.5"/>
<text text-anchor="middle" x="97" y="-45.5" font-family="Vera" font-size="10.00">param.parameterized.Parameterized</text>
</g>
<!-- param.parameterized.Parameterized&#45;&gt;param.parameterized.ParameterizedFunction -->
<g id="edge12" class="edge"><title>param.parameterized.Parameterized&#45;&gt;param.parameterized.ParameterizedFunction</title>
<path fill="none" stroke="black" stroke-width="0.5" d="M194.014,-48C204.04,-48 214.319,-48 224.575,-48"/>
<polygon fill="black" stroke="black" points="224.607,-49.7501 229.607,-48 224.607,-46.2501 224.607,-49.7501"/>
</g>
</g>
</svg>
