<?xml version="1.0" encoding="UTF-8" standalone="no"?>
<!DOCTYPE svg PUBLIC "-//W3C//DTD SVG 1.1//EN"
 "http://www.w3.org/Graphics/SVG/1.1/DTD/svg11.dtd">
<!-- Generated by graphviz version 2.26.3 (20100126.1600)
 -->
<!-- Title: inheritancee1aac473e9 Pages: 1 -->
<svg width="1098pt" height="66pt"
 viewBox="0.00 0.00 1098.00 66.00" xmlns="http://www.w3.org/2000/svg" xmlns:xlink="http://www.w3.org/1999/xlink">
<g id="graph1" class="graph" transform="scale(1 1) rotate(0) translate(4 62)">
<title>inheritancee1aac473e9</title>
<polygon fill="white" stroke="white" points="-4,5 -4,-62 1095,-62 1095,5 -4,5"/>
<!-- param.parameterized.Parameterized -->
<g id="node1" class="node"><title>param.parameterized.Parameterized</title>
<polygon fill="none" stroke="black" stroke-width="0.5" points="194,-58.5 5.68434e-14,-58.5 0,-37.5 194,-37.5 194,-58.5"/>
<text text-anchor="middle" x="97" y="-45.5" font-family="Vera" font-size="10.00">param.parameterized.Parameterized</text>
</g>
<!-- topo.base.simulation.EventProcessor -->
<g id="node10" class="node"><title>topo.base.simulation.EventProcessor</title>
<polygon fill="none" stroke="black" stroke-width="0.5" points="451,-58.5 257,-58.5 257,-37.5 451,-37.5 451,-58.5"/>
<text text-anchor="middle" x="354" y="-45.5" font-family="Vera" font-size="10.00">topo.base.simulation.EventProcessor</text>
</g>
<!-- param.parameterized.Parameterized&#45;&gt;topo.base.simulation.EventProcessor -->
<g id="edge8" class="edge"><title>param.parameterized.Parameterized&#45;&gt;topo.base.simulation.EventProcessor</title>
<path fill="none" stroke="black" stroke-width="0.5" d="M194.161,-48C212.87,-48 232.524,-48 251.4,-48"/>
<polygon fill="black" stroke="black" points="251.702,-49.7501 256.702,-48 251.702,-46.2501 251.702,-49.7501"/>
</g>
<!-- topo.sheet.ptztracker.PtzTracker -->
<g id="node2" class="node"><title>topo.sheet.ptztracker.PtzTracker</title>
<polygon fill="none" stroke="black" stroke-width="0.5" points="847,-39.5 677,-39.5 677,-18.5 847,-18.5 847,-39.5"/>
<text text-anchor="middle" x="762" y="-26.5" font-family="Vera" font-size="10.00">topo.sheet.ptztracker.PtzTracker</text>
</g>
<!-- topo.sheet.ptztracker.FaceTracker -->
<g id="node5" class="node"><title>topo.sheet.ptztracker.FaceTracker</title>
<polygon fill="none" stroke="black" stroke-width="0.5" points="1076,-58.5 898,-58.5 898,-37.5 1076,-37.5 1076,-58.5"/>
<text text-anchor="middle" x="987" y="-45.5" font-family="Vera" font-size="10.00">topo.sheet.ptztracker.FaceTracker</text>
</g>
<!-- topo.sheet.ptztracker.PtzTracker&#45;&gt;topo.sheet.ptztracker.FaceTracker -->
<g id="edge4" class="edge"><title>topo.sheet.ptztracker.PtzTracker&#45;&gt;topo.sheet.ptztracker.FaceTracker</title>
<path fill="none" stroke="black" stroke-width="0.5" d="M847.705,-36.2373C862.433,-37.481 877.811,-38.7796 892.749,-40.041"/>
<polygon fill="black" stroke="black" points="892.667,-41.7902 897.796,-40.4672 892.961,-38.3026 892.667,-41.7902"/>
</g>
<!-- topo.sheet.ptztracker.BrightPixelTracker -->
<g id="node7" class="node"><title>topo.sheet.ptztracker.BrightPixelTracker</title>
<polygon fill="none" stroke="black" stroke-width="0.5" points="1090,-20.5 884,-20.5 884,0.5 1090,0.5 1090,-20.5"/>
<text text-anchor="middle" x="987" y="-7.5" font-family="Vera" font-size="10.00">topo.sheet.ptztracker.BrightPixelTracker</text>
</g>
<!-- topo.sheet.ptztracker.PtzTracker&#45;&gt;topo.sheet.ptztracker.BrightPixelTracker -->
<g id="edge6" class="edge"><title>topo.sheet.ptztracker.PtzTracker&#45;&gt;topo.sheet.ptztracker.BrightPixelTracker</title>
<path fill="none" stroke="black" stroke-width="0.5" d="M847.705,-21.7627C857.844,-20.9065 868.291,-20.0243 878.69,-19.1462"/>
<polygon fill="black" stroke="black" points="878.955,-20.8801 883.79,-18.7155 878.66,-17.3925 878.955,-20.8801"/>
</g>
<!-- topo.base.sheet.Sheet -->
<g id="node3" class="node"><title>topo.base.sheet.Sheet</title>
<polygon fill="none" stroke="black" stroke-width="0.5" points="640,-39.5 514,-39.5 514,-18.5 640,-18.5 640,-39.5"/>
<text text-anchor="middle" x="577" y="-26.5" font-family="Vera" font-size="10.00">topo.base.sheet.Sheet</text>
</g>
<!-- topo.base.sheet.Sheet&#45;&gt;topo.sheet.ptztracker.PtzTracker -->
<g id="edge2" class="edge"><title>topo.base.sheet.Sheet&#45;&gt;topo.sheet.ptztracker.PtzTracker</title>
<path fill="none" stroke="black" stroke-width="0.5" d="M640.149,-29C650.134,-29 660.628,-29 671.095,-29"/>
<polygon fill="black" stroke="black" points="671.228,-30.7501 676.228,-29 671.228,-27.2501 671.228,-30.7501"/>
</g>
<!-- dataviews.sheetcoords.SheetCoordinateSystem -->
<g id="node9" class="node"><title>dataviews.sheetcoords.SheetCoordinateSystem</title>
<polygon fill="none" stroke="black" stroke-width="0.5" points="477,-20.5 231,-20.5 231,0.5 477,0.5 477,-20.5"/>
<text text-anchor="middle" x="354" y="-7.5" font-family="Vera" font-size="10.00">dataviews.sheetcoords.SheetCoordinateSystem</text>
</g>
<!-- dataviews.sheetcoords.SheetCoordinateSystem&#45;&gt;topo.base.sheet.Sheet -->
<g id="edge12" class="edge"><title>dataviews.sheetcoords.SheetCoordinateSystem&#45;&gt;topo.base.sheet.Sheet</title>
<path fill="none" stroke="black" stroke-width="0.5" d="M471.377,-20.0008C484.139,-21.0881 496.798,-22.1667 508.683,-23.1793"/>
<polygon fill="black" stroke="black" points="508.597,-24.9282 513.727,-23.6091 508.894,-21.4408 508.597,-24.9282"/>
</g>
<!-- topo.base.simulation.EventProcessor&#45;&gt;topo.base.sheet.Sheet -->
<g id="edge10" class="edge"><title>topo.base.simulation.EventProcessor&#45;&gt;topo.base.sheet.Sheet</title>
<path fill="none" stroke="black" stroke-width="0.5" d="M451.162,-39.7216C470.581,-38.0671 490.589,-36.3624 508.779,-34.8126"/>
<polygon fill="black" stroke="black" points="509.025,-36.548 513.859,-34.3797 508.728,-33.0606 509.025,-36.548"/>
</g>
</g>
</svg>
