<?xml version="1.0" encoding="UTF-8" standalone="no"?>
<!DOCTYPE svg PUBLIC "-//W3C//DTD SVG 1.1//EN"
 "http://www.w3.org/Graphics/SVG/1.1/DTD/svg11.dtd">
<!-- Generated by graphviz version 2.26.3 (20100126.1600)
 -->
<!-- Title: inheritance0f827376bc Pages: 1 -->
<svg width="1852pt" height="332pt"
 viewBox="0.00 0.00 1852.00 332.00" xmlns="http://www.w3.org/2000/svg" xmlns:xlink="http://www.w3.org/1999/xlink">
<g id="graph1" class="graph" transform="scale(1 1) rotate(0) translate(4 328)">
<title>inheritance0f827376bc</title>
<polygon fill="white" stroke="white" points="-4,5 -4,-328 1849,-328 1849,5 -4,5"/>
<!-- topo.analysis.featureresponses.FeatureMaps -->
<g id="node1" class="node"><title>topo.analysis.featureresponses.FeatureMaps</title>
<polygon fill="none" stroke="black" stroke-width="0.5" points="1157,-324.5 927,-324.5 927,-303.5 1157,-303.5 1157,-324.5"/>
<text text-anchor="middle" x="1042" y="-311.5" font-family="Vera" font-size="10.00">topo.analysis.featureresponses.FeatureMaps</text>
</g>
<!-- topo.analysis.featureresponses.FeatureResponses -->
<g id="node2" class="node"><title>topo.analysis.featureresponses.FeatureResponses</title>
<polygon fill="none" stroke="black" stroke-width="0.5" points="802,-286.5 546,-286.5 546,-265.5 802,-265.5 802,-286.5"/>
<text text-anchor="middle" x="674" y="-273.5" font-family="Vera" font-size="10.00">topo.analysis.featureresponses.FeatureResponses</text>
</g>
<!-- topo.analysis.featureresponses.FeatureResponses&#45;&gt;topo.analysis.featureresponses.FeatureMaps -->
<g id="edge2" class="edge"><title>topo.analysis.featureresponses.FeatureResponses&#45;&gt;topo.analysis.featureresponses.FeatureMaps</title>
<path fill="none" stroke="black" stroke-width="0.5" d="M771.169,-286.034C823.154,-291.402 887.138,-298.009 939.859,-303.453"/>
<polygon fill="black" stroke="black" points="939.772,-305.203 944.925,-303.976 940.131,-301.722 939.772,-305.203"/>
</g>
<!-- topo.analysis.featureresponses.FeatureCurves -->
<g id="node13" class="node"><title>topo.analysis.featureresponses.FeatureCurves</title>
<polygon fill="none" stroke="black" stroke-width="0.5" points="1161,-286.5 923,-286.5 923,-265.5 1161,-265.5 1161,-286.5"/>
<text text-anchor="middle" x="1042" y="-273.5" font-family="Vera" font-size="10.00">topo.analysis.featureresponses.FeatureCurves</text>
</g>
<!-- topo.analysis.featureresponses.FeatureResponses&#45;&gt;topo.analysis.featureresponses.FeatureCurves -->
<g id="edge12" class="edge"><title>topo.analysis.featureresponses.FeatureResponses&#45;&gt;topo.analysis.featureresponses.FeatureCurves</title>
<path fill="none" stroke="black" stroke-width="0.5" d="M802.709,-276C839.749,-276 880.086,-276 916.904,-276"/>
<polygon fill="black" stroke="black" points="917.31,-277.75 922.31,-276 917.31,-274.25 917.31,-277.75"/>
</g>
<!-- topo.analysis.featureresponses.ReverseCorrelation -->
<g id="node23" class="node"><title>topo.analysis.featureresponses.ReverseCorrelation</title>
<polygon fill="none" stroke="black" stroke-width="0.5" points="1172,-248.5 912,-248.5 912,-227.5 1172,-227.5 1172,-248.5"/>
<text text-anchor="middle" x="1042" y="-235.5" font-family="Vera" font-size="10.00">topo.analysis.featureresponses.ReverseCorrelation</text>
</g>
<!-- topo.analysis.featureresponses.FeatureResponses&#45;&gt;topo.analysis.featureresponses.ReverseCorrelation -->
<g id="edge22" class="edge"><title>topo.analysis.featureresponses.FeatureResponses&#45;&gt;topo.analysis.featureresponses.ReverseCorrelation</title>
<path fill="none" stroke="black" stroke-width="0.5" d="M771.169,-265.966C823.154,-260.598 887.138,-253.991 939.859,-248.547"/>
<polygon fill="black" stroke="black" points="940.131,-250.278 944.925,-248.024 939.772,-246.797 940.131,-250.278"/>
</g>
<!-- topo.analysis.featureresponses.SinusoidalMeasureResponseCommand -->
<g id="node4" class="node"><title>topo.analysis.featureresponses.SinusoidalMeasureResponseCommand</title>
<polygon fill="none" stroke="black" stroke-width="0.5" points="1220,-96.5 864,-96.5 864,-75.5 1220,-75.5 1220,-96.5"/>
<text text-anchor="middle" x="1042" y="-83.5" font-family="Vera" font-size="10.00">topo.analysis.featureresponses.SinusoidalMeasureResponseCommand</text>
</g>
<!-- topo.analysis.featureresponses.FeatureCurveCommand -->
<g id="node15" class="node"><title>topo.analysis.featureresponses.FeatureCurveCommand</title>
<polygon fill="none" stroke="black" stroke-width="0.5" points="1540,-96.5 1256,-96.5 1256,-75.5 1540,-75.5 1540,-96.5"/>
<text text-anchor="middle" x="1398" y="-83.5" font-family="Vera" font-size="10.00">topo.analysis.featureresponses.FeatureCurveCommand</text>
</g>
<!-- topo.analysis.featureresponses.SinusoidalMeasureResponseCommand&#45;&gt;topo.analysis.featureresponses.FeatureCurveCommand -->
<g id="edge14" class="edge"><title>topo.analysis.featureresponses.SinusoidalMeasureResponseCommand&#45;&gt;topo.analysis.featureresponses.FeatureCurveCommand</title>
<path fill="none" stroke="black" stroke-width="0.5" d="M1220,-86C1230.21,-86 1240.43,-86 1250.51,-86"/>
<polygon fill="black" stroke="black" points="1250.76,-87.7501 1255.76,-86 1250.76,-84.2501 1250.76,-87.7501"/>
</g>
<!-- topo.analysis.featureresponses.MeasureResponseCommand -->
<g id="node5" class="node"><title>topo.analysis.featureresponses.MeasureResponseCommand</title>
<polygon fill="none" stroke="black" stroke-width="0.5" points="827,-58.5 521,-58.5 521,-37.5 827,-37.5 827,-58.5"/>
<text text-anchor="middle" x="674" y="-45.5" font-family="Vera" font-size="10.00">topo.analysis.featureresponses.MeasureResponseCommand</text>
</g>
<!-- topo.analysis.featureresponses.MeasureResponseCommand&#45;&gt;topo.analysis.featureresponses.SinusoidalMeasureResponseCommand -->
<g id="edge4" class="edge"><title>topo.analysis.featureresponses.MeasureResponseCommand&#45;&gt;topo.analysis.featureresponses.SinusoidalMeasureResponseCommand</title>
<path fill="none" stroke="black" stroke-width="0.5" d="M771.169,-58.0338C823.154,-63.4018 887.138,-70.0088 939.859,-75.4528"/>
<polygon fill="black" stroke="black" points="939.772,-77.203 944.925,-75.976 940.131,-73.7215 939.772,-77.203"/>
</g>
<!-- topo.analysis.featureresponses.SingleInputResponseCommand -->
<g id="node7" class="node"><title>topo.analysis.featureresponses.SingleInputResponseCommand</title>
<polygon fill="none" stroke="black" stroke-width="0.5" points="1201,-58.5 883,-58.5 883,-37.5 1201,-37.5 1201,-58.5"/>
<text text-anchor="middle" x="1042" y="-45.5" font-family="Vera" font-size="10.00">topo.analysis.featureresponses.SingleInputResponseCommand</text>
</g>
<!-- topo.analysis.featureresponses.MeasureResponseCommand&#45;&gt;topo.analysis.featureresponses.SingleInputResponseCommand -->
<g id="edge6" class="edge"><title>topo.analysis.featureresponses.MeasureResponseCommand&#45;&gt;topo.analysis.featureresponses.SingleInputResponseCommand</title>
<path fill="none" stroke="black" stroke-width="0.5" d="M827.667,-48C844.009,-48 860.681,-48 877.145,-48"/>
<polygon fill="black" stroke="black" points="877.247,-49.7501 882.247,-48 877.247,-46.2501 877.247,-49.7501"/>
</g>
<!-- topo.analysis.featureresponses.PositionMeasurementCommand -->
<g id="node17" class="node"><title>topo.analysis.featureresponses.PositionMeasurementCommand</title>
<polygon fill="none" stroke="black" stroke-width="0.5" points="1204,-20.5 880,-20.5 880,0.5 1204,0.5 1204,-20.5"/>
<text text-anchor="middle" x="1042" y="-7.5" font-family="Vera" font-size="10.00">topo.analysis.featureresponses.PositionMeasurementCommand</text>
</g>
<!-- topo.analysis.featureresponses.MeasureResponseCommand&#45;&gt;topo.analysis.featureresponses.PositionMeasurementCommand -->
<g id="edge16" class="edge"><title>topo.analysis.featureresponses.MeasureResponseCommand&#45;&gt;topo.analysis.featureresponses.PositionMeasurementCommand</title>
<path fill="none" stroke="black" stroke-width="0.5" d="M771.169,-37.9662C823.154,-32.5982 887.138,-25.9912 939.859,-20.5472"/>
<polygon fill="black" stroke="black" points="940.131,-22.2785 944.925,-20.024 939.772,-18.797 940.131,-22.2785"/>
</g>
<!-- topo.base.functionfamily.PatternDrivenAnalysis -->
<g id="node9" class="node"><title>topo.base.functionfamily.PatternDrivenAnalysis</title>
<polygon fill="none" stroke="black" stroke-width="0.5" points="477,-286.5 237,-286.5 237,-265.5 477,-265.5 477,-286.5"/>
<text text-anchor="middle" x="357" y="-273.5" font-family="Vera" font-size="10.00">topo.base.functionfamily.PatternDrivenAnalysis</text>
</g>
<!-- topo.base.functionfamily.PatternDrivenAnalysis&#45;&gt;topo.analysis.featureresponses.FeatureResponses -->
<g id="edge8" class="edge"><title>topo.base.functionfamily.PatternDrivenAnalysis&#45;&gt;topo.analysis.featureresponses.FeatureResponses</title>
<path fill="none" stroke="black" stroke-width="0.5" d="M477.296,-276C497.889,-276 519.397,-276 540.314,-276"/>
<polygon fill="black" stroke="black" points="540.333,-277.75 545.333,-276 540.333,-274.25 540.333,-277.75"/>
</g>
<!-- param.parameterized.Parameterized -->
<g id="node11" class="node"><title>param.parameterized.Parameterized</title>
<polygon fill="none" stroke="black" stroke-width="0.5" points="194,-172.5 5.68434e-14,-172.5 0,-151.5 194,-151.5 194,-172.5"/>
<text text-anchor="middle" x="97" y="-159.5" font-family="Vera" font-size="10.00">param.parameterized.Parameterized</text>
</g>
<!-- param.parameterized.Parameterized&#45;&gt;topo.base.functionfamily.PatternDrivenAnalysis -->
<g id="edge10" class="edge"><title>param.parameterized.Parameterized&#45;&gt;topo.base.functionfamily.PatternDrivenAnalysis</title>
<path fill="none" stroke="black" stroke-width="0.5" d="M107.318,-172.077C128.386,-191.991 178.705,-236.251 230,-257 237.445,-260.012 245.31,-262.552 253.328,-264.694"/>
<polygon fill="black" stroke="black" points="253.06,-266.431 258.338,-265.976 253.929,-263.041 253.06,-266.431"/>
</g>
<!-- topo.analysis.featureresponses.PatternPresenter -->
<g id="node19" class="node"><title>topo.analysis.featureresponses.PatternPresenter</title>
<polygon fill="none" stroke="black" stroke-width="0.5" points="482,-248.5 232,-248.5 232,-227.5 482,-227.5 482,-248.5"/>
<text text-anchor="middle" x="357" y="-235.5" font-family="Vera" font-size="10.00">topo.analysis.featureresponses.PatternPresenter</text>
</g>
<!-- param.parameterized.Parameterized&#45;&gt;topo.analysis.featureresponses.PatternPresenter -->
<g id="edge18" class="edge"><title>param.parameterized.Parameterized&#45;&gt;topo.analysis.featureresponses.PatternPresenter</title>
<path fill="none" stroke="black" stroke-width="0.5" d="M116.253,-172.123C141.62,-185.018 187.951,-207.059 230,-219 241.071,-222.144 252.842,-224.793 264.58,-227.018"/>
<polygon fill="black" stroke="black" points="264.372,-228.759 269.607,-227.946 265.007,-225.317 264.372,-228.759"/>
</g>
<!-- topo.analysis.featureresponses.Feature -->
<g id="node25" class="node"><title>topo.analysis.featureresponses.Feature</title>
<polygon fill="none" stroke="black" stroke-width="0.5" points="460,-210.5 254,-210.5 254,-189.5 460,-189.5 460,-210.5"/>
<text text-anchor="middle" x="357" y="-197.5" font-family="Vera" font-size="10.00">topo.analysis.featureresponses.Feature</text>
</g>
<!-- param.parameterized.Parameterized&#45;&gt;topo.analysis.featureresponses.Feature -->
<g id="edge24" class="edge"><title>param.parameterized.Parameterized&#45;&gt;topo.analysis.featureresponses.Feature</title>
<path fill="none" stroke="black" stroke-width="0.5" d="M165.652,-172.034C201.788,-177.315 246.13,-183.796 283.027,-189.189"/>
<polygon fill="black" stroke="black" points="283.214,-190.984 288.414,-189.976 283.72,-187.521 283.214,-190.984"/>
</g>
<!-- topo.analysis.featureresponses.Subplotting -->
<g id="node27" class="node"><title>topo.analysis.featureresponses.Subplotting</title>
<polygon fill="none" stroke="black" stroke-width="0.5" points="469,-172.5 245,-172.5 245,-151.5 469,-151.5 469,-172.5"/>
<text text-anchor="middle" x="357" y="-159.5" font-family="Vera" font-size="10.00">topo.analysis.featureresponses.Subplotting</text>
</g>
<!-- param.parameterized.Parameterized&#45;&gt;topo.analysis.featureresponses.Subplotting -->
<g id="edge26" class="edge"><title>param.parameterized.Parameterized&#45;&gt;topo.analysis.featureresponses.Subplotting</title>
<path fill="none" stroke="black" stroke-width="0.5" d="M194.184,-162C208.957,-162 224.335,-162 239.485,-162"/>
<polygon fill="black" stroke="black" points="239.613,-163.75 244.613,-162 239.613,-160.25 239.613,-163.75"/>
</g>
<!-- topo.analysis.featureresponses.FullMatrix -->
<g id="node29" class="node"><title>topo.analysis.featureresponses.FullMatrix</title>
<polygon fill="none" stroke="black" stroke-width="0.5" points="464,-134.5 250,-134.5 250,-113.5 464,-113.5 464,-134.5"/>
<text text-anchor="middle" x="357" y="-121.5" font-family="Vera" font-size="10.00">topo.analysis.featureresponses.FullMatrix</text>
</g>
<!-- param.parameterized.Parameterized&#45;&gt;topo.analysis.featureresponses.FullMatrix -->
<g id="edge28" class="edge"><title>param.parameterized.Parameterized&#45;&gt;topo.analysis.featureresponses.FullMatrix</title>
<path fill="none" stroke="black" stroke-width="0.5" d="M165.652,-151.966C201.788,-146.685 246.13,-140.204 283.027,-134.811"/>
<polygon fill="black" stroke="black" points="283.72,-136.479 288.414,-134.024 283.214,-133.016 283.72,-136.479"/>
</g>
<!-- topo.analysis.featureresponses.DistributionMatrix -->
<g id="node31" class="node"><title>topo.analysis.featureresponses.DistributionMatrix</title>
<polygon fill="none" stroke="black" stroke-width="0.5" points="484,-96.5 230,-96.5 230,-75.5 484,-75.5 484,-96.5"/>
<text text-anchor="middle" x="357" y="-83.5" font-family="Vera" font-size="10.00">topo.analysis.featureresponses.DistributionMatrix</text>
</g>
<!-- param.parameterized.Parameterized&#45;&gt;topo.analysis.featureresponses.DistributionMatrix -->
<g id="edge30" class="edge"><title>param.parameterized.Parameterized&#45;&gt;topo.analysis.featureresponses.DistributionMatrix</title>
<path fill="none" stroke="black" stroke-width="0.5" d="M116.253,-151.877C141.62,-138.982 187.951,-116.941 230,-105 241.071,-101.856 252.842,-99.2072 264.58,-96.982"/>
<polygon fill="black" stroke="black" points="265.007,-98.6827 269.607,-96.054 264.372,-95.2409 265.007,-98.6827"/>
</g>
<!-- param.parameterized.ParameterizedFunction -->
<g id="node33" class="node"><title>param.parameterized.ParameterizedFunction</title>
<polygon fill="none" stroke="black" stroke-width="0.5" points="474,-58.5 240,-58.5 240,-37.5 474,-37.5 474,-58.5"/>
<text text-anchor="middle" x="357" y="-45.5" font-family="Vera" font-size="10.00">param.parameterized.ParameterizedFunction</text>
</g>
<!-- param.parameterized.Parameterized&#45;&gt;param.parameterized.ParameterizedFunction -->
<g id="edge34" class="edge"><title>param.parameterized.Parameterized&#45;&gt;param.parameterized.ParameterizedFunction</title>
<path fill="none" stroke="black" stroke-width="0.5" d="M107.318,-151.923C128.386,-132.009 178.705,-87.7487 230,-67 237.445,-63.9885 245.31,-61.4483 253.328,-59.3064"/>
<polygon fill="black" stroke="black" points="253.929,-60.9592 258.338,-58.0236 253.06,-57.5686 253.929,-60.9592"/>
</g>
<!-- topo.analysis.featureresponses.UnitCurveCommand -->
<g id="node21" class="node"><title>topo.analysis.featureresponses.UnitCurveCommand</title>
<polygon fill="none" stroke="black" stroke-width="0.5" points="1843,-96.5 1577,-96.5 1577,-75.5 1843,-75.5 1843,-96.5"/>
<text text-anchor="middle" x="1710" y="-83.5" font-family="Vera" font-size="10.00">topo.analysis.featureresponses.UnitCurveCommand</text>
</g>
<!-- topo.analysis.featureresponses.FeatureCurveCommand&#45;&gt;topo.analysis.featureresponses.UnitCurveCommand -->
<g id="edge20" class="edge"><title>topo.analysis.featureresponses.FeatureCurveCommand&#45;&gt;topo.analysis.featureresponses.UnitCurveCommand</title>
<path fill="none" stroke="black" stroke-width="0.5" d="M1540.3,-86C1550.43,-86 1560.64,-86 1570.75,-86"/>
<polygon fill="black" stroke="black" points="1571.03,-87.7501 1576.03,-86 1571.03,-84.2501 1571.03,-87.7501"/>
</g>
<!-- param.parameterized.ParameterizedFunction&#45;&gt;topo.analysis.featureresponses.MeasureResponseCommand -->
<g id="edge32" class="edge"><title>param.parameterized.ParameterizedFunction&#45;&gt;topo.analysis.featureresponses.MeasureResponseCommand</title>
<path fill="none" stroke="black" stroke-width="0.5" d="M474.138,-48C487.569,-48 501.425,-48 515.284,-48"/>
<polygon fill="black" stroke="black" points="515.389,-49.7501 520.389,-48 515.389,-46.2501 515.389,-49.7501"/>
</g>
</g>
</svg>
