<?xml version="1.0" encoding="UTF-8" standalone="no"?>
<!DOCTYPE svg PUBLIC "-//W3C//DTD SVG 1.1//EN"
 "http://www.w3.org/Graphics/SVG/1.1/DTD/svg11.dtd">
<!-- Generated by graphviz version 2.26.3 (20100126.1600)
 -->
<!-- Title: inheritancee28d6ff61e Pages: 1 -->
<svg width="676pt" height="142pt"
 viewBox="0.00 0.00 676.00 142.00" xmlns="http://www.w3.org/2000/svg" xmlns:xlink="http://www.w3.org/1999/xlink">
<g id="graph1" class="graph" transform="scale(1 1) rotate(0) translate(4 138)">
<title>inheritancee28d6ff61e</title>
<polygon fill="white" stroke="white" points="-4,5 -4,-138 673,-138 673,5 -4,5"/>
<!-- param.parameterized.ParameterizedFunction -->
<g id="node1" class="node"><title>param.parameterized.ParameterizedFunction</title>
<polygon fill="none" stroke="black" stroke-width="0.5" points="443,-134 221,-134 221,-114 443,-114 443,-134"/>
<text text-anchor="middle" x="332" y="-121" font-family="Vera" font-size="10.00">param.parameterized.ParameterizedFunction</text>
</g>
<!-- topo.misc.tlancet.param_formatter -->
<g id="node11" class="node"><title>topo.misc.tlancet.param_formatter</title>
<polygon fill="none" stroke="black" stroke-width="0.5" points="661,-134 487,-134 487,-114 661,-114 661,-134"/>
<text text-anchor="middle" x="574" y="-121" font-family="Vera" font-size="10.00">topo.misc.tlancet.param_formatter</text>
</g>
<!-- param.parameterized.ParameterizedFunction&#45;&gt;topo.misc.tlancet.param_formatter -->
<g id="edge10" class="edge"><title>param.parameterized.ParameterizedFunction&#45;&gt;topo.misc.tlancet.param_formatter</title>
<path fill="none" stroke="black" stroke-width="0.5" d="M443.791,-124C456.47,-124 469.284,-124 481.673,-124"/>
<polygon fill="black" stroke="black" points="481.954,-125.75 486.954,-124 481.954,-122.25 481.954,-125.75"/>
</g>
<!-- param.parameterized.Parameterized -->
<g id="node2" class="node"><title>param.parameterized.Parameterized</title>
<polygon fill="none" stroke="black" stroke-width="0.5" points="184,-77 8.52651e-14,-77 0,-57 184,-57 184,-77"/>
<text text-anchor="middle" x="92" y="-64" font-family="Vera" font-size="10.00">param.parameterized.Parameterized</text>
</g>
<!-- param.parameterized.Parameterized&#45;&gt;param.parameterized.ParameterizedFunction -->
<g id="edge2" class="edge"><title>param.parameterized.Parameterized&#45;&gt;param.parameterized.ParameterizedFunction</title>
<path fill="none" stroke="black" stroke-width="0.5" d="M121.985,-77.0187C147.753,-85.3584 186.018,-97.1038 220,-105 232.719,-107.956 246.351,-110.653 259.573,-113.029"/>
<polygon fill="black" stroke="black" points="259.585,-114.808 264.814,-113.958 260.196,-111.362 259.585,-114.808"/>
</g>
<!-- topo.misc.tlancet.RunBatchAnalysis -->
<g id="node4" class="node"><title>topo.misc.tlancet.RunBatchAnalysis</title>
<polygon fill="none" stroke="black" stroke-width="0.5" points="420,-96 244,-96 244,-76 420,-76 420,-96"/>
<text text-anchor="middle" x="332" y="-83" font-family="Vera" font-size="10.00">topo.misc.tlancet.RunBatchAnalysis</text>
</g>
<!-- param.parameterized.Parameterized&#45;&gt;topo.misc.tlancet.RunBatchAnalysis -->
<g id="edge4" class="edge"><title>param.parameterized.Parameterized&#45;&gt;topo.misc.tlancet.RunBatchAnalysis</title>
<path fill="none" stroke="black" stroke-width="0.5" d="M184.104,-74.2916C201.866,-75.6977 220.491,-77.1722 238.303,-78.5823"/>
<polygon fill="black" stroke="black" points="238.182,-80.3281 243.304,-78.9782 238.458,-76.839 238.182,-80.3281"/>
</g>
<!-- lancet.launch.review_and_launch -->
<g id="node6" class="node"><title>lancet.launch.review_and_launch</title>
<polygon fill="none" stroke="black" stroke-width="0.5" points="414,-58 250,-58 250,-38 414,-38 414,-58"/>
<text text-anchor="middle" x="332" y="-45" font-family="Vera" font-size="10.00">lancet.launch.review_and_launch</text>
</g>
<!-- param.parameterized.Parameterized&#45;&gt;lancet.launch.review_and_launch -->
<g id="edge6" class="edge"><title>param.parameterized.Parameterized&#45;&gt;lancet.launch.review_and_launch</title>
<path fill="none" stroke="black" stroke-width="0.5" d="M184.104,-59.7084C203.678,-58.1588 224.301,-56.5262 243.729,-54.9882"/>
<polygon fill="black" stroke="black" points="244.328,-56.6962 249.175,-54.557 244.052,-53.2072 244.328,-56.6962"/>
</g>
<!-- lancet.launch.CommandTemplate -->
<g id="node9" class="node"><title>lancet.launch.CommandTemplate</title>
<polygon fill="none" stroke="black" stroke-width="0.5" points="416,-20 248,-20 248,-1.06581e-14 416,-3.55271e-15 416,-20"/>
<text text-anchor="middle" x="332" y="-7" font-family="Vera" font-size="10.00">lancet.launch.CommandTemplate</text>
</g>
<!-- param.parameterized.Parameterized&#45;&gt;lancet.launch.CommandTemplate -->
<g id="edge12" class="edge"><title>param.parameterized.Parameterized&#45;&gt;lancet.launch.CommandTemplate</title>
<path fill="none" stroke="black" stroke-width="0.5" d="M121.985,-56.9813C147.753,-48.6416 186.018,-36.8962 220,-29 232.719,-26.0444 246.351,-23.3467 259.573,-20.9712"/>
<polygon fill="black" stroke="black" points="260.196,-22.6382 264.814,-20.0424 259.585,-19.1919 260.196,-22.6382"/>
</g>
<!-- topo.misc.tlancet.batch_analysis -->
<g id="node14" class="node"><title>topo.misc.tlancet.batch_analysis</title>
<polygon fill="none" stroke="black" stroke-width="0.5" points="655,-58 493,-58 493,-38 655,-38 655,-58"/>
<text text-anchor="middle" x="574" y="-45" font-family="Vera" font-size="10.00">topo.misc.tlancet.batch_analysis</text>
</g>
<!-- lancet.launch.review_and_launch&#45;&gt;topo.misc.tlancet.batch_analysis -->
<g id="edge14" class="edge"><title>lancet.launch.review_and_launch&#45;&gt;topo.misc.tlancet.batch_analysis</title>
<path fill="none" stroke="black" stroke-width="0.5" d="M414.606,-48C438.255,-48 464.087,-48 487.938,-48"/>
<polygon fill="black" stroke="black" points="487.996,-49.7501 492.996,-48 487.996,-46.2501 487.996,-49.7501"/>
</g>
<!-- topo.misc.tlancet.RunBatchCommand -->
<g id="node8" class="node"><title>topo.misc.tlancet.RunBatchCommand</title>
<polygon fill="none" stroke="black" stroke-width="0.5" points="668,-20 480,-20 480,-1.06581e-14 668,-3.55271e-15 668,-20"/>
<text text-anchor="middle" x="574" y="-7" font-family="Vera" font-size="10.00">topo.misc.tlancet.RunBatchCommand</text>
</g>
<!-- lancet.launch.CommandTemplate&#45;&gt;topo.misc.tlancet.RunBatchCommand -->
<g id="edge8" class="edge"><title>lancet.launch.CommandTemplate&#45;&gt;topo.misc.tlancet.RunBatchCommand</title>
<path fill="none" stroke="black" stroke-width="0.5" d="M416.64,-10C435.328,-10 455.292,-10 474.508,-10"/>
<polygon fill="black" stroke="black" points="474.906,-11.7501 479.906,-10 474.906,-8.25009 474.906,-11.7501"/>
</g>
</g>
</svg>
