<?xml version="1.0" encoding="UTF-8" standalone="no"?>
<!DOCTYPE svg PUBLIC "-//W3C//DTD SVG 1.1//EN"
 "http://www.w3.org/Graphics/SVG/1.1/DTD/svg11.dtd">
<!-- Generated by graphviz version 2.26.3 (20100126.1600)
 -->
<!-- Title: inheritancee1b2df4fe6 Pages: 1 -->
<svg width="730pt" height="142pt"
 viewBox="0.00 0.00 730.00 142.00" xmlns="http://www.w3.org/2000/svg" xmlns:xlink="http://www.w3.org/1999/xlink">
<g id="graph1" class="graph" transform="scale(1 1) rotate(0) translate(4 138)">
<title>inheritancee1b2df4fe6</title>
<polygon fill="white" stroke="white" points="-4,5 -4,-138 727,-138 727,5 -4,5"/>
<!-- topo.sparse.sparsecf.SparseConnectionField -->
<g id="node1" class="node"><title>topo.sparse.sparsecf.SparseConnectionField</title>
<polygon fill="none" stroke="black" stroke-width="0.5" points="458,-134.5 230,-134.5 230,-113.5 458,-113.5 458,-134.5"/>
<text text-anchor="middle" x="344" y="-121.5" font-family="Vera" font-size="10.00">topo.sparse.sparsecf.SparseConnectionField</text>
</g>
<!-- param.parameterized.Parameterized -->
<g id="node2" class="node"><title>param.parameterized.Parameterized</title>
<polygon fill="none" stroke="black" stroke-width="0.5" points="194,-77.5 5.68434e-14,-77.5 0,-56.5 194,-56.5 194,-77.5"/>
<text text-anchor="middle" x="97" y="-64.5" font-family="Vera" font-size="10.00">param.parameterized.Parameterized</text>
</g>
<!-- param.parameterized.Parameterized&#45;&gt;topo.sparse.sparsecf.SparseConnectionField -->
<g id="edge2" class="edge"><title>param.parameterized.Parameterized&#45;&gt;topo.sparse.sparsecf.SparseConnectionField</title>
<path fill="none" stroke="black" stroke-width="0.5" d="M128.45,-77.0754C155.238,-85.3937 194.86,-97.0785 230,-105 243.162,-107.967 257.274,-110.686 270.93,-113.083"/>
<polygon fill="black" stroke="black" points="270.713,-114.821 275.938,-113.952 271.311,-111.373 270.713,-114.821"/>
</g>
<!-- topo.sparse.sparsecf.CFSPOF_Plugin -->
<g id="node5" class="node"><title>topo.sparse.sparsecf.CFSPOF_Plugin</title>
<polygon fill="none" stroke="black" stroke-width="0.5" points="439,-96.5 249,-96.5 249,-75.5 439,-75.5 439,-96.5"/>
<text text-anchor="middle" x="344" y="-83.5" font-family="Vera" font-size="10.00">topo.sparse.sparsecf.CFSPOF_Plugin</text>
</g>
<!-- param.parameterized.Parameterized&#45;&gt;topo.sparse.sparsecf.CFSPOF_Plugin -->
<g id="edge12" class="edge"><title>param.parameterized.Parameterized&#45;&gt;topo.sparse.sparsecf.CFSPOF_Plugin</title>
<path fill="none" stroke="black" stroke-width="0.5" d="M194.266,-74.482C210.416,-75.7243 227.193,-77.0148 243.422,-78.2632"/>
<polygon fill="black" stroke="black" points="243.32,-80.0105 248.44,-78.6492 243.589,-76.5208 243.32,-80.0105"/>
</g>
<!-- topo.sparse.sparsecf.CFSPLF_Plugin -->
<g id="node7" class="node"><title>topo.sparse.sparsecf.CFSPLF_Plugin</title>
<polygon fill="none" stroke="black" stroke-width="0.5" points="438,-58.5 250,-58.5 250,-37.5 438,-37.5 438,-58.5"/>
<text text-anchor="middle" x="344" y="-45.5" font-family="Vera" font-size="10.00">topo.sparse.sparsecf.CFSPLF_Plugin</text>
</g>
<!-- param.parameterized.Parameterized&#45;&gt;topo.sparse.sparsecf.CFSPLF_Plugin -->
<g id="edge6" class="edge"><title>param.parameterized.Parameterized&#45;&gt;topo.sparse.sparsecf.CFSPLF_Plugin</title>
<path fill="none" stroke="black" stroke-width="0.5" d="M194.266,-59.518C210.783,-58.2475 227.955,-56.9265 244.528,-55.6517"/>
<polygon fill="black" stroke="black" points="244.799,-57.3861 249.65,-55.2577 244.531,-53.8964 244.799,-57.3861"/>
</g>
<!-- topo.sparse.sparsecf.CFSPRF_Plugin -->
<g id="node11" class="node"><title>topo.sparse.sparsecf.CFSPRF_Plugin</title>
<polygon fill="none" stroke="black" stroke-width="0.5" points="438,-20.5 250,-20.5 250,0.5 438,0.5 438,-20.5"/>
<text text-anchor="middle" x="344" y="-7.5" font-family="Vera" font-size="10.00">topo.sparse.sparsecf.CFSPRF_Plugin</text>
</g>
<!-- param.parameterized.Parameterized&#45;&gt;topo.sparse.sparsecf.CFSPRF_Plugin -->
<g id="edge10" class="edge"><title>param.parameterized.Parameterized&#45;&gt;topo.sparse.sparsecf.CFSPRF_Plugin</title>
<path fill="none" stroke="black" stroke-width="0.5" d="M128.45,-56.9246C155.238,-48.6063 194.86,-36.9215 230,-29 243.162,-26.033 257.274,-23.3137 270.93,-20.9168"/>
<polygon fill="black" stroke="black" points="271.311,-22.6271 275.938,-20.0485 270.713,-19.1785 271.311,-22.6271"/>
</g>
<!-- topo.sparse.sparsecf.CFSPOF_SproutRetract -->
<g id="node4" class="node"><title>topo.sparse.sparsecf.CFSPOF_SproutRetract</title>
<polygon fill="none" stroke="black" stroke-width="0.5" points="722,-115.5 494,-115.5 494,-94.5 722,-94.5 722,-115.5"/>
<text text-anchor="middle" x="608" y="-102.5" font-family="Vera" font-size="10.00">topo.sparse.sparsecf.CFSPOF_SproutRetract</text>
</g>
<!-- topo.sparse.sparsecf.CFSPOF_Plugin&#45;&gt;topo.sparse.sparsecf.CFSPOF_SproutRetract -->
<g id="edge4" class="edge"><title>topo.sparse.sparsecf.CFSPOF_Plugin&#45;&gt;topo.sparse.sparsecf.CFSPOF_SproutRetract</title>
<path fill="none" stroke="black" stroke-width="0.5" d="M439.683,-92.8863C455.597,-94.0316 472.274,-95.2319 488.688,-96.4131"/>
<polygon fill="black" stroke="black" points="488.659,-98.1655 493.772,-96.779 488.91,-94.6745 488.659,-98.1655"/>
</g>
<!-- topo.sparse.sparsecf.CFSPOF_Prune -->
<g id="node9" class="node"><title>topo.sparse.sparsecf.CFSPOF_Prune</title>
<polygon fill="none" stroke="black" stroke-width="0.5" points="703,-77.5 513,-77.5 513,-56.5 703,-56.5 703,-77.5"/>
<text text-anchor="middle" x="608" y="-64.5" font-family="Vera" font-size="10.00">topo.sparse.sparsecf.CFSPOF_Prune</text>
</g>
<!-- topo.sparse.sparsecf.CFSPOF_Plugin&#45;&gt;topo.sparse.sparsecf.CFSPOF_Prune -->
<g id="edge8" class="edge"><title>topo.sparse.sparsecf.CFSPOF_Plugin&#45;&gt;topo.sparse.sparsecf.CFSPOF_Prune</title>
<path fill="none" stroke="black" stroke-width="0.5" d="M439.683,-79.1137C461.771,-77.5241 485.329,-75.8286 507.61,-74.225"/>
<polygon fill="black" stroke="black" points="507.781,-75.9673 512.643,-73.8628 507.53,-72.4764 507.781,-75.9673"/>
</g>
</g>
</svg>
