<?xml version="1.0" encoding="UTF-8" standalone="no"?>
<!DOCTYPE svg PUBLIC "-//W3C//DTD SVG 1.1//EN"
 "http://www.w3.org/Graphics/SVG/1.1/DTD/svg11.dtd">
<!-- Generated by graphviz version 2.26.3 (20100126.1600)
 -->
<!-- Title: inheritance109cbfe3c3 Pages: 1 -->
<svg width="844pt" height="28pt"
 viewBox="0.00 0.00 844.00 28.00" xmlns="http://www.w3.org/2000/svg" xmlns:xlink="http://www.w3.org/1999/xlink">
<g id="graph1" class="graph" transform="scale(1 1) rotate(0) translate(4 24)">
<title>inheritance109cbfe3c3</title>
<polygon fill="white" stroke="white" points="-4,5 -4,-24 841,-24 841,5 -4,5"/>
<!-- param.parameterized.Parameterized -->
<g id="node1" class="node"><title>param.parameterized.Parameterized</title>
<polygon fill="none" stroke="black" stroke-width="0.5" points="194,-20.5 5.68434e-14,-20.5 0,0.5 194,0.5 194,-20.5"/>
<text text-anchor="middle" x="97" y="-7.5" font-family="Vera" font-size="10.00">param.parameterized.Parameterized</text>
</g>
<!-- topo.base.cf.CFPLearningFn -->
<g id="node3" class="node"><title>topo.base.cf.CFPLearningFn</title>
<polygon fill="none" stroke="black" stroke-width="0.5" points="379,-20.5 231,-20.5 231,0.5 379,0.5 379,-20.5"/>
<text text-anchor="middle" x="305" y="-7.5" font-family="Vera" font-size="10.00">topo.base.cf.CFPLearningFn</text>
</g>
<!-- param.parameterized.Parameterized&#45;&gt;topo.base.cf.CFPLearningFn -->
<g id="edge6" class="edge"><title>param.parameterized.Parameterized&#45;&gt;topo.base.cf.CFPLearningFn</title>
<path fill="none" stroke="black" stroke-width="0.5" d="M194.301,-10C204.655,-10 215.098,-10 225.218,-10"/>
<polygon fill="black" stroke="black" points="225.478,-11.7501 230.478,-10 225.477,-8.2501 225.478,-11.7501"/>
</g>
<!-- topo.learningfn.som.CFPLF_SOM -->
<g id="node2" class="node"><title>topo.learningfn.som.CFPLF_SOM</title>
<polygon fill="none" stroke="black" stroke-width="0.5" points="588,-20.5 416,-20.5 416,0.5 588,0.5 588,-20.5"/>
<text text-anchor="middle" x="502" y="-7.5" font-family="Vera" font-size="10.00">topo.learningfn.som.CFPLF_SOM</text>
</g>
<!-- topo.learningfn.som.CFPLF_HebbianSOM -->
<g id="node5" class="node"><title>topo.learningfn.som.CFPLF_HebbianSOM</title>
<polygon fill="none" stroke="black" stroke-width="0.5" points="836,-20.5 624,-20.5 624,0.5 836,0.5 836,-20.5"/>
<text text-anchor="middle" x="730" y="-7.5" font-family="Vera" font-size="10.00">topo.learningfn.som.CFPLF_HebbianSOM</text>
</g>
<!-- topo.learningfn.som.CFPLF_SOM&#45;&gt;topo.learningfn.som.CFPLF_HebbianSOM -->
<g id="edge4" class="edge"><title>topo.learningfn.som.CFPLF_SOM&#45;&gt;topo.learningfn.som.CFPLF_HebbianSOM</title>
<path fill="none" stroke="black" stroke-width="0.5" d="M588.197,-10C598.167,-10 608.439,-10 618.683,-10"/>
<polygon fill="black" stroke="black" points="618.708,-11.7501 623.708,-10 618.708,-8.2501 618.708,-11.7501"/>
</g>
<!-- topo.base.cf.CFPLearningFn&#45;&gt;topo.learningfn.som.CFPLF_SOM -->
<g id="edge2" class="edge"><title>topo.base.cf.CFPLearningFn&#45;&gt;topo.learningfn.som.CFPLF_SOM</title>
<path fill="none" stroke="black" stroke-width="0.5" d="M379.758,-10C389.861,-10 400.317,-10 410.668,-10"/>
<polygon fill="black" stroke="black" points="410.739,-11.7501 415.738,-10 410.738,-8.2501 410.739,-11.7501"/>
</g>
</g>
</svg>
